<svg width="328" height="693" viewBox="0 0 328 693" fill="none" xmlns="http://www.w3.org/2000/svg">
<path d="M1 37.5759C1 30.2959 6.90159 24.3943 14.1816 24.3943C21.2769 24.3943 27.1103 30.086 27.369 37.1918C28.2315 60.8857 29.0178 79.0522 29.7709 91.4176C30.1473 97.5979 30.5162 102.344 30.8838 105.611C31.0672 107.241 31.2528 108.527 31.4436 109.447C31.5384 109.904 31.6406 110.301 31.7553 110.615C31.8126 110.772 31.8819 110.934 31.9689 111.082C32.0476 111.216 32.1871 111.42 32.4179 111.572C32.6967 111.755 33.079 111.836 33.4641 111.688C33.7781 111.566 33.9653 111.339 34.0599 111.204C34.2528 110.929 34.3805 110.565 34.4768 110.227C34.6819 109.509 34.8742 108.42 35.0619 106.999C35.4399 104.135 35.8227 99.7278 36.2169 93.76C37.0058 81.816 37.8457 63.5382 38.7794 38.6681C39.0768 30.7467 45.5817 24.3943 53.4912 24.3943C61.413 24.3943 67.9106 30.715 68.2476 38.6485C68.7522 50.5311 69.2617 58.5565 69.7677 63.1515C69.8944 64.3019 70.0221 65.2491 70.1515 65.9943C70.2776 66.7201 70.4153 67.3169 70.5798 67.7285C70.6523 67.91 70.7835 68.1991 71.0268 68.4163C71.1646 68.5392 71.3886 68.6834 71.694 68.7111C72.0114 68.7399 72.2744 68.6302 72.4543 68.5026C72.7537 68.2902 72.9037 67.9751 72.9749 67.811C73.0648 67.6036 73.1402 67.3603 73.2063 67.1023C73.7144 65.1204 74.1785 60.1534 74.611 52.7977C75.0464 45.3912 75.4543 35.4492 75.8245 23.425C75.9878 18.1213 78.3828 13.9568 82.6219 10.6992C86.8979 7.41323 93.0559 5.0518 100.675 3.48369C115.909 0.3484 136.626 0.452889 158.773 2.29267C203.038 5.96988 252.664 16.5454 274.723 21.6072C281.229 23.0999 285.76 28.8017 285.998 35.5123C286.43 47.6864 286.826 56.6759 287.203 62.6397C287.391 65.6185 287.576 67.8596 287.76 69.3707C287.851 70.121 287.946 70.7223 288.049 71.1533C288.099 71.3626 288.161 71.5792 288.247 71.7651C288.289 71.8565 288.356 71.9855 288.462 72.1094C288.561 72.2258 288.778 72.4341 289.127 72.4913C289.517 72.5551 289.823 72.3951 289.999 72.2473C290.158 72.1141 290.251 71.9619 290.301 71.8697C290.404 71.6794 290.473 71.4588 290.523 71.2669C290.629 70.8628 290.724 70.2945 290.815 69.5947C290.999 68.1814 291.182 66.0799 291.368 63.3259C291.74 57.8109 292.128 49.603 292.551 38.8766C292.869 30.7997 299.493 24.3943 307.569 24.3943H312C320.284 24.3943 327 31.11 327 39.3943V583.75C327 592.034 320.284 598.75 312 598.75H307.558C298.581 598.75 291.184 605.738 290.588 614.686C290.29 619.159 290.001 623.044 289.707 625.946C289.663 626.382 289.619 626.795 289.575 627.183C289.25 624.521 288.897 620.5 288.507 614.852C287.888 605.866 280.478 598.75 271.441 598.75H89.9274C80.7384 598.75 73.2252 606.097 72.9101 615.268C72.418 629.594 71.9718 640.014 71.5548 646.767C71.5169 647.382 71.4792 647.965 71.4418 648.518C71.3793 647.525 71.3167 646.437 71.2538 645.255C70.884 638.299 70.5087 628.138 70.1113 614.995C69.8389 605.984 62.4673 598.75 53.441 598.75C44.4665 598.75 37.1169 605.943 36.7798 614.894C35.7639 641.875 34.8538 661.645 34.0098 674.53C33.5875 680.977 33.1831 685.68 32.7927 688.695C32.7737 688.842 32.7548 688.984 32.736 689.122C32.6604 688.54 32.5844 687.885 32.5079 687.156C32.1416 683.665 31.7751 678.566 31.4043 671.89C30.6629 658.542 29.9071 638.943 29.097 613.405C28.8394 605.283 22.1852 598.75 14.0457 598.75C6.84076 598.75 1 592.909 1 585.704V37.5759ZM33.6932 110.069C33.6928 110.068 33.6923 110.067 33.6917 110.066C33.6956 110.072 33.6959 110.074 33.6932 110.069ZM71.1183 67.0588C71.1184 67.058 71.1214 67.0519 71.1278 67.0419C71.1216 67.0546 71.1183 67.0597 71.1183 67.0588ZM72.4663 67.0509C72.466 67.0506 72.4645 67.048 72.4619 67.0428C72.4652 67.0483 72.4666 67.0512 72.4663 67.0509Z" fill="#FFAD33" stroke="#99681F" stroke-width="2"/>
<path d="M72.5 660.808C72.5 661.18 72.3495 662 72.0893 662.735C71.9603 663.1 71.8162 663.408 71.6726 663.616C71.588 663.738 71.5293 663.79 71.5 663.811C71.4707 663.79 71.412 663.738 71.3274 663.616C71.1838 663.408 71.0397 663.1 70.9107 662.735C70.6505 662 70.5 661.18 70.5 660.808C70.5 660.151 70.9839 659.686 71.5 659.686C72.0161 659.686 72.5 660.151 72.5 660.808Z" fill="#FFAD33" stroke="#99681F"/>
<path d="M71.5 667.956C71.5 668.181 71.4045 668.732 71.2336 669.236C71.1583 669.458 71.0775 669.643 71 669.773C70.9225 669.643 70.8417 669.458 70.7664 669.236C70.5955 668.732 70.5 668.181 70.5 667.956C70.5 667.597 70.7601 667.374 71 667.374C71.2399 667.374 71.5 667.597 71.5 667.956Z" fill="#FFAD33" stroke="#99681F"/>
<path d="M290.5 646.28C290.5 646.652 290.35 647.472 290.089 648.207C289.96 648.572 289.816 648.88 289.673 649.088C289.588 649.21 289.529 649.262 289.5 649.283C289.471 649.262 289.412 649.21 289.327 649.088C289.184 648.88 289.04 648.572 288.911 648.207C288.65 647.472 288.5 646.652 288.5 646.28C288.5 645.623 288.984 645.158 289.5 645.158C290.016 645.158 290.5 645.623 290.5 646.28Z" fill="#FFAD33" stroke="#99681F"/>
<path d="M291.5 636.97C291.5 637.491 291.294 638.604 290.943 639.595C290.769 640.087 290.571 640.514 290.367 640.808C290.142 641.134 290.01 641.157 290 641.157C289.99 641.157 289.858 641.134 289.633 640.808C289.429 640.514 289.231 640.087 289.057 639.595C288.706 638.604 288.5 637.491 288.5 636.97C288.5 636.014 289.208 635.307 290 635.307C290.792 635.307 291.5 636.014 291.5 636.97Z" fill="#FFAD33" stroke="#99681F"/>
<path d="M290.5 654.393C290.5 654.617 290.405 655.169 290.234 655.673C290.158 655.895 290.077 656.08 290 656.21C289.923 656.08 289.842 655.895 289.766 655.673C289.595 655.169 289.5 654.617 289.5 654.393C289.5 654.034 289.76 653.811 290 653.811C290.24 653.811 290.5 654.034 290.5 654.393Z" fill="#FFAD33" stroke="#99681F"/>
</svg>
