<svg width="72" height="72" viewBox="0 0 72 72" fill="none" xmlns="http://www.w3.org/2000/svg">
<g id="reshot-icon-climate-change-4TQA2857E3 1">
<g id="27. Climate Change">
<path id="Vector" d="M42 63C56.0833 63 67.5 51.5833 67.5 37.5C67.5 23.4167 56.0833 12 42 12C27.9167 12 16.5 23.4167 16.5 37.5C16.5 51.5833 27.9167 63 42 63Z" fill="#9FDBF3"/>
<path id="Vector_2" d="M67.5002 37.4999C67.5062 41.2411 66.6849 44.9373 65.0953 48.324C63.5057 51.7107 61.187 54.7041 58.3052 57.0899C54.6663 59.0077 50.6136 60.0067 46.5002 59.9999C22.5002 59.9999 12.0002 29.9999 30.1952 14.9099C34.0809 12.8805 38.4241 11.8871 42.8056 12.0255C47.1871 12.164 51.459 13.4297 55.2088 15.7003C58.9585 17.971 62.0596 21.17 64.2127 24.9886C66.3657 28.8071 67.498 33.1162 67.5002 37.4999Z" fill="#B2E5FB"/>
<path id="Vector_3" d="M66.9005 31.9799C65.5828 32.3698 64.3647 33.0392 63.3292 33.9426C62.2937 34.8461 61.4653 35.9622 60.9005 37.2149C60.1055 39.5549 61.9955 44.9699 59.7905 48.2999C58.5305 50.1899 55.4555 51.3899 54.3905 50.1299C53.5655 49.1699 53.2805 47.3849 54.2405 44.9699C55.2005 42.5549 55.3505 39.4349 52.0205 38.3249C48.6905 37.2149 45.3755 39.4349 44.2655 33.8249C43.5755 30.3899 46.9505 28.9199 48.6905 27.1799C51.4505 24.4199 49.6355 23.1899 49.5755 20.9399H61.5005C64.1804 24.1203 66.0351 27.9121 66.9005 31.9799Z" fill="#9DCC6B"/>
<path id="Vector_4" d="M36.45 26.415C37.56 31.95 32.025 29.745 29.805 30.915C27 32.31 29.28 37.275 26.475 38.67C25.8274 39.0017 25.1101 39.1747 24.3825 39.1747C23.6549 39.1747 22.9376 39.0017 22.29 38.67C21.9009 36.7944 20.9235 35.0918 19.5 33.81V25.5C21.6749 21.422 24.9173 18.0118 28.8804 15.6339C32.8435 13.2561 37.3783 12 42 12C41.0666 12.0015 40.1568 12.2932 39.3966 12.8347C38.6363 13.3762 38.0633 14.1407 37.7568 15.0223C37.4502 15.9039 37.4255 16.859 37.6858 17.7553C37.9462 18.6516 38.4789 19.4448 39.21 20.025C37.83 19.755 36.45 19.2 35.355 19.755C33.135 20.865 35.85 23.34 36.45 26.415Z" fill="#9DCC6B"/>
<path id="Vector_5" d="M38.8205 53.13C37.8564 52.3157 36.7319 51.7134 35.5199 51.3619C34.3079 51.0105 33.0356 50.9178 31.7855 51.09C30.5405 50.25 29.2505 49.68 28.6955 48.585C27.5855 46.365 28.6955 41.94 33.1955 43.05C34.9512 43.6604 36.4617 44.8235 37.5005 46.365C38.6105 48.585 42.0005 46.365 43.0505 48.585C44.7755 52.215 40.0655 52.125 38.8205 53.13Z" fill="#9DCC6B"/>
<path id="Vector_6" d="M41.6101 15.645C39.3901 18.975 36.0601 15.645 33.8551 16.755C31.6501 17.865 34.3501 20.34 34.9501 23.415C36.0601 28.95 30.5251 26.745 28.3051 27.915C25.5001 29.31 27.7801 34.275 24.9751 35.67C24.3808 35.9791 23.7249 36.1517 23.0554 36.175C22.3859 36.1984 21.7196 36.072 21.1051 35.805C19.1551 32.085 19.5001 37.59 19.5001 25.5C26.3701 12.63 41.2501 11.265 42.0001 12.075C42.195 12.6632 42.261 13.2864 42.1937 13.9024C42.1264 14.5184 41.9274 15.1127 41.6101 15.645Z" fill="#B5E08C"/>
<path id="Vector_7" d="M38.4302 53.5049C37.9101 52.7839 37.5099 51.9836 37.2452 51.1349C35.7452 46.7549 30.4952 47.8499 31.3652 42.8999C32.5956 42.9202 33.8014 43.2478 34.8729 43.853C35.9444 44.4581 36.8476 45.3216 37.5002 46.3649C38.7602 48.8699 42.4652 45.7499 43.3352 49.4399C44.0102 52.4999 39.8552 51.8849 38.4302 53.5049Z" fill="#B5E08C"/>
<path id="Vector_8" d="M66.8853 31.98C65.5632 32.3606 64.3406 33.0266 63.3039 33.9311C62.2672 34.8357 61.4416 35.9566 60.8853 37.215C60.1653 39.33 61.6353 43.95 60.3153 47.28C56.7753 48.78 55.8153 45.42 57.2253 41.97C58.1403 39.66 58.3353 36.435 55.0053 35.325C51.6753 34.215 48.3603 36.435 47.2503 30.825C46.6053 27.69 48.5403 28.035 49.7853 25.77C50.4603 25.215 51.1503 24.705 51.6753 24.18C54.9603 20.895 51.7653 19.77 52.7403 16.545C53.5217 16.1568 54.3346 15.8356 55.1703 15.585C58.1343 17.3786 60.7017 19.7574 62.7159 22.5762C64.7301 25.395 66.1487 28.5947 66.8853 31.98Z" fill="#B5E08C"/>
<path id="Vector_9" d="M11.5655 49.305C9.94802 48.9484 8.46032 48.1524 7.26618 47.0047C6.07205 45.8569 5.21781 44.4019 4.79751 42.7998C4.37722 41.1977 4.40718 39.5107 4.88408 37.9245C5.36099 36.3384 6.26635 34.9146 7.50048 33.81C7.50048 8.81996 6.90048 8.63996 9.25548 6.25496C10.0946 5.4149 11.1641 4.84269 12.3286 4.61079C13.4932 4.37889 14.7003 4.49771 15.7972 4.95223C16.8942 5.40674 17.8316 6.17651 18.4908 7.16407C19.15 8.15163 19.5014 9.31259 19.5005 10.5V33.81C20.9818 35.1365 21.9822 36.9164 22.3452 38.8715C22.7082 40.8266 22.4135 42.8469 21.5071 44.6168C20.6007 46.3868 19.1337 47.8067 17.3351 48.6549C15.5365 49.503 13.5077 49.7316 11.5655 49.305Z" fill="#DAD7E5"/>
<path id="Vector_10" d="M15.0005 49.3649C12.5555 49.3649 8.58054 46.5449 7.72554 42.4049C7.38971 40.8548 7.4695 39.2435 7.95681 37.7341C8.44413 36.2248 9.32166 34.871 10.5005 33.8099V10.4999C10.5015 9.17054 10.944 7.8791 11.7585 6.82842C12.573 5.77773 13.7133 5.0273 15.0005 4.69495C16.2877 5.0273 17.4281 5.77773 18.2426 6.82842C19.0571 7.8791 19.4995 9.17054 19.5005 10.4999V33.8099C20.7554 34.941 21.6665 36.4023 22.1299 38.0268C22.5932 39.6514 22.5899 41.3735 22.1204 42.9963C21.651 44.6191 20.7343 46.077 19.4752 47.2032C18.2161 48.3295 16.6654 49.0786 15.0005 49.3649Z" fill="#EDEBF2"/>
<path id="Vector_11" d="M16.5 40.5C16.5 41.2956 16.1839 42.0587 15.6213 42.6213C15.0587 43.1839 14.2956 43.5 13.5 43.5C12.7044 43.5 11.9413 43.1839 11.3787 42.6213C10.8161 42.0587 10.5 41.2956 10.5 40.5C10.5 39.7044 10.8161 38.9413 11.3787 38.3787C11.9413 37.8161 12.7044 37.5 13.5 37.5C14.2956 37.5 15.0587 37.8161 15.6213 38.3787C16.1839 38.9413 16.5 39.7044 16.5 40.5Z" fill="#6FABE6"/>
<path id="Vector_12" d="M13.5007 39C11.4757 39 12.0007 37.29 12.0007 28.5C12.0007 28.1022 12.1587 27.7206 12.44 27.4393C12.7213 27.158 13.1028 27 13.5007 27C13.8985 27 14.28 27.158 14.5613 27.4393C14.8426 27.7206 15.0007 28.1022 15.0007 28.5C15.0007 37.5 15.4957 39 13.5007 39Z" fill="#82BCF4"/>
<path id="Vector_13" d="M67.5006 14.9999C67.5006 16.5912 66.8685 18.1174 65.7433 19.2426C64.618 20.3678 63.0919 20.9999 61.5006 20.9999C40.3056 20.9999 40.8456 21.3449 39.2106 20.0249C38.4795 19.4448 37.9468 18.6516 37.6864 17.7553C37.4261 16.8589 37.4509 15.9038 37.7574 15.0222C38.0639 14.1406 38.6369 13.3761 39.3972 12.8346C40.1574 12.2931 41.0672 12.0014 42.0006 11.9999H42.1356C41.8844 10.8046 41.879 9.57069 42.12 8.37325C42.3609 7.17582 42.8431 6.03996 43.5371 5.03484C44.2311 4.02973 45.1224 3.1764 46.1568 2.52682C47.1912 1.87724 48.3469 1.44501 49.5537 1.25645C50.7605 1.06789 51.9931 1.12695 53.1763 1.43002C54.3595 1.7331 55.4687 2.27385 56.4362 3.01935C57.4038 3.76484 58.2095 4.69948 58.8042 5.76634C59.3989 6.83321 59.7703 8.00996 59.8956 9.22495C60.7863 8.97768 61.722 8.93955 62.6299 9.11351C63.5377 9.28748 64.393 9.66885 65.1292 10.2279C65.8654 10.7869 66.4624 11.5084 66.8737 12.3362C67.2851 13.164 67.4996 14.0756 67.5006 14.9999Z" fill="#DAD7E5"/>
<path id="Vector_14" d="M64.5008 20.175C62.4758 21.375 62.5358 21 42.0008 21C41.8812 21.0144 41.7604 21.0144 41.6408 21C38.5358 17.49 42.5258 12.675 45.1358 13.5C43.3508 3.67496 58.3208 -2.20504 59.8958 9.22496C66.5408 7.27496 70.6058 16.68 64.5008 20.175Z" fill="#EDEBF2"/>
<path id="Vector_15" d="M46.5 69.6749C44.475 70.8749 44.535 70.4999 24 70.4999C18 70.4999 18 61.4999 24 61.4999C24.24 61.4999 24 61.3499 24 59.9999C23.999 58.2824 24.4895 56.6005 25.4136 55.1527C26.3376 53.705 27.6566 52.5519 29.2149 51.8295C30.7731 51.1072 32.5055 50.8458 34.2074 51.0762C35.9094 51.3067 37.5099 52.0193 38.82 53.1299C40.4943 54.5565 41.5882 56.5468 41.895 58.7249C48.525 56.7749 52.62 66.1649 46.5 69.6749Z" fill="#DAD7E5"/>
<path id="Vector_16" d="M46.5008 69.6749C44.4758 70.8749 44.5358 70.4999 24.0008 70.4999C23.8812 70.5144 23.7604 70.5144 23.6408 70.4999C20.5358 66.9899 24.5258 62.1749 27.1358 62.9999C25.3508 53.1599 40.3208 47.2799 41.8958 58.7099C48.5408 56.7749 52.6058 66.1799 46.5008 69.6749Z" fill="#EDEBF2"/>
<path id="Vector_17" d="M16.2304 41.7299C15.6763 41.9763 15.0605 42.0489 14.4642 41.9382C13.8679 41.8275 13.3192 41.5387 12.8904 41.1099C12.4616 40.6811 12.1728 40.1324 12.0621 39.5361C11.9514 38.9399 12.0241 38.3241 12.2704 37.7699C12.8246 37.5236 13.4404 37.4509 14.0366 37.5616C14.6329 37.6723 15.1816 37.9611 15.6104 38.3899C16.0392 38.8187 16.328 39.3674 16.4387 39.9637C16.5494 40.56 16.4768 41.1758 16.2304 41.7299Z" fill="#82BCF4"/>
</g>
</g>
</svg>
