<svg width="800" height="452" viewBox="0 0 800 452" fill="none" xmlns="http://www.w3.org/2000/svg">
<path d="M1 30.2831C1 21.9988 7.71573 15.2831 16 15.2831H54.0631C61.5455 15.2831 67.8844 20.8452 69.0077 28.2662C70.9473 41.0799 72.7387 50.9103 74.4713 57.5927C75.3358 60.9272 76.1983 63.5288 77.0794 65.3378C77.5191 66.2407 77.986 66.9937 78.4946 67.5473C78.9997 68.0971 79.6248 68.5337 80.378 68.6134C81.1564 68.6957 81.8422 68.3742 82.4018 67.8841C82.9497 67.4043 83.4414 66.7117 83.897 65.8746C84.8109 64.1956 85.7086 61.6897 86.6147 58.3957C88.432 51.7891 90.3478 41.7628 92.4523 28.2122C93.6016 20.8119 99.9294 15.2831 107.396 15.2831H153.504C160.995 15.2831 167.268 20.8864 168.749 28.3251C169.913 34.1682 171.104 38.1086 172.348 40.2309C172.947 41.2534 173.718 42.136 174.75 42.3124C175.884 42.5064 176.769 41.7826 177.385 40.9596C178.022 40.1067 178.599 38.8633 179.134 37.3305C179.675 35.782 180.196 33.8718 180.698 31.6382C181.701 27.1701 182.639 21.3454 183.493 14.4052C183.566 13.8115 183.912 13.1595 184.699 12.4544C185.49 11.7457 186.667 11.0382 188.26 10.3492C191.443 8.97185 196.085 7.75257 202.046 6.69234C213.955 4.57456 230.903 3.12941 251.443 2.22562C292.51 0.418599 347.785 0.781198 405.473 2.20144C520.842 5.04174 645.779 12.1097 685.821 14.4869C692.978 14.9118 698.73 20.3878 699.859 27.523C700.739 33.0838 701.566 37.2254 702.374 39.9825C702.776 41.3527 703.19 42.4424 703.634 43.2047C703.856 43.5854 704.115 43.9363 704.428 44.1978C704.75 44.4675 705.175 44.6775 705.682 44.6552C706.179 44.6333 706.581 44.3945 706.881 44.1206C707.177 43.8497 707.427 43.496 707.645 43.1107C708.083 42.3395 708.492 41.2577 708.891 39.9221C709.692 37.2369 710.51 33.3015 711.378 28.2147C712.641 20.8141 718.937 15.2831 726.399 15.2831H784C792.284 15.2831 799 21.9988 799 30.2831V350.17C799 358.455 792.284 365.17 784 365.17H726.825C718.607 365.17 711.711 371.071 709.986 379.051C709.299 382.225 708.639 384.82 707.979 386.674C707.648 387.603 707.331 388.305 707.033 388.788C706.758 389.235 706.567 389.382 706.497 389.421C706.47 389.407 706.419 389.376 706.347 389.309C706.1 389.085 705.762 388.613 705.359 387.759C704.562 386.072 703.668 383.25 702.66 379.037C700.765 371.112 693.889 365.17 685.658 365.17H196.104C187.31 365.17 180 371.899 179.097 380.626C178.054 390.706 177.097 398.21 176.186 403.177C175.73 405.669 175.292 407.477 174.877 408.641C174.744 409.015 174.622 409.297 174.514 409.504C174.399 409.283 174.268 408.977 174.125 408.57C173.709 407.38 173.272 405.552 172.816 403.053C171.907 398.068 170.953 390.587 169.913 380.607C169.004 371.885 161.697 365.17 152.909 365.17H108.115C99.3135 365.17 91.98 371.963 91.144 380.706C88.9234 403.93 86.9143 421.524 85.0124 433.355C84.0605 439.277 83.1413 443.718 82.2465 446.689C81.7973 448.18 81.3693 449.249 80.9733 449.938C80.7755 450.282 80.6078 450.492 80.4815 450.609C80.4438 450.644 80.4142 450.667 80.3927 450.682C80.3265 450.639 80.1835 450.518 79.9677 450.19C79.5903 449.615 79.1689 448.657 78.7201 447.25C77.8284 444.454 76.9094 440.15 75.9564 434.283C74.0529 422.563 72.0407 404.781 69.8159 380.766C69.0039 372.001 61.6608 365.17 52.8377 365.17H16C7.71573 365.17 1 358.455 1 350.17V30.2831ZM174.252 409.898C174.252 409.897 174.256 409.893 174.263 409.888C174.256 409.895 174.252 409.898 174.252 409.898Z" fill="#FFAD33" stroke="#99681F" stroke-width="2"/>
<path d="M175.5 415.41C175.5 415.88 175.297 416.9 174.947 417.812C174.774 418.264 174.578 418.654 174.378 418.922C174.161 419.213 174.028 419.243 174 419.243C173.972 419.243 173.839 419.213 173.622 418.922C173.422 418.654 173.226 418.264 173.053 417.812C172.703 416.9 172.5 415.88 172.5 415.41C172.5 414.581 173.172 413.91 174 413.91C174.828 413.91 175.5 414.581 175.5 415.41Z" fill="#FFAD33" stroke="#99681F"/>
<path d="M174.5 423.41C174.5 423.606 174.407 424.107 174.238 424.57C174.16 424.781 174.078 424.953 174 425.07C173.922 424.953 173.84 424.781 173.762 424.57C173.593 424.107 173.5 423.606 173.5 423.41C173.5 423.134 173.724 422.91 174 422.91C174.276 422.91 174.5 423.134 174.5 423.41ZM173.907 425.182C173.907 425.182 173.908 425.181 173.91 425.179C173.908 425.181 173.907 425.182 173.907 425.182ZM174.09 425.179C174.092 425.181 174.093 425.182 174.093 425.182C174.093 425.182 174.092 425.181 174.09 425.179Z" fill="#FFAD33" stroke="#99681F"/>
<path d="M707.5 405.41C707.5 405.88 707.297 406.9 706.947 407.812C706.774 408.264 706.578 408.654 706.378 408.922C706.161 409.213 706.028 409.243 706 409.243C705.972 409.243 705.839 409.213 705.622 408.922C705.422 408.654 705.226 408.264 705.053 407.812C704.703 406.9 704.5 405.88 704.5 405.41C704.5 404.581 705.172 403.91 706 403.91C706.828 403.91 707.5 404.581 707.5 405.41Z" fill="#FFAD33" stroke="#99681F"/>
<path d="M708.5 395.41C708.5 396.156 708.185 397.717 707.654 399.102C707.391 399.791 707.087 400.4 706.767 400.828C706.43 401.278 706.166 401.41 706 401.41C705.834 401.41 705.57 401.278 705.233 400.828C704.913 400.4 704.609 399.791 704.346 399.102C703.815 397.717 703.5 396.156 703.5 395.41C703.5 394.029 704.619 392.91 706 392.91C707.381 392.91 708.5 394.029 708.5 395.41Z" fill="#FFAD33" stroke="#99681F"/>
<path d="M706.5 412.41C706.5 412.606 706.407 413.107 706.238 413.57C706.16 413.781 706.078 413.953 706 414.07C705.922 413.953 705.84 413.781 705.762 413.57C705.593 413.107 705.5 412.606 705.5 412.41C705.5 412.134 705.724 411.91 706 411.91C706.276 411.91 706.5 412.134 706.5 412.41ZM705.907 414.182C705.907 414.182 705.908 414.181 705.91 414.179C705.908 414.181 705.907 414.182 705.907 414.182ZM706.09 414.179C706.092 414.181 706.093 414.182 706.093 414.182C706.093 414.182 706.092 414.181 706.09 414.179Z" fill="#FFAD33" stroke="#99681F"/>
</svg>
