<svg width="64" height="64" viewBox="0 0 64 64" fill="none" xmlns="http://www.w3.org/2000/svg">
<g clip-path="url(#clip0_11673_28896)">
<path d="M64 0H0V64H64V0Z" fill="#1BB1B2"/>
<path style="mix-blend-mode:overlay" opacity="0.43" d="M52.0943 44.8999H12.5469L27.329 12.9072H37.3121L52.0943 44.8999Z" fill="url(#paint0_linear_11673_28896)"/>
<path d="M11.6836 35.9535L12.1848 33.5646L14.8196 32.9673" stroke="#283035" stroke-width="0.512" stroke-linecap="round" stroke-linejoin="round"/>
<path d="M9.82161 45.1064H12.964C13.073 45.1064 13.1783 45.0667 13.2601 44.9946C13.3419 44.9225 13.3947 44.8232 13.4084 44.7151L14.2478 38.1294H8.53809L9.37751 44.7151C9.39127 44.8231 9.44401 44.9225 9.52573 44.9945C9.60746 45.0665 9.71268 45.1063 9.82161 45.1064Z" fill="#EAD57D"/>
<path d="M9.41156 38.1295L10.0775 44.2117C10.0912 44.3368 10.1506 44.4525 10.2444 44.5365C10.3381 44.6205 10.4595 44.667 10.5854 44.667H13.4149L13.4088 44.715C13.395 44.8231 13.3423 44.9225 13.2605 44.9946C13.1787 45.0667 13.0734 45.1063 12.9644 45.1063H9.82199C9.713 45.1063 9.60772 45.0666 9.52593 44.9945C9.44413 44.9225 9.3914 44.8231 9.37764 44.715L8.53809 38.1295H9.41156Z" fill="#E5C66E"/>
<path d="M9.82161 45.1064H12.964C13.073 45.1064 13.1783 45.0667 13.2601 44.9946C13.3419 44.9225 13.3947 44.8232 13.4084 44.7151L14.2478 38.1294H8.53809L9.37751 44.7151C9.39127 44.8231 9.44401 44.9225 9.52573 44.9945C9.60746 45.0665 9.71268 45.1063 9.82161 45.1064Z" stroke="#283035" stroke-width="0.384" stroke-linecap="round" stroke-linejoin="round"/>
<path d="M14.0318 43.2105L14.4378 40.0254H8.34668L8.75263 43.2105H14.0318Z" fill="#5CBF84"/>
<path d="M14.0318 43.2105L14.4378 40.0254H8.34668L8.75263 43.2105H14.0318Z" fill="#4FB277"/>
<path d="M14.0066 42.8425L14.347 40.0254H9.23926L9.55286 42.619C9.56035 42.6806 9.59011 42.7374 9.63657 42.7785C9.68303 42.8198 9.743 42.8425 9.80508 42.8425H14.0066Z" fill="#5CBF84"/>
<path d="M14.0318 43.2105L14.4378 40.0254H8.34668L8.75263 43.2105H14.0318Z" stroke="#283035" stroke-width="0.384" stroke-linecap="round" stroke-linejoin="round"/>
<path d="M8.1708 38.1294H14.6142C15.003 38.1294 15.3182 37.8143 15.3182 37.4254C15.3182 37.0366 15.003 36.7214 14.6142 36.7214H8.1708C7.782 36.7214 7.4668 37.0366 7.4668 37.4254C7.4668 37.8143 7.782 38.1294 8.1708 38.1294Z" fill="#5CBF84"/>
<path d="M8.1708 38.1294H14.6142C15.003 38.1294 15.3182 37.8143 15.3182 37.4254C15.3182 37.0366 15.003 36.7214 14.6142 36.7214H8.1708C7.782 36.7214 7.4668 37.0366 7.4668 37.4254C7.4668 37.8143 7.782 38.1294 8.1708 38.1294Z" fill="#4FB277"/>
<path d="M8.89868 37.8254H14.7659C15.0708 37.8254 15.3179 37.5783 15.3179 37.2734C15.3179 36.9686 15.0708 36.7214 14.7659 36.7214H8.89868C8.59385 36.7214 8.34668 36.9686 8.34668 37.2734C8.34668 37.5783 8.59385 37.8254 8.89868 37.8254Z" fill="#5CBF84"/>
<path d="M8.1708 38.1294H14.6142C15.003 38.1294 15.3182 37.8143 15.3182 37.4254C15.3182 37.0366 15.003 36.7214 14.6142 36.7214H8.1708C7.782 36.7214 7.4668 37.0366 7.4668 37.4254C7.4668 37.8143 7.782 38.1294 8.1708 38.1294Z" stroke="#283035" stroke-width="0.384" stroke-linecap="round" stroke-linejoin="round"/>
<path d="M8.83203 36.7215H13.952L13.8507 35.9535H8.93341L8.83203 36.7215Z" fill="#5CBF84"/>
<path d="M8.93341 35.9535H10.4356L10.08 36.7215H8.83203L8.93341 35.9535Z" fill="#54AF79"/>
<path d="M8.83203 36.7215H13.952L13.8507 35.9535H8.93341L8.83203 36.7215Z" stroke="#283035" stroke-width="0.384" stroke-linecap="round" stroke-linejoin="round"/>
<path d="M19.885 27.8947H41.5028C41.7933 27.8947 42.0718 28.01 42.2773 28.2154C42.4826 28.4208 42.598 28.6994 42.598 28.9899V43.2547H18.79V28.9898C18.79 28.6994 18.9054 28.4209 19.1107 28.2155C19.3161 28.0101 19.5946 27.8947 19.885 27.8947Z" fill="#D2DCE6"/>
<path d="M19.885 27.8947H41.5028C41.7933 27.8947 42.0718 28.01 42.2773 28.2154C42.4826 28.4208 42.598 28.6994 42.598 28.9899V43.2547H18.79V28.9898C18.79 28.6994 18.9054 28.4209 19.1107 28.2155C19.3161 28.0101 19.5946 27.8947 19.885 27.8947Z" stroke="#283035" stroke-width="0.384" stroke-linecap="round" stroke-linejoin="round"/>
<path d="M40.806 41.4807V29.7047H20.582V41.4807H40.806Z" fill="#FF5C5C"/>
<path opacity="0.3" d="M32.3203 39.6019H35.6483" stroke="white" stroke-width="0.384" stroke-linecap="round" stroke-linejoin="round"/>
<g opacity="0.3">
<path opacity="0.3" d="M40.4339 35.9414C40.4979 35.9374 40.5615 35.955 40.6143 35.9915C40.667 36.028 40.706 36.0812 40.7249 36.1425V35.4094C40.6546 35.3889 40.5818 35.3783 40.5085 35.3779H40.4339C40.2728 35.3779 40.1923 35.4584 40.1924 35.6194V35.7055C40.1924 35.8609 40.2728 35.9414 40.4339 35.9414Z" fill="white"/>
<path opacity="0.3" d="M40.7249 39.4556C40.7057 39.5166 40.6666 39.5694 40.6138 39.6056C40.561 39.6418 40.4977 39.6593 40.4339 39.6552C40.2728 39.6552 40.1923 39.7357 40.1924 39.8967V39.9829C40.1924 40.1439 40.2729 40.2243 40.4339 40.2244H40.5085C40.5818 40.2241 40.6546 40.2135 40.7249 40.1929V39.4556Z" fill="white"/>
</g>
<path d="M40.806 41.4807V29.7047H20.582V41.4807H40.806Z" stroke="#283035" stroke-width="0.384" stroke-linecap="round" stroke-linejoin="round"/>
<path d="M16.1632 43.264H45.2256C45.2935 43.264 45.3586 43.291 45.4066 43.339C45.4547 43.387 45.4816 43.4521 45.4816 43.52V43.8267C45.4816 44.1661 45.3468 44.4917 45.1067 44.7317C44.8666 44.9718 44.5411 45.1067 44.2016 45.1067H17.1872C16.8478 45.1067 16.5222 44.9718 16.2821 44.7317C16.0421 44.4917 15.9072 44.1661 15.9072 43.8267V43.52C15.9072 43.4521 15.9342 43.387 15.9822 43.339C16.0302 43.291 16.0953 43.264 16.1632 43.264Z" fill="#E5E5E5"/>
<path d="M44.2014 44.5303H17.187C16.88 44.5301 16.5834 44.4196 16.3512 44.2188C16.119 44.018 15.9668 43.7404 15.9223 43.4368C15.9126 43.4635 15.9075 43.4916 15.9072 43.52V43.8266C15.9072 44.1661 16.0421 44.4917 16.2821 44.7317C16.5222 44.9717 16.8478 45.1066 17.1872 45.1066H44.2016C44.5411 45.1066 44.8666 44.9717 45.1067 44.7317C45.3468 44.4917 45.4816 44.1661 45.4816 43.8266V43.52C45.4813 43.4916 45.4762 43.4635 45.4666 43.4368C45.422 43.7406 45.2697 44.0182 45.0375 44.219C44.8051 44.4197 44.5084 44.5303 44.2014 44.5303Z" fill="#CFD1D0"/>
<path d="M16.1632 43.264H45.2256C45.2935 43.264 45.3586 43.291 45.4066 43.339C45.4547 43.387 45.4816 43.4521 45.4816 43.52V43.8267C45.4816 44.1661 45.3468 44.4917 45.1067 44.7317C44.8666 44.9718 44.5411 45.1067 44.2016 45.1067H17.1872C16.8478 45.1067 16.5222 44.9718 16.2821 44.7317C16.0421 44.4917 15.9072 44.1661 15.9072 43.8267V43.52C15.9072 43.4521 15.9342 43.387 15.9822 43.339C16.0302 43.291 16.0953 43.264 16.1632 43.264Z" stroke="#283035" stroke-width="0.384" stroke-linecap="round" stroke-linejoin="round"/>
<path d="M28.0059 43.2546H33.3819C33.3819 43.3904 33.3279 43.5206 33.2319 43.6166C33.1359 43.7127 33.0057 43.7666 32.8699 43.7666H28.5179C28.3821 43.7666 28.2518 43.7127 28.1558 43.6166C28.0598 43.5206 28.0059 43.3904 28.0059 43.2546Z" fill="#686B6D"/>
<path d="M28.0059 43.2546H33.3819C33.3819 43.3904 33.3279 43.5206 33.2319 43.6166C33.1359 43.7127 33.0057 43.7666 32.8699 43.7666H28.5179C28.3821 43.7666 28.2518 43.7127 28.1558 43.6166C28.0598 43.5206 28.0059 43.3904 28.0059 43.2546Z" stroke="#283035" stroke-width="0.256" stroke-linecap="round" stroke-linejoin="round"/>
<path d="M30.6438 29.2877C30.9266 29.2877 31.1558 29.0584 31.1558 28.7757C31.1558 28.4929 30.9266 28.2637 30.6438 28.2637C30.3611 28.2637 30.1318 28.4929 30.1318 28.7757C30.1318 29.0584 30.3611 29.2877 30.6438 29.2877Z" fill="#686B6D"/>
<path d="M30.6438 29.2877C30.9266 29.2877 31.1558 29.0584 31.1558 28.7757C31.1558 28.4929 30.9266 28.2637 30.6438 28.2637C30.3611 28.2637 30.1318 28.4929 30.1318 28.7757C30.1318 29.0584 30.3611 29.2877 30.6438 29.2877Z" stroke="#283035" stroke-width="0.256" stroke-linecap="round" stroke-linejoin="round"/>
<path d="M46.1523 45.1127C46.1552 44.6225 46.352 44.1534 46.6996 43.8078C47.0472 43.4622 47.5175 43.2682 48.0076 43.2682C48.4979 43.2682 48.9682 43.4622 49.3157 43.8078C49.6634 44.1534 49.8601 44.6225 49.863 45.1127H46.1523Z" fill="#E5E5E5"/>
<path d="M48.0081 44.5267C48.2734 44.5293 48.5362 44.4749 48.7788 44.3675C49.0214 44.26 49.2382 44.1018 49.4146 43.9036C49.2405 43.7009 49.0247 43.5383 48.782 43.4267C48.5392 43.3152 48.2752 43.2574 48.008 43.2574C47.7409 43.2574 47.4769 43.3152 47.2341 43.4267C46.9914 43.5383 46.7756 43.7009 46.6016 43.9036C46.7779 44.1019 46.9947 44.26 47.2373 44.3675C47.48 44.475 47.7427 44.5293 48.0081 44.5267Z" fill="#CFD1D0"/>
<path d="M46.1523 45.1127C46.1552 44.6225 46.352 44.1534 46.6996 43.8078C47.0472 43.4622 47.5175 43.2682 48.0076 43.2682C48.4979 43.2682 48.9682 43.4622 49.3157 43.8078C49.6634 44.1534 49.8601 44.6225 49.863 45.1127H46.1523Z" stroke="#283035" stroke-width="0.384" stroke-linecap="round" stroke-linejoin="round"/>
<g style="mix-blend-mode:multiply" opacity="0.14">
<path d="M33.7278 31.986H24.0008C23.7177 31.986 23.4883 32.2155 23.4883 32.4985V40.0495C23.4883 40.3325 23.7177 40.562 24.0008 40.562H33.7278C34.0108 40.562 34.2403 40.3325 34.2403 40.0495V32.4985C34.2403 32.2155 34.0108 31.986 33.7278 31.986Z" fill="black"/>
</g>
<path d="M33.2268 31.538H23.4998C23.2167 31.538 22.9873 31.7675 22.9873 32.0505V39.6015C22.9873 39.8845 23.2167 40.114 23.4998 40.114H33.2268C33.5099 40.114 33.7393 39.8845 33.7393 39.6015V32.0505C33.7393 31.7675 33.5099 31.538 33.2268 31.538Z" fill="#353F49"/>
<path d="M33.2268 31.538H23.4998C23.2167 31.538 22.9873 31.7675 22.9873 32.0505V39.6015C22.9873 39.8845 23.2167 40.114 23.4998 40.114H33.2268C33.5099 40.114 33.7393 39.8845 33.7393 39.6015V32.0505C33.7393 31.7675 33.5099 31.538 33.2268 31.538Z" stroke="#283035" stroke-width="0.256" stroke-linecap="round" stroke-linejoin="round"/>
<path d="M23.4998 31.538H33.2268C33.3627 31.538 33.4931 31.592 33.5892 31.6881C33.6853 31.7842 33.7393 31.9145 33.7393 32.0505V32.818H22.9873V32.0505C22.9873 31.9146 23.0413 31.7842 23.1374 31.6881C23.2335 31.592 23.3638 31.538 23.4998 31.538Z" fill="#EAEEEF"/>
<path d="M23.4998 31.538H33.2268C33.3627 31.538 33.4931 31.592 33.5892 31.6881C33.6853 31.7842 33.7393 31.9145 33.7393 32.0505V32.818H22.9873V32.0505C22.9873 31.9146 23.0413 31.7842 23.1374 31.6881C23.2335 31.592 23.3638 31.538 23.4998 31.538Z" stroke="#283035" stroke-width="0.256" stroke-linecap="round" stroke-linejoin="round"/>
<path opacity="0.35" d="M23.9041 32.378C24.0146 32.378 24.1041 32.2885 24.1041 32.178C24.1041 32.0676 24.0146 31.978 23.9041 31.978C23.7936 31.978 23.7041 32.0676 23.7041 32.178C23.7041 32.2885 23.7936 32.378 23.9041 32.378Z" fill="#283035"/>
<path opacity="0.35" d="M24.534 32.378C24.6444 32.378 24.734 32.2885 24.734 32.178C24.734 32.0676 24.6444 31.978 24.534 31.978C24.4235 31.978 24.334 32.0676 24.334 32.178C24.334 32.2885 24.4235 32.378 24.534 32.378Z" fill="#283035"/>
<path opacity="0.35" d="M25.1307 32.378C25.2411 32.378 25.3307 32.2885 25.3307 32.178C25.3307 32.0676 25.2411 31.978 25.1307 31.978C25.0202 31.978 24.9307 32.0676 24.9307 32.178C24.9307 32.2885 25.0202 32.378 25.1307 32.378Z" fill="#283035"/>
<path d="M23.4883 33.266H24.1923" stroke="#46BB86" stroke-width="0.192" stroke-miterlimit="10"/>
<path d="M24.4482 33.266H26.3682" stroke="#46BB86" stroke-width="0.192" stroke-miterlimit="10"/>
<path d="M23.4883 33.778H26.3683" stroke="#389ABE" stroke-width="0.192" stroke-miterlimit="10"/>
<path d="M24.0645 34.29H25.4725" stroke="#E5C689" stroke-width="0.192" stroke-miterlimit="10"/>
<path d="M25.7285 34.29H27.2645" stroke="#F2F3F4" stroke-width="0.192" stroke-miterlimit="10"/>
<path d="M24.832 34.802H27.776" stroke="#F2F3F4" stroke-width="0.192" stroke-miterlimit="10"/>
<path d="M24.832 35.314H27.008" stroke="#FFA49F" stroke-width="0.192" stroke-miterlimit="10"/>
<path d="M24.0645 35.8259H27.2645" stroke="#F2F3F4" stroke-width="0.192" stroke-miterlimit="10"/>
<path d="M23.4883 36.274H25.2163" stroke="#389ABE" stroke-width="0.192" stroke-miterlimit="10"/>
<g opacity="0.3">
<path opacity="0.3" d="M38.3774 38.7534C38.3774 38.5005 38.2796 38.3223 38.0841 38.2131C37.9461 38.1383 37.8887 38.0808 37.8887 37.9486V37.7246C37.8887 37.5694 37.9577 37.5349 38.0784 37.4544C38.2796 37.3682 38.3774 37.1843 38.3774 36.9083V36.4196C38.3774 36.0287 38.5211 35.7412 38.728 35.6205C38.8828 35.5101 39.0669 35.4481 39.2569 35.4423H39.3317C39.4926 35.4423 39.5731 35.5228 39.5732 35.6837V35.7696C39.5732 35.9248 39.4926 36.0053 39.3317 36.0053C39.1077 36.0053 38.9982 36.1663 38.9982 36.494V37.0976C39.0039 37.2442 38.9674 37.3893 38.893 37.5157C38.8187 37.6421 38.7095 37.7444 38.5786 37.8105L38.5268 37.8277V37.8393C38.5858 37.8567 38.6406 37.886 38.6878 37.9255C38.8315 38.0117 38.9982 38.213 38.9982 38.5636V39.2362C38.9982 39.5582 39.1075 39.7192 39.3317 39.7192C39.4926 39.7192 39.5731 39.7996 39.5732 39.9606V40.0469C39.5732 40.2078 39.4926 40.2883 39.3317 40.2883H39.2569C39.0669 40.2826 38.8828 40.2205 38.728 40.1101C38.5211 39.9894 38.3774 39.6962 38.3774 39.311V38.7534Z" fill="white"/>
</g>
<path d="M9.53125 41.8357L9.65925 41.7112C10.1449 42.1049 10.7512 42.3198 11.3765 42.3198C12.0018 42.3198 12.608 42.1049 13.0937 41.7112L13.2537 41.8676" stroke="#283035" stroke-width="0.192" stroke-linecap="round" stroke-linejoin="round"/>
<path d="M10.9835 41.1904C10.9835 41.1177 10.9547 41.048 10.9033 40.9966C10.8519 40.9452 10.7822 40.9164 10.7095 40.9164C10.6369 40.9164 10.5672 40.9452 10.5158 40.9966C10.4644 41.048 10.4355 41.1177 10.4355 41.1904V41.4413" stroke="#283035" stroke-width="0.192" stroke-linecap="round" stroke-linejoin="round"/>
<path d="M11.8008 41.1904C11.8008 41.1177 11.8296 41.048 11.881 40.9966C11.9324 40.9452 12.0021 40.9164 12.0748 40.9164C12.1474 40.9164 12.2171 40.9452 12.2685 40.9966C12.3199 41.048 12.3487 41.1177 12.3487 41.1904V41.4413" stroke="#283035" stroke-width="0.192" stroke-linecap="round" stroke-linejoin="round"/>
<path d="M58.1417 44.4109L57.5078 44.4991L57.913 45.0888L58.1417 44.4109Z" fill="#E5E5E5"/>
<path d="M58.1417 44.4109L57.5078 44.4991L57.913 45.0888L58.1417 44.4109Z" stroke="#283035" stroke-width="0.256" stroke-linecap="round" stroke-linejoin="round"/>
<path d="M56.3604 36.7927H51.3812C51.0596 36.7927 50.7988 37.0535 50.7988 37.3751V44.5303C50.7988 44.852 51.0596 45.1127 51.3812 45.1127H56.3604C56.6821 45.1127 56.9428 44.852 56.9428 44.5303V37.3751C56.9428 37.0535 56.6821 36.7927 56.3604 36.7927Z" fill="#E5E5E5"/>
<path d="M56.3614 36.7927H56.2876C56.2983 36.8368 56.3037 36.8818 56.3038 36.9271V44.0823C56.3038 44.2368 56.2425 44.3849 56.1333 44.4941C56.024 44.6033 55.8759 44.6647 55.7214 44.6647H50.8164C50.8466 44.7922 50.919 44.9057 51.0217 44.987C51.1244 45.0683 51.2516 45.1126 51.3826 45.1127H56.3618C56.5162 45.1127 56.6644 45.0513 56.7737 44.9421C56.8828 44.8329 56.9442 44.6848 56.9442 44.5303V37.3751C56.9442 37.2986 56.9291 37.2228 56.8999 37.1522C56.8706 37.0815 56.8276 37.0172 56.7735 36.9632C56.7194 36.9091 56.6551 36.8662 56.5844 36.837C56.5137 36.8077 56.438 36.7927 56.3614 36.7927Z" fill="#CFD1D0"/>
<path d="M56.3604 36.7927H51.3812C51.0596 36.7927 50.7988 37.0535 50.7988 37.3751V44.5303C50.7988 44.852 51.0596 45.1127 51.3812 45.1127H56.3604C56.6821 45.1127 56.9428 44.852 56.9428 44.5303V37.3751C56.9428 37.0535 56.6821 36.7927 56.3604 36.7927Z" stroke="#283035" stroke-width="0.384" stroke-linecap="round" stroke-linejoin="round"/>
<path d="M54.895 36.31H54.383V36.118C54.383 35.9821 54.329 35.8519 54.233 35.7559C54.137 35.6599 54.0068 35.606 53.871 35.606C53.7352 35.606 53.6049 35.6599 53.5089 35.7559C53.4129 35.8519 53.359 35.9821 53.359 36.118V36.31H52.847C52.7112 36.31 52.5809 36.3639 52.4849 36.4599C52.3889 36.5559 52.335 36.6861 52.335 36.822C52.335 36.9578 52.3889 37.0879 52.4849 37.184C52.5809 37.28 52.7112 37.334 52.847 37.334H54.895C55.0308 37.334 55.161 37.28 55.257 37.184C55.353 37.0879 55.407 36.9578 55.407 36.822C55.407 36.6861 55.353 36.5559 55.257 36.4599C55.161 36.3639 55.0308 36.31 54.895 36.31Z" fill="#F7B66F"/>
<path d="M55.1333 36.3688C55.1541 36.4446 55.157 36.5242 55.1419 36.6015C55.1268 36.6787 55.0941 36.7513 55.0463 36.8138C54.9985 36.8762 54.9369 36.9268 54.8663 36.9615C54.7957 36.9962 54.7181 37.0141 54.6394 37.0139H52.5914C52.5085 37.0139 52.4269 36.9937 52.3535 36.9551C52.3828 37.0637 52.447 37.1597 52.5363 37.2282C52.6256 37.2966 52.7349 37.3338 52.8474 37.3339H54.8954C55.0098 37.3338 55.1209 37.2954 55.2109 37.2248C55.3008 37.1542 55.3647 37.0555 55.392 36.9444C55.4194 36.8333 55.4088 36.7163 55.3619 36.612C55.315 36.5077 55.2345 36.422 55.1333 36.3688Z" fill="#EDA762"/>
<path d="M54.1275 35.7979V35.9899H54.3667C54.3489 35.9207 54.3167 35.8561 54.2724 35.8001C54.2281 35.7442 54.1725 35.698 54.1094 35.6648C54.1213 35.7082 54.1274 35.7529 54.1275 35.7979Z" fill="#EDA762"/>
<path d="M54.895 36.31H54.383V36.118C54.383 35.9821 54.329 35.8519 54.233 35.7559C54.137 35.6599 54.0068 35.606 53.871 35.606C53.7352 35.606 53.6049 35.6599 53.5089 35.7559C53.4129 35.8519 53.359 35.9821 53.359 36.118V36.31H52.847C52.7112 36.31 52.5809 36.3639 52.4849 36.4599C52.3889 36.5559 52.335 36.6861 52.335 36.822C52.335 36.9578 52.3889 37.0879 52.4849 37.184C52.5809 37.28 52.7112 37.334 52.847 37.334H54.895C55.0308 37.334 55.161 37.28 55.257 37.184C55.353 37.0879 55.407 36.9578 55.407 36.822C55.407 36.6861 55.353 36.5559 55.257 36.4599C55.161 36.3639 55.0308 36.31 54.895 36.31Z" stroke="#283035" stroke-width="0.384" stroke-linecap="round" stroke-linejoin="round"/>
<path d="M53.8712 39.1899C54.1657 39.1899 54.4045 38.9511 54.4045 38.6566C54.4045 38.3621 54.1657 38.1233 53.8712 38.1233C53.5767 38.1233 53.3379 38.3621 53.3379 38.6566C53.3379 38.9511 53.5767 39.1899 53.8712 39.1899Z" fill="#8EAFBF"/>
<path d="M53.8712 39.1899C54.1657 39.1899 54.4045 38.9511 54.4045 38.6566C54.4045 38.3621 54.1657 38.1233 53.8712 38.1233C53.5767 38.1233 53.3379 38.3621 53.3379 38.6566C53.3379 38.9511 53.5767 39.1899 53.8712 39.1899Z" stroke="#283035" stroke-width="0.384" stroke-linecap="round" stroke-linejoin="round"/>
<path d="M51.8379 40.2992H53.1179" stroke="#283035" stroke-width="0.384" stroke-linecap="round" stroke-linejoin="round"/>
<path d="M51.8379 42.0378H53.1179" stroke="#283035" stroke-width="0.384" stroke-linecap="round" stroke-linejoin="round"/>
<path d="M51.8379 43.7766H53.1179" stroke="#283035" stroke-width="0.384" stroke-linecap="round" stroke-linejoin="round"/>
<path d="M53.9629 40.2307L54.2966 40.6746L55.2952 39.9238" stroke="#8BAFC1" stroke-width="0.256" stroke-linecap="round" stroke-linejoin="round"/>
<path d="M53.9629 41.9694L54.2966 42.4133L55.2952 41.6625" stroke="#8BAFC1" stroke-width="0.256" stroke-linecap="round" stroke-linejoin="round"/>
<path d="M57.5772 40.354L56.9434 40.4422L57.5079 44.4991L58.1418 44.4109L57.5772 40.354Z" fill="#3BBC88"/>
<path d="M57.5772 40.354L56.9434 40.4422L57.5079 44.4991L58.1418 44.4109L57.5772 40.354Z" stroke="#283035" stroke-width="0.256" stroke-linecap="round" stroke-linejoin="round"/>
<path d="M57.3431 39.7096L56.9629 39.7626L57.0512 40.3962L57.4314 40.3432L57.3431 39.7096Z" fill="#E5E5E5"/>
<path d="M57.3431 39.7096L56.9629 39.7626L57.0512 40.3962L57.4314 40.3432L57.3431 39.7096Z" stroke="#283035" stroke-width="0.256" stroke-linecap="round" stroke-linejoin="round"/>
<path d="M58.1502 41.9549C58.0785 41.8368 58.0277 41.7072 58 41.5719C57.9293 41.2242 58.1039 41.0254 58.0095 40.8275C57.9718 40.7486 57.9536 40.6408 57.6709 40.6" stroke="#283035" stroke-width="0.256" stroke-linecap="round" stroke-linejoin="round"/>
<path d="M58.9277 45.1127H60.5757" stroke="#283035" stroke-width="0.384" stroke-linecap="round" stroke-linejoin="round"/>
<path d="M14.9971 45.1127H58.2078" stroke="#283035" stroke-width="0.384" stroke-linecap="round" stroke-linejoin="round"/>
<path d="M7.34375 45.1127H14.2472" stroke="#283035" stroke-width="0.384" stroke-linecap="round" stroke-linejoin="round"/>
<path d="M5.1416 45.1127H6.62429" stroke="#283035" stroke-width="0.384" stroke-linecap="round" stroke-linejoin="round"/>
<path d="M32.3202 14.5653C33.1685 14.5653 33.8562 13.8776 33.8562 13.0293C33.8562 12.181 33.1685 11.4933 32.3202 11.4933C31.4719 11.4933 30.7842 12.181 30.7842 13.0293C30.7842 13.8776 31.4719 14.5653 32.3202 14.5653Z" fill="white"/>
<path d="M27.911 13.376C27.8328 13.3757 27.7557 13.3589 27.6845 13.3266C27.6134 13.2943 27.5499 13.2473 27.4983 13.1887C27.4466 13.1301 27.408 13.0612 27.3849 12.9865C27.3619 12.9119 27.3549 12.8332 27.3645 12.7557C27.6631 10.2208 29.768 8.25598 32.3203 8.25598C34.8726 8.25598 36.9775 10.2208 37.276 12.7557C37.2856 12.8333 37.2786 12.9119 37.2556 12.9866C37.2326 13.0612 37.1939 13.1302 37.1423 13.1888C37.0906 13.2474 37.0271 13.2944 36.956 13.3267C36.8848 13.359 36.8076 13.3757 36.7295 13.376H27.911Z" fill="#F7B66F"/>
<path d="M33.0889 8.3164C33.0724 8.31377 33.0557 8.31192 33.0391 8.30949C32.9809 8.30091 32.9224 8.29317 32.8636 8.28664C32.8369 8.28363 32.8101 8.2812 32.7832 8.27864C32.7344 8.27403 32.6856 8.26987 32.6367 8.26705C32.6083 8.26539 32.58 8.26328 32.5516 8.26193C32.4751 8.25835 32.398 8.25598 32.3212 8.25598C32.2444 8.25598 32.1676 8.25829 32.0915 8.26193C32.0564 8.2636 32.0215 8.26635 31.9866 8.26872C31.9488 8.27134 31.911 8.27403 31.8735 8.27755C31.8274 8.28171 31.7816 8.2867 31.7359 8.29221C31.7135 8.29489 31.6911 8.2979 31.6691 8.30091C29.3635 8.60958 27.5521 10.5304 27.3483 12.9248C27.3432 12.9821 27.3501 13.0397 27.3685 13.0942C27.3869 13.1486 27.4165 13.1986 27.4552 13.241C27.494 13.2834 27.5411 13.3174 27.5937 13.3406C27.6462 13.3638 27.703 13.3759 27.7605 13.376H36.8816C36.9386 13.3762 36.9949 13.3645 37.0472 13.3418C37.0995 13.3191 37.1465 13.2859 37.1852 13.2441C37.224 13.2023 37.2537 13.1531 37.2725 13.0992C37.2913 13.0455 37.2987 12.9884 37.2943 12.9316C37.0967 10.5741 35.3413 8.67313 33.0889 8.3164ZM29.0584 11.9634C29.2762 11.1723 29.6824 10.4458 30.2424 9.84612C30.8024 9.24644 31.4995 8.79153 32.2738 8.52024C33.0488 8.79096 33.7466 9.24568 34.3073 9.84542C34.8679 10.4452 35.2746 11.1719 35.4926 11.9634C35.5203 12.0657 35.524 12.173 35.5034 12.277C35.4828 12.3809 35.4385 12.4788 35.374 12.5628C35.3094 12.6468 35.2263 12.7149 35.1312 12.7615C35.036 12.8082 34.9315 12.8323 34.8255 12.832H29.7256C29.6197 12.8324 29.515 12.8082 29.4199 12.7616C29.3247 12.7149 29.2417 12.6469 29.1771 12.5629C29.1125 12.4788 29.0682 12.381 29.0476 12.277C29.0271 12.173 29.0308 12.0657 29.0584 11.9634Z" fill="#EFAA65"/>
<path d="M27.915 13.376C27.8363 13.3758 27.7586 13.3588 27.6869 13.3264C27.6152 13.2939 27.5513 13.2466 27.4992 13.1875C27.4472 13.1285 27.4083 13.0591 27.3851 12.9839C27.3619 12.9087 27.3549 12.8295 27.3646 12.7514C27.6652 10.2183 29.7692 8.25598 32.32 8.25598C34.8709 8.25598 36.9749 10.2183 37.2752 12.7514C37.2849 12.8295 37.2779 12.9087 37.2547 12.9839C37.2315 13.0591 37.1926 13.1285 37.1406 13.1876C37.0885 13.2466 37.0246 13.2939 36.9529 13.3264C36.8812 13.3589 36.8035 13.3758 36.7248 13.376H27.915Z" stroke="#283035" stroke-width="0.384" stroke-linecap="round" stroke-linejoin="round"/>
<path d="M32.3203 0V8.256" stroke="#283035" stroke-width="0.384" stroke-linejoin="round"/>
</g>
<defs>
<linearGradient id="paint0_linear_11673_28896" x1="32.3206" y1="12.4624" x2="32.3206" y2="46.0291" gradientUnits="userSpaceOnUse">
<stop stop-color="white"/>
<stop offset="0.093" stop-color="white" stop-opacity="0.864"/>
<stop offset="0.284" stop-color="white" stop-opacity="0.605"/>
<stop offset="0.466" stop-color="white" stop-opacity="0.389"/>
<stop offset="0.633" stop-color="white" stop-opacity="0.221"/>
<stop offset="0.784" stop-color="white" stop-opacity="0.1"/>
<stop offset="0.911" stop-color="white" stop-opacity="0.026"/>
<stop offset="1" stop-color="white" stop-opacity="0"/>
</linearGradient>
<clipPath id="clip0_11673_28896">
<rect width="64" height="64" rx="8" fill="white"/>
</clipPath>
</defs>
</svg>
