<svg width="64" height="64" viewBox="0 0 64 64" fill="none" xmlns="http://www.w3.org/2000/svg">
<g clip-path="url(#clip0_11673_28225)">
<path d="M64 0H0V64H64V0Z" fill="#FFB600"/>
<g opacity="0.3">
<path opacity="0.3" d="M30.2271 24.8832H27.5391V40.6592H30.2271V24.8832Z" fill="#2D2D2D" stroke="#2D2D2D" stroke-width="0.512" stroke-miterlimit="10" stroke-linecap="round" stroke-linejoin="round"/>
<path opacity="0.3" d="M30.5919 40.6528H27.1807V42.5728H30.5919V40.6528Z" fill="#2D2D2D" stroke="#2D2D2D" stroke-width="0.512" stroke-miterlimit="10" stroke-linecap="round" stroke-linejoin="round"/>
<path opacity="0.3" d="M29.6767 44.224H28.0959C27.7887 44.224 27.5391 43.9744 27.5391 43.6672V42.5664H30.2271V43.6672C30.2271 43.9744 29.9839 44.224 29.6767 44.224Z" fill="#2D2D2D" stroke="#2D2D2D" stroke-width="0.512" stroke-miterlimit="10" stroke-linecap="round" stroke-linejoin="round"/>
<path opacity="0.3" d="M30.2271 24.8832H27.5391L28.8831 20.6272L30.2271 24.8832Z" fill="#2D2D2D" stroke="#2D2D2D" stroke-width="0.512" stroke-miterlimit="10" stroke-linecap="round" stroke-linejoin="round"/>
</g>
<g opacity="0.3">
<path opacity="0.3" d="M38.5405 30.88H36.1533V44.448H38.5405V30.88Z" fill="#2D2D2D" stroke="#2D2D2D" stroke-width="0.512" stroke-miterlimit="10" stroke-linecap="round" stroke-linejoin="round"/>
<path opacity="0.3" d="M38.8865 21.728H35.8145V30.88H38.8865V21.728Z" fill="#2D2D2D" stroke="#2D2D2D" stroke-width="0.512" stroke-miterlimit="10" stroke-linecap="round" stroke-linejoin="round"/>
<path opacity="0.3" d="M38.5405 21.728H36.1533V21.5808C36.1533 20.9216 36.6909 20.384 37.3501 20.384C38.0093 20.384 38.5469 20.9216 38.5469 21.5808V21.728H38.5405Z" fill="#2D2D2D" stroke="#2D2D2D" stroke-width="0.512" stroke-miterlimit="10" stroke-linecap="round" stroke-linejoin="round"/>
<path opacity="0.3" d="M34.9248 23.1616V28.8768" stroke="#2D2D2D" stroke-width="0.512" stroke-miterlimit="10" stroke-linecap="round" stroke-linejoin="round"/>
<path opacity="0.3" d="M35.8144 24.0832H34.9248" stroke="#2D2D2D" stroke-width="0.512" stroke-miterlimit="10" stroke-linecap="round" stroke-linejoin="round"/>
<path opacity="0.3" d="M38.2591 44.448C38.2591 44.9536 37.8495 45.3632 37.3439 45.3632C36.8383 45.3632 36.4287 44.9536 36.4287 44.448H38.2591Z" fill="#2D2D2D" stroke="#2D2D2D" stroke-width="0.512" stroke-miterlimit="10" stroke-linecap="round" stroke-linejoin="round"/>
</g>
<path d="M37.9653 30.24H35.5781V43.808H37.9653V30.24Z" fill="#00B3C6"/>
<path opacity="0.5" d="M37.971 30.24H37.1006V43.808H37.971V30.24Z" fill="#00B3C6"/>
<path opacity="0.35" d="M36.4357 30.24H35.5781V43.808H36.4357V30.24Z" fill="#00B3C6"/>
<path d="M37.9653 30.24H35.5781V43.808H37.9653V30.24Z" stroke="#330E00" stroke-width="0.512" stroke-miterlimit="10" stroke-linecap="round" stroke-linejoin="round"/>
<path d="M38.3103 21.088H35.2383V30.24H38.3103V21.088Z" fill="#565656"/>
<path opacity="0.27" d="M36.1535 21.088H35.2383V30.24H36.1535V21.088Z" fill="#565656"/>
<path opacity="0.27" d="M38.2658 21.088H37.3506V30.24H38.2658V21.088Z" fill="#565656"/>
<path d="M38.3103 21.088H35.2383V30.24H38.3103V21.088Z" stroke="#330E00" stroke-width="0.512" stroke-miterlimit="10" stroke-linecap="round" stroke-linejoin="round"/>
<path d="M37.9653 21.088H35.5781V20.9408C35.5781 20.2816 36.1157 19.744 36.7749 19.744C37.4341 19.744 37.9717 20.2816 37.9717 20.9408V21.088H37.9653Z" fill="#00B3C6"/>
<path d="M37.9653 21.088H35.5781V20.9408C35.5781 20.2816 36.1157 19.744 36.7749 19.744C37.4341 19.744 37.9717 20.2816 37.9717 20.9408V21.088H37.9653Z" stroke="#330E00" stroke-width="0.512" stroke-miterlimit="10" stroke-linecap="round" stroke-linejoin="round"/>
<path d="M34.3486 22.5215V28.2367" stroke="#330E00" stroke-width="0.512" stroke-miterlimit="10" stroke-linecap="round" stroke-linejoin="round"/>
<path d="M35.2382 23.4432H34.3486" stroke="#330E00" stroke-width="0.512" stroke-miterlimit="10" stroke-linecap="round" stroke-linejoin="round"/>
<path d="M37.6829 43.808C37.6829 44.3136 37.2733 44.7232 36.7677 44.7232C36.2621 44.7232 35.8525 44.3136 35.8525 43.808H37.6829Z" fill="#565656"/>
<path d="M37.6829 43.808C37.6829 44.3136 37.2733 44.7232 36.7677 44.7232C36.2621 44.7232 35.8525 44.3136 35.8525 43.808H37.6829Z" stroke="#330E00" stroke-width="0.512" stroke-miterlimit="10" stroke-linecap="round" stroke-linejoin="round"/>
<path d="M29.523 24.1152H26.835V39.8912H29.523V24.1152Z" fill="#FF1F1F"/>
<path d="M29.523 24.1152H26.835V39.8912H29.523V24.1152Z" stroke="#330E00" stroke-width="0.512" stroke-miterlimit="10" stroke-linecap="round" stroke-linejoin="round"/>
<path d="M28.6463 24.1152H27.7119V39.8912H28.6463V24.1152Z" stroke="#330E00" stroke-width="0.512" stroke-miterlimit="10" stroke-linecap="round" stroke-linejoin="round"/>
<path d="M29.8878 39.8848H26.4766V41.8048H29.8878V39.8848Z" fill="#FDD2A7"/>
<path opacity="0.5" d="M29.8876 39.8848H28.8828V41.8048H29.8876V39.8848Z" fill="#FDD2A7"/>
<path d="M27.3918 39.8848H26.4766V41.8048H27.3918V39.8848Z" fill="#FDD2A7"/>
<path d="M29.8878 39.8848H26.4766V41.8048H29.8878V39.8848Z" stroke="#330E00" stroke-width="0.512" stroke-miterlimit="10" stroke-linecap="round" stroke-linejoin="round"/>
<path d="M28.9726 43.456H27.3918C27.0846 43.456 26.835 43.2064 26.835 42.8992V41.7984H29.523V42.8992C29.523 43.2064 29.2798 43.456 28.9726 43.456Z" fill="#3BABFF"/>
<path d="M28.9726 43.456H27.3918C27.0846 43.456 26.835 43.2064 26.835 42.8992V41.7984H29.523V42.8992C29.523 43.2064 29.2798 43.456 28.9726 43.456Z" stroke="#330E00" stroke-width="0.512" stroke-miterlimit="10" stroke-linecap="round" stroke-linejoin="round"/>
<path d="M29.523 24.1153H26.835L28.179 19.8593L29.523 24.1153Z" fill="#FDD2A7"/>
<path d="M29.523 24.1153H26.835L28.179 19.8593L29.523 24.1153Z" stroke="#330E00" stroke-width="0.512" stroke-miterlimit="10" stroke-linecap="round" stroke-linejoin="round"/>
<path d="M28.179 19.8593L27.6094 21.6641H28.7486L28.179 19.8593Z" fill="#330E00"/>
<path opacity="0.3" d="M12.1408 33.3439C11.1936 32.0063 9.68964 31.4495 8.77444 32.0959C7.85924 32.7423 7.88484 34.3487 8.83204 35.6863C9.65764 36.8511 10.912 37.4271 11.8208 37.1199L15.7568 43.3983C16.0896 43.9231 16.6144 44.0063 17.0048 43.7311C17.3952 43.4559 17.4912 42.9375 17.1072 42.4447L12.4928 36.6463C13.088 35.8847 12.96 34.5087 12.1408 33.3439Z" fill="#2D2D2D" stroke="#2D2D2D" stroke-width="0.512" stroke-miterlimit="10" stroke-linecap="round" stroke-linejoin="round"/>
<path opacity="0.3" d="M15.7378 39.9552C20.1915 39.9552 23.8018 36.3448 23.8018 31.8912C23.8018 27.4376 20.1915 23.8272 15.7378 23.8272C11.2842 23.8272 7.67383 27.4376 7.67383 31.8912C7.67383 36.3448 11.2842 39.9552 15.7378 39.9552Z" fill="#2D2D2D" stroke="#2D2D2D" stroke-width="0.512" stroke-miterlimit="10" stroke-linecap="round" stroke-linejoin="round"/>
<path d="M14.9702 39.1872C19.4239 39.1872 23.0342 35.5768 23.0342 31.1232C23.0342 26.6696 19.4239 23.0592 14.9702 23.0592C10.5166 23.0592 6.90625 26.6696 6.90625 31.1232C6.90625 35.5768 10.5166 39.1872 14.9702 39.1872Z" fill="white"/>
<path d="M11.6671 35.232C12.2559 34.4704 12.1343 33.1008 11.3087 31.936C10.3615 30.5984 7.05906 32.9408 7.99986 34.2784C8.82546 35.4432 10.0799 36.0192 10.9887 35.712L12.8959 38.7584C13.4719 38.9248 14.0735 39.0208 14.6943 39.0528L11.6671 35.232Z" fill="#C0C0C0" stroke="#C0C0C0" stroke-width="0.512" stroke-miterlimit="10" stroke-linecap="round" stroke-linejoin="round"/>
<path d="M22.2843 32.9792H20.2363V30.9312H22.2843C22.5659 30.9312 22.7963 31.1616 22.7963 31.4432V32.4672C22.7963 32.7488 22.5659 32.9792 22.2843 32.9792Z" fill="#C0C0C0" stroke="#C0C0C0" stroke-width="0.512" stroke-miterlimit="10" stroke-linecap="round" stroke-linejoin="round"/>
<path d="M15.1615 37.0112C17.9539 37.0112 20.2175 34.7476 20.2175 31.9552C20.2175 29.1628 17.9539 26.8992 15.1615 26.8992C12.3691 26.8992 10.1055 29.1628 10.1055 31.9552C10.1055 34.7476 12.3691 37.0112 15.1615 37.0112Z" fill="#C0C0C0" stroke="#C0C0C0" stroke-width="0.512" stroke-miterlimit="10" stroke-linecap="round" stroke-linejoin="round"/>
<path d="M14.9702 39.1872C19.4239 39.1872 23.0342 35.5768 23.0342 31.1232C23.0342 26.6696 19.4239 23.0592 14.9702 23.0592C10.5166 23.0592 6.90625 26.6696 6.90625 31.1232C6.90625 35.5768 10.5166 39.1872 14.9702 39.1872Z" stroke="#330E00" stroke-width="0.512" stroke-miterlimit="10" stroke-linecap="round" stroke-linejoin="round"/>
<path d="M11.1164 32.5759C10.1692 31.2383 8.66523 30.6815 7.75003 31.3279C6.83483 31.9743 6.86043 33.5807 7.80763 34.9183C8.63323 36.0831 9.88763 36.6591 10.7964 36.3519L14.7324 42.6303C15.0652 43.1551 15.59 43.2383 15.9804 42.9631C16.3708 42.6879 16.4668 42.1695 16.0828 41.6767L11.4684 35.8783C12.0636 35.1167 11.9356 33.7407 11.1164 32.5759Z" fill="white"/>
<path d="M11.5452 35.6288C11.7308 34.7968 11.3468 33.7984 10.7644 32.8256C10.4188 32.256 10.118 31.8016 9.65723 31.4752C9.65723 33.1328 10.4188 34.5792 11.5452 35.6288Z" fill="#C0C0C0" stroke="#C0C0C0" stroke-width="0.512" stroke-miterlimit="10" stroke-linecap="round" stroke-linejoin="round"/>
<path d="M8.7101 34.9183C8.6077 34.8095 8.5117 34.6879 8.4221 34.5663C7.9997 33.9711 7.79489 33.2927 7.82049 32.7487" stroke="#330E00" stroke-width="0.256" stroke-miterlimit="10" stroke-linecap="round" stroke-linejoin="round"/>
<path d="M11.1164 32.5759C10.1692 31.2383 8.66523 30.6815 7.75003 31.3279C6.83483 31.9743 6.86043 33.5807 7.80763 34.9183C8.63323 36.0831 9.88763 36.6591 10.7964 36.3519L14.7324 42.6303C15.0652 43.1551 15.59 43.2383 15.9804 42.9631C16.3708 42.6879 16.4668 42.1695 16.0828 41.6767L11.4684 35.8783C12.0636 35.1167 11.9356 33.7407 11.1164 32.5759Z" stroke="#330E00" stroke-width="0.512" stroke-miterlimit="10" stroke-linecap="round" stroke-linejoin="round"/>
<path d="M22.0925 32.1472H19.6221V30.0992H22.0925C22.3741 30.0992 22.6045 30.3296 22.6045 30.6112V31.6352C22.6045 31.9168 22.3741 32.1472 22.0925 32.1472Z" fill="white"/>
<path d="M22.0925 32.1472H19.6221V30.0992H22.0925C22.3741 30.0992 22.6045 30.3296 22.6045 30.6112V31.6352C22.6045 31.9168 22.3741 32.1472 22.0925 32.1472Z" stroke="#330E00" stroke-width="0.512" stroke-miterlimit="10" stroke-linecap="round" stroke-linejoin="round"/>
<path d="M14.9691 36.1793C17.7615 36.1793 20.0251 33.9156 20.0251 31.1233C20.0251 28.3309 17.7615 26.0673 14.9691 26.0673C12.1768 26.0673 9.91309 28.3309 9.91309 31.1233C9.91309 33.9156 12.1768 36.1793 14.9691 36.1793Z" fill="white"/>
<path d="M14.9691 36.1793C17.7615 36.1793 20.0251 33.9156 20.0251 31.1233C20.0251 28.3309 17.7615 26.0673 14.9691 26.0673C12.1768 26.0673 9.91309 28.3309 9.91309 31.1233C9.91309 33.9156 12.1768 36.1793 14.9691 36.1793Z" stroke="#330E00" stroke-width="0.512" stroke-miterlimit="10" stroke-linecap="round" stroke-linejoin="round"/>
<path d="M14.9692 35.1744C17.2066 35.1744 19.0204 33.3607 19.0204 31.1232C19.0204 28.8858 17.2066 27.072 14.9692 27.072C12.7317 27.072 10.918 28.8858 10.918 31.1232C10.918 33.3607 12.7317 35.1744 14.9692 35.1744Z" fill="#330E00"/>
<path d="M15.3787 27.9296C17.0043 28.128 18.2651 29.5168 18.2651 31.1936C18.2651 33.0048 16.7931 34.4768 14.9819 34.4768C13.7147 34.4768 12.6139 33.7536 12.0635 32.704" stroke="white" stroke-width="0.32" stroke-miterlimit="10" stroke-linecap="round"/>
<path d="M15.1426 28.8C16.1282 29.0048 16.9282 29.7344 17.2226 30.6816" stroke="white" stroke-width="0.32" stroke-miterlimit="10" stroke-linecap="round"/>
<path d="M36.4609 37.472V42.6432" stroke="#330E00" stroke-width="0.384" stroke-miterlimit="10" stroke-linecap="round" stroke-linejoin="round"/>
<path d="M37.9653 30.24H35.5781V43.808H37.9653V30.24Z" stroke="#330E00" stroke-width="0.512" stroke-miterlimit="10" stroke-linecap="round" stroke-linejoin="round"/>
<path d="M38.3103 21.088H35.2383V30.24H38.3103V21.088Z" stroke="#330E00" stroke-width="0.512" stroke-miterlimit="10" stroke-linecap="round" stroke-linejoin="round"/>
<path d="M37.9653 21.088H35.5781V20.9408C35.5781 20.2816 36.1157 19.744 36.7749 19.744C37.4341 19.744 37.9717 20.2816 37.9717 20.9408V21.088H37.9653Z" stroke="#330E00" stroke-width="0.512" stroke-miterlimit="10" stroke-linecap="round" stroke-linejoin="round"/>
<path d="M34.3486 22.5215V28.2367" stroke="#330E00" stroke-width="0.512" stroke-miterlimit="10" stroke-linecap="round" stroke-linejoin="round"/>
<path d="M35.2382 23.4432H34.3486" stroke="#330E00" stroke-width="0.512" stroke-miterlimit="10" stroke-linecap="round" stroke-linejoin="round"/>
<path d="M37.6829 43.808C37.6829 44.3136 37.2733 44.7232 36.7677 44.7232C36.2621 44.7232 35.8525 44.3136 35.8525 43.808H37.6829Z" stroke="#330E00" stroke-width="0.512" stroke-miterlimit="10" stroke-linecap="round" stroke-linejoin="round"/>
<g opacity="0.3">
<path opacity="0.3" d="M46.2721 43.6096L43.1681 41.3504C42.6561 40.9792 42.5409 40.256 42.9121 39.744L53.1457 25.6576C53.5169 25.1456 54.2401 25.0304 54.7521 25.4016L57.8561 27.6608C58.3681 28.032 58.4833 28.7552 58.1121 29.2672L47.8785 43.3536C47.5073 43.8656 46.7841 43.9808 46.2721 43.6096Z" fill="#2D2D2D" stroke="#2D2D2D" stroke-width="0.512" stroke-miterlimit="10" stroke-linecap="round" stroke-linejoin="round"/>
<path opacity="0.3" d="M47.6863 41.8304H43.8463C43.2127 41.8304 42.6943 41.312 42.6943 40.6784V23.2704C42.6943 22.6368 43.2127 22.1184 43.8463 22.1184H47.6863C48.3199 22.1184 48.8383 22.6368 48.8383 23.2704V40.6784C48.8383 41.3184 48.3263 41.8304 47.6863 41.8304Z" fill="#2D2D2D" stroke="#2D2D2D" stroke-width="0.512" stroke-miterlimit="10" stroke-linecap="round" stroke-linejoin="round"/>
<path opacity="0.3" d="M47.2191 42.8032L43.5263 41.7472C42.9119 41.5744 42.5599 40.9344 42.7391 40.32L47.5391 23.584C47.7119 22.9696 48.3519 22.6176 48.9663 22.7968L52.6591 23.8528C53.2735 24.0256 53.6255 24.6656 53.4463 25.28L48.6463 42.016C48.4671 42.624 47.8335 42.976 47.2191 42.8032Z" fill="#2D2D2D" stroke="#2D2D2D" stroke-width="0.512" stroke-miterlimit="10" stroke-linecap="round" stroke-linejoin="round"/>
</g>
<path d="M45.9517 42.5856L42.8477 40.3264C42.3357 39.9552 42.2205 39.232 42.5917 38.72L52.8253 24.6336C53.1965 24.1216 53.9197 24.0064 54.4317 24.3776L57.5357 26.6368C58.0477 27.008 58.1629 27.7312 57.7917 28.2432L47.5581 42.3296C47.1869 42.8416 46.4637 42.9568 45.9517 42.5856Z" fill="white"/>
<path d="M45.9517 42.5856L42.8477 40.3264C42.3357 39.9552 42.2205 39.232 42.5917 38.72L52.8253 24.6336C53.1965 24.1216 53.9197 24.0064 54.4317 24.3776L57.5357 26.6368C58.0477 27.008 58.1629 27.7312 57.7917 28.2432L47.5581 42.3296C47.1869 42.8416 46.4637 42.9568 45.9517 42.5856Z" stroke="#330E00" stroke-width="0.512" stroke-miterlimit="10" stroke-linecap="round" stroke-linejoin="round"/>
<path d="M51.0207 37.5616L46.0479 33.952L52.8191 24.6336C53.1903 24.1216 53.9135 24.0064 54.4255 24.3776L57.5295 26.6368C58.0415 27.008 58.1567 27.7312 57.7855 28.2432L51.0207 37.5616Z" stroke="#330E00" stroke-width="0.512" stroke-miterlimit="10" stroke-linecap="round" stroke-linejoin="round"/>
<path d="M55.9874 30.7328L51.0146 27.1232L52.8194 24.64C53.1906 24.128 53.9139 24.0128 54.4259 24.384L57.5299 26.6432C58.0419 27.0144 58.1571 27.7376 57.7859 28.2496L55.9874 30.7328Z" fill="#8C6239"/>
<path d="M55.9874 30.7328L51.0146 27.1232L52.8194 24.64C53.1906 24.128 53.9139 24.0128 54.4259 24.384L57.5299 26.6432C58.0419 27.0144 58.1571 27.7376 57.7859 28.2496L55.9874 30.7328Z" stroke="#330E00" stroke-width="0.512" stroke-miterlimit="10" stroke-linecap="round" stroke-linejoin="round"/>
<path d="M53.5003 34.144L48.5298 30.5325L46.0469 33.9497L51.0174 37.5612L53.5003 34.144Z" fill="#42210B"/>
<path d="M55.9837 30.7268L51.0132 27.1153L48.5303 30.5325L53.5008 34.144L55.9837 30.7268Z" fill="#603813"/>
<path d="M55.9837 30.7268L51.0132 27.1153L48.5303 30.5325L53.5008 34.144L55.9837 30.7268Z" stroke="#330E00" stroke-width="0.512" stroke-miterlimit="10" stroke-linecap="round" stroke-linejoin="round"/>
<path d="M53.5003 34.144L48.5298 30.5325L46.0469 33.9497L51.0174 37.5612L53.5003 34.144Z" stroke="#330E00" stroke-width="0.512" stroke-miterlimit="10" stroke-linecap="round" stroke-linejoin="round"/>
<path d="M43.9876 39.8464C44.2703 39.8464 44.4996 39.6171 44.4996 39.3344C44.4996 39.0516 44.2703 38.8224 43.9876 38.8224C43.7048 38.8224 43.4756 39.0516 43.4756 39.3344C43.4756 39.6171 43.7048 39.8464 43.9876 39.8464Z" stroke="#330E00" stroke-width="0.512" stroke-miterlimit="10" stroke-linecap="round" stroke-linejoin="round"/>
<path opacity="0.3" d="M52.7804 23.0848L49.0876 22.0288C48.4732 21.856 47.8396 22.208 47.6604 22.816L42.8604 39.552C42.6876 40.1664 43.0396 40.8 43.6476 40.9792L47.014 40.7872C47.046 40.7936 47.3276 40.8064 47.3596 40.8128H47.6668L48.1596 40.7616C48.6844 40.704 49.1196 40.3392 49.2604 39.8272L53.574 24.512C53.7468 23.8976 53.3948 23.264 52.7804 23.0848Z" fill="#2D2D2D" stroke="#2D2D2D" stroke-width="0.512" stroke-miterlimit="10" stroke-linecap="round" stroke-linejoin="round"/>
<path d="M46.8998 41.7792L43.207 40.7232C42.5926 40.5504 42.2406 39.9104 42.4198 39.296L47.2198 22.56C47.3926 21.9456 48.0326 21.5936 48.647 21.7728L52.3398 22.8288C52.9542 23.0016 53.3062 23.6416 53.127 24.256L48.327 40.992C48.1478 41.6 47.5142 41.952 46.8998 41.7792Z" fill="white"/>
<path d="M46.8998 41.7792L43.207 40.7232C42.5926 40.5504 42.2406 39.9104 42.4198 39.296L47.2198 22.56C47.3926 21.9456 48.0326 21.5936 48.647 21.7728L52.3398 22.8288C52.9542 23.0016 53.3062 23.6416 53.127 24.256L48.327 40.992C48.1478 41.6 47.5142 41.952 46.8998 41.7792Z" stroke="#330E00" stroke-width="0.512" stroke-miterlimit="10" stroke-linecap="round" stroke-linejoin="round"/>
<path d="M52.2754 27.2064L46.3682 25.5104L47.213 22.56C47.3858 21.9456 48.0258 21.5936 48.6402 21.7728L52.333 22.8288C52.9474 23.0016 53.2994 23.6416 53.1202 24.256L52.2754 27.2064Z" fill="#BD3F3A"/>
<path d="M49.9453 35.328L44.0381 33.632L47.2125 22.56C47.3853 21.9456 48.0253 21.5936 48.6397 21.7728L52.3325 22.8288C52.9469 23.0016 53.2989 23.6416 53.1197 24.256L49.9453 35.328Z" stroke="#330E00" stroke-width="0.512" stroke-miterlimit="10" stroke-linecap="round" stroke-linejoin="round"/>
<path d="M52.2813 27.2063L46.3751 25.5131L45.2109 29.5735L51.1172 31.2669L52.2813 27.2063Z" fill="#A33500"/>
<path d="M52.2813 27.2063L46.3751 25.5131L45.2109 29.5735L51.1172 31.2669L52.2813 27.2063Z" stroke="#330E00" stroke-width="0.512" stroke-miterlimit="10" stroke-linecap="round" stroke-linejoin="round"/>
<path d="M51.1153 31.2702L45.2091 29.5769L44.0449 33.6374L49.9512 35.3307L51.1153 31.2702Z" fill="#6D2300"/>
<path d="M51.1153 31.2702L45.2091 29.5769L44.0449 33.6374L49.9512 35.3307L51.1153 31.2702Z" stroke="#330E00" stroke-width="0.512" stroke-miterlimit="10" stroke-linecap="round" stroke-linejoin="round"/>
<path d="M43.9427 39.9104C44.2254 39.9104 44.4547 39.6811 44.4547 39.3984C44.4547 39.1155 44.2254 38.8864 43.9427 38.8864C43.6599 38.8864 43.4307 39.1155 43.4307 39.3984C43.4307 39.6811 43.6599 39.9104 43.9427 39.9104Z" stroke="#330E00" stroke-width="0.512" stroke-miterlimit="10" stroke-linecap="round" stroke-linejoin="round"/>
<path opacity="0.3" d="M47.8787 41.0624H44.0387C43.4051 41.0624 42.8867 40.544 42.8867 39.9104V22.5024C42.8867 21.8688 43.4051 21.3504 44.0387 21.3504H47.8787C48.5123 21.3504 49.0307 21.8688 49.0307 22.5024V39.9104C49.0307 40.5504 48.5187 41.0624 47.8787 41.0624Z" fill="#2D2D2D" stroke="#2D2D2D" stroke-width="0.512" stroke-miterlimit="10" stroke-linecap="round" stroke-linejoin="round"/>
<path d="M47.367 40.8064H43.527C42.8934 40.8064 42.375 40.288 42.375 39.6544V22.2464C42.375 21.6128 42.8934 21.0944 43.527 21.0944H47.367C48.0006 21.0944 48.519 21.6128 48.519 22.2464V39.6544C48.519 40.2944 48.007 40.8064 47.367 40.8064Z" fill="white"/>
<path d="M47.367 40.8064H43.527C42.8934 40.8064 42.375 40.288 42.375 39.6544V22.2464C42.375 21.6128 42.8934 21.0944 43.527 21.0944H47.367C48.0006 21.0944 48.519 21.6128 48.519 22.2464V39.6544C48.519 40.2944 48.007 40.8064 47.367 40.8064Z" stroke="#330E00" stroke-width="0.512" stroke-miterlimit="10" stroke-linecap="round" stroke-linejoin="round"/>
<path d="M48.519 33.7664H42.375V22.2464C42.375 21.6128 42.8934 21.0944 43.527 21.0944H47.367C48.0006 21.0944 48.519 21.6128 48.519 22.2464V33.7664Z" stroke="#330E00" stroke-width="0.512" stroke-miterlimit="10" stroke-linecap="round" stroke-linejoin="round"/>
<path d="M48.519 25.3184H42.375V22.2464C42.375 21.6128 42.8934 21.0944 43.527 21.0944H47.367C48.0006 21.0944 48.519 21.6128 48.519 22.2464V25.3184Z" fill="#FF9999"/>
<path d="M48.519 25.3184H42.375V22.2464C42.375 21.6128 42.8934 21.0944 43.527 21.0944H47.367C48.0006 21.0944 48.519 21.6128 48.519 22.2464V25.3184Z" stroke="#330E00" stroke-width="0.512" stroke-miterlimit="10" stroke-linecap="round" stroke-linejoin="round"/>
<path d="M48.519 25.3184H42.375V29.5424H48.519V25.3184Z" fill="#FF0000"/>
<path d="M48.519 25.3184H42.375V29.5424H48.519V25.3184Z" fill="#FF3333" stroke="#330E00" stroke-width="0.512" stroke-miterlimit="10" stroke-linecap="round" stroke-linejoin="round"/>
<path d="M48.519 29.5424H42.375V33.7664H48.519V29.5424Z" fill="#BF0000"/>
<path d="M48.519 29.5424H42.375V33.7664H48.519V29.5424Z" stroke="#330E00" stroke-width="0.512" stroke-miterlimit="10" stroke-linecap="round" stroke-linejoin="round"/>
<path d="M43.8714 39.8464C44.1541 39.8464 44.3834 39.6171 44.3834 39.3344C44.3834 39.0516 44.1541 38.8224 43.8714 38.8224C43.5886 38.8224 43.3594 39.0516 43.3594 39.3344C43.3594 39.6171 43.5886 39.8464 43.8714 39.8464Z" stroke="#330E00" stroke-width="0.512" stroke-miterlimit="10" stroke-linecap="round" stroke-linejoin="round"/>
<path d="M43.283 34.8288H43.1742V35.0144H43.123V34.5792H43.283C43.411 34.5792 43.4622 34.6304 43.4622 34.7072C43.4622 34.7776 43.411 34.8288 43.283 34.8288ZM43.283 34.7904C43.3726 34.7904 43.411 34.7584 43.411 34.7008C43.411 34.6432 43.3726 34.6112 43.283 34.6112H43.1742V34.7904H43.283Z" fill="#330E00"/>
<path d="M43.8778 34.912H43.6346L43.5898 35.0144H43.5322L43.7306 34.5856H43.7946L43.993 35.0144H43.9354L43.8778 34.912ZM43.7562 34.6432L43.6474 34.88H43.8586L43.7562 34.6432Z" fill="#330E00"/>
<path d="M44.4862 34.5792V35.0144H44.435L44.1342 34.6496V35.0144H44.083V34.5792H44.1342L44.435 34.944V34.5792H44.4862Z" fill="#330E00"/>
<path d="M44.582 34.5792H44.934V34.6176H44.7868V35.0144H44.7356V34.6176H44.582V34.5792Z" fill="#330E00"/>
<path d="M45.2737 35.0208C45.1201 35.0208 45.0049 34.9312 45.0049 34.7968C45.0049 34.6688 45.1201 34.5728 45.2737 34.5728C45.4273 34.5728 45.5425 34.6624 45.5425 34.7968C45.5425 34.9312 45.4273 35.0208 45.2737 35.0208ZM45.2737 34.9824C45.3953 34.9824 45.4849 34.912 45.4849 34.7968C45.4849 34.6816 45.3953 34.6112 45.2737 34.6112C45.1521 34.6112 45.0625 34.6816 45.0625 34.7968C45.0625 34.912 45.1585 34.9824 45.2737 34.9824Z" fill="#330E00"/>
<path d="M46.0604 34.5792V35.0144H46.0092L45.7084 34.6496V35.0144H45.6572V34.5792H45.7084L46.0092 34.944V34.5792H46.0604Z" fill="#330E00"/>
<path d="M46.4769 34.6176H46.2465V34.7776H46.4513V34.816H46.2465V34.9824H46.4769V35.0208H46.1953V34.5856H46.4769V34.6176Z" fill="#330E00"/>
<path d="M46.6182 34.5728H46.7206V34.5856H46.6822V34.7136H46.6566V34.5856H46.6182V34.5728Z" fill="#330E00"/>
<path d="M46.7452 34.5728H46.7644L46.8156 34.688L46.8668 34.5728H46.886V34.7136H46.8668V34.6048L46.8156 34.7136H46.8028L46.7516 34.6048V34.7136H46.7324V34.5728H46.7452Z" fill="#330E00"/>
</g>
<defs>
<clipPath id="clip0_11673_28225">
<rect width="64" height="64" rx="8" fill="white"/>
</clipPath>
</defs>
</svg>
