<svg width="96" height="96" viewBox="0 0 96 96" fill="none" xmlns="http://www.w3.org/2000/svg">
<g clip-path="url(#clip0_14145_3480)">
<path d="M94.5 9V12L93 15H78L76.5 12V9H81H90H94.5Z" fill="#FFDF64"/>
<path d="M81 24.69C80.0875 24.1654 79.3295 23.4093 78.8028 22.498C78.276 21.5867 77.9991 20.5526 78 19.5V15H93V19.5C92.996 21.0901 92.3626 22.6139 91.2383 23.7383C90.1139 24.8626 88.5901 25.496 87 25.5H84C82.9461 25.4989 81.9112 25.2195 81 24.69Z" fill="#FFB844"/>
<path d="M90 24.6899V26.9999C89.9976 27.7949 89.6808 28.5565 89.1187 29.1186C88.5566 29.6807 87.7949 29.9976 87 29.9999H84C83.2051 29.9976 82.4434 29.6807 81.8813 29.1186C81.3192 28.5565 81.0024 27.7949 81 26.9999V24.6899C81.9112 25.2194 82.9461 25.4989 84 25.4999H87C88.0539 25.4989 89.0888 25.2194 90 24.6899Z" fill="#29B479"/>
<path d="M55.8159 56.775C60.148 56.1391 64.2778 54.523 67.8909 52.05C72.4523 48.9637 76.391 45.0453 79.5009 40.5C79.5097 44.0558 79.02 47.5952 78.0459 51.015L78.0009 51C67.5009 66 48.0009 72 39.0009 72C33.3704 72.0545 27.7903 73.069 22.5009 75L22.4559 75.075C20.8491 74.2379 19.305 73.2854 17.8359 72.225L18.0009 72C18.7771 70.3676 19.8216 68.8769 21.0909 67.59C23.623 64.9411 26.6435 62.8069 29.9859 61.305C35.1609 58.875 42.4209 57 52.5009 57C53.6098 57.0018 54.7175 56.9266 55.8159 56.775Z" fill="#85EE89"/>
<path d="M26.7001 76.98C25.2454 76.4374 23.8274 75.8011 22.4551 75.075L22.5001 75C27.7895 73.069 33.3695 72.0545 39.0001 72C48.0001 72 67.5001 66 78.0001 51L78.0451 51.015C76.5859 56.2263 74.0581 61.0768 70.6225 65.2582C67.1869 69.4395 62.9187 72.86 58.0893 75.3022C53.26 77.7444 47.9752 79.1547 42.5712 79.4436C37.1672 79.7324 31.7622 78.8935 26.7001 76.98Z" fill="#4EDFA6"/>
<path d="M14.5495 78.5999L10.4395 75.8549C10.0741 75.612 9.76203 75.297 9.52254 74.9292C9.28305 74.5615 9.12114 74.1487 9.04671 73.7162C8.97229 73.2837 8.98692 72.8406 9.08971 72.4139C9.1925 71.9873 9.38129 71.5861 9.64452 71.2349L12.9145 68.0549C14.4277 69.588 16.0742 70.9835 17.8345 72.2249C19.3036 73.2853 20.8477 74.2378 22.4545 75.0749C23.8269 75.801 25.2448 76.4373 26.6995 76.9799L23.9845 81.2099C23.4863 81.8679 22.7563 82.3115 21.9428 82.4508C21.1293 82.5901 20.2933 82.4146 19.6045 81.9599L14.5495 78.5999Z" fill="#29B479"/>
<path d="M75.6595 23.595C78.1953 28.8693 79.5079 34.6478 79.4995 40.5C76.1245 39.615 74.7746 35.625 71.7146 33.93C71.1322 33.5566 70.4264 33.4273 69.7495 33.57C68.3695 34.005 68.1745 36.015 68.8645 37.305C69.5545 38.595 70.7695 39.495 71.5045 40.77C72.8545 43.11 72.1795 46.17 70.8145 48.495C69.9016 49.7297 68.9253 50.9163 67.8895 52.05C64.2764 54.523 60.1466 56.1391 55.8145 56.775C56.4421 55.2895 56.7635 53.6926 56.7595 52.08C56.6133 50.6291 56.1799 49.2218 55.4845 47.94C55.0477 46.8383 54.3223 45.8746 53.3845 45.15C51.4945 43.92 48.8995 44.76 46.7845 43.95C45.8514 43.523 45.0532 42.8484 44.4767 41.9995C43.9002 41.1505 43.5674 40.1598 43.5145 39.135C43.4489 37.0717 44.06 35.0436 45.2545 33.36C47.0695 30.615 50.3695 28.44 53.5195 29.31C55.0795 29.745 56.3845 30.87 57.9595 31.23C59.2255 31.4446 60.5264 31.2937 61.7095 30.795C62.1086 30.6165 62.4447 30.3221 62.6742 29.95C62.9038 29.578 63.0162 29.1455 62.9968 28.7088C62.9773 28.2721 62.8271 27.8513 62.5654 27.5011C62.3038 27.1509 61.9428 26.8874 61.5295 26.745C60.4771 26.3545 59.4501 25.8986 58.4545 25.38C57.1531 24.7795 55.7829 24.3413 54.3745 24.075C54.0401 23.9998 53.697 23.9696 53.3545 23.985C52.5466 24.1415 51.7925 24.5031 51.1645 25.035C50.3364 25.7202 49.3341 26.1617 48.2695 26.31C47.7344 26.3672 47.1965 26.2306 46.7534 25.9251C46.3103 25.6197 45.9914 25.1655 45.8545 24.645C45.8374 24.2719 45.8979 23.8992 46.0322 23.5507C46.1664 23.2021 46.3715 22.8852 46.6345 22.62C47.1739 22.0964 47.6751 21.535 48.1345 20.94C48.4857 20.2721 48.7769 19.5744 49.0045 18.855C49.2527 18.1327 49.7606 17.5285 50.4295 17.16C51.023 16.9599 51.6565 16.9084 52.2745 17.01C53.2123 17.1571 54.1712 17.0905 55.0795 16.815C55.9495 16.5 57.4045 15.045 56.3995 14.085C56.2726 13.9678 56.1176 13.8852 55.9495 13.845C54.7045 13.44 53.2945 13.71 52.0645 13.26C51.8621 13.2014 51.6802 13.087 51.5395 12.93C51.4468 12.7746 51.3904 12.6003 51.3745 12.42C51.2461 11.6916 51.3081 10.9424 51.5545 10.245C51.8878 9.46305 52.4347 8.79081 53.1324 8.30532C53.8301 7.81983 54.6505 7.54073 55.4995 7.5H61.2595C67.4789 11.4025 72.4703 16.9815 75.6595 23.595Z" fill="#FFDF64"/>
<path d="M71.7156 33.9301C74.7756 35.6251 76.1256 39.6151 79.5006 40.5001C76.3907 45.0454 72.452 48.9638 67.8906 52.0501C68.9263 50.9164 69.9027 49.7298 70.8156 48.4951C72.1806 46.1701 72.8556 43.1101 71.5056 40.7701C70.7706 39.4951 69.5556 38.5801 68.8656 37.3051C68.1756 36.0301 68.3706 34.0051 69.7506 33.5701C70.4275 33.4274 71.1333 33.5567 71.7156 33.9301Z" fill="#01CADB"/>
<path d="M63.0004 28.8C63.0068 29.2229 62.8877 29.6381 62.6581 29.9932C62.4284 30.3484 62.0986 30.6274 61.7104 30.795C60.5272 31.2937 59.2263 31.4446 57.9604 31.23C56.3854 30.87 55.0804 29.745 53.5204 29.31C50.3704 28.44 47.0704 30.615 45.2554 33.36C44.0609 35.0436 43.4498 37.0717 43.5154 39.135C43.5682 40.1598 43.901 41.1506 44.4775 41.9995C45.0541 42.8484 45.8523 43.523 46.7854 43.95C48.9004 44.76 51.4954 43.92 53.3854 45.15C54.3232 45.8746 55.0486 46.8383 55.4854 47.94C56.1808 49.2218 56.6142 50.6291 56.7604 52.08C56.7644 53.6927 56.443 55.2895 55.8154 56.775C54.7169 56.9266 53.6093 57.0018 52.5004 57C42.4204 57 35.1604 58.875 29.9854 61.305C29.8937 59.3321 29.5406 57.3801 28.9354 55.5C28.8754 55.305 28.8154 55.095 28.7404 54.9C28.6654 54.705 28.6054 54.495 28.5304 54.285C28.4554 54.075 28.3654 53.835 28.2604 53.61C28.1404 53.28 28.0054 52.95 27.8404 52.605C27.6754 52.26 27.5104 51.9 27.3304 51.54C27.1654 51.21 27.0004 50.895 26.8054 50.565C26.0798 49.2936 25.2361 48.0933 24.2854 46.98C24.0904 46.77 23.8954 46.545 23.6704 46.32C23.4304 46.05 23.1604 45.78 22.8754 45.51C22.3665 45.0054 21.8254 44.5344 21.2554 44.1C21.0554 43.935 20.8604 43.785 20.6704 43.65C19.7137 42.9295 18.7004 42.2874 17.6404 41.73C17.3854 41.595 17.1154 41.445 16.8304 41.325C16.7551 41.2762 16.6746 41.2359 16.5904 41.205C16.3504 41.085 16.1104 40.98 15.8704 40.875C15.5854 40.74 15.3004 40.62 15.0004 40.5C13.9744 40.0739 13.0147 39.5031 12.1504 38.805V38.79C12.6237 37.9768 13.2095 37.2345 13.8904 36.585C14.6184 36.2024 15.2495 35.6586 15.7354 34.995C16.1704 34.38 16.4704 33.675 16.8454 33.03C17.8426 31.5771 18.9563 30.2076 20.1754 28.935C21.377 27.8854 22.9306 27.3282 24.5254 27.375C26.2034 27.3982 27.8371 26.836 29.1454 25.785C29.4379 25.4609 29.6629 25.0817 29.8071 24.6696C29.9514 24.2575 30.012 23.8208 29.9854 23.385C29.9318 22.6847 29.7398 22.0019 29.4205 21.3762C29.1012 20.7505 28.661 20.1944 28.1254 19.74C27.4722 18.9783 26.6285 18.4037 25.6804 18.075C24.2507 17.9302 22.8101 18.2121 21.5404 18.885C20.4178 19.3193 19.258 19.6507 18.0754 19.875C17.0854 20.07 16.5454 18.96 16.5004 18C16.4705 17.6369 16.5301 17.2721 16.6739 16.9374C16.8178 16.6026 17.0414 16.3083 17.3254 16.08C17.9823 15.5966 18.7182 15.2311 19.5004 15H21.0004V12C20.9854 11.01 20.6254 11.04 19.8754 10.365C19.2306 9.79328 18.4957 9.33206 17.7004 9.00002L17.6404 8.92502C23.9354 4.35386 31.4563 1.77477 39.2318 1.52075C47.0073 1.26674 54.6804 3.34947 61.2604 7.50002H55.5004C54.6514 7.54075 53.831 7.81985 53.1332 8.30534C52.4355 8.79083 51.8887 9.46307 51.5554 10.245C51.309 10.9424 51.247 11.6916 51.3754 12.42C51.3912 12.6003 51.4476 12.7746 51.5404 12.93C51.681 13.087 51.8629 13.2014 52.0654 13.26C53.2954 13.71 54.7054 13.44 55.9504 13.845C56.1185 13.8852 56.2734 13.9678 56.4004 14.085C57.4054 15.045 55.9504 16.5 55.0804 16.815C54.172 17.0905 53.2131 17.1572 52.2754 17.01C51.6574 16.9085 51.0239 16.96 50.4304 17.16C49.7615 17.5286 49.2535 18.1327 49.0054 18.855C48.7777 19.5744 48.4866 20.2722 48.1354 20.94C47.676 21.535 47.1747 22.0964 46.6354 22.62C46.3724 22.8852 46.1673 23.2022 46.033 23.5507C45.8987 23.8993 45.8383 24.2719 45.8554 24.645C45.9923 25.1655 46.3112 25.6197 46.7543 25.9252C47.1973 26.2306 47.7353 26.3672 48.2704 26.31C49.3349 26.1617 50.3373 25.7202 51.1654 25.035C51.7933 24.5031 52.5475 24.1415 53.3554 23.985C53.6979 23.9696 54.0409 23.9999 54.3754 24.075C55.7837 24.3413 57.154 24.7796 58.4554 25.38C59.451 25.8986 60.478 26.3545 61.5304 26.745C61.9611 26.8883 62.3354 27.1643 62.5995 27.5335C62.8636 27.9027 63.0039 28.3461 63.0004 28.8ZM43.4704 9.96002C43.534 9.38923 43.3785 8.81559 43.0354 8.35502C42.7042 7.79309 42.2472 7.31559 41.7004 6.96002C41.0331 6.59312 40.3074 6.34445 39.5554 6.22502C36.7654 5.73002 33.1204 5.97002 31.0804 7.75502C29.8455 8.75343 28.9711 10.1283 28.5904 11.67C28.4351 12.4225 28.4779 13.2024 28.7145 13.9334C28.9512 14.6643 29.3736 15.3213 29.9404 15.84C30.6507 16.4366 31.444 16.9268 32.2954 17.295C33.2983 17.8565 34.4562 18.0776 35.5954 17.925C36.2605 17.7357 36.8552 17.3549 37.3054 16.83C37.7254 16.335 38.0404 15.795 38.4304 15.285C39.7057 13.9086 41.0686 12.6159 42.5104 11.415C42.9787 11.046 43.3154 10.5357 43.4704 9.96002ZM25.3204 39.78C25.4594 39.3736 25.5138 38.9431 25.4802 38.5149C25.4467 38.0867 25.3259 37.6698 25.1254 37.29C24.6135 36.2407 23.8052 35.3645 22.8004 34.77C21.7654 34.095 20.7304 34.785 20.0554 35.61C19.8789 35.7775 19.7395 35.9802 19.6465 36.2051C19.5535 36.4299 19.5088 36.6718 19.5154 36.915C19.5739 37.2422 19.7189 37.5478 19.9354 37.8C20.2416 38.2551 20.5879 38.6818 20.9704 39.075C21.7495 39.7692 22.7042 40.2361 23.7304 40.425C24.0942 40.5492 24.492 40.5277 24.8404 40.365C25.0689 40.2381 25.2405 40.0289 25.3204 39.78Z" fill="#01CADB"/>
<path d="M43.0346 8.35509C43.3777 8.81565 43.5332 9.3893 43.4696 9.96009C43.3146 10.5358 42.9779 11.0461 42.5096 11.4151C41.0678 12.616 39.7049 13.9087 38.4296 15.2851C38.0396 15.7951 37.7246 16.3351 37.3046 16.8301C36.8544 17.355 36.2597 17.7358 35.5946 17.9251C34.4554 18.0777 33.2975 17.8566 32.2946 17.2951C31.4432 16.9268 30.6499 16.4367 29.9396 15.8401C29.3728 15.3214 28.9504 14.6644 28.7137 13.9334C28.4771 13.2025 28.4343 12.4226 28.5896 11.6701C28.9703 10.1284 29.8447 8.75349 31.0796 7.75509C33.1196 5.97009 36.7646 5.73009 39.5546 6.22509C40.3067 6.34452 41.0324 6.59318 41.6996 6.96009C42.2464 7.31565 42.7034 7.79315 43.0346 8.35509Z" fill="#9AE344"/>
<path d="M29.985 23.385C30.0116 23.8208 29.951 24.2576 29.8067 24.6697C29.6625 25.0818 29.4375 25.4609 29.145 25.785C27.8367 26.836 26.203 27.3982 24.525 27.375C22.9302 27.3283 21.3766 27.8854 20.175 28.9351C18.9559 30.2076 17.8422 31.5771 16.845 33.03C16.47 33.675 16.17 34.3801 15.735 34.9951C15.2491 35.6586 14.6181 36.2025 13.89 36.585C13.2091 37.2345 12.6233 37.9768 12.15 38.79C6.735 34.425 4.5 25.5 4.5 25.5C7.25993 18.8645 11.8091 13.1261 17.64 8.92505L17.7 9.00005C18.4953 9.33209 19.2302 9.7933 19.875 10.365C20.625 11.04 20.985 11.01 21 12V15H19.5C18.7178 15.2312 17.9819 15.5966 17.325 16.08C17.0411 16.3083 16.8174 16.6027 16.6736 16.9374C16.5297 17.2721 16.4701 17.637 16.5 18C16.545 18.96 17.085 20.07 18.075 19.875C19.2576 19.6507 20.4174 19.3194 21.54 18.885C22.8097 18.2121 24.2503 17.9302 25.68 18.075C26.6281 18.4037 27.4718 18.9783 28.125 19.74C28.6606 20.1944 29.1008 20.7506 29.4201 21.3762C29.7394 22.0019 29.9314 22.6847 29.985 23.385Z" fill="#FFDF64"/>
<path d="M25.1263 37.2901C25.3268 37.6699 25.4476 38.0867 25.4811 38.5149C25.5146 38.9431 25.4602 39.3737 25.3213 39.7801C25.2414 40.0289 25.0698 40.2381 24.8413 40.3651C24.4929 40.5277 24.0951 40.5492 23.7313 40.4251C22.705 40.2362 21.7503 39.7692 20.9713 39.0751C20.5888 38.6819 20.2424 38.2552 19.9363 37.8001C19.7198 37.5478 19.5748 37.2422 19.5163 36.9151C19.5097 36.6718 19.5543 36.4299 19.6474 36.2051C19.7404 35.9803 19.8797 35.7775 20.0563 35.6101C20.7313 34.7851 21.7663 34.0951 22.8013 34.7701C23.806 35.3646 24.6144 36.2407 25.1263 37.2901Z" fill="#FFDF64"/>
<path d="M12.1501 38.805C13.0143 39.5031 13.9741 40.0739 15.0001 40.5C15.3001 40.62 15.5851 40.74 15.8701 40.875C16.1101 40.98 16.3501 41.085 16.5901 41.205C16.6743 41.2359 16.7548 41.2762 16.8301 41.325C17.1001 41.445 17.3701 41.58 17.6401 41.73C18.7001 42.2874 19.7134 42.9295 20.6701 43.65C20.8801 43.8 21.0751 43.95 21.2551 44.1C21.8251 44.5344 22.3662 45.0054 22.8751 45.51C23.1601 45.78 23.4151 46.035 23.6701 46.32C23.8801 46.53 24.0751 46.755 24.2851 46.98C25.2358 48.0932 26.0795 49.2935 26.8051 50.565C26.9851 50.895 27.1651 51.21 27.3301 51.54C27.5101 51.9 27.6901 52.26 27.8401 52.605C27.9901 52.95 28.1401 53.28 28.2601 53.61C28.3651 53.835 28.4401 54.06 28.5301 54.285C28.6201 54.51 28.6801 54.69 28.7401 54.9C28.8001 55.11 28.8751 55.305 28.9351 55.5C29.5403 57.38 29.8934 59.3321 29.9851 61.305C26.6426 62.8069 23.6221 64.9411 21.0901 67.59L21.0001 67.5C21.0001 67.5 22.5001 58.5 10.5001 48C3.27008 41.67 3.00008 30 3.00008 30L2.95508 29.985C3.36169 28.4548 3.87803 26.956 4.50008 25.5C4.50008 25.5 6.73508 34.425 12.1501 38.79V38.805Z" fill="#79E78E"/>
<path d="M12.9151 68.055C9.29044 64.4409 6.41595 60.1459 4.45695 55.417C2.49795 50.6881 1.49308 45.6186 1.50012 40.5C1.49133 36.9442 1.98109 33.4048 2.95512 29.985L3.00012 30C3.00012 30 3.27012 41.67 10.5001 48C22.5001 58.5 21.0001 67.5 21.0001 67.5L21.0901 67.59C19.8208 68.8769 18.7763 70.3676 18.0001 72L17.8351 72.225C16.0748 70.9836 14.4283 69.5881 12.9151 68.055Z" fill="#1FD8B9"/>
<path d="M90 24.6899C89.0888 25.2194 88.0539 25.4989 87 25.4999H84C82.9461 25.4989 81.9112 25.2194 81 24.6899V26.9999C81.0032 27.5283 81.1477 28.0462 81.4185 28.4999C81.6804 28.0463 82.0565 27.6692 82.5094 27.406C82.9623 27.1428 83.4762 27.0028 84 26.9999H87C87.5238 27.0028 88.0377 27.1428 88.4906 27.406C88.9435 27.6692 89.3196 28.0463 89.5815 28.4999C89.8523 28.0462 89.9968 27.5283 90 26.9999V24.6899Z" fill="#129C78"/>
<path d="M78 15H93L94.5 12H76.5L78 15Z" fill="#FFB844"/>
<path d="M81 21C81 20.2044 81.3161 19.4413 81.8787 18.8787C82.4413 18.3161 83.2044 18 84 18H93V15H78V19.5C78.004 21.0901 78.6374 22.6139 79.7617 23.7383C80.8861 24.8626 82.4099 25.496 84 25.5H85.5C84.3065 25.5 83.1619 25.0259 82.318 24.182C81.4741 23.3381 81 22.1935 81 21Z" fill="#FEA740"/>
<path d="M91.5 9H79.5C78.6716 9 78 9.67157 78 10.5C78 11.3284 78.6716 12 79.5 12H91.5C92.3284 12 93 11.3284 93 10.5C93 9.67157 92.3284 9 91.5 9Z" fill="#FFFCBD"/>
<path d="M15.7255 74.8904L24.514 80.3849L26.6995 76.9799C25.2448 76.4373 23.8269 75.801 22.4545 75.0749C20.8477 74.2378 19.3036 73.2853 17.8345 72.2249C16.0742 70.9835 14.4277 69.588 12.9145 68.0549L9.64452 71.2349C9.38129 71.5861 9.1925 71.9873 9.08971 72.4139C8.98692 72.8406 8.97229 73.2837 9.04671 73.7162C9.12114 74.1487 9.28305 74.5615 9.52254 74.9292C9.76203 75.297 10.0741 75.612 10.4395 75.8549L11.6395 76.6589C11.7239 76.2294 11.9114 75.8269 12.1859 75.4859C12.4605 75.145 12.8138 74.8759 13.2154 74.7019C13.6171 74.5279 14.055 74.4541 14.4915 74.4869C14.928 74.5198 15.3499 74.6583 15.721 74.8904H15.7255Z" fill="#129C78"/>
<path d="M39.0009 72.0002C40.6574 71.9749 42.3091 71.8174 43.9404 71.5292C34.8399 70.2377 29.8974 66.4757 27.2094 62.7632C24.9472 64.0678 22.8863 65.6938 21.0909 67.5902C19.8216 68.8771 18.7771 70.3678 18.0009 72.0002L17.8359 72.2252C19.305 73.2856 20.8491 74.2381 22.4559 75.0752L22.5009 75.0002C27.7903 73.0692 33.3704 72.0547 39.0009 72.0002Z" fill="#4EDFA6"/>
<path d="M70.7109 58.9755C73.4619 56.6297 75.9102 53.9506 77.9994 51L78.0444 51.015C79.0185 47.5952 79.5082 44.0558 79.4994 40.5C78.4996 41.9882 77.3969 43.4047 76.1994 44.739C74.9896 49.7007 73.1448 54.4857 70.7109 58.9755Z" fill="#4EDFA6"/>
<path d="M70.7116 58.9755C66.4906 66.45 60.2551 72 51.0001 72C48.6384 72.0095 46.279 71.8521 43.9396 71.529C42.3082 71.8173 40.6565 71.9748 39.0001 72C33.3695 72.0545 27.7895 73.069 22.5001 75L22.4551 75.075C23.8274 75.8011 25.2454 76.4374 26.7001 76.98C31.7622 78.8935 37.1672 79.7324 42.5712 79.4436C47.9752 79.1547 53.26 77.7444 58.0893 75.3022C62.9187 72.86 67.1869 69.4395 70.6225 65.2582C74.0581 61.0768 76.5859 56.2263 78.0451 51.015L78.0001 51C75.9109 53.9506 73.4625 56.6297 70.7116 58.9755Z" fill="#35C4BA"/>
<path d="M21.0002 67.5001L21.0902 67.5901C23.6223 64.9413 26.6427 62.8071 29.9852 61.3051C29.8935 59.3322 29.5404 57.3802 28.9352 55.5001C28.8947 55.3696 28.8497 55.2331 28.8047 55.0981C25.5453 56.5199 22.5621 58.5053 19.9922 60.9631C20.8248 63.0361 21.1697 65.2727 21.0002 67.5001Z" fill="#1FD8B9"/>
<path d="M3.96308 36.312C4.19902 33.9063 4.82046 31.5543 5.80358 29.346C5.29051 28.092 4.85519 26.8076 4.50008 25.5C3.87803 26.956 3.36169 28.4548 2.95508 29.985L3.00008 30C3.11079 32.1307 3.43338 34.2452 3.96308 36.312Z" fill="#1FD8B9"/>
<path d="M19.9921 60.963C19.5421 61.3725 19.1011 61.7715 18.6421 62.2275C18.351 62.5219 18.0024 62.7533 17.6181 62.9073C17.2337 63.0612 16.8218 63.1345 16.4079 63.1226C15.994 63.1106 15.587 63.0137 15.2122 62.8377C14.8374 62.6618 14.5028 62.4107 14.2291 62.1C10.3291 57.651 2.86962 47.5365 3.96312 36.3105C3.43352 34.2442 3.11093 32.1302 3.00012 30L2.95512 29.985C1.98109 33.4048 1.49133 36.9442 1.50012 40.5C1.49308 45.6186 2.49795 50.6881 4.45695 55.417C6.41595 60.1459 9.29044 64.4409 12.9151 68.055C14.4283 69.5881 16.0748 70.9836 17.8351 72.225L18.0001 72C18.7763 70.3676 19.8208 68.8769 21.0901 67.59L21.0001 67.5C21.1697 65.2725 20.8248 63.0359 19.9921 60.963Z" fill="#35C4BA"/>
<path d="M71.86 41.55C68.236 46.254 63.817 49.5 58.4995 49.5C57.6895 49.5 56.938 49.5255 56.173 49.545C56.4978 50.3548 56.6956 51.2099 56.7595 52.08C56.7634 53.6927 56.442 55.2895 55.8145 56.775C60.1465 56.1391 64.2763 54.5231 67.8895 52.05C68.9252 50.9163 69.9015 49.7298 70.8145 48.4951C71.4784 47.4809 71.9155 46.3354 72.0959 45.1368C72.2764 43.9381 72.1959 42.7147 71.86 41.55Z" fill="#FF942C"/>
<path d="M74.9531 36.8911C76.0585 38.5364 77.6477 39.7975 79.5011 40.5001C79.4995 37.107 79.0558 33.7285 78.1811 30.4501C77.226 32.6556 76.1484 34.8059 74.9531 36.8911Z" fill="#FFB844"/>
<path d="M74.9513 36.8911C74.0243 38.5104 72.9916 40.0668 71.8598 41.5501C72.1953 42.7153 72.2751 43.9392 72.0939 45.1381C71.9127 46.337 71.4747 47.4826 70.8098 48.4966C69.8968 49.7313 68.9205 50.9179 67.8848 52.0516C72.4479 48.9653 76.3882 45.0464 79.4993 40.5001C77.6459 39.7975 76.0566 38.5364 74.9513 36.8911Z" fill="#01A2B0"/>
<path d="M56.1739 49.5451C38.5504 50.0026 33.0004 55.5001 33.0004 55.5001C33.7504 47.9701 29.9704 43.4656 25.2574 39.9001C25.1752 40.099 25.0282 40.2644 24.8404 40.3696C24.492 40.5322 24.0942 40.5537 23.7304 40.4296C22.7042 40.2407 21.7495 39.7737 20.9704 39.0796C20.5879 38.6864 20.2416 38.2597 19.9354 37.8046C19.7189 37.5523 19.5739 37.2468 19.5154 36.9196C19.485 36.6443 19.5484 36.3668 19.6954 36.1321C18.5494 35.3941 17.4274 34.6621 16.3744 33.9136C16.1857 34.2893 15.9722 34.6521 15.7354 34.9996C15.2495 35.6632 14.6184 36.207 13.8904 36.5896C13.2098 37.2376 12.6241 37.9784 12.1504 38.7901V38.8051C13.0147 39.5032 13.9744 40.0739 15.0004 40.5001C15.3004 40.6201 15.5854 40.7401 15.8704 40.8751C16.1104 40.9801 16.3504 41.0851 16.5904 41.2051C16.6746 41.236 16.7551 41.2762 16.8304 41.3251C17.1154 41.4451 17.3854 41.5951 17.6404 41.7301C18.7004 42.2874 19.7137 42.9295 20.6704 43.6501C20.8704 43.7851 21.0654 43.9351 21.2554 44.1001C21.8254 44.5345 22.3665 45.0055 22.8754 45.5101C23.1604 45.7801 23.4304 46.0501 23.6704 46.3201C23.8954 46.5451 24.0904 46.7701 24.2854 46.9801C25.2361 48.0933 26.0798 49.2936 26.8054 50.5651C27.0004 50.8951 27.1654 51.2101 27.3304 51.5401C27.5104 51.9001 27.6904 52.2601 27.8404 52.6051C27.9904 52.9501 28.1404 53.2801 28.2604 53.6101C28.3654 53.8351 28.4404 54.0601 28.5304 54.2851C28.6204 54.5101 28.6804 54.7051 28.7404 54.9001C28.8004 55.0951 28.8754 55.3051 28.9354 55.5001C29.5406 57.3801 29.8937 59.3322 29.9854 61.3051C35.1604 58.8751 42.4204 57.0001 52.5004 57.0001C53.6093 57.0019 54.7169 56.9267 55.8154 56.7751C56.443 55.2896 56.7644 53.6927 56.7604 52.0801C56.6966 51.2099 56.4987 50.3548 56.1739 49.5451Z" fill="#01A2B0"/>
<path d="M32.2946 17.2951C33.2975 17.8566 34.4554 18.0777 35.5946 17.9251C36.2597 17.7358 36.8544 17.355 37.3046 16.8301C37.7246 16.3351 38.0396 15.7951 38.4296 15.2851C39.7049 13.9087 41.0678 12.616 42.5096 11.4151C42.9779 11.0461 43.3146 10.5358 43.4696 9.96009C43.5332 9.3893 43.3777 8.81565 43.0346 8.35509C42.7034 7.79315 42.2464 7.31565 41.6996 6.96009C41.0324 6.59318 40.3067 6.34452 39.5546 6.22509C36.7646 5.73009 33.1196 5.97009 31.0796 7.75509C29.8447 8.75349 28.9703 10.1284 28.5896 11.6701C28.4343 12.4226 28.4771 13.2025 28.7137 13.9334C28.9504 14.6644 29.3728 15.3214 29.9396 15.8401C30.6499 16.4367 31.4432 16.9268 32.2946 17.2951Z" fill="#FFDF64"/>
<path d="M13.89 36.585C14.6181 36.2024 15.2491 35.6586 15.735 34.995C15.9718 34.6476 16.1853 34.2848 16.374 33.909C14.7448 32.8112 13.2732 31.4961 12 30C9.111 26.388 9.354 20.7 10.3815 15.75C7.95122 18.6924 5.9693 21.9779 4.5 25.5C4.5 25.5 6.735 34.425 12.15 38.79C12.6233 37.9768 13.2091 37.2344 13.89 36.585Z" fill="#FF942C"/>
<path d="M19.5152 36.9149C19.5738 37.2421 19.7188 37.5477 19.9352 37.7999C20.2414 38.255 20.5878 38.6818 20.9702 39.0749C21.7493 39.7691 22.704 40.2361 23.7302 40.4249C24.0941 40.5491 24.4919 40.5276 24.8402 40.3649C25.0281 40.2598 25.175 40.0944 25.2572 39.8954C23.4707 38.5454 21.5522 37.3244 19.6952 36.1274C19.5483 36.3622 19.4849 36.6397 19.5152 36.9149Z" fill="#FF942C"/>
<path d="M51.5557 10.245C51.3093 10.9419 51.2473 11.6906 51.3757 12.4185C52.1647 12.7695 52.9397 13.1445 53.7007 13.5435C54.4602 13.551 55.2159 13.6518 55.9507 13.8435C56.1188 13.8837 56.2738 13.9663 56.4007 14.0835C56.5614 14.2288 56.6726 14.4208 56.7189 14.6324C56.7652 14.8441 56.7441 15.0649 56.6587 15.264C63.7495 19.8044 69.2209 26.473 72.2887 34.314C73.2827 35.054 74.1779 35.918 74.9527 36.885C76.1478 34.8018 77.2255 32.6535 78.1807 30.45C75.671 20.9235 69.619 12.7146 61.2607 7.5H55.5007C54.6517 7.54073 53.8313 7.81983 53.1336 8.30532C52.4359 8.79081 51.889 9.46305 51.5557 10.245Z" fill="#FFFCBD"/>
<path d="M74.9511 36.8911C74.1763 35.9241 73.281 35.06 72.2871 34.3201C72.8655 35.7932 73.3544 37.3 73.7511 38.8321C74.1591 38.1976 74.5656 37.5586 74.9511 36.8911Z" fill="#89F2FF"/>
<path d="M19.8756 10.365C20.5236 10.9485 20.8791 11.007 20.9736 11.652C23.7558 10.5783 26.6508 9.82344 29.6031 9.40202C30.0271 8.79431 30.5232 8.24026 31.0806 7.75202C33.1206 5.96702 36.7656 5.72702 39.5556 6.22202C40.3077 6.34145 41.0334 6.59012 41.7006 6.95702C42.2475 7.31259 42.7044 7.79009 43.0356 8.35202C43.3495 8.78698 43.5046 9.31646 43.4751 9.85202C46.1916 10.4272 48.8398 11.2874 51.3756 12.4185C51.2472 11.6906 51.3092 10.9419 51.5556 10.245C51.8889 9.46307 52.4357 8.79083 53.1335 8.30534C53.8312 7.81985 54.6516 7.54075 55.5006 7.50002H61.2606C54.6807 3.34947 47.0075 1.26674 39.232 1.52075C31.4565 1.77477 23.9357 4.35386 17.6406 8.92502L17.7006 9.00002C18.4959 9.33206 19.2308 9.79328 19.8756 10.365Z" fill="#89F2FF"/>
<path d="M56.4012 14.085C56.2742 13.9678 56.1192 13.8852 55.9512 13.845C55.2163 13.6533 54.4606 13.5526 53.7012 13.545C54.7152 14.076 55.7012 14.65 56.6592 15.267C56.7449 15.0677 56.7661 14.8466 56.7198 14.6346C56.6736 14.4227 56.5621 14.2305 56.4012 14.085Z" fill="#89F2FF"/>
<path d="M20.9729 11.652C20.8784 11.007 20.5229 10.9485 19.8749 10.365C19.2301 9.7933 18.4952 9.33209 17.6999 9.00005L17.6399 8.92505C14.9364 10.8777 12.4967 13.1717 10.3814 15.75C10.2239 16.5 10.0949 17.2785 9.98242 18.0585C13.2782 15.3469 16.9892 13.1837 20.9729 11.652Z" fill="#FFFCBD"/>
<path d="M43.4736 9.85655C43.5031 9.32099 43.3479 8.79151 43.0341 8.35655C42.7029 7.79462 42.2459 7.31712 41.6991 6.96155C41.0318 6.59465 40.3061 6.34598 39.5541 6.22655C36.7641 5.73155 33.1191 5.97155 31.0791 7.75655C30.5217 8.24479 30.0255 8.79884 29.6016 9.40655C34.2161 8.74122 38.9118 8.89355 43.4736 9.85655Z" fill="#FFFCBD"/>
<path d="M9.9815 18.0631C10.094 17.2831 10.223 16.5091 10.3805 15.7546C9.20203 17.1869 8.12635 18.7006 7.1615 20.2846C7.1345 20.3281 7.106 20.3701 7.079 20.4151C6.9395 20.6446 6.821 20.8861 6.6875 21.1186C7.72768 20.0395 8.8274 19.0194 9.9815 18.0631Z" fill="#FFB844"/>
<path d="M91.5 1.5H88.5V9H91.5V1.5Z" fill="#85EE89"/>
<path d="M82.5 1.5H79.5V9H82.5V1.5Z" fill="#85EE89"/>
<path d="M84 30V91.5C84 91.8978 83.842 92.2794 83.5607 92.5607C83.2794 92.842 82.8978 93 82.5 93H13.5C13.1022 93 12.7206 92.842 12.4393 92.5607C12.158 92.2794 12 91.8978 12 91.5V85.005C11.9969 84.6799 12.1025 84.3632 12.3 84.105L15.801 79.4325L14.55 78.6L13.3005 77.766L9.9075 82.2945C9.31778 83.075 8.99912 84.0268 9 85.005V91.5C9 92.6935 9.47411 93.8381 10.318 94.682C11.1619 95.5259 12.3065 96 13.5 96H82.5C83.6935 96 84.8381 95.5259 85.682 94.682C86.5259 93.8381 87 92.6935 87 91.5V30H84Z" fill="#35C4BA"/>
<path d="M90 1.5V7.5H91.5V9H88.5V1.5H90Z" fill="#18AE88"/>
<path d="M81 1.5V7.5H82.5V9H79.5V1.5H81Z" fill="#18AE88"/>
<path d="M78.224 50.295C78.0733 50.2448 77.9105 50.2444 77.7595 50.2939C77.6085 50.3433 77.4774 50.4399 77.3855 50.5695C67.511 64.677 48.6425 71.25 39.0005 71.25C33.2735 71.2952 27.5972 72.3284 22.2215 74.304C22.1294 74.3406 22.0456 74.3953 21.975 74.4649C21.9044 74.5344 21.8485 74.6174 21.8105 74.709C22.028 74.8275 22.2365 74.9595 22.4555 75.075C22.7375 75.225 23.0315 75.354 23.3195 75.4965C28.364 73.7403 33.6595 72.8128 39.0005 72.75C46.7795 72.75 65.9345 67.86 77.4005 53.022C77.6255 52.356 77.8595 51.696 78.0485 51.015C78.113 50.778 78.161 50.5335 78.224 50.295Z" fill="#DAFFA8"/>
<path d="M10.0069 48.564C21.4999 58.614 20.2744 67.293 20.2594 67.38C20.2375 67.5254 20.2589 67.674 20.3207 67.8073C20.3826 67.9406 20.4823 68.0529 20.6074 68.13C20.7649 67.9485 20.9149 67.7715 21.0904 67.584C21.3124 67.3455 21.5524 67.0995 21.8044 66.852C21.9064 64.425 21.3379 56.4795 10.9954 47.43C4.10442 41.4 3.75042 30.096 3.75042 29.982C3.74763 29.8155 3.68951 29.6547 3.58522 29.5249C3.48093 29.395 3.33641 29.3036 3.17442 29.265C3.10542 29.5065 3.02442 29.7405 2.95542 29.985C2.75142 30.693 2.58042 31.4145 2.41992 32.1375C2.85042 35.8755 4.42242 43.674 10.0069 48.564Z" fill="#C6FF79"/>
</g>
<defs>
<clipPath id="clip0_14145_3480">
<rect width="96" height="96" fill="white"/>
</clipPath>
</defs>
</svg>
