<svg width="180" height="180" viewBox="0 0 180 180" fill="none" xmlns="http://www.w3.org/2000/svg">
<g clip-path="url(#clip0_12403_37376)">
<mask id="mask0_12403_37376" style="mask-type:luminance" maskUnits="userSpaceOnUse" x="-38" y="-18" width="247" height="247">
<path d="M208.757 -17.574H-37.2781V228.462H208.757V-17.574Z" fill="white"/>
</mask>
<g mask="url(#mask0_12403_37376)">
<g opacity="0.4">
<g opacity="0.4">
<path opacity="0.4" d="M155.491 100.007L147.248 85.7366L155.491 71.4666H171.95L180.193 85.7366L171.95 100.007H155.491Z" stroke="#424242" stroke-width="1.47621" stroke-miterlimit="10"/>
</g>
</g>
<g opacity="0.4">
<path opacity="0.4" d="M126.951 83.5474L118.733 69.2774L126.951 55.0073H143.41L151.653 69.2774L143.41 83.5474H126.951Z" fill="#424242" stroke="#424242" stroke-width="1.47621" stroke-miterlimit="10"/>
</g>
<g opacity="0.4">
<path opacity="0.4" d="M126.951 50.6278L118.733 36.3577L126.951 22.0876H143.41L151.652 36.3577L143.41 50.6278H126.951Z" stroke="#424242" stroke-width="1.47621" stroke-miterlimit="10"/>
</g>
<g opacity="0.4">
<path opacity="0.4" d="M98.4105 100.007L90.1929 85.7369L98.4105 71.4668H114.87L123.112 85.7369L114.87 100.007H98.4105Z" stroke="#424242" stroke-width="1.47621" stroke-miterlimit="10"/>
</g>
<g opacity="0.4">
<path opacity="0.4" d="M98.4105 67.0875L90.1929 52.8174L98.4105 38.5474H114.87L123.112 52.8174L114.87 67.0875H98.4105Z" fill="#424242" stroke="#424242" stroke-width="1.47621" stroke-miterlimit="10"/>
</g>
<g opacity="0.4">
<path opacity="0.4" d="M69.8945 116.467L61.6523 102.197L69.8945 87.927H86.3542L94.5718 102.197L86.3542 116.467H69.8945Z" fill="#424242" stroke="#424242" stroke-width="1.47621" stroke-miterlimit="10"/>
<path opacity="0.4" d="M69.8945 83.5474L61.6523 69.2774L69.8945 55.0073H86.3542L94.5718 69.2774L86.3542 83.5474H69.8945Z" stroke="#424242" stroke-width="1.47621" stroke-miterlimit="10"/>
<path opacity="0.4" d="M69.8946 50.6278L61.6524 36.3577L69.8946 22.0876H86.3544L94.572 36.3577L86.3544 50.6278H69.8946Z" stroke="#424242" stroke-width="1.47621" stroke-miterlimit="10"/>
</g>
<g opacity="0.4">
<path opacity="0.4" d="M41.3546 67.0875L33.1124 52.8174L41.3546 38.5474H57.8144L66.032 52.8174L57.8144 67.0875H41.3546Z" fill="#424242" stroke="#424242" stroke-width="1.47621" stroke-miterlimit="10"/>
</g>
<g opacity="0.4">
<path opacity="0.4" d="M12.8146 116.467L4.57245 102.197L12.8146 87.9265H29.2744L37.5166 102.197L29.2744 116.467H12.8146Z" fill="#424242" stroke="#424242" stroke-width="1.47621" stroke-miterlimit="10"/>
<path opacity="0.4" d="M12.8147 83.547L4.57254 69.2769L12.8147 55.0068H29.2745L37.5167 69.2769L29.2745 83.547H12.8147Z" stroke="#424242" stroke-width="1.47621" stroke-miterlimit="10"/>
</g>
<path d="M-6.52371 160.556H178.003" stroke="#3F2975" stroke-width="1.96828" stroke-miterlimit="10" stroke-linecap="round" stroke-linejoin="round"/>
<path d="M103.307 156.373C101.732 154.676 99.7637 153.2 97.3033 152.092V63.3474L100.133 58.4513C101.388 56.2616 99.8129 53.5552 97.3033 53.5552H95.5811H77.9403C76.1443 53.5552 74.6681 55.0068 74.6681 56.8274V152.117C72.2077 153.224 70.0918 154.7 68.5172 156.398H68.4434C67.2624 156.398 66.3275 157.358 66.3275 158.514V160.335H105.447V158.514C105.422 157.333 104.463 156.373 103.307 156.373Z" fill="white"/>
<path d="M103.061 156.373C101.486 154.676 99.5177 153.2 97.0574 152.092V64.0117C97.0574 63.5688 97.1804 63.1506 97.4018 62.7815L99.9852 58.5989C101.289 56.483 99.7637 53.7766 97.3034 53.7766H95.5811H77.5713C75.8245 53.7766 74.4221 55.179 74.4221 56.9259V152.092C71.9617 153.2 70.0919 154.897 68.5172 156.619H68.4434C67.1394 156.619 66.0815 157.677 66.0815 158.981V160.556H105.201V158.489C105.177 157.333 104.217 156.373 103.061 156.373Z" stroke="#3F2975" stroke-width="1.47621" stroke-miterlimit="10" stroke-linecap="round" stroke-linejoin="round"/>
<path d="M95.8762 155.242L93.8588 154.332V84.5313H93.8095C93.8095 81.9233 91.6936 79.8074 89.0857 79.8074C86.9452 79.8074 85.1491 81.2344 84.5586 83.1781C84.1896 82.932 83.7467 82.809 83.2792 82.809C82.1967 82.809 81.2863 83.5471 81.0157 84.5313H78.1125V154.307L76.095 155.217C75.037 155.685 74.0775 156.251 73.1918 156.841H98.7057C97.8445 156.251 96.9096 155.709 95.8762 155.242Z" fill="#EC1CE4"/>
<path d="M95.8762 155.242L93.8588 154.332V84.5313H93.8095C93.8095 81.9233 91.6936 79.8074 89.0857 79.8074C86.9452 79.8074 85.1491 81.2344 84.5586 83.1781C84.1896 82.932 83.7467 82.809 83.2792 82.809C82.1967 82.809 81.2863 83.5471 81.0157 84.5313H78.1125V154.307L76.095 155.217C75.037 155.685 74.0775 156.251 73.1918 156.841H98.7057C97.8445 156.251 96.9096 155.709 95.8762 155.242Z" stroke="#3F2975" stroke-width="1.47621" stroke-miterlimit="10" stroke-linecap="round" stroke-linejoin="round"/>
<path d="M82.6641 72.2294C83.9551 72.2294 85.0015 71.183 85.0015 69.892C85.0015 68.6011 83.9551 67.5547 82.6641 67.5547C81.3732 67.5547 80.3268 68.6011 80.3268 69.892C80.3268 71.183 81.3732 72.2294 82.6641 72.2294Z" fill="#EC1CE4"/>
<path d="M82.6641 72.2294C83.9551 72.2294 85.0015 71.183 85.0015 69.892C85.0015 68.6011 83.9551 67.5547 82.6641 67.5547C81.3732 67.5547 80.3268 68.6011 80.3268 69.892C80.3268 71.183 81.3732 72.2294 82.6641 72.2294Z" stroke="#3F2975" stroke-width="1.47621" stroke-miterlimit="10" stroke-linecap="round" stroke-linejoin="round"/>
<path d="M85.1246 49.1018C87.3667 49.1018 89.1842 47.2844 89.1842 45.0423C89.1842 42.8001 87.3667 40.9827 85.1246 40.9827C82.8825 40.9827 81.065 42.8001 81.065 45.0423C81.065 47.2844 82.8825 49.1018 85.1246 49.1018Z" fill="#EC1CE4"/>
<path d="M85.1246 49.1018C87.3667 49.1018 89.1842 47.2844 89.1842 45.0423C89.1842 42.8001 87.3667 40.9827 85.1246 40.9827C82.8825 40.9827 81.065 42.8001 81.065 45.0423C81.065 47.2844 82.8825 49.1018 85.1246 49.1018Z" stroke="#3F2975" stroke-width="1.47621" stroke-miterlimit="10" stroke-linecap="round" stroke-linejoin="round"/>
<path d="M90.2913 38.0057C91.161 38.0057 91.8659 37.3008 91.8659 36.4311C91.8659 35.5613 91.161 34.8564 90.2913 34.8564C89.4216 34.8564 88.7167 35.5613 88.7167 36.4311C88.7167 37.3008 89.4216 38.0057 90.2913 38.0057Z" fill="#EC1CE4"/>
<path d="M90.2913 38.0057C91.161 38.0057 91.8659 37.3008 91.8659 36.4311C91.8659 35.5613 91.161 34.8564 90.2913 34.8564C89.4216 34.8564 88.7167 35.5613 88.7167 36.4311C88.7167 37.3008 89.4216 38.0057 90.2913 38.0057Z" stroke="#3F2975" stroke-width="1.47621" stroke-miterlimit="10" stroke-linecap="round" stroke-linejoin="round"/>
<path d="M89.5531 64.9712C90.0966 64.9712 90.5373 64.5306 90.5373 63.9871C90.5373 63.4436 90.0966 63.0029 89.5531 63.0029C89.0096 63.0029 88.569 63.4436 88.569 63.9871C88.569 64.5306 89.0096 64.9712 89.5531 64.9712Z" fill="#EC1CE4"/>
<path d="M89.5531 64.9712C90.0966 64.9712 90.5373 64.5306 90.5373 63.9871C90.5373 63.4436 90.0966 63.0029 89.5531 63.0029C89.0096 63.0029 88.569 63.4436 88.569 63.9871C88.569 64.5306 89.0096 64.9712 89.5531 64.9712Z" stroke="#3F2975" stroke-width="1.47621" stroke-miterlimit="10" stroke-linecap="round" stroke-linejoin="round"/>
<path d="M86.4286 108.642C86.8634 108.642 87.2159 108.29 87.2159 107.855C87.2159 107.42 86.8634 107.068 86.4286 107.068C85.9939 107.068 85.6413 107.42 85.6413 107.855C85.6413 108.29 85.9939 108.642 86.4286 108.642Z" fill="#3F2975"/>
<path d="M85.1493 121.584C86.5081 121.584 87.6096 120.483 87.6096 119.124C87.6096 117.765 86.5081 116.663 85.1493 116.663C83.7904 116.663 82.6889 117.765 82.6889 119.124C82.6889 120.483 83.7904 121.584 85.1493 121.584Z" fill="#3F2975"/>
<path d="M88.3475 132.754C88.9453 132.754 89.43 132.269 89.43 131.671C89.43 131.074 88.9453 130.589 88.3475 130.589C87.7496 130.589 87.2649 131.074 87.2649 131.671C87.2649 132.269 87.7496 132.754 88.3475 132.754Z" fill="#3F2975"/>
<path d="M63.1045 112.407V75.4277H49.8186V112.407C38.2549 115.359 29.5207 126.111 29.5207 138.782C29.5207 147.639 33.9001 155.389 40.4692 160.556H72.9459C79.5151 155.389 83.6485 147.639 83.6485 138.782C83.6485 126.136 74.9142 115.384 63.1045 112.407Z" fill="white"/>
<path d="M63.1045 112.407V75.4277H49.8186V112.407C38.2549 115.359 29.5207 126.111 29.5207 138.782C29.5207 147.639 33.9001 155.389 40.4692 160.556H72.9459C79.5151 155.389 83.6485 147.639 83.6485 138.782C83.6485 126.136 74.9142 115.384 63.1045 112.407Z" stroke="#3F2975" stroke-width="1.47621" stroke-miterlimit="10" stroke-linecap="round" stroke-linejoin="round"/>
<path d="M78.1863 128.817H71.6172C71.5188 127.439 70.3624 126.357 68.96 126.357C67.5576 126.357 66.4012 127.439 66.3028 128.817H66.0322C65.9091 126.357 63.8671 124.389 61.3821 124.389C60.5948 124.389 59.8567 124.585 59.217 124.93C58.3313 122.371 55.8955 120.526 53.0169 120.526C49.8676 120.526 47.2104 122.765 46.5954 125.742C46.0049 125.348 45.2914 125.127 44.5287 125.127C42.462 125.127 40.7889 126.775 40.7151 128.817H35.2285C33.8261 131.893 33.088 135.288 33.088 138.659C33.088 145.745 36.2127 152.363 41.65 156.865H71.7402C77.2022 152.363 80.3022 145.745 80.3022 138.659C80.3268 135.288 79.5887 131.893 78.1863 128.817Z" fill="#FF5959"/>
<path d="M78.1863 128.817H71.6172C71.5188 127.439 70.3624 126.357 68.96 126.357C67.5576 126.357 66.4012 127.439 66.3028 128.817H66.0322C65.9091 126.357 63.8671 124.389 61.3821 124.389C60.5948 124.389 59.8567 124.585 59.217 124.93C58.3313 122.371 55.8955 120.526 53.0169 120.526C49.8676 120.526 47.2104 122.765 46.5954 125.742C46.0049 125.348 45.2914 125.127 44.5287 125.127C42.462 125.127 40.7889 126.775 40.7151 128.817H35.2285C33.8261 131.893 33.088 135.288 33.088 138.659C33.088 145.745 36.2127 152.363 41.65 156.865H71.7402C77.2022 152.363 80.3022 145.745 80.3022 138.659C80.3268 135.288 79.5887 131.893 78.1863 128.817Z" stroke="#3F2975" stroke-width="1.47621" stroke-miterlimit="10" stroke-linecap="round" stroke-linejoin="round"/>
<path d="M46.9154 129.506C46.6201 128.768 46.4479 127.932 46.4479 127.095C46.4479 123.478 49.3757 120.526 53.0171 120.526C55.8711 120.526 58.3068 122.371 59.2172 124.93" stroke="#3F2975" stroke-width="1.47621" stroke-miterlimit="10" stroke-linecap="round" stroke-linejoin="round"/>
<path d="M57.0764 127.243C57.7899 125.57 59.4384 124.389 61.3821 124.389C63.9654 124.389 66.0567 126.48 66.0567 129.064" stroke="#3F2975" stroke-width="1.47621" stroke-miterlimit="10" stroke-linecap="round" stroke-linejoin="round"/>
<path d="M66.3029 129.014C66.3029 127.538 67.5085 126.357 68.9601 126.357C70.4363 126.357 71.6173 127.563 71.6173 129.014" stroke="#3F2975" stroke-width="1.47621" stroke-miterlimit="10" stroke-linecap="round" stroke-linejoin="round"/>
<path d="M61.0132 65.8325H51.9099V81.0867H61.0132V65.8325Z" fill="#D29C5E"/>
<path d="M61.0132 65.8325H51.9099V81.0867H61.0132V65.8325Z" stroke="#3F2975" stroke-width="1.47621" stroke-miterlimit="10" stroke-linecap="round" stroke-linejoin="round"/>
<path d="M63.9656 75.1817H49.2035C47.5797 75.1817 46.2511 73.8531 46.2511 72.2293C46.2511 70.6054 47.5797 69.2769 49.2035 69.2769H63.9656C65.5895 69.2769 66.918 70.6054 66.918 72.2293C66.918 73.8531 65.5895 75.1817 63.9656 75.1817Z" fill="#D9D6E5"/>
<path d="M63.9656 75.1817H49.2035C47.5797 75.1817 46.2511 73.8531 46.2511 72.2293C46.2511 70.6054 47.5797 69.2769 49.2035 69.2769H63.9656C65.5895 69.2769 66.918 70.6054 66.918 72.2293C66.918 73.8531 65.5895 75.1817 63.9656 75.1817Z" stroke="#3F2975" stroke-width="1.47621" stroke-miterlimit="10" stroke-linecap="round" stroke-linejoin="round"/>
<path d="M60.3488 119.985C62.0066 119.985 63.3504 118.641 63.3504 116.983C63.3504 115.325 62.0066 113.981 60.3488 113.981C58.691 113.981 57.3471 115.325 57.3471 116.983C57.3471 118.641 58.691 119.985 60.3488 119.985Z" fill="#FF5959"/>
<path d="M57.1997 92.8224C57.9471 92.8224 58.5529 92.2166 58.5529 91.4692C58.5529 90.7217 57.9471 90.116 57.1997 90.116C56.4522 90.116 55.8465 90.7217 55.8465 91.4692C55.8465 92.2166 56.4522 92.8224 57.1997 92.8224Z" fill="#FF5959"/>
<path d="M54.6164 102.885C55.5675 102.885 56.3386 102.114 56.3386 101.163C56.3386 100.212 55.5675 99.4407 54.6164 99.4407C53.6652 99.4407 52.8941 100.212 52.8941 101.163C52.8941 102.114 53.6652 102.885 54.6164 102.885Z" fill="#FF5959"/>
<path d="M60.3488 119.985C62.0066 119.985 63.3504 118.641 63.3504 116.983C63.3504 115.325 62.0066 113.981 60.3488 113.981C58.691 113.981 57.3471 115.325 57.3471 116.983C57.3471 118.641 58.691 119.985 60.3488 119.985Z" stroke="#3F2975" stroke-width="1.47621" stroke-miterlimit="10" stroke-linecap="round" stroke-linejoin="round"/>
<path d="M57.1996 92.4534C57.7431 92.4534 58.1838 92.0127 58.1838 91.4692C58.1838 90.9258 57.7431 90.4851 57.1996 90.4851C56.6561 90.4851 56.2155 90.9258 56.2155 91.4692C56.2155 92.0127 56.6561 92.4534 57.1996 92.4534Z" stroke="#3F2975" stroke-width="1.47621" stroke-miterlimit="10" stroke-linecap="round" stroke-linejoin="round"/>
<path d="M54.6164 102.885C55.5675 102.885 56.3386 102.114 56.3386 101.163C56.3386 100.212 55.5675 99.4407 54.6164 99.4407C53.6652 99.4407 52.8941 100.212 52.8941 101.163C52.8941 102.114 53.6652 102.885 54.6164 102.885Z" stroke="#3F2975" stroke-width="1.47621" stroke-miterlimit="10" stroke-linecap="round" stroke-linejoin="round"/>
<path d="M69.5753 121.338C69.9829 121.338 70.3134 121.008 70.3134 120.6C70.3134 120.192 69.9829 119.862 69.5753 119.862C69.1676 119.862 68.8372 120.192 68.8372 120.6C68.8372 121.008 69.1676 121.338 69.5753 121.338Z" fill="#FF5959"/>
<path d="M69.5753 121.338C69.9829 121.338 70.3134 121.008 70.3134 120.6C70.3134 120.192 69.9829 119.862 69.5753 119.862C69.1676 119.862 68.8372 120.192 68.8372 120.6C68.8372 121.008 69.1676 121.338 69.5753 121.338Z" stroke="#3F2975" stroke-width="1.23018" stroke-miterlimit="10" stroke-linecap="round" stroke-linejoin="round"/>
<path d="M65.1465 123.011C65.2552 123.011 65.3433 122.923 65.3433 122.814C65.3433 122.705 65.2552 122.617 65.1465 122.617C65.0378 122.617 64.9497 122.705 64.9497 122.814C64.9497 122.923 65.0378 123.011 65.1465 123.011Z" stroke="#3F2975" stroke-width="1.23018" stroke-miterlimit="10" stroke-linecap="round" stroke-linejoin="round"/>
<path d="M51.5408 145.548C51.9485 145.548 52.2789 145.218 52.2789 144.81C52.2789 144.402 51.9485 144.072 51.5408 144.072C51.1331 144.072 50.8027 144.402 50.8027 144.81C50.8027 145.218 51.1331 145.548 51.5408 145.548Z" fill="#3F2975"/>
<path d="M56.9536 152.289C57.8233 152.289 58.5282 151.584 58.5282 150.715C58.5282 149.845 57.8233 149.14 56.9536 149.14C56.0839 149.14 55.379 149.845 55.379 150.715C55.379 151.584 56.0839 152.289 56.9536 152.289Z" fill="#3F2975"/>
<path d="M59.1678 142.841C59.5754 142.841 59.9059 142.511 59.9059 142.103C59.9059 141.696 59.5754 141.365 59.1678 141.365C58.7601 141.365 58.4297 141.696 58.4297 142.103C58.4297 142.511 58.7601 142.841 59.1678 142.841Z" fill="#3F2975"/>
<path d="M64.3347 150.813C64.7967 150.813 65.1712 150.438 65.1712 149.976C65.1712 149.514 64.7967 149.14 64.3347 149.14C63.8726 149.14 63.4982 149.514 63.4982 149.976C63.4982 150.438 63.8726 150.813 64.3347 150.813Z" fill="#3F2975"/>
<path d="M120.603 87.4835H105.029C103.405 87.4835 102.076 86.1549 102.076 84.531C102.076 82.9072 103.405 81.5786 105.029 81.5786H120.603C122.226 81.5786 123.555 82.9072 123.555 84.531C123.555 86.1549 122.226 87.4835 120.603 87.4835Z" fill="#D9D6E5"/>
<path d="M120.603 87.4835H105.029C103.405 87.4835 102.076 86.1549 102.076 84.531C102.076 82.9072 103.405 81.5786 105.029 81.5786H120.603C122.226 81.5786 123.555 82.9072 123.555 84.531C123.555 86.1549 122.226 87.4835 120.603 87.4835Z" stroke="#3F2975" stroke-width="1.47621" stroke-miterlimit="10" stroke-linecap="round" stroke-linejoin="round"/>
<path d="M119.446 118.976V87.4834H106.16V118.976L84.6077 152.757C82.5164 156.029 84.8291 160.31 88.7165 160.31H136.718C140.605 160.31 143.016 156.029 140.925 152.757L119.446 118.976Z" fill="white"/>
<path d="M119.446 118.976V87.4834H106.16V118.976L84.6077 152.757C82.5164 156.029 84.8291 160.31 88.7165 160.31H136.718C140.605 160.31 143.016 156.029 140.925 152.757L119.446 118.976Z" stroke="#3F2975" stroke-width="1.47621" stroke-miterlimit="10" stroke-linecap="round" stroke-linejoin="round"/>
<path d="M137.997 154.577L129.337 140.947C128.427 138.782 126.458 137.305 124.17 137.305C123.014 137.305 121.907 137.699 121.021 138.363C119.988 137.256 118.585 136.567 117.035 136.567C114.87 136.567 112.976 137.921 112.016 139.889H110.983C109.949 138.757 108.522 138.044 106.948 138.044C105.373 138.044 103.946 138.757 102.913 139.889H102.47C101.683 140.356 100.772 140.627 99.788 140.627C98.8039 140.627 97.9182 140.356 97.1062 139.889H96.8602L87.4863 154.577C87.0188 155.315 87.2894 155.906 87.3878 156.078C87.5355 156.373 87.9291 156.841 88.6918 156.841H136.693C137.505 156.841 137.899 156.299 138.022 156.078C138.219 155.734 138.366 155.192 137.997 154.577Z" fill="#0CF9C3"/>
<path d="M137.997 154.577L129.337 140.947C128.427 138.782 126.458 137.305 124.17 137.305C123.014 137.305 121.907 137.699 121.021 138.363C119.988 137.256 118.585 136.567 117.035 136.567C114.87 136.567 112.976 137.921 112.016 139.889H110.983C109.949 138.757 108.522 138.044 106.948 138.044C105.373 138.044 103.946 138.757 102.913 139.889H102.47C101.683 140.356 100.772 140.627 99.788 140.627C98.8039 140.627 97.9182 140.356 97.1062 139.889H96.8602L87.4863 154.577C87.0188 155.315 87.2894 155.906 87.3878 156.078C87.5355 156.373 87.9291 156.841 88.6918 156.841H136.693C137.505 156.841 137.899 156.299 138.022 156.078C138.219 155.734 138.366 155.192 137.997 154.577Z" stroke="#3F2975" stroke-width="1.47621" stroke-miterlimit="10" stroke-linecap="round" stroke-linejoin="round"/>
<path d="M110.269 132.631C111.628 132.631 112.729 131.529 112.729 130.171C112.729 128.812 111.628 127.71 110.269 127.71C108.91 127.71 107.809 128.812 107.809 130.171C107.809 131.529 108.91 132.631 110.269 132.631Z" fill="#0CF9C3"/>
<path d="M110.269 132.631C111.628 132.631 112.729 131.529 112.729 130.171C112.729 128.812 111.628 127.71 110.269 127.71C108.91 127.71 107.809 128.812 107.809 130.171C107.809 131.529 108.91 132.631 110.269 132.631Z" stroke="#3F2975" stroke-width="1.47621" stroke-miterlimit="10" stroke-linecap="round" stroke-linejoin="round"/>
<path d="M118.782 133.418C119.679 133.418 120.406 132.691 120.406 131.794C120.406 130.898 119.679 130.171 118.782 130.171C117.885 130.171 117.158 130.898 117.158 131.794C117.158 132.691 117.885 133.418 118.782 133.418Z" fill="#0CF9C3"/>
<path d="M118.782 133.418C119.679 133.418 120.406 132.691 120.406 131.794C120.406 130.898 119.679 130.171 118.782 130.171C117.885 130.171 117.158 130.898 117.158 131.794C117.158 132.691 117.885 133.418 118.782 133.418Z" stroke="#3F2975" stroke-width="1.47621" stroke-miterlimit="10" stroke-linecap="round" stroke-linejoin="round"/>
<path d="M113.591 117.992C114.297 117.992 114.87 117.419 114.87 116.712C114.87 116.006 114.297 115.433 113.591 115.433C112.884 115.433 112.311 116.006 112.311 116.712C112.311 117.419 112.884 117.992 113.591 117.992Z" fill="#0CF9C3"/>
<path d="M113.591 117.992C114.297 117.992 114.87 117.419 114.87 116.712C114.87 116.006 114.297 115.433 113.591 115.433C112.884 115.433 112.311 116.006 112.311 116.712C112.311 117.419 112.884 117.992 113.591 117.992Z" stroke="#3F2975" stroke-width="1.47621" stroke-miterlimit="10" stroke-linecap="round" stroke-linejoin="round"/>
<path d="M109.359 147.122C110.228 147.122 110.933 146.418 110.933 145.548C110.933 144.678 110.228 143.973 109.359 143.973C108.489 143.973 107.784 144.678 107.784 145.548C107.784 146.418 108.489 147.122 109.359 147.122Z" fill="#3F2975"/>
<path d="M119.643 149.976C120.078 149.976 120.43 149.624 120.43 149.189C120.43 148.754 120.078 148.402 119.643 148.402C119.208 148.402 118.856 148.754 118.856 149.189C118.856 149.624 119.208 149.976 119.643 149.976Z" fill="#3F2975"/>
<path d="M114.796 102.664C115.081 102.664 115.313 102.432 115.313 102.147C115.313 101.862 115.081 101.63 114.796 101.63C114.511 101.63 114.279 101.862 114.279 102.147C114.279 102.432 114.511 102.664 114.796 102.664Z" stroke="#3F2975" stroke-width="1.47621" stroke-miterlimit="10" stroke-linecap="round" stroke-linejoin="round"/>
<path d="M110.86 91.1002C111.145 91.1002 111.376 90.869 111.376 90.5836C111.376 90.2982 111.145 90.0669 110.86 90.0669C110.574 90.0669 110.343 90.2982 110.343 90.5836C110.343 90.869 110.574 91.1002 110.86 91.1002Z" stroke="#3F2975" stroke-width="1.47621" stroke-miterlimit="10" stroke-linecap="round" stroke-linejoin="round"/>
</g>
</g>
<defs>
<clipPath id="clip0_12403_37376">
<rect width="180" height="180" fill="white"/>
</clipPath>
</defs>
</svg>
