<svg width="24" height="25" viewBox="0 0 24 25" fill="none" xmlns="http://www.w3.org/2000/svg">
<g id="reshot-icon-id-ZYMDVWNBRT 1" clip-path="url(#clip0_13735_1758)">
<path id="Vector" d="M14.0077 6.24842L23.3187 15.5594C23.5831 15.8239 23.5831 16.2566 23.3187 16.521L15.9632 23.8765C15.6988 24.1409 15.2661 24.1409 15.0016 23.8765L0.565504 9.44023C0.301082 9.17581 0.301082 8.7431 0.565504 8.47868L7.92094 1.12324C8.18536 0.858821 8.61807 0.858821 8.88249 1.12324L12.2449 4.48568" fill="#FEA8D6"/>
<g id="Group">
<path id="Vector_2" d="M6.86833 9.33053C7.92175 9.33053 8.77572 8.47656 8.77572 7.42314C8.77572 6.36972 7.92175 5.51575 6.86833 5.51575C5.81491 5.51575 4.96094 6.36972 4.96094 7.42314C4.96094 8.47656 5.81491 9.33053 6.86833 9.33053Z" fill="white"/>
<path id="Vector_3" d="M9.60266 15.6784C9.49391 15.6784 9.38516 15.6369 9.30219 15.554C9.13625 15.3879 9.13625 15.1189 9.30219 14.953L14.3224 9.93277C14.4883 9.76688 14.7575 9.76688 14.9233 9.93277C15.0893 10.0988 15.0893 10.3678 14.9233 10.5338L9.90312 15.554C9.82016 15.6368 9.71141 15.6784 9.60266 15.6784Z" fill="white"/>
<path id="Vector_4" d="M11.6632 17.739C11.5545 17.739 11.4457 17.6975 11.3627 17.6146C11.1968 17.4485 11.1968 17.1795 11.3627 17.0136L16.3829 11.9933C16.5488 11.8274 16.818 11.8274 16.9838 11.9933C17.1498 12.1593 17.1498 12.4284 16.9838 12.5943L11.9637 17.6145C11.8808 17.6974 11.772 17.739 11.6632 17.739Z" fill="white"/>
<path id="Vector_5" d="M13.7238 19.7995C13.615 19.7995 13.5062 19.758 13.4233 19.6751C13.2573 19.509 13.2573 19.24 13.4233 19.0741L18.4435 14.0539C18.6094 13.888 18.8785 13.888 19.0444 14.0539C19.2103 14.2199 19.2103 14.4889 19.0444 14.6548L14.0242 19.675C13.9413 19.758 13.8325 19.7995 13.7238 19.7995Z" fill="white"/>
</g>
<path id="Vector_6" d="M16.5816 23.2581L15.9632 23.8764C15.6988 24.1409 15.2661 24.1409 15.0016 23.8764L0.565504 9.44026C0.301082 9.17584 0.301082 8.74314 0.565504 8.47872L1.21463 7.82959L16.5816 23.2581Z" fill="#FF97CB"/>
<path id="Vector_7" d="M14.3659 5.94791C14.1999 5.78202 13.9308 5.78202 13.7649 5.94791C13.599 6.11394 13.599 6.38295 13.7649 6.54889L23.076 15.86C23.1737 15.9577 23.1737 16.1228 23.076 16.2205L15.7206 23.576C15.6228 23.6737 15.4577 23.6737 15.3599 23.576L0.923672 9.13972C0.876094 9.09214 0.849844 9.02811 0.849844 8.95948C0.849844 8.89081 0.876094 8.82678 0.923719 8.7792L4.30102 5.40191L5.0017 6.10273C4.37709 7.01075 4.46752 8.26597 5.27423 9.07269C5.71477 9.51317 6.30042 9.75584 6.92339 9.75584C7.54636 9.75584 8.13206 9.51322 8.57255 9.07269C9.01308 8.63216 9.2557 8.0465 9.2557 7.42353C9.2557 6.80056 9.01308 6.21486 8.57255 5.77437C8.13202 5.33389 7.54636 5.09122 6.92339 5.09122C6.44456 5.09122 5.98805 5.23508 5.60227 5.50142L4.90195 4.80102L8.27916 1.42381C8.37689 1.32598 8.54203 1.32598 8.63972 1.42381L12.0022 4.78625C12.1681 4.95214 12.4372 4.95214 12.6031 4.78625C12.769 4.62022 12.769 4.3512 12.6031 4.18527L9.24075 0.822734C9.03263 0.614609 8.75517 0.5 8.45953 0.5C8.16389 0.5 7.88644 0.614609 7.67827 0.822734L4.30102 4.20003L2.99048 2.88955C2.82455 2.72366 2.55544 2.72366 2.38955 2.88955C2.22361 3.05558 2.22361 3.32459 2.38955 3.49053L3.70003 4.80102L0.322828 8.17827C0.114656 8.38639 0 8.66384 0 8.95953C0 9.25517 0.114609 9.53263 0.322781 9.74075L14.759 24.177C14.9744 24.3923 15.2573 24.5 15.5402 24.5C15.8231 24.5 16.1061 24.3923 16.3215 24.177L23.677 16.8215C23.8852 16.6133 23.9998 16.3359 23.9998 16.0402C23.9998 15.7446 23.8852 15.4671 23.677 15.259L14.3659 5.94791ZM6.92348 5.94102C7.31944 5.94102 7.69172 6.09523 7.97166 6.37527C8.54962 6.95323 8.54962 7.89369 7.97166 8.47166C7.69162 8.75169 7.31939 8.90591 6.92348 8.90591C6.52748 8.90591 6.15525 8.75169 5.87522 8.47166C5.40164 7.99808 5.31638 7.28131 5.61886 6.7198L6.62297 7.72395C6.70594 7.80692 6.81469 7.84836 6.92344 7.84836C7.03219 7.84836 7.14094 7.80687 7.22391 7.72395C7.38984 7.55792 7.38984 7.28891 7.22391 7.12297L6.21933 6.1183C6.43317 6.00261 6.67355 5.94102 6.92348 5.94102Z" fill="black"/>
<path id="Vector_8" d="M14.379 9.93273L9.35883 14.953C9.19289 15.119 9.19289 15.388 9.35883 15.5539C9.4418 15.6369 9.55055 15.6783 9.6593 15.6783C9.76805 15.6783 9.8768 15.6369 9.95977 15.5539L14.98 10.5337C15.1459 10.3677 15.1459 10.0987 14.98 9.93273C14.8141 9.76689 14.545 9.76689 14.379 9.93273Z" fill="black"/>
<path id="Vector_9" d="M16.4395 11.9933L11.4194 17.0135C11.2534 17.1796 11.2534 17.4486 11.4194 17.6145C11.5023 17.6975 11.6111 17.7389 11.7198 17.7389C11.8286 17.7389 11.9373 17.6974 12.0203 17.6145L17.0405 12.5943C17.2064 12.4283 17.2064 12.1593 17.0405 11.9933C16.8745 11.8274 16.6054 11.8274 16.4395 11.9933Z" fill="black"/>
<path id="Vector_10" d="M13.48 19.6751C13.5629 19.758 13.6717 19.7995 13.7804 19.7995C13.8892 19.7995 13.9979 19.758 14.0809 19.6751L19.101 14.6548C19.267 14.4888 19.267 14.2198 19.101 14.0539C18.9351 13.888 18.666 13.888 18.5001 14.0539L13.48 19.0741C13.314 19.2401 13.314 19.5091 13.48 19.6751Z" fill="black"/>
</g>
<defs>
<clipPath id="clip0_13735_1758">
<rect width="24" height="24" fill="white" transform="translate(0 0.5)"/>
</clipPath>
</defs>
</svg>
