<svg width="24" height="25" viewBox="0 0 24 25" fill="none" xmlns="http://www.w3.org/2000/svg">
<path d="M18 19.4923H6C5.45 19.4923 5 19.0423 5 18.4923V6.49231C5 5.94231 5.45 5.49231 6 5.49231H11C11.55 5.49231 12 5.04231 12 4.49231C12 3.94231 11.55 3.49231 11 3.49231H5C3.89 3.49231 3 4.39231 3 5.49231V19.4923C3 20.5923 3.9 21.4923 5 21.4923H19C20.1 21.4923 21 20.5923 21 19.4923V13.4923C21 12.9423 20.55 12.4923 20 12.4923C19.45 12.4923 19 12.9423 19 13.4923V18.4923C19 19.0423 18.55 19.4923 18 19.4923ZM14 4.49231C14 5.04231 14.45 5.49231 15 5.49231H17.59L8.46 14.6223C8.07 15.0123 8.07 15.6423 8.46 16.0323C8.85 16.4223 9.48 16.4223 9.87 16.0323L19 6.90231V9.49231C19 10.0423 19.45 10.4923 20 10.4923C20.55 10.4923 21 10.0423 21 9.49231V3.49231H15C14.45 3.49231 14 3.94231 14 4.49231Z" fill="#29458C"/>
</svg>
