<svg width="32" height="32" viewBox="0 0 32 32" fill="none" xmlns="http://www.w3.org/2000/svg">
<g clip-path="url(#clip0_14145_2927)">
<path d="M13.3376 1.17471C14.8016 1.66084 17.1973 1.66084 18.6613 1.17471L20.252 0.646524C21.716 0.160399 23.1684 0.998836 23.4793 2.50984L23.8172 4.15146C24.1283 5.66246 25.3261 7.73715 26.4791 8.76202L27.7318 9.87552C28.8849 10.9003 28.8849 12.5773 27.7318 13.6021L26.4791 14.7156C25.3261 15.7405 24.1282 17.8151 23.8172 19.3261L23.4793 20.9678C23.1683 22.4788 21.716 23.3173 20.252 22.8311L18.6613 22.303C17.1973 21.8168 14.8016 21.8168 13.3376 22.303L11.747 22.8311C10.283 23.3173 8.8307 22.4788 8.51964 20.9678L8.18177 19.3261C7.8707 17.8151 6.67289 15.7405 5.51989 14.7156L4.26714 13.6021C3.11408 12.5773 3.11408 10.9003 4.26714 9.87552L5.51989 8.76202C6.67289 7.73715 7.87064 5.66246 8.18177 4.15146L8.51964 2.50984C8.8307 0.998836 10.283 0.160336 11.747 0.646524L13.3376 1.17471Z" fill="#D25459"/>
<path d="M20.616 14.6993H11.3838V31.493L15.9999 29.6292L20.616 31.493V14.6993Z" fill="#0071CE"/>
<path opacity="0.1" d="M16.0005 21.1724C20.4347 21.1724 24.0293 17.5778 24.0293 13.1436C24.0293 8.70943 20.4347 5.11481 16.0005 5.11481C11.5663 5.11481 7.97168 8.70943 7.97168 13.1436C7.97168 17.5778 11.5663 21.1724 16.0005 21.1724Z" fill="#2E2E2E"/>
<path d="M20.616 14.6993H11.3838V31.493L15.9999 29.6292L20.616 31.493V14.6993Z" fill="#F9BE00"/>
<path d="M14.4395 14.6993V30.2595L16.0005 29.6292L17.5616 30.2595V14.6993H14.4395Z" fill="white"/>
<path d="M16.0003 19.3151C20.1847 19.3151 23.5768 15.923 23.5768 11.7386C23.5768 7.55422 20.1847 4.16211 16.0003 4.16211C11.8159 4.16211 8.42383 7.55422 8.42383 11.7386C8.42383 15.923 11.8159 19.3151 16.0003 19.3151Z" fill="#B88C1D"/>
<path opacity="0.15" d="M15.9998 16.921C18.8619 16.921 21.1821 14.6008 21.1821 11.7386C21.1821 8.8765 18.8619 6.55627 15.9998 6.55627C13.1376 6.55627 10.8174 8.8765 10.8174 11.7386C10.8174 14.6008 13.1376 16.921 15.9998 16.921Z" fill="#2E2E2E"/>
<path opacity="0.1" d="M15.9998 6.55609C13.1376 6.55609 10.8174 8.87647 10.8174 11.7388C10.8174 14.601 13.1376 16.9213 15.9998 16.9213C18.862 16.9213 21.1823 14.601 21.1823 11.7388C21.1823 8.87647 18.862 6.55609 15.9998 6.55609ZM15.9998 15.8805C13.7124 15.8805 11.8581 14.0261 11.8581 11.7387C11.8581 9.45122 13.7124 7.5969 15.9998 7.5969C18.2873 7.5969 20.1414 9.45128 20.1414 11.7387C20.1414 14.0261 18.2873 15.8805 15.9998 15.8805Z" fill="#2E2E2E"/>
<g opacity="0.3">
<path d="M14.3328 13.7123C14.232 13.6259 14.1455 13.4747 14.1455 13.3163C14.1455 13.0282 14.3904 12.7833 14.6785 12.7833C14.8369 12.7833 14.9449 12.8481 15.0314 12.9201C15.3194 13.165 15.6219 13.2946 16.0181 13.2946C16.4357 13.2946 16.7311 13.057 16.7311 12.6825V12.6681C16.7311 12.2576 16.3637 12.0272 15.7444 12.0272H15.5715C15.3123 12.0272 15.0962 11.8111 15.0962 11.5519C15.0962 11.4006 15.1609 11.271 15.3338 11.0981L16.3133 10.1115H14.7649C14.5056 10.1115 14.2895 9.89545 14.2895 9.63614C14.2895 9.37683 14.5056 9.16083 14.7649 9.16083H17.2207C17.5449 9.16083 17.7824 9.34814 17.7824 9.65052C17.7824 9.9242 17.6529 10.0755 17.4511 10.2699L16.4646 11.2133C17.1488 11.3286 17.8185 11.6886 17.8185 12.6249V12.6393C17.8185 13.59 17.1271 14.2886 16.0036 14.2886C15.2834 14.2885 14.7433 14.0651 14.3328 13.7123Z" fill="#2E2E2E"/>
</g>
<path d="M28.0689 9.49644L26.8163 8.38294C25.7481 7.43363 24.6023 5.44894 24.3141 4.04919L23.9763 2.40757C23.7963 1.53294 23.2904 0.816504 22.5519 0.390066C21.8134 -0.0363085 20.94 -0.116184 20.0924 0.165191L18.5018 0.693379C17.1456 1.14375 14.8539 1.14375 13.4976 0.693379L11.907 0.165254C11.0596 -0.116121 10.1862 -0.0363085 9.44763 0.390066C8.70913 0.816504 8.2032 1.53294 8.02313 2.40757L7.68532 4.04919C7.39713 5.44894 6.25138 7.4335 5.18326 8.38294L3.93051 9.49644C3.26313 10.0897 2.89551 10.886 2.89551 11.7388C2.89551 12.5915 3.26307 13.3879 3.93051 13.9811L5.18326 15.0945C6.25138 16.0439 7.3972 18.0286 7.68532 19.4283L8.02319 21.0699C8.31976 22.5106 9.49476 23.465 10.8768 23.4767V31.4929C10.8768 31.6615 10.9606 31.819 11.1003 31.9133C11.24 32.0076 11.4175 32.0262 11.5738 31.9631L16 30.1759L20.4263 31.9631C20.4875 31.9878 20.5519 31.9999 20.6161 31.9999C20.7159 31.9999 20.8148 31.9705 20.8998 31.9132C21.0395 31.8189 21.1233 31.6614 21.1233 31.4929V23.4764C22.5046 23.464 23.6803 22.5086 23.9764 21.0699L24.3143 19.4283C24.6024 18.0285 25.7483 16.0438 26.8164 15.0944L28.0691 13.981C28.7364 13.3878 29.1041 12.5914 29.1041 11.7387C29.1039 10.8859 28.7363 10.0897 28.0689 9.49644ZM20.1089 30.7413L16.1898 29.1589C16.068 29.1097 15.9319 29.1097 15.8101 29.1589L11.8909 30.7413V18.6976C13.0958 19.4118 14.5008 19.8225 15.9999 19.8225C17.4991 19.8225 18.9041 19.4118 20.1089 18.6976V30.7413ZM15.9999 18.8083C12.1018 18.8083 8.93038 15.6369 8.93038 11.7388C8.93038 7.84057 12.1018 4.66919 15.9999 4.66919C19.898 4.66919 23.0694 7.84057 23.0694 11.7388C23.0694 15.6369 19.8981 18.8083 15.9999 18.8083ZM27.3952 13.2231L26.1425 14.3365C24.9172 15.4256 23.6513 17.6181 23.3208 19.2238L22.9829 20.8654C22.7882 21.8115 22.0238 22.443 21.1231 22.4609V17.9869C22.9294 16.5031 24.0836 14.2533 24.0836 11.7388C24.0836 7.28138 20.4573 3.655 15.9999 3.655C11.5426 3.655 7.91626 7.28132 7.91626 11.7388C7.91626 14.2533 9.07045 16.5032 10.8768 17.9869V22.4608C9.97582 22.4431 9.21151 21.8126 9.01657 20.8654L8.6787 19.2237C8.34813 17.6179 7.08238 15.4256 5.85707 14.3364L4.60432 13.2229C4.15638 12.8248 3.90976 12.2977 3.90976 11.7386C3.90976 11.1796 4.15638 10.6524 4.60432 10.2544L5.85707 9.14088C7.08238 8.05175 8.3482 5.85932 8.67876 4.25357L9.01657 2.61194C9.13745 2.025 9.47063 1.54782 9.95482 1.26825C10.4391 0.988816 11.0188 0.938754 11.5875 1.12763L13.1781 1.65582C14.7341 2.1725 17.2656 2.1725 18.8214 1.65582L20.4121 1.12763C20.9809 0.938879 21.5606 0.988691 22.0448 1.26832C22.529 1.54782 22.8622 2.025 22.983 2.61194L23.3209 4.25363C23.6514 5.85938 24.9173 8.05182 26.1426 9.14088L27.3953 10.2544C27.8431 10.6525 28.0898 11.1796 28.0898 11.7386C28.0898 12.2979 27.8431 12.8249 27.3952 13.2231ZM20.5752 8.35607L19.7601 8.95957C20.3588 9.76819 20.6753 10.7292 20.6753 11.7387C20.6753 14.3168 18.5778 16.4142 15.9999 16.4142C13.4219 16.4142 11.3245 14.3168 11.3245 11.7387C11.3245 9.16063 13.4219 7.06313 15.9999 7.06313C17.0411 7.06313 18.0265 7.398 18.8494 8.0315L19.468 7.22788C18.4662 6.45663 17.267 6.04894 15.9999 6.04894C12.8626 6.04894 10.3103 8.60132 10.3103 11.7387C10.3103 14.876 12.8626 17.4284 15.9999 17.4284C19.1371 17.4284 21.6894 14.876 21.6894 11.7387C21.6895 10.5104 21.3043 9.34069 20.5752 8.35607Z" fill="#1E252B"/>
<path d="M19.738 9.32889C20.3899 9.32889 20.9184 8.80042 20.9184 8.14852C20.9184 7.49661 20.3899 6.96814 19.738 6.96814C19.0861 6.96814 18.5576 7.49661 18.5576 8.14852C18.5576 8.80042 19.0861 9.32889 19.738 9.32889Z" fill="white"/>
</g>
<defs>
<clipPath id="clip0_14145_2927">
<rect width="32" height="32" fill="white"/>
</clipPath>
</defs>
</svg>
