<svg width="32" height="32" viewBox="0 0 32 32" fill="none" xmlns="http://www.w3.org/2000/svg">
<path d="M13.4939 1.14841C14.8721 1.95466 17.1274 1.95466 18.5056 1.14841L18.9978 0.860476C20.3759 0.0542889 21.8344 0.658351 22.2388 2.20304L22.3833 2.75479C22.7877 4.29948 24.3823 5.8941 25.9269 6.29848L26.4786 6.44298C28.0233 6.84741 28.6275 8.30585 27.8213 9.68404L27.5333 10.1762C26.7271 11.5545 26.7271 13.8097 27.5333 15.1879L27.8213 15.6802C28.6275 17.0583 28.0234 18.5169 26.4786 18.9212L25.9269 19.0657C24.3822 19.47 22.7876 21.0647 22.3833 22.6093L22.2388 23.1612C21.8344 24.7058 20.3759 25.3099 18.9978 24.5037L18.5056 24.2157C17.1274 23.4094 14.8721 23.4094 13.4939 24.2157L13.0016 24.5037C11.6234 25.3099 10.1649 24.7058 9.76049 23.1612L9.61605 22.6093C9.21162 21.0647 7.61693 19.47 6.07224 19.0657L5.52037 18.9212C3.97574 18.5168 3.37162 17.0583 4.17787 15.6802L4.46593 15.1877C5.27218 13.8096 5.27218 11.5544 4.46593 10.1762L4.17787 9.68392C3.37155 8.30573 3.97568 6.84729 5.52037 6.44291L6.07224 6.29841C7.61687 5.89398 9.21155 4.29935 9.61605 2.75473L9.76049 2.20298C10.1649 0.658289 11.6234 0.0542264 13.0016 0.860414L13.4939 1.14841Z" fill="#0071CE"/>
<path d="M14.0846 3.8685C15.1378 4.48469 16.8612 4.48469 17.9143 3.86844L18.2905 3.64844C19.3436 3.03225 20.4581 3.49394 20.7673 4.67431L20.8777 5.096C21.1867 6.27638 22.4053 7.495 23.5856 7.804L24.0073 7.91444C25.1877 8.2235 25.6494 9.338 25.0333 10.3912L24.8132 10.7673C24.1971 11.8206 24.1971 13.5439 24.8132 14.5972L25.0333 14.9734C25.6494 16.0266 25.1876 17.1411 24.0073 17.4501L23.5856 17.5606C22.4053 17.8696 21.1866 19.0881 20.8777 20.2686L20.7673 20.6903C20.4582 21.8706 19.3437 22.3323 18.2905 21.7161L17.9143 21.4961C16.8611 20.8799 15.1378 20.8799 14.0846 21.4961L13.7084 21.7161C12.6552 22.3323 11.5406 21.8706 11.2316 20.6903L11.1213 20.2686C10.8122 19.0881 9.59356 17.8696 8.41319 17.5606L7.9915 17.4501C6.81113 17.1411 6.34944 16.0266 6.96563 14.9734L7.18575 14.5971C7.80194 13.5439 7.80194 11.8206 7.18575 10.7674L6.96563 10.3911C6.34944 9.33794 6.81113 8.2235 7.9915 7.91444L8.41319 7.804C9.59356 7.495 10.8121 6.27638 11.1213 5.096L11.2316 4.67431C11.5406 3.49388 12.6552 3.03225 13.7084 3.64844L14.0846 3.8685Z" fill="white"/>
<path d="M20.3968 15.5022H11.6025V31.4991L15.9997 29.7238L20.3968 31.4991V15.5022Z" fill="#0071CE"/>
<path opacity="0.1" d="M15.9994 21.6684C20.2231 21.6684 23.6472 18.2444 23.6472 14.0206C23.6472 9.79685 20.2231 6.3728 15.9994 6.3728C11.7756 6.3728 8.35156 9.79685 8.35156 14.0206C8.35156 18.2444 11.7756 21.6684 15.9994 21.6684Z" fill="#2E2E2E"/>
<path d="M20.3968 15.5022H11.6025V31.4991L15.9997 29.7238L20.3968 31.4991V15.5022Z" fill="#D25459"/>
<path d="M14.5127 15.5022V30.3242L15.9998 29.7238L17.4869 30.3242V15.5022H14.5127Z" fill="white"/>
<path d="M15.9992 19.8991C19.9851 19.8991 23.2162 16.6679 23.2162 12.6821C23.2162 8.69625 19.9851 5.46509 15.9992 5.46509C12.0134 5.46509 8.78223 8.69625 8.78223 12.6821C8.78223 16.6679 12.0134 19.8991 15.9992 19.8991Z" fill="#C3C6C8"/>
<path opacity="0.15" d="M15.9991 17.6187C18.7255 17.6187 20.9358 15.4085 20.9358 12.6821C20.9358 9.95569 18.7255 7.74548 15.9991 7.74548C13.2727 7.74548 11.0625 9.95569 11.0625 12.6821C11.0625 15.4085 13.2727 17.6187 15.9991 17.6187Z" fill="#2E2E2E"/>
<path opacity="0.1" d="M15.9991 7.7453C13.2728 7.7453 11.0625 9.95555 11.0625 12.682C11.0625 15.4085 13.2728 17.6187 15.9991 17.6187C18.7256 17.6187 20.9358 15.4085 20.9358 12.682C20.9358 9.95555 18.7256 7.7453 15.9991 7.7453ZM15.9991 16.6274C13.8203 16.6274 12.0539 14.861 12.0539 12.6822C12.0539 10.5032 13.8203 8.73693 15.9991 8.73693C18.1781 8.73693 19.9443 10.5033 19.9443 12.6822C19.9443 14.861 18.178 16.6274 15.9991 16.6274Z" fill="#2E2E2E"/>
<g opacity="0.3">
<path d="M14.4325 13.8659L15.7977 12.7477C16.3945 12.2607 16.6278 11.9932 16.6278 11.5953C16.6278 11.1905 16.3603 10.971 15.983 10.971C15.6811 10.971 15.4685 11.1014 15.201 11.3894C15.1323 11.4649 15.0088 11.5404 14.8442 11.5404C14.5767 11.5404 14.364 11.3277 14.364 11.0602C14.364 10.9435 14.412 10.82 14.4875 10.7309C14.8717 10.2849 15.3245 10.0242 16.0516 10.0242C17.0463 10.0242 17.7049 10.6074 17.7049 11.506V11.5197C17.7049 12.3224 17.2933 12.7203 16.4426 13.3788L15.6606 13.9825H17.3345C17.5883 13.9825 17.7941 14.1883 17.7941 14.4421C17.7941 14.6959 17.5883 14.8949 17.3345 14.8949H14.7276C14.3983 14.8949 14.1582 14.7097 14.1582 14.3941C14.1581 14.1884 14.2541 14.01 14.4325 13.8659Z" fill="#2E2E2E"/>
</g>
<path d="M20.3624 9.43605L19.559 10.0347C20.1323 10.8041 20.4352 11.7196 20.4352 12.6822C20.4352 15.1281 18.4454 17.1179 15.9995 17.1179C13.5537 17.1179 11.5638 15.1281 11.5638 12.6822C11.5638 10.2363 13.5536 8.24637 15.9995 8.24637C16.9761 8.24637 17.9022 8.55743 18.6777 9.14587L19.2833 8.34768C18.3321 7.62593 17.1965 7.24443 15.9994 7.24443C13.0011 7.24443 10.5619 9.6838 10.5619 12.6821C10.5619 15.6804 13.0012 18.1197 15.9994 18.1197C18.9978 18.1197 21.4371 15.6804 21.4371 12.6821C21.4371 11.5022 21.0654 10.3797 20.3624 9.43605ZM27.9656 14.9351C27.2512 13.7139 27.2512 11.6504 27.9656 10.4293L28.2535 9.93705C28.7244 9.13193 28.8099 8.2688 28.4942 7.50662C28.1785 6.74443 27.5077 6.19455 26.6054 5.95837L26.0537 5.81387C24.685 5.45549 23.226 3.99655 22.8678 2.62787L22.7233 2.07612C22.4871 1.17387 21.9373 0.503053 21.1751 0.187365C20.4129 -0.128322 19.5499 -0.0428221 18.7447 0.428115L18.2525 0.716115C17.0312 1.43062 14.9679 1.43055 13.7467 0.716115L13.2544 0.428115C12.4493 -0.0428221 11.5863 -0.128385 10.824 0.187365C10.0618 0.503115 9.512 1.17387 9.27575 2.07612L9.13131 2.6278C8.77294 3.99649 7.31394 5.45543 5.94525 5.8138L5.39338 5.9583C4.49106 6.19455 3.82025 6.74437 3.50463 7.50655C3.189 8.26874 3.27444 9.13187 3.7455 9.93687L4.03356 10.4292C4.748 11.6504 4.748 13.7137 4.03356 14.9348L3.7455 15.4272C3.27456 16.2322 3.189 17.0954 3.50469 17.8575C3.82044 18.6197 4.49119 19.1695 5.39344 19.4057L5.94531 19.5502C7.31394 19.9085 8.77294 21.3675 9.13131 22.7361L9.27581 23.288C9.54144 24.3025 10.2216 25.0281 11.1015 25.2721V31.499C11.1015 31.6655 11.1842 31.8211 11.3222 31.9142C11.4603 32.0074 11.6356 32.0258 11.79 31.9635L15.9994 30.2639L20.209 31.9636C20.2695 31.988 20.3331 31.9999 20.3966 31.9999C20.495 31.9999 20.5928 31.9709 20.6768 31.9142C20.8148 31.8211 20.8975 31.6655 20.8975 31.499V25.2721C21.7774 25.0282 22.4577 24.3026 22.7233 23.2879L22.8678 22.7361C23.2261 21.3674 24.6851 19.9085 26.0538 19.5502L26.6054 19.4057C27.5078 19.1695 28.1786 18.6197 28.4943 17.8574C28.8101 17.0952 28.7246 16.2321 28.2536 15.4271L27.9656 14.9351ZM19.8957 30.7566L16.1871 29.2592C16.0667 29.2106 15.9323 29.2106 15.8119 29.2592L12.1034 30.7566V19.3422C13.2477 20.0142 14.5793 20.4002 15.9995 20.4002C17.4198 20.4002 18.7514 20.0142 19.8957 19.3421V30.7566ZM15.9995 19.3983C12.2961 19.3983 9.28331 16.3854 9.28331 12.6821C9.28331 8.9788 12.2962 5.96587 15.9995 5.96587C19.7028 5.96587 22.7157 8.97874 22.7157 12.6821C22.7157 16.3855 19.7028 19.3983 15.9995 19.3983ZM27.5686 17.4742C27.3757 17.94 26.9435 18.2817 26.3516 18.4367L25.7999 18.5812C24.0661 19.0351 22.3524 20.7488 21.8986 22.4826L21.7541 23.0344C21.6102 23.5839 21.304 23.9912 20.8975 24.2009V18.6424C22.6184 17.2257 23.7175 15.0799 23.7175 12.6821C23.7175 8.4263 20.2551 4.96393 15.9994 4.96393C11.7436 4.96393 8.28125 8.4263 8.28125 12.6821C8.28125 15.0799 9.38044 17.2257 11.1013 18.6424V24.2007C10.6949 23.991 10.3887 23.5837 10.2449 23.0343L10.1004 22.4824C9.64638 20.7486 7.93263 19.0349 6.19888 18.5811L5.647 18.4366C5.05519 18.2816 4.623 17.9398 4.43006 17.4741C4.23719 17.0084 4.30106 16.4612 4.61 15.9331L4.89806 15.4407C5.80306 13.8937 5.80313 11.4702 4.898 9.92324L4.60994 9.43093C4.301 8.90287 4.23713 8.35562 4.43 7.88993C4.62288 7.42424 5.05506 7.08243 5.64694 6.92743L6.19881 6.78293C7.93256 6.32899 9.64638 4.6153 10.1003 2.88149L10.2448 2.3298C10.3997 1.73793 10.7416 1.3058 11.2073 1.11287C11.673 0.91999 12.2203 0.983865 12.7484 1.29274L13.2407 1.58074C14.7876 2.4858 17.2113 2.4858 18.7582 1.58074L19.2504 1.29274C19.7784 0.983865 20.3257 0.919928 20.7914 1.11287C21.2571 1.30574 21.5989 1.73793 21.7539 2.3298L21.8984 2.88155C22.3523 4.61537 24.066 6.32905 25.7998 6.78299L26.3515 6.92749C26.9434 7.08243 27.3756 7.4243 27.5685 7.88999C27.7614 8.35568 27.6976 8.90299 27.3886 9.43099L27.1007 9.92324C26.1957 11.4702 26.1957 13.8939 27.1007 15.4409L27.3886 15.9331C27.6977 16.4612 27.7615 17.0086 27.5686 17.4742Z" fill="#1E252B"/>
<path d="M19.5609 10.3866C20.1819 10.3866 20.6853 9.88317 20.6853 9.26219C20.6853 8.64122 20.1819 8.13782 19.5609 8.13782C18.9399 8.13782 18.4365 8.64122 18.4365 9.26219C18.4365 9.88317 18.9399 10.3866 19.5609 10.3866Z" fill="white"/>
</svg>
