<svg width="96" height="96" viewBox="0 0 96 96" fill="none" xmlns="http://www.w3.org/2000/svg">
<g clip-path="url(#clip0_14145_3545)">
<path d="M94.4461 47.9999C94.4461 73.6724 73.6428 94.4841 47.9809 94.4841C22.3191 94.4841 1.51562 73.6724 1.51562 47.9999C1.51562 22.3274 22.3187 1.51562 47.9809 1.51562C73.6431 1.51562 94.4461 22.3274 94.4461 47.9999Z" fill="#AFF2D8"/>
<path d="M94.485 47.9999C94.485 73.6724 73.6818 94.4841 48.0198 94.4841C44.7408 94.4841 41.5419 94.1423 38.4551 93.496C63.7586 93.0809 84.144 72.4345 84.144 47.0217C84.144 24.6295 68.3167 5.93725 47.2436 1.52556C47.5021 1.52125 47.7603 1.51562 48.0198 1.51562C73.6818 1.51562 94.485 22.3272 94.485 47.9999Z" fill="#A1E2CD"/>
<path d="M94.4461 48.0001C94.4461 60.4589 89.5463 71.7723 81.5697 80.1183L47.2056 47.1725C46.4103 46.4101 45.9608 45.356 45.9608 44.254V36.2738C45.9608 36.0076 45.9346 35.7421 45.8824 35.4813L44.3648 27.8898C44.0999 26.5645 44.5146 25.1945 45.4697 24.239L48.8179 20.8893C49.5756 20.1314 50.6033 19.7056 51.6749 19.7056H57.6053C59.1357 19.7056 60.5348 18.8407 61.2192 17.4712L63.0261 13.8558C63.7105 12.4863 65.1096 11.6213 66.64 11.6213H76.9049C87.5935 20.1376 94.4461 33.2675 94.4461 48.0001ZM22.8372 60.1265H27.7788C30.0102 60.1265 31.8192 58.3169 31.8192 56.0843V54.5405C31.8192 53.0093 30.9546 51.6097 29.5857 50.9251L25.9718 49.1174C24.6029 48.4327 23.7383 47.0331 23.7383 45.502V42.3372C23.7383 42.071 23.7646 41.8055 23.8167 41.5447L25.4303 33.4735C25.6405 32.4224 25.4247 31.3306 24.8303 30.4387L22.9176 27.5686C22.1682 26.4442 20.9067 25.7686 19.5557 25.7686H16.6111C15.9837 25.7686 15.3651 25.9147 14.8043 26.1952L12.4699 27.3627C11.9089 27.6434 11.2902 27.7893 10.6632 27.7893H6.12625C3.17238 33.9008 1.51562 40.7568 1.51562 48.0001C1.51562 55.5723 3.32669 62.7211 6.53725 69.0381C6.90944 68.9433 7.27863 68.7935 7.63488 68.5795L20.7582 60.7023C21.3863 60.3254 22.1048 60.1265 22.8372 60.1265ZM42.9001 83.6136L40.2314 82.9463C38.7837 82.5841 37.6534 81.4535 37.2916 80.0052L36.7431 77.8105C36.2408 75.8011 34.3015 74.4967 32.2519 74.7895L22.0019 76.2545C21.8125 76.2815 21.6216 76.2952 21.4306 76.2952H11.1166C18.7114 86.1835 30.1894 92.9309 43.2711 94.2483C44.8375 93.6916 45.961 92.2004 45.961 90.4424V87.5354C45.9606 85.6803 44.6989 84.0636 42.9001 83.6136Z" fill="#8EC155"/>
<path d="M94.4473 47.9998C94.4473 60.4586 89.5475 71.772 81.5709 80.1182L75.3845 74.1872C80.8951 66.5458 84.1439 57.1638 84.1439 47.0216C84.1439 32.8417 77.7954 20.147 67.7891 11.6208H76.9059C87.5947 20.1373 94.4473 33.2672 94.4473 47.9998Z" fill="#84AB4F"/>
<path d="M88.6646 78.4813L85.3264 78.6011L87.9566 80.6609C91.1018 83.1239 91.0159 87.9136 87.7845 90.2624L83.56 93.3329C80.3288 95.6816 75.7485 94.2832 74.3792 90.5298L73.2336 87.3907L72.0881 90.5298C70.7185 94.2834 66.1386 95.6818 62.9074 93.3329L58.6825 90.2624C55.4513 87.9138 55.3654 83.1241 58.5103 80.6609L61.1406 78.6011L57.8023 78.4813C53.8108 78.338 51.066 74.4125 52.3001 70.6123L53.9138 65.6439C55.1481 61.8436 59.6749 60.2818 62.9882 62.513L65.7593 64.379L64.8416 61.166C63.7444 57.3239 66.628 53.4995 70.6221 53.4995H75.8441C79.8383 53.4995 82.722 57.3239 81.6246 61.166L80.7068 64.379L83.4778 62.513C86.7911 60.2818 91.3181 61.8436 92.5523 65.6439L94.1659 70.6123C95.4008 74.4125 92.6561 78.338 88.6646 78.4813Z" fill="#FF98B1"/>
<path d="M88.6648 78.4812L85.3266 78.601L87.9568 80.6609C91.1019 83.1239 91.0161 87.9136 87.7849 90.2624L83.5603 93.3329C80.3291 95.6815 75.7489 94.2831 74.3796 90.5297L73.2341 87.3906L72.0885 90.5297C70.7188 94.2833 66.1389 95.6817 62.9077 93.3329L58.6828 90.2624C58.2101 89.9189 57.8066 89.5219 57.4688 89.0886C68.0336 84.0936 76.413 75.2326 80.7829 64.3287L83.4788 62.5131C86.7921 60.2819 91.3191 61.8437 92.5532 65.644L94.1668 70.6124C95.4009 74.4124 92.6563 78.3379 88.6648 78.4812Z" fill="#FF728D"/>
<path d="M85.3407 74.67C85.3407 81.3593 79.9203 86.782 73.2338 86.782C66.5474 86.782 61.127 81.3593 61.127 74.67C61.127 67.9808 66.5474 62.5581 73.2338 62.5581C79.9203 62.5581 85.3407 67.981 85.3407 74.67Z" fill="#FFC4BC"/>
<path d="M79.2801 74.6703C79.2801 78.011 76.5732 80.7191 73.2338 80.7191C69.8946 80.7191 67.1875 78.0108 67.1875 74.6703C67.1875 71.3296 69.8944 68.6216 73.2338 68.6216C76.573 68.6218 79.2801 71.3298 79.2801 74.6703Z" fill="#FFF2D8"/>
<path d="M73.2514 82.2324C77.4208 82.2324 80.8131 78.8391 80.8131 74.6679C80.8131 70.4968 77.4208 67.1036 73.2514 67.1036C69.0818 67.1036 65.6895 70.497 65.6895 74.6679C65.6895 78.8389 69.0818 82.2324 73.2514 82.2324ZM73.2514 70.1349C75.7494 70.1349 77.7818 72.1684 77.7818 74.6677C77.7818 77.1673 75.7496 79.2007 73.2514 79.2007C70.7533 79.2007 68.7208 77.1673 68.7208 74.6677C68.721 72.1686 70.7535 70.1349 73.2514 70.1349ZM53.7604 71.0784C53.1879 72.8408 53.7413 74.748 55.1696 75.9368C55.8131 76.4721 55.9005 77.4281 55.365 78.0714C55.0652 78.4316 54.6338 78.6174 54.1993 78.6174C53.8575 78.6174 53.5136 78.5027 53.2305 78.2668C50.8433 76.2799 49.9196 73.0907 50.8774 70.1421L52.491 65.1737C53.2275 62.9055 54.9429 61.1588 57.1969 60.3816C59.4499 59.6048 61.8765 59.9226 63.8537 61.254L66.6248 63.1196C67.3193 63.5871 67.5032 64.5291 67.0356 65.2236C66.5683 65.9181 65.6263 66.1022 64.9316 65.6344L62.1604 63.7684C60.9791 62.9734 59.5305 62.7838 58.185 63.2473C56.8388 63.7116 55.8143 64.755 55.3742 66.1099L53.7604 71.0784ZM92.4366 34.3543C93.2451 34.1355 94.077 34.6133 94.2958 35.4212C95.4004 39.5014 95.9604 43.7329 95.9604 47.9983C95.9604 51.5591 95.5688 55.1107 94.7959 58.5549C94.6376 59.2601 94.0119 59.7392 93.3184 59.7392C93.2085 59.7392 93.0969 59.727 92.9854 59.7021C92.1684 59.5187 91.6549 58.7079 91.8381 57.8912C92.562 54.6645 92.9291 51.3358 92.9291 47.9981C92.9291 43.9999 92.4045 40.035 91.3699 36.213C91.1507 35.4054 91.6284 34.5729 92.4366 34.3543ZM23.7023 8.32894C23.2877 7.60163 23.5416 6.67613 24.2689 6.26156C31.4588 2.16544 39.6579 0 47.9801 0C67.2893 0 84.6362 11.4923 92.1735 29.2779C92.5001 30.0487 92.1401 30.9384 91.3695 31.2651C90.5994 31.5922 89.709 31.2319 89.3824 30.4611C86.4578 23.5596 81.9559 17.6691 76.4004 13.1366H66.639C65.6766 13.1366 64.8114 13.6716 64.3809 14.5329L62.5742 18.1479C61.6269 20.0432 59.7225 21.2205 57.6045 21.2205H51.6744C51.0002 21.2205 50.3661 21.4832 49.8893 21.9602L46.5414 25.3095C45.9428 25.9084 45.6848 26.7615 45.8507 27.5921L47.3685 35.1831C47.4401 35.5416 47.4763 35.9081 47.4763 36.273V44.253C47.4763 44.9383 47.7598 45.6028 48.2544 46.077L57.1103 54.567C57.7146 55.1464 57.7348 56.1058 57.1554 56.7101C56.8577 57.0206 56.4598 57.177 56.061 57.177C55.6839 57.177 55.3061 57.0371 55.0123 56.7553L46.1565 48.2653C45.0688 47.2224 44.4448 45.7599 44.4448 44.253V36.273C44.4448 36.1069 44.4283 35.94 44.3957 35.7769L42.8781 28.1865C42.513 26.3601 43.0811 24.4836 44.3974 23.1667L47.7454 19.8172C48.795 18.7673 50.1902 18.1894 51.6744 18.1894H57.6043C58.5668 18.1894 59.4319 17.6544 59.8624 16.7931L61.6691 13.1781C62.6164 11.2828 64.5208 10.1055 66.6388 10.1055H72.2136C65.1328 5.57569 56.7744 3.03188 47.9801 3.03188C40.1833 3.03188 32.5029 5.05969 25.7698 8.89594C25.0423 9.30994 24.1168 9.05587 23.7023 8.32894ZM91.5623 83.5222C92.3295 86.5359 91.2036 89.6616 88.6933 91.4857L84.4688 94.5562C83.1596 95.508 81.6264 96.0002 80.0634 96.0002C79.3247 96.0002 78.5794 95.8903 77.8476 95.6672C75.5672 94.9714 73.7904 93.2873 72.9728 91.0468L71.8275 87.9075C71.5404 87.1211 71.9454 86.2511 72.732 85.9641C73.5178 85.677 74.3884 86.0822 74.6754 86.8686L75.8207 90.0077C76.3089 91.3461 77.3702 92.352 78.7324 92.7677C80.0942 93.1834 81.5348 92.9413 82.6864 92.1043L86.9109 89.0338C88.4109 87.9437 89.0833 86.0739 88.6239 84.2704C88.4175 83.4591 88.9076 82.6341 89.7189 82.4274C90.5308 82.2217 91.3556 82.7107 91.5623 83.5222ZM94.6339 76.7861C93.2674 78.7393 91.1181 79.9084 88.7364 79.9939L85.3982 80.1137C85.3798 80.1143 85.3613 80.1146 85.3431 80.1146C84.5312 80.1146 83.8586 79.4715 83.8294 78.6533C83.7994 77.8168 84.4532 77.1143 85.2898 77.0843L88.6281 76.9644C90.0503 76.9132 91.3339 76.215 92.1499 75.0488C92.9666 73.8812 93.1826 72.4342 92.7426 71.0788L91.1289 66.1104C90.5749 64.4049 89.0601 63.1918 87.2696 63.0199C86.4364 62.9398 85.8257 62.1996 85.9056 61.3663C85.9854 60.5331 86.7251 59.9227 87.5591 60.0023C90.5518 60.2897 93.0849 62.3196 94.0119 65.1741L95.6256 70.1424C96.3626 72.4104 96.0009 74.8322 94.6339 76.7861ZM80.7259 65.8933C80.5879 65.8933 80.448 65.8744 80.3089 65.8346C79.5039 65.6046 79.0376 64.7657 79.2677 63.9609L80.1855 60.7479C80.5768 59.3777 80.3093 57.9396 79.4511 56.802C78.5938 55.6656 77.2856 55.0138 75.8625 55.0138H70.6406C68.7231 55.0138 67.0127 56.2356 66.3846 58.0541C66.1112 58.8452 65.2487 59.2658 64.4569 58.9916C63.6656 58.7183 63.2458 57.8554 63.5192 57.0639C64.5692 54.0242 67.4312 51.9821 70.6408 51.9821H75.8627C78.2456 51.9821 80.4358 53.0734 81.8713 54.9761C83.3074 56.88 83.7555 59.2868 83.1008 61.5803L82.1829 64.7933C81.9924 65.4593 81.3855 65.8933 80.7259 65.8933ZM55.3644 92.3619C52.5784 92.8226 49.7027 93.0212 46.8716 92.9524C47.2603 92.1892 47.4756 91.3318 47.4756 90.4397V87.5329C47.4756 84.9778 45.7451 82.7606 43.2673 82.1411L40.5984 81.4734C39.6921 81.2469 38.988 80.5427 38.7615 79.6357L38.2131 77.4411C37.5203 74.6689 34.8666 72.8824 32.0368 73.287L21.7871 74.7519C21.6694 74.769 21.5492 74.7774 21.4301 74.7774H11.8914C10.7008 73.176 9.61575 71.4952 8.64319 69.741L21.5379 62.001C21.9304 61.7655 22.3796 61.641 22.8371 61.641H27.7787C30.8424 61.641 33.3347 59.1478 33.3347 56.0833V54.5394C33.3347 52.4211 32.1579 50.5161 30.2636 49.5686L26.6496 47.7609C25.7886 47.3302 25.2538 46.4644 25.2538 45.5014V42.3366C25.2538 42.1704 25.2703 42.0039 25.3029 41.841L26.9164 33.7702C27.2074 32.3147 26.9143 30.8329 26.0912 29.5976L24.1787 26.7279C23.1461 25.1781 21.4178 24.2526 19.5553 24.2526H16.611C15.7526 24.2526 14.8933 24.4554 14.1257 24.8394L11.7915 26.0068C11.4429 26.1812 11.0526 26.2734 10.6626 26.2734H8.58094C11.5871 20.8279 15.7513 15.9958 20.916 12.0932C21.5839 11.5884 21.7163 10.638 21.2115 9.97013C20.7071 9.30244 19.7567 9.16931 19.0884 9.67463C13.2893 14.0565 8.48588 19.788 5.19694 26.2496C1.74862 33.0253 0 40.3427 0 47.9987C0 60.8194 4.99087 72.8728 14.0528 81.9384C23.1152 91.0042 35.1641 95.997 47.9801 95.997C50.622 95.997 53.2729 95.7804 55.8593 95.3528C56.685 95.2161 57.2439 94.4361 57.1074 93.6099C56.9704 92.7842 56.1902 92.2262 55.3644 92.3619ZM3.0315 47.9987C3.0315 41.4114 4.42838 35.0689 7.05619 29.3046H10.6628C11.5211 29.3046 12.3804 29.1017 13.1481 28.7179L15.4823 27.5503C15.8308 27.3759 16.2212 27.2837 16.6112 27.2837H19.5555C20.4013 27.2837 21.1868 27.7041 21.6557 28.4083L23.5684 31.2782C23.9426 31.8398 24.0759 32.5134 23.9436 33.1751L22.3303 41.2453C22.2585 41.6033 22.2221 41.9702 22.2221 42.3356V45.5004C22.2221 47.6192 23.3991 49.524 25.2934 50.4714L28.9073 52.2791C29.7683 52.7098 30.303 53.5755 30.303 54.5385V56.0824C30.303 57.4753 29.1707 58.6087 27.7785 58.6087H22.8369C21.8304 58.6087 20.8418 58.8823 19.9779 59.4007L7.26038 67.0342C4.54819 61.2508 3.0315 54.798 3.0315 47.9987ZM44.4443 90.4393C44.4443 91.4008 43.8932 92.2731 43.0453 92.6964C31.6753 91.449 21.5674 85.9406 14.3548 77.8082H21.4305C21.6926 77.8082 21.9568 77.7894 22.2165 77.7523L32.466 76.2874C33.7515 76.104 34.9573 76.9153 35.2723 78.1753L35.8208 80.3698C36.3193 82.3656 37.8683 83.9149 39.8633 84.4138L42.5321 85.0815C43.6581 85.3631 44.4444 86.3709 44.4444 87.5325V90.4393H44.4443ZM70.431 93.2306C70.7927 93.9855 70.4739 94.8909 69.7191 95.2524C68.6809 95.7499 67.5664 95.9948 66.4579 95.9948C64.8953 95.9948 63.3441 95.5082 62.0342 94.5562L57.8098 91.4857C55.8816 90.0846 54.7513 87.9135 54.7086 85.5294C54.6656 83.1454 55.7177 80.9349 57.5946 79.4653L60.2246 77.4056C60.8839 76.8891 61.8364 77.0053 62.3526 77.6644C62.8688 78.3234 62.7527 79.2759 62.0936 79.7921L59.4636 81.8518C58.3423 82.7302 57.714 84.0508 57.7397 85.4753C57.7652 86.8995 58.4404 88.1964 59.5922 89.0336L63.8168 92.1041C65.1544 93.0761 66.9141 93.2349 68.4096 92.5187C69.1637 92.157 70.0695 92.4756 70.431 93.2306Z" fill="black"/>
</g>
<defs>
<clipPath id="clip0_14145_3545">
<rect width="96" height="96" fill="white"/>
</clipPath>
</defs>
</svg>
