<svg width="227" height="180" viewBox="0 0 227 180" fill="none" xmlns="http://www.w3.org/2000/svg">
<g clip-path="url(#clip0_12403_37186)">
<mask id="mask0_12403_37186" style="mask-type:luminance" maskUnits="userSpaceOnUse" x="-15" y="0" width="250" height="249">
<path d="M234.496 0H-14.467V248.963H234.496V0Z" fill="white"/>
</mask>
<g mask="url(#mask0_12403_37186)">
<path style="mix-blend-mode:overlay" opacity="0.43" d="M188.182 174.662H34.341L91.8441 50.2095H130.679L188.182 174.662Z" fill="url(#paint0_linear_12403_37186)"/>
<path d="M30.9844 139.861L32.9343 130.568L43.1835 128.245" stroke="#283035" stroke-width="1.9917" stroke-linecap="round" stroke-linejoin="round"/>
<path d="M23.7381 175.465H35.9622C36.3861 175.466 36.7957 175.311 37.1139 175.031C37.4323 174.75 37.6374 174.364 37.691 173.943L40.9561 148.325H18.7451L22.0105 173.943C22.0641 174.364 22.269 174.75 22.5871 175.03C22.9051 175.311 23.3144 175.465 23.7381 175.465Z" fill="#EAD57D"/>
<path d="M22.143 148.325L24.7337 171.985C24.787 172.472 25.018 172.922 25.3827 173.249C25.7472 173.575 26.2195 173.756 26.7092 173.756H37.7161L37.6925 173.943C37.6389 174.364 37.4338 174.75 37.1154 175.031C36.7972 175.311 36.3876 175.465 35.9637 175.465H23.7396C23.3156 175.465 22.9061 175.311 22.5879 175.03C22.2697 174.75 22.0646 174.364 22.011 173.943L18.7451 148.325H22.143Z" fill="#E5C66E"/>
<path d="M23.7381 175.465H35.9622C36.3861 175.466 36.7957 175.311 37.1139 175.031C37.4323 174.75 37.6374 174.364 37.691 173.943L40.9561 148.325H18.7451L22.0105 173.943C22.0641 174.364 22.269 174.75 22.5871 175.03C22.9051 175.311 23.3144 175.465 23.7381 175.465Z" stroke="#283035" stroke-width="1.49378" stroke-linecap="round" stroke-linejoin="round"/>
<path d="M40.1185 168.091L41.6977 155.7H18.0031L19.5823 168.091H40.1185Z" fill="#5CBF84"/>
<path d="M40.1185 168.091L41.6977 155.7H18.0031L19.5823 168.091H40.1185Z" fill="#4FB277"/>
<path d="M40.0206 166.659L41.3448 155.7H21.4756L22.6955 165.789C22.7246 166.029 22.8404 166.25 23.0211 166.41C23.2019 166.57 23.4352 166.659 23.6767 166.659H40.0206Z" fill="#5CBF84"/>
<path d="M40.1185 168.091L41.6977 155.7H18.0031L19.5823 168.091H40.1185Z" stroke="#283035" stroke-width="1.49378" stroke-linecap="round" stroke-linejoin="round"/>
<path d="M17.3181 148.325H42.3832C43.8956 148.325 45.1218 147.099 45.1218 145.587C45.1218 144.074 43.8956 142.848 42.3832 142.848H17.3181C15.8057 142.848 14.5795 144.074 14.5795 145.587C14.5795 147.099 15.8057 148.325 17.3181 148.325Z" fill="#5CBF84"/>
<path d="M17.3181 148.325H42.3832C43.8956 148.325 45.1218 147.099 45.1218 145.587C45.1218 144.074 43.8956 142.848 42.3832 142.848H17.3181C15.8057 142.848 14.5795 144.074 14.5795 145.587C14.5795 147.099 15.8057 148.325 17.3181 148.325Z" fill="#4FB277"/>
<path d="M20.1504 147.143H42.9743C44.1602 147.143 45.1216 146.181 45.1216 144.995C45.1216 143.81 44.1602 142.848 42.9743 142.848H20.1504C18.9644 142.848 18.0031 143.81 18.0031 144.995C18.0031 146.181 18.9644 147.143 20.1504 147.143Z" fill="#5CBF84"/>
<path d="M17.3181 148.325H42.3832C43.8956 148.325 45.1218 147.099 45.1218 145.587C45.1218 144.074 43.8956 142.848 42.3832 142.848H17.3181C15.8057 142.848 14.5795 144.074 14.5795 145.587C14.5795 147.099 15.8057 148.325 17.3181 148.325Z" stroke="#283035" stroke-width="1.49378" stroke-linecap="round" stroke-linejoin="round"/>
<path d="M19.8917 142.848H39.8087L39.4146 139.861H20.286L19.8917 142.848Z" fill="#5CBF84"/>
<path d="M20.286 139.861H26.1297L24.7464 142.848H19.8917L20.286 139.861Z" fill="#54AF79"/>
<path d="M19.8917 142.848H39.8087L39.4146 139.861H20.286L19.8917 142.848Z" stroke="#283035" stroke-width="1.49378" stroke-linecap="round" stroke-linejoin="round"/>
<path d="M62.8863 108.511H146.98C148.11 108.511 149.194 108.96 149.993 109.759C150.792 110.557 151.241 111.641 151.241 112.771V168.262H58.6268V112.771C58.6268 111.641 59.0756 110.558 59.8743 109.759C60.673 108.96 61.7565 108.511 62.8863 108.511Z" fill="#D2DCE6"/>
<path d="M62.8863 108.511H146.98C148.11 108.511 149.194 108.96 149.993 109.759C150.792 110.557 151.241 111.641 151.241 112.771V168.262H58.6268V112.771C58.6268 111.641 59.0756 110.558 59.8743 109.759C60.673 108.96 61.7565 108.511 62.8863 108.511Z" stroke="#283035" stroke-width="1.49378" stroke-linecap="round" stroke-linejoin="round"/>
<path d="M144.27 161.362V115.553H65.598V161.362H144.27Z" fill="#FF5C5C"/>
<path opacity="0.3" d="M111.262 154.053H124.208" stroke="white" stroke-width="1.49378" stroke-linecap="round" stroke-linejoin="round"/>
<g opacity="0.3">
<path opacity="0.3" d="M142.823 139.814C143.072 139.798 143.319 139.867 143.525 140.009C143.73 140.151 143.882 140.358 143.955 140.596V137.744C143.682 137.665 143.399 137.623 143.114 137.622H142.823C142.197 137.622 141.884 137.935 141.884 138.561V138.896C141.884 139.501 142.197 139.814 142.823 139.814Z" fill="white"/>
<path opacity="0.3" d="M143.955 153.484C143.88 153.721 143.728 153.927 143.523 154.067C143.318 154.208 143.071 154.276 142.823 154.261C142.197 154.261 141.883 154.573 141.884 155.2V155.535C141.884 156.161 142.197 156.474 142.823 156.475H143.114C143.398 156.473 143.682 156.432 143.955 156.352V153.484Z" fill="white"/>
</g>
<path d="M144.27 161.362V115.553H65.598V161.362H144.27Z" stroke="#283035" stroke-width="1.49378" stroke-linecap="round" stroke-linejoin="round"/>
<path d="M48.4075 168.299H161.461C161.726 168.299 161.979 168.403 162.166 168.59C162.353 168.777 162.457 169.03 162.457 169.294V170.487C162.457 171.808 161.933 173.074 160.999 174.008C160.065 174.942 158.799 175.466 157.478 175.466H52.3909C51.0704 175.466 49.804 174.942 48.8701 174.008C47.9362 173.074 47.4117 171.808 47.4117 170.487V169.294C47.4117 169.03 47.5165 168.777 47.7035 168.59C47.8902 168.403 48.1434 168.299 48.4075 168.299Z" fill="#E5E5E5"/>
<path d="M157.477 173.225H52.3899C51.1959 173.224 50.042 172.794 49.1387 172.013C48.2355 171.232 47.6435 170.152 47.4702 168.971C47.4326 169.075 47.4129 169.184 47.4117 169.295V170.488C47.4117 171.808 47.9362 173.075 48.8701 174.008C49.804 174.942 51.0704 175.467 52.3909 175.467H157.478C158.799 175.467 160.065 174.942 160.999 174.008C161.933 173.075 162.457 171.808 162.457 170.488V169.295C162.456 169.184 162.436 169.075 162.399 168.971C162.226 170.153 161.633 171.233 160.73 172.014C159.826 172.795 158.671 173.225 157.477 173.225Z" fill="#CFD1D0"/>
<path d="M48.4075 168.299H161.461C161.726 168.299 161.979 168.403 162.166 168.59C162.353 168.777 162.457 169.03 162.457 169.294V170.487C162.457 171.808 161.933 173.074 160.999 174.008C160.065 174.942 158.799 175.466 157.478 175.466H52.3909C51.0704 175.466 49.804 174.942 48.8701 174.008C47.9362 173.074 47.4117 171.808 47.4117 170.487V169.294C47.4117 169.03 47.5165 168.777 47.7035 168.59C47.8902 168.403 48.1434 168.299 48.4075 168.299Z" stroke="#283035" stroke-width="1.49378" stroke-linecap="round" stroke-linejoin="round"/>
<path d="M94.4778 168.262H115.391C115.391 168.79 115.181 169.297 114.807 169.67C114.434 170.044 113.927 170.254 113.399 170.254H96.4695C95.9412 170.254 95.4345 170.044 95.0611 169.67C94.6877 169.297 94.4778 168.79 94.4778 168.262Z" fill="#686B6D"/>
<path d="M94.4778 168.262H115.391C115.391 168.79 115.181 169.297 114.807 169.67C114.434 170.044 113.927 170.254 113.399 170.254H96.4695C95.9412 170.254 95.4345 170.044 95.0611 169.67C94.6877 169.297 94.4778 168.79 94.4778 168.262Z" stroke="#283035" stroke-width="0.995851" stroke-linecap="round" stroke-linejoin="round"/>
<path d="M104.738 113.93C105.838 113.93 106.729 113.039 106.729 111.939C106.729 110.839 105.838 109.947 104.738 109.947C103.638 109.947 102.746 110.839 102.746 111.939C102.746 113.039 103.638 113.93 104.738 113.93Z" fill="#686B6D"/>
<path d="M104.738 113.93C105.838 113.93 106.729 113.039 106.729 111.939C106.729 110.839 105.838 109.947 104.738 109.947C103.638 109.947 102.746 110.839 102.746 111.939C102.746 113.039 103.638 113.93 104.738 113.93Z" stroke="#283035" stroke-width="0.995851" stroke-linecap="round" stroke-linejoin="round"/>
<path d="M165.069 175.49C165.08 173.583 165.846 171.758 167.198 170.414C168.55 169.069 170.38 168.315 172.286 168.315C174.193 168.315 176.023 169.069 177.375 170.414C178.727 171.758 179.493 173.583 179.504 175.49H165.069Z" fill="#E5E5E5"/>
<path d="M172.287 173.211C173.319 173.221 174.341 173.009 175.285 172.591C176.228 172.173 177.072 171.558 177.758 170.787C177.081 169.998 176.241 169.366 175.297 168.932C174.353 168.498 173.326 168.273 172.286 168.273C171.247 168.273 170.22 168.498 169.276 168.932C168.332 169.366 167.492 169.998 166.815 170.787C167.501 171.558 168.344 172.173 169.288 172.591C170.232 173.009 171.254 173.221 172.287 173.211Z" fill="#CFD1D0"/>
<path d="M165.069 175.49C165.08 173.583 165.846 171.758 167.198 170.414C168.55 169.069 170.38 168.315 172.286 168.315C174.193 168.315 176.023 169.069 177.375 170.414C178.727 171.758 179.493 173.583 179.504 175.49H165.069Z" stroke="#283035" stroke-width="1.49378" stroke-linecap="round" stroke-linejoin="round"/>
<g style="mix-blend-mode:multiply" opacity="0.14">
<path d="M116.737 124.427H78.8985C77.7974 124.427 76.9048 125.32 76.9048 126.421V155.794C76.9048 156.895 77.7974 157.788 78.8985 157.788H116.737C117.838 157.788 118.731 156.895 118.731 155.794V126.421C118.731 125.32 117.838 124.427 116.737 124.427Z" fill="black"/>
</g>
<path d="M114.787 122.684H76.9486C75.8474 122.684 74.9549 123.577 74.9549 124.678V154.052C74.9549 155.153 75.8474 156.045 76.9486 156.045H114.787C115.888 156.045 116.781 155.153 116.781 154.052V124.678C116.781 123.577 115.888 122.684 114.787 122.684Z" fill="#353F49"/>
<path d="M114.787 122.684H76.9486C75.8474 122.684 74.9549 123.577 74.9549 124.678V154.052C74.9549 155.153 75.8474 156.045 76.9486 156.045H114.787C115.888 156.045 116.781 155.153 116.781 154.052V124.678C116.781 123.577 115.888 122.684 114.787 122.684Z" stroke="#283035" stroke-width="0.995851" stroke-linecap="round" stroke-linejoin="round"/>
<path d="M76.9483 122.684H114.787C115.316 122.684 115.823 122.894 116.197 123.268C116.57 123.642 116.781 124.149 116.781 124.678V127.663H74.9549V124.678C74.9549 124.149 75.1648 123.642 75.5387 123.268C75.9127 122.894 76.4195 122.684 76.9483 122.684Z" fill="#EAEEEF"/>
<path d="M76.9483 122.684H114.787C115.316 122.684 115.823 122.894 116.197 123.268C116.57 123.642 116.781 124.149 116.781 124.678V127.663H74.9549V124.678C74.9549 124.149 75.1648 123.642 75.5387 123.268C75.9127 122.894 76.4195 122.684 76.9483 122.684Z" stroke="#283035" stroke-width="0.995851" stroke-linecap="round" stroke-linejoin="round"/>
<path opacity="0.35" d="M78.5232 125.952C78.9529 125.952 79.3012 125.603 79.3012 125.174C79.3012 124.744 78.9529 124.396 78.5232 124.396C78.0934 124.396 77.7451 124.744 77.7451 125.174C77.7451 125.603 78.0934 125.952 78.5232 125.952Z" fill="#283035"/>
<path opacity="0.35" d="M80.9715 125.952C81.4012 125.952 81.7495 125.603 81.7495 125.174C81.7495 124.744 81.4012 124.396 80.9715 124.396C80.5418 124.396 80.1935 124.744 80.1935 125.174C80.1935 125.603 80.5418 125.952 80.9715 125.952Z" fill="#283035"/>
<path opacity="0.35" d="M83.2952 125.952C83.7249 125.952 84.0732 125.603 84.0732 125.174C84.0732 124.744 83.7249 124.396 83.2952 124.396C82.8655 124.396 82.5172 124.744 82.5172 125.174C82.5172 125.603 82.8655 125.952 83.2952 125.952Z" fill="#283035"/>
<path d="M76.9048 129.406H79.6434" stroke="#46BB86" stroke-width="0.746888" stroke-miterlimit="10"/>
<path d="M80.6396 129.406H88.1085" stroke="#46BB86" stroke-width="0.746888" stroke-miterlimit="10"/>
<path d="M76.9048 131.398H88.1081" stroke="#389ABE" stroke-width="0.746888" stroke-miterlimit="10"/>
<path d="M79.1453 133.39H84.6224" stroke="#E5C689" stroke-width="0.746888" stroke-miterlimit="10"/>
<path d="M85.6183 133.39H91.5935" stroke="#F2F3F4" stroke-width="0.746888" stroke-miterlimit="10"/>
<path d="M82.1331 135.381H93.5853" stroke="#F2F3F4" stroke-width="0.746888" stroke-miterlimit="10"/>
<path d="M82.1331 137.373H90.5978" stroke="#FFA49F" stroke-width="0.746888" stroke-miterlimit="10"/>
<path d="M79.1453 139.365H91.5934" stroke="#F2F3F4" stroke-width="0.746888" stroke-miterlimit="10"/>
<path d="M76.9048 141.108H83.6268" stroke="#389ABE" stroke-width="0.746888" stroke-miterlimit="10"/>
<g opacity="0.3">
<path opacity="0.3" d="M134.823 150.753C134.823 149.769 134.442 149.076 133.682 148.651C133.145 148.36 132.921 148.136 132.921 147.622V146.751C132.921 146.147 133.19 146.013 133.659 145.699C134.442 145.364 134.823 144.649 134.823 143.575V141.674C134.823 140.153 135.381 139.035 136.187 138.565C136.789 138.136 137.505 137.895 138.244 137.872H138.535C139.161 137.872 139.474 138.185 139.474 138.811V139.146C139.474 139.749 139.161 140.062 138.535 140.062C137.663 140.062 137.238 140.689 137.238 141.963V144.312C137.26 144.882 137.118 145.446 136.828 145.938C136.539 146.429 136.114 146.828 135.605 147.085L135.404 147.152V147.196C135.633 147.264 135.847 147.378 136.03 147.532C136.589 147.867 137.238 148.65 137.238 150.014V152.631C137.238 153.883 137.663 154.51 138.535 154.51C139.161 154.51 139.474 154.822 139.474 155.449V155.784C139.474 156.41 139.161 156.724 138.535 156.724H138.244C137.505 156.701 136.789 156.46 136.187 156.03C135.381 155.561 134.823 154.42 134.823 152.922V150.753Z" fill="white"/>
</g>
<path d="M22.6099 162.743L23.1078 162.258C24.9972 163.79 27.3556 164.626 29.788 164.626C32.2201 164.626 34.5785 163.79 36.4682 162.258L37.0906 162.867" stroke="#283035" stroke-width="0.746888" stroke-linecap="round" stroke-linejoin="round"/>
<path d="M28.2613 160.233C28.2613 159.95 28.149 159.679 27.9491 159.479C27.7491 159.279 27.478 159.167 27.1954 159.167C26.9129 159.167 26.6418 159.279 26.4418 159.479C26.2419 159.679 26.1296 159.95 26.1296 160.233V161.209" stroke="#283035" stroke-width="0.746888" stroke-linecap="round" stroke-linejoin="round"/>
<path d="M31.4393 160.233C31.4393 159.95 31.5516 159.679 31.7515 159.479C31.9511 159.279 32.2223 159.167 32.5051 159.167C32.7877 159.167 33.0588 159.279 33.2587 159.479C33.4586 159.679 33.5709 159.95 33.5709 160.233V161.209" stroke="#283035" stroke-width="0.746888" stroke-linecap="round" stroke-linejoin="round"/>
<path d="M211.708 172.76L209.242 173.103L210.818 175.397L211.708 172.76Z" fill="#E5E5E5"/>
<path d="M211.708 172.76L209.242 173.103L210.818 175.397L211.708 172.76Z" stroke="#283035" stroke-width="0.995851" stroke-linecap="round" stroke-linejoin="round"/>
<path d="M204.781 143.125H185.412C184.16 143.125 183.146 144.139 183.146 145.391V173.225C183.146 174.476 184.16 175.49 185.412 175.49H204.781C206.032 175.49 207.047 174.476 207.047 173.225V145.391C207.047 144.139 206.032 143.125 204.781 143.125Z" fill="#E5E5E5"/>
<path d="M204.781 143.125H204.494C204.535 143.296 204.556 143.472 204.557 143.648V171.482C204.557 172.083 204.318 172.659 203.893 173.084C203.468 173.509 202.892 173.748 202.291 173.748H183.211C183.328 174.243 183.61 174.685 184.009 175.001C184.409 175.317 184.904 175.49 185.413 175.49H204.782C205.383 175.49 205.96 175.252 206.385 174.827C206.809 174.402 207.048 173.825 207.048 173.225V145.391C207.048 145.093 206.989 144.798 206.875 144.523C206.761 144.248 206.594 143.998 206.384 143.788C206.173 143.578 205.923 143.411 205.648 143.297C205.373 143.183 205.079 143.125 204.781 143.125Z" fill="#CFD1D0"/>
<path d="M204.781 143.125H185.412C184.16 143.125 183.146 144.139 183.146 145.391V173.225C183.146 174.476 184.16 175.49 185.412 175.49H204.781C206.032 175.49 207.047 174.476 207.047 173.225V145.391C207.047 144.139 206.032 143.125 204.781 143.125Z" stroke="#283035" stroke-width="1.49378" stroke-linecap="round" stroke-linejoin="round"/>
<path d="M199.08 141.247H197.088V140.5C197.088 139.972 196.878 139.465 196.505 139.092C196.131 138.718 195.624 138.508 195.096 138.508C194.568 138.508 194.061 138.718 193.688 139.092C193.314 139.465 193.104 139.972 193.104 140.5V141.247H191.113C190.584 141.247 190.078 141.457 189.704 141.83C189.331 142.204 189.121 142.71 189.121 143.239C189.121 143.767 189.331 144.273 189.704 144.647C190.078 145.02 190.584 145.23 191.113 145.23H199.08C199.608 145.23 200.114 145.02 200.488 144.647C200.861 144.273 201.071 143.767 201.071 143.239C201.071 142.71 200.861 142.204 200.488 141.83C200.114 141.457 199.608 141.247 199.08 141.247Z" fill="#F7B66F"/>
<path d="M200.005 141.476C200.086 141.771 200.097 142.081 200.039 142.381C199.98 142.681 199.853 142.964 199.667 143.207C199.481 143.45 199.241 143.647 198.966 143.781C198.692 143.917 198.39 143.986 198.084 143.985H190.117C189.794 143.985 189.477 143.907 189.191 143.757C189.305 144.179 189.555 144.553 189.903 144.819C190.25 145.085 190.675 145.23 191.113 145.23H199.08C199.525 145.23 199.957 145.08 200.307 144.806C200.657 144.531 200.905 144.147 201.011 143.715C201.118 143.283 201.077 142.828 200.894 142.422C200.712 142.016 200.399 141.683 200.005 141.476Z" fill="#EDA762"/>
<path d="M196.092 139.255V140.002H197.023C196.953 139.733 196.828 139.481 196.656 139.263C196.484 139.046 196.268 138.866 196.022 138.737C196.068 138.906 196.092 139.08 196.092 139.255Z" fill="#EDA762"/>
<path d="M199.08 141.247H197.088V140.5C197.088 139.972 196.878 139.465 196.505 139.092C196.131 138.718 195.624 138.508 195.096 138.508C194.568 138.508 194.061 138.718 193.688 139.092C193.314 139.465 193.104 139.972 193.104 140.5V141.247H191.113C190.584 141.247 190.078 141.457 189.704 141.83C189.331 142.204 189.121 142.71 189.121 143.239C189.121 143.767 189.331 144.273 189.704 144.647C190.078 145.02 190.584 145.23 191.113 145.23H199.08C199.608 145.23 200.114 145.02 200.488 144.647C200.861 144.273 201.071 143.767 201.071 143.239C201.071 142.71 200.861 142.204 200.488 141.83C200.114 141.457 199.608 141.247 199.08 141.247Z" stroke="#283035" stroke-width="1.49378" stroke-linecap="round" stroke-linejoin="round"/>
<path d="M195.096 152.45C196.242 152.45 197.171 151.521 197.171 150.375C197.171 149.23 196.242 148.301 195.096 148.301C193.951 148.301 193.022 149.23 193.022 150.375C193.022 151.521 193.951 152.45 195.096 152.45Z" fill="#8EAFBF"/>
<path d="M195.096 152.45C196.242 152.45 197.171 151.521 197.171 150.375C197.171 149.23 196.242 148.301 195.096 148.301C193.951 148.301 193.022 149.23 193.022 150.375C193.022 151.521 193.951 152.45 195.096 152.45Z" stroke="#283035" stroke-width="1.49378" stroke-linecap="round" stroke-linejoin="round"/>
<path d="M187.185 156.766H192.164" stroke="#283035" stroke-width="1.49378" stroke-linecap="round" stroke-linejoin="round"/>
<path d="M187.185 163.529H192.164" stroke="#283035" stroke-width="1.49378" stroke-linecap="round" stroke-linejoin="round"/>
<path d="M187.185 170.292H192.164" stroke="#283035" stroke-width="1.49378" stroke-linecap="round" stroke-linejoin="round"/>
<path d="M195.454 156.499L196.752 158.226L200.637 155.306" stroke="#8BAFC1" stroke-width="0.995851" stroke-linecap="round" stroke-linejoin="round"/>
<path d="M195.454 163.262L196.752 164.989L200.637 162.068" stroke="#8BAFC1" stroke-width="0.995851" stroke-linecap="round" stroke-linejoin="round"/>
<path d="M209.512 156.979L207.046 157.322L209.242 173.103L211.708 172.76L209.512 156.979Z" fill="#3BBC88"/>
<path d="M209.512 156.979L207.046 157.322L209.242 173.103L211.708 172.76L209.512 156.979Z" stroke="#283035" stroke-width="0.995851" stroke-linecap="round" stroke-linejoin="round"/>
<path d="M208.601 154.472L207.122 154.678L207.466 157.143L208.945 156.937L208.601 154.472Z" fill="#E5E5E5"/>
<path d="M208.601 154.472L207.122 154.678L207.466 157.143L208.945 156.937L208.601 154.472Z" stroke="#283035" stroke-width="0.995851" stroke-linecap="round" stroke-linejoin="round"/>
<path d="M211.742 163.206C211.463 162.747 211.265 162.243 211.157 161.717C210.882 160.364 211.561 159.591 211.194 158.821C211.048 158.514 210.977 158.095 209.877 157.936" stroke="#283035" stroke-width="0.995851" stroke-linecap="round" stroke-linejoin="round"/>
<path d="M214.766 175.49H221.177" stroke="#283035" stroke-width="1.49378" stroke-linecap="round" stroke-linejoin="round"/>
<path d="M43.8735 175.49H211.965" stroke="#283035" stroke-width="1.49378" stroke-linecap="round" stroke-linejoin="round"/>
<path d="M14.1021 175.49H40.9567" stroke="#283035" stroke-width="1.49378" stroke-linecap="round" stroke-linejoin="round"/>
<path d="M5.53349 175.49H11.3012" stroke="#283035" stroke-width="1.49378" stroke-linecap="round" stroke-linejoin="round"/>
<path d="M111.261 56.6594C114.561 56.6594 117.236 53.9843 117.236 50.6843C117.236 47.3843 114.561 44.7092 111.261 44.7092C107.961 44.7092 105.286 47.3843 105.286 50.6843C105.286 53.9843 107.961 56.6594 111.261 56.6594Z" fill="white"/>
<path d="M94.1088 52.0332C93.8051 52.0322 93.5048 51.9668 93.228 51.8413C92.9511 51.7155 92.7044 51.5328 92.5035 51.3048C92.3026 51.0767 92.1522 50.8086 92.0626 50.5183C91.973 50.228 91.9458 49.9218 91.9832 49.6203C93.1446 39.7594 101.333 32.1162 111.261 32.1162C121.19 32.1162 129.378 39.7594 130.539 49.6203C130.577 49.922 130.55 50.228 130.46 50.5185C130.37 50.8088 130.22 51.077 130.019 51.305C129.818 51.5331 129.571 51.7158 129.294 51.8415C129.017 51.967 128.717 52.0322 128.413 52.0332H94.1088Z" fill="#F7B66F"/>
<path d="M114.249 32.3512C114.185 32.341 114.12 32.3338 114.055 32.3243C113.829 32.291 113.601 32.2609 113.373 32.2355C113.269 32.2238 113.164 32.2143 113.06 32.2043C112.87 32.1864 112.68 32.1702 112.49 32.1593C112.379 32.1528 112.269 32.1446 112.159 32.1394C111.861 32.1254 111.561 32.1162 111.262 32.1162C110.964 32.1162 110.665 32.1252 110.369 32.1394C110.232 32.1458 110.097 32.1565 109.961 32.1658C109.814 32.176 109.667 32.1864 109.521 32.2001C109.342 32.2163 109.163 32.2357 108.986 32.2571C108.899 32.2676 108.811 32.2793 108.726 32.291C99.7571 33.4917 92.7107 40.9638 91.9177 50.2783C91.8981 50.5009 91.9247 50.7252 91.9964 50.937C92.0679 51.1487 92.1829 51.3433 92.3335 51.5082C92.4844 51.6732 92.6676 51.8052 92.872 51.8955C93.0767 51.9859 93.2975 52.0327 93.5211 52.0332H129.003C129.224 52.034 129.444 51.9887 129.647 51.9003C129.85 51.8121 130.033 51.6827 130.184 51.5204C130.335 51.3578 130.45 51.1661 130.523 50.9567C130.596 50.7476 130.625 50.5255 130.608 50.3044C129.839 41.1336 123.011 33.7389 114.249 32.3512ZM98.5703 46.5384C99.417 43.4609 100.997 40.6347 103.176 38.3019C105.354 35.9692 108.066 34.1995 111.078 33.1442C114.093 34.1973 116.808 35.9662 118.988 38.2992C121.169 40.6322 122.752 43.4594 123.599 46.5384C123.707 46.9362 123.721 47.3537 123.641 47.758C123.561 48.1624 123.389 48.543 123.138 48.8699C122.887 49.1968 122.564 49.4614 122.194 49.6429C121.823 49.8247 121.417 49.9183 121.004 49.917H101.166C100.753 49.9185 100.346 49.8247 99.9762 49.6432C99.6062 49.4614 99.2831 49.197 99.0319 48.8702C98.7807 48.543 98.6084 48.1626 98.5282 47.7583C98.4483 47.3537 98.4625 46.9362 98.5703 46.5384Z" fill="#EFAA65"/>
<path d="M94.1256 52.0332C93.8197 52.0325 93.5172 51.9665 93.2383 51.8403C92.9597 51.7138 92.7108 51.5298 92.5086 51.3C92.3062 51.0705 92.1548 50.8006 92.0645 50.5081C91.9741 50.2155 91.947 49.9073 91.9846 49.6036C93.1539 39.7497 101.339 32.1162 111.261 32.1162C121.184 32.1162 129.369 39.7497 130.537 49.6036C130.575 49.9073 130.548 50.2155 130.458 50.5081C130.367 50.8006 130.216 51.0705 130.014 51.3003C129.811 51.5298 129.562 51.7141 129.284 51.8403C129.005 51.9668 128.703 52.0325 128.396 52.0332H94.1256Z" stroke="#283035" stroke-width="1.49378" stroke-linecap="round" stroke-linejoin="round"/>
<path d="M111.262 0V32.1162" stroke="#283035" stroke-width="1.49378" stroke-linejoin="round"/>
</g>
</g>
<defs>
<linearGradient id="paint0_linear_12403_37186" x1="111.261" y1="48.4789" x2="111.261" y2="179.055" gradientUnits="userSpaceOnUse">
<stop stop-color="white"/>
<stop offset="0.093" stop-color="white" stop-opacity="0.864"/>
<stop offset="0.284" stop-color="white" stop-opacity="0.605"/>
<stop offset="0.466" stop-color="white" stop-opacity="0.389"/>
<stop offset="0.633" stop-color="white" stop-opacity="0.221"/>
<stop offset="0.784" stop-color="white" stop-opacity="0.1"/>
<stop offset="0.911" stop-color="white" stop-opacity="0.026"/>
<stop offset="1" stop-color="white" stop-opacity="0"/>
</linearGradient>
<clipPath id="clip0_12403_37186">
<rect width="225.062" height="180" fill="white" transform="translate(0.968872)"/>
</clipPath>
</defs>
</svg>
