<svg width="96" height="96" viewBox="0 0 96 96" fill="none" xmlns="http://www.w3.org/2000/svg">
<path d="M93 52.1572V43.9072C93 42.8718 92.1604 42.0322 91.125 42.0322H83.4975C82.5863 36.561 80.4337 31.5097 77.3438 27.1747L82.7377 21.7804C83.4701 21.048 83.4701 19.8611 82.7377 19.1287L76.9031 13.2941C76.1707 12.5617 74.9839 12.5617 74.2515 13.2941L68.8575 18.6885C64.5225 15.5985 59.4712 13.446 54 12.5347V4.90723C54 3.87185 53.1604 3.03223 52.125 3.03223H43.875C42.8396 3.03223 42 3.87185 42 4.90723V12.5347C36.5288 13.446 31.4775 15.5985 27.1425 18.6885L21.7485 13.2945C21.0161 12.5621 19.8293 12.5621 19.0969 13.2945L13.2623 19.1291C12.5299 19.8615 12.5299 21.0484 13.2623 21.7807L18.6562 27.1747C15.5662 31.5097 13.4137 36.561 12.5025 42.0322H4.875C3.83963 42.0322 3 42.8718 3 43.9072V52.1572C3 53.1926 3.83963 54.0322 4.875 54.0322H12.5025C13.4137 59.5035 15.5662 64.5547 18.6562 68.8897L13.2623 74.2841C12.5299 75.0165 12.5299 76.2033 13.2623 76.9357L19.0969 82.7703C19.8293 83.5027 21.0161 83.5027 21.7485 82.7703L27.1429 77.3764C31.4779 80.4663 36.5291 82.6188 42.0004 83.5301V91.1576C42.0004 92.193 42.84 93.0326 43.8754 93.0326H52.1254C53.1608 93.0326 54.0004 92.193 54.0004 91.1576V83.5301C59.4716 82.6188 64.5229 80.4663 68.8579 77.3764L74.2523 82.7703C74.9846 83.5027 76.1715 83.5027 76.9039 82.7703L82.7385 76.9357C83.4709 76.2033 83.4709 75.0165 82.7385 74.2841L77.3445 68.8897C80.4345 64.5547 82.587 59.5035 83.4983 54.0322H91.125C92.1604 54.0322 93 53.193 93 52.1572ZM48 75.0322C33.0866 75.0322 21 62.9426 21 48.0322C21 33.1346 33.0735 21.0322 48 21.0322C62.9164 21.0322 75 33.1252 75 48.0322C75 62.928 62.9284 75.0322 48 75.0322Z" fill="#13BF6D"/>
<path d="M48.0008 80.4697C41.6066 80.4697 35.4236 78.6142 30.12 75.1034C29.6884 74.8173 29.5699 74.2361 29.8556 73.8041C30.1418 73.3721 30.7234 73.2539 31.155 73.5397C36.1504 76.8464 41.9756 78.5943 48.0008 78.5943C64.8923 78.5943 78.5629 64.9241 78.5629 48.0314C78.5629 39.8681 75.3836 32.1937 69.6113 26.4209C69.2449 26.0546 69.2449 25.4613 69.6113 25.0953C69.9776 24.7293 70.5709 24.7289 70.9369 25.0953C77.0636 31.2221 80.4379 39.3678 80.4379 48.0314C80.4379 65.9591 65.9303 80.4697 48.0008 80.4697ZM27.0345 72.7856C26.3554 72.2092 25.6924 71.5979 25.0635 70.9687C24.6975 70.6023 24.6975 70.0087 25.0639 69.6427C25.4303 69.2771 26.0239 69.2767 26.3899 69.6431C26.9824 70.2363 27.6079 70.8127 28.248 71.3557C28.6429 71.6909 28.6913 72.2827 28.356 72.6772C28.0211 73.0713 27.4305 73.1208 27.0345 72.7856Z" fill="#76FFBB"/>
<path d="M65.7499 48.0322H60C53.3726 48.0322 48 53.4049 48 60.0322H53.7499C60.3772 60.0322 65.7499 54.6596 65.7499 48.0322Z" fill="#13BF6D"/>
<path d="M30.25 42.0322H35.9999C42.6272 42.0322 47.9999 47.4049 47.9999 54.0322H42.25C35.6226 54.0322 30.25 48.6596 30.25 42.0322Z" fill="#13BF6D"/>
<path d="M48 36.0322C50.4853 36.0322 52.5 34.0175 52.5 31.5322C52.5 29.0469 50.4853 27.0322 48 27.0322C45.5147 27.0322 43.5 29.0469 43.5 31.5322C43.5 34.0175 45.5147 36.0322 48 36.0322Z" fill="#FC5D3D"/>
<path d="M15.0225 62.5259C15.486 62.3388 15.7369 61.8014 15.5363 61.3034C15.345 60.8384 14.7825 60.5984 14.3138 60.7897C13.8338 60.9851 13.605 61.5359 13.8 62.0122C13.9898 62.4746 14.5152 62.7288 15.0225 62.5259Z" fill="black"/>
<path d="M91.125 41.0947H84.2812C83.3438 36.126 81.42 31.4794 78.5625 27.2835L83.3996 22.4422C84.5085 21.3334 84.4879 19.5472 83.3996 18.4672L77.5646 12.6319C76.4678 11.5271 74.6741 11.5365 73.5859 12.6319L68.7487 17.4694C64.5525 14.6119 59.9025 12.6881 54.9375 11.7469V4.90686C54.9375 3.35399 53.6738 2.09436 52.125 2.09436H43.875C42.3262 2.09436 41.0625 3.35399 41.0625 4.90686V11.7469C36.0975 12.6881 31.4471 14.6119 27.2512 17.4694L22.41 12.6319C21.3131 11.5271 19.5195 11.5365 18.4313 12.6319L12.6 18.4676C11.5065 19.5536 11.4979 21.348 12.6 22.4426L17.4375 27.2839C14.58 31.4797 12.6562 36.1301 11.715 41.0951H4.875C3.32213 41.0951 2.0625 42.3589 2.0625 43.9076V52.1576C2.0625 53.7064 3.32213 54.9701 4.875 54.9701H11.715C11.9321 56.1139 12.2062 57.261 12.5325 58.3826C12.675 58.8626 13.2113 59.1589 13.695 59.0201C14.19 58.8739 14.4788 58.3526 14.3325 57.8576C13.9538 56.556 13.65 55.2176 13.425 53.8789C13.35 53.4251 12.9637 53.0951 12.5025 53.0951H4.875C4.3575 53.0951 3.9375 52.6751 3.9375 52.1576V43.9076C3.9375 43.3939 4.3575 42.9701 4.875 42.9701H12.5025C12.9634 42.9701 13.35 42.6401 13.425 42.1864C14.2875 37.0151 16.3612 32.0085 19.4175 27.7189C19.6875 27.3439 19.6425 26.8372 19.3196 26.511L13.9234 21.1185C13.5578 20.745 13.5566 20.166 13.9234 19.791L19.7584 13.956C20.1334 13.5892 20.7127 13.5904 21.0859 13.956L26.4784 19.3522C26.7938 19.6672 27.3221 19.7122 27.6863 19.4497C31.9759 16.3939 36.9784 14.3197 42.1538 13.4576C42.6075 13.3826 42.9375 12.9964 42.9375 12.5351V4.90761C42.9375 4.39011 43.3613 3.97011 43.875 3.97011H52.125C52.6425 3.97011 53.0625 4.39011 53.0625 4.90761V12.5351C53.0625 12.996 53.3925 13.3826 53.8462 13.4576C59.0175 14.3201 64.02 16.3939 68.3138 19.4497C68.6775 19.7122 69.2063 19.6672 69.5212 19.3522L74.9137 13.956C75.2933 13.5851 75.8726 13.5949 76.2412 13.956L82.0766 19.791C82.4419 20.1645 82.4392 20.7484 82.0766 21.1185L76.68 26.511C76.3579 26.8372 76.3129 27.3439 76.5788 27.7189C79.6388 32.0085 81.7121 37.011 82.5709 42.1864C82.6459 42.6401 83.0359 42.9701 83.4975 42.9701H91.125C91.6387 42.9701 92.0625 43.3939 92.0625 43.9076V52.1576C92.0625 52.6751 91.6387 53.0951 91.125 53.0951H83.4975C83.0363 53.0951 82.6459 53.4251 82.5709 53.8789C81.7121 59.0539 79.6388 64.0564 76.5788 68.3464C76.3125 68.7214 76.3575 69.2276 76.68 69.5539L82.0766 74.9464C82.4329 75.3109 82.4464 75.8962 82.0766 76.2739L76.2412 82.1092C75.8711 82.4719 75.2873 82.4745 74.9137 82.1092L69.5212 76.7126C69.2025 76.3976 68.6775 76.3526 68.3138 76.6114C64.0238 79.6714 59.0212 81.7447 53.8462 82.6035C53.3925 82.6785 53.0625 83.0685 53.0625 83.5301V91.1576C53.0625 91.6714 52.6425 92.0951 52.125 92.0951H43.875C43.3613 92.0951 42.9375 91.6714 42.9375 91.1576V83.5301C42.9375 83.0689 42.6075 82.6785 42.1538 82.6035C36.9784 81.7447 31.9759 79.6714 27.6863 76.6114C27.3221 76.3526 26.7975 76.3976 26.4784 76.7126L21.0859 82.1092C20.715 82.4726 20.1311 82.4737 19.7584 82.1092L13.9234 76.2739C13.5578 75.9004 13.5566 75.3214 13.9234 74.9464L19.3196 69.5539C19.6421 69.2276 19.6871 68.7214 19.4175 68.3464C18.5659 67.1464 17.7825 65.8901 17.0925 64.6039C16.8596 64.176 16.3226 63.9634 15.8209 64.2214C15.3671 64.4647 15.1946 65.0351 15.4421 65.4926V65.4964C16.0496 66.6214 16.7209 67.7276 17.4371 68.7817L12.5996 73.623C11.4941 74.7206 11.5087 76.5142 12.5996 77.598L18.435 83.433C19.5191 84.5254 21.3158 84.5351 22.41 83.433L27.2512 78.5959C31.4471 81.4534 36.0938 83.3771 41.0625 84.3146V91.1584C41.0625 92.7071 42.3262 93.9709 43.875 93.9709H52.125C53.6738 93.9709 54.9375 92.7071 54.9375 91.1584V84.3146C59.9062 83.3771 64.5525 81.4534 68.7487 78.5959L73.59 83.433C74.6741 84.5254 76.4707 84.5351 77.565 83.433L83.4 77.598C84.5033 76.4947 84.4939 74.7131 83.4 73.6192L78.5625 68.7814C81.42 64.5851 83.3438 59.9389 84.2812 54.9701H91.125C92.6738 54.9701 93.9375 53.7064 93.9375 52.1576V43.9076C93.9375 42.3589 92.6738 41.0947 91.125 41.0947Z" fill="black"/>
<path d="M73.4026 38.8146C72.911 38.9721 72.6413 39.5009 72.7988 39.9921C72.7988 39.9921 72.7988 39.9921 72.7988 39.9959C72.9541 40.4661 73.4558 40.7643 73.9801 40.5963C74.4642 40.4448 74.7473 39.9149 74.5835 39.415C74.5835 39.415 74.5835 39.415 74.5835 39.4113C74.4226 38.935 73.8863 38.6571 73.4026 38.8146Z" fill="black"/>
<path d="M48 20.0947C32.5984 20.0947 20.0625 32.568 20.0625 48.0322C20.0625 63.4957 32.5976 75.9697 48 75.9697C63.4054 75.9697 75.9375 63.4905 75.9375 48.0322C75.9375 46.4006 75.795 44.7697 75.5175 43.1797C75.4275 42.6772 74.94 42.3285 74.43 42.4185C73.9237 42.5085 73.5825 42.9922 73.6691 43.5026C73.9313 44.9914 74.0629 46.5176 74.0629 48.0326C74.0629 62.0921 62.94 73.5799 48.9379 74.0722V60.9701H53.7491C60.8891 60.9701 66.6817 55.1955 66.6866 48.0408C66.6911 47.5312 66.2854 47.0951 65.7491 47.0951H60C55.3391 47.0951 51.2344 49.5487 48.9375 53.3175V36.8831C51.4883 36.4365 53.4375 34.2086 53.4375 31.5322C53.4375 28.536 50.9963 26.0947 48 26.0947C45.0037 26.0947 42.5625 28.536 42.5625 31.5322C42.5625 34.2082 44.5117 36.4361 47.0625 36.8831V47.3197C44.7904 43.5941 40.7141 41.0951 36 41.0951H30.2512C29.685 41.0951 29.298 41.5781 29.3145 42.0604C29.3295 49.2157 35.1259 54.9701 42.2512 54.9701H47.0625V74.0722C33.0971 73.581 21.9375 62.1307 21.9375 48.0326C21.9375 33.6274 33.597 21.9701 48 21.9701C58.0571 21.9701 67.0425 27.5914 71.4487 36.6401C71.6722 37.1032 72.2212 37.3009 72.7012 37.0747C73.158 36.8546 73.3672 36.2932 73.1321 35.8222C68.553 26.4045 58.9335 20.0947 48 20.0947ZM53.7487 59.0947H51.0593L64.6466 49.9084C63.7399 55.1194 59.13 59.0842 53.7487 59.0947ZM60 48.9697H62.6888L49.1021 58.1557C50.0085 52.9421 54.6188 48.9802 60 48.9697ZM44.4375 31.5322C44.4412 29.571 46.0387 27.9735 48 27.9697C49.9609 27.9735 51.5588 29.571 51.5625 31.5322C51.5588 33.4931 49.9609 35.091 48 35.0947C46.0387 35.0914 44.4412 33.4935 44.4375 31.5322ZM42.2512 53.0947C36.87 53.0842 32.2594 49.1224 31.35 43.9084L44.94 53.0947H42.2512ZM33.3109 42.9697H36C41.3813 42.9802 45.9915 46.9421 46.8975 52.1557L33.3109 42.9697Z" fill="black"/>
</svg>
