<svg width="64" height="64" viewBox="0 0 64 64" fill="none" xmlns="http://www.w3.org/2000/svg">
<g clip-path="url(#clip0_17526_1900)">
<path d="M63 59V63H1V59H5H23H41H59H63Z" fill="#422B57"/>
<path d="M59 45H41V59H59V45Z" fill="#774E9D"/>
<path d="M23 37H5V59H23V37Z" fill="#9C59A9"/>
<path d="M34 17V21H30V17L30.07 16.73C31.3315 17.09 32.6685 17.09 33.93 16.73L34 17Z" fill="#FF9102"/>
<path d="M37 21V25H27V21H30H34H37Z" fill="#FFCB02"/>
<path d="M39.0004 10C39.0044 10.3318 38.9776 10.6632 38.9204 10.99C38.7337 12.3272 38.1628 13.5814 37.277 14.6004C36.3912 15.6193 35.2286 16.3591 33.9304 16.73C32.6689 17.09 31.3319 17.09 30.0704 16.73C28.7722 16.3591 27.6096 15.6193 26.7237 14.6004C25.8379 13.5814 25.267 12.3272 25.0804 10.99C25.0232 10.6632 24.9964 10.3318 25.0004 10V1H39.0004V10Z" fill="#FFCB02"/>
<path d="M41 25H23V59H41V25Z" fill="#CB73DB"/>
<path d="M29.0804 10.99C29.0232 10.6632 28.9964 10.3318 29.0004 10V1H25.0004V10C24.9964 10.3318 25.0232 10.6632 25.0804 10.99C25.267 12.3272 25.8379 13.5814 26.7237 14.6004C27.6096 15.6193 28.7722 16.3591 30.0704 16.73C31.3319 17.09 32.6689 17.09 33.9304 16.73C33.9544 16.723 33.9764 16.711 34.0004 16.704C32.7185 16.324 31.5731 15.5832 30.7007 14.57C29.8283 13.5568 29.2659 12.3141 29.0804 10.99Z" fill="#FFAB02"/>
<path d="M27 21V25H37V23H31C30.7348 23 30.4804 22.8946 30.2929 22.7071C30.1054 22.5196 30 22.2652 30 22V21H27Z" fill="#FFAB02"/>
<path d="M41 45V59H59V56H51C49.4087 56 47.8826 55.3679 46.7574 54.2426C45.6321 53.1174 45 51.5913 45 50V45H41Z" fill="#654285"/>
<path d="M23 37V59H5V56H13C14.5913 56 16.1174 55.3679 17.2426 54.2426C18.3679 53.1174 19 51.5913 19 50V37H23Z" fill="#8B4F96"/>
<path d="M23 25V59H41V56H33C31.4087 56 29.8826 55.3679 28.7574 54.2426C27.6321 53.1174 27 51.5913 27 50V25H23Z" fill="#B667C4"/>
<path d="M63 58H60V45C60 44.7348 59.8946 44.4804 59.7071 44.2929C59.5196 44.1054 59.2652 44 59 44H46V46H58V58H42V46H44V44H42V34H40V58H24V26H40V28H42V25C42 24.7348 41.8946 24.4804 41.7071 24.2929C41.5196 24.1054 41.2652 24 41 24H38V21C38 20.7348 37.8946 20.4804 37.7071 20.2929C37.5196 20.1054 37.2652 20 37 20H35V17.411C36.1646 16.9362 37.2012 16.1943 38.0263 15.2452C38.8514 14.2961 39.4418 13.1663 39.75 11.947C41.0481 11.7882 42.2325 11.1278 43.05 10.107C43.6585 9.39661 43.9951 8.49335 44 7.558V3C44 2.73478 43.8946 2.48043 43.7071 2.29289C43.5196 2.10536 43.2652 2 43 2H40V1C40 0.734784 39.8946 0.48043 39.7071 0.292893C39.5196 0.105357 39.2652 0 39 0L25 0C24.7348 0 24.4804 0.105357 24.2929 0.292893C24.1054 0.48043 24 0.734784 24 1V2H21C20.7348 2 20.4804 2.10536 20.2929 2.29289C20.1054 2.48043 20 2.73478 20 3V7.558C20.0063 8.49398 20.3447 9.39732 20.955 10.107C21.7725 11.1278 22.9569 11.7882 24.255 11.947C24.5627 13.1658 25.1523 14.2952 25.9765 15.2443C26.8007 16.1934 27.8364 16.9356 29 17.411V20H27C26.7348 20 26.4804 20.1054 26.2929 20.2929C26.1054 20.4804 26 20.7348 26 21V24H23C22.7348 24 22.4804 24.1054 22.2929 24.2929C22.1054 24.4804 22 24.7348 22 25V36H20V38H22V58H6V38H18V36H5C4.73478 36 4.48043 36.1054 4.29289 36.2929C4.10536 36.4804 4 36.7348 4 37V58H1C0.734784 58 0.48043 58.1054 0.292893 58.2929C0.105357 58.4804 0 58.7348 0 59L0 63C0 63.2652 0.105357 63.5196 0.292893 63.7071C0.48043 63.8946 0.734784 64 1 64H63C63.2652 64 63.5196 63.8946 63.7071 63.7071C63.8946 63.5196 64 63.2652 64 63V59C64 58.7348 63.8946 58.4804 63.7071 58.2929C63.5196 58.1054 63.2652 58 63 58ZM22 7.558V4H24V9.844C23.4057 9.66541 22.8796 9.3108 22.491 8.827C22.1826 8.47524 22.0087 8.0257 22 7.558ZM42 4V7.558C41.9913 8.0257 41.8174 8.47524 41.509 8.827C41.1204 9.3108 40.5943 9.66541 40 9.844V4H42ZM26 10V2H38V10C38 11.5913 37.3679 13.1174 36.2426 14.2426C35.1174 15.3679 33.5913 16 32 16C30.4087 16 28.8826 15.3679 27.7574 14.2426C26.6321 13.1174 26 11.5913 26 10ZM31 17.931C31.6635 18.023 32.3365 18.023 33 17.931V20H31V17.931ZM28 22H36V24H28V22ZM62 62H2V60H62V62Z" fill="black"/>
<path d="M42 30H40V32H42V30Z" fill="black"/>
<path d="M37 10H35C35 10.123 34.955 13 31 13V15C35.746 15 37 11.729 37 10Z" fill="black"/>
</g>
<defs>
<clipPath id="clip0_17526_1900">
<rect width="64" height="64" fill="white"/>
</clipPath>
</defs>
</svg>
