<svg width="64" height="64" viewBox="0 0 64 64" fill="none" xmlns="http://www.w3.org/2000/svg">
<rect width="64" height="64" rx="8" fill="#E6FAFF"/>
<path d="M33.647 47.4739C42.7566 47.0321 50.0654 45.1103 49.9719 43.1816C49.8783 41.2528 42.4177 40.0475 33.3082 40.4893C24.1987 40.9312 16.8898 42.853 16.9833 44.7817C17.0769 46.7104 24.5375 47.9158 33.647 47.4739Z" fill="#B3B1B1"/>
<path d="M44.5719 41.6354L47.6238 40.1843L47.5794 40.0569L44.1865 41.5342L44.5719 41.6354Z" fill="#B3B1B1"/>
<path d="M48.1961 40.2174C48.3334 40.0481 48.2776 39.7755 48.0717 39.6086C47.8657 39.4417 47.5874 39.4437 47.4502 39.6131C47.313 39.7825 47.3688 40.0551 47.5748 40.2219C47.7807 40.3888 48.0589 40.3868 48.1961 40.2174Z" fill="#B3B1B1"/>
<path d="M40.3105 17.188L45.3276 9.4996C45.3306 9.49467 45.3354 9.49109 45.3411 9.48974C45.3468 9.4884 45.3527 9.48929 45.3577 9.49237C45.3626 9.49537 45.3662 9.50024 45.3676 9.50593C45.3689 9.51157 45.368 9.51752 45.3649 9.52245L40.7898 17.4712L40.3105 17.188Z" fill="#595959"/>
<path d="M35.1687 16.3331L34.333 12.0259C34.3309 12.0176 34.3323 12.0088 34.3367 12.0015C34.3412 11.9943 34.3483 11.989 34.3566 11.987C34.3649 11.985 34.3736 11.9863 34.3809 11.9907C34.3882 11.9951 34.3934 12.0023 34.3955 12.0106L35.6327 16.1748L35.1687 16.3331Z" fill="#595959"/>
<path d="M40.4482 17.3457L44.6146 10.6812L44.6395 10.7019L40.6278 17.4557L40.4482 17.3457Z" fill="#666666"/>
<path d="M34.4647 12.5321L35.415 16.2917L35.5558 16.2253L34.3457 12.0605C34.3436 12.0522 34.3385 12.0451 34.3312 12.0407C34.3238 12.0362 34.3151 12.0348 34.3068 12.0369C34.2985 12.0389 34.2914 12.0441 34.2869 12.0514C34.2825 12.0588 34.2811 12.0675 34.2832 12.0758L34.4647 12.5321Z" fill="#666666"/>
<path d="M35.6672 16.1422L37.03 20.8769C37.0318 20.8824 37.032 20.8882 37.0306 20.8938C37.0293 20.8994 37.0265 20.9045 37.0224 20.9087C37.0185 20.9128 37.0134 20.9157 37.0078 20.9173C37.0023 20.9187 36.9964 20.9187 36.9909 20.9172L36.0272 20.6602C36.0213 20.6586 36.016 20.6554 36.0119 20.651C36.0078 20.6466 36.005 20.6411 36.0039 20.6352L35.1074 16.35L35.6672 16.1422Z" fill="#D94A44"/>
<path opacity="0.14" d="M35.5817 16.1736L35.4229 16.2327L36.6476 20.8192L36.8863 20.8823C36.8919 20.8839 36.8977 20.8839 36.9033 20.8824C36.9089 20.8809 36.9139 20.8779 36.9179 20.8738C36.9219 20.8696 36.9247 20.8645 36.9261 20.859C36.9274 20.8533 36.9272 20.8475 36.9255 20.842L35.5817 16.1736Z" fill="#EAEAEA"/>
<path d="M40.8393 17.4563L38.6282 21.352C38.6255 21.3569 38.6209 21.3605 38.6156 21.3621C38.6102 21.3638 38.6044 21.3633 38.5994 21.3608L37.809 20.9656C37.8062 20.9642 37.8038 20.9623 37.8018 20.9598C37.7999 20.9575 37.7985 20.9547 37.7976 20.9517C37.7968 20.9488 37.7967 20.9456 37.7971 20.9426C37.7976 20.9395 37.7987 20.9366 37.8004 20.934L40.2758 17.147L40.8393 17.4563Z" fill="#D94A44"/>
<path opacity="0.14" d="M40.5518 17.2983L38.291 20.9352L38.5649 21.122L40.6998 17.3796L40.5518 17.2983Z" fill="#EAEAEA"/>
<path d="M29.2207 22.2478C29.2207 22.2478 32.8623 18.5823 37.4439 20.1759C39.9704 21.0546 40.924 24.6023 40.924 24.6023L29.2207 22.2478Z" fill="#D34444"/>
<path d="M28.374 22.7291C28.374 22.7291 32.375 19.2603 37.0454 21.0307C40.1329 22.2009 41.5272 25.5788 41.5272 25.5788L28.374 22.7291Z" fill="#CE3A3A"/>
<path d="M34.2309 47.4573C29.9984 47.6594 21.2347 48.3046 19.0342 43.5562C17.9355 41.1855 18.253 38.1713 18.2716 35.6188C18.2878 33.3846 17.9391 30.8031 18.5148 28.6192C19.8043 23.7296 26.9521 21.6987 31.3532 21.5416C35.4355 21.3958 38.4394 22.5804 41.2728 24.45C43.9877 26.2413 44.4449 30.6416 44.4606 33.4868C44.4789 36.8148 44.8646 40.318 43.6958 43.5379C42.4957 46.8445 37.1375 47.3201 34.2309 47.4573Z" fill="#D94A44"/>
<path d="M25.7745 46.8255C23.1599 46.6553 21.4399 45.9661 20.3477 45.2784C23.6474 48.1287 30.6028 47.6304 34.2303 47.4573C36.0749 47.3702 38.9063 47.1465 41.0363 46.1499C37.6613 47.008 31.1409 47.1748 25.7745 46.8255Z" fill="#CE3A3A"/>
<path d="M29.0475 46.4508C26.6379 46.4508 23.8792 46.3548 22.3648 45.8968C20.4704 45.3241 19.8338 44.788 19.2224 43.4689C18.331 41.5455 18.3925 39.215 18.452 36.9613C18.4642 36.4959 18.4758 36.0565 18.479 35.6204C18.4836 34.9923 18.4598 34.3532 18.4353 33.6761C18.3728 31.9755 18.2354 30.1959 18.7156 28.6722C20.5703 22.7882 36.3906 22.944 40.4418 25.3848C41.6301 26.1008 43.183 26.7619 43.6896 28.6437C44.053 29.9941 44.2426 31.6236 44.2528 33.4879C44.2563 34.1221 44.2734 34.7739 44.2899 35.4042C44.3607 38.1039 44.4338 40.8954 43.5005 43.467C43.0305 44.762 41.9539 45.6341 40.2093 46.1333C38.6855 46.5692 30.6742 46.4508 29.0475 46.4508Z" fill="#595959"/>
<path d="M43.617 43.1265C43.6362 43.0685 43.6548 43.0105 43.6728 42.9524C43.683 42.9193 43.6928 42.886 43.7027 42.8528C43.7187 42.7993 43.7347 42.7458 43.7499 42.6921C43.7598 42.6574 43.7691 42.6226 43.7788 42.5879C43.7933 42.5352 43.8075 42.4825 43.8213 42.4295C43.8304 42.3947 43.8393 42.3598 43.848 42.3248C43.8615 42.2713 43.8746 42.2178 43.8873 42.1641C43.8954 42.13 43.9033 42.096 43.9111 42.0622C43.9239 42.0062 43.9363 41.9502 43.9484 41.894C43.9552 41.8624 43.9621 41.8309 43.9687 41.7992C43.9815 41.738 43.9937 41.6767 44.0053 41.6153C44.0105 41.5888 44.0158 41.5623 44.0208 41.5358C44.0348 41.461 44.0483 41.3861 44.061 41.3112C44.0633 41.298 44.0658 41.2848 44.068 41.2716C44.0988 41.0894 44.1263 40.9065 44.1504 40.7229C44.1516 40.714 44.1527 40.7049 44.1539 40.6959C44.1645 40.6148 44.1746 40.5335 44.1841 40.4517C44.1861 40.4341 44.188 40.4165 44.19 40.3989C44.1985 40.3254 44.2064 40.2518 44.2137 40.1781C44.2157 40.1582 44.2177 40.1382 44.2195 40.1182C44.2266 40.0462 44.2332 39.974 44.2395 39.9019C44.2412 39.8821 44.2428 39.8624 44.2445 39.8427C44.2507 39.7687 44.2564 39.6948 44.2617 39.6208C44.263 39.6037 44.2642 39.5867 44.2654 39.5696C44.271 39.4905 44.2761 39.4114 44.2807 39.3321C44.2814 39.3206 44.2749 39.309 44.2755 39.2974C44.2808 39.2069 44.2825 39.1164 44.2825 39.0258C44.2825 38.6467 44.3017 38.2898 44.3188 37.9518C44.3269 37.1 44.3083 36.2477 44.2861 35.4046C44.2696 34.7744 44.2541 34.1226 44.2508 33.4884C44.2408 31.6633 44.0594 30.0638 43.7108 28.7306C43.7354 29.0644 43.7968 29.4218 43.824 29.7809C43.9438 31.3634 44.0149 33.271 43.7515 36.3753C43.6011 38.1493 43.1285 41.4306 41.4432 42.7463C40.2203 43.701 38.9501 43.3696 38.9501 43.3696C38.9501 43.3696 35.935 44.314 35.3491 44.5815C34.7049 44.8759 33.6343 44.8507 32.489 44.7511C32.489 44.7511 31.2288 44.7026 31.1509 44.8931C31.073 45.0836 30.7527 44.6853 30.7527 44.5987C30.7008 44.9536 29.9043 45.0489 29.6793 44.7285C29.3676 44.4085 29.1253 44.9161 28.8915 44.9333C28.6578 44.9506 28.6503 44.0667 28.2025 44.4914C27.9982 44.6851 27.3723 44.0971 26.7362 44.4342C25.8706 44.893 23.2323 44.59 22.4917 44.339C21.4651 43.9909 19.4447 43.6464 19.0061 39.9762C18.6757 37.2114 18.6945 35.9596 18.4706 34.7723C18.4773 35.0588 18.4811 35.341 18.479 35.6207C18.4758 36.0568 18.4642 36.4963 18.4519 36.9616C18.3925 39.2153 18.331 41.5458 19.2224 43.4693C19.8337 44.7883 20.4704 45.3244 22.3648 45.8971C22.8226 46.0274 23.2894 46.1233 23.7615 46.184C23.8639 46.1959 23.9685 46.2096 24.0754 46.2253C24.1059 46.229 24.1368 46.2326 24.1676 46.2362C24.1941 46.2393 24.2206 46.2426 24.2474 46.2454C24.2794 46.249 24.3114 46.2526 24.3434 46.256C24.3722 46.2592 24.4013 46.2624 24.4303 46.2652C24.4825 46.2706 24.5349 46.2759 24.5877 46.2811L24.6686 46.2889C24.7022 46.292 24.7358 46.2951 24.7697 46.2981L24.8537 46.3055C24.9081 46.3102 24.9629 46.3148 25.018 46.3193L25.1058 46.3263L25.2095 46.3341L25.2949 46.3405C25.3449 46.344 25.395 46.3475 25.4454 46.3509L25.5559 46.3581C25.59 46.3603 25.6244 46.3623 25.6588 46.3645C25.6893 46.3664 25.7199 46.3682 25.7506 46.37C25.784 46.3719 25.8174 46.3739 25.851 46.3757C25.9061 46.3787 25.9613 46.3817 26.0167 46.3845C26.0493 46.3861 26.082 46.3877 26.1147 46.3893C26.1473 46.3908 26.1814 46.3925 26.2149 46.3941C26.2483 46.3957 26.2804 46.3971 26.3132 46.3985C26.3595 46.4005 26.4059 46.4025 26.4523 46.4044C26.4916 46.406 26.531 46.4075 26.5704 46.409C26.6098 46.4105 26.6487 46.4119 26.6871 46.4133L26.779 46.4165C26.8236 46.4181 26.8683 46.4196 26.9129 46.4209L27.0156 46.424C27.0646 46.4255 27.1136 46.4268 27.1628 46.4282L27.246 46.4304L27.3826 46.4336L27.4489 46.4352L27.6396 46.439L27.71 46.4402C27.7587 46.4411 27.8073 46.442 27.8558 46.4427L27.9183 46.4436C27.9835 46.4446 28.0487 46.4455 28.1138 46.4462L28.1697 46.4468L28.3271 46.4483L28.3847 46.4488C28.4514 46.4494 28.518 46.4498 28.5845 46.4501H28.6191L28.7911 46.4508H28.8469C28.914 46.4508 28.9809 46.4508 29.0476 46.4508C30.6744 46.4508 38.6857 46.5693 40.2092 46.1333C40.2587 46.1192 40.3074 46.1047 40.3557 46.09C40.3713 46.0852 40.3868 46.0804 40.4023 46.0755C40.4351 46.0653 40.4677 46.0549 40.5 46.0444C40.5177 46.0387 40.5354 46.0329 40.5529 46.0271C40.5838 46.0169 40.6144 46.0064 40.6447 45.9959C40.6614 45.9901 40.6782 45.9844 40.6948 45.9786C40.7374 45.9635 40.7797 45.9481 40.8215 45.9325C40.8416 45.925 40.8613 45.9173 40.8811 45.9096C40.9043 45.9007 40.9273 45.8918 40.9503 45.8828C40.9739 45.8734 40.9973 45.8636 41.0207 45.8544C41.0386 45.847 41.0564 45.8396 41.0741 45.8322C41.0997 45.8216 41.1247 45.8109 41.1496 45.8002C41.1618 45.7949 41.1738 45.7895 41.1859 45.7842C41.2811 45.7421 41.3735 45.6985 41.4633 45.6533L41.4798 45.645C41.5106 45.6293 41.5411 45.6135 41.5714 45.5974L41.5813 45.592C41.712 45.5222 41.8367 45.4488 41.9554 45.3718C42.365 45.0796 42.7323 44.7324 43.0471 44.3399C43.1409 44.2068 43.2257 44.0675 43.3008 43.9229C43.3022 43.9202 43.3035 43.9175 43.3049 43.9148C43.3222 43.8812 43.339 43.8474 43.3555 43.8132C43.3591 43.8057 43.3623 43.7981 43.3659 43.7907C43.3799 43.7609 43.3937 43.7311 43.407 43.7011C43.4139 43.6853 43.4203 43.6691 43.427 43.6533C43.4365 43.6309 43.4462 43.6085 43.4553 43.586C43.4709 43.5469 43.4859 43.5075 43.5004 43.4676C43.5314 43.3823 43.5612 43.2968 43.59 43.2112C43.5991 43.1826 43.6078 43.1545 43.617 43.1265Z" fill="#5E5E5E"/>
<path d="M27.6103 43.1654C25.9543 43.1654 24.0832 43.0189 22.7609 41.9324C21.8533 41.1865 21.1849 39.8588 20.7744 37.9851C20.4466 36.489 20.2975 34.6469 20.3548 32.7981C20.3776 31.7308 20.7119 30.6933 21.3165 29.8134C21.9071 28.9692 22.71 28.367 23.6385 28.0713C25.4605 27.4916 28.7747 26.8146 32.1185 26.8146C32.9347 26.8108 33.7503 26.86 34.5601 26.9618C35.8953 27.1374 36.8836 27.4314 37.6705 27.8871C38.5685 28.407 39.2489 29.1682 39.7505 30.2141C40.9809 32.7793 41.8158 36.5176 40.9069 39.087C40.4809 40.2914 39.7095 41.166 38.6142 41.6863C35.9509 42.9517 32.8809 43.0899 29.7064 43.127C29.4421 43.1301 29.1705 43.1371 28.8828 43.1444C28.4705 43.1549 28.0441 43.1658 27.6099 43.1658L27.6103 43.1654Z" fill="#727272"/>
<path opacity="0.71" d="M27.6448 43.3344C25.9152 43.3344 23.9552 43.1787 22.5316 42.0089C21.5501 41.2025 20.8339 39.7972 20.403 37.8306C20.068 36.3021 19.9157 34.4243 19.9742 32.5423C19.9995 31.3942 20.3599 30.2785 21.011 29.3325C21.6542 28.4129 22.5314 27.7561 23.5475 27.4327C25.3978 26.8439 28.762 26.1566 32.1537 26.1566C32.988 26.1527 33.8218 26.2029 34.6497 26.307C36.0409 26.49 37.0782 26.8007 37.9143 27.2847C38.8871 27.8479 39.6218 28.6679 40.1607 29.7917C41.4283 32.4342 42.2828 36.301 41.3342 38.9828C40.87 40.2951 40.0268 41.2493 38.828 41.8189C36.0888 43.1203 32.9693 43.262 29.7468 43.2998C29.4875 43.3028 29.2196 43.3095 28.936 43.3168L28.9289 43.3149C28.5143 43.3255 28.0855 43.3341 27.6454 43.3341L27.6448 43.3344Z" fill="#424242"/>
<mask id="mask0_11673_28594" style="mask-type:alpha" maskUnits="userSpaceOnUse" x="19" y="26" width="23" height="18">
<path opacity="0.71" d="M27.6448 43.3344C25.9152 43.3344 23.9552 43.1787 22.5316 42.0089C21.5501 41.2025 20.8339 39.7972 20.403 37.8306C20.068 36.3021 19.9157 34.4243 19.9742 32.5423C19.9995 31.3942 20.3599 30.2785 21.011 29.3325C21.6542 28.4129 22.5314 27.7561 23.5475 27.4327C25.3978 26.8439 28.762 26.1566 32.1537 26.1566C32.988 26.1527 33.8218 26.2029 34.6497 26.307C36.0409 26.49 37.0782 26.8007 37.9143 27.2847C38.8871 27.8479 39.6218 28.6679 40.1607 29.7917C41.4283 32.4342 42.2828 36.301 41.3342 38.9828C40.87 40.2951 40.0268 41.2493 38.828 41.8189C36.0888 43.1203 32.9693 43.262 29.7468 43.2998C29.4875 43.3028 29.2196 43.3095 28.936 43.3168L28.9289 43.3149C28.5143 43.3255 28.0855 43.3341 27.6454 43.3341L27.6448 43.3344Z" fill="#424242"/>
</mask>
<g mask="url(#mask0_11673_28594)">
<path d="M27.6743 43.1654C26.0039 43.1654 24.1159 43.0176 22.7823 41.9214C21.8666 41.169 21.1923 39.8293 20.7782 37.9394C20.4475 36.4302 20.2971 34.5718 20.3549 32.7067C20.378 31.63 20.7152 30.5836 21.325 29.696C21.9208 28.8443 22.7309 28.2368 23.6674 27.9385C25.5055 27.3537 28.8488 26.6707 32.2224 26.6707C33.0457 26.6668 33.8685 26.7163 34.6855 26.8189C36.0324 26.9961 37.0295 27.2925 37.8235 27.7523C38.7294 28.2771 39.4158 29.0448 39.922 30.0999C41.1636 32.6876 42.0055 36.459 41.0886 39.051C40.6588 40.266 39.8806 41.1483 38.7757 41.6732C36.0889 42.9498 32.9919 43.0892 29.7894 43.1267C29.5227 43.1298 29.2487 43.1368 28.9585 43.1442C28.5425 43.1547 28.1124 43.1657 27.6743 43.1657V43.1654Z" fill="#6B5245"/>
<path d="M23.3857 25.9214H20.1943V44.3732H23.3857V25.9214Z" fill="#711C43"/>
<path d="M26.5224 25.9214H23.3311V44.3732H26.5224V25.9214Z" fill="#B71046"/>
<path d="M29.6591 25.9214H26.4678V44.3732H29.6591V25.9214Z" fill="#E90101"/>
<path d="M32.7949 25.9214H29.6035V44.3732H32.7949V25.9214Z" fill="#F5640B"/>
<path d="M35.9316 25.9214H32.7402V44.3732H35.9316V25.9214Z" fill="#FE9402"/>
<path d="M39.0683 25.9214H35.877V44.3732H39.0683V25.9214Z" fill="#CDD555"/>
<path d="M42.205 25.9214H39.0137V44.3732H42.205V25.9214Z" fill="#8A90BC"/>
</g>
<path d="M34.4403 12.9344C34.9374 12.9344 35.3405 12.5469 35.3405 12.0688C35.3405 11.5908 34.9374 11.2032 34.4403 11.2032C33.9431 11.2032 33.54 11.5908 33.54 12.0688C33.54 12.5469 33.9431 12.9344 34.4403 12.9344Z" fill="#595959"/>
<path d="M35.2845 11.7705C35.2176 11.6018 35.1011 11.4572 34.9504 11.3559C34.7997 11.2547 34.6219 11.2014 34.4403 11.2032C34.2434 11.2028 34.0517 11.2656 33.8932 11.3824C33.8146 11.4986 33.7725 11.6357 33.7725 11.776C33.7801 11.9714 33.8631 12.1563 34.0041 12.2919C34.145 12.4275 34.333 12.5032 34.5286 12.5032C34.7242 12.5032 34.9122 12.4275 35.0532 12.2919C35.1942 12.1563 35.2772 11.9714 35.2848 11.776C35.2848 11.774 35.2845 11.7723 35.2845 11.7705Z" fill="#666666"/>
<path d="M45.0229 10.8771C45.4627 10.8771 45.8193 10.5081 45.8193 10.0529C45.8193 9.59778 45.4627 9.22882 45.0229 9.22882C44.5831 9.22882 44.2266 9.59778 44.2266 10.0529C44.2266 10.5081 44.5831 10.8771 45.0229 10.8771Z" fill="#595959"/>
<path d="M45.023 9.22882C44.8708 9.2301 44.7222 9.27516 44.5949 9.35848C44.4675 9.44181 44.3668 9.55996 44.3047 9.6989C44.3178 9.9014 44.4066 10.0915 44.5536 10.2314C44.7005 10.3714 44.8948 10.4509 45.0976 10.4541C45.2498 10.4528 45.3984 10.4078 45.5258 10.3245C45.6532 10.2412 45.7538 10.123 45.816 9.98402C45.8029 9.78153 45.714 9.59138 45.567 9.45148C45.4201 9.31151 45.2258 9.23202 45.023 9.22882Z" fill="#666666"/>
<path d="M31.998 45.5914C32.4921 45.5914 32.8926 45.1909 32.8926 44.6969C32.8926 44.2029 32.4921 43.8024 31.998 43.8024C31.504 43.8024 31.1035 44.2029 31.1035 44.6969C31.1035 45.1909 31.504 45.5914 31.998 45.5914Z" fill="#919191"/>
<path d="M31.9982 45.5914C32.4859 45.5914 32.8813 45.196 32.8813 44.7083C32.8813 44.2207 32.4859 43.8253 31.9982 43.8253C31.5106 43.8253 31.1152 44.2207 31.1152 44.7083C31.1152 45.196 31.5106 45.5914 31.9982 45.5914Z" fill="#424242"/>
<path d="M32.0034 45.5744C31.8325 45.5745 31.6652 45.5251 31.5217 45.4323C31.3781 45.3394 31.2645 45.207 31.1945 45.0511C31.1245 44.8952 31.101 44.7223 31.127 44.5534C31.153 44.3844 31.2272 44.2266 31.3408 44.0989C31.2548 44.1915 31.1895 44.3015 31.1494 44.4214C31.1093 44.5414 31.0952 44.6684 31.1082 44.7942C31.121 44.92 31.1607 45.0416 31.2243 45.1508C31.288 45.2601 31.3742 45.3545 31.4773 45.4278C31.5804 45.5011 31.6979 45.5515 31.822 45.5757C31.9461 45.5999 32.0739 45.5974 32.1969 45.5683C32.32 45.5391 32.4354 45.484 32.5355 45.4067C32.6355 45.3295 32.718 45.2317 32.7772 45.12C32.7004 45.2577 32.5881 45.3725 32.4521 45.4523C32.316 45.5322 32.1612 45.5744 32.0034 45.5744Z" fill="#919191"/>
<path d="M31.9925 45.5135C32.4404 45.5135 32.8034 45.1505 32.8034 44.7027C32.8034 44.2548 32.4404 43.8918 31.9925 43.8918C31.5447 43.8918 31.1816 44.2548 31.1816 44.7027C31.1816 45.1505 31.5447 45.5135 31.9925 45.5135Z" fill="#8B8B8B"/>
<path d="M32.7976 44.6086C32.8186 44.8211 32.7548 45.0333 32.6203 45.1992C32.4857 45.365 32.2911 45.471 32.0789 45.4943C31.8666 45.5176 31.6537 45.4561 31.4865 45.3233C31.3192 45.1905 31.2111 44.9972 31.1855 44.7852C31.1961 44.8918 31.2277 44.9954 31.2785 45.0898C31.3293 45.1842 31.3983 45.2676 31.4815 45.3352C31.5648 45.4028 31.6606 45.4531 31.7635 45.4834C31.8664 45.5137 31.9742 45.5233 32.0808 45.5116C32.1873 45.4999 32.2906 45.4672 32.3844 45.4154C32.4783 45.3636 32.561 45.2936 32.6276 45.2097C32.6943 45.1257 32.7436 45.0294 32.7728 44.9261C32.802 44.823 32.8104 44.7151 32.7976 44.6086Z" fill="#B2B2B2"/>
<path d="M31.9925 45.3837C32.3687 45.3837 32.6736 45.0788 32.6736 44.7026C32.6736 44.3265 32.3687 44.0216 31.9925 44.0216C31.6164 44.0216 31.3115 44.3265 31.3115 44.7026C31.3115 45.0788 31.6164 45.3837 31.9925 45.3837Z" fill="#666666"/>
<path d="M31.9925 45.323C32.3351 45.323 32.6129 45.0453 32.6129 44.7026C32.6129 44.36 32.3351 44.0822 31.9925 44.0822C31.6498 44.0822 31.3721 44.36 31.3721 44.7026C31.3721 45.0453 31.6498 45.323 31.9925 45.323Z" fill="#B2B2B2"/>
<path d="M31.9926 45.3144C32.3305 45.3144 32.6044 45.0405 32.6044 44.7027C32.6044 44.3648 32.3305 44.0909 31.9926 44.0909C31.6548 44.0909 31.3809 44.3648 31.3809 44.7027C31.3809 45.0405 31.6548 45.3144 31.9926 45.3144Z" fill="#8B8B8B"/>
<path opacity="0.76" d="M28.2652 42.6766C26.8223 42.6766 25.1981 42.5558 24.0917 41.6466C22.4398 40.2891 21.9503 36.6065 22.043 33.6118C22.1006 31.7564 23.1886 30.1763 24.7502 29.6794C26.524 29.115 29.5797 28.5457 32.4079 28.5457C33.1384 28.5423 33.8685 28.5861 34.5934 28.677C36.5873 28.9394 38.103 29.5057 39.0198 31.4168C39.5897 32.6279 39.9956 33.9095 40.2268 35.2278C40.4939 36.7894 40.438 38.1733 40.0642 39.2291C39.7137 40.2202 39.0818 40.9385 38.1862 41.364C35.8202 42.488 33.0521 42.6112 30.1862 42.6448C29.9403 42.6477 29.6891 42.6522 29.4232 42.659C29.0472 42.6685 28.6582 42.6766 28.2648 42.6766H28.2652Z" fill="url(#paint0_linear_11673_28594)"/>
<path opacity="0.3" d="M21.2895 33.4603C21.3578 31.2544 22.6568 29.4402 24.4767 28.8612C27.1075 28.024 31.7861 27.2893 35.3383 27.7567C36.742 27.9413 37.8933 28.2681 38.8116 28.9332C37.7975 27.7837 36.3998 27.304 34.5766 27.0644C31.0246 26.5972 26.3457 27.3318 23.7149 28.1689C21.8949 28.748 20.5958 30.5622 20.5277 32.768C20.4253 36.0634 20.9551 40.2064 22.8833 41.7908C22.9732 41.8647 23.0658 41.9343 23.1612 41.9993C21.6275 40.1645 21.1965 36.4611 21.2895 33.4603Z" fill="#0A0A0A"/>
<path opacity="0.68" d="M36.7759 34.3328C37.4144 34.2101 37.774 33.2885 37.5791 32.2745C37.3842 31.2604 36.7085 30.5377 36.07 30.6605C35.4315 30.7832 35.0719 31.7048 35.2669 32.7189C35.4617 33.7329 36.1374 34.4555 36.7759 34.3328Z" fill="white"/>
<path opacity="0.71" d="M37.1068 45.2615C36.0599 45.2615 35.2961 44.9046 35.2493 44.3936C35.1955 43.8058 36.1113 43.2577 37.3343 43.1456C37.4751 43.1328 37.6159 43.1264 37.7538 43.1264C38.8006 43.1264 39.5645 43.4833 39.6112 43.9943C39.6651 44.5821 38.7492 45.1302 37.5263 45.2423C37.3857 45.255 37.2447 45.2615 37.1068 45.2615Z" fill="#424242"/>
<path opacity="0.39" d="M37.5785 45.2073C37.4368 45.2201 37.2946 45.2269 37.1557 45.2269C36.1005 45.2269 35.3306 44.8671 35.2834 44.3521C35.2735 44.1901 35.3252 44.0305 35.4282 43.9052C35.3668 43.9702 35.3194 44.0471 35.2886 44.131C35.2578 44.215 35.2443 44.3043 35.2489 44.3936C35.2957 44.9046 36.0596 45.2615 37.1064 45.2615C37.2443 45.2615 37.3853 45.2551 37.5259 45.2423C38.1501 45.1852 38.6939 45.0143 39.0701 44.7825C38.6944 44.9962 38.1726 45.1529 37.5785 45.2073Z" fill="#C4C4C4"/>
<path opacity="0.39" d="M39.6106 43.9942C39.5638 43.4833 38.8 43.1263 37.7531 43.1263C37.6153 43.1263 37.4741 43.1327 37.3337 43.1455C36.5075 43.2211 35.8221 43.4959 35.4805 43.8473C35.8325 43.5125 36.5002 43.2533 37.299 43.1802C37.4395 43.1674 37.5806 43.161 37.7185 43.161C38.7653 43.161 39.5292 43.5179 39.576 44.0289C39.5934 44.2196 39.5082 44.4061 39.3441 44.5749C39.5311 44.3971 39.6292 44.1984 39.6106 43.9942Z" fill="#C4C4C4"/>
<mask id="mask1_11673_28594" style="mask-type:alpha" maskUnits="userSpaceOnUse" x="35" y="43" width="5" height="3">
<path d="M37.5273 45.1723C38.6794 45.0668 39.5733 44.5429 39.5238 44.0021C39.4743 43.4613 38.5002 43.1084 37.3481 43.2139C36.1959 43.3194 35.302 43.8433 35.3516 44.3841C35.401 44.9249 36.3752 45.2778 37.5273 45.1723Z" fill="#595959"/>
</mask>
<g mask="url(#mask1_11673_28594)">
<path d="M37.5273 45.1723C38.6794 45.0668 39.5733 44.5429 39.5238 44.0021C39.4743 43.4613 38.5002 43.1084 37.3481 43.2139C36.1959 43.3194 35.302 43.8433 35.3516 44.3841C35.401 44.9249 36.3752 45.2778 37.5273 45.1723Z" fill="#595959"/>
<path d="M39.4678 43.9872L34.9502 44.4242L34.9577 44.5021L39.4754 44.0651L39.4678 43.9872Z" fill="#424242"/>
<path d="M39.4532 43.8367L34.9355 44.2737L34.9431 44.3517L39.4607 43.9148L39.4532 43.8367Z" fill="#424242"/>
<path d="M39.4125 43.6818L34.8965 44.1175L34.904 44.1955L39.42 43.7598L39.4125 43.6818Z" fill="#424242"/>
<path d="M39.4238 43.5359L34.9062 43.9729L34.9137 44.0509L39.4314 43.614L39.4238 43.5359Z" fill="#424242"/>
<path d="M39.4092 43.3856L34.8916 43.8226L34.8992 43.9006L39.4168 43.4636L39.4092 43.3856Z" fill="#424242"/>
<path d="M39.3946 43.2352L34.877 43.6722L34.8845 43.7502L39.4021 43.3132L39.3946 43.2352Z" fill="#424242"/>
<path d="M39.3539 43.0804L34.8379 43.5162L34.8454 43.5941L39.3614 43.1584L39.3539 43.0804Z" fill="#424242"/>
<path d="M39.3652 42.9344L34.8477 43.3714L34.8552 43.4493L39.3728 43.0123L39.3652 42.9344Z" fill="#424242"/>
<path d="M39.5254 45.0438L35.0078 45.4808L35.0154 45.5587L39.533 45.1217L39.5254 45.0438Z" fill="#424242"/>
<path d="M39.5108 44.8934L34.9932 45.3304L35.0007 45.4083L39.5183 44.9714L39.5108 44.8934Z" fill="#424242"/>
<path d="M39.4961 44.743L34.9785 45.18L34.9861 45.2579L39.5036 44.8209L39.4961 44.743Z" fill="#424242"/>
<path d="M39.4814 44.5925L34.9639 45.0295L34.9714 45.1075L39.489 44.6705L39.4814 44.5925Z" fill="#424242"/>
<path d="M39.4678 44.4421L34.9502 44.8791L34.9577 44.9571L39.4753 44.5202L39.4678 44.4421Z" fill="#424242"/>
<path d="M39.4532 44.2918L34.9355 44.7288L34.9431 44.8068L39.4607 44.3698L39.4532 44.2918Z" fill="#424242"/>
<path d="M39.4385 44.1414L34.9209 44.5783L34.9285 44.6563L39.4461 44.2194L39.4385 44.1414Z" fill="#424242"/>
<path d="M39.4239 43.991L34.9062 44.428L34.9138 44.5059L39.4314 44.0689L39.4239 43.991Z" fill="#424242"/>
</g>
<path d="M32.0498 44.0443H31.9229V44.6416H32.0498V44.0443Z" fill="#666666"/>
<path d="M32.0498 44.7715H31.9229V45.3717H32.0498V44.7715Z" fill="#666666"/>
<path d="M30.2477 45.0816C30.5786 45.0816 30.8469 44.8133 30.8469 44.4823C30.8469 44.1514 30.5786 43.8831 30.2477 43.8831C29.9167 43.8831 29.6484 44.1514 29.6484 44.4823C29.6484 44.8133 29.9167 45.0816 30.2477 45.0816Z" fill="#919191"/>
<path d="M30.2449 45.0729C30.5694 45.0729 30.8325 44.8098 30.8325 44.4852C30.8325 44.1607 30.5694 43.8976 30.2449 43.8976C29.9203 43.8976 29.6572 44.1607 29.6572 44.4852C29.6572 44.8098 29.9203 45.0729 30.2449 45.0729Z" fill="#424242"/>
<path d="M30.2387 45.0383C30.5409 45.0383 30.7859 44.7933 30.7859 44.491C30.7859 44.1888 30.5409 43.9437 30.2387 43.9437C29.9364 43.9437 29.6914 44.1888 29.6914 44.491C29.6914 44.7933 29.9364 45.0383 30.2387 45.0383Z" fill="#8B8B8B"/>
<path opacity="0.52" d="M30.5617 44.491C30.5617 44.4274 30.5427 44.3652 30.5071 44.3125C30.4715 44.2598 30.421 44.2189 30.3621 44.1951L30.2885 43.9462L30.2821 43.9449C30.25 43.9388 30.2171 43.9391 30.1851 43.9455L30.1829 43.949L30.1221 44.1952C30.0632 44.2191 30.0128 44.26 29.9773 44.3128C29.9417 44.3655 29.9228 44.4276 29.9229 44.4913C29.9229 44.5548 29.9419 44.617 29.9775 44.6696C30.0131 44.7224 30.0637 44.7632 30.1226 44.787L30.1829 45.0312L30.1851 45.0347C30.2176 45.0404 30.2506 45.0416 30.2834 45.0383L30.3079 45.034L30.3612 44.7871C30.4203 44.7634 30.4711 44.7226 30.5068 44.6698C30.5426 44.617 30.5616 44.5547 30.5617 44.491Z" fill="#666666"/>
<path d="M30.2435 45.0054C30.2328 45.0055 30.2221 45.0049 30.2115 45.0036L30.1517 44.7615L30.1353 44.7551C30.0827 44.7339 30.0376 44.6975 30.0059 44.6505C29.9741 44.6036 29.9571 44.5482 29.957 44.4915C29.957 44.4347 29.9739 44.3793 30.0055 44.3323C30.0372 44.2853 30.0823 44.2487 30.1348 44.2275L30.1512 44.2211L30.2115 43.9771C30.2203 43.9762 30.229 43.9756 30.2378 43.9756C30.2455 43.9756 30.2532 43.9761 30.2608 43.977L30.333 44.2214L30.3485 44.2278C30.4011 44.2491 30.4462 44.2855 30.4779 44.3326C30.5096 44.3797 30.5265 44.4352 30.5264 44.4919C30.5264 44.5486 30.5094 44.6041 30.4775 44.6511C30.4457 44.6981 30.4006 44.7345 30.3479 44.7556L30.3309 44.7625L30.2786 45.0045C30.2655 45.0048 30.2541 45.0054 30.2435 45.0054Z" fill="#8B8B8B"/>
<path d="M30.2391 44.7555C30.3852 44.7555 30.5036 44.6371 30.5036 44.491C30.5036 44.3449 30.3852 44.2265 30.2391 44.2265C30.093 44.2265 29.9746 44.3449 29.9746 44.491C29.9746 44.6371 30.093 44.7555 30.2391 44.7555Z" fill="#B2B2B2"/>
<path d="M28.7584 45.0816C29.0894 45.0816 29.3576 44.8133 29.3576 44.4823C29.3576 44.1514 29.0894 43.8831 28.7584 43.8831C28.4275 43.8831 28.1592 44.1514 28.1592 44.4823C28.1592 44.8133 28.4275 45.0816 28.7584 45.0816Z" fill="#919191"/>
<path d="M28.7556 45.0729C29.0802 45.0729 29.3433 44.8098 29.3433 44.4852C29.3433 44.1607 29.0802 43.8976 28.7556 43.8976C28.4311 43.8976 28.168 44.1607 28.168 44.4852C28.168 44.8098 28.4311 45.0729 28.7556 45.0729Z" fill="#424242"/>
<path d="M28.7504 45.0383C29.0527 45.0383 29.2977 44.7933 29.2977 44.491C29.2977 44.1888 29.0527 43.9437 28.7504 43.9437C28.4482 43.9437 28.2031 44.1888 28.2031 44.491C28.2031 44.7933 28.4482 45.0383 28.7504 45.0383Z" fill="#8B8B8B"/>
<path opacity="0.52" d="M29.0724 44.491C29.0724 44.4274 29.0534 44.3652 29.0178 44.3125C28.9822 44.2598 28.9317 44.2189 28.8728 44.1951L28.7992 43.9462L28.7928 43.9449C28.7608 43.9388 28.7279 43.9391 28.6959 43.9455L28.6937 43.949L28.6329 44.1952C28.5739 44.2191 28.5235 44.26 28.488 44.3128C28.4525 44.3655 28.4335 44.4276 28.4336 44.4913C28.4336 44.5548 28.4527 44.617 28.4883 44.6696C28.5238 44.7224 28.5743 44.7632 28.6333 44.787L28.6937 45.0312L28.6959 45.0347C28.7283 45.0404 28.7613 45.0416 28.7941 45.0383L28.8186 45.034L28.872 44.7871C28.9311 44.7634 28.9818 44.7226 29.0175 44.6698C29.0532 44.617 29.0723 44.5547 29.0724 44.491Z" fill="#666666"/>
<path d="M28.7551 45.0054C28.7444 45.0055 28.7337 45.0049 28.7231 45.0036L28.6632 44.7615L28.6469 44.7551C28.5943 44.7339 28.5492 44.6975 28.5175 44.6505C28.4858 44.6036 28.4688 44.5481 28.4688 44.4915C28.4687 44.4348 28.4856 44.3794 28.5172 44.3323C28.5489 44.2853 28.5939 44.2488 28.6464 44.2275L28.6628 44.2211L28.7231 43.9771C28.7318 43.9762 28.7406 43.9756 28.7494 43.9756C28.7571 43.9756 28.7647 43.9761 28.7724 43.977L28.8446 44.2214L28.8601 44.2278C28.9127 44.2491 28.9578 44.2856 28.9895 44.3326C29.0212 44.3797 29.0382 44.4352 29.0381 44.4919C29.038 44.5486 29.0209 44.6041 28.9891 44.6511C28.9573 44.6981 28.9122 44.7345 28.8595 44.7556L28.8425 44.7625L28.7902 45.0045C28.777 45.0048 28.7656 45.0054 28.7551 45.0054Z" fill="#8B8B8B"/>
<path d="M28.7499 44.7555C28.896 44.7555 29.0144 44.6371 29.0144 44.491C29.0144 44.3449 28.896 44.2265 28.7499 44.2265C28.6038 44.2265 28.4854 44.3449 28.4854 44.491C28.4854 44.6371 28.6038 44.7555 28.7499 44.7555Z" fill="#B2B2B2"/>
<path d="M27.3043 45.0816C27.6353 45.0816 27.9035 44.8133 27.9035 44.4823C27.9035 44.1514 27.6353 43.8831 27.3043 43.8831C26.9734 43.8831 26.7051 44.1514 26.7051 44.4823C26.7051 44.8133 26.9734 45.0816 27.3043 45.0816Z" fill="#919191"/>
<path d="M27.3015 45.0729C27.6261 45.0729 27.8892 44.8098 27.8892 44.4852C27.8892 44.1607 27.6261 43.8976 27.3015 43.8976C26.977 43.8976 26.7139 44.1607 26.7139 44.4852C26.7139 44.8098 26.977 45.0729 27.3015 45.0729Z" fill="#424242"/>
<path d="M27.2963 45.0383C27.5986 45.0383 27.8436 44.7933 27.8436 44.491C27.8436 44.1888 27.5986 43.9437 27.2963 43.9437C26.994 43.9437 26.749 44.1888 26.749 44.491C26.749 44.7933 26.994 45.0383 27.2963 45.0383Z" fill="#8B8B8B"/>
<path opacity="0.52" d="M27.5686 44.6608C27.6023 44.607 27.6194 44.5442 27.6173 44.4806C27.6152 44.4171 27.5942 44.3556 27.557 44.304L27.6274 44.0544L27.6228 44.05C27.599 44.0278 27.5709 44.0105 27.5405 43.9988L27.5367 44.0008L27.3542 44.1768C27.2916 44.1656 27.2271 44.1735 27.1689 44.1992C27.1108 44.225 27.0617 44.2676 27.0279 44.3215C26.9942 44.3754 26.9773 44.4381 26.9793 44.5016C26.9814 44.5652 27.0025 44.6267 27.0398 44.6781L26.9609 44.9169V44.9211C26.9854 44.9432 27.0128 44.9618 27.0422 44.9764L27.0653 44.9858L27.2418 44.8052C27.3044 44.8164 27.369 44.8088 27.4272 44.783C27.4855 44.7573 27.5347 44.7147 27.5686 44.6608Z" fill="#666666"/>
<path d="M27.0259 44.9272C27.0169 44.9216 27.0083 44.9154 27 44.9087L27.0781 44.6719L27.0678 44.6577C27.0345 44.6118 27.0157 44.5569 27.0138 44.5002C27.0119 44.4436 27.027 44.3877 27.0572 44.3396C27.0873 44.2915 27.1311 44.2536 27.183 44.2307C27.2348 44.2077 27.2924 44.2007 27.3482 44.2107L27.3656 44.2138L27.5464 44.0393C27.5543 44.0431 27.562 44.0474 27.5695 44.0521C27.576 44.0562 27.5823 44.0607 27.5882 44.0655L27.5193 44.3109L27.5291 44.3244C27.5624 44.3704 27.5811 44.4253 27.5829 44.4821C27.5848 44.5388 27.5696 44.5948 27.5393 44.6428C27.5091 44.6908 27.4652 44.7287 27.4132 44.7516C27.3613 44.7744 27.3037 44.7813 27.2478 44.7711L27.2298 44.7678L27.0566 44.9449C27.0449 44.9384 27.0349 44.9328 27.0259 44.9272Z" fill="#8B8B8B"/>
<path d="M27.2958 44.7555C27.4419 44.7555 27.5603 44.6371 27.5603 44.491C27.5603 44.3449 27.4419 44.2265 27.2958 44.2265C27.1496 44.2265 27.0312 44.3449 27.0312 44.491C27.0312 44.6371 27.1496 44.7555 27.2958 44.7555Z" fill="#B2B2B2"/>
<path d="M43.6891 28.6436C43.1825 26.762 41.6297 26.1008 40.4414 25.3848C37.1185 23.3825 25.876 22.9179 20.919 26.0632C19.833 26.7523 19.0487 27.6147 18.7154 28.6721C18.5554 29.1809 18.3049 31.0401 18.3713 32.5668C18.4377 31.1227 19.6513 28.4424 20.2636 27.8527C21.6081 26.558 24.8524 25.2998 29.7914 24.9811C32.8788 24.7819 36.1322 24.8359 38.5889 25.4459C41.0455 26.0559 42.8133 27.1888 43.5437 28.6661C43.7267 29.0363 43.7762 29.3725 43.9117 29.6193C43.8468 29.2799 43.7726 28.9547 43.6891 28.6436Z" fill="#5E5E5E"/>
<path opacity="0.81" d="M34.5386 11.7825C34.7173 11.7782 34.86 11.682 34.8572 11.5677C34.8544 11.4534 34.7073 11.3642 34.5286 11.3686C34.3498 11.3728 34.2072 11.469 34.21 11.5833C34.2128 11.6976 34.3599 11.7868 34.5386 11.7825Z" fill="#A0A0A0"/>
<path opacity="0.81" d="M45.4414 9.57479C45.4561 9.47501 45.3246 9.37306 45.1477 9.34708C44.9708 9.32109 44.8156 9.38087 44.8009 9.48065C44.7863 9.58042 44.9177 9.68237 45.0946 9.70836C45.2715 9.73434 45.4268 9.6745 45.4414 9.57479Z" fill="#A0A0A0"/>
<path d="M19.2119 26.992C20.0401 25.8444 22.1619 24.087 25.468 23.0392C30.0245 21.5951 33.2835 21.5502 36.4092 22.1281C34.8943 21.6913 33.239 21.4743 31.3532 21.5416C27.4769 21.68 21.4699 23.2727 19.2119 26.992Z" fill="#D34444"/>
<defs>
<linearGradient id="paint0_linear_11673_28594" x1="18.9808" y1="23.5672" x2="36.8596" y2="41.7393" gradientUnits="userSpaceOnUse">
<stop offset="0.231" stop-color="white" stop-opacity="0"/>
<stop offset="1" stop-color="white"/>
</linearGradient>
</defs>
</svg>
