<svg width="192" height="180" viewBox="0 0 192 180" fill="none" xmlns="http://www.w3.org/2000/svg">
<g clip-path="url(#clip0_12403_37477)">
<mask id="mask0_12403_37477" style="mask-type:luminance" maskUnits="userSpaceOnUse" x="0" y="0" width="229" height="228">
<path d="M228.099 0H0.538574V227.56H228.099V0Z" fill="white"/>
</mask>
<g mask="url(#mask0_12403_37477)">
<path d="M69.9899 81.4211C70.3085 83.196 71.0139 84.7207 71.9924 85.8585C69.1707 83.947 65.3477 83.1278 61.4792 84.2656C54.5386 86.3364 49.4185 89.5222 51.0114 95.7801C49.4185 89.4995 43.3654 88.4299 36.7889 88.9761C33.33 89.2719 30.8268 91.0696 29.5525 93.3225C29.8028 92.1619 29.7118 90.7738 29.2339 89.2947C27.5955 84.2883 14.8976 83.1733 10.0961 83.3553C10.0506 83.2643 10.0278 83.1733 9.98232 83.0823C9.93681 82.9912 9.91405 82.9002 9.8913 82.7864C14.0784 80.7612 23.7269 72.5235 21.8837 66.88C21.3148 65.1278 20.4273 63.6486 19.3578 62.5563C22.1568 64.2403 25.684 64.8319 29.1201 63.3301C35.6966 60.4628 40.9305 56.0481 38.7914 47.7877C40.885 56.0481 47.6435 56.8218 55.4943 55.3654C59.8407 54.5462 63.3451 51.5424 65.4842 47.7422C64.9153 49.6537 64.8015 51.7928 65.1884 53.9546C66.622 62.306 74.6094 66.9483 82.5512 64.6727C74.4956 66.3566 68.6701 74.1164 69.9899 81.4211Z" fill="#2BB24B"/>
<path d="M41.1126 55.6385C40.4754 56.8901 36.9027 65.9242 36.9027 68.4046C36.9027 70.885 40.7485 76.1644 44.2074 77.4842C47.6663 78.8041 55.7447 79.2592 59.1126 79.2592C62.4805 79.2592 66.3035 81.1024 69.7851 79.2592C73.2668 77.416 71.8332 75.0494 70.4678 73.7068C69.1252 72.3641 63.7548 69.1555 60.3186 65.7194C56.9052 62.2832 42.2959 53.2946 41.1126 55.6385Z" fill="#2DA046"/>
<g opacity="0.3">
<g opacity="0.3">
<g opacity="0.3">
<path opacity="0.3" d="M82.5057 64.6272C82.1416 64.6955 81.8003 64.7865 81.4362 64.9003C81.7775 64.8092 82.1416 64.7182 82.5057 64.6272Z" fill="#2DA046"/>
</g>
<g opacity="0.3">
<path opacity="0.3" d="M54.2883 56.2529C47.1656 57.6411 40.6347 56.3667 39.1783 50.0861C40.6802 56.3895 36.22 60.7814 30.1214 63.3301C26.9128 64.6727 23.4994 64.9457 21.3148 63.5576C22.0658 64.4679 21.8382 67.062 22.0885 68.6095C22.9533 73.7978 13.9874 79.5551 9.64099 81.6031C9.66375 81.6942 9.66375 81.8079 9.6865 81.899C9.70926 81.99 9.70926 82.1038 9.73202 82.1948C10.2554 82.172 10.8015 82.2175 11.3932 82.2631C20.5866 82.0355 27.2997 70.9533 27.4589 69.0646C28.2782 68.837 36.3565 67.3806 42.5007 59.9849C47.1201 62.8067 54.2655 62.7384 60.1593 58.7561C61.2971 60.3035 69.8079 69.2921 77.1353 66.88C78.4096 65.9925 79.8433 65.3098 81.4362 64.8547C73.8584 66.4931 67.6688 62.3971 65.5525 55.6158C65.0064 53.8863 64.4602 51.2921 64.8015 49.813C63.1859 52.8623 58.2478 55.4792 54.2883 56.2529Z" fill="#3DE260"/>
</g>
</g>
</g>
<path d="M82.5285 64.7407C82.1644 64.8317 81.8231 64.9228 81.459 64.991C81.8231 64.9 82.1644 64.809 82.5285 64.7407Z" fill="#2DA046"/>
<path d="M61.4792 84.2884C54.5386 86.3592 49.4185 89.545 51.0115 95.8029C49.4185 89.5222 43.3654 88.4527 36.789 88.9988C33.33 89.2947 30.8269 91.0924 29.5525 93.3452C29.8029 92.1847 29.7118 90.7966 29.234 89.3174C27.5955 84.3111 14.8977 83.1961 10.0962 83.3781C10.0506 83.2871 10.0279 83.1961 9.98238 83.105C9.93687 83.014 9.91411 82.923 9.89136 82.8092C10.3465 82.5817 13.191 82.081 13.6689 81.7624C17.014 81.6714 23.9318 79.8282 32.9887 84.698C33.8079 84.5159 43.9116 80.2605 48.5993 84.1973C51.3756 79.5551 57.5197 77.4616 64.5968 78.258C64.8926 76.3693 68.9887 69.0191 76.7257 65.1733C78.2504 65.3781 79.8661 65.3098 81.459 64.9685C73.9723 67.0393 68.7384 74.4123 69.99 81.3983C70.3086 83.1733 71.014 84.698 71.9925 85.8358C69.1707 83.9698 65.3477 83.1506 61.4792 84.2884Z" fill="#2DA046"/>
<g opacity="0.29">
<path opacity="0.29" d="M82.5285 64.7407C82.1644 64.8317 81.823 64.9228 81.4589 64.991C81.823 64.9 82.1644 64.809 82.5285 64.7407Z" fill="#2BB24B"/>
</g>
<path d="M69.9899 81.4211C70.3085 83.196 71.0139 84.7207 71.9924 85.8585C69.1707 83.947 65.3477 83.1278 61.4792 84.2656C54.5386 86.3364 49.4185 89.5222 51.0114 95.7801C49.4185 89.4995 43.3654 88.4299 36.7889 88.9761C33.33 89.2719 30.8268 91.0696 29.5525 93.3225C29.8028 92.1619 29.7118 90.7738 29.2339 89.2947C27.5955 84.2883 14.8976 83.1733 10.0961 83.3553C10.0506 83.2643 10.0278 83.1733 9.98232 83.0823C9.93681 82.9912 9.91405 82.9002 9.8913 82.7864C14.0784 80.7611 23.7269 72.5235 21.8837 66.88C21.3148 65.1278 20.4273 63.6486 19.3578 62.5563C22.1568 64.2403 25.684 64.8319 29.1201 63.3301C35.6966 60.4628 40.9305 56.0481 38.7914 47.7877C40.885 56.0481 47.6435 56.8218 55.4943 55.3654C59.8407 54.5462 63.3451 51.5424 65.4842 47.7422C64.9153 49.6537 64.8015 51.7928 65.1884 53.9546C66.622 62.306 74.6094 66.9483 82.5512 64.6727C74.4956 66.3566 68.6701 74.1164 69.9899 81.4211Z" stroke="#34323A" stroke-width="2.73072" stroke-miterlimit="10" stroke-linecap="round" stroke-linejoin="round"/>
<path d="M82.5284 64.7409C82.5284 64.7409 54.311 64.263 31.3957 77.598" stroke="#34323A" stroke-width="2.73072" stroke-miterlimit="10" stroke-linecap="round" stroke-linejoin="round"/>
<path d="M115.957 78.5765C116.571 80.6018 116.617 82.5588 116.185 84.2883C118.142 80.8066 121.714 77.9393 126.357 77.0973C134.731 75.6182 141.762 76.2781 143.355 83.6511C141.717 76.2326 147.497 71.9317 154.688 69.0645C158.488 67.5626 162.038 68.1315 164.564 69.8154C163.699 68.7231 163.062 67.244 162.789 65.4235C161.879 59.3249 174.599 51.4741 179.719 49.153C179.697 49.0392 179.697 48.9254 179.674 48.7889C179.651 48.6751 179.651 48.5613 179.628 48.4475C174.19 48.5386 159.717 44.9659 158.716 38.0708C158.397 35.9317 158.556 33.9292 159.102 32.2225C157.054 35.4539 153.664 37.9115 149.295 38.1618C140.898 38.617 133.115 36.751 130.999 26.9431C133.138 36.7054 126.47 41.0518 117.459 43.6688C112.475 45.1024 107.219 43.8053 102.986 40.9153C104.579 42.622 105.831 44.8066 106.582 47.287C109.449 56.799 103.532 65.8559 94.0203 67.6536C103.305 65.1504 113.477 70.225 115.957 78.5765Z" fill="#2BB24B"/>
<path d="M128.2 47.7877C129.474 47.7877 141.216 47.3553 143.264 55.5247C146.314 67.6536 144.083 65.8559 144.083 67.244C144.083 68.6322 142.855 77.4615 142.855 77.4615L140.807 79.2365C140.807 79.2365 136.893 77.598 136.893 76.665C136.893 75.732 129.633 72.9558 129.633 69.5879C129.633 66.1973 128.223 62.6701 128.223 57.8458C128.2 53.0443 128.2 47.7877 128.2 47.7877Z" fill="#2DA046"/>
<g opacity="0.3">
<g opacity="0.3">
<g opacity="0.3">
<path opacity="0.3" d="M94.0203 67.5397C94.4299 67.4259 94.8622 67.3349 95.2718 67.2666C94.8395 67.3576 94.4299 67.4714 94.0203 67.5397Z" fill="#2DA046"/>
</g>
<g opacity="0.3">
<path opacity="0.3" d="M119.166 43.9646C127.358 41.689 133.525 36.9102 131.75 29.5601C133.502 36.9558 140.465 39.2086 148.202 38.6852C152.276 38.4121 155.985 36.9103 157.555 34.2933C157.236 35.6587 158.852 38.2529 159.376 39.9823C161.196 45.8761 173.621 47.196 179.264 47.0594C179.31 47.1732 179.355 47.287 179.378 47.4008C179.424 47.5145 179.446 47.6283 179.492 47.7421C178.946 47.9924 178.377 48.311 177.808 48.6979C168.046 53.2946 155.188 45.2162 154.051 43.3047C153.095 43.5095 143.856 46.2175 133.525 41.689C130.18 47.0594 122.647 50.7459 114.364 49.6764C113.977 51.9065 109.79 65.7876 100.824 67.1302C99.0266 66.8799 97.1606 66.9027 95.2719 67.2668C104.078 64.9912 108.402 57.4589 107.059 49.244C106.718 47.1504 105.944 44.1467 104.807 42.7813C108.083 45.0797 114.614 45.2162 119.166 43.9646Z" fill="#3DE260"/>
</g>
</g>
</g>
<path d="M94.0431 67.6764C94.4755 67.5854 94.8851 67.4944 95.2947 67.3806C94.8623 67.4716 94.4527 67.5627 94.0431 67.6764Z" fill="#2DA046"/>
<path d="M126.357 77.0973C134.731 75.6182 141.762 76.2781 143.355 83.651C141.717 76.2326 147.497 71.9317 154.688 69.0645C158.488 67.5626 162.038 68.1315 164.564 69.8154C163.699 68.7231 163.062 67.244 162.789 65.4235C161.879 59.3249 174.599 51.4741 179.719 49.1529C179.697 49.0392 179.697 48.9254 179.674 48.7888C179.651 48.6751 179.651 48.5613 179.628 48.4475C179.014 48.4475 175.783 49.426 175.123 49.335C171.573 50.9734 163.358 52.7029 156.44 62.5562C155.484 62.7838 142.673 63.6258 139.805 70.2478C134.458 66.8571 126.926 67.8811 119.939 72.4323C118.62 70.5891 110.496 65.0594 100.346 65.1049C98.8446 66.1062 97.1379 66.8799 95.2719 67.3805C104.192 65.6055 113.59 70.5891 115.934 78.5765C116.549 80.6017 116.594 82.5588 116.162 84.2882C118.142 80.8066 121.692 77.9393 126.357 77.0973Z" fill="#2DA046"/>
<g opacity="0.29">
<path opacity="0.29" d="M94.043 67.6764C94.4754 67.5854 94.885 67.4944 95.2946 67.3806C94.8622 67.4716 94.4526 67.5627 94.043 67.6764Z" fill="#2BB24B"/>
</g>
<path d="M115.957 78.5765C116.571 80.6018 116.617 82.5588 116.185 84.2883C118.142 80.8066 121.714 77.9393 126.357 77.0973C134.731 75.6182 141.762 76.2781 143.355 83.6511C141.717 76.2326 147.497 71.9317 154.688 69.0645C158.488 67.5626 162.038 68.1315 164.564 69.8154C163.699 68.7231 163.062 67.244 162.789 65.4235C161.879 59.3249 174.599 51.4741 179.719 49.153C179.697 49.0392 179.697 48.9254 179.674 48.7889C179.651 48.6751 179.651 48.5613 179.628 48.4475C174.19 48.5386 159.717 44.9659 158.716 38.0708C158.397 35.9317 158.556 33.9292 159.102 32.2225C157.054 35.4539 153.664 37.9115 149.295 38.1618C140.898 38.6169 133.115 36.751 130.999 26.9431C133.138 36.7054 126.47 41.0518 117.459 43.6688C112.475 45.1024 107.219 43.8053 102.986 40.9153C104.579 42.622 105.831 44.8066 106.582 47.287C109.449 56.799 103.532 65.8559 94.0203 67.6536C103.305 65.1504 113.477 70.225 115.957 78.5765Z" stroke="#34323A" stroke-width="2.73072" stroke-miterlimit="10" stroke-linecap="round" stroke-linejoin="round"/>
<path d="M94.043 67.6762C94.043 67.6762 126.812 56.1617 158.738 51.4512" stroke="#34323A" stroke-width="2.73072" stroke-miterlimit="10" stroke-linecap="round" stroke-linejoin="round"/>
<path d="M107.537 68.7915C109.244 69.3831 110.632 70.3161 111.611 71.4767C110.177 68.3819 109.972 64.4906 111.702 60.8496C114.842 54.3187 118.801 49.7675 124.718 52.3389C118.779 49.7675 118.665 43.6461 120.258 37.2289C121.1 33.861 123.284 31.6764 125.697 30.7662C124.513 30.8345 123.148 30.5159 121.783 29.8105C117.095 27.4211 118.005 14.7005 118.938 9.96722C118.847 9.9217 118.756 9.87619 118.665 9.80792C118.574 9.76241 118.483 9.7169 118.392 9.67139C115.729 13.4944 106.058 21.7321 100.801 19.0013C99.163 18.1594 97.8432 17.0443 96.933 15.8155C98.1618 18.8421 98.1618 22.4147 96.1593 25.5778C92.2907 31.6082 87.1251 36.0911 79.2743 32.6777C87.1024 36.0456 86.7838 42.8496 84.1213 50.3819C82.6194 54.5462 79.115 57.5273 75.0189 59.0292C76.9987 58.7788 79.1378 59.0064 81.2086 59.7118C89.2187 62.4426 92.541 71.0671 89.0594 78.5538C91.9494 70.8623 100.528 66.3566 107.537 68.7915Z" fill="#2BB24B"/>
<g opacity="0.3">
<g opacity="0.3">
<g opacity="0.3">
<path opacity="0.3" d="M88.9684 78.4854C89.1049 78.1441 89.2415 77.8027 89.4007 77.4841C89.2642 77.8255 89.1277 78.1668 88.9684 78.4854Z" fill="#2DA046"/>
</g>
<g opacity="0.3">
<path opacity="0.3" d="M85.1681 49.335C87.6485 42.531 87.4437 35.8862 81.4589 33.4514C87.4437 35.9318 92.4956 32.2225 95.9772 26.6018C97.8205 23.6435 98.6169 20.3211 97.5929 17.9318C98.3666 18.8192 100.984 19.0013 102.463 19.5019C107.446 21.1859 114.546 13.2213 117.277 9.26172C117.368 9.28447 117.482 9.30723 117.573 9.35274C117.664 9.3755 117.755 9.42101 117.868 9.44377C117.777 9.9444 117.709 10.5133 117.686 11.0822C116.025 20.1391 104.01 25.0089 102.121 24.8496C101.78 25.6233 99.0493 33.3603 90.7889 38.2529C92.8369 43.2592 91.6536 50.3136 86.7838 55.5019C88.1264 56.8673 95.6814 66.6751 92.1315 73.5702C91.0619 74.6852 90.1517 76.0051 89.469 77.4842C92.2907 70.2478 89.1959 63.512 82.8698 60.349C81.2541 59.5297 78.7737 58.5967 77.2718 58.6878C80.4121 57.5727 83.7572 53.1125 85.1681 49.335Z" fill="#3DE260"/>
</g>
</g>
</g>
<path d="M89.0822 78.5538C89.2415 78.2124 89.378 77.8711 89.5146 77.5525C89.3553 77.8711 89.196 78.1897 89.0822 78.5538Z" fill="#2DA046"/>
<path d="M111.702 60.8496C114.842 54.3187 118.802 49.7675 124.718 52.3389C118.779 49.7675 118.665 43.6461 120.258 37.2289C121.1 33.861 123.284 31.6764 125.697 30.7662C124.513 30.8345 123.148 30.5159 121.783 29.8105C117.095 27.4211 118.005 14.7005 118.938 9.96722C118.847 9.9217 118.756 9.87619 118.665 9.80792C118.574 9.76241 118.483 9.7169 118.392 9.67139C118.096 10.1038 117.163 12.8117 116.754 13.2441C116.139 16.5209 113.226 23.0747 116.594 32.7687C116.276 33.5424 110.473 42.8496 113.636 48.1063C108.63 50.1316 105.58 55.8433 105.262 62.966C103.35 62.966 95.4539 65.8332 90.4248 72.8876C90.3793 74.435 90.0607 76.0051 89.4691 77.5298C92.6777 70.4754 100.824 66.4476 107.515 68.7915C109.221 69.3831 110.609 70.3161 111.588 71.4767C110.177 68.3819 109.949 64.4906 111.702 60.8496Z" fill="#2DA046"/>
<g opacity="0.29">
<path opacity="0.29" d="M89.0822 78.5538C89.2414 78.2124 89.378 77.8711 89.5145 77.5525C89.3552 77.8711 89.1959 78.1897 89.0822 78.5538Z" fill="#2BB24B"/>
</g>
<path d="M107.537 68.7915C109.244 69.3831 110.632 70.3161 111.611 71.4767C110.177 68.3819 109.972 64.4906 111.702 60.8496C114.842 54.3187 118.801 49.7675 124.718 52.3389C118.779 49.7675 118.665 43.6461 120.258 37.2289C121.1 33.861 123.284 31.6764 125.697 30.7662C124.513 30.8345 123.148 30.5159 121.783 29.8105C117.095 27.4211 118.005 14.7005 118.938 9.96722C118.847 9.9217 118.756 9.87619 118.665 9.80792C118.574 9.76241 118.483 9.7169 118.392 9.67139C115.729 13.4944 106.058 21.7321 100.801 19.0013C99.163 18.1594 97.8432 17.0443 96.933 15.8155C98.1618 18.8421 98.1618 22.4147 96.1593 25.5778C92.2907 31.6082 87.1251 36.0911 79.2743 32.6777C87.1024 36.0456 86.7838 42.8496 84.1213 50.3819C82.6194 54.5462 79.115 57.5273 75.0189 59.0292C76.9987 58.7788 79.1378 59.0064 81.2086 59.7118C89.2187 62.4426 92.541 71.0671 89.0594 78.5538C91.9494 70.8623 100.528 66.3566 107.537 68.7915Z" stroke="#34323A" stroke-width="2.73072" stroke-miterlimit="10" stroke-linecap="round" stroke-linejoin="round"/>
<path d="M89.0822 78.5537C89.0822 78.5537 96.5916 52.5663 109.267 31.7673" stroke="#34323A" stroke-width="2.73072" stroke-miterlimit="10" stroke-linecap="round" stroke-linejoin="round"/>
<path d="M72.9482 58.0279C71.9242 59.2339 71.3097 60.5765 71.1049 61.8736C70.7864 58.9154 69.1934 55.8888 66.2352 53.9546C60.933 50.4729 55.9267 48.8344 52.6498 53.4539C55.9494 48.8572 53.2642 44.215 49.1909 40.1189C47.0291 37.9571 44.4349 37.3199 42.2048 37.7295C43.1151 37.2516 44.0025 36.4097 44.708 35.2491C47.1429 31.3351 40.7257 22.2099 37.9039 19.1151C37.9494 19.0468 37.995 18.9558 38.0405 18.8875C38.086 18.8193 38.1315 18.7283 38.177 18.66C41.8862 20.3212 52.8546 22.1417 55.5626 17.727C56.4046 16.3616 56.9052 14.928 57.019 13.6082C57.4741 16.4299 59.067 19.1151 62.0025 20.5715C67.6233 23.3477 73.5171 24.3717 77.8635 18.2731C73.5171 24.3262 76.8167 29.287 82.2099 33.7245C85.2137 36.1821 89.196 36.8193 92.928 36.1138C91.335 36.8193 89.8331 37.9343 88.6043 39.4135C83.8256 45.0797 85.2137 53.0443 91.2213 57.0721C85.555 52.5664 77.0898 53.0443 72.9482 58.0279Z" fill="#2BB24B"/>
<g opacity="0.3">
<g opacity="0.3">
<g opacity="0.3">
<path opacity="0.3" d="M91.2212 56.9356C90.9709 56.7308 90.6978 56.5487 90.4475 56.3667C90.6978 56.5715 90.9709 56.7536 91.2212 56.9356Z" fill="#2DA046"/>
</g>
<g opacity="0.3">
<path opacity="0.3" d="M80.9355 33.3602C75.9975 29.3779 73.1757 24.3033 76.5436 19.7749C73.1757 24.3261 67.7143 23.8254 62.5714 21.1857C59.8635 19.7976 57.7472 17.6586 57.4513 15.4285C57.2693 16.4525 55.4033 17.7723 54.5158 18.7964C51.5348 22.3008 42.6372 19.5245 38.7914 17.7951C38.7231 17.8634 38.6776 17.9316 38.6094 17.9999C38.5411 18.0682 38.4956 18.1364 38.4273 18.2047C38.7231 18.546 39.019 18.9329 39.3148 19.3653C44.6397 25.3956 55.8357 23.6434 57.201 22.6649C57.7927 23.0745 63.3451 27.6712 71.7421 27.6029C72.4475 32.2679 76.5436 37.0239 82.5284 38.7306C82.1416 40.369 80.9128 51.1099 86.67 54.6826C87.9671 55.0239 89.2415 55.6156 90.4475 56.412C85.0771 52.2704 84.3489 45.8077 87.6713 40.5966C88.5133 39.254 89.9469 37.4335 91.1302 36.8191C88.2174 37.388 83.689 35.5675 80.9355 33.3602Z" fill="#3DE260"/>
</g>
</g>
</g>
<path d="M91.1757 57.0267C90.9027 56.8446 90.6524 56.6626 90.402 56.4578C90.6751 56.6398 90.9254 56.8219 91.1757 57.0267Z" fill="#2DA046"/>
<path d="M66.2352 53.9545C60.933 50.4728 55.9267 48.8344 52.6498 53.4538C55.9494 48.8571 53.2642 44.2149 49.1909 40.1188C47.0291 37.957 44.4349 37.3198 42.2048 37.7294C43.1151 37.2516 44.0025 36.4096 44.708 35.249C47.1429 31.335 40.7257 22.2098 37.9039 19.115C37.9494 19.0468 37.995 18.9557 38.0405 18.8875C38.086 18.8192 38.1315 18.7282 38.177 18.6599C38.5866 18.842 40.5209 20.4576 41.0215 20.5942C42.9558 22.7787 48.0986 26.3742 49.9419 35.158C50.5335 35.6131 59.067 39.9595 59.067 45.33C63.732 44.579 68.579 47.4918 72.0379 52.6801C73.4716 51.8154 80.6852 50.4045 87.6258 53.4311C88.354 54.5689 89.3097 55.5929 90.4248 56.4804C84.8268 52.6346 76.9305 53.2946 72.9709 58.0506C71.9469 59.2566 71.3325 60.5992 71.1277 61.8963C70.7864 58.9153 69.1934 55.9115 66.2352 53.9545Z" fill="#2DA046"/>
<g opacity="0.29">
<path opacity="0.29" d="M91.1757 57.0267C90.9027 56.8446 90.6524 56.6626 90.402 56.4578C90.6751 56.6398 90.9254 56.8219 91.1757 57.0267Z" fill="#2BB24B"/>
</g>
<path d="M72.9482 58.0279C71.9242 59.2339 71.3097 60.5765 71.1049 61.8736C70.7864 58.9154 69.1934 55.8888 66.2352 53.9546C60.933 50.4729 55.9267 48.8344 52.6498 53.4539C55.9494 48.8572 53.2642 44.215 49.1909 40.1189C47.0291 37.9571 44.4349 37.3199 42.2048 37.7295C43.1151 37.2516 44.0025 36.4097 44.708 35.2491C47.1429 31.3351 40.7257 22.2099 37.9039 19.1151C37.9494 19.0468 37.995 18.9558 38.0405 18.8875C38.086 18.8193 38.1315 18.7283 38.177 18.66C41.8862 20.3212 52.8546 22.1417 55.5626 17.727C56.4046 16.3616 56.9052 14.928 57.019 13.6082C57.4741 16.4299 59.067 19.1151 62.0025 20.5715C67.6233 23.3477 73.5171 24.3717 77.8635 18.2731C73.5171 24.3262 76.8167 29.287 82.2099 33.7245C85.2137 36.1821 89.196 36.8193 92.928 36.1138C91.335 36.8193 89.8331 37.9343 88.6043 39.4135C83.8256 45.0797 85.2137 53.0443 91.2213 57.0721C85.555 52.5664 77.0898 53.0443 72.9482 58.0279Z" stroke="#34323A" stroke-width="2.73072" stroke-miterlimit="10" stroke-linecap="round" stroke-linejoin="round"/>
<path d="M91.1757 57.0265C91.1757 57.0265 79.1378 37.0923 57.3831 30.5613" stroke="#34323A" stroke-width="2.73072" stroke-miterlimit="10" stroke-linecap="round" stroke-linejoin="round"/>
<path d="M101.461 53.3174C107.456 53.3174 112.316 48.4576 112.316 42.4628C112.316 36.4679 107.456 31.6082 101.461 31.6082C95.4666 31.6082 90.6069 36.4679 90.6069 42.4628C90.6069 48.4576 95.4666 53.3174 101.461 53.3174Z" fill="white"/>
<path d="M101.461 53.3174C107.456 53.3174 112.316 48.4576 112.316 42.4628C112.316 36.4679 107.456 31.6082 101.461 31.6082C95.4666 31.6082 90.6069 36.4679 90.6069 42.4628C90.6069 48.4576 95.4666 53.3174 101.461 53.3174Z" fill="#BA3183"/>
<path opacity="0.2" d="M109.563 35.2263C109.745 36 109.836 36.8192 109.836 37.6612C109.836 43.6688 104.966 48.5158 98.9811 48.5158C95.7498 48.5158 92.8598 47.105 90.88 44.8749C91.995 49.6991 96.2959 53.2946 101.462 53.2946C107.469 53.2946 112.316 48.4248 112.316 42.44C112.316 39.6865 111.269 37.1606 109.563 35.2263Z" fill="#444444"/>
<path d="M101.461 53.3174C107.456 53.3174 112.316 48.4576 112.316 42.4628C112.316 36.4679 107.456 31.6082 101.461 31.6082C95.4666 31.6082 90.6069 36.4679 90.6069 42.4628C90.6069 48.4576 95.4666 53.3174 101.461 53.3174Z" stroke="#34323A" stroke-width="2.73072" stroke-miterlimit="10" stroke-linecap="round" stroke-linejoin="round"/>
<path d="M100.665 39.8003C101.834 39.8003 102.781 38.965 102.781 37.9346C102.781 36.904 101.834 36.0684 100.665 36.0684C99.4961 36.0684 98.5488 36.904 98.5488 37.9346C98.5488 38.965 99.4961 39.8003 100.665 39.8003Z" fill="white"/>
<path d="M84.531 61.0999C91.016 61.0999 96.2731 55.8428 96.2731 49.3578C96.2731 42.8728 91.016 37.6157 84.531 37.6157C78.046 37.6157 72.7889 42.8728 72.7889 49.3578C72.7889 55.8428 78.046 61.0999 84.531 61.0999Z" fill="white"/>
<path d="M84.531 61.0999C91.016 61.0999 96.2731 55.8428 96.2731 49.3578C96.2731 42.8728 91.016 37.6157 84.531 37.6157C78.046 37.6157 72.7889 42.8728 72.7889 49.3578C72.7889 55.8428 78.046 61.0999 84.531 61.0999Z" fill="#BA3183"/>
<path opacity="0.2" d="M93.292 41.5525C93.4968 42.3945 93.5878 43.2819 93.5878 44.1922C93.5878 50.6776 88.3312 55.9343 81.8457 55.9343C78.364 55.9343 75.2237 54.4096 73.0847 51.9975C74.2907 57.2086 78.9557 61.0999 84.5309 61.0999C91.0164 61.0999 96.273 55.8433 96.273 49.3578C96.273 46.354 95.158 43.6233 93.292 41.5525Z" fill="#444444"/>
<path d="M84.531 61.0999C91.016 61.0999 96.2731 55.8428 96.2731 49.3578C96.2731 42.8728 91.016 37.6157 84.531 37.6157C78.046 37.6157 72.7889 42.8728 72.7889 49.3578C72.7889 55.8428 78.046 61.0999 84.531 61.0999Z" stroke="#34323A" stroke-width="2.73072" stroke-miterlimit="10" stroke-linecap="round" stroke-linejoin="round"/>
<path d="M83.689 46.4677C84.9583 46.4677 85.9873 45.5711 85.9873 44.4652C85.9873 43.3592 84.9583 42.4626 83.689 42.4626C82.4197 42.4626 81.3906 43.3592 81.3906 44.4652C81.3906 45.5711 82.4197 46.4677 83.689 46.4677Z" fill="white"/>
<path d="M99.1631 67.3804C105.648 67.3804 110.905 62.1233 110.905 55.6383C110.905 49.1536 105.648 43.8962 99.1631 43.8962C92.6781 43.8962 87.421 49.1536 87.421 55.6383C87.421 62.1233 92.6781 67.3804 99.1631 67.3804Z" fill="white"/>
<path d="M99.1631 67.3804C105.648 67.3804 110.905 62.1233 110.905 55.6383C110.905 49.1536 105.648 43.8962 99.1631 43.8962C92.6781 43.8962 87.421 49.1536 87.421 55.6383C87.421 62.1233 92.6781 67.3804 99.1631 67.3804Z" fill="#BA3183"/>
<path opacity="0.2" d="M107.924 47.833C108.129 48.675 108.22 49.5625 108.22 50.4727C108.22 56.9582 102.963 62.2148 96.4779 62.2148C92.9963 62.2148 89.8559 60.6902 87.7169 58.278C88.9229 63.4891 93.5879 67.3804 99.1631 67.3804C105.649 67.3804 110.905 62.1238 110.905 55.6383C110.905 52.6345 109.79 49.9038 107.924 47.833Z" fill="#444444"/>
<path d="M99.1631 67.3804C105.648 67.3804 110.905 62.1233 110.905 55.6383C110.905 49.1536 105.648 43.8962 99.1631 43.8962C92.6781 43.8962 87.421 49.1536 87.421 55.6383C87.421 62.1233 92.6781 67.3804 99.1631 67.3804Z" stroke="#34323A" stroke-width="2.73072" stroke-miterlimit="10" stroke-linecap="round" stroke-linejoin="round"/>
<path d="M98.3211 52.7485C99.5905 52.7485 100.619 51.8521 100.619 50.7459C100.619 49.64 99.5905 48.7434 98.3211 48.7434C97.0518 48.7434 96.0228 49.64 96.0228 50.7459C96.0228 51.8521 97.0518 52.7485 98.3211 52.7485Z" fill="white"/>
<path d="M78.9786 61.7597C78.9786 61.7597 75.77 57.0265 67.4413 48.9026C59.2946 40.9607 49.7371 42.6674 46.5285 46.4677C43.3199 50.2679 40.4072 62.7155 41.2946 68.4045C42.478 76.0277 73.8585 77.5069 76.1341 76.3463C75.8155 67.517 74.2226 64.1491 78.9786 61.7597Z" fill="#EF4141"/>
<path opacity="0.64" d="M74.9507 56.4578C74.9507 56.4578 65.598 64.8775 68.306 70.2707C74.4501 75.0039 76.043 74.9811 76.043 74.9811C76.043 74.9811 75.5652 67.9951 76.703 65.1961C77.8635 62.3971 78.4552 61.0545 78.4552 61.0545L74.9507 56.4578Z" fill="#9B3131"/>
<path opacity="0.64" d="M52.172 43.7825C52.172 43.7825 46.9836 56.3893 47.9621 62.943C41.7952 64.5815 40.8167 64.5587 41.1808 64.0581C41.5449 63.5802 41.8407 59.0062 41.8407 57.9139C41.8407 56.8217 43.1378 47.9923 44.5715 46.1036C46.0051 44.2148 51.1024 43.1908 51.7169 43.2363C52.3313 43.3046 52.172 43.7825 52.172 43.7825Z" fill="#9B3131"/>
<path d="M78.9786 61.7597C78.9786 61.7597 75.77 57.0265 67.4413 48.9026C59.2946 40.9607 49.7371 42.6674 46.5285 46.4677C43.3199 50.2679 40.4072 62.7155 41.2946 68.4045C42.478 76.0277 73.8585 77.5069 76.1341 76.3463C75.8155 67.517 74.2226 64.1491 78.9786 61.7597Z" stroke="#34323A" stroke-width="2.73072" stroke-miterlimit="10" stroke-linecap="round" stroke-linejoin="round"/>
<path d="M41.2719 68.4043C41.1353 67.4941 41.2491 66.3108 41.5449 64.9454C52.3996 56.3209 76.1113 76.3462 76.1113 76.3462C73.8357 77.484 42.4552 76.0276 41.2719 68.4043Z" fill="#9B3131"/>
<path d="M41.2719 68.4043C41.1353 67.4941 41.2491 66.3108 41.5449 64.9454C52.3996 56.3209 76.1113 76.3462 76.1113 76.3462C73.8357 77.484 42.4552 76.0276 41.2719 68.4043Z" stroke="#34323A" stroke-width="2.73072" stroke-miterlimit="10" stroke-linecap="round" stroke-linejoin="round"/>
<path d="M75.7245 70.2703C75.7245 70.2703 66.3262 56.1163 57.5197 55.6384" stroke="#34323A" stroke-width="2.73072" stroke-miterlimit="10" stroke-linecap="round" stroke-linejoin="round"/>
<path d="M68.306 53.8177C68.1012 54.6597 63.1404 50.9505 57.77 50.063C54.5159 49.5168 52.1493 48.7659 52.3541 47.9239C52.5589 47.0819 55.3351 47.0364 58.5437 47.8557C61.7523 48.6521 68.5336 52.9758 68.306 53.8177Z" fill="#FF6E6E"/>
<path d="M103.737 66.2428C103.737 66.2428 107.31 61.7599 116.253 54.3187C124.991 47.0368 134.389 49.4717 137.302 53.5222C140.215 57.5728 142.149 70.1796 140.807 75.8003C139.032 83.3098 107.651 82.3313 105.467 81.0115C106.445 72.2277 108.288 68.9963 103.737 66.2428Z" fill="#EF4141"/>
<path d="M131.431 53.6814C134.003 56.1391 128.427 54.4779 125.219 55.1833C121.987 55.8888 118.346 58.7105 118.164 57.8458C117.982 56.981 122.056 54.1138 125.264 53.4083C128.473 52.7257 130.794 53.0898 131.431 53.6814Z" fill="#FF6E6E"/>
<path opacity="0.64" d="M109.858 61.0999C109.858 61.0999 113.704 64.536 114.478 67.6763C115.252 70.8167 115.934 75.0038 115.934 75.0038L109.836 78.1669C109.836 78.1669 108.379 72.3186 108.379 70.9305C108.379 69.5423 104.807 65.0139 104.807 65.0139L109.858 61.0999Z" fill="#9B3131"/>
<path opacity="0.64" d="M130.794 50.9506C130.794 50.9506 135.186 55.1377 135.482 63.3754C135.732 71.0442 135.482 69.6105 135.482 69.6105L140.807 72.3413C140.807 72.3413 140.807 68.9734 140.807 65.7875C140.807 62.6017 139.214 53.4993 136.278 51.4512C133.343 49.4032 129.611 49.6535 129.611 49.6535C129.611 49.6535 131.181 48.675 130.794 50.9506Z" fill="#9B3131"/>
<path d="M103.737 66.2428C103.737 66.2428 107.31 61.7599 116.253 54.3187C124.991 47.0368 134.389 49.4717 137.302 53.5222C140.215 57.5728 142.149 70.1796 140.807 75.8003C139.032 83.3098 107.651 82.3313 105.467 81.0115C106.445 72.2277 108.288 68.9963 103.737 66.2428Z" stroke="#34323A" stroke-width="2.73072" stroke-miterlimit="10" stroke-linecap="round" stroke-linejoin="round"/>
<path d="M140.807 75.8002C141.011 74.8899 141.011 73.7066 140.807 72.3412C130.635 62.8975 105.466 81.0113 105.466 81.0113C107.628 82.3311 139.032 83.3324 140.807 75.8002Z" fill="#9B3131"/>
<path d="M140.807 75.8002C141.011 74.8899 141.011 73.7066 140.807 72.3412C130.635 62.8975 105.466 81.0113 105.466 81.0113C107.628 82.3311 139.032 83.3324 140.807 75.8002Z" stroke="#34323A" stroke-width="2.73072" stroke-miterlimit="10" stroke-linecap="round" stroke-linejoin="round"/>
<path d="M106.308 75.0037C106.308 75.0037 116.776 61.6232 125.606 61.828" stroke="#34323A" stroke-width="2.73072" stroke-miterlimit="10" stroke-linecap="round" stroke-linejoin="round"/>
<path d="M95.7042 64.2401C90.0152 66.6295 87.3527 73.1605 89.7193 78.8267C92.086 84.4929 98.6397 87.1782 104.306 84.8115C109.995 82.4222 112.657 75.8912 110.291 70.2249C107.924 64.5359 101.393 61.8735 95.7042 64.2401ZM102.326 80.0555C99.2769 81.3299 95.7497 79.8962 94.4754 76.8469C93.201 73.7976 94.6346 70.2704 97.684 68.9961C100.733 67.7218 104.26 69.1554 105.535 72.2047C106.832 75.2768 105.375 78.7812 102.326 80.0555Z" fill="#FBDB60"/>
<path d="M95.7042 64.2401C90.0152 66.6295 87.3527 73.1605 89.7193 78.8267C92.086 84.4929 98.6397 87.1782 104.306 84.8115C109.995 82.4222 112.657 75.8912 110.291 70.2249C107.924 64.5359 101.393 61.8735 95.7042 64.2401ZM102.326 80.0555C99.2769 81.3299 95.7497 79.8962 94.4754 76.8469C93.201 73.7976 94.6346 70.2704 97.684 68.9961C100.733 67.7218 104.26 69.1554 105.535 72.2047C106.832 75.2768 105.375 78.7812 102.326 80.0555Z" stroke="#34323A" stroke-width="2.73072" stroke-miterlimit="10" stroke-linecap="round" stroke-linejoin="round"/>
<path d="M120.349 157.472C126.419 157.472 131.34 152.551 131.34 146.48C131.34 140.41 126.419 135.489 120.349 135.489C114.279 135.489 109.358 140.41 109.358 146.48C109.358 152.551 114.279 157.472 120.349 157.472Z" fill="#705C51"/>
<path d="M130.68 142.771C130.612 142.589 130.544 142.407 130.475 142.225C128.132 136.627 121.692 133.987 116.094 136.331C115.912 136.4 115.73 136.491 115.547 136.582C115.547 136.582 115.547 136.582 115.525 136.582C110.314 139.108 107.924 145.297 110.2 150.713C110.359 151.077 110.518 151.419 110.7 151.76L120.212 147.778C122.898 146.663 125.469 149.553 124.058 152.078C122.602 154.695 120.281 156.766 117.732 157.153C119.939 157.699 122.329 157.563 124.582 156.607C129.998 154.331 132.66 148.233 130.68 142.771Z" fill="#5B4C45"/>
<path d="M120.349 157.472C126.419 157.472 131.34 152.551 131.34 146.48C131.34 140.41 126.419 135.489 120.349 135.489C114.279 135.489 109.358 140.41 109.358 146.48C109.358 152.551 114.279 157.472 120.349 157.472Z" stroke="#34323A" stroke-width="2.73072" stroke-miterlimit="10" stroke-linecap="round" stroke-linejoin="round"/>
<path d="M119.12 153.171C116.936 152.761 114.979 151.305 114.046 149.097C113.727 148.346 113.568 147.573 113.522 146.822" stroke="#34323A" stroke-width="2.73072" stroke-miterlimit="10" stroke-linecap="round" stroke-linejoin="round"/>
<path d="M151.252 112.301C147.633 110.753 142.809 108.774 140.42 105.406C135.436 98.3742 131.568 91.4108 126.357 85.608C119.712 78.4399 109.517 76.096 101.985 79.2591C94.4526 82.4222 88.9684 91.3198 89.4235 101.082C89.9014 108.865 92.1315 116.511 93.6562 124.999C94.3843 129.072 92.4046 133.896 90.9709 137.56C89.7421 140.723 89.5601 144.273 90.5158 147.777C91.4488 151.214 95.0898 153.125 98.4349 151.942C108.243 148.483 117.96 144.41 127.585 140.382C137.166 136.377 147.042 132.235 156.281 127.729C159.467 126.182 160.673 122.222 158.875 119.173C157.032 115.987 154.369 113.621 151.252 112.301Z" fill="#DDB458"/>
<path opacity="0.45" d="M91.6309 135.808C91.4033 136.399 91.1758 136.991 90.971 137.537C89.7421 140.7 89.5601 144.25 90.5158 147.755C91.4488 151.191 95.0898 153.102 98.4349 151.919C108.243 148.46 117.96 144.387 127.585 140.359C137.166 136.354 147.042 132.212 156.281 127.707C159.467 126.159 160.673 122.2 158.875 119.15C157.054 116.01 154.392 113.643 151.274 112.324C150.728 112.096 150.182 111.846 149.59 111.595C138.554 115.828 125.97 120.721 119.735 123.338C113.75 125.818 102.03 131.097 91.6309 135.808Z" fill="#FBDB60"/>
<path d="M93.6334 148.255C92.6549 144.66 92.8369 140.996 94.1113 137.742C95.5677 133.965 97.6157 129.004 96.8648 124.84C95.2946 116.124 92.9962 108.25 92.5184 100.24C92.1088 90.9558 96.8875 82.4223 103.76 78.6221C103.168 78.8041 102.577 79.0089 102.008 79.2365C94.4754 82.3996 88.9912 91.2972 89.4463 101.059C89.9242 108.842 92.1543 116.488 93.6789 124.976C94.4071 129.049 92.4273 133.874 90.9937 137.537C89.7649 140.7 89.5828 144.25 90.5386 147.755C91.3123 150.668 94.0658 152.488 96.933 152.238C95.3401 151.487 94.1113 150.076 93.6334 148.255Z" fill="#FFD07D"/>
<path opacity="0.31" d="M158.875 119.128C157.032 115.987 154.392 113.621 151.274 112.301C147.656 110.753 142.832 108.774 140.443 105.406C135.459 98.3742 131.59 91.4108 126.379 85.608C119.735 78.4399 109.54 76.096 102.008 79.2591C100.733 79.8053 99.5045 80.5107 98.3667 81.3527C99.9596 81.6712 101.553 82.1491 103.123 82.7863L97.7523 84.3109C97.7523 84.3109 96.5689 84.4702 96.751 87.4058C96.4324 87.3147 96.2504 87.2692 96.2504 87.2692C96.2504 87.2692 91.0847 92.4121 90.4476 93.0493C89.8104 93.6864 89.4236 108.569 87.7851 113.006C86.1467 117.444 85.6916 129.368 84.5993 133.259C80.708 146.549 95.2036 152.26 95.2036 152.26C95.2036 152.26 99.4817 150.258 103.009 150.258C106.536 150.258 111.178 146.48 111.178 146.48C111.178 146.48 113.704 145.502 113.545 141.588C113.477 139.563 114.068 135.489 111.315 129.664C109.312 125.408 106.832 123.679 105.467 120.197C104.329 117.284 103.737 111.118 103.441 105.019C105.535 108.182 107.082 110.367 107.697 111.209C108.038 111.664 108.516 112.005 109.062 112.142C110.109 112.369 113.135 113.166 113.135 108.114C110.882 97.0771 113.454 94.9152 114.387 91.6384C119.143 94.1415 121.828 102.994 127.995 111.231C130.703 114.85 135.778 117.125 139.669 118.855C143.014 120.334 145.881 122.951 147.884 126.387C148.794 127.957 148.999 129.709 148.635 131.325C151.229 130.142 153.8 128.935 156.326 127.707C159.489 126.136 160.65 122.177 158.875 119.128Z" fill="#EF7E20"/>
<path d="M151.252 112.301C147.633 110.753 142.809 108.774 140.42 105.406C135.436 98.3742 131.568 91.4108 126.357 85.608C119.712 78.4399 109.517 76.096 101.985 79.2591C94.4526 82.4222 88.9684 91.3198 89.4235 101.082C89.9014 108.865 92.1315 116.511 93.6562 124.999C94.3843 129.072 92.4046 133.896 90.9709 137.56C89.7421 140.723 89.5601 144.273 90.5158 147.777C91.4488 151.214 95.0898 153.125 98.4349 151.942C108.243 148.483 117.96 144.41 127.585 140.382C137.166 136.377 147.042 132.235 156.281 127.729C159.467 126.182 160.673 122.222 158.875 119.173C157.032 115.987 154.369 113.621 151.252 112.301Z" stroke="#34323A" stroke-width="2.73072" stroke-miterlimit="10" stroke-linecap="round" stroke-linejoin="round"/>
<path d="M96.4096 144.979C95.4311 143.59 96.6827 141.611 97.3199 140.018L97.5019 139.563C97.8888 138.584 98.2984 137.537 98.6852 136.422" stroke="white" stroke-width="2.73072" stroke-miterlimit="10" stroke-linecap="round" stroke-linejoin="round"/>
<path d="M96.2276 100.718C96.0911 97.3728 96.933 93.9822 98.5942 91.1377" stroke="white" stroke-width="2.73072" stroke-miterlimit="10" stroke-linecap="round" stroke-linejoin="round"/>
<path d="M100.369 123.793C99.8458 120.857 99.2314 118.035 98.6625 115.327C97.8433 111.55 97.0696 107.932 96.6144 104.405" stroke="white" stroke-width="2.73072" stroke-miterlimit="10" stroke-linecap="round" stroke-linejoin="round"/>
<path d="M92.8141 64.4906C92.8141 64.4906 93.201 59.5298 97.6839 61.2365C106.718 64.6727 107.059 77.8029 107.059 77.8029C107.059 77.8029 103.487 78.3945 102.531 78.6449C101.484 78.9407 98.048 80.9205 98.048 80.9205C98.048 80.9205 100.574 62.2833 92.8141 64.4906Z" fill="#B93737"/>
<path d="M92.8141 64.4906C92.8141 64.4906 93.201 59.5298 97.6839 61.2365C106.718 64.6727 107.059 77.8029 107.059 77.8029C107.059 77.8029 103.487 78.3945 102.531 78.6449C101.484 78.9407 98.048 80.9205 98.048 80.9205C98.048 80.9205 100.574 62.2833 92.8141 64.4906Z" stroke="#34323A" stroke-width="2.73072" stroke-miterlimit="10" stroke-linecap="round" stroke-linejoin="round"/>
<path d="M83.029 60.7586C76.9304 59.8938 71.2869 64.1492 70.4222 70.2478C69.5575 76.3464 73.8128 81.9899 79.9114 82.8546C86.0101 83.7194 91.6536 79.464 92.5183 73.3654C93.383 67.244 89.1276 61.6005 83.029 60.7586ZM80.6396 77.7345C77.3628 77.2794 75.0644 74.2301 75.5423 70.9532C75.9974 67.6764 79.0467 65.378 82.3236 65.8559C85.6004 66.311 87.8988 69.3603 87.4209 72.6372C86.9658 75.9141 83.9165 78.1897 80.6396 77.7345Z" fill="#FBDB60"/>
<path opacity="0.44" d="M83.029 60.7586C76.9304 59.8938 71.2869 64.1492 70.4222 70.2478C69.5575 76.3464 73.8128 81.9899 79.9114 82.8546C86.0101 83.7194 91.6536 79.464 92.5183 73.3654C93.383 67.244 89.1276 61.6005 83.029 60.7586ZM80.6396 77.7345C77.3628 77.2794 75.0644 74.2301 75.5423 70.9532C75.9974 67.6764 79.0467 65.378 82.3236 65.8559C85.6004 66.311 87.8988 69.3603 87.4209 72.6372C86.9658 75.9141 83.9165 78.1897 80.6396 77.7345Z" fill="#EF7E20"/>
<path d="M83.029 60.7586C76.9304 59.8938 71.2869 64.1492 70.4222 70.2478C69.5575 76.3464 73.8128 81.9899 79.9114 82.8546C86.0101 83.7194 91.6536 79.464 92.5183 73.3654C93.383 67.244 89.1276 61.6005 83.029 60.7586ZM80.6396 77.7345C77.3628 77.2794 75.0644 74.2301 75.5423 70.9532C75.9974 67.6764 79.0467 65.378 82.3236 65.8559C85.6004 66.311 87.8988 69.3603 87.4209 72.6372C86.9658 75.9141 83.9165 78.1897 80.6396 77.7345Z" stroke="#34323A" stroke-width="2.73072" stroke-miterlimit="10" stroke-linecap="round" stroke-linejoin="round"/>
<path d="M81.4816 156.493C87.552 156.493 92.4727 151.572 92.4727 145.502C92.4727 139.432 87.552 134.511 81.4816 134.511C75.4114 134.511 70.4904 139.432 70.4904 145.502C70.4904 151.572 75.4114 156.493 81.4816 156.493Z" fill="#705C51"/>
<path d="M92.2679 147.595C92.3134 147.413 92.3362 147.209 92.3589 147.026C93.2009 141.019 89.0138 135.466 83.0062 134.624C82.8014 134.602 82.5966 134.579 82.4146 134.556C82.4146 134.556 82.4146 134.556 82.3918 134.556C76.6118 134.078 71.4007 138.174 70.6042 143.977C70.5587 144.364 70.5132 144.751 70.5132 145.115L80.7306 146.549C83.5979 146.958 84.3488 150.758 81.8457 152.215C79.2742 153.717 76.2022 154.308 73.8128 153.33C75.4285 154.923 77.5448 156.015 79.9797 156.356C85.7597 157.198 91.1529 153.307 92.2679 147.595Z" fill="#5B4C45"/>
<path d="M81.4816 156.493C87.552 156.493 92.4727 151.572 92.4727 145.502C92.4727 139.432 87.552 134.511 81.4816 134.511C75.4114 134.511 70.4904 139.432 70.4904 145.502C70.4904 151.572 75.4114 156.493 81.4816 156.493Z" stroke="#34323A" stroke-width="2.73072" stroke-miterlimit="10" stroke-linecap="round" stroke-linejoin="round"/>
<path d="M76.9986 150.622C75.3147 149.166 74.4044 146.89 74.723 144.523C74.8368 143.727 75.0871 142.976 75.4512 142.293" stroke="#34323A" stroke-width="2.73072" stroke-miterlimit="10" stroke-linecap="round" stroke-linejoin="round"/>
<path d="M106.217 130.437C103.919 127.252 100.756 123.087 100.437 118.968C99.7546 110.367 99.9822 102.402 98.4575 94.756C96.4095 85.1985 88.8545 77.9848 80.7533 76.847C72.6522 75.7092 63.4133 80.5563 58.7938 89.1808C55.2211 96.1214 53.2413 103.836 50.2148 111.914C48.7584 115.783 44.594 118.923 41.4992 121.335C38.814 123.429 36.857 126.387 35.8785 129.869C34.9227 133.282 37.0846 136.809 40.5662 137.492C50.7609 139.517 61.2059 140.996 71.5372 142.453C81.8229 143.909 92.4272 145.388 102.667 146.253C106.217 146.549 109.244 143.772 109.267 140.223C109.289 136.582 108.22 133.191 106.217 130.437Z" fill="#DDB458"/>
<path opacity="0.45" d="M42.9556 120.197C42.455 120.584 41.9543 120.971 41.4992 121.335C38.814 123.429 36.857 126.387 35.8785 129.869C34.9227 133.282 37.0846 136.809 40.5662 137.492C50.7609 139.517 61.2059 140.996 71.5372 142.453C81.8229 143.909 92.4272 145.388 102.667 146.253C106.217 146.549 109.244 143.772 109.267 140.223C109.289 136.604 108.22 133.214 106.217 130.46C105.876 129.982 105.512 129.504 105.148 128.981C93.4967 126.979 80.1844 124.748 73.4942 123.793C67.077 122.905 54.2881 121.426 42.9556 120.197Z" fill="#FBDB60"/>
<path d="M38.2907 131.894C39.292 128.298 41.3173 125.249 44.0707 123.11C47.2566 120.63 51.5575 117.398 53.0366 113.416C56.1542 105.11 58.2022 97.1909 61.8659 90.0455C66.2578 81.8534 74.7458 76.9608 82.5739 77.2111C81.9595 77.0518 81.3678 76.9381 80.7534 76.847C72.6523 75.7092 63.4133 80.5563 58.7939 89.1808C55.2212 96.1214 53.2414 103.836 50.2149 111.914C48.7585 115.783 44.5941 118.923 41.4993 121.335C38.8141 123.429 36.8571 126.387 35.8786 129.869C35.0594 132.781 36.493 135.74 39.0644 136.991C38.1314 135.535 37.7901 133.714 38.2907 131.894Z" fill="#FFD07D"/>
<path opacity="0.31" d="M106.217 130.46C103.919 127.274 100.756 123.11 100.437 118.991C99.7546 110.389 99.9822 102.425 98.4575 94.7787C96.4095 85.2212 88.8545 78.0075 80.7533 76.8697C79.388 76.6649 77.9771 76.6649 76.5435 76.8015C78.6598 78.6902 82.187 80.5334 83.6434 85.3577C81.7546 89.7041 70.809 100.217 70.809 101.196C70.809 102.174 80.5258 108.296 86.3741 111.436C86.4651 113.484 86.5789 115.532 86.7154 117.648C87.0568 122.154 90.4019 126.683 92.8368 130.164C94.9531 133.145 96.0909 136.855 96.0454 140.837C96.0226 142.635 95.3172 144.273 94.1794 145.456C97.0011 145.775 99.8229 146.048 102.599 146.276C106.149 146.571 109.176 143.795 109.198 140.245C109.289 136.581 108.22 133.191 106.217 130.46Z" fill="#EF7E20"/>
<path d="M106.217 130.46C103.919 127.274 100.756 123.11 100.437 118.991C99.7546 110.389 99.9822 102.425 98.4575 94.7787C96.4095 85.2212 88.8545 78.0075 80.7533 76.8697C72.6522 75.7319 63.4133 80.579 58.7938 89.2035C55.2211 96.1441 53.2413 103.858 50.2148 111.937C48.7584 115.805 44.594 118.946 41.4992 121.358C38.814 123.451 36.857 126.41 35.8785 129.891C34.9227 133.305 37.0846 136.832 40.5662 137.515C50.7609 139.54 61.2059 141.019 71.5372 142.475C81.8229 143.932 92.4272 145.411 102.667 146.276C106.217 146.571 109.244 143.795 109.267 140.245C109.289 136.582 108.22 133.191 106.217 130.46Z" stroke="#34323A" stroke-width="2.73072" stroke-miterlimit="10" stroke-linecap="round" stroke-linejoin="round"/>
<path d="M42.5005 132.212C42.364 130.506 44.321 127.775 45.6863 126.706L46.0732 126.41C46.8924 125.773 47.7799 125.067 48.6901 124.316" stroke="white" stroke-width="2.73072" stroke-miterlimit="10" stroke-linecap="round" stroke-linejoin="round"/>
<path d="M64.8469 92.3666C66.4398 89.431 68.8975 86.9279 71.7875 85.335" stroke="white" stroke-width="2.73072" stroke-miterlimit="10" stroke-linecap="round" stroke-linejoin="round"/>
<path d="M56.6093 114.303C57.656 111.504 58.5663 108.796 59.4538 106.157C60.6826 102.493 61.8659 98.9885 63.2768 95.7117" stroke="white" stroke-width="2.73072" stroke-miterlimit="10" stroke-linecap="round" stroke-linejoin="round"/>
<path d="M88.9911 64.5132C88.9911 64.5132 101.416 84.1744 113.408 88.7938C106.809 100.013 109.426 108.842 109.426 108.842C109.426 108.842 90.8116 84.5385 88.9911 64.5132Z" fill="#EF4141"/>
<path opacity="0.64" d="M92.6093 70.9077C92.6093 70.9077 96.2047 76.3236 96.7054 80.3969C97.206 84.4703 96.2275 87.2465 96.2275 87.2465L93.383 80.9203L90.7433 69.6106L92.6093 70.9077Z" fill="#9B3131"/>
<path d="M88.9911 64.5132C88.9911 64.5132 101.416 84.1744 113.408 88.7938C107.105 95.9392 109.426 108.842 109.426 108.842C109.426 108.842 90.8116 84.5385 88.9911 64.5132Z" stroke="#34323A" stroke-width="2.73072" stroke-miterlimit="10" stroke-linecap="round" stroke-linejoin="round"/>
<path d="M88.8774 69.1782C88.8774 69.1782 95.9772 74.7534 74.9507 100.217C83.6207 103.608 90.9026 109.752 90.9026 109.752C90.9026 109.752 99.3451 80.1694 88.8774 69.1782Z" fill="#EF4141"/>
<path opacity="0.64" d="M89.4918 76.4602C89.4918 76.4602 93.3376 83.6056 93.3376 86.6777C92.2453 74.7535 93.2238 77.7118 92.2453 74.7535C91.2668 71.7953 89.4918 76.4602 89.4918 76.4602Z" fill="#9B3131"/>
<path d="M88.8774 69.1782C88.8774 69.1782 95.9772 74.7534 74.9507 100.217C83.6207 103.608 90.9026 109.752 90.9026 109.752C90.9026 109.752 99.3451 80.1694 88.8774 69.1782Z" stroke="#34323A" stroke-width="2.73072" stroke-miterlimit="10" stroke-linecap="round" stroke-linejoin="round"/>
<path d="M87.2162 58.4373C87.2162 58.4373 74.3136 63.9898 75.7472 76.8924C83.689 75.7774 87.4893 79.259 87.4893 79.259C87.4893 79.259 89.8104 68.541 94.5891 63.5574C96.751 55.3652 87.2162 58.4373 87.2162 58.4373Z" fill="#B93737"/>
<path opacity="0.58" d="M86.4652 64.9912C84.1896 66.7207 81.7092 70.6575 81.1176 69.8838C80.5259 69.0873 82.756 64.6044 85.0316 62.8749C87.3072 61.1454 90.2427 61.1682 90.8344 61.9647C91.426 62.7611 88.7408 63.2845 86.4652 64.9912Z" fill="#EF4141"/>
<path d="M87.2162 58.4373C87.2162 58.4373 74.3136 63.9898 75.7472 76.8924C83.689 75.7774 87.4893 79.259 87.4893 79.259C87.4893 79.259 89.8104 68.541 94.5892 63.5574C96.751 55.3652 87.2162 58.4373 87.2162 58.4373Z" stroke="#34323A" stroke-width="2.73072" stroke-miterlimit="10" stroke-linecap="round" stroke-linejoin="round"/>
<path d="M67.2819 153.421L61.1606 155.15" stroke="#34323A" stroke-width="2.73072" stroke-miterlimit="10" stroke-linecap="round" stroke-linejoin="round"/>
<path d="M70.8319 157.608L65.9393 163.047" stroke="#34323A" stroke-width="2.73072" stroke-miterlimit="10" stroke-linecap="round" stroke-linejoin="round"/>
<path d="M119.12 169.35L120.44 163.047" stroke="#34323A" stroke-width="2.73072" stroke-miterlimit="10" stroke-linecap="round" stroke-linejoin="round"/>
<path d="M129.52 167.962L126.607 161.932" stroke="#34323A" stroke-width="2.73072" stroke-miterlimit="10" stroke-linecap="round" stroke-linejoin="round"/>
<path d="M136.847 161.932L131.34 158.405" stroke="#34323A" stroke-width="2.73072" stroke-miterlimit="10" stroke-linecap="round" stroke-linejoin="round"/>
<path d="M75.4741 160.953L74.4728 167.939" stroke="#34323A" stroke-width="2.73072" stroke-miterlimit="10" stroke-linecap="round" stroke-linejoin="round"/>
<path opacity="0.66" d="M83.8483 94.9834C82.4602 96.8722 81.2541 98.3968 81.2541 98.3968C81.2541 98.3968 80.4804 99.876 81.5044 99.876C82.5285 99.876 80.3666 99.7167 82.5285 99.876C82.7105 99.8987 83.1201 99.8987 87.512 91.5928C89.0594 88.6573 90.0834 82.3083 90.0834 82.3083L88.9684 85.4259C87.7168 88.8393 85.9874 92.0479 83.8483 94.9834Z" fill="#FF6E6E"/>
<path opacity="0.58" d="M101.53 67.0391C102.394 68.7003 103.259 73.5928 102.918 73.7521C102.576 73.9114 101.029 69.8153 100.187 68.1314C99.3224 66.4702 98.89 64.9683 99.2086 64.809C99.5499 64.6497 100.688 65.3779 101.53 67.0391Z" fill="#EF4141"/>
</g>
</g>
<defs>
<clipPath id="clip0_12403_37477">
<rect width="190.923" height="180" fill="white" transform="translate(0.538574)"/>
</clipPath>
</defs>
</svg>
