<svg width="316" height="180" viewBox="0 0 316 180" fill="none" xmlns="http://www.w3.org/2000/svg">
<g clip-path="url(#clip0_12403_37281)">
<mask id="mask0_12403_37281" style="mask-type:luminance" maskUnits="userSpaceOnUse" x="-10" y="-68" width="327" height="326">
<path d="M316.127 -67.6635H-9.38983V257.853H316.127V-67.6635Z" fill="white"/>
</mask>
<g mask="url(#mask0_12403_37281)">
<path d="M40.2512 122.732C43.6668 122.732 46.436 121.099 46.436 119.086C46.436 117.072 43.6668 115.44 40.2512 115.44C36.8355 115.44 34.0663 117.072 34.0663 119.086C34.0663 121.099 36.8355 122.732 40.2512 122.732Z" fill="#153144"/>
<path d="M116.617 73.2858H65.674V61.9253L51.0908 64.855L65.674 51.2809V25.5651H116.617V73.2858Z" fill="white"/>
<path d="M111.67 73.2858H68.9944C66.2601 73.2858 64.0466 71.0723 64.0466 68.338V61.9253L49.4308 64.855L64.0466 51.2809V30.5129C64.0466 27.7786 66.2601 25.5651 68.9944 25.5651H111.67C114.404 25.5651 116.618 27.7786 116.618 30.5129V68.338C116.618 71.0723 114.404 73.2858 111.67 73.2858Z" fill="white"/>
<path d="M111.67 73.2858H68.9944C66.2601 73.2858 64.0466 71.0723 64.0466 68.338V61.9253L49.4308 64.855L64.0466 51.2809V30.5129C64.0466 27.7786 66.2601 25.5651 68.9944 25.5651H111.67C114.404 25.5651 116.618 27.7786 116.618 30.5129V68.338C116.618 71.0723 114.404 73.2858 111.67 73.2858Z" stroke="#153144" stroke-width="2.60414" stroke-miterlimit="10" stroke-linecap="round" stroke-linejoin="round"/>
<path d="M258.185 160.101C256.851 145.127 245.685 133.408 232.111 133.408C218.537 133.408 207.339 145.127 206.037 160.101H258.185Z" fill="#EF2C54"/>
<path opacity="0.3" d="M239.956 143.597C239.956 140.114 238.947 136.826 237.222 133.962C235.562 133.604 233.869 133.408 232.111 133.408C218.537 133.408 207.339 145.127 206.037 160.101H230.386C236.148 156.422 239.956 150.4 239.956 143.597Z" fill="#6B1B2E"/>
<path d="M272.019 160.101C271.303 152.159 265.379 145.941 258.185 145.941C250.991 145.941 245.066 152.159 244.35 160.101H272.019Z" fill="#EF2C54"/>
<path opacity="0.3" d="M262.351 151.345C262.351 149.489 261.831 147.764 260.887 146.234C260.008 146.039 259.096 145.941 258.185 145.941C250.991 145.941 245.066 152.159 244.35 160.101H257.273C260.333 158.148 262.351 154.958 262.351 151.345Z" fill="#6B1B2E"/>
<path d="M233.348 143.304V160.101" stroke="#153144" stroke-width="2.60414" stroke-miterlimit="10" stroke-linecap="round" stroke-linejoin="round"/>
<path d="M224.559 145.941L233.348 151.377" stroke="#153144" stroke-width="2.60414" stroke-miterlimit="10" stroke-linecap="round" stroke-linejoin="round"/>
<path d="M233.511 157.367L240.412 151.703" stroke="#153144" stroke-width="2.60414" stroke-miterlimit="10" stroke-linecap="round" stroke-linejoin="round"/>
<path d="M247.02 103.786C260.503 103.786 271.433 88.1923 271.433 68.9562C271.433 49.7201 260.503 34.1259 247.02 34.1259C233.536 34.1259 222.606 49.7201 222.606 68.9562C222.606 88.1923 233.536 103.786 247.02 103.786Z" fill="#EF2C54"/>
<path opacity="0.3" d="M222.606 68.9565C222.606 76.4434 224.266 83.3769 227.098 89.0734C229.637 90.5057 232.371 91.287 235.236 91.287C247.508 91.287 257.469 77.0944 257.469 59.5491C257.469 49.1976 253.986 40.0181 248.615 34.2238C248.094 34.1587 247.54 34.1587 247.02 34.1587C233.543 34.1262 222.606 49.7185 222.606 68.9565Z" fill="#6B1B2E"/>
<path d="M274.233 160.101H68.0829C65.2509 160.101 62.9397 157.79 62.9397 154.958C62.9397 152.126 65.2509 149.814 68.0829 149.814H74.6583C76.9369 149.814 78.7924 147.959 78.7924 145.68C78.7924 143.402 76.9369 141.546 74.6583 141.546H51.156C48.7146 141.546 46.7615 139.593 46.7615 137.152C46.7615 134.71 48.7146 132.757 51.156 132.757H56.1038C59.652 132.757 62.5165 129.893 62.5165 126.345C62.5165 122.797 59.652 119.932 56.1038 119.932H40.2512" stroke="#153144" stroke-width="2.60414" stroke-miterlimit="10" stroke-linecap="round" stroke-linejoin="round"/>
<path d="M290.932 160.101H281.394" stroke="#153144" stroke-width="2.60414" stroke-miterlimit="10" stroke-linecap="round" stroke-linejoin="round"/>
<path d="M28.6629 74.0994C34.8803 67.2961 45.5898 67.2961 51.8072 74.0994C56.1365 78.852 57.1131 85.818 54.2811 91.5797L40.2513 119.932L26.2215 91.5797C23.357 85.818 24.3335 78.852 28.6629 74.0994Z" fill="#EF2C54"/>
<path d="M28.6629 80.2193C34.8803 73.416 45.5898 73.416 51.8072 80.2193C53.7603 82.3678 55.0298 84.9719 55.5832 87.7062C56.5597 82.8886 55.2251 77.8105 51.8072 74.0671C45.5898 67.2638 34.8803 67.2638 28.6629 74.0671C25.245 77.8105 23.9104 82.8886 24.8869 87.7062C25.4403 84.9719 26.7098 82.4003 28.6629 80.2193Z" fill="#EF2C54"/>
<path d="M28.6629 74.0994C34.8803 67.2961 45.5898 67.2961 51.8072 74.0994C56.1365 78.852 57.1131 85.818 54.2811 91.5797L40.2513 119.932L26.2215 91.5797C23.357 85.818 24.3335 78.852 28.6629 74.0994Z" stroke="#153144" stroke-width="2.60414" stroke-miterlimit="10" stroke-linecap="round" stroke-linejoin="round"/>
<path d="M40.2513 92.1657C44.44 92.1657 47.8358 88.7699 47.8358 84.5811C47.8358 80.3924 44.44 76.9966 40.2513 76.9966C36.0625 76.9966 32.6667 80.3924 32.6667 84.5811C32.6667 88.7699 36.0625 92.1657 40.2513 92.1657Z" fill="white"/>
<path d="M40.2513 92.1657C44.44 92.1657 47.8358 88.7699 47.8358 84.5811C47.8358 80.3924 44.44 76.9966 40.2513 76.9966C36.0625 76.9966 32.6667 80.3924 32.6667 84.5811C32.6667 88.7699 36.0625 92.1657 40.2513 92.1657Z" stroke="#153144" stroke-width="2.60414" stroke-miterlimit="10" stroke-linecap="round" stroke-linejoin="round"/>
<path d="M245.847 52.1595C247.214 52.1595 248.321 49.6238 248.321 46.4955C248.321 43.3673 247.214 40.8315 245.847 40.8315C244.481 40.8315 243.374 43.3673 243.374 46.4955C243.374 49.6238 244.481 52.1595 245.847 52.1595Z" stroke="#153144" stroke-width="1.9531" stroke-miterlimit="10" stroke-linecap="round" stroke-linejoin="round"/>
<path d="M240.002 69.3087C240.983 68.3575 240.012 65.7661 237.834 63.5207C235.656 61.2753 233.095 60.2261 232.114 61.1776C231.134 62.1291 232.104 64.7205 234.282 66.9659C236.46 69.211 239.021 70.2602 240.002 69.3087Z" stroke="#153144" stroke-width="1.9531" stroke-miterlimit="10" stroke-linecap="round" stroke-linejoin="round"/>
<path d="M218.046 98.9529C219.647 96.266 219.994 93.5206 218.82 92.8211C217.647 92.1219 215.397 93.7332 213.796 96.42C212.195 99.1072 211.848 101.853 213.021 102.552C214.195 103.251 216.445 101.64 218.046 98.9529Z" stroke="#153144" stroke-width="1.9531" stroke-miterlimit="10" stroke-linecap="round" stroke-linejoin="round"/>
<path d="M265.843 135.85C267.209 135.848 268.313 133.311 268.309 130.183C268.304 127.055 267.193 124.521 265.827 124.522C264.46 124.524 263.356 127.062 263.361 130.19C263.365 133.318 264.476 135.852 265.843 135.85Z" stroke="#153144" stroke-width="1.9531" stroke-miterlimit="10" stroke-linecap="round" stroke-linejoin="round"/>
<path d="M260.114 61.9809C261.888 59.4051 262.415 56.6886 261.29 55.9136C260.165 55.1382 257.814 56.5978 256.039 59.1733C254.264 61.7491 253.738 64.4656 254.863 65.2409C255.988 66.016 258.339 64.5567 260.114 61.9809Z" stroke="#153144" stroke-width="1.9531" stroke-miterlimit="10" stroke-linecap="round" stroke-linejoin="round"/>
<path d="M258.563 87.3336C259.94 85.3349 260.348 83.2272 259.475 82.6253C258.602 82.0234 256.777 83.1556 255.4 85.1539C254.023 87.1523 253.615 89.2603 254.488 89.8622C255.361 90.4641 257.186 89.3319 258.563 87.3336Z" stroke="#153144" stroke-width="1.9531" stroke-miterlimit="10" stroke-linecap="round" stroke-linejoin="round"/>
<path d="M247.02 82.3025L254.344 75.7921" stroke="#153144" stroke-width="2.60414" stroke-miterlimit="10" stroke-linecap="round" stroke-linejoin="round"/>
<path d="M247.019 93.3702L237.905 86.2413" stroke="#153144" stroke-width="2.60414" stroke-miterlimit="10" stroke-linecap="round" stroke-linejoin="round"/>
<path d="M82.4059 56.424H75.7328V40.9945H70.3618L73.5844 34.7771" stroke="#EF2C54" stroke-width="1.62758" stroke-miterlimit="10" stroke-linecap="round" stroke-linejoin="round"/>
<path d="M77.3603 54.7964V39.3669H73.0309L75.4072 34.7771H82.4058V54.7964H77.3603Z" fill="#153144"/>
<path d="M108.675 56.4241H100.993L96.8589 50.7601V56.4241H88.1351V34.5819" stroke="#EF2C54" stroke-width="1.62758" stroke-miterlimit="10" stroke-linecap="round" stroke-linejoin="round"/>
<path d="M89.7626 54.7965V34.5819H95.2313V43.7615L101.611 34.5819H108.024L100.537 44.4451L108.643 54.7965H101.774L95.1988 45.7146V54.7965H89.7626Z" fill="#153144"/>
<path d="M72.6075 61.3389H74.9512V61.7946H73.1283V63.1943H74.5932V63.65H73.1283V65.538H72.575V61.3389H72.6075Z" fill="#EF2C54"/>
<path d="M77.5225 65.5707C76.3507 65.5707 75.4392 64.6918 75.4392 63.4548C75.4392 62.2179 76.3507 61.339 77.5225 61.339C78.6944 61.339 79.6058 62.2179 79.6058 63.4548C79.6058 64.6918 78.6944 65.5707 77.5225 65.5707ZM77.5225 65.0824C78.4014 65.0824 79.0524 64.4314 79.0524 63.4223C79.0524 62.4132 78.4014 61.7622 77.5225 61.7622C76.6436 61.7622 75.9926 62.3807 75.9926 63.4223C75.96 64.4314 76.6436 65.0824 77.5225 65.0824Z" fill="#EF2C54"/>
<path d="M80.8424 61.339V65.0499H82.3072V65.5056H80.3216V61.339H80.8424Z" fill="#EF2C54"/>
<path d="M83.4469 61.339V65.0499H84.9117V65.5056H82.926V61.339H83.4469Z" fill="#EF2C54"/>
<path d="M87.353 65.5707C86.1811 65.5707 85.2697 64.6918 85.2697 63.4548C85.2697 62.2179 86.1811 61.339 87.353 61.339C88.5248 61.339 89.4363 62.2179 89.4363 63.4548C89.4363 64.6918 88.5248 65.5707 87.353 65.5707ZM87.353 65.0824C88.2319 65.0824 88.8829 64.4314 88.8829 63.4223C88.8829 62.4132 88.2319 61.7622 87.353 61.7622C86.4741 61.7622 85.823 62.3807 85.823 63.4223C85.823 64.4314 86.4741 65.0824 87.353 65.0824Z" fill="#EF2C54"/>
<path d="M89.8268 61.339H90.4128L91.3242 64.8546L92.3333 61.339H92.9518L93.8958 64.8546L94.8073 61.339H95.3932L94.1888 65.5056H93.5703L92.5937 62.1528L91.5846 65.5056H90.9662L89.8268 61.339Z" fill="#EF2C54"/>
<path d="M98.2249 61.7954H96.5323V63.1951H98.0622V63.6508H96.5323V65.0831H98.2249V65.5388H95.9789V61.3722H98.2249V61.7954Z" fill="#EF2C54"/>
<path d="M100.406 61.339C101.383 61.339 101.839 61.8924 101.839 62.576C101.839 63.0968 101.546 63.6176 100.862 63.7804L101.904 65.5382H101.253L100.276 63.8455H99.6251V65.5382H99.0717V61.3715H100.406V61.339ZM100.406 61.7947H99.5925V63.3572H100.406C101.025 63.3572 101.285 63.0317 101.285 62.5434C101.285 62.1202 101.025 61.7947 100.406 61.7947Z" fill="#EF2C54"/>
<path d="M103.987 65.5707C103.141 65.5707 102.555 65.115 102.555 64.4314H103.141C103.173 64.7895 103.434 65.115 103.987 65.115C104.508 65.115 104.834 64.822 104.834 64.4314C104.834 63.3246 102.587 64.0408 102.587 62.4783C102.587 61.7947 103.141 61.339 103.955 61.339C104.736 61.339 105.257 61.7622 105.322 62.4132H104.736C104.703 62.1202 104.443 61.8273 103.922 61.7947C103.466 61.7947 103.108 62.0226 103.108 62.4783C103.108 63.5525 105.354 62.8689 105.354 64.4314C105.387 64.9848 104.899 65.5707 103.987 65.5707Z" fill="#EF2C54"/>
<path d="M247.02 68.9565V160.101" stroke="#153144" stroke-width="2.60414" stroke-miterlimit="10" stroke-linecap="round" stroke-linejoin="round"/>
<path d="M143.505 95.4209C143.505 95.4209 139.567 100.89 139.078 101.378C138.59 101.866 125.797 103.754 125.797 103.754L124.365 108.539C124.365 108.539 140.25 107.4 141.715 105.935C143.18 104.47 147.249 99.1969 147.249 99.1969L143.505 95.4209Z" fill="white"/>
<path d="M143.505 95.4209C143.505 95.4209 139.567 100.89 139.078 101.378C138.59 101.866 124.332 103.754 124.332 103.754L122.9 108.539C122.9 108.539 140.218 107.4 141.682 105.935C143.147 104.47 147.216 99.1969 147.216 99.1969L143.505 95.4209Z" stroke="#153144" stroke-width="2.60414" stroke-miterlimit="10" stroke-linecap="round" stroke-linejoin="round"/>
<path d="M173.908 160.101C184.641 160.101 193.342 151.4 193.342 140.668C193.342 129.935 184.641 121.234 173.908 121.234C163.176 121.234 154.475 129.935 154.475 140.668C154.475 151.4 163.176 160.101 173.908 160.101Z" fill="white"/>
<path d="M114.632 160.101C125.365 160.101 134.065 151.4 134.065 140.668C134.065 129.935 125.365 121.234 114.632 121.234C103.899 121.234 95.1987 129.935 95.1987 140.668C95.1987 151.4 103.899 160.101 114.632 160.101Z" fill="white"/>
<path d="M114.632 160.101C125.365 160.101 134.065 151.4 134.065 140.668C134.065 129.935 125.365 121.234 114.632 121.234C103.899 121.234 95.1987 129.935 95.1987 140.668C95.1987 151.4 103.899 160.101 114.632 160.101Z" stroke="#153144" stroke-width="2.60414" stroke-miterlimit="10" stroke-linecap="round" stroke-linejoin="round"/>
<path d="M114.632 153.59C107.503 153.59 101.709 147.796 101.709 140.667C101.709 133.538 107.503 127.744 114.632 127.744C121.761 127.744 127.555 133.538 127.555 140.667C127.555 147.796 121.761 153.59 114.632 153.59Z" fill="#90CAF8"/>
<path d="M103.272 146.787C102.295 144.964 101.742 142.881 101.742 140.668C101.742 136.338 103.857 132.53 107.145 130.186" stroke="#153144" stroke-width="1.9531" stroke-miterlimit="10" stroke-linecap="round" stroke-linejoin="round"/>
<path d="M122.152 134.613C123.486 136.273 124.268 138.357 124.268 140.668C124.268 141.872 124.04 143.011 123.649 144.053" stroke="#153144" stroke-width="1.9531" stroke-miterlimit="10" stroke-linecap="round" stroke-linejoin="round"/>
<path d="M114.632 140.668L124.332 108.539" stroke="#153144" stroke-width="2.60414" stroke-miterlimit="10" stroke-linecap="round" stroke-linejoin="round"/>
<path d="M114.632 142.946C113.395 142.946 112.353 141.904 112.353 140.667C112.353 139.43 113.395 138.389 114.632 138.389C115.869 138.389 116.911 139.43 116.911 140.667C116.911 141.904 115.869 142.946 114.632 142.946Z" fill="#EF2C54"/>
<path d="M114.632 142.946C113.395 142.946 112.353 141.904 112.353 140.667C112.353 139.43 113.395 138.389 114.632 138.389C115.869 138.389 116.911 139.43 116.911 140.667C116.911 141.904 115.869 142.946 114.632 142.946Z" stroke="#153144" stroke-width="2.60414" stroke-miterlimit="10" stroke-linecap="round" stroke-linejoin="round"/>
<path d="M173.908 160.101C184.641 160.101 193.342 151.4 193.342 140.668C193.342 129.935 184.641 121.234 173.908 121.234C163.176 121.234 154.475 129.935 154.475 140.668C154.475 151.4 163.176 160.101 173.908 160.101Z" stroke="#153144" stroke-width="2.60414" stroke-miterlimit="10" stroke-linecap="round" stroke-linejoin="round"/>
<path d="M173.908 153.59C166.78 153.59 160.985 147.796 160.985 140.667C160.985 133.538 166.78 127.744 173.908 127.744C181.037 127.744 186.832 133.538 186.832 140.667C186.832 147.796 181.037 153.59 173.908 153.59Z" fill="#90CAF8"/>
<path d="M176.317 127.973C182.307 129.112 186.831 134.353 186.831 140.668" stroke="#153144" stroke-width="1.9531" stroke-miterlimit="10" stroke-linecap="round" stroke-linejoin="round"/>
<path d="M172.118 150.173C169.677 149.717 167.561 148.317 166.129 146.397" stroke="#153144" stroke-width="1.9531" stroke-miterlimit="10" stroke-linecap="round" stroke-linejoin="round"/>
<path d="M123.974 114.561L141.845 141.319L174.039 141.286L156.168 114.529L123.974 114.561Z" stroke="#153144" stroke-width="2.60414" stroke-miterlimit="10" stroke-linecap="round" stroke-linejoin="round"/>
<path d="M143.147 91.2867C147.857 91.2867 151.676 87.4684 151.676 82.7582C151.676 78.0479 147.857 74.2296 143.147 74.2296C138.437 74.2296 134.619 78.0479 134.619 82.7582C134.619 87.4684 138.437 91.2867 143.147 91.2867Z" fill="white"/>
<path d="M147.281 79.2753L140.966 91.2868" stroke="#153144" stroke-width="2.60414" stroke-miterlimit="10" stroke-linecap="round" stroke-linejoin="round"/>
<path d="M143.147 91.2867C147.857 91.2867 151.676 87.4684 151.676 82.7582C151.676 78.0479 147.857 74.2296 143.147 74.2296C138.437 74.2296 134.619 78.0479 134.619 82.7582C134.619 87.4684 138.437 91.2867 143.147 91.2867Z" stroke="#153144" stroke-width="2.60414" stroke-miterlimit="10" stroke-linecap="round" stroke-linejoin="round"/>
<path d="M154.052 81.4561C154.736 78.3311 154.313 75.4666 152.653 73.4809C149.104 69.2492 140.901 70.4211 134 76.2153C132.112 77.8103 130.517 79.5681 129.215 81.4235H154.052V81.4561Z" fill="#CE2951"/>
<path d="M152.652 73.481C150.471 70.8769 146.565 70.3235 142.268 71.6256C144.579 71.7558 146.532 72.5696 147.835 74.1321C149.364 75.9875 149.853 78.5591 149.364 81.4562H154.052C154.703 78.2987 154.312 75.4667 152.652 73.481Z" fill="#AD254C"/>
<path d="M154.052 81.4561C154.736 78.3311 154.313 75.4666 152.653 73.4809C149.104 69.2492 140.901 70.4211 134 76.2153C132.112 77.8103 130.517 79.5681 129.215 81.4235H154.052V81.4561Z" stroke="#153144" stroke-width="2.60414" stroke-miterlimit="10" stroke-linecap="round" stroke-linejoin="round"/>
<path d="M146.566 119.086C146.566 119.086 144.092 121.104 143.18 122.015C142.269 122.927 142.692 140.017 142.692 140.017H147.314C147.314 140.017 148.877 126.41 149.495 125.791C150.081 125.206 153.434 122.959 153.434 122.959L146.566 119.086Z" fill="white"/>
<path d="M146.566 119.086C146.566 119.086 144.092 121.104 143.18 122.015C142.269 122.927 142.692 140.017 142.692 140.017H147.314C147.314 140.017 148.877 126.41 149.495 125.791C150.081 125.206 153.434 122.959 153.434 122.959L146.566 119.086Z" stroke="#153144" stroke-width="2.60414" stroke-miterlimit="10" stroke-linecap="round" stroke-linejoin="round"/>
<path d="M142.691 95.3235L146.988 100.857L149.006 98.481L156.07 110.427L172.118 111.404C172.118 111.404 161.734 94.5748 156.754 90.8964C151.773 87.2181 149.137 88.9108 147.997 90.0175C146.891 91.1243 142.691 95.3235 142.691 95.3235Z" fill="#90CAF8"/>
<path d="M161.897 110.753C160.985 100.987 155.387 92.9468 147.932 90.0497C146.728 91.2541 142.691 95.2905 142.691 95.2905L146.988 100.824L149.006 98.448L156.07 110.394L161.897 110.753Z" fill="#74BAE8"/>
<path d="M142.691 95.3235L146.988 100.857L149.006 98.481L156.07 111.404H172.118C172.118 111.404 161.734 94.5748 156.754 90.8964C151.773 87.2181 149.137 88.9108 147.997 90.0175C146.891 91.1243 142.691 95.3235 142.691 95.3235Z" stroke="#153144" stroke-width="2.60414" stroke-miterlimit="10" stroke-linecap="round" stroke-linejoin="round"/>
<path d="M149.3 145.29H138.362V143.5C138.362 141.905 139.599 140.603 141.162 140.505L149.267 140.049V145.29H149.3Z" fill="#153144"/>
<path d="M149.3 145.29H138.362V143.5C138.362 141.905 139.599 140.603 141.162 140.505L149.267 140.049V145.29H149.3Z" stroke="#153144" stroke-width="2.60414" stroke-miterlimit="10" stroke-linecap="round" stroke-linejoin="round"/>
<path d="M145.849 118.532L153.401 124.294C153.401 124.294 169.644 118.76 172.118 111.371C159.748 111.371 156.07 111.371 156.07 111.371L145.849 118.532Z" fill="#CE2951"/>
<path opacity="0.63" d="M161.604 111.371C157.502 111.371 156.07 111.371 156.07 111.371L145.849 118.532L147.672 119.932C148.062 119.867 148.453 119.802 148.876 119.737C155.256 118.435 160.236 115.017 161.604 111.371Z" fill="#AD254C"/>
<path d="M145.849 118.532L153.401 124.294C153.401 124.294 169.644 118.76 172.118 111.371C159.748 111.371 156.07 111.371 156.07 111.371L145.849 118.532Z" stroke="#153144" stroke-width="2.60414" stroke-miterlimit="10" stroke-linecap="round" stroke-linejoin="round"/>
<path d="M174.039 143.597C172.802 143.597 171.76 142.555 171.76 141.319C171.76 140.082 172.802 139.04 174.039 139.04C175.276 139.04 176.317 140.082 176.317 141.319C176.317 142.555 175.276 143.597 174.039 143.597Z" fill="#EF2C54"/>
<path d="M174.039 143.597C172.802 143.597 171.76 142.555 171.76 141.319C171.76 140.082 172.802 139.04 174.039 139.04C175.276 139.04 176.317 140.082 176.317 141.319C176.317 142.555 175.276 143.597 174.039 143.597Z" stroke="#153144" stroke-width="2.60414" stroke-miterlimit="10" stroke-linecap="round" stroke-linejoin="round"/>
<path d="M169.579 74.0016H172.118" stroke="#153144" stroke-width="2.60414" stroke-miterlimit="10" stroke-linecap="round" stroke-linejoin="round"/>
<path d="M149.299 74.0016H165.315" stroke="#153144" stroke-width="2.60414" stroke-miterlimit="10" stroke-linecap="round" stroke-linejoin="round"/>
<path d="M182.242 145.941H206.005" stroke="#153144" stroke-width="2.60414" stroke-miterlimit="10" stroke-linecap="round" stroke-linejoin="round"/>
<path d="M210.431 133.408H212.71" stroke="#153144" stroke-width="2.60414" stroke-miterlimit="10" stroke-linecap="round" stroke-linejoin="round"/>
<path d="M197.053 133.408H206.005" stroke="#153144" stroke-width="2.60414" stroke-miterlimit="10" stroke-linecap="round" stroke-linejoin="round"/>
<path d="M170.068 92.1656H182.535" stroke="#153144" stroke-width="2.60414" stroke-miterlimit="10" stroke-linecap="round" stroke-linejoin="round"/>
<path d="M103.272 119.932H92.3667" stroke="#153144" stroke-width="2.60414" stroke-miterlimit="10" stroke-linecap="round" stroke-linejoin="round"/>
<path d="M112.581 114.529H107.112" stroke="#153144" stroke-width="2.60414" stroke-miterlimit="10" stroke-linecap="round" stroke-linejoin="round"/>
</g>
</g>
<defs>
<clipPath id="clip0_12403_37281">
<rect width="316" height="179.979" fill="white"/>
</clipPath>
</defs>
</svg>
