<svg width="380" height="351" viewBox="0 0 380 351" fill="none" xmlns="http://www.w3.org/2000/svg">
<path d="M0 364H380V3.05176e-05H0V364Z" fill="white"/>
<path d="M192.005 150.678C191.167 151.298 185.413 151.654 178.611 151.763C179.031 147.356 178.859 139.627 172.496 139.792C166.152 139.965 166.98 147.448 167.981 151.718C160.97 151.572 154.921 151.152 153.959 150.486C151.568 148.834 151.615 133.322 153.949 131.333C155.482 130.019 189.318 130.694 191.986 131.534C194.663 132.364 194.129 149.126 192.005 150.678Z" fill="#4687A6"/>
<path d="M187.297 146.723C185.144 146.723 182.064 146.49 182.064 146.49C182.064 146.49 181.657 136.793 173.037 136.793C172.82 136.793 172.601 136.799 172.373 136.812C164.399 137.251 164.28 146.49 164.28 146.49C164.28 146.49 160.872 146.439 158.474 146.439C157.275 146.439 156.328 146.452 156.187 146.49C156.185 146.49 156.182 146.491 156.18 146.491C155.758 146.491 155.522 135.685 156.65 134.976C157.124 134.677 162.712 134.539 169.13 134.539C178.066 134.539 188.614 134.806 189.221 135.281C190.264 136.098 189.669 145.969 189.327 146.491C189.214 146.664 188.371 146.723 187.297 146.723Z" fill="#3A6F8C"/>
<path d="M135.161 86.0275C134.566 86.5226 116.465 107.717 116.917 109.423C117.368 111.13 152.611 110.89 153.665 109.423C154.719 107.956 135.975 85.3497 135.161 86.0275Z" fill="#F9A82D"/>
<path d="M134.568 106.998C129.484 106.997 124.616 106.779 124.488 106.296C124.223 105.292 134.871 92.8234 135.221 92.5322C135.228 92.5264 135.237 92.5235 135.249 92.5235C136.023 92.5235 146.719 105.445 146.108 106.296C145.786 106.743 140.051 106.998 134.568 106.998Z" fill="#CD8D27"/>
<path d="M125.663 110.238C123.331 112.226 123.283 127.736 125.677 129.39C128.072 131.043 142.509 130.948 144.63 129.39C146.75 127.832 147.283 111.072 144.615 110.238C141.946 109.404 127.202 108.926 125.663 110.238Z" fill="#4687A6"/>
<path d="M135.106 126.392C132.626 126.392 130.153 126.156 129.442 125.666C127.998 124.668 128.027 115.315 129.433 114.117C129.848 113.764 131.848 113.625 134.079 113.625C136.847 113.625 139.971 113.838 140.861 114.117C142.471 114.62 142.149 124.726 140.871 125.666C140.222 126.143 137.66 126.392 135.106 126.392Z" fill="#3A6F8C"/>
<path d="M125.663 130.336C123.331 132.324 123.283 147.834 125.677 149.488C128.072 151.141 142.509 151.045 144.63 149.488C146.75 147.93 147.283 131.17 144.615 130.336C141.946 129.502 127.202 129.024 125.663 130.336Z" fill="#62C9AD"/>
<path d="M135.106 146.49C132.627 146.49 130.153 146.254 129.442 145.764C127.998 144.766 128.027 135.413 129.433 134.215C129.848 133.862 131.848 133.723 134.079 133.723C136.847 133.723 139.971 133.936 140.861 134.215C142.471 134.718 142.149 144.824 140.871 145.764C140.222 146.241 137.66 146.49 135.106 146.49Z" fill="#52A393"/>
<path d="M98.1783 150.081C95.8459 152.069 95.798 167.579 98.1928 169.233C100.588 170.886 115.025 170.791 117.145 169.233C119.265 167.675 119.799 150.916 117.13 150.081C114.461 149.247 99.7173 148.769 98.1783 150.081Z" fill="#F3614C"/>
<path d="M107.621 166.235C105.141 166.235 102.668 166 101.957 165.509C100.513 164.512 100.542 155.159 101.949 153.96C102.363 153.607 104.363 153.469 106.595 153.469C109.363 153.469 112.486 153.681 113.377 153.96C114.987 154.463 114.664 164.569 113.386 165.509C112.737 165.986 110.176 166.235 107.621 166.235Z" fill="#D45441"/>
<path d="M153.944 150.081C151.612 152.069 151.565 167.58 153.959 169.233C156.353 170.886 189.884 170.986 192.005 169.428C194.125 167.87 194.659 151.111 191.99 150.276C189.321 149.442 155.484 148.769 153.944 150.081Z" fill="#F3614C"/>
<path d="M174.91 166.338C167.053 166.338 158.507 166.05 157.724 165.509C156.28 164.512 156.309 155.159 157.715 153.96C158.069 153.658 162.382 153.542 167.663 153.542C176.19 153.542 187.243 153.845 188.237 154.156C189.847 154.659 189.524 164.765 188.246 165.704C187.661 166.134 181.531 166.338 174.91 166.338Z" fill="#D45441"/>
<path d="M125.663 150.081C123.331 152.069 123.283 167.579 125.677 169.233C128.072 170.886 142.509 170.791 144.63 169.233C146.75 167.675 147.283 150.916 144.615 150.081C141.946 149.247 127.202 148.769 125.663 150.081Z" fill="#F3614C"/>
<path d="M135.106 166.235C132.626 166.235 130.153 166 129.442 165.509C127.998 164.512 128.027 155.159 129.433 153.96C129.848 153.607 131.848 153.469 134.079 153.469C136.847 153.469 139.971 153.681 140.861 153.96C142.471 154.463 142.149 164.569 140.871 165.509C140.222 165.986 137.66 166.235 135.106 166.235Z" fill="#D45441"/>
<path d="M231.053 114.511C231.055 115.459 231.1 116.39 231.184 117.297C232.189 128.088 238.372 136.499 246.938 138.724C252.242 140.102 257.205 138.68 260.553 134.823C263.982 130.873 264.801 125.259 262.589 120.851C260.944 117.571 256.171 112.091 242.652 112.352C238.351 112.43 234.477 113.154 231.053 114.511ZM331.189 152.41L329.677 152.266C333.164 118.477 318.9 101.271 306.319 92.7887C287.814 80.3107 263.164 80.2365 249.365 86.5016C236.482 92.3511 231.554 103.307 231.09 112.926C234.53 111.653 238.382 110.973 242.622 110.896C256.979 110.637 262.156 116.626 263.959 120.22C266.423 125.132 265.524 131.375 261.721 135.754C257.976 140.067 252.442 141.662 246.539 140.129C237.353 137.743 230.732 128.831 229.67 117.426C229.602 116.687 229.558 115.933 229.541 115.167C226.764 116.475 224.311 118.235 222.197 120.442C211.788 131.298 212.919 149.525 212.932 149.707L211.415 149.804C211.361 149.033 210.223 130.785 221.071 119.463C223.492 116.936 226.322 114.963 229.545 113.549C229.822 103.317 234.908 91.4549 248.715 85.1861C263.257 78.5832 288.014 78.6647 307.194 91.5976C320.105 100.304 334.75 117.921 331.189 152.41Z" fill="#232432"/>
<path d="M203.748 163.232C203.748 163.232 200.068 144.107 211.946 144.834C223.825 145.559 220.791 163.232 220.791 163.232" fill="#F3614C"/>
<path d="M322.007 163.232C322.007 163.232 318.327 144.107 330.206 144.834C342.084 145.559 339.051 163.232 339.051 163.232" fill="#F3614C"/>
<path d="M199.199 175.612C199.199 175.612 198.652 163.595 201.079 161.356C203.505 159.117 222.51 159.722 224.128 161.356C225.745 162.99 226.496 175.612 226.496 175.612H199.199Z" fill="#232432"/>
<path d="M316.809 175.612C316.809 175.612 316.264 163.595 318.69 161.356C321.116 159.117 340.122 159.722 341.739 161.356C343.356 162.99 344.108 175.612 344.108 175.612H316.809Z" fill="#232432"/>
<path d="M250.342 88.293C250.342 91.1897 247.891 93.5375 244.868 93.5375C241.844 93.5375 239.393 91.1897 239.393 88.293C239.393 85.397 241.844 83.0492 244.868 83.0492C247.891 83.0492 250.342 85.397 250.342 88.293Z" fill="#4687A6"/>
<path d="M286.19 83.0492C286.19 85.9452 283.739 88.293 280.715 88.293C277.692 88.293 275.24 85.9452 275.24 83.0492C275.24 80.1525 277.692 77.8047 280.715 77.8047C283.739 77.8047 286.19 80.1525 286.19 83.0492Z" fill="#F9A82D"/>
<path d="M331.604 118.018C331.604 120.915 329.153 123.263 326.13 123.263C323.105 123.263 320.654 120.915 320.654 118.018C320.654 115.122 323.105 112.774 326.13 112.774C329.153 112.774 331.604 115.122 331.604 118.018Z" fill="#62C9AD"/>
<path d="M258.016 138.864C258.016 141.76 255.565 144.108 252.541 144.108C249.518 144.108 247.066 141.76 247.066 138.864C247.066 135.968 249.518 133.62 252.541 133.62C255.565 133.62 258.016 135.968 258.016 138.864Z" fill="#F3614C"/>
<path d="M31.6332 39.301C35.2694 40.7119 40.3391 38.2374 39.7507 33.9568C39.1626 29.6761 33.0823 27.8416 29.8265 31.1343C26.5707 34.4271 27.9187 37.8596 31.6332 39.301Z" fill="#F9A82D"/>
<path d="M308.593 44.4267C312.229 45.8376 317.298 43.3638 316.71 39.0832C316.122 34.8018 310.042 32.968 306.786 36.2607C303.53 39.5535 304.878 42.9853 308.593 44.4267Z" fill="#62C9AD"/>
<path d="M350.182 29.4292C353.819 30.8401 358.888 28.3656 358.3 24.085C357.712 19.8043 351.632 17.9698 348.376 21.2625C345.12 24.5552 346.468 27.9878 350.182 29.4292Z" fill="#F6886F"/>
<path d="M76.0867 67.3335C83.6791 70.2797 94.2659 65.1138 93.037 56.1754C91.8088 47.2363 79.1123 43.4056 72.3141 50.2815C65.5153 57.1568 68.3306 64.3239 76.0867 67.3335Z" fill="#F6886F"/>
<path d="M339.392 71.0979C346.985 74.0441 357.572 68.8782 356.343 59.9391C355.115 51.0007 342.419 47.1699 335.62 54.0452C328.822 60.9211 331.637 68.0883 339.392 71.0979Z" fill="#4687A6"/>
<path d="M354.655 303.693L91.8087 297.927C91.8087 297.927 91.7099 277.179 91.6339 252.485C91.5199 217.09 91.4515 173.592 91.8087 171.459C92.4091 167.848 352.717 168.226 352.755 171.153C352.785 172.966 353.507 223.744 354.054 261.905C354.389 285.136 354.655 303.693 354.655 303.693Z" fill="#F0D3A6"/>
<path d="M252.918 280.896L252.446 274.479L250.16 274.423L249.752 268.867L249.143 260.558L239.947 260.57C239.501 247.798 238.838 237.237 237.855 235.806C236.44 233.745 234.117 232.693 231.921 232.693C229.974 232.693 228.126 233.52 227.098 235.208C226.282 236.548 226.075 247.451 226.137 260.59L216.093 260.603V273.707L219.429 273.8V280.211C207.32 279.431 195.584 278.116 184.352 276.427C184.367 274.843 184.289 273.887 184.289 273.887C184.289 273.887 184.855 273.948 185.784 273.948C188.913 273.948 196.162 273.244 199.737 267.083C203.37 260.815 193.693 250.172 183.982 250.172C181.32 250.172 178.655 250.972 176.262 252.882C169.786 258.051 171.484 266.434 171.1 274.228C163.292 272.812 155.775 271.236 148.597 269.562C140.408 255.995 127.509 243.038 108.81 237.898C108.762 210.864 108.784 185.606 109.023 184.056C109.284 182.366 165.37 181.605 221.676 181.605C278.59 181.605 335.731 182.382 335.751 183.764C335.77 185.128 336.177 216.326 336.583 247.413L332.836 247.313C332.449 241.074 331.963 236.692 331.354 235.806C329.939 233.745 327.616 232.693 325.421 232.693C323.473 232.693 321.625 233.52 320.598 235.208C320.092 236.038 319.82 240.538 319.702 246.965L308.227 246.662L306.808 260.73L309.199 260.724L308.601 268.867L308.194 274.423L305.909 274.479L305.842 275.372C301.976 276.104 298.126 276.756 294.275 277.335V273.668L286.315 273.864C285.899 255.876 285.156 237.715 283.844 235.806C282.429 233.745 280.107 232.693 277.911 232.693C275.964 232.693 274.115 233.52 273.088 235.208C272 236.995 271.995 255.791 272.265 274.209L261.259 274.479L260.808 280.61C258.164 280.736 255.54 280.83 252.918 280.896ZM258.983 197.123C251.878 197.123 233.183 201.309 231.309 203.377C229.208 205.694 247.695 227.229 251.728 227.229C251.752 227.229 251.776 227.228 251.8 227.227C255.682 226.965 265.464 198.733 261.078 197.341C260.608 197.192 259.89 197.123 258.983 197.123ZM298.904 196.948C282.72 196.948 282.167 209.506 283.234 214.193C284.616 220.264 292.381 224.917 299.779 224.918C302.529 224.918 305.226 224.276 307.527 222.824C317.832 216.327 318.079 197.787 300.418 196.983C299.9 196.96 299.394 196.948 298.904 196.948ZM146.353 196.448C141.682 196.448 136.983 198.018 134.055 201.44C127.051 209.627 130.75 224.736 143.891 224.736C145.422 224.736 147.082 224.531 148.867 224.086C165.978 219.819 162.478 207.055 159.929 202.758C157.53 198.715 151.963 196.448 146.353 196.448ZM203.891 194.781C198.156 194.781 183.052 197.303 182.713 199.647C182.401 201.798 184.666 221.123 186.05 222.641C186.233 222.842 186.79 222.933 187.62 222.933C193.055 222.933 210.229 219.043 211.212 216.784C212.343 214.181 207.362 196.399 206.003 195.091C205.78 194.877 205.016 194.781 203.891 194.781Z" fill="#F6E8CD"/>
<path d="M187.62 222.933C186.79 222.933 186.233 222.842 186.05 222.641C184.666 221.123 182.401 201.798 182.713 199.648C183.052 197.303 198.156 194.781 203.891 194.781C205.016 194.781 205.78 194.878 206.003 195.092C207.362 196.399 212.343 214.181 211.212 216.784C210.229 219.043 193.055 222.933 187.62 222.933Z" fill="#E9C7A6"/>
<path d="M143.891 224.737C130.75 224.737 127.051 209.627 134.055 201.441C136.983 198.018 141.682 196.448 146.353 196.448C151.963 196.448 157.53 198.715 159.929 202.758C162.477 207.055 165.978 219.82 148.867 224.086C147.082 224.531 145.422 224.737 143.891 224.737Z" fill="#E9C7A6"/>
<path d="M299.779 224.918C292.381 224.917 284.616 220.263 283.234 214.193C282.167 209.506 282.72 196.948 298.904 196.948C299.394 196.948 299.9 196.959 300.418 196.983C318.079 197.787 317.832 216.326 307.527 222.824C305.226 224.276 302.529 224.918 299.779 224.918Z" fill="#E9C7A6"/>
<path d="M251.728 227.229C247.695 227.229 229.208 205.694 231.309 203.377C233.183 201.309 251.878 197.123 258.983 197.123C259.889 197.123 260.608 197.192 261.078 197.341C265.464 198.733 255.681 226.965 251.799 227.227C251.776 227.228 251.752 227.229 251.728 227.229Z" fill="#E9C7A6"/>
<path d="M354.529 294.978H342.26V289.475L338.924 289.378V284.335V273.8L342.26 273.707V268.566V266.05C346.196 264.765 350.13 263.384 354.054 261.905C354.248 275.425 354.419 287.361 354.529 294.978Z" fill="#E3B689"/>
<path d="M308.925 294.978H297.611V289.475L294.275 289.378V284.335V277.335C298.126 276.755 301.975 276.104 305.842 275.372L304.875 288.521L309.207 288.642L308.925 294.978ZM264.275 294.978H249.428L249.145 288.642L253.477 288.521L252.917 280.896C255.54 280.83 258.163 280.735 260.807 280.61L260.226 288.521L264.558 288.642L264.275 294.978ZM216.092 294.978H179.801C180.974 292.971 181.85 290.852 182.501 288.761C184.016 283.904 184.326 279.202 184.351 276.426C195.583 278.115 207.319 279.431 219.428 280.211V289.379L216.092 289.475V294.978ZM157.925 290.972C156.076 284.415 153.026 276.901 148.596 269.562C155.775 271.236 163.291 272.812 171.099 274.228C170.824 279.814 169.481 285.096 163.294 288.676C161.532 289.697 159.731 290.446 157.925 290.972Z" fill="#E9C7A6"/>
<path d="M0 364H380V294.978H0V364Z" fill="#F6E4CC"/>
<path d="M25.9473 82.3084C20.9281 86.7252 21.3915 120.59 26.6798 124.119C31.968 127.648 63.4834 126.955 68.0552 123.483C72.6268 120.011 73.1799 83.4047 67.3228 81.6728C61.4655 79.9409 29.2605 79.3935 25.9473 82.3084Z" fill="#F9A82D"/>
<path d="M45.8519 117.268C40.8967 117.268 36.2066 116.826 34.7621 115.863C31.5731 113.735 31.2937 93.3135 34.3203 90.6497C35.3288 89.7623 40.7761 89.407 46.3794 89.407C51.8754 89.407 57.5217 89.7492 59.2706 90.2661C62.8028 91.3107 62.4691 113.385 59.7124 115.479C58.2042 116.624 51.8351 117.268 45.8519 117.268Z" fill="#CD8D27"/>
<path d="M48.2558 110.065H48.246C47.6163 110.06 47.1101 109.567 47.1152 108.965L47.1975 99.4751L44.7414 102.03C44.3148 102.474 43.5934 102.501 43.1305 102.094C42.6674 101.685 42.6377 100.994 43.064 100.55L47.5231 95.9123C47.8425 95.5803 48.3413 95.4704 48.7807 95.6364C49.2191 95.8023 49.5057 96.2093 49.5018 96.6607L49.3952 108.982C49.3901 109.582 48.8807 110.065 48.2558 110.065Z" fill="white"/>
<path d="M42.7864 110.586C42.1648 110.586 41.6565 110.109 41.6467 109.511C41.6375 108.908 42.1404 108.412 42.7698 108.402L52.9028 108.257H52.9202C53.5419 108.257 54.0502 108.735 54.0599 109.333C54.0692 109.935 53.5662 110.432 52.9372 110.441L42.804 110.586H42.7864Z" fill="white"/>
<path d="M32.3391 126.39C27.3198 130.807 27.7832 164.671 33.0714 168.201C38.3596 171.729 69.8747 171.037 74.4466 167.564C79.0189 164.092 79.5714 127.486 73.7145 125.754C67.8571 124.022 35.6521 123.474 32.3391 126.39Z" fill="#F3614C"/>
<path d="M52.2433 161.35C47.2891 161.35 42.5982 160.908 41.1536 159.945C37.9648 157.816 37.6854 137.395 40.7121 134.732C41.7206 133.844 47.168 133.489 52.7711 133.489C58.2672 133.489 63.9135 133.831 65.6624 134.348C69.1946 135.393 68.8609 157.466 66.1041 159.561C64.596 160.706 58.2272 161.35 52.2433 161.35Z" fill="#D45441"/>
<path d="M47.8956 155.447L47.7505 155.438C47.1261 155.362 46.6841 154.816 46.7631 154.218C47.1906 150.989 48.9047 140.374 53.0224 139.333C53.7464 139.149 54.4892 139.274 55.1687 139.695C58.4074 141.701 60.1841 151.093 60.5071 152.956C60.6108 153.551 60.191 154.113 59.5699 154.212C58.9524 154.313 58.362 153.909 58.2584 153.315C57.5218 149.078 55.6925 142.62 53.9308 141.529C53.7381 141.41 53.6509 141.431 53.6042 141.444C52.1867 141.803 50.0328 146.894 49.0252 154.492C48.9519 155.044 48.4611 155.447 47.8956 155.447Z" fill="white"/>
<path d="M48.7834 150.593C48.1944 150.593 47.6956 150.159 47.6481 149.587C47.5983 148.986 48.0664 148.46 48.6943 148.412L58.3231 147.678C58.9498 147.629 59.4994 148.08 59.5496 148.681C59.5997 149.282 59.1313 149.808 58.5033 149.856L48.8748 150.589L48.7834 150.593Z" fill="white"/>
<path d="M25.6519 169.827C20.6329 174.244 21.0963 208.107 26.3843 211.637C31.6725 215.166 63.1879 214.473 67.7597 211C72.3316 207.529 72.8847 170.923 67.0273 169.191C61.1703 167.459 28.965 166.911 25.6519 169.827Z" fill="#62C9AD"/>
<path d="M45.5565 204.786C40.6016 204.786 35.9114 204.344 34.4668 203.381C31.2777 201.253 30.9987 180.832 34.025 178.168C35.0338 177.28 40.4811 176.925 46.0844 176.925C51.5804 176.925 57.2266 177.267 58.9755 177.784C62.5075 178.829 62.1741 200.903 59.4173 202.997C57.9092 204.142 51.5397 204.786 45.5565 204.786Z" fill="#52A393"/>
<path d="M44.576 197.972C47.0303 198.296 50.6026 198.352 52.0267 197.293C52.4147 197.005 52.6014 196.67 52.6335 196.208C52.6837 195.476 52.4776 194.869 52.0042 194.354C50.7929 193.036 48.1089 192.605 47.1766 192.55C46.6236 192.518 46.1741 192.11 46.1126 191.582C46.0506 191.055 46.3923 190.562 46.9243 190.413C46.9679 190.4 51.4926 189.044 50.9728 186.645C50.4927 184.429 46.6963 183.72 44.3347 183.568L44.576 197.972ZM47.6873 200.37C45.523 200.37 43.6162 200.045 43.2395 199.977C42.7078 199.881 42.3204 199.439 42.3114 198.922L42.0357 182.461C42.0259 181.858 42.5279 181.362 43.1575 181.351C43.5236 181.348 52.1369 181.271 53.2053 186.201C53.6726 188.358 52.3675 189.983 50.7228 191.076C51.7922 191.453 52.9022 192.028 53.7094 192.904C54.5961 193.866 54.9996 195.025 54.9082 196.352C54.8345 197.431 54.3203 198.354 53.422 199.021C51.9914 200.082 49.7253 200.37 47.6873 200.37Z" fill="white"/>
<path d="M30.811 213.816C25.7921 218.233 26.2552 252.097 31.5435 255.626C36.8317 259.155 68.3471 258.462 72.9189 254.99C77.491 251.518 78.0435 214.912 72.1865 213.18C66.3295 211.448 34.1242 210.901 30.811 213.816Z" fill="#4687A6"/>
<path d="M50.7157 248.776C45.7611 248.776 41.0702 248.334 39.6259 247.37C36.4369 245.242 36.1575 224.821 39.1844 222.157C40.1929 221.269 45.6403 220.914 51.2438 220.914C56.7398 220.914 62.3855 221.256 64.1347 221.774C66.6053 222.504 67.1845 233.523 66.366 240.797C61.6977 242.935 57.4805 245.636 53.6903 248.723C52.7042 248.758 51.7042 248.776 50.7157 248.776Z" fill="#3A6F8C"/>
<path d="M50.912 243.612C49.7106 243.612 48.5011 243.4 47.4187 242.833C45.2996 241.722 44.1005 239.531 43.855 236.321C43.589 232.841 44.4745 230.136 46.488 228.281C49.8236 225.206 54.9807 225.719 55.1983 225.743C55.8238 225.81 56.2744 226.351 56.2041 226.95C56.134 227.548 55.5718 227.976 54.9463 227.914C54.8792 227.906 50.6062 227.505 48.0593 229.863C46.5645 231.246 45.9153 233.366 46.1291 236.162C46.3143 238.583 47.115 240.183 48.5097 240.915C51.0628 242.257 55.3615 240.619 56.8023 239.876C57.3568 239.589 58.0483 239.788 58.3467 240.317C58.6456 240.848 58.4404 241.51 57.8871 241.797C57.6983 241.895 54.3358 243.611 50.912 243.612Z" fill="white"/>
<path d="M27.1146 257.122C22.0956 261.539 22.5588 295.403 27.847 298.932C33.1353 302.461 64.6506 301.768 69.2225 298.296C73.7941 294.824 74.3475 258.218 68.4901 256.486C62.6327 254.754 30.4278 254.207 27.1146 257.122Z" fill="#F3614C"/>
<path d="M33.4115 275.026C33.5804 270.524 34.2638 266.54 35.4878 265.463C35.9661 265.043 37.4416 264.741 39.4588 264.541C37.1456 267.98 35.1366 271.516 33.4115 275.026Z" fill="#D45441"/>
<path d="M44.7781 271.326L44.448 283.717C46.0541 283.647 49.0593 283.279 50.9679 281.584C52.1319 280.551 52.712 279.192 52.7418 277.432C52.7717 275.666 52.2424 274.319 51.1241 273.315C49.2822 271.659 46.3263 271.361 44.7781 271.326ZM43.8233 285.918C43.4706 285.918 43.25 285.906 43.2073 285.903C42.5951 285.866 42.1231 285.372 42.1388 284.785L42.5266 270.225C42.5414 269.667 42.9938 269.209 43.5751 269.164C43.8096 269.145 49.3829 268.755 52.6835 271.722C54.2751 273.152 55.0618 275.084 55.0218 277.468C54.9816 279.827 54.1364 281.753 52.509 283.194C49.7106 285.671 45.4179 285.918 43.8233 285.918Z" fill="white"/>
<path d="M189.878 329.489C90.9478 329.489 10.7496 325.699 10.7496 321.023C10.7496 318.071 42.7359 315.471 91.2168 313.956C94.633 313.99 98.0553 314.007 101.444 314.007C116.786 314.007 131.485 313.655 142.227 312.861C157.401 312.663 173.375 312.558 189.878 312.558C288.808 312.558 369.006 316.348 369.006 321.023C369.006 325.699 288.808 329.489 189.878 329.489Z" fill="#E9C3A6"/>
<path d="M199.737 267.083C195.101 275.071 184.289 273.886 184.289 273.886C184.289 273.886 184.879 281.132 182.501 288.761C180.451 295.342 176.182 302.206 167.412 304.95C162.217 306.571 157.445 307.304 153.256 307.511C142.18 308.069 135.19 304.95 135.19 304.95L130.865 286.605C130.865 286.605 148.468 297.26 163.294 288.676C178.113 280.101 165.146 261.756 176.261 252.881C187.385 244.007 204.366 259.096 199.737 267.083Z" fill="#F9A82D"/>
<path d="M160.026 306.749C160.104 306.083 160.144 305.339 160.144 304.525C160.144 303.036 160.013 301.311 159.743 299.401C159.626 298.573 159.483 297.712 159.313 296.818C160.379 296.985 161.629 297.104 163.026 297.104C168.154 297.104 175.261 295.5 182.501 288.761C180.45 295.342 176.181 302.207 167.412 304.95C164.84 305.753 162.371 306.338 160.026 306.749Z" fill="#CD8D27"/>
<path d="M182.622 254.249C179.612 255.138 178.914 257.073 180.15 259.442C181.386 261.81 186.046 260.261 186.807 258.258C187.567 256.254 184.809 253.604 182.622 254.249Z" fill="#232432"/>
<path d="M183.025 256.262C181.942 256.582 181.69 257.279 182.136 258.131C182.58 258.984 184.258 258.427 184.532 257.705C184.805 256.984 183.813 256.03 183.025 256.262Z" fill="white"/>
<path d="M174.304 261.927C173.218 264.008 175.896 265.186 177.126 262.967C178.358 260.748 175.389 259.847 174.304 261.927Z" fill="#F6941D"/>
<path d="M178.011 269.409C177.468 270.448 178.807 271.038 179.423 269.928C180.037 268.819 178.554 268.368 178.011 269.409Z" fill="#F6941D"/>
<path d="M177.089 265.054C174.469 266.286 175.719 269.186 178.573 267.92C181.428 266.654 179.709 263.822 177.089 265.054Z" fill="#F6941D"/>
<path d="M173.048 270.011C171.99 272.381 175.496 274.194 176.699 271.665C177.9 269.137 174.108 267.642 173.048 270.011Z" fill="#F6941D"/>
<path d="M186.095 261.029C181.895 261.507 183.287 265.882 185.99 265.882C188.694 265.882 189.655 260.624 186.095 261.029Z" fill="#F3614C"/>
<path d="M159.193 309.613C154.828 316.507 30.6489 314.336 25.7095 309.613C24.3531 308.313 24.4727 302.084 26.5392 293.737C31.9575 271.769 50.8614 235.171 91.7731 235.576C137.409 236.028 156.815 278.656 159.744 299.401C160.438 304.315 160.214 308 159.193 309.613Z" fill="#62C9AD"/>
<path d="M101.444 314.007C66.5851 314.007 28.4043 312.19 25.7095 309.613C25.1268 309.055 24.8162 307.586 24.8159 305.43C24.8154 302.569 25.3607 298.497 26.5393 293.737C39.7823 298.072 70.2058 306.751 106.025 306.751C123.129 306.751 141.457 304.774 159.744 299.401C160.014 301.311 160.144 303.036 160.144 304.525C160.144 306.867 159.817 308.627 159.193 309.613C157.21 312.746 130.478 314.007 101.444 314.007Z" fill="#52A393"/>
<path d="M68.7898 308.054C68.7898 317.286 60.9775 324.769 51.3406 324.769C41.7037 324.769 33.8918 317.286 33.8918 308.054C33.8918 298.823 41.7037 291.34 51.3406 291.34C60.9775 291.34 68.7898 298.823 68.7898 308.054Z" fill="#F9A82D"/>
<path d="M64.1575 308.055C64.1575 314.836 58.4192 320.332 51.3408 320.332C44.2624 320.332 38.5244 314.836 38.5244 308.055C38.5244 301.275 44.2624 295.779 51.3408 295.779C58.4192 295.779 64.1575 301.275 64.1575 308.055Z" fill="#232432"/>
<path d="M54.5409 308.055C54.5409 309.748 53.1082 311.121 51.3403 311.121C49.5727 311.121 48.1397 309.748 48.1397 308.055C48.1397 306.361 49.5727 304.989 51.3403 304.989C53.1082 304.989 54.5409 306.361 54.5409 308.055Z" fill="white"/>
<path d="M150.431 308.054C150.431 317.286 142.619 324.769 132.982 324.769C123.345 324.769 115.533 317.286 115.533 308.054C115.533 298.823 123.345 291.34 132.982 291.34C142.619 291.34 150.431 298.823 150.431 308.054Z" fill="#F9A82D"/>
<path d="M145.799 308.055C145.799 314.835 140.061 320.332 132.982 320.332C125.903 320.332 120.165 314.835 120.165 308.055C120.165 301.275 125.903 295.779 132.982 295.779C140.061 295.779 145.799 301.275 145.799 308.055Z" fill="#232432"/>
<path d="M136.182 308.055C136.182 309.748 134.75 311.121 132.982 311.121C131.214 311.121 129.781 309.748 129.781 308.055C129.781 306.361 131.214 304.989 132.982 304.989C134.75 304.989 136.182 306.361 136.182 308.055Z" fill="white"/>
<path d="M70.164 285.419C62.5462 285.419 51.0042 283.816 51.185 282.151C51.4386 279.814 54.9441 268.285 56.2551 266.083C57.2737 264.374 60.9094 263.813 64.6955 263.813C69.1573 263.813 73.8277 264.592 74.6679 265.184C76.2203 266.279 79.1045 282.364 76.4423 284.534C75.6766 285.158 73.2411 285.419 70.164 285.419Z" fill="#52A393"/>
<path d="M83.1062 265.443C82.8569 265.443 82.689 265.393 82.6168 265.289C81.5231 263.708 84.6771 245.977 85.7221 243.155C85.9266 242.602 86.4776 242.36 87.2741 242.36C92.0925 242.36 105.885 251.211 106.181 253.33C106.502 255.636 86.6258 265.443 83.1062 265.443Z" fill="#52A393"/>
<path d="M112.831 288.737C111.323 288.737 109.769 288.552 108.197 288.152C96.0648 285.065 99.5288 270.748 105.674 265.253C108.479 262.745 111.781 261.636 115.031 261.636C121.735 261.636 128.212 266.36 129.616 273.288C131.064 280.426 122.956 288.737 112.831 288.737Z" fill="#52A393"/>
<path d="M53.4161 262.334C52.1048 264.535 48.5996 276.064 48.3458 278.401C48.0919 280.739 70.9412 282.953 73.6033 280.783C76.2652 278.614 73.3815 262.529 71.8285 261.434C70.2756 260.339 55.6343 258.608 53.4161 262.334Z" fill="#4687A6"/>
<path d="M88.1311 239.473C87.0861 242.296 83.9329 260.027 85.0265 261.607C86.1201 263.188 108.935 252.119 108.59 249.649C108.246 247.179 89.5766 235.571 88.1311 239.473Z" fill="#EC523A"/>
<path d="M108.083 260.933C101.938 266.428 98.474 280.746 110.606 283.832C122.738 286.919 133.689 277.17 132.026 268.968C129.941 258.681 116.671 253.254 108.083 260.933Z" fill="#F9A82D"/>
<path d="M227.098 310.961C227.098 310.961 224.912 238.797 227.098 235.208C229.284 231.618 235.184 231.917 237.855 235.805C240.525 239.694 240.837 310.961 240.837 310.961H227.098Z" fill="white"/>
<path d="M273.088 310.961C273.088 310.961 270.902 238.797 273.088 235.208C275.273 231.618 281.174 231.917 283.844 235.805C286.514 239.694 286.827 310.961 286.827 310.961H273.088Z" fill="white"/>
<path d="M320.597 310.96C320.597 310.96 318.412 238.797 320.597 235.208C322.783 231.618 328.683 231.917 331.354 235.805C334.024 239.694 334.337 310.96 334.337 310.96H320.597Z" fill="white"/>
<path d="M216.093 273.707V260.604L249.143 260.558L250.177 274.657L216.093 273.707Z" fill="#62C9AD"/>
<path d="M250.16 274.423L219.429 273.668V273.8L216.093 273.707V268.567L249.752 268.867L250.16 274.423Z" fill="#52A393"/>
<path d="M216.093 307.05V289.475L249.14 288.521L249.966 307.05H216.093Z" fill="#62C9AD"/>
<path d="M249.944 306.544L249.682 300.664L249.966 306.544H249.944Z" fill="#C4B7A8"/>
<path d="M216.093 307.05V301.587L249.681 300.649L249.682 300.664L249.944 306.544L216.093 307.05Z" fill="#52A393"/>
<path d="M219.429 289.475V273.668L252.446 274.479L253.478 288.521L219.429 289.475Z" fill="#62C9AD"/>
<path d="M219.429 289.475V284.335L253.054 282.755L253.478 288.521L219.429 289.475Z" fill="#52A393"/>
<path d="M297.611 307.05V289.475L264.564 288.521L263.737 307.05H297.611Z" fill="#F3614C"/>
<path d="M263.76 306.544H263.737L264.023 300.65L263.76 306.544Z" fill="#C4B7A8"/>
<path d="M297.611 307.05L263.76 306.544L264.023 300.649L297.611 301.587V307.05Z" fill="#D45441"/>
<path d="M294.275 289.475V273.668L261.259 274.479L260.226 288.521L294.275 289.475Z" fill="#F3614C"/>
<path d="M294.275 289.475L260.226 288.521L260.65 282.755L294.275 284.335V289.475Z" fill="#D45441"/>
<path d="M342.261 273.707V260.604L309.211 260.558L308.176 274.657L342.261 273.707Z" fill="#F9A82D"/>
<path d="M308.193 274.423L308.601 268.867L342.26 268.567V273.707L338.924 273.8V273.668L308.193 274.423Z" fill="#EE8B27"/>
<path d="M340.906 260.635L341.264 247.537L308.226 246.662L306.808 260.73L340.906 260.635Z" fill="#F9A82D"/>
<path d="M306.808 260.73L307.39 254.953L341.047 255.497L340.906 260.635L309.199 260.724L306.808 260.73Z" fill="#EE8B27"/>
<path d="M342.261 307.05V289.475L309.213 288.521L308.387 307.05H342.261Z" fill="#F9A82D"/>
<path d="M308.409 306.544H308.387L308.672 300.65L308.409 306.544Z" fill="#E2B3A8"/>
<path d="M342.26 307.05L308.409 306.544L308.672 300.649L342.26 301.587V307.05Z" fill="#EE8B27"/>
<path d="M338.924 289.475V273.668L305.908 274.479L304.875 288.521L338.924 289.475Z" fill="#F9A82D"/>
<path d="M338.924 289.475L304.875 288.521L305.299 282.755L338.924 284.335V289.475Z" fill="#EE8B27"/>
<path d="M201.072 305.976C197.189 310.346 195.634 317.768 201.799 319.914C207.963 322.058 349.047 321.373 353.743 317.722C358.44 314.07 357.084 308.045 352.099 305.976C347.114 303.907 203.889 302.806 201.072 305.976Z" fill="white"/>
<path d="M182.713 194.204C182.401 196.355 184.666 215.679 186.05 217.198C187.433 218.717 210.079 213.945 211.212 211.341C212.344 208.738 207.362 190.956 206.003 189.649C204.644 188.342 183.119 191.401 182.713 194.204Z" fill="#F3614C"/>
<path d="M134.055 195.998C126.235 205.138 131.757 222.908 148.868 218.643C165.978 214.377 162.478 201.612 159.929 197.315C155.533 189.906 140.501 188.464 134.055 195.998Z" fill="#4687A6"/>
<path d="M144.018 201.697C142.552 203.412 143.587 206.744 146.797 205.944C150.006 205.144 149.349 202.75 148.871 201.945C148.047 200.555 145.228 200.284 144.018 201.697Z" fill="#232432"/>
<path d="M307.527 217.381C317.832 210.884 318.079 192.343 300.418 191.54C282.757 190.737 282.135 203.921 283.234 208.75C285.129 217.076 299.033 222.737 307.527 217.381Z" fill="#F9A82D"/>
<path d="M300.34 206.246C302.272 205.028 302.319 201.551 299.007 201.4C295.695 201.249 295.578 203.722 295.784 204.627C296.14 206.189 298.747 207.25 300.34 206.246Z" fill="#232432"/>
<path d="M198.554 206.225C200.382 204.866 200.146 201.396 196.832 201.492C193.517 201.589 193.602 204.062 193.881 204.95C194.362 206.48 197.047 207.345 198.554 206.225Z" fill="#232432"/>
<path d="M261.079 191.898C256.92 190.578 233.423 195.603 231.309 197.934C229.196 200.266 247.918 222.046 251.8 221.784C255.681 221.523 265.464 193.29 261.079 191.898Z" fill="#62C9AD"/>
<path d="M251.422 206.225C253.25 204.866 253.014 201.396 249.7 201.492C246.386 201.589 246.47 204.062 246.749 204.95C247.23 206.48 249.915 207.345 251.422 206.225Z" fill="#232432"/>
</svg>
