<svg width="320" height="294" viewBox="0 0 320 294" fill="none" xmlns="http://www.w3.org/2000/svg">
<g clip-path="url(#clip0_12479_38027)">
<path d="M0 304.889H320V6.10352e-05H0V304.889Z" fill="white"/>
<path d="M161.688 126.209C160.983 126.728 156.137 127.026 150.41 127.118C150.763 123.426 150.618 116.953 145.26 117.091C139.918 117.236 140.615 123.503 141.457 127.08C135.553 126.958 130.46 126.606 129.649 126.048C127.636 124.665 127.676 111.672 129.641 110.005C130.933 108.904 159.426 109.47 161.672 110.173C163.927 110.869 163.477 124.909 161.688 126.209Z" fill="#4687A6"/>
<path d="M157.724 122.896C155.911 122.896 153.317 122.701 153.317 122.701C153.317 122.701 152.975 114.579 145.715 114.579C145.533 114.579 145.348 114.584 145.156 114.594C138.442 114.962 138.341 122.701 138.341 122.701C138.341 122.701 135.471 122.659 133.452 122.659C132.442 122.659 131.645 122.669 131.526 122.701C131.524 122.701 131.522 122.702 131.52 122.702C131.165 122.702 130.966 113.651 131.916 113.057C132.315 112.806 137.021 112.691 142.425 112.691C149.95 112.691 158.833 112.914 159.344 113.313C160.223 113.996 159.721 122.265 159.434 122.702C159.338 122.847 158.628 122.896 157.724 122.896Z" fill="#3A6F8C"/>
<path d="M113.819 72.0573C113.318 72.4719 98.0754 90.2244 98.4562 91.6537C98.8364 93.0836 128.514 92.8824 129.402 91.6537C130.29 90.425 114.505 71.4896 113.819 72.0573Z" fill="#F9A82D"/>
<path d="M113.32 89.6218C109.039 89.6212 104.94 89.4389 104.832 89.034C104.609 88.1931 113.576 77.7495 113.871 77.5055C113.876 77.5007 113.884 77.4982 113.894 77.4982C114.546 77.4982 123.553 88.3218 123.038 89.034C122.767 89.409 117.938 89.6218 113.32 89.6218Z" fill="#CD8D27"/>
<path d="M105.821 92.3362C103.857 94.0009 103.817 106.993 105.834 108.378C107.85 109.762 120.008 109.683 121.793 108.378C123.579 107.073 124.028 93.035 121.781 92.3362C119.533 91.6374 107.117 91.2374 105.821 92.3362Z" fill="#4687A6"/>
<path d="M113.773 105.866C111.685 105.866 109.603 105.669 109.004 105.259C107.788 104.423 107.812 96.5887 108.996 95.585C109.345 95.2893 111.03 95.1734 112.909 95.1734C115.24 95.1734 117.87 95.3515 118.62 95.585C119.976 96.0064 119.704 104.471 118.628 105.259C118.081 105.658 115.924 105.866 113.773 105.866Z" fill="#3A6F8C"/>
<path d="M105.821 109.17C103.857 110.835 103.817 123.827 105.834 125.212C107.85 126.597 120.008 126.517 121.793 125.212C123.579 123.907 124.028 109.869 121.781 109.17C119.533 108.472 107.117 108.072 105.821 109.17Z" fill="#62C9AD"/>
<path d="M113.773 122.701C111.686 122.701 109.603 122.504 109.004 122.093C107.788 121.257 107.812 113.423 108.996 112.419C109.345 112.123 111.03 112.008 112.909 112.008C115.24 112.008 117.87 112.186 118.62 112.419C119.976 112.84 119.704 121.305 118.628 122.093C118.081 122.492 115.924 122.701 113.773 122.701Z" fill="#52A393"/>
<path d="M82.6764 125.709C80.7123 127.374 80.672 140.366 82.6886 141.751C84.7052 143.135 96.8627 143.055 98.6483 141.751C100.434 140.446 100.883 126.408 98.6361 125.709C96.3884 125.01 83.9724 124.61 82.6764 125.709Z" fill="#F3614C"/>
<path d="M90.6284 139.24C88.5401 139.24 86.4575 139.043 85.8585 138.632C84.6425 137.796 84.6668 129.962 85.8514 128.958C86.2002 128.662 87.8847 128.547 89.7638 128.547C92.0946 128.547 94.725 128.725 95.4751 128.958C96.8306 129.38 96.5593 137.844 95.4828 138.632C94.9362 139.031 92.7794 139.24 90.6284 139.24Z" fill="#D45441"/>
<path d="M129.637 125.709C127.673 127.374 127.633 140.366 129.649 141.751C131.666 143.135 159.903 143.219 161.688 141.914C163.473 140.609 163.923 126.571 161.676 125.873C159.429 125.174 130.934 124.61 129.637 125.709Z" fill="#F3614C"/>
<path d="M147.292 139.326C140.677 139.326 133.48 139.085 132.82 138.632C131.604 137.796 131.628 129.962 132.812 128.958C133.111 128.705 136.743 128.608 141.19 128.608C148.371 128.608 157.678 128.861 158.515 129.122C159.871 129.543 159.6 138.008 158.523 138.795C158.03 139.155 152.868 139.326 147.292 139.326Z" fill="#D45441"/>
<path d="M105.821 125.709C103.857 127.374 103.817 140.366 105.834 141.751C107.85 143.135 120.008 143.055 121.793 141.751C123.579 140.446 124.028 126.408 121.781 125.709C119.533 125.01 107.117 124.61 105.821 125.709Z" fill="#F3614C"/>
<path d="M113.773 139.24C111.685 139.24 109.603 139.043 109.004 138.632C107.788 137.796 107.812 129.962 108.996 128.958C109.345 128.662 111.03 128.547 112.909 128.547C115.24 128.547 117.87 128.725 118.62 128.958C119.976 129.38 119.704 137.844 118.628 138.632C118.081 139.031 115.924 139.24 113.773 139.24Z" fill="#D45441"/>
<path d="M194.571 95.9156C194.573 96.7095 194.611 97.4888 194.682 98.2486C195.528 107.287 200.735 114.333 207.948 116.196C212.415 117.351 216.593 116.159 219.413 112.929C222.301 109.62 222.99 104.918 221.128 101.226C219.742 98.4785 215.723 93.8881 204.339 94.107C200.717 94.1723 197.455 94.7784 194.571 95.9156ZM278.896 127.659L277.622 127.539C280.559 99.2371 268.547 84.8256 257.953 77.7205C242.37 67.2689 221.612 67.2067 209.992 72.4544C199.143 77.354 194.993 86.5305 194.602 94.5875C197.499 93.521 200.742 92.9521 204.314 92.8875C216.403 92.6704 220.763 97.6864 222.282 100.697C224.356 104.812 223.599 110.041 220.397 113.709C217.243 117.321 212.583 118.657 207.612 117.373C199.876 115.375 194.301 107.91 193.407 98.3566C193.349 97.7376 193.312 97.1065 193.298 96.4644C190.959 97.5602 188.893 99.0346 187.113 100.883C178.348 109.976 179.3 125.243 179.311 125.396L178.034 125.477C177.989 124.831 177.03 109.547 186.165 100.063C188.204 97.9462 190.587 96.2937 193.301 95.1095C193.535 86.5391 197.817 76.6033 209.444 71.3525C221.69 65.8219 242.538 65.8902 258.689 76.7229C269.562 84.0152 281.894 98.7718 278.896 127.659Z" fill="#232432"/>
<path d="M171.577 136.724C171.577 136.724 168.478 120.705 178.481 121.314C188.484 121.922 185.929 136.724 185.929 136.724" fill="#F3614C"/>
<path d="M271.164 136.724C271.164 136.724 268.065 120.705 278.068 121.314C288.071 121.922 285.517 136.724 285.517 136.724" fill="#F3614C"/>
<path d="M167.746 147.094C167.746 147.094 167.286 137.029 169.33 135.153C171.373 133.277 187.377 133.784 188.74 135.153C190.101 136.521 190.734 147.094 190.734 147.094H167.746Z" fill="#232432"/>
<path d="M266.787 147.094C266.787 147.094 266.327 137.029 268.37 135.153C270.414 133.277 286.418 133.784 287.78 135.153C289.142 136.521 289.775 147.094 289.775 147.094H266.787Z" fill="#232432"/>
<path d="M210.814 73.9548C210.814 76.3811 208.75 78.3477 206.204 78.3477C203.658 78.3477 201.594 76.3811 201.594 73.9548C201.594 71.5291 203.658 69.5626 206.204 69.5626C208.75 69.5626 210.814 71.5291 210.814 73.9548Z" fill="#4687A6"/>
<path d="M241.002 69.5626C241.002 71.9883 238.938 73.9548 236.392 73.9548C233.846 73.9548 231.781 71.9883 231.781 69.5626C231.781 67.1363 233.846 65.1698 236.392 65.1698C238.938 65.1698 241.002 67.1363 241.002 69.5626Z" fill="#F9A82D"/>
<path d="M279.245 98.8528C279.245 101.279 277.181 103.246 274.635 103.246C272.089 103.246 270.025 101.279 270.025 98.8528C270.025 96.4271 272.089 94.4599 274.635 94.4599C277.181 94.4599 279.245 96.4271 279.245 98.8528Z" fill="#62C9AD"/>
<path d="M217.277 116.314C217.277 118.739 215.213 120.706 212.666 120.706C210.12 120.706 208.056 118.739 208.056 116.314C208.056 113.887 210.12 111.921 212.666 111.921C215.213 111.921 217.277 113.887 217.277 116.314Z" fill="#F3614C"/>
<path d="M26.6384 32.9188C29.7005 34.1006 33.9697 32.028 33.4742 28.4425C32.979 24.857 27.8587 23.3203 25.117 26.0783C22.3752 28.8364 23.5104 31.7115 26.6384 32.9188Z" fill="#F9A82D"/>
<path d="M259.867 37.2121C262.93 38.3939 267.199 36.3219 266.703 32.7364C266.208 29.1503 261.088 27.6142 258.346 30.3722C255.604 33.1303 256.74 36.0048 259.867 37.2121Z" fill="#62C9AD"/>
<path d="M294.89 24.65C297.953 25.8318 302.222 23.7592 301.726 20.1737C301.231 16.5882 296.111 15.0515 293.369 17.8095C290.627 20.5676 291.763 23.4427 294.89 24.65Z" fill="#F6886F"/>
<path d="M64.0731 56.399C70.4667 58.8668 79.3819 54.5398 78.347 47.053C77.3127 39.5655 66.6209 36.3568 60.8961 42.1162C55.1709 47.8749 57.5416 53.8782 64.0731 56.399Z" fill="#F6886F"/>
<path d="M285.804 59.5521C292.198 62.0199 301.113 57.6929 300.079 50.2054C299.044 42.7185 288.352 39.5099 282.627 45.2686C276.902 51.028 279.273 57.0313 285.804 59.5521Z" fill="#4687A6"/>
<path d="M298.657 254.375L77.3126 249.545C77.3126 249.545 77.2294 232.167 77.1654 211.483C77.0694 181.836 77.0118 145.402 77.3126 143.615C77.8182 140.59 297.025 140.907 297.057 143.359C297.082 144.877 297.69 187.409 298.151 219.374C298.433 238.832 298.657 254.375 298.657 254.375Z" fill="#F0D3A6"/>
<path d="M212.983 235.28L212.586 229.906L210.661 229.859L210.318 225.205L209.805 218.245L202.061 218.255C201.685 207.557 201.126 198.711 200.299 197.512C199.107 195.787 197.151 194.905 195.302 194.905C193.662 194.905 192.106 195.598 191.24 197.012C190.553 198.134 190.379 207.266 190.431 218.272L181.973 218.283V229.259L184.782 229.337V234.707C174.585 234.053 164.702 232.951 155.244 231.537C155.256 230.21 155.19 229.409 155.19 229.409C155.19 229.409 155.667 229.461 156.449 229.461C159.085 229.461 165.189 228.871 168.2 223.711C171.259 218.46 163.11 209.546 154.932 209.546C152.691 209.546 150.446 210.216 148.431 211.815C142.978 216.145 144.407 223.167 144.084 229.695C137.509 228.509 131.179 227.189 125.134 225.787C118.238 214.423 107.376 203.57 91.6295 199.265C91.5892 176.621 91.6071 155.465 91.8087 154.167C92.0289 152.751 139.259 152.113 186.675 152.113C234.602 152.113 282.721 152.764 282.737 153.922C282.753 155.064 283.096 181.196 283.438 207.235L280.283 207.151C279.957 201.925 279.548 198.254 279.035 197.512C277.843 195.787 275.887 194.905 274.038 194.905C272.398 194.905 270.842 195.598 269.977 197.012C269.551 197.707 269.322 201.477 269.222 206.86L259.559 206.605L258.364 218.389L260.378 218.384L259.875 225.205L259.532 229.859L257.607 229.906L257.551 230.653C254.295 231.267 251.054 231.812 247.811 232.298V229.226L241.107 229.39C240.757 214.323 240.131 199.112 239.027 197.512C237.835 195.787 235.879 194.905 234.03 194.905C232.39 194.905 230.834 195.598 229.969 197.012C229.052 198.509 229.048 214.252 229.276 229.679L220.008 229.906L219.628 235.041C217.401 235.146 215.192 235.225 212.983 235.28ZM218.091 165.112C212.108 165.112 196.365 168.617 194.787 170.35C193.017 172.291 208.585 190.329 211.982 190.329C212.002 190.329 212.022 190.328 212.042 190.327C215.311 190.107 223.549 166.46 219.855 165.294C219.459 165.169 218.854 165.112 218.091 165.112ZM251.708 164.965C238.08 164.965 237.614 175.484 238.513 179.409C239.676 184.494 246.216 188.392 252.446 188.393C254.761 188.393 257.032 187.855 258.97 186.639C267.648 181.197 267.856 165.667 252.984 164.994C252.547 164.975 252.121 164.965 251.708 164.965ZM123.244 164.546C119.311 164.546 115.354 165.861 112.888 168.728C106.99 175.585 110.105 188.241 121.171 188.241C122.461 188.241 123.859 188.069 125.362 187.696C139.771 184.122 136.823 173.43 134.677 169.831C132.657 166.445 127.969 164.546 123.244 164.546ZM171.698 163.15C166.868 163.15 154.149 165.262 153.863 167.226C153.601 169.027 155.508 185.214 156.673 186.486C156.828 186.654 157.297 186.73 157.996 186.73C162.573 186.73 177.035 183.472 177.862 181.579C178.815 179.4 174.62 164.505 173.476 163.41C173.288 163.231 172.645 163.15 171.698 163.15Z" fill="#F6E8CD"/>
<path d="M157.996 186.73C157.297 186.73 156.828 186.654 156.673 186.486C155.508 185.214 153.601 169.027 153.863 167.226C154.149 165.263 166.868 163.15 171.698 163.15C172.645 163.15 173.288 163.231 173.476 163.41C174.62 164.505 178.815 179.4 177.862 181.58C177.035 183.472 162.573 186.73 157.996 186.73Z" fill="#E9C7A6"/>
<path d="M121.171 188.241C110.105 188.241 106.99 175.585 112.888 168.728C115.354 165.861 119.311 164.546 123.244 164.546C127.969 164.546 132.657 166.445 134.677 169.832C136.823 173.431 139.771 184.122 125.362 187.696C123.859 188.069 122.461 188.241 121.171 188.241Z" fill="#E9C7A6"/>
<path d="M252.445 188.393C246.216 188.392 239.676 184.494 238.513 179.409C237.614 175.484 238.08 164.965 251.708 164.965C252.121 164.965 252.547 164.975 252.984 164.994C267.856 165.667 267.648 181.197 258.97 186.639C257.032 187.855 254.761 188.393 252.445 188.393Z" fill="#E9C7A6"/>
<path d="M211.981 190.329C208.585 190.329 193.017 172.291 194.787 170.35C196.365 168.617 212.107 165.112 218.091 165.112C218.854 165.112 219.459 165.169 219.855 165.294C223.549 166.46 215.311 190.107 212.042 190.327C212.022 190.328 212.002 190.329 211.981 190.329Z" fill="#E9C7A6"/>
<path d="M298.551 247.076H288.219V242.466L285.41 242.385V238.161V229.337L288.219 229.259V224.953V222.845C291.533 221.769 294.846 220.612 298.151 219.373C298.315 230.698 298.459 240.696 298.551 247.076Z" fill="#E3B689"/>
<path d="M260.147 247.076H250.62V242.466L247.81 242.385V238.161V232.298C251.053 231.812 254.295 231.267 257.551 230.653L256.737 241.667L260.385 241.769L260.147 247.076ZM222.548 247.076H210.044L209.806 241.769L213.454 241.667L212.983 235.28C215.191 235.225 217.401 235.146 219.627 235.041L219.138 241.667L222.786 241.769L222.548 247.076ZM181.972 247.076H151.412C152.399 245.394 153.136 243.619 153.685 241.868C154.96 237.8 155.221 233.861 155.243 231.537C164.702 232.951 174.585 234.053 184.782 234.707V242.386L181.972 242.466V247.076ZM132.989 243.72C131.433 238.228 128.864 231.934 125.134 225.787C131.179 227.189 137.508 228.509 144.084 229.695C143.852 234.374 142.72 238.799 137.511 241.797C136.027 242.652 134.51 243.279 132.989 243.72Z" fill="#E9C7A6"/>
<path d="M0 304.889H320V247.076H0V304.889Z" fill="#F6E4CC"/>
<path d="M21.8505 68.942C17.6237 72.6415 18.014 101.007 22.4673 103.963C26.9205 106.919 53.4598 106.338 57.3098 103.43C61.1595 100.522 61.6253 69.8603 56.693 68.4097C51.7605 66.959 24.6405 66.5005 21.8505 68.942Z" fill="#F9A82D"/>
<path d="M38.6122 98.2247C34.4394 98.2247 30.4899 97.8546 29.2735 97.0472C26.588 95.2649 26.3527 78.16 28.9015 75.9288C29.7507 75.1855 34.3379 74.8879 39.0565 74.8879C43.6847 74.8879 48.4394 75.1745 49.9122 75.6075C52.8867 76.4825 52.6057 94.9722 50.2842 96.7259C49.0142 97.6851 43.6507 98.2247 38.6122 98.2247Z" fill="#CD8D27"/>
<path d="M40.6364 92.1914H40.6282C40.0979 92.1871 39.6717 91.7743 39.676 91.2694L39.7452 83.321L37.6769 85.4607C37.3177 85.8333 36.7102 85.8558 36.3205 85.5143C35.9304 85.1716 35.9054 84.5936 36.2645 84.2216L40.0195 80.3367C40.2885 80.0587 40.7084 79.9666 41.0785 80.1056C41.4477 80.2446 41.689 80.5855 41.6857 80.9636L41.596 91.2841C41.5917 91.7865 41.1627 92.1914 40.6364 92.1914Z" fill="white"/>
<path d="M36.0305 92.6277C35.5071 92.6277 35.079 92.2277 35.0708 91.727C35.063 91.2221 35.4865 90.8063 36.0166 90.7984L44.5496 90.677H44.5643C45.0878 90.677 45.5158 91.077 45.524 91.5777C45.5318 92.0825 45.1083 92.4984 44.5786 92.5063L36.0453 92.6277H36.0305Z" fill="white"/>
<path d="M27.2329 105.865C23.0061 109.565 23.3963 137.93 27.8496 140.886C32.3028 143.842 58.8418 143.262 62.6919 140.353C66.5422 137.444 67.0074 106.783 62.0753 105.332C57.1428 103.882 30.0228 103.423 27.2329 105.865Z" fill="#F3614C"/>
<path d="M43.9943 135.148C39.8224 135.148 35.8721 134.778 34.6556 133.971C31.9703 132.188 31.7351 115.083 34.2839 112.852C35.1331 112.109 39.7203 111.811 44.4388 111.811C49.0671 111.811 53.8219 112.098 55.2946 112.531C58.2691 113.406 57.9881 131.895 55.6666 133.649C54.3966 134.609 49.0334 135.148 43.9943 135.148Z" fill="#D45441"/>
<path d="M40.3331 130.203L40.2109 130.196C39.6851 130.133 39.3129 129.675 39.3794 129.174C39.7394 126.47 41.1828 117.578 44.6504 116.706C45.2601 116.552 45.8856 116.657 46.4579 117.01C49.1852 118.69 50.6813 126.557 50.9533 128.117C51.0406 128.616 50.6871 129.086 50.1641 129.169C49.6441 129.254 49.1469 128.916 49.0596 128.417C48.4394 124.868 46.8989 119.459 45.4154 118.546C45.2531 118.446 45.1796 118.463 45.1404 118.474C43.9466 118.775 42.1329 123.039 41.2844 129.404C41.2226 129.866 40.8093 130.203 40.3331 130.203Z" fill="white"/>
<path d="M41.0808 126.137C40.5848 126.137 40.1648 125.774 40.1248 125.295C40.0828 124.792 40.477 124.351 41.0058 124.311L49.1143 123.697C49.642 123.655 50.1048 124.032 50.147 124.536C50.1893 125.04 49.7948 125.48 49.266 125.52L41.1578 126.134L41.0808 126.137Z" fill="white"/>
<path d="M21.6015 142.248C17.375 145.948 17.7653 174.312 22.2183 177.268C26.6715 180.224 53.2108 179.644 57.0608 176.735C60.9108 173.827 61.3766 143.166 56.444 141.715C51.5118 140.265 24.3915 139.806 21.6015 142.248Z" fill="#62C9AD"/>
<path d="M38.3634 171.531C34.1908 171.531 30.2411 171.16 29.0246 170.353C26.3391 168.571 26.1041 151.466 28.6526 149.235C29.5021 148.491 34.0893 148.194 38.8078 148.194C43.4361 148.194 48.1908 148.48 49.6636 148.913C52.6379 149.788 52.3571 168.278 50.0356 170.032C48.7656 170.991 43.4018 171.531 38.3634 171.531Z" fill="#52A393"/>
<path d="M37.5378 165.822C39.6045 166.094 42.6128 166.141 43.8121 165.254C44.1388 165.013 44.296 164.732 44.323 164.346C44.3653 163.732 44.1918 163.224 43.7931 162.792C42.773 161.688 40.5128 161.327 39.7278 161.281C39.262 161.255 38.8835 160.913 38.8318 160.47C38.7795 160.029 39.0673 159.616 39.5153 159.491C39.552 159.48 43.3623 158.344 42.9245 156.335C42.5203 154.479 39.3233 153.885 37.3346 153.758L37.5378 165.822ZM40.1578 167.831C38.3353 167.831 36.7295 167.559 36.4123 167.502C35.9645 167.422 35.6383 167.052 35.6307 166.618L35.3986 152.831C35.3903 152.326 35.813 151.91 36.3433 151.901C36.6515 151.898 43.9048 151.834 44.8045 155.964C45.198 157.77 44.099 159.131 42.714 160.047C43.6146 160.362 44.5493 160.844 45.229 161.578C45.9758 162.383 46.3155 163.355 46.2386 164.466C46.1765 165.369 45.7435 166.143 44.987 166.701C43.7823 167.59 41.874 167.831 40.1578 167.831Z" fill="white"/>
<path d="M25.9461 179.094C21.7196 182.793 22.1096 211.158 26.5629 214.114C31.0161 217.07 57.5554 216.49 61.4054 213.581C65.2555 210.673 65.7208 180.012 60.7886 178.561C55.8564 177.11 28.7361 176.652 25.9461 179.094Z" fill="#4687A6"/>
<path d="M42.708 208.376C38.5357 208.376 34.5855 208.006 33.3693 207.199C30.6838 205.416 30.4485 188.311 32.9975 186.08C33.8467 185.337 38.434 185.039 43.1528 185.039C47.781 185.039 52.5352 185.326 54.0083 185.759C56.0888 186.371 56.5765 195.601 55.8872 201.694C51.956 203.484 48.4047 205.747 45.213 208.332C44.3825 208.361 43.5405 208.376 42.708 208.376Z" fill="#3A6F8C"/>
<path d="M42.8732 204.051C41.8614 204.051 40.843 203.874 39.9315 203.399C38.147 202.468 37.1372 200.633 36.9304 197.944C36.7064 195.03 37.4522 192.764 39.1477 191.209C41.9567 188.634 46.2995 189.064 46.4827 189.084C47.0094 189.14 47.3889 189.593 47.3297 190.095C47.2707 190.596 46.7972 190.954 46.2705 190.902C46.214 190.895 42.6157 190.56 40.4709 192.535C39.2122 193.694 38.6654 195.469 38.8454 197.811C39.0014 199.839 39.6757 201.179 40.8502 201.792C43.0002 202.916 46.6202 201.544 47.8334 200.922C48.3004 200.682 48.8827 200.848 49.134 201.291C49.3857 201.736 49.2129 202.29 48.747 202.531C48.588 202.613 45.7564 204.051 42.8732 204.051Z" fill="white"/>
<path d="M22.8333 215.367C18.6068 219.067 18.9968 247.432 23.4501 250.387C27.9033 253.344 54.4426 252.763 58.2926 249.855C62.1424 246.946 62.6083 216.285 57.6759 214.834C52.7433 213.384 25.6233 212.925 22.8333 215.367Z" fill="#F3614C"/>
<path d="M28.1359 230.363C28.2781 226.593 28.8536 223.256 29.8843 222.354C30.2871 222.002 31.5296 221.749 33.2283 221.581C31.2804 224.462 29.5886 227.424 28.1359 230.363Z" fill="#D45441"/>
<path d="M37.7078 227.265L37.4298 237.643C38.7823 237.585 41.3131 237.276 42.9203 235.857C43.9005 234.991 44.3891 233.854 44.4141 232.379C44.4393 230.9 43.9935 229.772 43.0518 228.93C41.5008 227.544 39.0116 227.294 37.7078 227.265ZM36.9038 239.487C36.6068 239.487 36.4211 239.477 36.3851 239.475C35.8696 239.443 35.4721 239.03 35.4853 238.538L35.8118 226.342C35.8243 225.875 36.2053 225.492 36.6948 225.454C36.8923 225.438 41.5855 225.111 44.3651 227.596C45.7053 228.794 46.3678 230.413 46.3341 232.409C46.3003 234.385 45.5885 235.998 44.218 237.205C41.8616 239.28 38.2466 239.487 36.9038 239.487Z" fill="white"/>
<path d="M159.897 275.982C76.5877 275.982 9.05237 272.808 9.05237 268.891C9.05237 266.419 35.9882 264.241 76.8142 262.972C79.691 263 82.5729 263.015 85.4267 263.015C98.3457 263.015 110.724 262.72 119.77 262.054C132.549 261.889 146 261.801 159.897 261.801C243.207 261.801 310.742 264.975 310.742 268.891C310.742 272.808 243.207 275.982 159.897 275.982Z" fill="#E9C3A6"/>
<path d="M168.2 223.711C164.296 230.401 155.19 229.409 155.19 229.409C155.19 229.409 155.688 235.478 153.685 241.868C151.958 247.38 148.364 253.13 140.979 255.428C136.604 256.786 132.586 257.4 129.057 257.573C119.731 258.041 113.845 255.428 113.845 255.428L110.202 240.063C110.202 240.063 125.026 248.987 137.511 241.797C149.99 234.614 139.07 219.248 148.431 211.815C157.798 204.382 172.097 217.02 168.2 223.711Z" fill="#F9A82D"/>
<path d="M134.759 256.935C134.825 256.378 134.858 255.754 134.858 255.072C134.858 253.825 134.748 252.38 134.521 250.78C134.422 250.087 134.302 249.366 134.159 248.617C135.056 248.757 136.109 248.857 137.285 248.857C141.603 248.857 147.588 247.513 153.685 241.868C151.958 247.381 148.363 253.13 140.978 255.429C138.813 256.101 136.734 256.591 134.759 256.935Z" fill="#CD8D27"/>
<path d="M153.787 212.961C151.252 213.705 150.665 215.326 151.705 217.31C152.746 219.294 156.67 217.997 157.311 216.319C157.952 214.64 155.628 212.421 153.787 212.961Z" fill="#232432"/>
<path d="M154.127 214.647C153.214 214.915 153.002 215.498 153.377 216.213C153.752 216.927 155.165 216.46 155.395 215.856C155.626 215.251 154.79 214.453 154.127 214.647Z" fill="white"/>
<path d="M146.782 219.392C145.868 221.135 148.123 222.122 149.159 220.263C150.196 218.405 147.696 217.65 146.782 219.392Z" fill="#F6941D"/>
<path d="M149.904 225.658C149.447 226.529 150.574 227.023 151.093 226.094C151.61 225.165 150.361 224.787 149.904 225.658Z" fill="#F6941D"/>
<path d="M149.128 222.011C146.921 223.043 147.974 225.472 150.377 224.412C152.781 223.352 151.334 220.979 149.128 222.011Z" fill="#F6941D"/>
<path d="M145.725 226.163C144.833 228.148 147.786 229.667 148.799 227.549C149.811 225.431 146.617 224.179 145.725 226.163Z" fill="#F6941D"/>
<path d="M156.712 218.64C153.175 219.04 154.347 222.705 156.623 222.705C158.9 222.705 159.709 218.301 156.712 218.64Z" fill="#F3614C"/>
<path d="M134.057 259.334C130.381 265.109 25.8095 263.29 21.65 259.334C20.5078 258.245 20.6086 253.028 22.3488 246.036C26.9115 227.635 42.8306 196.981 77.2826 197.32C115.713 197.698 132.054 233.404 134.521 250.78C135.105 254.897 134.917 257.983 134.057 259.334Z" fill="#62C9AD"/>
<path d="M85.4267 263.015C56.0716 263.015 23.9193 261.493 21.6501 259.334C21.1593 258.866 20.8978 257.636 20.8976 255.83C20.8971 253.434 21.3563 250.023 22.3488 246.036C33.5008 249.667 59.1206 256.937 89.2846 256.937C103.688 256.937 119.121 255.281 134.521 250.78C134.748 252.38 134.858 253.825 134.858 255.072C134.858 257.034 134.583 258.508 134.057 259.334C132.387 261.958 109.876 263.015 85.4267 263.015Z" fill="#52A393"/>
<path d="M57.9283 258.028C57.9283 265.76 51.3495 272.029 43.2343 272.029C35.119 272.029 28.5405 265.76 28.5405 258.028C28.5405 250.296 35.119 244.029 43.2343 244.029C51.3495 244.029 57.9283 250.296 57.9283 258.028Z" fill="#F9A82D"/>
<path d="M54.0274 258.029C54.0274 263.708 49.1952 268.312 43.2344 268.312C37.2736 268.312 32.4417 263.708 32.4417 258.029C32.4417 252.35 37.2736 247.746 43.2344 247.746C49.1952 247.746 54.0274 252.35 54.0274 258.029Z" fill="#232432"/>
<path d="M45.9292 258.029C45.9292 259.447 44.7227 260.597 43.2339 260.597C41.7454 260.597 40.5387 259.447 40.5387 258.029C40.5387 256.61 41.7454 255.461 43.2339 255.461C44.7227 255.461 45.9292 256.61 45.9292 258.029Z" fill="white"/>
<path d="M126.678 258.028C126.678 265.76 120.1 272.029 111.985 272.029C103.869 272.029 97.2909 265.76 97.2909 258.028C97.2909 250.296 103.869 244.029 111.985 244.029C120.1 244.029 126.678 250.296 126.678 258.028Z" fill="#F9A82D"/>
<path d="M122.778 258.029C122.778 263.708 117.946 268.312 111.985 268.312C106.024 268.312 101.192 263.708 101.192 258.029C101.192 252.35 106.024 247.746 111.985 247.746C117.946 247.746 122.778 252.35 122.778 258.029Z" fill="#232432"/>
<path d="M114.68 258.029C114.68 259.447 113.473 260.597 111.985 260.597C110.496 260.597 109.289 259.447 109.289 258.029C109.289 256.61 110.496 255.461 111.985 255.461C113.473 255.461 114.68 256.61 114.68 258.029Z" fill="white"/>
<path d="M59.0854 239.069C52.6704 239.069 42.9508 237.726 43.1031 236.332C43.3166 234.374 46.2686 224.718 47.3726 222.873C48.2304 221.441 51.2921 220.972 54.4804 220.972C58.2376 220.972 62.1706 221.624 62.8781 222.12C64.1855 223.037 66.6143 236.51 64.3723 238.327C63.7276 238.85 61.6766 239.069 59.0854 239.069Z" fill="#52A393"/>
<path d="M69.9842 222.336C69.7743 222.336 69.6329 222.295 69.5721 222.208C68.6511 220.884 71.3071 206.032 72.1871 203.668C72.3593 203.205 72.8233 203.002 73.494 203.002C77.5516 203.002 89.1663 210.416 89.4153 212.191C89.686 214.123 72.9481 222.337 69.9842 222.336Z" fill="#52A393"/>
<path d="M95.0156 241.848C93.7452 241.848 92.4371 241.693 91.1129 241.358C80.8966 238.773 83.8137 226.781 88.9888 222.178C91.3504 220.077 94.1312 219.148 96.8684 219.148C102.513 219.148 107.968 223.105 109.151 228.908C110.369 234.887 103.542 241.848 95.0156 241.848Z" fill="#52A393"/>
<path d="M44.9821 219.732C43.8778 221.576 40.9261 231.233 40.7123 233.191C40.4986 235.149 59.7401 237.003 61.9818 235.186C64.2234 233.369 61.7951 219.896 60.4873 218.979C59.1796 218.062 46.8501 216.612 44.9821 219.732Z" fill="#4687A6"/>
<path d="M74.2157 200.585C73.3357 202.949 70.6803 217.8 71.6013 219.124C72.5222 220.448 91.7344 211.176 91.4445 209.108C91.1545 207.039 75.433 197.316 74.2157 200.585Z" fill="#EC523A"/>
<path d="M91.0176 218.559C85.8425 223.162 82.9254 235.154 93.1417 237.74C103.358 240.325 112.58 232.159 111.179 225.289C109.424 216.673 98.2496 212.127 91.0176 218.559Z" fill="#F9A82D"/>
<path d="M191.24 260.463C191.24 260.463 189.4 200.018 191.24 197.012C193.081 194.005 198.05 194.255 200.299 197.512C202.547 200.77 202.81 260.463 202.81 260.463H191.24Z" fill="white"/>
<path d="M229.969 260.463C229.969 260.463 228.128 200.018 229.969 197.012C231.809 194.005 236.778 194.255 239.026 197.512C241.275 200.77 241.538 260.463 241.538 260.463H229.969Z" fill="white"/>
<path d="M269.977 260.463C269.977 260.463 268.136 200.018 269.977 197.012C271.817 194.005 276.786 194.255 279.035 197.512C281.284 200.77 281.547 260.463 281.547 260.463H269.977Z" fill="white"/>
<path d="M181.973 229.259V218.283L209.805 218.245L210.675 230.055L181.973 229.259Z" fill="#62C9AD"/>
<path d="M210.661 229.859L184.782 229.227V229.337L181.973 229.259V224.953L210.318 225.205L210.661 229.859Z" fill="#52A393"/>
<path d="M181.973 257.188V242.466L209.802 241.667L210.498 257.188H181.973Z" fill="#62C9AD"/>
<path d="M210.478 256.763L210.258 251.838L210.497 256.763H210.478Z" fill="#C4B7A8"/>
<path d="M181.973 257.188V252.611L210.258 251.826L210.259 251.838L210.48 256.763L181.973 257.188Z" fill="#52A393"/>
<path d="M184.782 242.467V229.226L212.586 229.906L213.455 241.667L184.782 242.467Z" fill="#62C9AD"/>
<path d="M184.782 242.467V238.161L213.098 236.838L213.455 241.667L184.782 242.467Z" fill="#52A393"/>
<path d="M250.62 257.188V242.466L222.79 241.667L222.095 257.188H250.62Z" fill="#F3614C"/>
<path d="M222.114 256.763H222.095L222.334 251.826L222.114 256.763Z" fill="#C4B7A8"/>
<path d="M250.62 257.188L222.114 256.763L222.335 251.826L250.62 252.611V257.188Z" fill="#D45441"/>
<path d="M247.81 242.467V229.226L220.007 229.906L219.138 241.667L247.81 242.467Z" fill="#F3614C"/>
<path d="M247.81 242.467L219.138 241.667L219.495 236.838L247.81 238.161V242.467Z" fill="#D45441"/>
<path d="M288.22 229.259V218.283L260.388 218.245L259.517 230.055L288.22 229.259Z" fill="#F9A82D"/>
<path d="M259.531 229.859L259.874 225.205L288.219 224.953V229.259L285.41 229.337V229.227L259.531 229.859Z" fill="#EE8B27"/>
<path d="M287.079 218.31L287.381 207.338L259.559 206.605L258.364 218.389L287.079 218.31Z" fill="#F9A82D"/>
<path d="M258.364 218.389L258.855 213.55L287.198 214.006L287.079 218.31L260.378 218.384L258.364 218.389Z" fill="#EE8B27"/>
<path d="M288.22 257.188V242.466L260.39 241.667L259.694 257.188H288.22Z" fill="#F9A82D"/>
<path d="M259.713 256.763H259.694L259.933 251.826L259.713 256.763Z" fill="#E2B3A8"/>
<path d="M288.22 257.188L259.713 256.763L259.935 251.826L288.22 252.611V257.188Z" fill="#EE8B27"/>
<path d="M285.41 242.467V229.226L257.607 229.906L256.737 241.667L285.41 242.467Z" fill="#F9A82D"/>
<path d="M285.41 242.467L256.737 241.667L257.094 236.838L285.41 238.161V242.467Z" fill="#EE8B27"/>
<path d="M169.324 256.288C166.054 259.948 164.744 266.165 169.936 267.962C175.127 269.758 293.934 269.184 297.889 266.126C301.844 263.067 300.702 258.021 296.504 256.288C292.307 254.555 171.696 253.633 169.324 256.288Z" fill="white"/>
<path d="M153.863 162.667C153.601 164.468 155.508 180.655 156.673 181.927C157.838 183.199 176.909 179.201 177.862 177.021C178.816 174.84 174.62 159.946 173.476 158.851C172.332 157.756 154.206 160.319 153.863 162.667Z" fill="#F3614C"/>
<path d="M112.888 164.169C106.303 171.825 110.953 186.71 125.362 183.137C139.771 179.564 136.823 168.872 134.677 165.273C130.976 159.066 118.317 157.859 112.888 164.169Z" fill="#4687A6"/>
<path d="M121.279 168.943C120.044 170.379 120.916 173.171 123.619 172.5C126.321 171.83 125.768 169.825 125.365 169.15C124.671 167.986 122.297 167.759 121.279 168.943Z" fill="#232432"/>
<path d="M258.97 182.08C267.648 176.638 267.856 161.108 252.984 160.435C238.112 159.762 237.587 170.806 238.513 174.851C240.109 181.825 251.817 186.566 258.97 182.08Z" fill="#F9A82D"/>
<path d="M252.918 172.753C254.545 171.733 254.584 168.82 251.795 168.694C249.006 168.568 248.908 170.639 249.081 171.397C249.381 172.705 251.576 173.594 252.918 172.753Z" fill="#232432"/>
<path d="M167.203 172.736C168.742 171.597 168.544 168.691 165.753 168.771C162.962 168.852 163.033 170.924 163.268 171.667C163.673 172.949 165.934 173.673 167.203 172.736Z" fill="#232432"/>
<path d="M219.856 160.735C216.354 159.63 196.567 163.838 194.787 165.791C193.007 167.744 208.773 185.987 212.042 185.768C215.31 185.549 223.549 161.901 219.856 160.735Z" fill="#62C9AD"/>
<path d="M211.724 172.736C213.263 171.597 213.065 168.691 210.274 168.771C207.483 168.852 207.554 170.924 207.789 171.667C208.194 172.949 210.455 173.673 211.724 172.736Z" fill="#232432"/>
</g>
<defs>
<clipPath id="clip0_12479_38027">
<rect width="320" height="294" rx="13.1135" fill="white"/>
</clipPath>
</defs>
</svg>
