<svg width="24" height="25" viewBox="0 0 24 25" fill="none" xmlns="http://www.w3.org/2000/svg">
<g id="reshot-icon-security-password-ZPH68Y97DF 1">
<g id="Security password">
<path id="Vector" d="M19.5 20.5V23C19.5 23.2652 19.3946 23.5196 19.2071 23.7071C19.0196 23.8946 18.7652 24 18.5 24H5.5C5.23478 24 4.98043 23.8946 4.79289 23.7071C4.60536 23.5196 4.5 23.2652 4.5 23V20.5H19.5Z" fill="#FFCC66"/>
<path id="Vector_2" d="M19.5 12V14.5H4.5V12C4.5 11.7348 4.60536 11.4804 4.79289 11.2929C4.98043 11.1054 5.23478 11 5.5 11H18.5C18.7652 11 19.0196 11.1054 19.2071 11.2929C19.3946 11.4804 19.5 11.7348 19.5 12Z" fill="#FFCC66"/>
<path id="Vector_3" d="M19.5 21.5V22.5H7C6.73478 22.5 6.48043 22.3946 6.29289 22.2071C6.10536 22.0196 6 21.7652 6 21.5H19.5Z" fill="#FFDE76"/>
<path id="Vector_4" d="M19.5 12V14.5H6V12C6 11.7348 6.10536 11.4804 6.29289 11.2929C6.48043 11.1054 6.73478 11 7 11H18.5C18.7652 11 19.0196 11.1054 19.2071 11.2929C19.3946 11.4804 19.5 11.7348 19.5 12Z" fill="#FFDE76"/>
<path id="Vector_5" d="M18 7V11H16C16 6.955 16.305 5.655 14.83 4.17C14.2706 3.60995 13.5576 3.22848 12.7812 3.07388C12.0049 2.91928 11.2001 2.9985 10.4688 3.30151C9.73755 3.60452 9.1126 4.1177 8.67312 4.77607C8.23364 5.43445 7.99938 6.20842 8 7V11H6V7C6 5.4087 6.63214 3.88258 7.75736 2.75736C8.88258 1.63214 10.4087 1 12 1C13.5913 1 15.1174 1.63214 16.2426 2.75736C17.3679 3.88258 18 5.4087 18 7Z" fill="#7C7D7D"/>
<path id="Vector_6" d="M18 7V11H16C16 6.955 16.305 5.655 14.83 4.17C14.2706 3.60995 13.5576 3.22848 12.7812 3.07388C12.0049 2.91928 11.2001 2.9985 10.4688 3.30151C9.73755 3.60452 9.1126 4.1177 8.67312 4.77607C8.23364 5.43445 7.99938 6.20842 8 7V11H6V7C6 5.4087 6.63214 3.88258 7.75736 2.75736C8.88258 1.63214 10.4087 1 12 1C13.5913 1 15.1174 1.63214 16.2426 2.75736C17.3679 3.88258 18 5.4087 18 7Z" fill="#7C7D7D"/>
<path id="Vector_7" d="M7 7.00004V11H8V7.00004C8.00088 6.02639 8.35686 5.08649 9.0012 4.35655C9.64554 3.62661 10.534 3.15674 11.5 3.03504C10.9373 2.96414 10.3659 3.01373 9.82374 3.18052C9.28162 3.34731 8.78118 3.62749 8.35561 4.00246C7.93004 4.37743 7.58908 4.83863 7.35537 5.35543C7.12165 5.87224 7.00051 6.43284 7 7.00004Z" fill="#747575"/>
<path id="Vector_8" d="M11.5 1.02502C12.9988 1.15036 14.3959 1.83403 15.4145 2.94061C16.4331 4.0472 16.999 5.49599 17 7.00002V11H18V7.00002C17.9994 6.1703 17.8268 5.34971 17.4929 4.5901C17.1591 3.8305 16.6714 3.14839 16.0605 2.58687C15.4496 2.02536 14.729 1.59664 13.944 1.32781C13.159 1.05898 12.3268 0.955877 11.5 1.02502Z" fill="#919191"/>
<path id="Vector_9" d="M22 14.5H2C1.44772 14.5 1 14.9477 1 15.5V19.5C1 20.0523 1.44772 20.5 2 20.5H22C22.5523 20.5 23 20.0523 23 19.5V15.5C23 14.9477 22.5523 14.5 22 14.5Z" fill="#DAD7E5"/>
<path id="Vector_10" d="M23 15.5V19.5H7.5C6.17392 19.5 4.90215 18.9732 3.96447 18.0355C3.02678 17.0979 2.5 15.8261 2.5 14.5H22C22.2652 14.5 22.5196 14.6054 22.7071 14.7929C22.8946 14.9804 23 15.2348 23 15.5Z" fill="#EDEBF2"/>
<path id="Vector_11" d="M4.61454 16.565C4.46454 16.655 4.49954 16.67 4.49954 16.5C4.49954 16.3674 4.44686 16.2402 4.35309 16.1464C4.25932 16.0527 4.13214 16 3.99954 16C3.86693 16 3.73975 16.0527 3.64598 16.1464C3.55221 16.2402 3.49954 16.3674 3.49954 16.5C3.49954 16.675 3.52954 16.65 3.38454 16.565C3.26917 16.4987 3.13218 16.4809 3.00372 16.5156C2.87526 16.5503 2.76584 16.6346 2.69954 16.75C2.63323 16.8654 2.61547 17.0024 2.65017 17.1308C2.68486 17.2593 2.76917 17.3687 2.88454 17.435C3.03454 17.52 3.02954 17.48 2.88454 17.565C2.76917 17.6313 2.68486 17.7407 2.65017 17.8692C2.61547 17.9976 2.63323 18.1346 2.69954 18.25C2.76584 18.3654 2.87526 18.4497 3.00372 18.4844C3.13218 18.5191 3.26917 18.5013 3.38454 18.435C3.53454 18.345 3.49954 18.33 3.49954 18.5C3.49954 18.6326 3.55221 18.7598 3.64598 18.8536C3.73975 18.9473 3.86693 19 3.99954 19C4.13214 19 4.25932 18.9473 4.35309 18.8536C4.44686 18.7598 4.49954 18.6326 4.49954 18.5C4.49954 18.325 4.46954 18.35 4.61454 18.435C4.7299 18.5013 4.86689 18.5191 4.99535 18.4844C5.12381 18.4497 5.23323 18.3654 5.29954 18.25C5.36584 18.1346 5.3836 17.9976 5.3489 17.8692C5.31421 17.7407 5.2299 17.6313 5.11454 17.565C4.96454 17.48 4.96954 17.52 5.11454 17.435C5.2299 17.3687 5.31421 17.2593 5.3489 17.1308C5.3836 17.0024 5.36584 16.8654 5.29954 16.75C5.23323 16.6346 5.12381 16.5503 4.99535 16.5156C4.86689 16.4809 4.7299 16.4987 4.61454 16.565Z" fill="#374F68"/>
<path id="Vector_12" d="M8.61454 16.565C8.46454 16.655 8.49954 16.67 8.49954 16.5C8.49954 16.3674 8.44686 16.2402 8.35309 16.1464C8.25932 16.0527 8.13214 16 7.99954 16C7.86693 16 7.73975 16.0527 7.64598 16.1464C7.55221 16.2402 7.49954 16.3674 7.49954 16.5C7.49954 16.675 7.52954 16.65 7.38454 16.565C7.26917 16.4987 7.13218 16.4809 7.00372 16.5156C6.87526 16.5503 6.76584 16.6346 6.69954 16.75C6.63323 16.8654 6.61547 17.0024 6.65017 17.1308C6.68486 17.2593 6.76917 17.3687 6.88454 17.435C7.03454 17.52 7.02954 17.48 6.88454 17.565C6.76917 17.6313 6.68486 17.7407 6.65017 17.8692C6.61547 17.9976 6.63323 18.1346 6.69954 18.25C6.76584 18.3654 6.87526 18.4497 7.00372 18.4844C7.13218 18.5191 7.26917 18.5013 7.38454 18.435C7.53454 18.345 7.49954 18.33 7.49954 18.5C7.49954 18.6326 7.55221 18.7598 7.64598 18.8536C7.73975 18.9473 7.86693 19 7.99954 19C8.13214 19 8.25932 18.9473 8.35309 18.8536C8.44686 18.7598 8.49954 18.6326 8.49954 18.5C8.49954 18.325 8.46954 18.35 8.61454 18.435C8.7299 18.5013 8.86689 18.5191 8.99535 18.4844C9.12381 18.4497 9.23323 18.3654 9.29954 18.25C9.36584 18.1346 9.3836 17.9976 9.3489 17.8692C9.31421 17.7407 9.2299 17.6313 9.11454 17.565C8.96454 17.48 8.96954 17.52 9.11454 17.435C9.2299 17.3687 9.31421 17.2593 9.3489 17.1308C9.3836 17.0024 9.36584 16.8654 9.29954 16.75C9.23323 16.6346 9.12381 16.5503 8.99535 16.5156C8.86689 16.4809 8.7299 16.4987 8.61454 16.565Z" fill="#374F68"/>
<path id="Vector_13" d="M16.6145 16.565C16.4645 16.655 16.4995 16.67 16.4995 16.5C16.4995 16.3674 16.4469 16.2402 16.3531 16.1464C16.2593 16.0527 16.1321 16 15.9995 16C15.8669 16 15.7398 16.0527 15.646 16.1464C15.5522 16.2402 15.4995 16.3674 15.4995 16.5C15.4995 16.675 15.5295 16.65 15.3845 16.565C15.2692 16.4987 15.1322 16.4809 15.0037 16.5156C14.8753 16.5503 14.7658 16.6346 14.6995 16.75C14.6332 16.8654 14.6155 17.0024 14.6502 17.1308C14.6849 17.2593 14.7692 17.3687 14.8845 17.435C15.0345 17.52 15.0295 17.48 14.8845 17.565C14.7692 17.6313 14.6849 17.7407 14.6502 17.8692C14.6155 17.9976 14.6332 18.1346 14.6995 18.25C14.7658 18.3654 14.8753 18.4497 15.0037 18.4844C15.1322 18.5191 15.2692 18.5013 15.3845 18.435C15.5345 18.345 15.4995 18.33 15.4995 18.5C15.4995 18.6326 15.5522 18.7598 15.646 18.8536C15.7398 18.9473 15.8669 19 15.9995 19C16.1321 19 16.2593 18.9473 16.3531 18.8536C16.4469 18.7598 16.4995 18.6326 16.4995 18.5C16.4995 18.325 16.4695 18.35 16.6145 18.435C16.7299 18.5013 16.8669 18.5191 16.9954 18.4844C17.1238 18.4497 17.2332 18.3654 17.2995 18.25C17.3658 18.1346 17.3836 17.9976 17.3489 17.8692C17.3142 17.7407 17.2299 17.6313 17.1145 17.565C16.9645 17.48 16.9695 17.52 17.1145 17.435C17.2299 17.3687 17.3142 17.2593 17.3489 17.1308C17.3836 17.0024 17.3658 16.8654 17.2995 16.75C17.2332 16.6346 17.1238 16.5503 16.9954 16.5156C16.8669 16.4809 16.7299 16.4987 16.6145 16.565Z" fill="#374F68"/>
<path id="Vector_14" d="M12.6145 16.565C12.4645 16.655 12.4995 16.67 12.4995 16.5C12.4995 16.3674 12.4469 16.2402 12.3531 16.1464C12.2593 16.0527 12.1321 16 11.9995 16C11.8669 16 11.7398 16.0527 11.646 16.1464C11.5522 16.2402 11.4995 16.3674 11.4995 16.5C11.4995 16.675 11.5295 16.65 11.3845 16.565C11.2692 16.4987 11.1322 16.4809 11.0037 16.5156C10.8753 16.5503 10.7658 16.6346 10.6995 16.75C10.6332 16.8654 10.6155 17.0024 10.6502 17.1308C10.6849 17.2593 10.7692 17.3687 10.8845 17.435C11.0345 17.52 11.0295 17.48 10.8845 17.565C10.7692 17.6313 10.6849 17.7407 10.6502 17.8692C10.6155 17.9976 10.6332 18.1346 10.6995 18.25C10.7658 18.3654 10.8753 18.4497 11.0037 18.4844C11.1322 18.5191 11.2692 18.5013 11.3845 18.435C11.5345 18.345 11.4995 18.33 11.4995 18.5C11.4995 18.6326 11.5522 18.7598 11.646 18.8536C11.7398 18.9473 11.8669 19 11.9995 19C12.1321 19 12.2593 18.9473 12.3531 18.8536C12.4469 18.7598 12.4995 18.6326 12.4995 18.5C12.4995 18.325 12.4695 18.35 12.6145 18.435C12.7299 18.5013 12.8669 18.5191 12.9954 18.4844C13.1238 18.4497 13.2332 18.3654 13.2995 18.25C13.3658 18.1346 13.3836 17.9976 13.3489 17.8692C13.3142 17.7407 13.2299 17.6313 13.1145 17.565C12.9645 17.48 12.9695 17.52 13.1145 17.435C13.2299 17.3687 13.3142 17.2593 13.3489 17.1308C13.3836 17.0024 13.3658 16.8654 13.2995 16.75C13.2332 16.6346 13.1238 16.5503 12.9954 16.5156C12.8669 16.4809 12.7299 16.4987 12.6145 16.565Z" fill="#374F68"/>
<path id="Vector_15" d="M21.1163 17.565C20.9663 17.48 20.9713 17.52 21.1163 17.435C21.2317 17.3687 21.316 17.2593 21.3507 17.1308C21.3854 17.0024 21.3676 16.8654 21.3013 16.75C21.235 16.6346 21.1256 16.5503 20.9971 16.5156C20.8687 16.4809 20.7317 16.4987 20.6163 16.565C20.4663 16.655 20.5013 16.67 20.5013 16.5C20.5013 16.3674 20.4486 16.2402 20.3549 16.1464C20.2611 16.0527 20.1339 16 20.0013 16C19.8687 16 19.7415 16.0527 19.6478 16.1464C19.554 16.2402 19.5013 16.3674 19.5013 16.5C19.5013 16.675 19.5313 16.65 19.3863 16.565C19.2709 16.4987 19.134 16.4809 19.0055 16.5156C18.877 16.5503 18.7676 16.6346 18.7013 16.75C18.635 16.8654 18.6172 17.0024 18.6519 17.1308C18.6866 17.2593 18.7709 17.3687 18.8863 17.435C19.0363 17.52 19.0313 17.48 18.8863 17.565C18.79 17.6196 18.7145 17.7046 18.6717 17.8067C18.6289 17.9088 18.6212 18.0222 18.6498 18.1292C18.6784 18.2361 18.7417 18.3306 18.8297 18.3977C18.9178 18.4648 19.0256 18.5008 19.1363 18.5C19.5213 18.5 19.5013 18.185 19.5013 18.5C19.5013 18.6326 19.554 18.7598 19.6478 18.8536C19.7415 18.9473 19.8687 19 20.0013 19C20.1339 19 20.2611 18.9473 20.3549 18.8536C20.4486 18.7598 20.5013 18.6326 20.5013 18.5V18.365C21.2913 18.82 21.6413 17.87 21.1163 17.565Z" fill="#374F68"/>
</g>
</g>
</svg>
