<svg width="72" height="72" viewBox="0 0 72 72" fill="none" xmlns="http://www.w3.org/2000/svg">
<g id="reshot-icon-teamwork-award-ZP9BJKDE3F 1">
<g id="Icons">
<g id="Group">
<g id="Group_2">
<path id="Vector" d="M11.25 42.75H14.625C16.4891 42.75 18 41.2391 18 39.375C18 38.754 17.496 38.25 16.875 38.25H14.625C12.7609 38.25 11.25 39.7609 11.25 41.625V42.75Z" fill="#C80A50"/>
</g>
<g id="Group_3">
<path id="Vector_2" d="M11.25 49.5H14.625C16.4891 49.5 18 47.9891 18 46.125C18 45.504 17.496 45 16.875 45H14.625C12.7609 45 11.25 46.5109 11.25 48.375V49.5Z" fill="#C80A50"/>
</g>
<g id="Group_4">
<path id="Vector_3" d="M11.25 36H14.625C16.4891 36 18 34.4891 18 32.625C18 32.004 17.496 31.5 16.875 31.5H14.625C12.7609 31.5 11.25 33.0109 11.25 34.875V36Z" fill="#C80A50"/>
</g>
<g id="Group_5">
<g id="Group_6">
<g id="Group_7">
<path id="Vector_4" d="M37.125 4.5H34.875C31.7689 4.5 29.25 7.01888 29.25 10.125V23.625C29.25 24.246 29.754 24.75 30.375 24.75H41.625C42.246 24.75 42.75 24.246 42.75 23.625V10.125C42.75 7.01888 40.2311 4.5 37.125 4.5Z" fill="#C80A50"/>
</g>
<g id="Group_8">
<path id="Vector_5" d="M45 36H27V24.75C27 22.2649 29.0149 20.25 31.5 20.25H40.5C42.9851 20.25 45 22.2649 45 24.75V36Z" fill="#C80A50"/>
</g>
<g id="Group_9">
<path id="Vector_6" d="M32.625 25.875V20.25H31.5C29.0149 20.25 27 22.2649 27 24.75V36H37.125V34.875C37.125 33.0109 35.6141 31.5 33.75 31.5H30.375V29.0576C31.6856 28.5941 32.625 27.3443 32.625 25.875Z" fill="#A00028"/>
</g>
<g id="Group_10">
<path id="Vector_7" d="M31.5 20.25C31.5 22.7351 33.5149 24.75 36 24.75C38.4851 24.75 40.5 22.7351 40.5 20.25H31.5Z" fill="#00A0C8"/>
</g>
<g id="Group_11">
<path id="Vector_8" d="M32.625 23.2256V20.25H31.5C31.5 21.3908 31.9253 22.4325 32.625 23.2256Z" fill="#0082AA"/>
</g>
<g id="Group_12">
<path id="Vector_9" d="M36 22.5C34.7569 22.5 33.75 21.4931 33.75 20.25V16.875H38.25V20.25C38.25 21.4931 37.2431 22.5 36 22.5Z" fill="#D2AA82"/>
</g>
<g id="Group_13">
<path id="Vector_10" d="M37.125 18H34.875C33.0109 18 31.5 16.4891 31.5 14.625V11.25C31.5 10.0069 32.5069 9 33.75 9H34.875C34.875 10.2431 35.8819 11.25 37.125 11.25H40.5V14.625C40.5 16.4891 38.9891 18 37.125 18Z" fill="#F0C8A0"/>
</g>
</g>
<g id="Group_14">
<g id="Group_15">
<path id="Vector_11" d="M36 45H18V34.875C18 33.0109 19.5109 31.5 21.375 31.5H32.625C34.4891 31.5 36 33.0109 36 34.875V45Z" fill="#FAB400"/>
</g>
<g id="Group_16">
<path id="Vector_12" d="M22.5 31.5C22.5 33.9851 24.5149 36 27 36C29.4851 36 31.5 33.9851 31.5 31.5H22.5Z" fill="#00A0C8"/>
</g>
<g id="Group_17">
<path id="Vector_13" d="M27 33.75C25.7569 33.75 24.75 32.7431 24.75 31.5V28.125H29.25V31.5C29.25 32.7431 28.2431 33.75 27 33.75Z" fill="#D2AA82"/>
</g>
<g id="Group_18">
<path id="Vector_14" d="M28.125 29.25H25.875C24.0109 29.25 22.5 27.7391 22.5 25.875V22.5C22.5 21.2569 23.5069 20.25 24.75 20.25H29.25C30.4931 20.25 31.5 21.2569 31.5 22.5V25.875C31.5 27.7391 29.9891 29.25 28.125 29.25Z" fill="#F0C8A0"/>
</g>
<g id="Group_19">
<path id="Vector_15" d="M29.25 20.25H24.75C23.5069 20.25 22.5 21.2569 22.5 22.5V20.25C22.5 19.0069 23.5069 18 24.75 18H29.25C30.4931 18 31.5 19.0069 31.5 20.25V22.5C31.5 21.2569 30.4931 20.25 29.25 20.25Z" fill="#0A5078"/>
</g>
</g>
<g id="Group_20">
<g id="Group_21">
<path id="Vector_16" d="M54 45H36V34.875C36 33.0109 37.5109 31.5 39.375 31.5H50.625C52.4891 31.5 54 33.0109 54 34.875V45Z" fill="#00A0C8"/>
</g>
<g id="Group_22">
<path id="Vector_17" d="M40.5 31.5C40.5 33.9851 42.5149 36 45 36C47.4851 36 49.5 33.9851 49.5 31.5H40.5Z" fill="#0A5078"/>
</g>
<g id="Group_23">
<path id="Vector_18" d="M36.5625 33.0098C36.207 33.5441 36 34.1854 36 34.875V45H37.125V34.875C37.125 34.1854 36.918 33.5441 36.5625 33.0098Z" fill="#0082AA"/>
</g>
<g id="Group_24">
<path id="Vector_19" d="M45 33.75C43.7569 33.75 42.75 32.7431 42.75 31.5V28.125H47.25V31.5C47.25 32.7431 46.2431 33.75 45 33.75Z" fill="#D2AA82"/>
</g>
<g id="Group_25">
<path id="Vector_20" d="M46.125 29.25H43.875C42.0109 29.25 40.5 27.7391 40.5 25.875V22.5C40.5 21.2569 41.5069 20.25 42.75 20.25H47.25C48.4931 20.25 49.5 21.2569 49.5 22.5V25.875C49.5 27.7391 47.9891 29.25 46.125 29.25Z" fill="#F0C8A0"/>
</g>
<g id="Group_26">
<path id="Vector_21" d="M47.25 20.25H42.75C41.5069 20.25 40.5 21.2569 40.5 22.5V20.25C40.5 19.0069 41.5069 18 42.75 18H47.25C48.4931 18 49.5 19.0069 49.5 20.25V22.5C49.5 21.2569 48.4931 20.25 47.25 20.25Z" fill="#DC9600"/>
</g>
</g>
</g>
<g id="Group_27">
<path id="Vector_22" d="M36 57.375H22.5C15.6769 57.375 10.125 51.8231 10.125 45V27C10.125 26.379 10.629 25.875 11.25 25.875C11.871 25.875 12.375 26.379 12.375 27V45C12.375 50.5823 16.9178 55.125 22.5 55.125H36C36.621 55.125 37.125 55.629 37.125 56.25C37.125 56.871 36.621 57.375 36 57.375Z" fill="#0A5078"/>
</g>
<g id="Group_28">
<path id="Vector_23" d="M11.25 36H7.875C6.01088 36 4.5 34.4891 4.5 32.625C4.5 32.004 5.004 31.5 5.625 31.5H7.875C9.73912 31.5 11.25 33.0109 11.25 34.875V36Z" fill="#C80A50"/>
</g>
<g id="Group_29">
<path id="Vector_24" d="M11.25 42.75H7.875C6.01088 42.75 4.5 41.2391 4.5 39.375C4.5 38.754 5.004 38.25 5.625 38.25H7.875C9.73912 38.25 11.25 39.7609 11.25 41.625V42.75Z" fill="#C80A50"/>
</g>
<g id="Group_30">
<path id="Vector_25" d="M11.25 49.5H7.875C6.01088 49.5 4.5 47.9891 4.5 46.125C4.5 45.504 5.004 45 5.625 45H7.875C9.73912 45 11.25 46.5109 11.25 48.375V49.5Z" fill="#C80A50"/>
</g>
<g id="Group_31">
<path id="Vector_26" d="M10.4546 21.0454L9.98887 21.5111C9.3555 22.1445 9 23.0029 9 23.8984V26.7277C9 27.6232 9.3555 28.4816 9.98887 29.1139L10.4546 29.5796C10.8945 30.0195 11.6066 30.0195 12.0454 29.5796L12.5111 29.1139C13.1445 28.4805 13.5 27.6221 13.5 26.7266V23.8972C13.5 23.0017 13.1445 22.1434 12.5111 21.5111L12.0454 21.0454C11.6066 20.6066 10.8934 20.6066 10.4546 21.0454Z" fill="#C80A50"/>
</g>
<g id="Group_32">
<path id="Vector_27" d="M60.75 42.75H57.375C55.5109 42.75 54 41.2391 54 39.375C54 38.754 54.504 38.25 55.125 38.25H57.375C59.2391 38.25 60.75 39.7609 60.75 41.625V42.75Z" fill="#C80A50"/>
</g>
<g id="Group_33">
<path id="Vector_28" d="M60.75 49.5H57.375C55.5109 49.5 54 47.9891 54 46.125C54 45.504 54.504 45 55.125 45H57.375C59.2391 45 60.75 46.5109 60.75 48.375V49.5Z" fill="#C80A50"/>
</g>
<g id="Group_34">
<path id="Vector_29" d="M60.75 36H57.375C55.5109 36 54 34.4891 54 32.625C54 32.004 54.504 31.5 55.125 31.5H57.375C59.2391 31.5 60.75 33.0109 60.75 34.875V36Z" fill="#C80A50"/>
</g>
<g id="Group_35">
<path id="Vector_30" d="M49.5 57.375H36C35.379 57.375 34.875 56.871 34.875 56.25C34.875 55.629 35.379 55.125 36 55.125H49.5C55.0834 55.125 59.625 50.5823 59.625 45V27C59.625 26.379 60.1279 25.875 60.75 25.875C61.3721 25.875 61.875 26.379 61.875 27V45C61.875 51.8231 56.3231 57.375 49.5 57.375Z" fill="#0A5078"/>
</g>
<g id="Group_36">
<path id="Vector_31" d="M60.75 36H64.125C65.9891 36 67.5 34.4891 67.5 32.625C67.5 32.004 66.996 31.5 66.375 31.5H64.125C62.2609 31.5 60.75 33.0109 60.75 34.875V36Z" fill="#C80A50"/>
</g>
<g id="Group_37">
<path id="Vector_32" d="M60.75 42.75H64.125C65.9891 42.75 67.5 41.2391 67.5 39.375C67.5 38.754 66.996 38.25 66.375 38.25H64.125C62.2609 38.25 60.75 39.7609 60.75 41.625V42.75Z" fill="#C80A50"/>
</g>
<g id="Group_38">
<path id="Vector_33" d="M60.75 49.5H64.125C65.9891 49.5 67.5 47.9891 67.5 46.125C67.5 45.504 66.996 45 66.375 45H64.125C62.2609 45 60.75 46.5109 60.75 48.375V49.5Z" fill="#C80A50"/>
</g>
<g id="Group_39">
<path id="Vector_34" d="M61.5454 21.0454L62.0111 21.5111C62.6445 22.1445 63 23.0029 63 23.8984V26.7277C63 27.6232 62.6445 28.4816 62.0111 29.1139L61.5454 29.5796C61.1055 30.0195 60.3934 30.0195 59.9546 29.5796L59.4889 29.1139C58.8555 28.4805 58.5 27.6221 58.5 26.7266V23.8972C58.5 23.0017 58.8555 22.1434 59.4889 21.5111L59.9546 21.0454C60.3934 20.6066 61.1066 20.6066 61.5454 21.0454Z" fill="#C80A50"/>
</g>
<g id="Group_40">
<path id="Vector_35" d="M36 67.5C42.2132 67.5 47.25 62.4632 47.25 56.25C47.25 50.0368 42.2132 45 36 45C29.7868 45 24.75 50.0368 24.75 56.25C24.75 62.4632 29.7868 67.5 36 67.5Z" fill="#FAB400"/>
</g>
<g id="Group_41">
<path id="Vector_36" d="M36.5105 48.5764L38.4725 52.8469L43.1401 53.3925C43.6171 53.4487 43.8095 54.0394 43.4562 54.3645L40.0013 57.5494L40.9238 62.1574C41.0183 62.6287 40.5155 62.9932 40.097 62.7581L35.9997 60.4575L31.9025 62.7592C31.4828 62.9944 30.9811 62.6299 31.0756 62.1585L31.9981 57.5505L28.5432 54.3656C28.19 54.0394 28.3812 53.4487 28.8593 53.3936L33.527 52.848L35.489 48.5775C35.6892 48.1387 36.3102 48.1387 36.5105 48.5764Z" fill="#BE7800"/>
</g>
</g>
</g>
</g>
</svg>
