<svg width="64" height="64" viewBox="0 0 64 64" fill="none" xmlns="http://www.w3.org/2000/svg">
<g clip-path="url(#clip0_11673_29082)">
<path d="M64 0H0V64H64V0Z" fill="#A8DAB5"/>
<path d="M36.8191 21.6704H35.4111V23.3344H36.8191V21.6704Z" fill="#7BA884" stroke="#7BA884" stroke-width="0.384" stroke-miterlimit="10" stroke-linecap="round" stroke-linejoin="round"/>
<path d="M36.7613 21.7985H35.4749C35.2509 21.7985 35.0781 21.6321 35.0781 21.4209L35.1165 20.1665C35.1229 19.9681 35.2957 19.8145 35.5133 19.8145H36.7293C36.9405 19.8145 37.1197 19.9745 37.1261 20.1665L37.1645 21.4209C37.1581 21.6321 36.9789 21.7985 36.7613 21.7985Z" fill="#7BA884" stroke="#7BA884" stroke-width="0.384" stroke-miterlimit="10" stroke-linecap="round" stroke-linejoin="round"/>
<path d="M33.9967 21.7985H32.7103C32.4863 21.7985 32.3135 21.6321 32.3135 21.4209L32.3519 20.1665C32.3583 19.9681 32.5311 19.8145 32.7487 19.8145H33.9647C34.1759 19.8145 34.3551 19.9745 34.3615 20.1665L34.3999 21.4209C34.3935 21.6321 34.2207 21.7985 33.9967 21.7985Z" fill="#7BA884" stroke="#7BA884" stroke-width="0.384" stroke-miterlimit="10" stroke-linecap="round" stroke-linejoin="round"/>
<path d="M30.4064 21.9264H28.3584L28.5632 14.3104C28.5696 13.9904 28.8384 13.7344 29.1584 13.7344H29.6064C29.9264 13.7344 30.1952 13.9904 30.2016 14.3104L30.4064 21.9264Z" fill="#7BA884" stroke="#7BA884" stroke-width="0.384" stroke-miterlimit="10" stroke-linecap="round" stroke-linejoin="round"/>
<path d="M30.6625 21.6704H28.1025V23.3344H30.6625V21.6704Z" fill="#7BA884" stroke="#7BA884" stroke-width="0.384" stroke-miterlimit="10" stroke-linecap="round" stroke-linejoin="round"/>
<path d="M34.0867 21.6704H32.6787V23.3344H34.0867V21.6704Z" fill="#7BA884" stroke="#7BA884" stroke-width="0.384" stroke-miterlimit="10" stroke-linecap="round" stroke-linejoin="round"/>
<path d="M27.0976 27.1104C27.0592 27.0208 27.04 26.9248 27.04 26.8224V24.4544C27.04 23.7952 27.5008 23.2192 28.1472 23.072C31.0464 22.432 34.0416 22.432 36.9408 23.072C37.5872 23.2128 38.048 23.7888 38.048 24.4544V26.8224C38.048 26.9248 38.0288 27.0208 37.9904 27.1104H27.0976Z" fill="#7BA884" stroke="#7BA884" stroke-width="0.384" stroke-miterlimit="10" stroke-linecap="round" stroke-linejoin="round"/>
<path d="M26.9756 28.1216C26.9756 33.1648 26.9756 38.208 26.9756 43.2512C26.9756 43.8912 27.3596 44.3904 27.9484 44.5248C28.6588 44.6912 29.3884 44.8 30.1244 44.8768C30.3292 44.896 30.5404 44.7936 30.6556 44.6208C31.0652 43.9808 31.7884 43.5456 32.614 43.552C33.4204 43.552 34.1308 43.9744 34.5468 44.6016C34.662 44.7744 34.8732 44.8768 35.0844 44.8576C35.7372 44.7872 36.3772 44.6784 37.0044 44.5312C37.5996 44.3968 37.99 43.8912 37.99 43.2512C37.99 38.208 37.99 33.1648 37.99 28.1216C34.534 27.1168 30.4316 27.1168 26.9756 28.1216Z" fill="#7BA884" stroke="#7BA884" stroke-width="0.384" stroke-miterlimit="10" stroke-linecap="round" stroke-linejoin="round"/>
<path d="M38.2402 28.5952V25.9008C38.2402 25.3376 37.8306 24.8512 37.2738 24.7616C34.0994 24.2624 30.8674 24.2624 27.693 24.7616C27.1362 24.8512 26.7266 25.3312 26.7266 25.9008V28.5952C26.7266 28.8384 26.8098 29.0688 26.9634 29.2544C27.373 29.728 27.6226 30.3424 27.6226 31.0144V36.1344C27.6226 36.8064 27.373 37.4208 26.9634 37.8944C26.8034 38.0736 26.7266 38.3104 26.7266 38.5536V41.248C26.7266 41.8112 27.1362 42.2976 27.693 42.3872C30.8674 42.8864 34.0994 42.8864 37.2738 42.3872C37.8306 42.2976 38.2402 41.8176 38.2402 41.248V38.5536C38.2402 38.3104 38.157 38.08 38.0034 37.8944C37.5938 37.4208 37.3442 36.8064 37.3442 36.1344V31.0144C37.3442 30.3424 37.5938 29.728 38.0034 29.2544C38.157 29.0752 38.2402 28.8384 38.2402 28.5952Z" fill="#7BA884" stroke="#7BA884" stroke-width="0.384" stroke-miterlimit="10" stroke-linecap="round" stroke-linejoin="round"/>
<path d="M25.9525 31.4688H25.9013C25.7093 31.4688 25.5557 31.3152 25.5557 31.1232C25.5557 30.9312 25.7093 30.7776 25.9013 30.7776H25.9525C26.1445 30.7776 26.2981 30.9312 26.2981 31.1232C26.2981 31.3152 26.1445 31.4688 25.9525 31.4688Z" fill="#404041" stroke="#404041" stroke-width="0.384" stroke-miterlimit="10" stroke-linecap="round" stroke-linejoin="round"/>
<path d="M25.9525 32.8H25.9013C25.7093 32.8 25.5557 32.6464 25.5557 32.4544C25.5557 32.2624 25.7093 32.1088 25.9013 32.1088H25.9525C26.1445 32.1088 26.2981 32.2624 26.2981 32.4544C26.2981 32.6464 26.1445 32.8 25.9525 32.8Z" fill="#404041" stroke="#404041" stroke-width="0.384" stroke-miterlimit="10" stroke-linecap="round" stroke-linejoin="round"/>
<path d="M35.8592 21.6704H34.4512V23.3344H35.8592V21.6704Z" fill="#635142"/>
<path d="M35.8593 21.6704H35.1553V23.3344H35.8593V21.6704Z" fill="#404041"/>
<path d="M35.8592 21.6704H34.4512V23.3344H35.8592V21.6704Z" stroke="#404041" stroke-width="0.384" stroke-miterlimit="10" stroke-linecap="round" stroke-linejoin="round"/>
<path d="M35.8014 21.7985H34.515C34.291 21.7985 34.1182 21.6321 34.1182 21.4209L34.1566 20.1665C34.163 19.9681 34.3358 19.8145 34.5534 19.8145H35.7694C35.9806 19.8145 36.1598 19.9745 36.1662 20.1665L36.2046 21.4209C36.1982 21.6321 36.019 21.7985 35.8014 21.7985Z" fill="#705D4C"/>
<path d="M34.4065 21.5552L34.3105 21.5488L34.3618 20.0448L34.4578 20.0512C34.5794 20.0576 34.6753 20.16 34.6753 20.2816L34.6369 21.3376C34.6305 21.4592 34.5281 21.5616 34.4065 21.5552Z" fill="#897160"/>
<path opacity="0.81" d="M36.1603 20.1728C36.1539 19.9744 35.9811 19.8208 35.7635 19.8208H34.9443C35.1555 19.8208 35.3347 19.9808 35.3411 20.1728L35.3795 21.4272C35.3859 21.632 35.2067 21.8048 34.9827 21.8048H35.8019C36.0259 21.8048 36.1987 21.6384 36.1987 21.4272L36.1603 20.1728Z" fill="#635142"/>
<path d="M35.8014 21.7985H34.515C34.291 21.7985 34.1182 21.6321 34.1182 21.4209L34.1566 20.1665C34.163 19.9681 34.3358 19.8145 34.5534 19.8145H35.7694C35.9806 19.8145 36.1598 19.9745 36.1662 20.1665L36.2046 21.4209C36.1982 21.6321 36.019 21.7985 35.8014 21.7985Z" stroke="#404041" stroke-width="0.384" stroke-miterlimit="10" stroke-linecap="round" stroke-linejoin="round"/>
<path d="M33.0367 21.7985H31.7503C31.5263 21.7985 31.3535 21.6321 31.3535 21.4209L31.3919 20.1665C31.3983 19.9681 31.5711 19.8145 31.7887 19.8145H33.0047C33.2159 19.8145 33.3951 19.9745 33.4015 20.1665L33.4399 21.4209C33.4335 21.6321 33.2607 21.7985 33.0367 21.7985Z" fill="#705D4C"/>
<path d="M31.6419 21.5552L31.5459 21.5488L31.5971 20.0448L31.6931 20.0512C31.8147 20.0576 31.9107 20.16 31.9107 20.2816L31.8723 21.3376C31.8659 21.4592 31.7635 21.5616 31.6419 21.5552Z" fill="#897160"/>
<path opacity="0.81" d="M33.3947 20.1728C33.3883 19.9744 33.2155 19.8208 32.9979 19.8208H32.1787C32.3899 19.8208 32.5691 19.9808 32.5755 20.1728L32.6139 21.4272C32.6203 21.632 32.4411 21.8048 32.2171 21.8048H33.0363C33.2603 21.8048 33.4331 21.6384 33.4331 21.4272L33.3947 20.1728Z" fill="#635142"/>
<path d="M33.0367 21.7985H31.7503C31.5263 21.7985 31.3535 21.6321 31.3535 21.4209L31.3919 20.1665C31.3983 19.9681 31.5711 19.8145 31.7887 19.8145H33.0047C33.2159 19.8145 33.3951 19.9745 33.4015 20.1665L33.4399 21.4209C33.4335 21.6321 33.2607 21.7985 33.0367 21.7985Z" stroke="#404041" stroke-width="0.384" stroke-miterlimit="10" stroke-linecap="round" stroke-linejoin="round"/>
<path d="M29.4464 21.9264H27.3984L27.6032 14.3104C27.6096 13.9904 27.8784 13.7344 28.1984 13.7344H28.6464C28.9664 13.7344 29.2352 13.9904 29.2416 14.3104L29.4464 21.9264Z" fill="#705D4C"/>
<path d="M27.6229 14.0671C27.6165 14.1055 27.6101 14.1375 27.6101 14.1759L27.4053 21.9263H27.9365C27.9365 21.9263 28.0901 16.3647 28.1413 14.5983C28.1477 14.3039 27.9109 14.0671 27.6229 14.0671Z" fill="#897160"/>
<path opacity="0.81" d="M27.8979 13.8944C28.2179 13.8944 28.4867 14.1504 28.4931 14.4704L28.7171 21.9264H29.5235L29.2931 14.3104C29.2803 13.9904 29.0179 13.7344 28.6979 13.7344H28.2499C28.0963 13.7344 27.9491 13.7984 27.8467 13.8944H27.8979Z" fill="#635142"/>
<path d="M29.4464 21.9264H27.3984L27.6032 14.3104C27.6096 13.9904 27.8784 13.7344 28.1984 13.7344H28.6464C28.9664 13.7344 29.2352 13.9904 29.2416 14.3104L29.4464 21.9264Z" stroke="#404041" stroke-width="0.384" stroke-miterlimit="10" stroke-linecap="round" stroke-linejoin="round"/>
<path d="M29.7026 21.6704H27.1426V23.3344H29.7026V21.6704Z" fill="#635142"/>
<path opacity="0.75" d="M27.3979 22.8928C27.2635 22.8928 27.1611 22.784 27.1611 22.656V21.9776C27.1611 21.8432 27.2699 21.7408 27.3979 21.7408C27.5323 21.7408 27.6347 21.8496 27.6347 21.9776V22.656C27.6411 22.7904 27.5323 22.8928 27.3979 22.8928Z" fill="#897160"/>
<path d="M29.7027 21.6704H28.6787V23.3344H29.7027V21.6704Z" fill="#404041"/>
<path d="M29.7026 21.6704H27.1426V23.3344H29.7026V21.6704Z" stroke="#404041" stroke-width="0.384" stroke-miterlimit="10" stroke-linecap="round" stroke-linejoin="round"/>
<path d="M33.1267 21.6704H31.7188V23.3344H33.1267V21.6704Z" fill="#635142"/>
<path d="M33.1259 21.6704H32.4219V23.3344H33.1259V21.6704Z" fill="#404041"/>
<path d="M33.1267 21.6704H31.7188V23.3344H33.1267V21.6704Z" stroke="#404041" stroke-width="0.384" stroke-miterlimit="10" stroke-linecap="round" stroke-linejoin="round"/>
<path d="M26.1377 27.1104C26.0993 27.0208 26.0801 26.9248 26.0801 26.8224V24.4544C26.0801 23.7952 26.5409 23.2192 27.1873 23.072C30.0865 22.432 33.0817 22.432 35.9809 23.072C36.6273 23.2128 37.0881 23.7888 37.0881 24.4544V26.8224C37.0881 26.9248 37.0689 27.0208 37.0305 27.1104H26.1377Z" fill="#705D4C"/>
<path d="M27.1425 24.4544C27.1425 23.7952 27.6033 23.2192 28.2497 23.072C29.5233 22.7904 30.8225 22.6368 32.1153 22.5984C30.4641 22.5536 28.8129 22.7136 27.1873 23.072C26.5409 23.2128 26.0801 23.7888 26.0801 24.4544V26.8224C26.0801 26.9248 26.0993 27.0208 26.1377 27.1104H27.2001C27.1617 27.0208 27.1425 26.9248 27.1425 26.8224V24.4544Z" fill="#897160"/>
<path d="M26.1562 28.4223C26.1178 28.3327 26.0986 28.2367 26.0986 28.1343V25.7663C26.0986 25.1071 26.5594 24.5311 27.2058 24.3839C30.105 23.7439 33.1002 23.7439 35.9994 24.3839C36.6458 24.5247 37.1066 25.1007 37.1066 25.7663V28.1343C37.1066 28.2367 37.0874 28.3327 37.049 28.4223H26.1562Z" fill="#635142"/>
<path d="M35.9806 23.0784C34.3422 22.72 32.6718 22.56 31.0078 22.6048C32.2878 22.6432 33.5678 22.7968 34.835 23.0784C35.4814 23.2192 35.9422 23.7952 35.9422 24.4608V26.8288C35.9422 26.9312 35.923 27.0272 35.8846 27.1168H37.0302C37.0686 27.0272 37.0878 26.9312 37.0878 26.8288V24.4608C37.0878 23.7952 36.627 23.2192 35.9806 23.0784Z" fill="#635142"/>
<path d="M26.1377 27.1104C26.0993 27.0208 26.0801 26.9248 26.0801 26.8224V24.4544C26.0801 23.7952 26.5409 23.2192 27.1873 23.072C30.0865 22.432 33.0817 22.432 35.9809 23.072C36.6273 23.2128 37.0881 23.7888 37.0881 24.4544V26.8224C37.0881 26.9248 37.0689 27.0208 37.0305 27.1104H26.1377Z" stroke="#404041" stroke-width="0.384" stroke-miterlimit="10" stroke-linecap="round" stroke-linejoin="round"/>
<path d="M26.0156 28.1216C26.0156 33.1648 26.0156 38.208 26.0156 43.2512C26.0156 43.8912 26.3996 44.3904 26.9884 44.5248C27.6988 44.6912 28.4284 44.8 29.1644 44.8768C29.3692 44.896 29.5804 44.7936 29.6956 44.6208C30.1052 43.9808 30.8284 43.5456 31.654 43.552C32.4604 43.552 33.1708 43.9744 33.5868 44.6016C33.702 44.7744 33.9132 44.8768 34.1244 44.8576C34.7772 44.7872 35.4172 44.6784 36.0444 44.5312C36.6396 44.3968 37.03 43.8912 37.03 43.2512C37.03 38.208 37.03 33.1648 37.03 28.1216C33.574 27.1168 29.4716 27.1168 26.0156 28.1216Z" fill="#705D4C"/>
<path d="M29.3253 44.4543C28.9093 44.4095 28.5637 44.384 28.1221 44.2816C28.0517 44.2624 27.9877 44.2432 27.9237 44.2176C27.6485 44.1088 27.3477 44.3135 27.3477 44.6143C27.9429 44.7359 28.5573 44.8256 29.1717 44.8896C29.3765 44.9088 29.4405 44.9536 29.5557 44.7808C29.5557 44.7808 29.5557 44.7744 29.5621 44.7616C29.5813 44.608 29.4725 44.4671 29.3253 44.4543Z" fill="#635142"/>
<path d="M26.7458 44.3264C27.1042 44.4736 27.2258 44.0384 27.1874 43.8528C27.1298 43.5968 27.149 43.2128 27.149 42.9952C27.149 37.952 27.149 32.9088 27.149 27.8656C27.3154 27.8144 27.4818 27.7696 27.6482 27.7312C27.0914 27.84 26.5474 27.968 26.0226 28.1216C26.0226 33.1648 26.0226 38.208 26.0226 43.2512C26.0226 43.8912 25.997 44.1216 26.5858 44.256C26.6178 44.2752 26.6626 44.2944 26.7458 44.3264Z" fill="#897160"/>
<path d="M25.8945 37.2223C25.8945 39.0655 25.8945 40.9087 25.8945 42.7583C26.0801 42.8863 26.2977 42.9759 26.5409 43.0079C28.1409 43.2639 29.7793 43.3919 31.3985 43.3919C33.0177 43.3919 34.6561 43.2639 36.2561 43.0079C36.4929 42.9695 36.7105 42.8799 36.9025 42.7583C36.9025 40.9151 36.9025 39.0719 36.9025 37.2223C36.7745 36.9407 36.7105 36.6335 36.7105 36.3135V31.1935C36.7105 30.8799 36.7745 30.5727 36.9025 30.2847C36.9025 29.5615 36.9025 28.8319 36.9025 28.1087C33.4465 27.0975 29.3505 27.0975 25.8945 28.1087C25.8945 28.8319 25.8945 29.5615 25.8945 30.2847C26.0225 30.5663 26.0865 30.8735 26.0865 31.1935V36.3135C26.0865 36.6271 26.0225 36.9343 25.8945 37.2223Z" fill="#635142"/>
<path d="M35.5902 27.8336C35.7054 27.8656 35.827 27.8976 35.9422 27.9296C35.9422 32.9728 35.9422 38.016 35.9422 43.0592C35.9422 43.6992 35.5518 44.1984 34.9566 44.3392C34.579 44.4288 34.2974 44.4736 33.9518 44.4864C33.7982 44.4928 33.6766 44.6208 33.6894 44.7744C33.6894 44.7808 33.6894 44.7872 33.6958 44.7872C33.811 44.96 33.9134 44.9408 34.1182 44.9216C34.771 44.8512 35.411 44.7424 36.0382 44.5952C36.6334 44.4608 37.0238 43.9552 37.0238 43.3152C37.0238 38.272 37.0238 33.2288 37.0238 28.1856C36.5566 28.0512 36.0766 27.936 35.5902 27.8336Z" fill="#635142"/>
<path d="M26.0156 28.1216C26.0156 33.1648 26.0156 38.208 26.0156 43.2512C26.0156 43.8912 26.3996 44.3904 26.9884 44.5248C27.6988 44.6912 28.4284 44.8 29.1644 44.8768C29.3692 44.896 29.5804 44.7936 29.6956 44.6208C30.1052 43.9808 30.8284 43.5456 31.654 43.552C32.4604 43.552 33.1708 43.9744 33.5868 44.6016C33.702 44.7744 33.9132 44.8768 34.1244 44.8576C34.7772 44.7872 35.4172 44.6784 36.0444 44.5312C36.6396 44.3968 37.03 43.8912 37.03 43.2512C37.03 38.208 37.03 33.1648 37.03 28.1216C33.574 27.1168 29.4716 27.1168 26.0156 28.1216Z" stroke="#404041" stroke-width="0.384" stroke-miterlimit="10" stroke-linecap="round" stroke-linejoin="round"/>
<path d="M37.2802 28.5952V25.9008C37.2802 25.3376 36.8706 24.8512 36.3138 24.7616C33.1394 24.2624 29.9074 24.2624 26.733 24.7616C26.1762 24.8512 25.7666 25.3312 25.7666 25.9008V28.5952C25.7666 28.8384 25.8498 29.0688 26.0034 29.2544C26.413 29.728 26.6626 30.3424 26.6626 31.0144V36.1344C26.6626 36.8064 26.413 37.4208 26.0034 37.8944C25.8434 38.0736 25.7666 38.3104 25.7666 38.5536V41.248C25.7666 41.8112 26.1762 42.2976 26.733 42.3872C29.9074 42.8864 33.1394 42.8864 36.3138 42.3872C36.8706 42.2976 37.2802 41.8176 37.2802 41.248V38.5536C37.2802 38.3104 37.197 38.08 37.0434 37.8944C36.6338 37.4208 36.3842 36.8064 36.3842 36.1344V31.0144C36.3842 30.3424 36.6338 29.728 37.0434 29.2544C37.197 29.0752 37.2802 28.8384 37.2802 28.5952Z" fill="#FEC556"/>
<path d="M35.2325 24.6208C33.8629 24.4544 32.4805 24.3776 31.1045 24.3968C32.4869 24.416 33.8629 24.5248 35.2325 24.7296V24.6208Z" fill="#F8A342"/>
<path d="M37.0425 29.2544C37.2025 29.0752 37.2793 28.8384 37.2793 28.5952V25.9008C37.2793 25.7152 37.2345 25.5424 37.1577 25.3824C36.9785 25.0304 36.4473 25.152 36.4473 25.5488V25.8944V26.2592V28.5824C36.4473 28.8256 36.3641 29.056 36.2105 29.2416C35.8009 29.7152 35.5513 30.3296 35.5513 31.0016V36.1216C35.5513 36.7936 35.8009 37.408 36.2105 37.8816C36.3705 38.0608 36.4473 38.2976 36.4473 38.5408V41.2352V41.2416C36.4473 41.5872 36.1785 41.8816 35.8329 41.9264C33.0745 42.304 30.0537 42.2976 27.2889 41.9712C27.0137 41.9392 26.7705 42.1504 26.7705 42.4192C28.4153 42.6432 30.1689 42.7456 31.9161 42.7264C31.6473 42.7392 31.3785 42.7456 31.1097 42.752C32.8505 42.7776 34.5913 42.6496 36.3129 42.3808C36.8697 42.2912 37.2857 41.8112 37.2857 41.2416V40.7296V38.5472C37.2857 38.304 37.2025 38.0736 37.0489 37.888C36.6393 37.4144 36.3897 36.8 36.3897 36.128V31.008C36.3833 30.3424 36.6329 29.728 37.0425 29.2544Z" fill="#F8A342"/>
<path opacity="0.39" d="M31.6546 33.0496C31.6546 29.888 31.2962 26.9248 30.6818 24.4032C29.3634 24.4416 28.0386 24.5568 26.733 24.768C26.1762 24.8576 25.7666 25.3376 25.7666 25.9072V28.6016C25.7666 28.8448 25.8498 29.0752 26.0034 29.2608C26.413 29.7344 26.6626 30.3488 26.6626 31.0208V36.1408C26.6626 36.8128 26.413 37.4272 26.0034 37.9008C25.8434 38.08 25.7666 38.3168 25.7666 38.56V41.2544C25.7666 41.8176 26.1762 42.304 26.733 42.3936C27.949 42.5856 29.1778 42.7008 30.4066 42.7456C31.1938 40.0064 31.6546 36.6592 31.6546 33.0496Z" fill="#FDD08A"/>
<path opacity="0.88" d="M26.5214 28.5952V25.9008V25.8944C26.5214 25.5232 26.8094 25.216 27.1742 25.1648C27.2126 25.1584 27.251 25.152 27.283 25.152C30.0158 24.7744 33.2286 24.8512 35.987 25.2032C36.2494 25.2352 36.499 25.0944 36.6078 24.8512C35.0846 24.6336 32.7998 24.3776 31.2638 24.3904C31.251 24.3904 31.2318 24.3904 31.219 24.3904C31.1422 24.3904 31.027 24.3904 30.9502 24.3904C30.8222 24.3968 30.7006 24.3968 30.5726 24.4032C30.387 24.4096 30.195 24.416 30.0094 24.4288C29.9774 24.4288 29.9454 24.4288 29.9198 24.4352C29.7406 24.4416 29.5678 24.4544 29.395 24.4672C29.3566 24.4672 29.3118 24.4736 29.2734 24.4736C29.107 24.4864 28.947 24.4992 28.7806 24.512C28.7294 24.5184 28.6782 24.5184 28.627 24.5248C28.4734 24.5376 28.3134 24.5568 28.1598 24.576C28.1022 24.5824 28.0446 24.5888 27.987 24.5952C27.8334 24.6144 27.6798 24.6336 27.5198 24.6528C27.4622 24.6592 27.411 24.6656 27.3534 24.672C27.155 24.6976 26.9502 24.7296 26.7518 24.7616C26.7454 24.7616 26.739 24.7616 26.7326 24.7616C26.2142 24.8448 25.8238 25.2672 25.7726 25.7728C25.7726 25.7792 25.7726 25.7856 25.7726 25.792C25.7726 25.824 25.7662 25.8624 25.7662 25.8944V28.5888C25.7662 28.6208 25.7662 28.6592 25.7726 28.6912V28.6976C25.7918 28.896 25.875 29.088 26.003 29.2416C26.4126 29.7152 26.6622 30.3296 26.6622 31.0016V31.1232V36.1216C26.6622 36.1664 26.6622 36.2048 26.6622 36.2496C26.6494 36.4992 26.6046 36.7424 26.5278 36.9664C26.5086 37.024 26.483 37.088 26.4638 37.1456C26.419 37.2608 26.3614 37.3696 26.2974 37.4784C26.2718 37.5296 26.2398 37.5744 26.2078 37.6256C26.1438 37.7152 26.0798 37.8048 26.0094 37.888C25.9518 37.9584 25.9006 38.0288 25.8622 38.112C25.843 38.1568 25.8302 38.1952 25.811 38.24C25.7918 38.3104 25.7726 38.3808 25.7662 38.4512C25.7662 38.4832 25.7598 38.5088 25.7598 38.5408V41.2352C25.7598 41.2736 25.7598 41.312 25.7662 41.344V41.3504C25.7726 41.3824 25.7726 41.4208 25.779 41.4528C25.8686 41.9072 26.227 42.272 26.6942 42.3616C26.6942 42.0928 26.6494 41.824 26.5662 41.568C26.5342 41.4592 26.515 41.3504 26.515 41.2352V38.5408C26.515 38.2976 26.5982 38.0672 26.7518 37.8816C27.1614 37.408 27.411 36.7936 27.411 36.1216V31.0016C27.411 30.3296 27.1614 29.7152 26.7518 29.2416C26.6046 29.0752 26.5214 28.8384 26.5214 28.5952Z" fill="#FDD08A"/>
<path d="M37.2802 28.5952V25.9008C37.2802 25.3376 36.8706 24.8512 36.3138 24.7616C33.1394 24.2624 29.9074 24.2624 26.733 24.7616C26.1762 24.8512 25.7666 25.3312 25.7666 25.9008V28.5952C25.7666 28.8384 25.8498 29.0688 26.0034 29.2544C26.413 29.728 26.6626 30.3424 26.6626 31.0144V36.1344C26.6626 36.8064 26.413 37.4208 26.0034 37.8944C25.8434 38.0736 25.7666 38.3104 25.7666 38.5536V41.248C25.7666 41.8112 26.1762 42.2976 26.733 42.3872C29.9074 42.8864 33.1394 42.8864 36.3138 42.3872C36.8706 42.2976 37.2802 41.8176 37.2802 41.248V38.5536C37.2802 38.3104 37.197 38.08 37.0434 37.8944C36.6338 37.4208 36.3842 36.8064 36.3842 36.1344V31.0144C36.3842 30.3424 36.6338 29.728 37.0434 29.2544C37.197 29.0752 37.2802 28.8384 37.2802 28.5952Z" stroke="#404041" stroke-width="0.384" stroke-miterlimit="10" stroke-linecap="round" stroke-linejoin="round"/>
<path opacity="0.59" d="M34.0539 33.6384H29.0619C28.6395 33.6384 28.2939 33.2928 28.2939 32.8704V28.5184C28.2939 28.096 28.6395 27.7504 29.0619 27.7504H34.0539C34.4763 27.7504 34.8219 28.096 34.8219 28.5184V32.8704C34.8219 33.2928 34.4827 33.6384 34.0539 33.6384Z" fill="#F48B34" stroke="#F48B34" stroke-width="0.384" stroke-miterlimit="10" stroke-linecap="round" stroke-linejoin="round"/>
<path d="M34.0539 33.4463H29.0619C28.6395 33.4463 28.2939 33.1007 28.2939 32.6783V28.3263C28.2939 27.9039 28.6395 27.5583 29.0619 27.5583H34.0539C34.4763 27.5583 34.8219 27.9039 34.8219 28.3263V32.6783C34.8219 33.1007 34.4827 33.4463 34.0539 33.4463Z" fill="#705D4C"/>
<path d="M28.6781 32.6783V28.3263C28.6781 27.9039 29.0237 27.5583 29.4461 27.5583H29.1069C28.6845 27.5583 28.3389 27.9039 28.3389 28.3263V32.6783C28.3389 33.1007 28.6845 33.4463 29.1069 33.4463H29.4461C29.0237 33.4463 28.6781 33.1007 28.6781 32.6783Z" fill="#635142"/>
<path d="M34.0549 27.5583H33.6709C34.0933 27.5583 34.4389 27.9039 34.4389 28.3263V32.6783C34.4389 33.1007 34.0933 33.4463 33.6709 33.4463H34.0549C34.4773 33.4463 34.8229 33.1007 34.8229 32.6783V28.3263C34.8229 27.9039 34.4837 27.5583 34.0549 27.5583Z" fill="#635142"/>
<path d="M34.0539 33.4463H29.0619C28.6395 33.4463 28.2939 33.1007 28.2939 32.6783V28.3263C28.2939 27.9039 28.6395 27.5583 29.0619 27.5583H34.0539C34.4763 27.5583 34.8219 27.9039 34.8219 28.3263V32.6783C34.8219 33.1007 34.4827 33.4463 34.0539 33.4463Z" stroke="#404041" stroke-width="0.384" stroke-miterlimit="10" stroke-linecap="round" stroke-linejoin="round"/>
<path d="M29.4464 30.9056C29.5878 30.9056 29.7024 30.7909 29.7024 30.6496C29.7024 30.5082 29.5878 30.3936 29.4464 30.3936C29.3051 30.3936 29.1904 30.5082 29.1904 30.6496C29.1904 30.7909 29.3051 30.9056 29.4464 30.9056Z" fill="#404041"/>
<path d="M30.1828 30.9056C30.3241 30.9056 30.4388 30.7909 30.4388 30.6496C30.4388 30.5082 30.3241 30.3936 30.1828 30.3936C30.0414 30.3936 29.9268 30.5082 29.9268 30.6496C29.9268 30.7909 30.0414 30.9056 30.1828 30.9056Z" fill="#404041"/>
<path d="M30.9181 30.9056C31.0595 30.9056 31.1741 30.7909 31.1741 30.6496C31.1741 30.5082 31.0595 30.3936 30.9181 30.3936C30.7767 30.3936 30.6621 30.5082 30.6621 30.6496C30.6621 30.7909 30.7767 30.9056 30.9181 30.9056Z" fill="#404041"/>
<path d="M31.6544 30.9056C31.7958 30.9056 31.9104 30.7909 31.9104 30.6496C31.9104 30.5082 31.7958 30.3936 31.6544 30.3936C31.5131 30.3936 31.3984 30.5082 31.3984 30.6496C31.3984 30.7909 31.5131 30.9056 31.6544 30.9056Z" fill="#404041"/>
<path d="M32.3908 30.9056C32.5321 30.9056 32.6468 30.7909 32.6468 30.6496C32.6468 30.5082 32.5321 30.3936 32.3908 30.3936C32.2494 30.3936 32.1348 30.5082 32.1348 30.6496C32.1348 30.7909 32.2494 30.9056 32.3908 30.9056Z" fill="#404041"/>
<path d="M33.1261 30.9056C33.2675 30.9056 33.3821 30.7909 33.3821 30.6496C33.3821 30.5082 33.2675 30.3936 33.1261 30.3936C32.9847 30.3936 32.8701 30.5082 32.8701 30.6496C32.8701 30.7909 32.9847 30.9056 33.1261 30.9056Z" fill="#404041"/>
<path d="M33.8693 30.9056C34.0107 30.9056 34.1253 30.7909 34.1253 30.6496C34.1253 30.5082 34.0107 30.3936 33.8693 30.3936C33.7279 30.3936 33.6133 30.5082 33.6133 30.6496C33.6133 30.7909 33.7279 30.9056 33.8693 30.9056Z" fill="#404041"/>
<path d="M29.8117 30.1761C29.953 30.1761 30.0677 30.0614 30.0677 29.9201C30.0677 29.7787 29.953 29.6641 29.8117 29.6641C29.6703 29.6641 29.5557 29.7787 29.5557 29.9201C29.5557 30.0614 29.6703 30.1761 29.8117 30.1761Z" fill="#404041"/>
<path d="M30.5539 30.1761C30.6952 30.1761 30.8099 30.0614 30.8099 29.9201C30.8099 29.7787 30.6952 29.6641 30.5539 29.6641C30.4125 29.6641 30.2979 29.7787 30.2979 29.9201C30.2979 30.0614 30.4125 30.1761 30.5539 30.1761Z" fill="#404041"/>
<path d="M31.2892 30.1761C31.4306 30.1761 31.5452 30.0614 31.5452 29.9201C31.5452 29.7787 31.4306 29.6641 31.2892 29.6641C31.1478 29.6641 31.0332 29.7787 31.0332 29.9201C31.0332 30.0614 31.1478 30.1761 31.2892 30.1761Z" fill="#404041"/>
<path d="M32.0255 30.1761C32.1669 30.1761 32.2815 30.0614 32.2815 29.9201C32.2815 29.7787 32.1669 29.6641 32.0255 29.6641C31.8842 29.6641 31.7695 29.7787 31.7695 29.9201C31.7695 30.0614 31.8842 30.1761 32.0255 30.1761Z" fill="#404041"/>
<path d="M32.7619 30.1761C32.9032 30.1761 33.0179 30.0614 33.0179 29.9201C33.0179 29.7787 32.9032 29.6641 32.7619 29.6641C32.6205 29.6641 32.5059 29.7787 32.5059 29.9201C32.5059 30.0614 32.6205 30.1761 32.7619 30.1761Z" fill="#404041"/>
<path d="M33.4972 30.1761C33.6386 30.1761 33.7532 30.0614 33.7532 29.9201C33.7532 29.7787 33.6386 29.6641 33.4972 29.6641C33.3558 29.6641 33.2412 29.7787 33.2412 29.9201C33.2412 30.0614 33.3558 30.1761 33.4972 30.1761Z" fill="#404041"/>
<path d="M30.1828 29.4464C30.3241 29.4464 30.4388 29.3318 30.4388 29.1904C30.4388 29.0491 30.3241 28.9344 30.1828 28.9344C30.0414 28.9344 29.9268 29.0491 29.9268 29.1904C29.9268 29.3318 30.0414 29.4464 30.1828 29.4464Z" fill="#404041"/>
<path d="M30.9181 29.4464C31.0595 29.4464 31.1741 29.3318 31.1741 29.1904C31.1741 29.0491 31.0595 28.9344 30.9181 28.9344C30.7767 28.9344 30.6621 29.0491 30.6621 29.1904C30.6621 29.3318 30.7767 29.4464 30.9181 29.4464Z" fill="#404041"/>
<path d="M31.6544 29.4464C31.7958 29.4464 31.9104 29.3318 31.9104 29.1904C31.9104 29.0491 31.7958 28.9344 31.6544 28.9344C31.5131 28.9344 31.3984 29.0491 31.3984 29.1904C31.3984 29.3318 31.5131 29.4464 31.6544 29.4464Z" fill="#404041"/>
<path d="M32.3908 29.4464C32.5321 29.4464 32.6468 29.3318 32.6468 29.1904C32.6468 29.0491 32.5321 28.9344 32.3908 28.9344C32.2494 28.9344 32.1348 29.0491 32.1348 29.1904C32.1348 29.3318 32.2494 29.4464 32.3908 29.4464Z" fill="#404041"/>
<path d="M33.1261 29.4464C33.2675 29.4464 33.3821 29.3318 33.3821 29.1904C33.3821 29.0491 33.2675 28.9344 33.1261 28.9344C32.9847 28.9344 32.8701 29.0491 32.8701 29.1904C32.8701 29.3318 32.9847 29.4464 33.1261 29.4464Z" fill="#404041"/>
<path d="M29.8117 31.6352C29.953 31.6352 30.0677 31.5205 30.0677 31.3792C30.0677 31.2378 29.953 31.1232 29.8117 31.1232C29.6703 31.1232 29.5557 31.2378 29.5557 31.3792C29.5557 31.5205 29.6703 31.6352 29.8117 31.6352Z" fill="#404041"/>
<path d="M30.5539 31.6352C30.6952 31.6352 30.8099 31.5205 30.8099 31.3792C30.8099 31.2378 30.6952 31.1232 30.5539 31.1232C30.4125 31.1232 30.2979 31.2378 30.2979 31.3792C30.2979 31.5205 30.4125 31.6352 30.5539 31.6352Z" fill="#404041"/>
<path d="M31.2892 31.6352C31.4306 31.6352 31.5452 31.5205 31.5452 31.3792C31.5452 31.2378 31.4306 31.1232 31.2892 31.1232C31.1478 31.1232 31.0332 31.2378 31.0332 31.3792C31.0332 31.5205 31.1478 31.6352 31.2892 31.6352Z" fill="#404041"/>
<path d="M32.0255 31.6352C32.1669 31.6352 32.2815 31.5205 32.2815 31.3792C32.2815 31.2378 32.1669 31.1232 32.0255 31.1232C31.8842 31.1232 31.7695 31.2378 31.7695 31.3792C31.7695 31.5205 31.8842 31.6352 32.0255 31.6352Z" fill="#404041"/>
<path d="M32.7619 31.6352C32.9032 31.6352 33.0179 31.5205 33.0179 31.3792C33.0179 31.2378 32.9032 31.1232 32.7619 31.1232C32.6205 31.1232 32.5059 31.2378 32.5059 31.3792C32.5059 31.5205 32.6205 31.6352 32.7619 31.6352Z" fill="#404041"/>
<path d="M33.4972 31.6352C33.6386 31.6352 33.7532 31.5205 33.7532 31.3792C33.7532 31.2378 33.6386 31.1232 33.4972 31.1232C33.3558 31.1232 33.2412 31.2378 33.2412 31.3792C33.2412 31.5205 33.3558 31.6352 33.4972 31.6352Z" fill="#404041"/>
<path d="M30.1828 32.3648C30.3241 32.3648 30.4388 32.2502 30.4388 32.1088C30.4388 31.9674 30.3241 31.8528 30.1828 31.8528C30.0414 31.8528 29.9268 31.9674 29.9268 32.1088C29.9268 32.2502 30.0414 32.3648 30.1828 32.3648Z" fill="#404041"/>
<path opacity="0.35" d="M29.4464 32.3648C29.5878 32.3648 29.7024 32.2502 29.7024 32.1088C29.7024 31.9674 29.5878 31.8528 29.4464 31.8528C29.3051 31.8528 29.1904 31.9674 29.1904 32.1088C29.1904 32.2502 29.3051 32.3648 29.4464 32.3648Z" fill="#404041"/>
<path opacity="0.35" d="M29.4464 29.4464C29.5878 29.4464 29.7024 29.3318 29.7024 29.1904C29.7024 29.0491 29.5878 28.9344 29.4464 28.9344C29.3051 28.9344 29.1904 29.0491 29.1904 29.1904C29.1904 29.3318 29.3051 29.4464 29.4464 29.4464Z" fill="#404041"/>
<path opacity="0.35" d="M30.5539 28.8256C30.6952 28.8256 30.8099 28.711 30.8099 28.5696C30.8099 28.4282 30.6952 28.3136 30.5539 28.3136C30.4125 28.3136 30.2979 28.4282 30.2979 28.5696C30.2979 28.711 30.4125 28.8256 30.5539 28.8256Z" fill="#404041"/>
<path opacity="0.35" d="M31.2892 28.8256C31.4306 28.8256 31.5452 28.711 31.5452 28.5696C31.5452 28.4282 31.4306 28.3136 31.2892 28.3136C31.1478 28.3136 31.0332 28.4282 31.0332 28.5696C31.0332 28.711 31.1478 28.8256 31.2892 28.8256Z" fill="#404041"/>
<path opacity="0.35" d="M32.0255 28.8256C32.1669 28.8256 32.2815 28.711 32.2815 28.5696C32.2815 28.4282 32.1669 28.3136 32.0255 28.3136C31.8842 28.3136 31.7695 28.4282 31.7695 28.5696C31.7695 28.711 31.8842 28.8256 32.0255 28.8256Z" fill="#404041"/>
<path opacity="0.35" d="M32.7619 28.8256C32.9032 28.8256 33.0179 28.711 33.0179 28.5696C33.0179 28.4282 32.9032 28.3136 32.7619 28.3136C32.6205 28.3136 32.5059 28.4282 32.5059 28.5696C32.5059 28.711 32.6205 28.8256 32.7619 28.8256Z" fill="#404041"/>
<path d="M30.9181 32.3648C31.0595 32.3648 31.1741 32.2502 31.1741 32.1088C31.1741 31.9674 31.0595 31.8528 30.9181 31.8528C30.7767 31.8528 30.6621 31.9674 30.6621 32.1088C30.6621 32.2502 30.7767 32.3648 30.9181 32.3648Z" fill="#404041"/>
<path d="M31.6544 32.3648C31.7958 32.3648 31.9104 32.2502 31.9104 32.1088C31.9104 31.9674 31.7958 31.8528 31.6544 31.8528C31.5131 31.8528 31.3984 31.9674 31.3984 32.1088C31.3984 32.2502 31.5131 32.3648 31.6544 32.3648Z" fill="#404041"/>
<path d="M32.3908 32.3265C32.5321 32.3265 32.6468 32.2118 32.6468 32.0705C32.6468 31.9291 32.5321 31.8145 32.3908 31.8145C32.2494 31.8145 32.1348 31.9291 32.1348 32.0705C32.1348 32.2118 32.2494 32.3265 32.3908 32.3265Z" fill="#404041"/>
<path d="M33.1261 32.3648C33.2675 32.3648 33.3821 32.2502 33.3821 32.1088C33.3821 31.9674 33.2675 31.8528 33.1261 31.8528C32.9847 31.8528 32.8701 31.9674 32.8701 32.1088C32.8701 32.2502 32.9847 32.3648 33.1261 32.3648Z" fill="#404041"/>
<path opacity="0.35" d="M33.8693 32.3648C34.0107 32.3648 34.1253 32.2502 34.1253 32.1088C34.1253 31.9674 34.0107 31.8528 33.8693 31.8528C33.7279 31.8528 33.6133 31.9674 33.6133 32.1088C33.6133 32.2502 33.7279 32.3648 33.8693 32.3648Z" fill="#404041"/>
<path opacity="0.35" d="M33.8693 29.4464C34.0107 29.4464 34.1253 29.3318 34.1253 29.1904C34.1253 29.0491 34.0107 28.9344 33.8693 28.9344C33.7279 28.9344 33.6133 29.0491 33.6133 29.1904C33.6133 29.3318 33.7279 29.4464 33.8693 29.4464Z" fill="#404041"/>
<path opacity="0.59" d="M32.4091 39.0656H31.1291C30.9179 39.0656 30.7451 38.8928 30.7451 38.6816V37.4016C30.7451 37.1904 30.9179 37.0176 31.1291 37.0176H32.4091C32.6203 37.0176 32.7931 37.1904 32.7931 37.4016V38.6816C32.7931 38.8928 32.6203 39.0656 32.4091 39.0656Z" fill="#F48B34" stroke="#F48B34" stroke-width="0.256" stroke-miterlimit="10" stroke-linecap="round" stroke-linejoin="round"/>
<path d="M32.2304 39.0656H30.9504C30.7392 39.0656 30.5664 38.8928 30.5664 38.6816V37.4016C30.5664 37.1904 30.7392 37.0176 30.9504 37.0176H32.2304C32.4416 37.0176 32.6144 37.1904 32.6144 37.4016V38.6816C32.6144 38.8928 32.4416 39.0656 32.2304 39.0656Z" fill="#DD3748"/>
<path opacity="0.3" d="M30.9502 37.8496V37.5296C30.9502 37.4592 31.0078 37.4016 31.0782 37.4016H31.8462" stroke="#404041" stroke-width="0.192" stroke-miterlimit="10" stroke-linecap="round" stroke-linejoin="round"/>
<path d="M32.2304 39.0656H30.9504C30.7392 39.0656 30.5664 38.8928 30.5664 38.6816V37.4016C30.5664 37.1904 30.7392 37.0176 30.9504 37.0176H32.2304C32.4416 37.0176 32.6144 37.1904 32.6144 37.4016V38.6816C32.6144 38.8928 32.4416 39.0656 32.2304 39.0656Z" stroke="#404041" stroke-width="0.256" stroke-miterlimit="10" stroke-linecap="round" stroke-linejoin="round"/>
<path opacity="0.59" d="M35.3027 39.0656H34.0227C33.8115 39.0656 33.6387 38.8928 33.6387 38.6816V37.4016C33.6387 37.1904 33.8115 37.0176 34.0227 37.0176H35.3027C35.5139 37.0176 35.6867 37.1904 35.6867 37.4016V38.6816C35.6867 38.8928 35.5139 39.0656 35.3027 39.0656Z" fill="#F48B34" stroke="#F48B34" stroke-width="0.256" stroke-miterlimit="10" stroke-linecap="round" stroke-linejoin="round"/>
<path d="M31.7762 37.8112V37.9904C31.7506 37.9648 31.7314 37.9456 31.7058 37.9328C31.6802 37.92 31.661 37.9136 31.6354 37.9136C31.5906 37.9136 31.5522 37.9328 31.5202 37.9648C31.5074 37.9776 31.501 37.9904 31.4946 38.0032C31.4882 38.016 31.4818 38.0288 31.4818 38.048C31.4818 38.0608 31.4754 38.08 31.4754 38.0992C31.4754 38.1504 31.4882 38.1888 31.5202 38.2208C31.5522 38.2528 31.5906 38.2656 31.6354 38.2656C31.661 38.2656 31.6866 38.2592 31.7058 38.2464C31.725 38.2336 31.7506 38.2144 31.7762 38.1888V38.368C31.7442 38.3808 31.7186 38.3936 31.6994 38.3936C31.6738 38.4 31.6482 38.4 31.6226 38.4C31.5906 38.4 31.5586 38.3936 31.533 38.3872C31.501 38.3808 31.4754 38.368 31.4562 38.3488C31.4114 38.3168 31.3794 38.2784 31.3538 38.2336C31.3282 38.1888 31.3154 38.1312 31.3154 38.08C31.3154 38.0352 31.3218 37.9904 31.341 37.952C31.3474 37.9328 31.3538 37.9136 31.3666 37.9008C31.3794 37.8816 31.3922 37.8688 31.405 37.8496C31.437 37.8176 31.469 37.7984 31.501 37.7856C31.5394 37.7728 31.5778 37.7664 31.6226 37.7664C31.6482 37.7664 31.6738 37.7664 31.6994 37.7728C31.725 37.792 31.7506 37.7984 31.7762 37.8112Z" fill="#FEC556"/>
<path d="M35.1874 39.0656H33.9074C33.6962 39.0656 33.5234 38.8928 33.5234 38.6816V37.4016C33.5234 37.1904 33.6962 37.0176 33.9074 37.0176H35.1874C35.3986 37.0176 35.5714 37.1904 35.5714 37.4016V38.6816C35.5714 38.8928 35.3986 39.0656 35.1874 39.0656Z" fill="#514C4C"/>
<path d="M33.8438 37.8496V37.5296C33.8438 37.4592 33.9014 37.4016 33.9718 37.4016H34.7398" stroke="#404041" stroke-width="0.192" stroke-miterlimit="10" stroke-linecap="round" stroke-linejoin="round"/>
<path d="M35.123 39.0656H33.843C33.6318 39.0656 33.459 38.8928 33.459 38.6816V37.4016C33.459 37.1904 33.6318 37.0176 33.843 37.0176H35.123C35.3342 37.0176 35.507 37.1904 35.507 37.4016V38.6816C35.507 38.8928 35.3342 39.0656 35.123 39.0656Z" stroke="#404041" stroke-width="0.256" stroke-miterlimit="10" stroke-linecap="round" stroke-linejoin="round"/>
<path d="M34.4321 38.2464L34.1569 37.9712C34.0929 37.9072 34.1377 37.792 34.2337 37.792H34.7777C34.8737 37.792 34.9185 37.9072 34.8545 37.9712L34.5793 38.2464C34.5409 38.2912 34.4769 38.2912 34.4321 38.2464Z" fill="#FEC556"/>
<path opacity="0.59" d="M29.581 39.0656H28.301C28.0898 39.0656 27.917 38.8928 27.917 38.6816V37.4016C27.917 37.1904 28.0898 37.0176 28.301 37.0176H29.581C29.7922 37.0176 29.965 37.1904 29.965 37.4016V38.6816C29.965 38.8928 29.7986 39.0656 29.581 39.0656Z" fill="#F48B34" stroke="#F48B34" stroke-width="0.256" stroke-miterlimit="10" stroke-linecap="round" stroke-linejoin="round"/>
<path d="M29.3437 39.0656H28.0637C27.8525 39.0656 27.6797 38.8928 27.6797 38.6816V37.4016C27.6797 37.1904 27.8525 37.0176 28.0637 37.0176H29.3437C29.5549 37.0176 29.7277 37.1904 29.7277 37.4016V38.6816C29.7277 38.8928 29.5549 39.0656 29.3437 39.0656Z" fill="#514C4C"/>
<path d="M28.0635 37.8496V37.5296C28.0635 37.4592 28.1211 37.4016 28.1915 37.4016H28.9595" stroke="#404041" stroke-width="0.192" stroke-miterlimit="10" stroke-linecap="round" stroke-linejoin="round"/>
<path d="M29.4081 39.0656H28.1281C27.9169 39.0656 27.7441 38.8928 27.7441 38.6816V37.4016C27.7441 37.1904 27.9169 37.0176 28.1281 37.0176H29.4081C29.6193 37.0176 29.7921 37.1904 29.7921 37.4016V38.6816C29.7921 38.8928 29.6193 39.0656 29.4081 39.0656Z" stroke="#404041" stroke-width="0.256" stroke-miterlimit="10" stroke-linecap="round" stroke-linejoin="round"/>
<path d="M28.6528 37.8304L28.3776 38.1056C28.3136 38.1696 28.3584 38.2848 28.4544 38.2848H28.9984C29.0944 38.2848 29.1392 38.1696 29.0752 38.1056L28.8 37.8304C28.7616 37.7856 28.6976 37.7856 28.6528 37.8304Z" fill="#FEC556"/>
<path opacity="0.36" d="M32.8068 26.1697H31.7316C31.6548 26.1697 31.5908 26.1057 31.5908 26.0289C31.5908 25.9521 31.6548 25.8881 31.7316 25.8881H32.8068C32.8836 25.8881 32.9476 25.9521 32.9476 26.0289C32.9476 26.1057 32.8836 26.1697 32.8068 26.1697Z" fill="#F48B34"/>
<path opacity="0.36" d="M32.8067 26.56H30.4387C30.3619 26.56 30.2979 26.496 30.2979 26.4192C30.2979 26.3424 30.3619 26.2784 30.4387 26.2784H32.8067C32.8835 26.2784 32.9475 26.3424 32.9475 26.4192C32.9475 26.496 32.8835 26.56 32.8067 26.56Z" fill="#F48B34"/>
</g>
<defs>
<clipPath id="clip0_11673_29082">
<rect width="64" height="64" rx="8" fill="white"/>
</clipPath>
</defs>
</svg>
