<?xml version="1.0" encoding="UTF-8" standalone="no"?>
<!DOCTYPE svg PUBLIC "-//W3C//DTD SVG 1.1//EN" "http://www.w3.org/Graphics/SVG/1.1/DTD/svg11.dtd">
<svg xmlns="http://www.w3.org/2000/svg" version="1.1" viewBox="0.00 0.00 280.00 40.00">
<path fill="#29458c" d="
  M 94.49 14.63
  L 93.24 14.88
  C 92.84 14.96 92.46 14.65 92.46 14.24
  L 92.46 13.26
  C 92.47 12.74 92.72 12.44 93.23 12.36
  C 94.76 12.11 95.25 11.27 94.70 9.84
  C 94.59 9.54 94.61 9.21 94.76 8.93
  C 96.37 5.91 98.83 4.90 102.14 5.91
  C 103.56 6.34 103.31 8.41 101.83 8.50
  L 99.55 8.62
  C 98.87 8.66 98.53 9.02 98.52 9.70
  L 98.51 11.32
  C 98.50 11.87 98.77 12.12 99.32 12.09
  L 101.61 11.95
  C 102.08 11.92 102.30 12.14 102.27 12.61
  L 102.18 14.07
  C 102.16 14.43 101.85 14.70 101.49 14.68
  L 99.12 14.53
  C 98.69 14.50 98.48 14.71 98.48 15.14
  L 98.56 25.09
  C 98.56 25.45 98.27 25.74 97.91 25.74
  L 95.51 25.75
  C 95.01 25.76 94.76 25.51 94.77 25.01
  L 94.92 14.99
  C 94.93 14.70 94.78 14.58 94.49 14.63
  Z"
/>
<path fill="#29458c" d="
  M 123.25 15.14
  L 123.30 22.35
  C 123.31 22.65 123.55 22.89 123.85 22.89
  L 126.18 22.90
  C 126.67 22.90 127.07 23.30 127.06 23.80
  L 127.05 24.21
  C 127.04 24.91 126.70 25.35 126.02 25.54
  C 124.06 26.08 122.16 25.90 120.31 25.01
  C 120.02 24.87 119.83 24.58 119.81 24.26
  L 119.40 15.31
  C 119.39 14.92 119.19 14.69 118.80 14.64
  L 117.39 14.44
  C 117.06 14.39 116.93 14.21 117.00 13.88
  L 117.13 13.28
  C 117.22 12.85 117.47 12.59 117.89 12.49
  C 119.44 12.12 120.22 11.10 120.25 9.43
  C 120.26 8.81 120.75 8.32 121.36 8.31
  L 122.06 8.30
  C 122.62 8.29 123.09 8.74 123.10 9.31
  L 123.14 11.50
  C 123.15 11.82 123.43 12.08 123.75 12.06
  L 126.16 11.97
  C 126.56 11.95 126.89 12.28 126.87 12.68
  L 126.83 14.00
  C 126.82 14.37 126.62 14.56 126.25 14.55
  L 123.87 14.52
  C 123.53 14.51 123.25 14.79 123.25 15.14
  Z"
/>
<path fill="#29458c" d="
  M 12.87 16.65
  C 13.81 15.82 13.00 14.28 11.78 14.59
  C 11.09 14.76 10.63 15.25 10.40 16.05
  C 10.29 16.44 10.04 16.61 9.64 16.57
  L 7.07 16.31
  C 6.66 16.27 6.38 15.86 6.50 15.46
  C 7.87 10.77 17.22 10.11 16.89 15.74
  C 16.74 18.27 16.96 20.75 17.53 23.20
  C 17.60 23.51 17.56 23.79 17.39 24.05
  C 16.44 25.50 15.40 25.65 14.25 24.48
  C 14.02 24.25 13.65 24.23 13.39 24.43
  C 6.20 30.13 3.02 17.21 11.18 17.18
  C 11.91 17.18 12.47 17.00 12.87 16.65
  Z
  M 11.95 22.69
  C 13.16 21.36 13.73 20.58 13.66 20.33
  C 13.43 19.51 12.62 18.88 11.79 18.86
  C 10.95 18.84 10.36 19.44 10.41 20.25
  L 10.53 22.19
  C 10.57 22.91 11.46 23.22 11.95 22.69
  Z"
/>
<path fill="#29458c" d="
  M 41.18 15.26
  C 40.48 16.73 39.27 17.02 37.54 16.13
  C 37.26 15.99 37.13 15.66 37.24 15.37
  C 38.24 12.73 40.25 11.52 43.26 11.73
  C 49.27 12.16 47.20 19.10 47.97 22.99
  C 48.04 23.34 47.99 23.68 47.84 24.01
  C 47.23 25.28 46.32 25.55 45.09 24.80
  C 44.79 24.61 44.41 24.57 44.06 24.68
  C 41.23 25.58 38.11 27.02 36.96 22.98
  C 35.87 19.19 39.85 16.93 43.11 16.86
  C 43.72 16.85 44.13 16.22 43.90 15.65
  C 43.57 14.84 42.93 14.51 41.97 14.67
  C 41.60 14.73 41.34 14.93 41.18 15.26
  Z
  M 42.63 19.29
  L 41.11 19.83
  C 40.30 20.12 39.80 21.00 39.97 21.84
  C 40.15 22.67 40.93 23.17 41.76 22.97
  C 43.46 22.56 44.01 21.46 43.41 19.67
  C 43.30 19.35 42.95 19.18 42.63 19.29
  Z"
/>
<path fill="#29458c" d="
  M 156.51 20.05
  C 156.17 20.05 155.98 20.45 156.19 20.72
  L 157.45 22.32
  C 157.76 22.71 158.17 22.91 158.68 22.90
  L 163.70 22.82
  C 164.47 22.81 164.80 23.18 164.69 23.95
  L 164.61 24.51
  C 164.50 25.23 163.92 25.79 163.19 25.87
  C 161.97 26.00 160.81 26.09 159.72 26.12
  C 154.89 26.25 152.35 22.49 152.94 17.73
  C 153.94 9.74 164.97 8.86 165.17 17.97
  C 165.20 19.25 164.57 19.90 163.29 19.92
  L 156.51 20.05
  Z
  M 156.43 17.17
  L 161.85 17.17
  C 161.92 17.17 161.98 17.12 161.98 17.04
  L 161.98 16.97
  C 161.98 15.45 160.72 14.21 159.15 14.21
  L 159.13 14.21
  C 157.57 14.21 156.30 15.44 156.30 16.97
  L 156.30 17.04
  C 156.30 17.11 156.36 17.17 156.43 17.17
  Z"
/>
<path fill="#29458c" d="
  M 175.79 20.57
  L 176.98 22.42
  C 177.22 22.79 177.56 22.96 178.00 22.95
  L 183.93 22.70
  C 184.08 22.69 184.15 22.76 184.15 22.91
  L 184.16 24.87
  C 184.16 25.01 184.07 25.14 183.94 25.19
  C 170.98 30.65 168.46 12.70 178.65 11.42
  C 182.66 10.92 186.08 15.56 184.36 19.44
  C 184.21 19.79 183.94 19.96 183.57 19.96
  L 176.11 19.99
  C 175.65 19.99 175.54 20.18 175.79 20.57
  Z
  M 176.48 17.18
  L 181.18 17.18
  C 181.32 17.18 181.44 17.06 181.44 16.92
  L 181.44 16.63
  C 181.44 15.30 180.32 14.22 178.93 14.22
  L 178.73 14.22
  C 177.34 14.22 176.22 15.30 176.22 16.63
  L 176.22 16.92
  C 176.22 17.06 176.34 17.18 176.48 17.18
  Z"
/>
<path fill="#29458c" d="
  M 195.24 15.94
  C 195.23 15.09 194.80 14.67 193.94 14.68
  L 191.73 14.71
  C 191.02 14.72 190.45 15.30 190.44 16.01
  L 190.43 24.76
  C 190.43 25.27 190.03 25.68 189.52 25.69
  L 187.48 25.74
  C 186.95 25.75 186.69 25.50 186.69 24.97
  L 186.70 12.55
  C 186.70 12.28 186.84 12.11 187.11 12.04
  C 188.17 11.79 189.12 11.99 189.96 12.62
  C 190.22 12.82 190.50 12.85 190.79 12.70
  C 201.48 7.46 198.95 19.71 199.03 24.96
  C 199.04 25.47 198.78 25.72 198.27 25.70
  L 196.17 25.63
  C 195.72 25.61 195.36 25.24 195.35 24.79
  L 195.24 15.94
  Z"
/>
<path fill="#29458c" d="
  M 208.65 24.83
  C 200.19 27.60 198.00 14.57 205.51 11.61
  C 206.77 11.12 207.98 11.26 209.13 12.05
  C 209.37 12.22 209.64 12.29 209.93 12.26
  L 212.91 12.01
  C 213.34 11.98 213.56 12.18 213.58 12.61
  C 213.81 18.37 213.83 22.88 213.64 26.14
  C 213.33 31.49 206.39 32.17 202.66 30.45
  C 201.82 30.06 201.61 29.46 202.02 28.64
  L 202.19 28.30
  C 202.41 27.87 202.92 27.69 203.36 27.89
  C 205.79 29.02 207.99 28.81 209.96 27.26
  C 211.19 26.29 210.14 24.34 208.65 24.83
  Z
  M 210.07 21.31
  L 210.05 15.53
  C 210.05 14.87 209.51 14.34 208.86 14.34
  L 207.50 14.35
  C 205.97 14.35 204.73 15.72 204.74 17.39
  L 204.74 19.49
  C 204.75 21.16 205.99 22.51 207.52 22.51
  L 208.88 22.50
  C 209.54 22.50 210.07 21.97 210.07 21.31
  Z"
/>
<path fill="#29458c" d="
  M 231.95 16.06
  C 231.95 15.04 231.44 14.54 230.41 14.57
  L 228.08 14.63
  C 227.24 14.65 226.58 15.33 226.57 16.17
  L 226.54 25.28
  C 226.54 25.66 226.35 25.84 225.97 25.81
  L 223.75 25.65
  C 223.20 25.61 222.93 25.31 222.93 24.76
  L 222.95 12.97
  C 222.95 12.52 223.24 12.13 223.66 11.99
  C 224.67 11.66 225.55 11.89 226.30 12.67
  C 226.54 12.92 226.92 12.97 227.21 12.77
  C 230.55 10.50 233.29 10.94 235.43 14.08
  C 235.58 14.30 235.66 14.56 235.66 14.82
  L 235.65 24.27
  C 235.65 25.22 235.18 25.70 234.23 25.72
  L 233.06 25.75
  C 232.33 25.76 231.97 25.41 231.97 24.68
  L 231.95 16.06
  Z"
/>
<path fill="#29458c" d="
  M 241.27 19.88
  C 240.96 19.88 240.76 20.21 240.91 20.48
  L 241.86 22.21
  C 242.13 22.71 242.56 22.95 243.13 22.93
  L 248.34 22.81
  C 249.67 22.78 250.10 24.57 248.91 25.15
  C 243.90 27.58 238.50 25.91 237.50 20.22
  C 237.15 18.24 237.47 16.42 238.44 14.75
  C 240.84 10.66 247.32 9.84 249.15 14.76
  C 249.70 16.23 249.76 17.83 249.31 19.56
  C 249.23 19.88 249.02 20.04 248.69 20.03
  L 241.27 19.88
  Z
  M 241.12 17.25
  L 246.42 17.13
  C 246.52 17.13 246.59 17.05 246.59 16.96
  L 246.59 16.88
  C 246.55 15.35 245.30 14.13 243.79 14.17
  L 243.63 14.17
  C 242.11 14.21 240.91 15.47 240.95 17.00
  L 240.95 17.08
  C 240.95 17.18 241.03 17.25 241.12 17.25
  Z"
/>
<path fill="#29458c" d="
  M 254.28 21.00
  L 255.06 21.97
  C 255.61 22.66 256.33 22.99 257.21 22.94
  L 262.63 22.67
  C 262.78 22.66 262.84 22.73 262.83 22.88
  L 262.66 25.04
  C 262.65 25.19 262.55 25.32 262.40 25.37
  C 258.12 26.84 252.42 26.54 251.19 21.38
  C 250.62 19.01 250.81 16.90 251.76 15.04
  C 255.48 7.72 266.35 12.75 262.51 19.62
  C 262.38 19.84 262.19 19.95 261.94 19.95
  L 254.76 20.01
  C 253.91 20.02 253.75 20.35 254.28 21.00
  Z
  M 254.67 17.26
  L 259.75 17.04
  C 259.87 17.04 259.96 16.93 259.96 16.81
  L 259.95 16.67
  C 259.89 15.27 258.67 14.18 257.23 14.25
  L 256.95 14.26
  C 255.50 14.32 254.38 15.50 254.44 16.90
  L 254.44 17.04
  C 254.45 17.17 254.55 17.26 254.67 17.26
  Z"
/>
<path fill="#29458c" d="
  M 136.51 24.95
  C 133.88 26.67 129.22 26.82 128.75 22.76
  C 128.59 21.39 128.58 18.00 128.73 12.59
  C 128.74 12.25 128.91 12.08 129.24 12.07
  L 131.74 11.97
  C 132.09 11.96 132.27 12.13 132.28 12.49
  L 132.36 22.18
  C 132.37 22.72 132.64 22.98 133.18 22.96
  L 136.32 22.82
  C 136.88 22.79 137.16 22.50 137.16 21.94
  L 137.24 12.49
  C 137.24 12.10 137.44 11.90 137.84 11.90
  L 140.27 11.90
  C 140.65 11.90 140.95 12.20 140.95 12.57
  L 140.98 24.73
  C 140.98 25.04 140.84 25.26 140.57 25.40
  C 139.34 26.01 138.27 25.89 137.36 25.03
  C 137.10 24.78 136.82 24.76 136.51 24.95
  Z"
/>
<rect fill="#29458c" x="-1.86" y="-6.87" transform="translate(218.53,18.81) rotate(0.1)" width="3.72" height="13.74" rx="0.82"/>
<path fill="#29458c" d="
  M 268.64 15.85
  L 268.51 24.88
  C 268.50 25.39 268.25 25.65 267.74 25.66
  L 265.71 25.71
  C 265.09 25.72 264.79 25.42 264.80 24.79
  L 265.10 12.64
  C 265.11 12.43 265.23 12.25 265.41 12.17
  C 266.77 11.55 267.76 11.86 268.38 13.10
  C 268.59 13.52 268.86 13.55 269.17 13.20
  C 270.29 11.93 271.56 11.57 272.97 12.13
  C 273.77 12.45 274.20 13.31 273.97 14.14
  C 273.74 14.97 272.93 15.49 272.08 15.35
  C 271.04 15.18 270.05 15.17 269.12 15.30
  C 268.81 15.35 268.65 15.53 268.64 15.85
  Z"
/>
<path fill="#29458c" d="
  M 23.66 12.58
  C 25.23 11.55 26.65 11.73 27.93 13.12
  C 28.16 13.36 28.54 13.38 28.79 13.16
  C 30.59 11.59 34.71 11.10 34.95 14.38
  C 35.20 17.72 35.29 21.08 35.21 24.47
  C 35.20 25.15 34.65 25.70 33.97 25.72
  L 32.96 25.74
  C 31.91 25.77 31.38 25.25 31.39 24.20
  L 31.48 16.01
  C 31.48 15.61 31.16 15.28 30.76 15.27
  L 30.37 15.26
  C 29.59 15.24 28.95 15.86 28.94 16.64
  L 28.91 24.54
  C 28.91 25.34 28.51 25.74 27.71 25.75
  L 26.82 25.77
  C 25.98 25.78 25.29 25.10 25.29 24.26
  L 25.24 15.82
  C 25.23 15.37 24.81 15.05 24.38 15.17
  L 24.02 15.27
  C 23.25 15.48 22.86 15.98 22.85 16.78
  L 22.76 24.56
  C 22.75 25.43 22.31 25.84 21.44 25.79
  L 20.18 25.71
  C 19.39 25.66 18.99 25.23 19.00 24.43
  L 19.03 12.99
  C 19.03 12.65 19.23 12.34 19.55 12.21
  C 20.68 11.72 21.75 11.83 22.76 12.56
  C 23.06 12.77 23.36 12.78 23.66 12.58
  Z"
/>
<path fill="#29458c" d="
  M 55.13 20.90
  L 57.14 21.09
  C 57.51 21.12 57.84 21.26 58.13 21.50
  C 59.12 22.32 59.30 23.42 58.67 24.81
  C 58.50 25.20 58.23 25.28 57.87 25.06
  C 55.79 23.79 53.61 23.66 51.34 24.69
  C 49.84 25.37 48.39 23.65 49.32 22.29
  L 53.69 15.86
  C 53.87 15.60 53.68 15.25 53.37 15.25
  L 50.70 15.26
  C 50.14 15.27 49.89 14.99 49.96 14.44
  L 50.17 12.74
  C 50.23 12.24 50.51 11.99 51.01 11.99
  L 57.65 12.03
  C 59.02 12.03 59.80 13.60 58.97 14.70
  L 54.82 20.19
  C 54.51 20.61 54.61 20.85 55.13 20.90
  Z"
/>
<path fill="#29458c" d="
  M 65.2412 25.7798
  C 62.17 25.76 59.70 22.61 59.7301 18.7512
  C 59.76 14.89 62.27 11.78 65.3388 11.8002
  C 68.41 11.82 70.88 14.97 70.8499 18.8288
  C 70.82 22.69 68.31 25.80 65.2412 25.7798
  Z
  M 66.6212 16.0602
  C 66.62 15.31 66.01 14.71 65.2618 14.7196
  L 65.1218 14.7206
  C 64.38 14.73 63.78 15.33 63.7813 16.0800
  L 63.8188 21.4598
  C 63.82 22.21 64.43 22.81 65.1782 22.8004
  L 65.3182 22.7994
  C 66.06 22.79 66.66 22.19 66.6587 21.4400
  L 66.6212 16.0602
  Z"
/>
<path fill="#29458c" d="
  M 78.63 15.99
  C 78.63 15.39 78.17 14.89 77.58 14.82
  C 76.98 14.75 76.43 15.14 76.29 15.72
  C 75.59 18.68 75.41 21.66 75.75 24.67
  C 75.81 25.22 75.37 25.71 74.81 25.70
  L 73.14 25.69
  C 72.41 25.68 72.04 25.31 72.03 24.58
  L 71.94 13.00
  C 71.94 12.59 72.13 12.32 72.51 12.17
  C 73.56 11.77 74.57 11.88 75.52 12.50
  C 75.78 12.67 76.11 12.70 76.40 12.58
  C 84.05 9.44 82.33 20.68 82.27 24.18
  C 82.25 25.02 81.58 25.70 80.73 25.72
  L 80.05 25.73
  C 79.16 25.75 78.71 25.32 78.70 24.43
  L 78.63 15.99
  Z"
/>
<path fill="#29458c" d="
  M 107.60 22.05
  C 107.61 22.77 108.25 23.32 108.96 23.20
  L 111.17 22.83
  C 112.01 22.68 112.43 22.18 112.43 21.33
  L 112.47 13.23
  C 112.47 12.36 112.90 11.95 113.77 11.98
  L 114.82 12.03
  C 115.72 12.07 116.17 12.54 116.18 13.44
  L 116.24 24.20
  C 116.25 25.92 114.08 26.69 113.00 25.34
  C 112.51 24.72 111.95 24.62 111.33 25.04
  C 109.10 26.55 106.23 26.78 104.73 24.71
  C 103.02 22.36 103.77 15.94 103.74 12.98
  C 103.73 12.29 104.07 11.96 104.75 11.97
  L 106.40 12.00
  C 107.15 12.02 107.53 12.40 107.54 13.15
  L 107.60 22.05
  Z"
/>
<path fill="#29458c" d="
  M 147.50 15.88
  L 147.51 24.57
  C 147.51 25.30 147.15 25.66 146.43 25.66
  L 144.71 25.67
  C 144.07 25.68 143.75 25.36 143.75 24.71
  L 143.77 12.51
  C 143.77 12.22 143.92 12.04 144.22 11.98
  C 145.31 11.76 146.26 11.99 147.07 12.67
  C 147.36 12.92 147.68 12.95 148.01 12.76
  C 149.08 12.15 150.25 11.88 151.52 11.96
  C 152.15 12.01 152.44 12.34 152.39 12.97
  L 152.28 14.14
  C 152.22 14.85 151.83 15.21 151.11 15.22
  L 148.12 15.25
  C 147.71 15.25 147.50 15.46 147.50 15.88
  Z"
/>
<path fill="#29458c" d="
  M 55.20 28.97
  C 55.49 28.20 54.87 27.39 54.05 27.48
  L 49.97 27.93
  C 49.37 28.00 49.11 27.20 49.63 26.90
  C 52.01 25.55 54.48 25.35 57.05 26.32
  C 57.44 26.47 57.61 26.75 57.56 27.16
  C 57.25 29.29 56.52 31.26 55.36 33.06
  C 55.28 33.18 55.17 33.25 55.03 33.26
  L 53.92 33.37
  C 53.63 33.40 53.54 33.28 53.64 33.01
  L 55.20 28.97
  Z"
/>
<path fill="#29458c" d="
  M 46.98 30.53
  C 48.52 30.19 50.89 28.98 52.79 28.95
  C 53.77 28.93 54.10 30.26 53.23 30.71
  C 40.20 37.46 28.26 36.41 17.41 27.54
  C 17.16 27.34 17.04 27.15 17.03 26.98
  C 17.01 26.58 17.44 26.31 17.79 26.50
  C 26.98 31.48 36.71 32.82 46.98 30.53
  Z"
/>
</svg>
