<svg width="444" height="261" viewBox="0 0 444 261" fill="none" xmlns="http://www.w3.org/2000/svg">
<g clip-path="url(#clip0_12387_38528)">
<path d="M443.5 0H0.5V260.232H443.5V0Z" fill="#DCE2E1"/>
<path opacity="0.28" d="M427.039 222.892H18.1716C15.1456 222.892 12.7249 220.471 12.7249 217.445C12.7249 214.419 15.1456 211.999 18.1716 211.999H427.099C430.125 211.999 432.546 214.419 432.546 217.445C432.486 220.471 430.065 222.892 427.039 222.892Z" fill="#848484"/>
<path d="M409.307 166.972C409.307 144.459 392.24 125.94 370.151 123.822V118.739H356.897V215.993H370.151V210.122C392.18 208.004 409.307 189.485 409.307 166.972ZM370.09 196.142V137.863C384.252 139.92 395.387 152.206 395.387 167.033C395.387 181.799 384.252 194.085 370.09 196.142Z" fill="#F09F54"/>
<path opacity="0.29" d="M370.09 123.822V118.739H356.837V215.993H370.09V210.122C392.18 208.004 409.246 189.546 409.246 166.972C409.307 144.459 392.18 125.94 370.09 123.822ZM370.09 205.644V210.667H357.684V123.156H370.09V128.301C389.517 130.177 405.191 146.759 405.191 166.972C405.252 187.186 389.578 203.768 370.09 205.644Z" fill="#F09F54"/>
<path d="M409.307 166.972C409.307 144.459 392.24 125.94 370.151 123.822V118.739H356.897V215.993H370.151V210.122C392.18 208.004 409.307 189.485 409.307 166.972ZM370.09 196.142V137.863C384.252 139.92 395.387 152.206 395.387 167.033C395.387 181.799 384.252 194.085 370.09 196.142Z" stroke="#444E59" stroke-width="2.42076" stroke-miterlimit="10" stroke-linecap="round" stroke-linejoin="round"/>
<path d="M362.162 206.249H356.837" stroke="#444E59" stroke-width="1.81557" stroke-miterlimit="10" stroke-linecap="round" stroke-linejoin="round"/>
<path d="M362.162 196.566H356.837" stroke="#444E59" stroke-width="1.81557" stroke-miterlimit="10" stroke-linecap="round" stroke-linejoin="round"/>
<path d="M362.162 186.823H356.837" stroke="#444E59" stroke-width="1.81557" stroke-miterlimit="10" stroke-linecap="round" stroke-linejoin="round"/>
<path d="M362.162 177.079H356.837" stroke="#444E59" stroke-width="1.81557" stroke-miterlimit="10" stroke-linecap="round" stroke-linejoin="round"/>
<path d="M362.162 167.396H356.837" stroke="#444E59" stroke-width="1.81557" stroke-miterlimit="10" stroke-linecap="round" stroke-linejoin="round"/>
<path d="M362.162 157.652H356.837" stroke="#444E59" stroke-width="1.81557" stroke-miterlimit="10" stroke-linecap="round" stroke-linejoin="round"/>
<path d="M362.162 147.908H356.837" stroke="#444E59" stroke-width="1.81557" stroke-miterlimit="10" stroke-linecap="round" stroke-linejoin="round"/>
<path d="M362.162 138.165H356.837" stroke="#444E59" stroke-width="1.81557" stroke-miterlimit="10" stroke-linecap="round" stroke-linejoin="round"/>
<path d="M362.162 128.482H356.837" stroke="#444E59" stroke-width="1.81557" stroke-miterlimit="10" stroke-linecap="round" stroke-linejoin="round"/>
<path d="M347.517 69.5365H327.485V215.751H347.517V69.5365Z" fill="#F09F54"/>
<path d="M347.517 69.5365H327.485V215.751H347.517V69.5365Z" fill="#F09F54"/>
<path opacity="0.29" d="M347.517 69.5365H338.802V215.751H347.517V69.5365Z" fill="#F09F54"/>
<path d="M347.517 69.5365H327.485V215.751H347.517V69.5365Z" stroke="#444E59" stroke-width="2.42076" stroke-miterlimit="10" stroke-linecap="round" stroke-linejoin="round"/>
<path d="M334.445 200.984H327.485" stroke="#444E59" stroke-width="1.81557" stroke-miterlimit="10" stroke-linecap="round" stroke-linejoin="round"/>
<path d="M331.782 207.944H327.485" stroke="#444E59" stroke-width="1.81557" stroke-miterlimit="10" stroke-linecap="round" stroke-linejoin="round"/>
<path d="M334.445 187.065H327.485" stroke="#444E59" stroke-width="1.81557" stroke-miterlimit="10" stroke-linecap="round" stroke-linejoin="round"/>
<path d="M331.782 194.024H327.485" stroke="#444E59" stroke-width="1.81557" stroke-miterlimit="10" stroke-linecap="round" stroke-linejoin="round"/>
<path d="M334.445 173.145H327.485" stroke="#444E59" stroke-width="1.81557" stroke-miterlimit="10" stroke-linecap="round" stroke-linejoin="round"/>
<path d="M331.782 180.105H327.485" stroke="#444E59" stroke-width="1.81557" stroke-miterlimit="10" stroke-linecap="round" stroke-linejoin="round"/>
<path d="M334.445 159.165H327.485" stroke="#444E59" stroke-width="1.81557" stroke-miterlimit="10" stroke-linecap="round" stroke-linejoin="round"/>
<path d="M331.782 166.125H327.485" stroke="#444E59" stroke-width="1.81557" stroke-miterlimit="10" stroke-linecap="round" stroke-linejoin="round"/>
<path d="M334.445 145.246H327.485" stroke="#444E59" stroke-width="1.81557" stroke-miterlimit="10" stroke-linecap="round" stroke-linejoin="round"/>
<path d="M331.782 152.206H327.485" stroke="#444E59" stroke-width="1.81557" stroke-miterlimit="10" stroke-linecap="round" stroke-linejoin="round"/>
<path d="M334.445 131.327H327.485" stroke="#444E59" stroke-width="1.81557" stroke-miterlimit="10" stroke-linecap="round" stroke-linejoin="round"/>
<path d="M331.782 138.286H327.485" stroke="#444E59" stroke-width="1.81557" stroke-miterlimit="10" stroke-linecap="round" stroke-linejoin="round"/>
<path d="M334.445 117.407H327.485" stroke="#444E59" stroke-width="1.81557" stroke-miterlimit="10" stroke-linecap="round" stroke-linejoin="round"/>
<path d="M331.782 124.367H327.485" stroke="#444E59" stroke-width="1.81557" stroke-miterlimit="10" stroke-linecap="round" stroke-linejoin="round"/>
<path d="M334.445 103.488H327.485" stroke="#444E59" stroke-width="1.81557" stroke-miterlimit="10" stroke-linecap="round" stroke-linejoin="round"/>
<path d="M331.782 110.447H327.485" stroke="#444E59" stroke-width="1.81557" stroke-miterlimit="10" stroke-linecap="round" stroke-linejoin="round"/>
<path d="M334.445 89.5684H327.485" stroke="#444E59" stroke-width="1.81557" stroke-miterlimit="10" stroke-linecap="round" stroke-linejoin="round"/>
<path d="M331.782 96.528H327.485" stroke="#444E59" stroke-width="1.81557" stroke-miterlimit="10" stroke-linecap="round" stroke-linejoin="round"/>
<path d="M334.445 75.6489H327.485" stroke="#444E59" stroke-width="1.81557" stroke-miterlimit="10" stroke-linecap="round" stroke-linejoin="round"/>
<path d="M331.782 82.6086H327.485" stroke="#444E59" stroke-width="1.81557" stroke-miterlimit="10" stroke-linecap="round" stroke-linejoin="round"/>
<path d="M298.254 104.88H290.447V125.517H298.254V104.88Z" fill="#848484"/>
<path opacity="0.25" d="M293.352 104.88H290.447V125.517H293.352V104.88Z" fill="#848484"/>
<path d="M298.254 104.88H290.447V125.517H298.254V104.88Z" stroke="#444E59" stroke-width="2.42076" stroke-miterlimit="10" stroke-linecap="round" stroke-linejoin="round"/>
<path d="M296.136 125.577H292.565V135.563H296.136V125.577Z" fill="white"/>
<path d="M296.136 125.577H292.565V135.563H296.136V125.577Z" stroke="#444E59" stroke-width="2.42076" stroke-miterlimit="10" stroke-linecap="round" stroke-linejoin="round"/>
<path d="M288.329 144.459L270.173 215.69L297.77 145.427L288.329 144.459Z" fill="white"/>
<path d="M288.329 144.459L270.173 215.69L297.77 145.427L288.329 144.459Z" stroke="#444E59" stroke-width="2.42076" stroke-miterlimit="10" stroke-linecap="round" stroke-linejoin="round"/>
<path d="M300.433 144.459L318.588 215.69L291.052 145.427L300.433 144.459Z" fill="white"/>
<path d="M300.433 144.459L318.588 215.69L291.052 145.427L300.433 144.459Z" stroke="#444E59" stroke-width="2.42076" stroke-miterlimit="10" stroke-linecap="round" stroke-linejoin="round"/>
<path d="M294.381 158.439C301.066 158.439 306.485 153.02 306.485 146.335C306.485 139.65 301.066 134.231 294.381 134.231C287.696 134.231 282.277 139.65 282.277 146.335C282.277 153.02 287.696 158.439 294.381 158.439Z" fill="#71A850"/>
<path opacity="0.4" d="M285.666 146.335C285.666 140.223 290.205 135.2 296.075 134.352C295.531 134.292 294.986 134.231 294.381 134.231C287.724 134.231 282.277 139.678 282.277 146.335C282.277 152.992 287.724 158.439 294.381 158.439C294.926 158.439 295.531 158.379 296.075 158.318C290.205 157.471 285.666 152.448 285.666 146.335Z" fill="#71A850"/>
<path d="M294.381 158.439C301.066 158.439 306.485 153.02 306.485 146.335C306.485 139.65 301.066 134.231 294.381 134.231C287.696 134.231 282.277 139.65 282.277 146.335C282.277 153.02 287.696 158.439 294.381 158.439Z" stroke="#444E59" stroke-width="2.42076" stroke-miterlimit="10" stroke-linecap="round" stroke-linejoin="round"/>
<path d="M294.381 150.451C296.653 150.451 298.496 148.608 298.496 146.335C298.496 144.062 296.653 142.22 294.381 142.22C292.108 142.22 290.266 144.062 290.266 146.335C290.266 148.608 292.108 150.451 294.381 150.451Z" fill="#444E59"/>
<path d="M294.381 150.451C296.653 150.451 298.496 148.608 298.496 146.335C298.496 144.062 296.653 142.22 294.381 142.22C292.108 142.22 290.266 144.062 290.266 146.335C290.266 148.608 292.108 150.451 294.381 150.451Z" stroke="#444E59" stroke-width="2.42076" stroke-miterlimit="10" stroke-linecap="round" stroke-linejoin="round"/>
<path d="M250.686 215.569H170.801C166.141 215.569 162.328 211.756 162.328 207.096V42.4844C162.328 37.8244 166.141 34.0117 170.801 34.0117H250.686C255.346 34.0117 259.159 37.8244 259.159 42.4844V207.096C259.159 211.756 255.346 215.569 250.686 215.569Z" fill="#848484"/>
<path opacity="0.28" d="M250.686 34.0117H245.603C250.263 34.0117 254.075 37.8244 254.075 42.4844V207.096C254.075 211.756 250.263 215.569 245.603 215.569H250.747C255.407 215.569 259.219 211.756 259.219 207.096V42.4844C259.159 37.7639 255.346 34.0117 250.686 34.0117Z" fill="#848484"/>
<path opacity="0.48" d="M167.351 207.096V42.4844C167.351 37.8244 171.164 34.0117 175.824 34.0117H170.801C166.141 34.0117 162.328 37.8244 162.328 42.4844V207.096C162.328 211.756 166.141 215.569 170.801 215.569H175.824C171.164 215.569 167.351 211.756 167.351 207.096Z" fill="#848484"/>
<path d="M250.686 215.569H170.801C166.141 215.569 162.328 211.756 162.328 207.096V42.4844C162.328 37.8244 166.141 34.0117 170.801 34.0117H250.686C255.346 34.0117 259.159 37.8244 259.159 42.4844V207.096C259.159 211.756 255.346 215.569 250.686 215.569Z" stroke="#444E59" stroke-width="2.42076" stroke-miterlimit="10" stroke-linecap="round" stroke-linejoin="round"/>
<path d="M259.17 192.263V56.6991H162.34V192.263H259.17Z" fill="#E9FBFF"/>
<path d="M258.675 100.401H251.11C246.994 100.401 243.666 97.0727 243.666 92.9574V74.499C243.666 70.3837 246.994 67.0552 251.11 67.0552H258.675V100.401Z" fill="#C9C9C9"/>
<path d="M167.896 175.203H162.328V116.318H167.896C172.072 116.318 175.461 119.707 175.461 123.883V167.638C175.4 171.814 172.072 175.203 167.896 175.203Z" fill="#C9C9C9"/>
<path d="M259.17 192.263V56.6991H162.34V192.263H259.17Z" stroke="#444E59" stroke-width="2.42076" stroke-miterlimit="10" stroke-linecap="round" stroke-linejoin="round"/>
<path d="M224.058 46.1156H228.294" stroke="#444E59" stroke-width="3.02596" stroke-miterlimit="10" stroke-linecap="round" stroke-linejoin="round"/>
<path d="M193.193 46.1156H217.401" stroke="#444E59" stroke-width="3.02596" stroke-miterlimit="10" stroke-linecap="round" stroke-linejoin="round"/>
<path opacity="0.29" d="M210.743 209.155C214.42 209.155 217.4 206.174 217.4 202.498C217.4 198.821 214.42 195.841 210.743 195.841C207.067 195.841 204.086 198.821 204.086 202.498C204.086 206.174 207.067 209.155 210.743 209.155Z" fill="#848484"/>
<path d="M210.744 207.581C213.551 207.581 215.827 205.304 215.827 202.497C215.827 199.689 213.551 197.413 210.744 197.413C207.936 197.413 205.66 199.689 205.66 202.497C205.66 205.304 207.936 207.581 210.744 207.581Z" fill="#444E59"/>
<g opacity="0.3">
<g opacity="0.3">
<g opacity="0.3">
<path opacity="0.3" d="M188.654 176.05H178.971C176.308 176.05 174.129 173.872 174.129 171.209V161.526C174.129 158.863 176.308 156.684 178.971 156.684H188.654C191.317 156.684 193.496 158.863 193.496 161.526V171.209C193.496 173.872 191.317 176.05 188.654 176.05Z" stroke="#444E59" stroke-width="1.21038" stroke-linecap="round" stroke-linejoin="round" stroke-dasharray="2.47 2.47"/>
</g>
<g opacity="0.3">
<path opacity="0.3" d="M242.213 176.05H232.53C229.867 176.05 227.689 173.872 227.689 171.209V161.526C227.689 158.863 229.867 156.684 232.53 156.684H242.213C244.876 156.684 247.055 158.863 247.055 161.526V171.209C247.055 173.872 244.876 176.05 242.213 176.05Z" stroke="#444E59" stroke-width="1.21038" stroke-linecap="round" stroke-linejoin="round" stroke-dasharray="2.47 2.47"/>
</g>
<g opacity="0.3">
<path opacity="0.3" d="M215.585 176.05H205.902C203.239 176.05 201.06 173.872 201.06 171.209V161.526C201.06 158.863 203.239 156.684 205.902 156.684H215.585C218.248 156.684 220.426 158.863 220.426 161.526V171.209C220.426 173.872 218.248 176.05 215.585 176.05Z" stroke="#444E59" stroke-width="1.21038" stroke-linecap="round" stroke-linejoin="round" stroke-dasharray="2.47 2.47"/>
</g>
</g>
<g opacity="0.3">
<g opacity="0.3">
<path opacity="0.3" d="M188.654 147.001H178.971C176.308 147.001 174.129 144.822 174.129 142.159V132.476C174.129 129.814 176.308 127.635 178.971 127.635H188.654C191.317 127.635 193.496 129.814 193.496 132.476V142.159C193.496 144.822 191.317 147.001 188.654 147.001Z" stroke="#444E59" stroke-width="1.21038" stroke-linecap="round" stroke-linejoin="round" stroke-dasharray="2.47 2.47"/>
</g>
<g opacity="0.3">
<path opacity="0.3" d="M242.213 147.001H232.53C229.867 147.001 227.689 144.822 227.689 142.159V132.476C227.689 129.814 229.867 127.635 232.53 127.635H242.213C244.876 127.635 247.055 129.814 247.055 132.476V142.159C247.055 144.822 244.876 147.001 242.213 147.001Z" stroke="#444E59" stroke-width="1.21038" stroke-linecap="round" stroke-linejoin="round" stroke-dasharray="2.47 2.47"/>
</g>
<g opacity="0.3">
<path opacity="0.3" d="M215.585 147.001H205.902C203.239 147.001 201.06 144.822 201.06 142.159V132.476C201.06 129.814 203.239 127.635 205.902 127.635H215.585C218.248 127.635 220.426 129.814 220.426 132.476V142.159C220.426 144.822 218.248 147.001 215.585 147.001Z" stroke="#444E59" stroke-width="1.21038" stroke-linecap="round" stroke-linejoin="round" stroke-dasharray="2.47 2.47"/>
</g>
</g>
<g opacity="0.3">
<g opacity="0.3">
<path opacity="0.3" d="M188.654 117.952H178.971C176.308 117.952 174.129 115.773 174.129 113.11V103.427C174.129 100.764 176.308 98.5857 178.971 98.5857H188.654C191.317 98.5857 193.496 100.764 193.496 103.427V113.11C193.496 115.773 191.317 117.952 188.654 117.952Z" stroke="#444E59" stroke-width="1.21038" stroke-linecap="round" stroke-linejoin="round" stroke-dasharray="2.47 2.47"/>
</g>
<g opacity="0.3">
<path opacity="0.3" d="M242.213 117.952H232.53C229.867 117.952 227.689 115.773 227.689 113.11V103.427C227.689 100.764 229.867 98.5857 232.53 98.5857H242.213C244.876 98.5857 247.055 100.764 247.055 103.427V113.11C247.055 115.773 244.876 117.952 242.213 117.952Z" stroke="#444E59" stroke-width="1.21038" stroke-linecap="round" stroke-linejoin="round" stroke-dasharray="2.47 2.47"/>
</g>
<g opacity="0.3">
<path opacity="0.3" d="M215.585 117.952H205.902C203.239 117.952 201.06 115.773 201.06 113.11V103.427C201.06 100.764 203.239 98.5857 205.902 98.5857H215.585C218.248 98.5857 220.426 100.764 220.426 103.427V113.11C220.426 115.773 218.248 117.952 215.585 117.952Z" stroke="#444E59" stroke-width="1.21038" stroke-linecap="round" stroke-linejoin="round" stroke-dasharray="2.47 2.47"/>
</g>
</g>
<g opacity="0.3">
<g opacity="0.3">
<path opacity="0.3" d="M188.654 88.9026H178.971C176.308 88.9026 174.129 86.7239 174.129 84.0611V74.378C174.129 71.7152 176.308 69.5365 178.971 69.5365H188.654C191.317 69.5365 193.496 71.7152 193.496 74.378V84.0611C193.496 86.7239 191.317 88.9026 188.654 88.9026Z" stroke="#444E59" stroke-width="1.21038" stroke-linecap="round" stroke-linejoin="round" stroke-dasharray="2.47 2.47"/>
</g>
<g opacity="0.3">
<path opacity="0.3" d="M242.213 88.9026H232.53C229.867 88.9026 227.689 86.7239 227.689 84.0611V74.378C227.689 71.7152 229.867 69.5365 232.53 69.5365H242.213C244.876 69.5365 247.055 71.7152 247.055 74.378V84.0611C247.055 86.7239 244.876 88.9026 242.213 88.9026Z" stroke="#444E59" stroke-width="1.21038" stroke-linecap="round" stroke-linejoin="round" stroke-dasharray="2.47 2.47"/>
</g>
<g opacity="0.3">
<path opacity="0.3" d="M215.585 88.9026H205.902C203.239 88.9026 201.06 86.7239 201.06 84.0611V74.378C201.06 71.7152 203.239 69.5365 205.902 69.5365H215.585C218.248 69.5365 220.426 71.7152 220.426 74.378V84.0611C220.426 86.7239 218.248 88.9026 215.585 88.9026Z" stroke="#444E59" stroke-width="1.21038" stroke-linecap="round" stroke-linejoin="round" stroke-dasharray="2.47 2.47"/>
</g>
</g>
</g>
<path d="M188.654 176.05H178.971C176.308 176.05 174.129 173.872 174.129 171.209V161.526C174.129 158.863 176.308 156.684 178.971 156.684H188.654C191.317 156.684 193.496 158.863 193.496 161.526V171.209C193.496 173.872 191.317 176.05 188.654 176.05Z" fill="#71A850"/>
<path opacity="0.52" d="M188.654 156.684H178.971C177.034 156.684 175.34 157.834 174.614 159.468L193.495 162.857V161.526C193.495 158.863 191.317 156.684 188.654 156.684Z" fill="#5F8C42"/>
<path d="M188.654 176.05H178.971C176.308 176.05 174.129 173.872 174.129 171.209V161.526C174.129 158.863 176.308 156.684 178.971 156.684H188.654C191.317 156.684 193.496 158.863 193.496 161.526V171.209C193.496 173.872 191.317 176.05 188.654 176.05Z" stroke="#444E59" stroke-width="2.42076" stroke-miterlimit="10" stroke-linecap="round" stroke-linejoin="round"/>
<path d="M215.585 176.05H205.902C203.239 176.05 201.06 173.872 201.06 171.209V161.526C201.06 158.863 203.239 156.684 205.902 156.684H215.585C218.248 156.684 220.426 158.863 220.426 161.526V171.209C220.426 173.872 218.248 176.05 215.585 176.05Z" fill="#F09F54"/>
<path opacity="0.52" d="M215.585 156.684H205.902C203.965 156.684 202.271 157.834 201.544 159.468L220.426 162.857V161.526C220.426 158.863 218.248 156.684 215.585 156.684Z" fill="#D38444"/>
<path d="M215.585 176.05H205.902C203.239 176.05 201.06 173.872 201.06 171.209V161.526C201.06 158.863 203.239 156.684 205.902 156.684H215.585C218.248 156.684 220.426 158.863 220.426 161.526V171.209C220.426 173.872 218.248 176.05 215.585 176.05Z" stroke="#444E59" stroke-width="2.42076" stroke-miterlimit="10" stroke-linecap="round" stroke-linejoin="round"/>
<path d="M242.213 147.001H232.53C229.867 147.001 227.689 144.822 227.689 142.159V132.476C227.689 129.814 229.867 127.635 232.53 127.635H242.213C244.876 127.635 247.055 129.814 247.055 132.476V142.159C247.055 144.822 244.876 147.001 242.213 147.001Z" fill="#2FA9ED"/>
<path opacity="0.52" d="M242.213 127.635H232.53C230.594 127.635 228.899 128.785 228.173 130.419L247.055 133.808V132.476C247.055 129.814 244.876 127.635 242.213 127.635Z" fill="#288FBC"/>
<path d="M242.213 147.001H232.53C229.867 147.001 227.689 144.822 227.689 142.159V132.476C227.689 129.814 229.867 127.635 232.53 127.635H242.213C244.876 127.635 247.055 129.814 247.055 132.476V142.159C247.055 144.822 244.876 147.001 242.213 147.001Z" stroke="#444E59" stroke-width="2.42076" stroke-miterlimit="10" stroke-linecap="round" stroke-linejoin="round"/>
<path d="M215.585 117.952H205.902C203.239 117.952 201.06 115.773 201.06 113.11V103.427C201.06 100.764 203.239 98.5857 205.902 98.5857H215.585C218.248 98.5857 220.426 100.764 220.426 103.427V113.11C220.426 115.773 218.248 117.952 215.585 117.952Z" fill="#E7534E"/>
<path opacity="0.52" d="M215.585 98.5857H205.902C203.965 98.5857 202.271 99.7356 201.544 101.37L220.426 104.759V103.427C220.426 100.764 218.248 98.5857 215.585 98.5857Z" fill="#BF4040"/>
<path d="M215.585 117.952H205.902C203.239 117.952 201.06 115.773 201.06 113.11V103.427C201.06 100.764 203.239 98.5857 205.902 98.5857H215.585C218.248 98.5857 220.426 100.764 220.426 103.427V113.11C220.426 115.773 218.248 117.952 215.585 117.952Z" stroke="#444E59" stroke-width="2.42076" stroke-miterlimit="10" stroke-linecap="round" stroke-linejoin="round"/>
<path d="M235.798 133.082L241.366 136.289C242.153 136.773 242.153 137.923 241.366 138.347L235.798 141.554C235.012 142.038 233.983 141.433 233.983 140.525V134.11C233.983 133.203 235.012 132.597 235.798 133.082Z" fill="white"/>
<path d="M213.285 162.615H208.202C207.112 162.615 206.265 163.523 206.265 164.551V168.304C206.265 169.393 207.173 170.24 208.202 170.24H208.383L207.96 171.935C207.899 172.056 208.081 172.177 208.202 172.056L210.804 170.24H213.406C214.496 170.24 215.343 169.332 215.343 168.304V164.551C215.282 163.462 214.375 162.615 213.285 162.615Z" fill="white"/>
<path d="M180.06 166.367L182.299 168.606C182.602 168.909 183.086 168.909 183.389 168.606L188.412 163.583" stroke="white" stroke-width="2.42076" stroke-miterlimit="10" stroke-linecap="round" stroke-linejoin="round"/>
<path d="M210.743 112.808C213.25 112.808 215.282 110.776 215.282 108.269C215.282 105.762 213.25 103.73 210.743 103.73C208.237 103.73 206.204 105.762 206.204 108.269C206.204 110.776 208.237 112.808 210.743 112.808Z" stroke="white" stroke-width="2.42076" stroke-miterlimit="10" stroke-linecap="round" stroke-linejoin="round"/>
<path d="M174.19 84.6662L174.069 75.5883L168.017 75.6489C167.654 74.499 167.23 73.4702 166.625 72.4414L170.861 68.084L164.386 61.7295L160.149 66.0869C159.121 65.5422 158.031 65.1185 156.881 64.816L156.821 58.764L147.743 58.8851L147.804 64.937C146.654 65.3001 145.625 65.7237 144.596 66.3289L140.239 62.0926L133.884 68.5681L138.242 72.8045C137.697 73.8333 137.273 74.9226 136.971 76.0725L130.919 76.133L131.04 85.2109L137.092 85.1504C137.455 86.3002 137.878 87.3291 138.484 88.3579L134.247 92.7153L140.723 99.0698L144.959 94.7124C145.988 95.2571 147.077 95.6807 148.227 95.9833L148.288 102.035L157.366 101.914L157.305 95.8623C158.455 95.4991 159.484 95.0755 160.513 94.4703L164.87 98.7067L171.224 92.2311L166.867 87.9948C167.412 86.9659 167.835 85.8766 168.138 84.7267L174.19 84.6662ZM152.706 87.4501C148.772 87.5106 145.625 84.3636 145.564 80.4299C145.504 76.4961 148.651 73.3491 152.585 73.2886C156.518 73.2281 159.665 76.3751 159.726 80.3089C159.726 84.2426 156.579 87.3896 152.706 87.4501Z" fill="white"/>
<path d="M174.19 84.6662L174.069 75.5883L168.017 75.6489C167.654 74.499 167.23 73.4702 166.625 72.4414L170.861 68.084L164.386 61.7295L160.149 66.0869C159.121 65.5422 158.031 65.1185 156.881 64.816L156.821 58.764L147.743 58.8851L147.804 64.937C146.654 65.3001 145.625 65.7237 144.596 66.3289L140.239 62.0926L133.884 68.5681L138.242 72.8045C137.697 73.8333 137.273 74.9226 136.971 76.0725L130.919 76.133L131.04 85.2109L137.092 85.1504C137.455 86.3002 137.878 87.3291 138.484 88.3579L134.247 92.7153L140.723 99.0698L144.959 94.7124C145.988 95.2571 147.077 95.6807 148.227 95.9833L148.288 102.035L157.366 101.914L157.305 95.8623C158.455 95.4991 159.484 95.0755 160.513 94.4703L164.87 98.7067L171.224 92.2311L166.867 87.9948C167.412 86.9659 167.835 85.8766 168.138 84.7267L174.19 84.6662ZM152.706 87.4501C148.772 87.5106 145.625 84.3636 145.564 80.4299C145.504 76.4961 148.651 73.3491 152.585 73.2886C156.518 73.2281 159.665 76.3751 159.726 80.3089C159.726 84.2426 156.579 87.3896 152.706 87.4501Z" fill="#F09F54"/>
<path d="M174.19 84.6662L174.069 75.5883L168.017 75.6489C167.654 74.499 167.23 73.4702 166.625 72.4414L170.861 68.084L164.386 61.7295L160.149 66.0869C159.121 65.5422 158.031 65.1185 156.881 64.816L156.821 58.764L147.743 58.8851L147.804 64.937C146.654 65.3001 145.625 65.7237 144.596 66.3289L140.239 62.0926L133.884 68.5681L138.242 72.8045C137.697 73.8333 137.273 74.9226 136.971 76.0725L130.919 76.133L131.04 85.2109L137.092 85.1504C137.455 86.3002 137.878 87.3291 138.484 88.3579L134.247 92.7153L140.723 99.0698L144.959 94.7124C145.988 95.2571 147.077 95.6807 148.227 95.9833L148.288 102.035L157.366 101.914L157.305 95.8623C158.455 95.4991 159.484 95.0755 160.513 94.4703L164.87 98.7067L171.224 92.2311L166.867 87.9948C167.412 86.9659 167.835 85.8766 168.138 84.7267L174.19 84.6662ZM152.706 87.4501C148.772 87.5106 145.625 84.3636 145.564 80.4299C145.504 76.4961 148.651 73.3491 152.585 73.2886C156.518 73.2281 159.665 76.3751 159.726 80.3089C159.726 84.2426 156.579 87.3896 152.706 87.4501Z" fill="#F09F54"/>
<g opacity="0.29">
<path opacity="0.29" d="M171.89 75.6489H174.129V75.5884L171.89 75.6489Z" fill="#F09F54"/>
<path opacity="0.29" d="M164.023 66.1474L166.383 63.7266L164.446 61.79L161.299 64.9975C162.268 65.3001 163.175 65.6633 164.023 66.1474Z" fill="#F09F54"/>
<path opacity="0.29" d="M156.337 73.2887C155.671 73.2887 155.066 73.4097 154.521 73.5308C157.487 74.378 159.665 77.0409 159.665 80.2484C159.726 83.5164 157.487 86.3003 154.521 87.1476C155.126 87.3291 155.853 87.4502 156.518 87.3896C160.452 87.3291 163.539 84.1216 163.539 80.2484C163.539 76.3752 160.271 73.2887 156.337 73.2887Z" fill="#F09F54"/>
<path opacity="0.29" d="M147.319 65.1185L148.53 66.2684C149.559 65.7237 150.587 65.2396 151.737 64.8764L151.677 58.8245L156.881 58.764V58.7035L147.803 58.8245L147.864 64.8764C147.743 64.9975 147.501 65.058 147.319 65.1185Z" fill="#F09F54"/>
<path opacity="0.29" d="M152.04 95.9229C150.89 95.6203 149.801 95.1966 148.772 94.652L147.682 95.8018C147.864 95.8624 148.045 95.9229 148.227 95.9834L148.288 102.035L152.1 101.975L152.04 95.9229Z" fill="#F09F54"/>
<path opacity="0.29" d="M134.852 76.0725L140.904 76.012C141.207 74.8622 141.631 73.7728 142.175 72.744L137.818 68.5077L142.296 63.9687L140.36 62.0321L134.005 68.5077L138.363 72.744C137.818 73.7728 137.394 74.8622 137.092 76.012L131.04 76.0725L131.161 85.1504L134.974 85.0899L134.852 76.0725Z" fill="#F09F54"/>
<path opacity="0.29" d="M164.325 94.4703C163.478 94.9545 162.631 95.3176 161.723 95.6202L164.87 98.7067L166.746 96.7701L164.325 94.4703Z" fill="#F09F54"/>
<path opacity="0.29" d="M138.121 92.5943L142.357 88.2369C141.812 87.2081 141.328 86.1793 140.965 85.0294L137.152 85.0899C137.515 86.1793 137.939 87.2686 138.484 88.2369L134.247 92.5943L140.723 98.9488L142.599 97.0122L138.121 92.5943Z" fill="#F09F54"/>
</g>
<path d="M174.19 84.6662L174.069 75.5883L168.017 75.6489C167.654 74.499 167.23 73.4702 166.625 72.4414L170.861 68.084L164.386 61.7295L160.149 66.0869C159.121 65.5422 158.031 65.1185 156.881 64.816L156.821 58.764L147.743 58.8851L147.804 64.937C146.654 65.3001 145.625 65.7237 144.596 66.3289L140.239 62.0926L133.884 68.5681L138.242 72.8045C137.697 73.8333 137.273 74.9226 136.971 76.0725L130.919 76.133L131.04 85.2109L137.092 85.1504C137.455 86.3002 137.878 87.3291 138.484 88.3579L134.247 92.7153L140.723 99.0698L144.959 94.7124C145.988 95.2571 147.077 95.6807 148.227 95.9833L148.288 102.035L157.366 101.914L157.305 95.8623C158.455 95.4991 159.484 95.0755 160.513 94.4703L164.87 98.7067L171.224 92.2311L166.867 87.9948C167.412 86.9659 167.835 85.8766 168.138 84.7267L174.19 84.6662ZM152.706 87.4501C148.772 87.5106 145.625 84.3636 145.564 80.4299C145.504 76.4961 148.651 73.3491 152.585 73.2886C156.518 73.2281 159.665 76.3751 159.726 80.3089C159.726 84.2426 156.579 87.3896 152.706 87.4501Z" stroke="#444E59" stroke-width="2.42076" stroke-miterlimit="10" stroke-linecap="round" stroke-linejoin="round"/>
<path d="M136.365 215.569H61.5033C59.022 215.569 57.0249 213.572 57.0249 211.091V159.892C57.0249 157.41 59.022 155.413 61.5033 155.413H136.426C138.907 155.413 140.904 157.41 140.904 159.892V211.091C140.844 213.572 138.847 215.569 136.365 215.569Z" fill="#444E59"/>
<path d="M140.844 165.157H57.0249V159.892C57.0249 157.41 59.022 155.413 61.5033 155.413H136.426C138.907 155.413 140.904 157.41 140.904 159.892V165.157H140.844Z" fill="#BCBCBC"/>
<path d="M136.365 215.569H61.5033C59.022 215.569 57.0249 213.572 57.0249 211.091V159.892C57.0249 157.41 59.022 155.413 61.5033 155.413H136.426C138.907 155.413 140.904 157.41 140.904 159.892V211.091C140.844 213.572 138.847 215.569 136.365 215.569Z" stroke="#444E59" stroke-width="2.42076" stroke-miterlimit="10" stroke-linecap="round" stroke-linejoin="round"/>
<path d="M136.365 215.569H61.5033C59.022 215.569 57.0249 213.572 57.0249 211.091V159.892C57.0249 157.41 59.022 155.413 61.5033 155.413H136.426C138.907 155.413 140.904 157.41 140.904 159.892V211.091C140.844 213.572 138.847 215.569 136.365 215.569Z" stroke="#444E59" stroke-width="2.42076" stroke-miterlimit="10" stroke-linecap="round" stroke-linejoin="round"/>
<path d="M140.844 165.157H57.0249V159.892C57.0249 157.41 59.022 155.413 61.5033 155.413H136.426C138.907 155.413 140.904 157.41 140.904 159.892V165.157H140.844Z" stroke="#444E59" stroke-width="2.42076" stroke-miterlimit="10" stroke-linecap="round" stroke-linejoin="round"/>
<path d="M68.584 207.883H78.025" stroke="white" stroke-width="2.42076" stroke-miterlimit="10" stroke-linecap="round" stroke-linejoin="round"/>
<path d="M61.927 207.883H62.5927" stroke="white" stroke-width="2.42076" stroke-miterlimit="10" stroke-linecap="round" stroke-linejoin="round"/>
<path d="M68.584 202.678H92.489" stroke="white" stroke-width="2.42076" stroke-miterlimit="10" stroke-linecap="round" stroke-linejoin="round"/>
<path d="M61.927 202.678H62.5927" stroke="white" stroke-width="2.42076" stroke-miterlimit="10" stroke-linecap="round" stroke-linejoin="round"/>
<path d="M103.867 197.413H110.403" stroke="#64BDFF" stroke-width="2.42076" stroke-miterlimit="10" stroke-linecap="round" stroke-linejoin="round"/>
<path d="M86.074 197.413H98.1778" stroke="white" stroke-width="2.42076" stroke-miterlimit="10" stroke-linecap="round" stroke-linejoin="round"/>
<path d="M68.584 197.413H80.5668" stroke="#FF5F5F" stroke-width="2.42076" stroke-miterlimit="10" stroke-linecap="round" stroke-linejoin="round"/>
<path d="M61.927 197.413H62.5927" stroke="white" stroke-width="2.42076" stroke-miterlimit="10" stroke-linecap="round" stroke-linejoin="round"/>
<path d="M88.7368 192.209H117.907" stroke="white" stroke-width="2.42076" stroke-miterlimit="10" stroke-linecap="round" stroke-linejoin="round"/>
<path d="M68.584 192.209H83.8348" stroke="#64BDFF" stroke-width="2.42076" stroke-miterlimit="10" stroke-linecap="round" stroke-linejoin="round"/>
<path d="M61.927 192.209H62.5927" stroke="white" stroke-width="2.42076" stroke-miterlimit="10" stroke-linecap="round" stroke-linejoin="round"/>
<path d="M88.7368 187.004H99.6303" stroke="#FF5F5F" stroke-width="2.42076" stroke-miterlimit="10" stroke-linecap="round" stroke-linejoin="round"/>
<path d="M68.584 187.004H83.8348" stroke="#FFBE78" stroke-width="2.42076" stroke-miterlimit="10" stroke-linecap="round" stroke-linejoin="round"/>
<path d="M61.927 187.004H62.5927" stroke="white" stroke-width="2.42076" stroke-miterlimit="10" stroke-linecap="round" stroke-linejoin="round"/>
<path d="M90.855 181.799H93.8204" stroke="#64BDFF" stroke-width="2.42076" stroke-miterlimit="10" stroke-linecap="round" stroke-linejoin="round"/>
<path d="M79.3564 181.799H86.0741" stroke="#FF5F5F" stroke-width="2.42076" stroke-miterlimit="10" stroke-linecap="round" stroke-linejoin="round"/>
<path d="M68.584 181.799H74.1517" stroke="#C383F2" stroke-width="2.42076" stroke-miterlimit="10" stroke-linecap="round" stroke-linejoin="round"/>
<path d="M61.927 181.799H62.5927" stroke="white" stroke-width="2.42076" stroke-miterlimit="10" stroke-linecap="round" stroke-linejoin="round"/>
<path d="M112.642 176.534H117.907" stroke="#64BDFF" stroke-width="2.42076" stroke-miterlimit="10" stroke-linecap="round" stroke-linejoin="round"/>
<path d="M85.3479 176.534H105.985" stroke="#FF5F5F" stroke-width="2.42076" stroke-miterlimit="10" stroke-linecap="round" stroke-linejoin="round"/>
<path d="M68.584 176.534H80.8694" stroke="#FFBE78" stroke-width="2.42076" stroke-miterlimit="10" stroke-linecap="round" stroke-linejoin="round"/>
<path d="M61.927 176.534H62.5927" stroke="white" stroke-width="2.42076" stroke-miterlimit="10" stroke-linecap="round" stroke-linejoin="round"/>
<path d="M99.6304 171.33H110.403" stroke="#FFBE78" stroke-width="2.42076" stroke-miterlimit="10" stroke-linecap="round" stroke-linejoin="round"/>
<path d="M86.074 171.33H94.4256" stroke="#6DBF7B" stroke-width="2.42076" stroke-miterlimit="10" stroke-linecap="round" stroke-linejoin="round"/>
<path d="M76.9961 171.33H81.7166" stroke="#FFBE78" stroke-width="2.42076" stroke-miterlimit="10" stroke-linecap="round" stroke-linejoin="round"/>
<path d="M68.584 171.33H72.4572" stroke="#6DBF7B" stroke-width="2.42076" stroke-miterlimit="10" stroke-linecap="round" stroke-linejoin="round"/>
<path d="M61.927 171.33H62.5927" stroke="white" stroke-width="2.42076" stroke-miterlimit="10" stroke-linecap="round" stroke-linejoin="round"/>
<path d="M65.316 161.827C66.1517 161.827 66.8289 161.15 66.8289 160.314C66.8289 159.479 66.1517 158.802 65.316 158.802C64.4802 158.802 63.803 159.479 63.803 160.314C63.803 161.15 64.4802 161.827 65.316 161.827Z" fill="#E7534E"/>
<path d="M70.7627 161.827C71.5985 161.827 72.2757 161.15 72.2757 160.314C72.2757 159.479 71.5985 158.802 70.7627 158.802C69.927 158.802 69.2498 159.479 69.2498 160.314C69.2498 161.15 69.927 161.827 70.7627 161.827Z" fill="#444E59"/>
<path d="M76.2698 161.827C77.1056 161.827 77.7828 161.15 77.7828 160.314C77.7828 159.479 77.1056 158.802 76.2698 158.802C75.4341 158.802 74.7568 159.479 74.7568 160.314C74.7568 161.15 75.4341 161.827 76.2698 161.827Z" fill="#444E59"/>
<path d="M166.201 170.482H111.976C109.313 170.482 107.135 168.304 107.135 165.641V116.681C107.135 114.018 109.313 111.839 111.976 111.839H166.201C168.864 111.839 171.043 114.018 171.043 116.681V165.641C171.043 168.304 168.864 170.482 166.201 170.482Z" fill="white"/>
<path d="M166.201 170.482H111.976C109.313 170.482 107.135 168.304 107.135 165.641V116.681C107.135 114.018 109.313 111.839 111.976 111.839H166.201C168.864 111.839 171.043 114.018 171.043 116.681V165.641C171.043 168.304 168.864 170.482 166.201 170.482Z" fill="white"/>
<path d="M166.201 170.482H111.976C109.313 170.482 107.135 168.304 107.135 165.641V116.681C107.135 114.018 109.313 111.839 111.976 111.839H166.201C168.864 111.839 171.043 114.018 171.043 116.681V165.641C171.043 168.304 168.864 170.482 166.201 170.482Z" stroke="#444E59" stroke-width="2.42076" stroke-miterlimit="10" stroke-linecap="round" stroke-linejoin="round"/>
<path d="M165.173 116.802H112.642V151.721H165.173V116.802Z" fill="#9483C4"/>
<path d="M165.173 116.802H112.642V151.721H165.173V116.802Z" stroke="#444E59" stroke-width="2.42076" stroke-miterlimit="10" stroke-linecap="round" stroke-linejoin="round"/>
<path d="M112.642 157.289H145.807" stroke="#444E59" stroke-width="2.42076" stroke-miterlimit="10" stroke-linecap="round" stroke-linejoin="round"/>
<path d="M112.642 162.858H132.25" stroke="#444E59" stroke-width="2.42076" stroke-miterlimit="10" stroke-linecap="round" stroke-linejoin="round"/>
<path d="M117.907 145.488L129.224 134.292L139.755 144.822" stroke="#444E59" stroke-width="2.42076" stroke-miterlimit="10" stroke-linecap="round" stroke-linejoin="round"/>
<path d="M159.484 145.488L145.807 127.635L134.853 139.86" stroke="#444E59" stroke-width="2.42076" stroke-miterlimit="10" stroke-linecap="round" stroke-linejoin="round"/>
<path d="M159.363 162.796C161 162.796 162.328 161.469 162.328 159.831C162.328 158.193 161 156.865 159.363 156.865C157.725 156.865 156.397 158.193 156.397 159.831C156.397 161.469 157.725 162.796 159.363 162.796Z" stroke="#444E59" stroke-width="2.42076" stroke-miterlimit="10" stroke-linecap="round" stroke-linejoin="round"/>
<path d="M132.553 131.387C134.625 131.387 136.305 129.707 136.305 127.635C136.305 125.563 134.625 123.883 132.553 123.883C130.481 123.883 128.801 125.563 128.801 127.635C128.801 129.707 130.481 131.387 132.553 131.387Z" fill="#F09F54"/>
<path d="M132.553 131.387C134.625 131.387 136.305 129.707 136.305 127.635C136.305 125.563 134.625 123.883 132.553 123.883C130.481 123.883 128.801 125.563 128.801 127.635C128.801 129.707 130.481 131.387 132.553 131.387Z" stroke="#444E59" stroke-width="2.42076" stroke-miterlimit="10" stroke-linecap="round" stroke-linejoin="round"/>
<path d="M106.106 94.592H122.325" stroke="#444E59" stroke-width="2.42076" stroke-miterlimit="10" stroke-linecap="round" stroke-linejoin="round"/>
<path d="M97.4517 94.592H101.749" stroke="#444E59" stroke-width="2.42076" stroke-miterlimit="10" stroke-linecap="round" stroke-linejoin="round"/>
<path d="M114.215 87.087H122.325" stroke="#444E59" stroke-width="2.42076" stroke-miterlimit="10" stroke-linecap="round" stroke-linejoin="round"/>
<path d="M107.679 87.087H110.1" stroke="#444E59" stroke-width="2.42076" stroke-miterlimit="10" stroke-linecap="round" stroke-linejoin="round"/>
<path d="M88.5554 142.038H101.204" stroke="#444E59" stroke-width="2.42076" stroke-miterlimit="10" stroke-linecap="round" stroke-linejoin="round"/>
<path d="M81.8376 142.038H85.1662" stroke="#444E59" stroke-width="2.42076" stroke-miterlimit="10" stroke-linecap="round" stroke-linejoin="round"/>
<path d="M96.0596 134.534H101.204" stroke="#444E59" stroke-width="2.42076" stroke-miterlimit="10" stroke-linecap="round" stroke-linejoin="round"/>
<path d="M89.7656 134.534H91.7022" stroke="#444E59" stroke-width="2.42076" stroke-miterlimit="10" stroke-linecap="round" stroke-linejoin="round"/>
<path d="M290.266 54.2258H302.248" stroke="#444E59" stroke-width="2.42076" stroke-miterlimit="10" stroke-linecap="round" stroke-linejoin="round"/>
<path d="M282.882 54.2258H286.271" stroke="#444E59" stroke-width="2.42076" stroke-miterlimit="10" stroke-linecap="round" stroke-linejoin="round"/>
<path d="M297.104 46.7207H302.248" stroke="#444E59" stroke-width="2.42076" stroke-miterlimit="10" stroke-linecap="round" stroke-linejoin="round"/>
<path d="M290.871 46.7207H292.747" stroke="#444E59" stroke-width="2.42076" stroke-miterlimit="10" stroke-linecap="round" stroke-linejoin="round"/>
<path d="M299.586 96.528H252.26C249.355 96.528 247.055 94.1678 247.055 91.3234V68.3867C247.055 65.4817 249.415 63.182 252.26 63.182H299.586C302.49 63.182 304.79 65.5423 304.79 68.3867V91.2629C304.79 94.1678 302.49 96.528 299.586 96.528Z" fill="#2FA9ED"/>
<path d="M299.586 96.5281H252.26C249.355 96.5281 247.055 94.1678 247.055 91.3234V68.3867C247.055 65.4817 249.415 63.182 252.26 63.182H299.586C302.49 63.182 304.79 65.5423 304.79 68.3867V91.2629C304.79 94.1678 302.49 96.5281 299.586 96.5281Z" stroke="#444E59" stroke-width="1.81557" stroke-miterlimit="10" stroke-linecap="round" stroke-linejoin="round"/>
<path opacity="0.56" d="M275.923 72.1388H296.378" stroke="white" stroke-width="1.81557" stroke-miterlimit="10" stroke-linecap="round" stroke-linejoin="round"/>
<path opacity="0.56" d="M275.923 78.7361H289.479" stroke="white" stroke-width="1.81557" stroke-miterlimit="10" stroke-linecap="round" stroke-linejoin="round"/>
<g opacity="0.56">
<path opacity="0.56" d="M286.211 88.6H277.98C276.891 88.6 275.983 87.6922 275.983 86.6029C275.983 85.5135 276.891 84.6057 277.98 84.6057H286.211C287.3 84.6057 288.208 85.5135 288.208 86.6029C288.208 87.6922 287.36 88.6 286.211 88.6Z" fill="white"/>
<path opacity="0.56" d="M286.211 88.6H277.98C276.891 88.6 275.983 87.6922 275.983 86.6029C275.983 85.5135 276.891 84.6057 277.98 84.6057H286.211C287.3 84.6057 288.208 85.5135 288.208 86.6029C288.208 87.6922 287.36 88.6 286.211 88.6Z" stroke="white" stroke-width="1.81557" stroke-miterlimit="10" stroke-linecap="round" stroke-linejoin="round"/>
</g>
<path d="M267.389 88.9027H256.556C254.983 88.9027 253.772 87.6318 253.772 86.1188V73.4703C253.772 71.8968 255.043 70.6864 256.556 70.6864H267.389C268.963 70.6864 270.173 71.9573 270.173 73.4703V86.1188C270.173 87.6318 268.963 88.9027 267.389 88.9027Z" stroke="white" stroke-width="1.81557" stroke-miterlimit="10" stroke-linecap="round" stroke-linejoin="round"/>
<path d="M262.003 80.6115C263.607 80.6115 264.908 79.3109 264.908 77.7065C264.908 76.1022 263.607 74.8016 262.003 74.8016C260.399 74.8016 259.098 76.1022 259.098 77.7065C259.098 79.3109 260.399 80.6115 262.003 80.6115Z" stroke="white" stroke-width="1.81557" stroke-miterlimit="10" stroke-linecap="round" stroke-linejoin="round"/>
<path d="M256.496 88.6C256.496 85.5741 258.977 83.0928 262.003 83.0928C265.029 83.0928 267.51 85.5741 267.51 88.6" stroke="white" stroke-width="1.81557" stroke-miterlimit="10" stroke-linecap="round" stroke-linejoin="round"/>
</g>
<defs>
<clipPath id="clip0_12387_38528">
<rect x="0.5" width="443" height="260.232" rx="16" fill="white"/>
</clipPath>
</defs>
</svg>
