<svg width="48" height="48" viewBox="0 0 48 48" fill="none" xmlns="http://www.w3.org/2000/svg">
<path d="M25.8296 25.0124V26.6453C25.8296 27.0773 25.0102 27.4292 24.0003 27.4292C22.9899 27.4292 22.171 27.0778 22.171 26.6453V24.5554C22.171 24.2549 22.5713 23.9972 23.1502 23.8652C21.7678 23.2724 20.4387 22.7026 19.4278 22.2692V23.9031C19.4278 24.3346 18.6094 24.6869 17.599 24.6869C16.5886 24.6869 15.7697 24.3351 15.7697 23.9031V22.2711L12.0488 23.8652C12.6277 23.9972 13.028 24.2554 13.028 24.5554V26.6453C13.028 27.0773 12.2091 27.4292 11.2001 27.4292C10.1902 27.4292 9.37134 27.0778 9.37134 26.6453V25.0124L4.80078 26.9717L17.5985 32.4572L30.3987 26.9717C30.3997 26.9717 28.3145 26.0784 25.8296 25.0124Z" fill="#FADF7E" stroke="#335C5F" stroke-width="1.5" stroke-miterlimit="10" stroke-linecap="round" stroke-linejoin="round"/>
<path d="M43.2001 21.4862L30.4004 26.9717V19.656L43.2001 14.171V21.4862Z" fill="#75C6A4" stroke="#335C5F" stroke-width="1.5" stroke-miterlimit="10" stroke-linecap="round" stroke-linejoin="round"/>
<path d="M17.5996 14.171V21.0288C18.6095 21.0288 19.4284 21.3797 19.4284 21.8126V22.2686L23.1508 23.8646C23.4066 23.8065 23.6932 23.772 24.0009 23.772C25.0108 23.772 25.8302 24.1224 25.8302 24.5553V25.0123L30.4002 26.9717V19.656L17.5996 14.171Z" fill="#75C6A4" stroke="#335C5F" stroke-width="1.5" stroke-miterlimit="10" stroke-linecap="round" stroke-linejoin="round"/>
<path d="M38.6299 12.2112V13.8452C38.6299 14.2762 37.8115 14.628 36.8006 14.628C35.7916 14.628 34.9732 14.2767 34.9732 13.8452V11.7552C34.9732 11.4538 35.3716 11.196 35.952 11.065C34.5662 10.4712 33.2409 9.90291 32.2281 9.46899V11.102C32.2281 11.5344 31.4097 11.8858 30.4008 11.8858C29.3904 11.8858 28.5715 11.5349 28.5715 11.102V9.46995L24.8496 11.065C25.4299 11.196 25.8302 11.4543 25.8302 11.7552V13.8452C25.8302 14.2762 25.0108 14.628 24.0009 14.628C22.9905 14.628 22.1716 14.2767 22.1716 13.8452V12.2112L17.6016 14.1711L30.4012 19.656L43.2009 14.1711C43.2009 14.1711 41.1148 13.2773 38.6299 12.2112Z" fill="#75C6A4" stroke="#335C5F" stroke-width="1.5" stroke-miterlimit="10" stroke-linecap="round" stroke-linejoin="round"/>
<path d="M4.80078 34.2864L17.6009 39.7718V32.4571L4.80078 26.9717V34.2864Z" fill="#FADF7E" stroke="#335C5F" stroke-width="1.5" stroke-miterlimit="10" stroke-linecap="round" stroke-linejoin="round"/>
<path d="M19.4276 21.8126C19.4276 22.2437 18.6092 22.5965 17.5988 22.5965C16.5884 22.5965 15.7695 22.2442 15.7695 21.8126C15.7695 21.3802 16.5879 21.0288 17.5988 21.0288C18.6092 21.0293 19.4276 21.3802 19.4276 21.8126Z" fill="#FADF7E" stroke="#335C5F" stroke-width="1.5" stroke-miterlimit="10" stroke-linecap="round" stroke-linejoin="round"/>
<path d="M15.7715 23.903C15.7715 24.3346 16.5899 24.6869 17.6008 24.6869C18.6107 24.6869 19.4296 24.335 19.4296 23.903V21.8131C19.4296 22.2442 18.6112 22.5969 17.6008 22.5969C16.5904 22.5969 15.7715 22.2446 15.7715 21.8131V23.903Z" fill="#FADF7E" stroke="#335C5F" stroke-width="1.5" stroke-miterlimit="10" stroke-linecap="round" stroke-linejoin="round"/>
<path d="M19.4276 27.2976C19.4276 27.7301 18.6092 28.082 17.5988 28.082C16.5884 28.082 15.7695 27.7306 15.7695 27.2976C15.7695 26.8666 16.5879 26.5138 17.5988 26.5138C18.6092 26.5138 19.4276 26.8666 19.4276 27.2976Z" fill="#FADF7E" stroke="#335C5F" stroke-width="1.5" stroke-miterlimit="10" stroke-linecap="round" stroke-linejoin="round"/>
<path d="M15.7715 29.3885C15.7715 29.8205 16.5899 30.1723 17.6008 30.1723C18.6107 30.1723 19.4296 29.821 19.4296 29.3885V27.2976C19.4296 27.7301 18.6112 28.0819 17.6008 28.0819C16.5904 28.0819 15.7715 27.7306 15.7715 27.2976V29.3885Z" fill="#FADF7E" stroke="#335C5F" stroke-width="1.5" stroke-miterlimit="10" stroke-linecap="round" stroke-linejoin="round"/>
<path d="M24.0012 25.3392C25.0114 25.3392 25.8304 24.9882 25.8304 24.5553C25.8304 24.1224 25.0114 23.7715 24.0012 23.7715C22.9909 23.7715 22.1719 24.1224 22.1719 24.5553C22.1719 24.9882 22.9909 25.3392 24.0012 25.3392Z" fill="#FADF7E" stroke="#335C5F" stroke-width="1.5" stroke-miterlimit="10" stroke-linecap="round" stroke-linejoin="round"/>
<path d="M22.1719 26.6457C22.1719 27.0777 22.9903 27.4295 24.0012 27.4295C25.0111 27.4295 25.8304 27.0782 25.8304 26.6457V24.5558C25.8304 24.9878 25.0111 25.3396 24.0012 25.3396C22.9908 25.3396 22.1719 24.9883 22.1719 24.5558V26.6457Z" fill="#FADF7E" stroke="#335C5F" stroke-width="1.5" stroke-miterlimit="10" stroke-linecap="round" stroke-linejoin="round"/>
<path d="M11.2014 25.3392C12.2111 25.3392 13.0297 24.9882 13.0297 24.5553C13.0297 24.1224 12.2111 23.7715 11.2014 23.7715C10.1916 23.7715 9.37305 24.1224 9.37305 24.5553C9.37305 24.9882 10.1916 25.3392 11.2014 25.3392Z" fill="#FADF7E" stroke="#335C5F" stroke-width="1.5" stroke-miterlimit="10" stroke-linecap="round" stroke-linejoin="round"/>
<path d="M9.37305 26.6457C9.37305 27.0777 10.1914 27.4295 11.2004 27.4295C12.2103 27.4295 13.0297 27.0782 13.0297 26.6457V24.5558C13.0297 24.9878 12.2108 25.3396 11.2004 25.3396C10.1914 25.3396 9.37305 24.9883 9.37305 24.5558V26.6457Z" fill="#FADF7E" stroke="#335C5F" stroke-width="1.5" stroke-miterlimit="10" stroke-linecap="round" stroke-linejoin="round"/>
<path d="M17.5996 32.4571V39.7718L43.1994 28.8009V21.4862L17.5996 32.4571Z" fill="#FADF7E" stroke="#335C5F" stroke-width="1.5" stroke-miterlimit="10" stroke-linecap="round" stroke-linejoin="round"/>
<path d="M30.3986 9.79534C31.4084 9.79534 32.227 9.4444 32.227 9.0115C32.227 8.5786 31.4084 8.22766 30.3986 8.22766C29.3889 8.22766 28.5703 8.5786 28.5703 9.0115C28.5703 9.4444 29.3889 9.79534 30.3986 9.79534Z" fill="#75C6A4" stroke="#335C5F" stroke-width="1.5" stroke-miterlimit="10" stroke-linecap="round" stroke-linejoin="round"/>
<path d="M28.5703 11.1019C28.5703 11.5344 29.3887 11.8857 30.3996 11.8857C31.4086 11.8857 32.227 11.5348 32.227 11.1019V9.01196C32.227 9.44396 31.4086 9.7958 30.3996 9.7958C29.3892 9.7958 28.5703 9.44444 28.5703 9.01196V11.1019Z" fill="#75C6A4" stroke="#335C5F" stroke-width="1.5" stroke-miterlimit="10" stroke-linecap="round" stroke-linejoin="round"/>
<path d="M30.3986 15.2808C31.4084 15.2808 32.227 14.9299 32.227 14.497C32.227 14.0641 31.4084 13.7131 30.3986 13.7131C29.3889 13.7131 28.5703 14.0641 28.5703 14.497C28.5703 14.9299 29.3889 15.2808 30.3986 15.2808Z" fill="#75C6A4" stroke="#335C5F" stroke-width="1.5" stroke-miterlimit="10" stroke-linecap="round" stroke-linejoin="round"/>
<path d="M28.5703 16.5874C28.5703 17.0194 29.3887 17.3712 30.3996 17.3712C31.4086 17.3712 32.227 17.0198 32.227 16.5874V14.4974C32.227 14.9304 31.4086 15.2813 30.3996 15.2813C29.3892 15.2813 28.5703 14.9309 28.5703 14.4974V16.5874Z" fill="#75C6A4" stroke="#335C5F" stroke-width="1.5" stroke-miterlimit="10" stroke-linecap="round" stroke-linejoin="round"/>
<path d="M36.801 12.5381C37.8107 12.5381 38.6293 12.1875 38.6293 11.7552C38.6293 11.3228 37.8107 10.9723 36.801 10.9723C35.7912 10.9723 34.9727 11.3228 34.9727 11.7552C34.9727 12.1875 35.7912 12.5381 36.801 12.5381Z" fill="#75C6A4" stroke="#335C5F" stroke-width="1.5" stroke-miterlimit="10" stroke-linecap="round" stroke-linejoin="round"/>
<path d="M34.9727 13.8456C34.9727 14.2767 35.7911 14.6285 36.8 14.6285C37.8104 14.6285 38.6293 14.2772 38.6293 13.8456V11.7552C38.6293 12.1863 37.8109 12.5381 36.8 12.5381C35.7911 12.5381 34.9727 12.1868 34.9727 11.7552V13.8456Z" fill="#75C6A4" stroke="#335C5F" stroke-width="1.5" stroke-miterlimit="10" stroke-linecap="round" stroke-linejoin="round"/>
<path d="M24.0012 12.5381C25.0114 12.5381 25.8304 12.1875 25.8304 11.7552C25.8304 11.3228 25.0114 10.9723 24.0012 10.9723C22.9909 10.9723 22.1719 11.3228 22.1719 11.7552C22.1719 12.1875 22.9909 12.5381 24.0012 12.5381Z" fill="#75C6A4" stroke="#335C5F" stroke-width="1.5" stroke-miterlimit="10" stroke-linecap="round" stroke-linejoin="round"/>
<path d="M22.1719 13.8456C22.1719 14.2767 22.9903 14.6285 24.0012 14.6285C25.0111 14.6285 25.8304 14.2772 25.8304 13.8456V11.7552C25.8304 12.1863 25.0111 12.5381 24.0012 12.5381C22.9908 12.5381 22.1719 12.1868 22.1719 11.7552V13.8456Z" fill="#75C6A4" stroke="#335C5F" stroke-width="1.5" stroke-miterlimit="10" stroke-linecap="round" stroke-linejoin="round"/>
<path d="M41.3984 22.2576V29.5723L43.1994 28.8009V21.4862L41.3984 22.2576Z" fill="#D8C26F"/>
<path d="M41.3984 14.9424V22.2581L43.1994 21.4862V14.171L41.3984 14.9424Z" fill="#65AD90"/>
<path d="M37.4297 12.4872V14.5776C38.1281 14.4677 38.6287 14.1821 38.6287 13.8456V11.7552C38.6287 12.0912 38.1281 12.3773 37.4297 12.4872Z" fill="#65AD90"/>
<path d="M31.0293 15.2808V17.3707C31.7277 17.2608 32.2283 16.9752 32.2283 16.6387V14.5488C32.2283 14.8853 31.7277 15.1704 31.0293 15.2808Z" fill="#65AD90"/>
<path d="M31.0293 9.74396V11.8339C31.7277 11.724 32.2283 11.4384 32.2283 11.1019V9.01196C32.2283 9.34844 31.7277 9.63356 31.0293 9.74396Z" fill="#65AD90"/>
<path d="M24.6309 12.538V14.628C25.3302 14.518 25.8309 14.2324 25.8309 13.896V11.806C25.8309 12.1425 25.3302 12.4281 24.6309 12.538Z" fill="#65AD90"/>
<path d="M24.6309 25.3392V27.4291C25.3302 27.3192 25.8309 27.0336 25.8309 26.6971V24.6072C25.8309 24.9437 25.3302 25.2293 24.6309 25.3392Z" fill="#D8C26F"/>
<path d="M11.8301 25.2878V27.3777C12.529 27.2678 13.0296 26.9822 13.0296 26.6457V24.5558C13.0296 24.8913 12.529 25.1774 11.8301 25.2878Z" fill="#D8C26F"/>
<path d="M18.2285 22.5451V24.635C18.9269 24.5251 19.4276 24.2395 19.4276 23.903V21.8131C19.4276 22.1496 18.9269 22.4347 18.2285 22.5451Z" fill="#D8C26F"/>
<path d="M18.2285 28.0301V30.1205C18.9269 30.0106 19.4276 29.725 19.4276 29.3885V27.2976C19.4276 27.6341 18.9269 27.9202 18.2285 28.0301Z" fill="#D8C26F"/>
<path d="M43.2001 21.4862L30.4004 26.9717V19.656L43.2001 14.171V21.4862Z" stroke="#335C5F" stroke-width="1.5" stroke-miterlimit="10" stroke-linecap="round" stroke-linejoin="round"/>
<path d="M15.7715 23.903C15.7715 24.3346 16.5899 24.6869 17.6008 24.6869C18.6107 24.6869 19.4296 24.335 19.4296 23.903V21.8131C19.4296 22.2442 18.6112 22.597 17.6008 22.597C16.5904 22.597 15.7715 22.2446 15.7715 21.8131V23.903Z" stroke="#335C5F" stroke-width="1.5" stroke-miterlimit="10" stroke-linecap="round" stroke-linejoin="round"/>
<path d="M15.7715 29.3885C15.7715 29.8205 16.5899 30.1723 17.6008 30.1723C18.6107 30.1723 19.4296 29.821 19.4296 29.3885V27.2976C19.4296 27.7301 18.6112 28.0819 17.6008 28.0819C16.5904 28.0819 15.7715 27.7306 15.7715 27.2976V29.3885Z" stroke="#335C5F" stroke-width="1.5" stroke-miterlimit="10" stroke-linecap="round" stroke-linejoin="round"/>
<path d="M22.1719 26.6457C22.1719 27.0777 22.9903 27.4295 24.0012 27.4295C25.0111 27.4295 25.8304 27.0782 25.8304 26.6457V24.5558C25.8304 24.9878 25.0111 25.3396 24.0012 25.3396C22.9908 25.3396 22.1719 24.9883 22.1719 24.5558V26.6457Z" stroke="#335C5F" stroke-width="1.5" stroke-miterlimit="10" stroke-linecap="round" stroke-linejoin="round"/>
<path d="M9.37305 26.6457C9.37305 27.0777 10.1914 27.4295 11.2004 27.4295C12.2103 27.4295 13.0297 27.0782 13.0297 26.6457V24.5558C13.0297 24.9878 12.2108 25.3396 11.2004 25.3396C10.1914 25.3396 9.37305 24.9883 9.37305 24.5558V26.6457Z" stroke="#335C5F" stroke-width="1.5" stroke-miterlimit="10" stroke-linecap="round" stroke-linejoin="round"/>
<path d="M17.5996 32.4571V39.7718L43.1994 28.8009V21.4862L17.5996 32.4571Z" stroke="#335C5F" stroke-width="1.5" stroke-miterlimit="10" stroke-linecap="round" stroke-linejoin="round"/>
<path d="M28.5703 11.1019C28.5703 11.5344 29.3887 11.8857 30.3996 11.8857C31.4086 11.8857 32.227 11.5348 32.227 11.1019V9.01196C32.227 9.44396 31.4086 9.7958 30.3996 9.7958C29.3892 9.7958 28.5703 9.44444 28.5703 9.01196V11.1019Z" stroke="#335C5F" stroke-width="1.5" stroke-miterlimit="10" stroke-linecap="round" stroke-linejoin="round"/>
<path d="M28.5703 16.5874C28.5703 17.0194 29.3887 17.3712 30.3996 17.3712C31.4086 17.3712 32.227 17.0198 32.227 16.5874V14.4974C32.227 14.9304 31.4086 15.2813 30.3996 15.2813C29.3892 15.2813 28.5703 14.9309 28.5703 14.4974V16.5874Z" stroke="#335C5F" stroke-width="1.5" stroke-miterlimit="10" stroke-linecap="round" stroke-linejoin="round"/>
<path d="M34.9727 13.8456C34.9727 14.2767 35.7911 14.6285 36.8 14.6285C37.8104 14.6285 38.6293 14.2772 38.6293 13.8456V11.7552C38.6293 12.1863 37.8109 12.5381 36.8 12.5381C35.7911 12.5381 34.9727 12.1868 34.9727 11.7552V13.8456Z" stroke="#335C5F" stroke-width="1.5" stroke-miterlimit="10" stroke-linecap="round" stroke-linejoin="round"/>
<path d="M22.1719 13.8456C22.1719 14.2767 22.9903 14.6285 24.0012 14.6285C25.0111 14.6285 25.8304 14.2772 25.8304 13.8456V11.7552C25.8304 12.1863 25.0111 12.5381 24.0012 12.5381C22.9908 12.5381 22.1719 12.1868 22.1719 11.7552V13.8456Z" stroke="#335C5F" stroke-width="1.5" stroke-miterlimit="10" stroke-linecap="round" stroke-linejoin="round"/>
</svg>
