<svg width="72" height="72" viewBox="0 0 72 72" fill="none" xmlns="http://www.w3.org/2000/svg">
<g id="reshot-icon-build-planning-Z7DAEGBLUR 1">
<g id="Group">
<g id="Group_2">
<path id="Vector" d="M69.2803 18.9911V66.1877C69.2803 66.9639 68.6503 67.5939 67.8741 67.5939H9.84376C6.78376 67.5939 4.17657 65.6645 3.16688 62.9589C2.8772 62.1855 2.7197 61.3473 2.7197 60.4727C2.7197 60.4698 2.7197 60.4698 2.7197 60.467C2.72251 56.6842 5.72626 53.4864 9.61032 53.3486C13.6547 53.2164 16.9706 56.4592 16.9706 60.467V17.5848H67.8741C68.6503 17.5848 69.2803 18.2148 69.2803 18.9911Z" fill="#F2E1D7"/>
</g>
<g id="Group_3">
<path id="Vector_2" d="M65.6246 64.6416H26.759C26.3706 64.6416 26.0559 64.3269 26.0559 63.9385C26.0559 63.5501 26.3706 63.2354 26.759 63.2354H64.9215V21.2419C64.9215 20.8535 65.2362 20.5388 65.6246 20.5388C66.013 20.5388 66.3278 20.8535 66.3278 21.2419V63.9385C66.3278 64.3269 66.013 64.6416 65.6246 64.6416ZM23.9465 64.6416H22.1715C21.7831 64.6416 21.4684 64.3269 21.4684 63.9385C21.4684 63.5501 21.7831 63.2354 22.1715 63.2354H23.9465C24.3349 63.2354 24.6496 63.5501 24.6496 63.9385C24.6496 64.3269 24.3346 64.6416 23.9465 64.6416Z" fill="white"/>
</g>
<g id="Group_4">
<path id="Vector_3" d="M19.5019 17.5848V60.467C19.5019 61.8648 18.3684 62.9982 16.9706 62.9982C15.5728 62.9982 14.4394 61.8648 14.4394 60.467C14.4394 57.9357 12.3778 55.8742 9.84376 55.8742C7.3097 55.8742 5.25095 57.9357 5.25095 60.467C5.25095 61.7045 4.3622 62.7367 3.18657 62.956C3.18095 62.956 3.17532 62.956 3.16688 62.9589C2.8772 62.1854 2.7197 61.3473 2.7197 60.4726C2.7197 60.4698 2.7197 60.4698 2.7197 60.467V14.1901C2.7197 10.2526 5.90907 7.06323 9.84376 7.06323C13.7784 7.06323 16.9706 10.2526 16.9706 14.1901V17.5848H19.5019Z" fill="#D6C0B3"/>
</g>
<g id="Group_5">
<path id="Vector_4" d="M16.9706 14.1901V60.467C16.9706 56.4592 13.6547 53.2164 9.61032 53.3485C5.72626 53.4864 2.72251 56.6842 2.7197 60.467V14.1901C2.7197 10.2526 5.90907 7.06323 9.84376 7.06323C13.7784 7.06323 16.9706 10.2526 16.9706 14.1901Z" fill="#F2E1D7"/>
</g>
<g id="Group_6">
<path id="Vector_5" d="M13.0871 50.9259C12.1978 50.6228 11.2663 50.4464 10.3191 50.402C9.93094 50.3837 9.63141 50.0546 9.64969 49.6665C9.66769 49.2787 10.006 48.9803 10.3849 48.9974C11.1389 49.0328 11.8842 49.1417 12.6107 49.3217V14.191C12.6107 13.8026 12.9254 13.4879 13.3138 13.4879C13.7022 13.4879 14.0169 13.8026 14.0169 14.191V50.2605C14.0172 50.7465 13.538 51.0801 13.0871 50.9259ZM5.71022 50.4864C5.58507 50.1188 5.78166 49.7191 6.14925 49.5942C6.55988 49.4544 6.98372 49.3369 7.40869 49.2446C7.78557 49.1625 8.16244 49.403 8.24485 49.7829C8.32697 50.1626 8.08622 50.537 7.70653 50.6191C7.33416 50.6998 6.96263 50.803 6.60263 50.9254C6.23616 51.05 5.83538 50.8551 5.71022 50.4864Z" fill="white"/>
</g>
<g id="Group_7">
<g id="Group_8">
<path id="Vector_6" d="M60.8484 42.1769L58.2244 44.8038L43.1241 29.7034L31.1372 41.6931L28.0266 44.8038L25.4025 42.1769L43.1241 24.4553L60.8484 42.1769Z" fill="#FC5D3D"/>
</g>
<g id="Group_9">
<path id="Vector_7" d="M55.114 41.6919V55.7719H31.1369V41.6919L43.1255 29.7034L55.114 41.6919Z" fill="#72C2E9"/>
</g>
<g id="Group_10">
<path id="Vector_8" d="M51.4581 53.1621C51.0696 53.1621 50.7549 52.8474 50.7549 52.459V51.3911C50.7549 51.0027 51.0696 50.688 51.4581 50.688C51.8465 50.688 52.1612 51.0027 52.1612 51.3911V52.459C52.1612 52.8474 51.8465 53.1621 51.4581 53.1621ZM51.4581 49.282C51.0696 49.282 50.7549 48.9673 50.7549 48.5789V43.4978L42.6282 35.3711C42.3534 35.0966 42.3534 34.6514 42.6282 34.3769C42.903 34.1021 43.3479 34.1021 43.6224 34.3769L51.955 42.7092C52.0869 42.8411 52.1609 43.0197 52.1609 43.2064V48.5789C52.1612 48.967 51.8465 49.282 51.4581 49.282Z" fill="#C5E5FE"/>
</g>
<g id="Group_11">
<path id="Vector_9" d="M48.537 55.7719H37.7139V48.1391C37.7139 45.1502 40.1369 42.7275 43.1255 42.7275C46.1143 42.7275 48.537 45.1505 48.537 48.1391V55.7719Z" fill="#EFEFEF"/>
</g>
</g>
<g id="Group_12">
<g id="Group_13">
<path id="Vector_10" d="M27.6424 55.7711C26.5537 55.4114 25.4292 55.097 24.7978 52.3776C24.2165 54.8824 23.2847 55.3312 21.9532 55.7711C24.1251 56.4886 24.4527 57.6769 24.7978 59.1647C25.3929 56.6 26.3773 56.1891 27.6424 55.7711Z" fill="#F0C020"/>
</g>
</g>
<g id="Group_14">
<g id="Group_15">
<path id="Vector_11" d="M56.6244 24.4545C55.5356 24.0948 54.4112 23.7803 53.7798 21.0609C53.1985 23.5657 52.2667 24.0146 50.9352 24.4545C53.1071 25.1719 53.4347 26.3602 53.7798 27.848C54.3746 25.2833 55.359 24.8724 56.6244 24.4545Z" fill="#F0C020"/>
</g>
</g>
<g id="Group_16">
<g id="Group_17">
<path id="Vector_12" d="M63.043 29.8041C61.9543 29.4444 60.8299 29.1299 60.1984 26.4105C59.6171 28.9153 58.6853 29.3642 57.3539 29.8041C59.5257 30.5216 59.8534 31.7098 60.1984 33.1976C60.7936 30.6329 61.7779 30.222 63.043 29.8041Z" fill="#F0C020"/>
</g>
</g>
<g id="Group_18">
<g id="Group_19">
<path id="Vector_13" d="M54.6251 12.843V4.40723L32.7514 4.40723V12.843L54.6251 12.843Z" fill="#72C2E9"/>
</g>
<g id="Group_20">
<path id="Vector_14" d="M32.7518 12.8431L29.2843 11.004L24.7978 8.6246L29.2843 6.24522L32.7518 4.40613V12.8431Z" fill="#EEC120"/>
</g>
<g id="Group_21">
<path id="Vector_15" d="M61.4531 8.62513C61.4531 6.29554 59.5648 4.40723 57.2352 4.40723H54.6249V12.843H57.2352C59.5648 12.843 61.4531 10.9547 61.4531 8.62513Z" fill="#FC5D3D"/>
</g>
<g id="Group_22">
<path id="Vector_16" d="M29.2843 11.0039L24.7978 8.62449L29.2843 6.24512V11.0039Z" fill="#878787"/>
</g>
<g id="Group_23">
<path id="Vector_17" d="M55.0828 36.4135C54.8007 36.7018 54.8173 37.1436 55.0828 37.4091C55.3481 37.6746 55.7905 37.6915 56.0785 37.4091C56.3411 37.1464 56.3639 36.7051 56.0785 36.4135C55.811 36.1491 55.35 36.1491 55.0828 36.4135Z" fill="black"/>
<path id="Vector_18" d="M31.1369 56.4751H55.114C55.5024 56.4751 55.8171 56.1604 55.8171 55.7719V43.3913L57.7266 45.3007C57.9884 45.5629 58.4302 45.5865 58.7222 45.3007L61.3462 42.6739C61.6179 42.4019 61.623 41.9516 61.3431 41.6782L58.0669 38.4045C57.8025 38.1373 57.3384 38.1373 57.0712 38.4045C56.7984 38.6773 56.7984 39.1245 57.0741 39.3973L59.8528 42.176L58.2244 43.8101L43.6219 29.2048C43.3566 28.9424 42.8923 28.939 42.6262 29.2048L28.0266 43.8073L26.3981 42.1789L43.1243 25.4501L53.0946 35.4204C53.3616 35.6848 53.8231 35.6848 54.0872 35.4204C54.3538 35.1594 54.3763 34.7136 54.0872 34.4248L43.6219 23.9569C43.3547 23.6926 42.8906 23.6926 42.6262 23.9569L24.9047 41.6785C24.6324 41.9567 24.6302 42.3934 24.9047 42.6741L27.5287 45.301C27.7928 45.5654 28.2572 45.5682 28.5244 45.301L30.4338 43.3913V55.7719C30.4338 56.1604 30.7485 56.4751 31.1369 56.4751ZM43.8286 43.4906C46.0873 43.836 47.8299 45.7876 47.835 48.1388V55.0688H43.8286V43.4906ZM54.4109 55.0688H49.2412V48.1388C49.2376 44.03 45.2331 41.0654 41.2928 42.3029C40.9309 42.4162 40.7126 42.8055 40.8316 43.186C40.9469 43.5488 41.3463 43.7598 41.7147 43.6444C41.9462 43.573 42.1824 43.5196 42.4223 43.4836V55.0688H38.4159V48.1388C38.4159 47.7816 38.4581 47.4244 38.5369 47.0757C38.6243 46.6988 38.3881 46.3219 38.0109 46.2348C37.6341 46.1476 37.2518 46.3866 37.1672 46.7607C37.0634 47.2107 37.0097 47.6748 37.0097 48.1388V55.0688H31.84V41.9845L43.1243 30.6988L54.4109 41.9854V55.0688Z" fill="black"/>
<path id="Vector_19" d="M38.6381 43.9846C38.3766 44.2687 38.3934 44.7131 38.6775 44.9774C38.8069 45.0984 38.9759 45.1659 39.1528 45.1659C39.3497 45.1659 39.5381 45.0843 39.6703 44.9409C39.9347 44.6568 39.9178 44.2096 39.6338 43.9453C39.3578 43.6921 38.8913 43.7118 38.6381 43.9846Z" fill="black"/>
<path id="Vector_20" d="M25.5099 52.2121C25.3356 51.4597 24.2598 51.4617 24.0857 52.2121C23.5614 54.4697 22.8305 54.7113 21.724 55.0772C21.0578 55.2971 21.0561 56.2449 21.724 56.4657C23.562 57.0729 23.7704 57.971 24.0857 59.3302C24.2609 60.0843 25.335 60.084 25.5102 59.3302C26.0339 57.0726 26.8048 56.8181 27.8719 56.4657C28.5382 56.2455 28.5399 55.2977 27.8719 55.0772C26.8467 54.7391 26.046 54.5209 25.5099 52.2121ZM24.8124 56.9981C24.5537 56.5616 24.194 56.1487 23.6678 55.7879C24.0933 55.496 24.4744 55.0997 24.8006 54.513C25.1305 55.107 25.506 55.5002 25.8941 55.7778C25.4891 56.0621 25.126 56.4438 24.8124 56.9981Z" fill="black"/>
<path id="Vector_21" d="M56.8536 23.76C55.8284 23.4225 55.028 23.204 54.4919 20.8952C54.3175 20.1428 53.2418 20.1448 53.0677 20.8952C52.5434 23.1528 51.8124 23.3944 50.706 23.7603C50.0397 23.9802 50.038 24.928 50.706 25.1488C52.544 25.756 52.7524 26.6541 53.0677 28.0133C53.2429 28.7674 54.317 28.7671 54.4922 28.0133C55.0159 25.7557 55.7868 25.5012 56.8538 25.1488C57.5198 24.9283 57.5215 23.9805 56.8536 23.76ZM53.7944 25.6812C53.5357 25.2447 53.1759 24.8318 52.6497 24.471C53.0753 24.1791 53.4563 23.7828 53.7826 23.1961C54.1125 23.7901 54.488 24.1833 54.8758 24.4609C54.4711 24.7455 54.108 25.1269 53.7944 25.6812Z" fill="black"/>
<path id="Vector_22" d="M57.1247 30.4983C58.9627 31.1055 59.1711 32.0035 59.4863 33.3628C59.6616 34.1168 60.7357 34.1165 60.9109 33.3628C61.4346 31.1052 62.2055 30.8507 63.2725 30.4983C63.9388 30.278 63.9405 29.3302 63.2725 29.1097C62.2474 28.7722 61.4469 28.5537 60.9109 26.2449C60.7365 25.4926 59.6607 25.4945 59.4866 26.2449C58.9624 28.5025 58.2314 28.7441 57.125 29.11C56.4581 29.3299 56.4567 30.2778 57.1247 30.4983ZM60.2013 28.5458C60.5312 29.1398 60.9067 29.533 61.2948 29.8106C60.8901 30.0949 60.5267 30.4766 60.2131 31.0309C59.9543 30.5944 59.5946 30.1816 59.0684 29.8207C59.4939 29.5288 59.875 29.1325 60.2013 28.5458Z" fill="black"/>
<path id="Vector_23" d="M67.8741 16.8806H17.6738V14.189C17.6738 9.90248 14.2059 6.35901 9.84376 6.35901C5.53838 6.35901 2.01657 9.84088 2.01657 14.189V36.3121C2.01657 36.7003 2.33157 37.0153 2.7197 37.0153C3.10782 37.0153 3.42282 36.7003 3.42282 36.3121V14.189C3.42816 10.6537 6.30845 7.7737 9.84376 7.76526C13.3788 7.7737 16.2616 10.6537 16.2675 14.189C16.2675 15.7244 16.2675 54.0264 16.2675 55.9912C14.778 53.8582 12.2932 52.5588 9.58191 52.6443C7.1072 52.738 4.83385 53.9783 3.42282 56.0053V41.9371C3.42282 41.5518 3.10782 41.2368 2.7197 41.2368C2.33157 41.2368 2.01657 41.5518 2.01657 41.9371V60.4659V60.4687V60.4715C2.01657 64.7786 5.50463 68.2959 9.84376 68.2959H44.1563C44.5416 68.2959 44.8594 67.9809 44.8594 67.5928C44.8594 67.2046 44.5416 66.8896 44.1563 66.8896H9.84376C7.17751 66.8896 4.75876 65.2106 3.82501 62.7131C3.55782 61.9987 3.42282 61.2449 3.42282 60.4715V60.4659C3.42563 56.9924 6.15376 54.1743 9.63563 54.0506C13.1715 53.9125 16.2588 56.7992 16.2675 60.4659C16.2675 60.8543 16.58 61.169 16.9706 61.169C17.3557 61.169 17.6738 60.8605 17.6738 60.4659V18.2868H67.8741C68.2594 18.2896 68.5772 18.6046 68.5772 18.9899V66.1865C68.5772 66.5746 68.2594 66.8896 67.8741 66.8896H49.7813C49.3931 66.8896 49.0781 67.2046 49.0781 67.5928C49.0781 67.9809 49.3931 68.2959 49.7813 68.2959H67.8741C69.0356 68.2959 69.9834 67.3509 69.9834 66.1865V18.9899C69.9834 17.8284 69.0356 16.8806 67.8741 16.8806Z" fill="black"/>
<path id="Vector_24" d="M46.9688 66.8896C46.5806 66.8896 46.2656 67.2046 46.2656 67.5928C46.2656 67.9809 46.5806 68.2959 46.9688 68.2959C47.3541 68.2959 47.6691 67.9809 47.6691 67.5928C47.6691 67.2046 47.3541 66.8896 46.9688 66.8896Z" fill="black"/>
<path id="Vector_25" d="M2.7197 39.8278C3.10802 39.8278 3.42282 39.513 3.42282 39.1246C3.42282 38.7363 3.10802 38.4215 2.7197 38.4215C2.33137 38.4215 2.01657 38.7363 2.01657 39.1246C2.01657 39.513 2.33137 39.8278 2.7197 39.8278Z" fill="black"/>
<path id="Vector_26" d="M44.2181 9.3291C44.6064 9.3291 44.9212 9.0143 44.9212 8.62598C44.9212 8.23765 44.6064 7.92285 44.2181 7.92285C43.8298 7.92285 43.515 8.23765 43.515 8.62598C43.515 9.0143 43.8298 9.3291 44.2181 9.3291Z" fill="black"/>
<path id="Vector_27" d="M24.4687 9.24473L32.4225 13.4635C32.5018 13.5057 32.6407 13.545 32.7515 13.545C35.7199 13.545 54.4699 13.545 57.2344 13.545C59.9481 13.545 62.1562 11.3372 62.1562 8.62598C62.1562 5.91191 59.9481 3.7041 57.2344 3.7041C54.4699 3.7041 35.7199 3.7041 32.7515 3.7041C32.6357 3.7041 32.5054 3.74095 32.4225 3.78566L24.4687 8.00441C23.9687 8.26626 23.9726 8.98457 24.4687 9.24473ZM60.75 8.62598C60.7472 10.561 59.1694 12.136 57.2344 12.1388H55.3275V5.11035H57.2344C59.1694 5.11316 60.7472 6.69098 60.75 8.62598ZM53.9212 7.92285H47.0306C46.6425 7.92285 46.3275 8.23785 46.3275 8.62598C46.3275 9.01129 46.6425 9.3291 47.0306 9.3291H53.9212V12.1388H33.4547V9.3291H41.4056C41.7937 9.3291 42.1087 9.01129 42.1087 8.62598C42.1087 8.23785 41.7937 7.92285 41.4056 7.92285H33.4547V5.11035H53.9212V7.92285ZM32.0484 11.6747L29.9869 10.5804V6.66763L32.0484 5.57441V11.6747ZM28.5806 7.41351V9.83395L26.2997 8.62316L28.5806 7.41351Z" fill="black"/>
</g>
</g>
</g>
</g>
</svg>
