<svg width="72" height="72" viewBox="0 0 72 72" fill="none" xmlns="http://www.w3.org/2000/svg">
<g id="reshot-icon-smart-learning-BZ3FNC68W4 1" clip-path="url(#clip0_15800_42416)">
<g id="XMLID_942_">
<g id="XMLID_940_">
<path id="XMLID_903_" d="M72 23.3999H38.52C37.26 23.3999 36 24.4799 36 25.9199V70.7399C36 71.9999 36.9 72.8999 38.16 72.8999H72V23.3999Z" fill="#36D7B7"/>
<path id="XMLID_906_" d="M0 23.3999H33.48C34.74 23.3999 36 24.4799 36 25.9199V70.7399C36 71.9999 35.1 72.8999 33.84 72.8999H0V23.3999Z" fill="#36D7B7"/>
<path id="XMLID_924_" d="M37.98 71.0999H70.56V24.6599H40.5C37.98 24.6599 35.82 26.6399 35.82 29.3399V69.1199C36 70.1999 36.9 71.0999 37.98 71.0999Z" fill="#E6E7E8"/>
<path id="XMLID_923_" d="M34.02 71.0999H1.44V24.6599H31.5C34.02 24.6599 36.18 26.6399 36.18 29.3399V69.1199C36.18 70.1999 35.1 71.0999 34.02 71.0999Z" fill="white"/>
<path id="XMLID_922_" d="M39.96 24.6599C38.16 25.0199 36.54 26.4599 36.18 28.4399V69.6599C36.54 70.5599 37.26 71.0999 38.16 71.0999H39.96V24.6599Z" fill="white"/>
<path id="XMLID_921_" d="M32.22 24.6599C34.02 25.0199 35.64 26.4599 36 28.4399V69.6599C35.64 70.5599 34.92 71.0999 34.02 71.0999H32.22V24.6599Z" fill="#E6E7E8"/>
<path id="XMLID_915_" d="M41.76 30.0598H67.14" stroke="#BCBEC0" stroke-width="1.8" stroke-miterlimit="10"/>
<path id="XMLID_907_" d="M41.76 36.8999H67.14" stroke="#BCBEC0" stroke-width="1.8" stroke-miterlimit="10"/>
<path id="XMLID_914_" d="M41.76 43.74H67.14" stroke="#BCBEC0" stroke-width="1.8" stroke-miterlimit="10"/>
<path id="XMLID_913_" d="M41.76 50.76H67.14" stroke="#BCBEC0" stroke-width="1.8" stroke-miterlimit="10"/>
<path id="XMLID_911_" d="M41.76 57.6001H67.14" stroke="#BCBEC0" stroke-width="1.8" stroke-miterlimit="10"/>
<path id="XMLID_910_" d="M41.76 64.62H67.14" stroke="#BCBEC0" stroke-width="1.8" stroke-miterlimit="10"/>
<path id="XMLID_919_" d="M3.96002 30.0598H29.34" stroke="#BCBEC0" stroke-width="1.8" stroke-miterlimit="10"/>
<path id="XMLID_918_" d="M3.96002 36.8999H29.34" stroke="#BCBEC0" stroke-width="1.8" stroke-miterlimit="10"/>
<path id="XMLID_917_" d="M3.96002 43.74H29.34" stroke="#BCBEC0" stroke-width="1.8" stroke-miterlimit="10"/>
<path id="XMLID_916_" d="M3.96002 50.76H29.34" stroke="#BCBEC0" stroke-width="1.8" stroke-miterlimit="10"/>
<path id="XMLID_909_" d="M3.96002 57.6001H29.34" stroke="#BCBEC0" stroke-width="1.8" stroke-miterlimit="10"/>
<path id="XMLID_908_" d="M3.96002 64.62H29.34" stroke="#BCBEC0" stroke-width="1.8" stroke-miterlimit="10"/>
</g>
<g id="XMLID_941_">
<g id="XMLID_905_">
<path id="XMLID_935_" d="M40.14 47.1599V54.7199C40.14 57.0599 38.34 58.8599 36 58.8599C33.66 58.8599 31.86 57.0599 31.86 54.7199V47.1599H40.14Z" fill="#F1F2F2"/>
<path id="XMLID_934_" d="M40.14 47.1599V54.7199C40.14 57.0599 38.34 58.8599 36 58.8599C33.66 58.8599 31.86 57.0599 31.86 54.7199V47.1599H40.14Z" stroke="#414042" stroke-width="1.8" stroke-miterlimit="10"/>
<path id="XMLID_932_" d="M36.18 38.3401C44.5305 38.3401 51.3 31.5706 51.3 23.2201C51.3 14.8696 44.5305 8.1001 36.18 8.1001C27.8294 8.1001 21.06 14.8696 21.06 23.2201C21.06 31.5706 27.8294 38.3401 36.18 38.3401Z" fill="#F5AB35"/>
<path id="XMLID_931_" d="M43.38 29.1599H28.8V45.7199H43.38V29.1599Z" fill="#F5AB35"/>
<path id="XMLID_930_" d="M43.56 45H28.62V49.14H43.56V45Z" fill="#E6E7E8"/>
<path id="XMLID_929_" d="M43.56 45H28.62V49.14H43.56V45Z" stroke="#414042" stroke-width="1.8" stroke-miterlimit="10"/>
<path id="XMLID_928_" d="M32.22 51.48H36.9" stroke="#414042" stroke-width="1.8" stroke-miterlimit="10"/>
<path id="XMLID_927_" d="M35.9999 54H40.6799" stroke="#414042" stroke-width="1.8" stroke-miterlimit="10"/>
</g>
<path id="XMLID_925_" d="M36 -0.899902V5.4001" stroke="#414042" stroke-width="1.8" stroke-miterlimit="10"/>
<path id="XMLID_920_" d="M44.1 0.540039L42.12 6.30004" stroke="#414042" stroke-width="1.8" stroke-miterlimit="10"/>
<path id="XMLID_926_" d="M51.48 4.67993L47.52 9.35993" stroke="#414042" stroke-width="1.8" stroke-miterlimit="10"/>
<path id="XMLID_933_" d="M56.88 11.1599L51.48 14.2199" stroke="#414042" stroke-width="1.8" stroke-miterlimit="10"/>
<path id="XMLID_936_" d="M59.76 18.8999L53.64 19.9799" stroke="#414042" stroke-width="1.8" stroke-miterlimit="10"/>
<path id="XMLID_937_" d="M59.76 27.3599L53.64 26.2799" stroke="#414042" stroke-width="1.8" stroke-miterlimit="10"/>
<path id="XMLID_938_" d="M56.88 35.1L51.48 32.04" stroke="#414042" stroke-width="1.8" stroke-miterlimit="10"/>
<path id="XMLID_939_" d="M51.48 41.5799L47.52 36.8999" stroke="#414042" stroke-width="1.8" stroke-miterlimit="10"/>
<path id="XMLID_943_" d="M20.52 41.4001L24.48 36.7201" stroke="#414042" stroke-width="1.8" stroke-miterlimit="10"/>
<path id="XMLID_944_" d="M15.12 34.9199L20.52 31.8599" stroke="#414042" stroke-width="1.8" stroke-miterlimit="10"/>
<path id="XMLID_945_" d="M12.42 27.0001L18.54 26.1001" stroke="#414042" stroke-width="1.8" stroke-miterlimit="10"/>
<path id="XMLID_946_" d="M12.6 18.54L18.54 19.8" stroke="#414042" stroke-width="1.8" stroke-miterlimit="10"/>
<path id="XMLID_947_" d="M15.48 10.8L20.88 14.04" stroke="#414042" stroke-width="1.8" stroke-miterlimit="10"/>
<path id="XMLID_948_" d="M21.06 4.5L24.84 9.36" stroke="#414042" stroke-width="1.8" stroke-miterlimit="10"/>
<path id="XMLID_949_" d="M28.44 0.359863L30.24 6.29986" stroke="#414042" stroke-width="1.8" stroke-miterlimit="10"/>
</g>
</g>
</g>
<defs>
<clipPath id="clip0_15800_42416">
<rect width="72" height="72" fill="white"/>
</clipPath>
</defs>
</svg>
