<svg width="96" height="96" viewBox="0 0 96 96" fill="none" xmlns="http://www.w3.org/2000/svg">
<path d="M86.4512 13.5242C75.8333 2.90631 58.6182 2.90631 48.0003 13.5242C37.3824 2.90631 20.1675 2.90631 9.54938 13.5242C-1.06854 24.1421 -1.06854 41.357 9.54938 51.9752L48.0003 90.4261L86.4512 51.9752C97.0691 41.3572 97.0691 24.1423 86.4512 13.5242Z" fill="#2BA5F7"/>
<path d="M38.3682 73.8304C36.8202 74.6192 34.991 75.1481 32.8844 75.3079H32.8823L20.3026 62.7282C20.3026 62.7282 23.8696 59.1589 26.0019 52.9054C26.0317 52.8201 26.0574 52.7348 26.0808 52.6538C26.7183 50.4833 25.6351 49.381 23.7035 48.3724C20.3454 46.6219 14.4243 45.1508 10.5097 38.8332C7.3029 33.6606 9.72295 29.7333 12.8444 27.1342C15.0811 25.2728 17.6951 23.9615 20.4648 23.3026C22.6929 22.7718 25.0233 22.663 27.3346 23.0275C30.5478 23.5349 34.1255 25.004 36.8056 28.5989C43.0593 36.9846 30.5519 42.6711 31.1191 47.7882C31.6884 52.9054 37.0379 53.031 41.2128 56.3168C46.7196 60.6516 45.6365 70.1269 38.3682 73.8304Z" fill="#9AD14B"/>
<path d="M24.7603 50.3812L47.9987 90.4251L9.54961 51.9759C4.24056 46.6668 1.58594 39.7097 1.58594 32.7504C1.58594 25.7912 4.24056 18.8338 9.54942 13.5248C14.7732 8.30105 21.5897 5.64868 28.4361 5.56543C27.1183 6.81905 25.8797 8.4098 24.7603 10.3371C21.5515 15.8657 19.9482 23.113 19.9482 30.3579C19.948 37.6054 21.5515 44.8524 24.7603 50.3812Z" fill="#2197D8"/>
<path d="M55.5484 82.8771L48.0006 90.4249L38.8516 81.2779C38.8516 81.2779 48.8472 77.598 55.5484 82.8771Z" fill="#E6E6E6"/>
<path d="M62.2556 6.01744C67.1959 10.6592 64.3877 21.9467 48.3178 20.0704C28.8428 17.7954 31.5912 5.70825 31.5912 5.70825C37.5825 6.32663 43.4096 8.93418 48.0002 13.5247C52.0386 9.48637 57.0321 6.98325 62.2536 6.01744H62.2556Z" fill="#E6E6E6"/>
<path d="M93.3108 25.0683C95.1339 31.2815 94.6967 38.0189 91.9931 43.9804C91.9931 43.9804 82.8591 42.3856 80.8697 46.5092C78.8782 50.6307 86.4517 51.976 86.4517 51.976L71.4669 66.9585C71.4669 66.9585 59.5461 61.2913 59.5461 53.8992C59.5461 46.5091 74.7568 49.6349 74.7568 42.8119C74.7568 35.989 53.8617 42.8119 56.4203 33.7161C58.9789 24.6183 79.4475 24.6183 79.4475 24.6183C79.4475 24.6183 85.635 24.2772 93.3108 25.0683Z" fill="#9AD14B"/>
<path d="M23.7025 48.3728C20.3444 46.6223 14.4233 45.1512 10.5087 38.8336C7.30192 33.661 9.72198 29.7337 12.8435 27.1345C15.0802 25.2732 17.6941 23.9619 20.4638 23.303C20.1205 25.6143 19.9478 27.9873 19.9478 30.3582C19.9476 36.7589 21.1971 43.1575 23.7025 48.3728Z" fill="#90BC42"/>
<path d="M38.3673 73.8305C36.8194 74.6193 34.9901 75.1483 32.8835 75.308H32.8815L20.3018 62.7283C20.3018 62.7283 23.8688 59.159 26.001 52.9056C26.0308 52.8202 26.0565 52.7349 26.0799 52.6539L38.3673 73.8305Z" fill="#90BC42"/>
<path d="M68.8961 11.6971C69.7793 11.6971 70.4952 10.9812 70.4952 10.098C70.4952 9.21476 69.7793 8.49878 68.8961 8.49878C68.0129 8.49878 67.2969 9.21476 67.2969 10.098C67.2969 10.9812 68.0129 11.6971 68.8961 11.6971Z" fill="white"/>
<path d="M87.5817 12.3934C76.7264 1.53825 59.2884 1.18069 48.0001 11.3216C36.7119 1.18069 19.2737 1.53825 8.41822 12.3934C-2.80607 23.6178 -2.80607 41.8812 8.41822 53.1057L46.8691 91.5566C47.1815 91.8688 47.5908 92.025 48 92.025C48.4091 92.025 48.8186 91.869 49.1308 91.5566L87.5817 53.1057C98.806 41.8812 98.806 23.6178 87.5817 12.3934ZM49.1308 14.6548C52.7073 11.0782 57.0877 8.78436 61.6959 7.77187C62.9904 9.41455 63.2476 11.7302 62.2985 13.773C60.5546 17.5263 55.3981 19.2872 48.5045 18.4822C41.7133 17.6889 37.0734 15.6199 34.7134 12.3326C33.4226 10.5349 33.0994 8.73693 33.0579 7.52943C38.1193 8.3818 42.9716 10.7569 46.8691 14.6544C47.4937 15.2794 48.5062 15.2795 49.1308 14.6548ZM10.6798 14.6548C15.6685 9.66617 22.2214 7.17187 28.7743 7.17187C29.1375 7.17187 29.5003 7.18087 29.8629 7.19624C29.8581 8.88899 30.2209 11.5198 32.063 14.1253C34.956 18.2167 40.3629 20.7515 48.1331 21.6592C49.391 21.8062 50.597 21.8793 51.7483 21.8793C54.6408 21.8793 57.1897 21.4166 59.3557 20.4954C62.0838 19.3352 64.1041 17.4765 65.1984 15.1209C66.4014 12.5314 66.332 9.6388 65.1402 7.25812C72.3693 6.67237 79.8014 9.13705 85.3195 14.6552C87.8511 17.187 89.7391 20.1215 90.9859 23.2545C84.7156 22.77 79.9467 22.9916 79.4033 23.0197C78.8478 23.0223 73.8944 23.0761 68.5664 24.1906C60.7211 25.8315 56.1166 28.8909 54.8812 33.2834C54.3779 35.0728 54.5598 36.59 55.4221 37.7936C57.2362 40.3257 61.3267 40.5436 65.6575 40.7744C67.7943 40.8882 70.0042 41.006 71.5143 41.4399C73.1579 41.9122 73.1579 42.4754 73.1579 42.8122C73.1579 44.6277 71.3352 45.397 66.9751 46.5365C62.953 47.5876 57.9472 48.8958 57.9472 53.8994C57.9472 60.2793 65.207 65.2668 68.813 67.3506L55.3672 80.7966C49.4178 77.0389 41.961 78.679 39.2919 79.4571L36.197 76.3621C41.6107 74.8977 44.6572 70.9786 45.7441 67.4099C47.1706 62.7258 45.7794 57.8781 42.1997 55.06C40.6541 53.8433 38.9816 53.0317 37.5058 52.3158C34.5364 50.8748 32.9743 50.0112 32.7077 47.6114C32.5682 46.3557 34.0918 44.486 35.5655 42.6774C38.5914 38.9637 42.7361 33.8782 38.0857 27.6425C35.5404 24.2298 32.0066 22.1456 27.5826 21.4479C22.0172 20.57 16.2722 22.1953 11.8183 25.9053C7.05341 29.8747 6.10504 34.7651 9.14797 39.6751C12.5537 45.1704 17.3256 47.2659 20.8097 48.7959C24.732 50.5184 24.9776 50.9502 24.4873 52.3889C23.2035 56.1548 21.3534 58.903 20.2084 60.3736L10.6789 50.8441C0.70242 40.8669 0.702421 24.6324 10.6798 14.6548ZM26.4831 48.3483C25.4242 47.3289 23.8823 46.6516 22.0969 45.8675C18.8233 44.4301 14.7499 42.6414 11.8675 37.9904C11.0625 36.6914 8.61303 32.7389 13.8666 28.3627C17.6126 25.2421 22.4291 23.8726 27.0855 24.6069C30.6555 25.17 33.4946 26.8346 35.5228 29.5543C38.4693 33.5056 36.5685 36.3847 33.087 40.6565C31.1096 43.0829 29.2419 45.3749 29.5296 47.9639C30.0036 52.2293 33.108 53.7357 36.1102 55.1926C37.5052 55.8695 38.9478 56.5696 40.2219 57.5725C42.7578 59.5688 43.7248 63.0644 42.6851 66.4776C42.227 67.9821 40.2332 72.8174 33.4766 73.6407L22.4884 62.6525C23.7851 61.0461 25.9939 57.883 27.5151 53.4205C28.2099 51.3835 27.8627 49.6769 26.4831 48.3483ZM48.0001 88.1644L41.9366 82.1009C44.7065 81.5309 49.2532 81.0992 53.0306 83.1338L48.0001 88.1644ZM85.9223 50.2192C84.4701 49.8368 82.6761 49.0764 82.2258 48.1957C82.1596 48.0665 82.0223 47.7978 82.3092 47.2038C83.1571 45.4473 86.7333 45.1535 89.5195 45.3153C88.5398 47.0547 87.3404 48.7027 85.9223 50.2192ZM90.9932 42.2279C88.0928 41.9039 81.437 41.6544 79.429 45.8133C78.6209 47.4875 78.9552 48.8247 79.3782 49.6518C80.1621 51.1848 81.8856 52.1632 83.4066 52.7577L71.1584 65.0058C67.6514 63.112 61.1459 58.6229 61.1459 53.8994C61.1459 51.5362 63.6539 50.7102 67.7842 49.6306C71.6035 48.6325 76.3567 47.3904 76.3567 42.8122C76.3567 41.3028 75.6696 39.3061 72.398 38.3662C70.5382 37.8318 68.144 37.7043 65.8282 37.5807C62.7599 37.4172 58.9415 37.2136 58.0226 35.9309C57.9226 35.7913 57.6183 35.3666 57.9605 34.1493C59.7875 27.6528 74.0915 26.2211 79.4483 26.2177C79.4776 26.2177 79.5068 26.2168 79.5359 26.2153C79.5935 26.2121 85.1078 25.9233 92.0464 26.5531C93.3297 31.7293 92.9783 37.2301 90.9932 42.2279Z" fill="#333333"/>
<path d="M89.2715 39.7065C89.1474 39.7065 89.0214 39.692 88.8954 39.6616C88.037 39.4546 87.5086 38.5908 87.7156 37.7323C88.1058 36.1132 88.3038 34.4366 88.3038 32.7497C88.3038 27.1192 86.1114 21.8259 82.1302 17.8449C79.725 15.4397 76.8859 13.7004 73.692 12.6758C72.8511 12.4061 72.3879 11.5056 72.6577 10.6646C72.9279 9.82352 73.8285 9.36077 74.669 9.63058C78.3002 10.7953 81.6622 12.8539 84.3918 15.5835C88.977 20.1684 91.5024 26.265 91.5024 32.7497C91.5024 34.6888 91.2748 36.6176 90.825 38.4819C90.6483 39.2145 89.9936 39.7065 89.2715 39.7065ZM41.3481 15.4689C41.0423 15.4689 40.7335 15.3816 40.4605 15.1988C37.0111 12.8912 32.9702 11.6715 28.7748 11.6715C27.3775 11.6715 25.9821 11.8078 24.6271 12.0763C23.7608 12.2483 22.9191 11.685 22.7476 10.8188C22.576 9.95252 23.1389 9.11083 24.005 8.93927C25.5644 8.63008 27.1692 8.47314 28.7748 8.47314C33.6055 8.47314 38.2611 9.87958 42.2384 12.5404C42.9724 13.0314 43.1695 14.0246 42.6782 14.7587C42.3702 15.2196 41.8639 15.4689 41.3481 15.4689Z" fill="white"/>
</svg>
