<svg width="1512" height="148" viewBox="0 0 1512 148" fill="none" xmlns="http://www.w3.org/2000/svg">
<g clip-path="url(#clip0_15800_43342)">
<path d="M897.225 20.5735C896.064 19.6865 893.56 21.1007 891.377 22.7985C891.445 17.8396 890.689 10.5575 887.593 10.1976C885.494 9.95403 883.555 13.0843 882.139 16.6362C880.482 12.1317 878.02 7.63454 875.37 8.02354C872.671 8.41982 871.66 13.6587 871.458 18.5522C868.045 15.1529 863.808 11.9645 861.601 13.3678C859.066 14.9748 861.284 21.4024 863.617 26.0923C860.296 24.6526 856.028 23.3802 854.932 24.998C853.382 27.2884 860.002 32.9236 862.563 34.4941C863.067 34.8032 863.586 35.0613 864.102 35.254C867.514 33.2944 878.065 28.2773 892.98 30.9458C893.197 30.735 893.411 30.5059 893.613 30.266C895.266 28.2955 899.172 22.0605 897.225 20.5772V20.5735ZM877.936 28.2882C877.936 28.2882 877.924 28.3028 877.92 28.3064C877.882 28.0228 877.825 27.7356 877.749 27.4484C877.764 27.423 877.783 27.4011 877.802 27.3793C877.848 27.6993 877.894 28.001 877.936 28.2882Z" fill="#19381F"/>
<path d="M879.02 28.3606C879.153 29.1749 879.237 29.8766 879.279 30.4728C879.104 30.5128 878.924 30.5456 878.737 30.5746C878.508 30.6074 878.287 30.6328 878.069 30.6473C877.936 30.0293 877.798 29.2876 877.657 28.426C877.592 28.0334 877.508 27.4735 877.409 26.79C877.374 26.5428 877.332 26.281 877.298 26.0047C876.611 21.2567 875.477 12.6258 875.783 12.5822C876.061 12.5422 877.5 19.897 878.39 24.7686C878.432 24.9977 878.474 25.2231 878.512 25.4448C878.737 26.7064 878.92 27.7462 879.024 28.3642L879.02 28.3606Z" fill="#FFD700"/>
<path d="M885.158 31.091C885.047 31.8691 884.925 32.5453 884.807 33.1197C884.689 33.1124 884.566 33.1015 884.444 33.087C884.188 33.0579 883.94 33.0143 883.7 32.9561C883.765 32.338 883.856 31.6146 883.975 30.7893C884.425 27.67 886.605 14.4401 886.937 14.4838C887.269 14.5274 885.608 27.9717 885.158 31.091Z" fill="#FFD700"/>
<path d="M875.569 34.1122C875.481 34.174 875.393 34.2358 875.298 34.2939C875.126 34.3994 874.958 34.5012 874.782 34.5884C874.26 33.9595 873.576 33.0433 872.755 31.8581C870.931 29.2332 863.403 17.923 863.685 17.7484C863.964 17.5703 872.03 28.717 873.855 31.3455C873.966 31.5055 874.076 31.6654 874.179 31.8181C874.809 32.7524 875.267 33.5196 875.573 34.1158L875.569 34.1122Z" fill="#FFD700"/>
<path d="M1320.13 18.3521C1319.31 17.1705 1316.47 17.7813 1313.84 18.7629C1315.51 14.0657 1317.13 6.91094 1314.3 5.66757C1312.38 4.82412 1309.53 7.2345 1307.04 10.2011C1306.91 5.43126 1306.02 0.428714 1303.37 0.025166C1300.67 -0.385654 1298.02 4.30423 1296.25 8.90323C1294.1 4.67143 1291.1 0.399629 1288.54 1.08675C1285.61 1.87931 1285.66 8.64147 1286.36 13.7858C1283.66 11.4481 1280.01 8.99049 1278.45 10.2084C1276.24 11.9353 1280.72 19.2355 1282.65 21.475C1283.03 21.9186 1283.44 22.3112 1283.87 22.6457C1287.76 21.7768 1299.41 20.0826 1312.74 26.9793C1313.02 26.8411 1313.3 26.6884 1313.57 26.5176C1315.78 25.1252 1321.5 20.3298 1320.13 18.3521ZM1299.28 20.0608C1299.28 20.0608 1299.27 20.0717 1299.26 20.0753C1299.32 19.7954 1299.35 19.5046 1299.38 19.2101C1299.4 19.1919 1299.42 19.1774 1299.45 19.1592C1299.39 19.4755 1299.33 19.7772 1299.28 20.0644V20.0608Z" fill="#FFD700"/>
<path d="M1300.29 20.4459C1300.16 21.2566 1300.01 21.9546 1299.86 22.5327C1299.68 22.5181 1299.5 22.5 1299.31 22.4709C1299.09 22.4382 1298.86 22.3945 1298.65 22.3436C1298.72 21.7147 1298.83 20.9694 1298.98 20.1078C1299.04 19.7151 1299.14 19.1552 1299.27 18.479C1299.31 18.2354 1299.36 17.9737 1299.41 17.6974C1300.28 12.9784 1301.99 4.43481 1302.29 4.47844C1302.57 4.52206 1301.57 11.9423 1300.85 16.8394C1300.81 17.0721 1300.78 17.2975 1300.75 17.5192C1300.56 18.7844 1300.4 19.8278 1300.29 20.4495V20.4459Z" fill="#19381F"/>
<path d="M1305.26 24.8378C1304.9 25.5468 1304.57 26.1539 1304.27 26.6665C1304.16 26.6265 1304.04 26.5793 1303.93 26.532C1303.69 26.4266 1303.47 26.3139 1303.27 26.1903C1303.53 25.6195 1303.85 24.9578 1304.22 24.2053C1305.66 21.3695 1311.99 9.41211 1312.29 9.55026C1312.6 9.68841 1306.69 21.9985 1305.26 24.8378Z" fill="#19381F"/>
<path d="M1295.16 24.9141C1295.06 24.9469 1294.95 24.9796 1294.84 25.0087C1294.65 25.0596 1294.45 25.1068 1294.26 25.1395C1293.96 24.387 1293.61 23.3181 1293.21 21.9475C1292.32 18.9191 1288.79 5.95464 1289.12 5.86738C1289.44 5.78013 1293.52 18.7446 1294.42 21.7766C1294.47 21.9621 1294.52 22.1438 1294.57 22.322C1294.87 23.3945 1295.06 24.2597 1295.16 24.9141Z" fill="#19381F"/>
<path d="M1512 45.5876V147.588H0V40.9826L99.225 43.0901C153.562 48.5876 192.15 43.0901 192.41 35.1776C192.678 27.2651 202.647 26.8376 202.647 26.8376C202.647 26.8376 341.515 40.8401 393.75 44.6801C445.985 48.5201 587.215 45.0851 617.66 43.3376C648.113 41.5901 728.697 29.8376 739.99 26.0876C751.275 22.3376 753.638 26.3351 753.638 26.3351L765.45 41.8901C765.45 41.8901 992.25 19.8401 1003.28 17.3351C1014.3 14.8376 1016.66 17.3351 1016.66 17.3351L1054.17 48.8726H1243.23C1245.38 42.9101 1248.19 33.9701 1248.19 28.0901C1248.19 18.5876 1258.68 19.3376 1258.68 19.3376L1512 45.5876Z" fill="#5F3610"/>
<path d="M1012.63 16.2249C1012.63 16.2249 1021.78 15.7749 1028.58 19.0524C1035.37 22.3299 1028.18 26.0873 1019.72 24.5873C1019.72 24.5873 1021.59 30.5874 1017.65 31.4274C1013.72 32.2674 1007.22 26.8373 1007.22 26.8373C1007.22 26.8373 1007.22 36.0248 1002.1 36.3998C996.983 36.7748 994.321 31.1498 994.321 31.1498C994.321 31.1498 994.416 41.1848 990.187 41.2748C985.958 41.3648 985.462 32.9349 985.462 32.9349C985.462 32.9349 982.8 43.0599 977.98 42.4974C973.161 41.9349 971.775 32.2824 971.775 32.2824C971.775 32.2824 972.956 39.8723 969.901 40.4423C966.845 41.0123 962.813 33.6923 962.813 33.6923C962.813 33.6923 962.325 45.0323 954.741 45.1298C947.158 45.2273 945.386 35.7548 945.386 35.7548C945.386 35.7548 943.512 46.4423 938.692 46.8173C933.873 47.1923 934.361 37.3524 934.361 37.3524C934.361 37.3524 933.085 43.9148 930.518 45.3173C927.951 46.7198 921.462 38.1923 921.462 38.1923C921.462 38.1923 923.627 48.6923 918.012 50.6573C912.397 52.6223 907.68 40.1574 907.68 40.1574C907.68 40.1574 906.405 49.8624 898.923 50.8673C891.442 51.8723 890.749 46.2474 890.749 46.2474C890.749 46.2474 892.324 54.7824 887.111 54.8724C881.898 54.9624 876.283 46.6224 876.283 46.6224C876.283 46.6224 873.92 55.1573 866.242 54.4073C858.564 53.6573 859.548 48.7823 859.548 48.7823C859.548 48.7823 861.029 60.1223 855.123 59.5673C849.216 59.0123 843.704 50.7548 843.704 50.7548C843.704 50.7548 846.161 56.0948 841.341 58.0673C836.522 60.0398 832.191 53.2823 832.191 53.2823C832.191 53.2823 833.466 62.2824 828.946 62.3724C824.426 62.4624 819.795 49.9974 819.795 49.9974C819.795 49.9974 821.859 59.2823 814.976 60.2123C808.093 61.1423 808.581 50.5523 808.581 50.5523C808.581 50.5523 806.124 61.5174 800.612 61.6149C795.099 61.7124 798.344 52.0523 798.344 52.0523C798.344 52.0523 794.997 59.7398 789.878 59.8373C784.759 59.9348 783.484 52.8998 783.484 52.8998C783.484 52.8998 781.42 55.3373 776.302 54.9623C771.183 54.5873 771.876 48.6773 771.876 48.6773C771.876 48.6773 768.033 53.1773 762.82 53.0873C762.82 53.0873 760.158 63.1224 753.37 61.6224C753.37 61.6224 744.219 60.2198 765.481 41.8898C765.481 41.8898 996.676 14.9948 1012.66 16.2323L1012.63 16.2249Z" fill="#7CBC4A"/>
<path d="M1512 91.5176V147.588H0V64.7576C5.53613 65.4476 11.1904 66.1451 16.8997 66.8276C29.4683 68.3276 42.2966 69.7676 54.7155 71.0276C80.4904 73.6376 104.478 75.4526 120.543 75.3401C125.118 75.3101 129.056 75.1226 132.206 74.7551C144.443 73.3151 157.531 71.4101 169.824 69.4451C174.392 68.7176 178.849 67.9826 183.11 67.2626C205.238 63.5201 222.17 60.1526 222.17 60.1526C222.17 60.1526 232.234 61.2026 247.338 62.7926C250.811 63.1601 254.559 63.5576 258.505 63.9701C265.388 64.7051 272.9 65.5076 280.704 66.3401C288.973 67.2251 297.581 68.1551 306.141 69.0851C323.127 70.9301 339.924 72.7976 353.548 74.3726C354.666 74.5001 355.761 74.6276 356.832 74.7551C364.053 75.5951 374.63 76.4276 387.474 77.2076C401.153 78.0401 417.399 78.8276 434.873 79.5251C443.803 79.8851 453.057 80.2226 462.452 80.5376C490.219 81.4526 519.23 82.1501 544.887 82.5176C551.376 82.6076 557.652 82.6751 563.637 82.7276C585.262 82.8926 603.107 82.7651 613.667 82.2476C615.675 82.1501 617.424 82.0376 618.88 81.9101C625.299 81.3476 633.04 80.5076 641.34 79.5176C664.745 76.7126 692.654 72.6926 708.341 70.3676C715.908 69.2501 720.633 68.5301 720.633 68.5301C720.633 68.5301 736.163 74.8076 766.379 79.0976C776.656 80.5601 788.626 81.7901 802.258 82.4651C804.912 82.6001 807.628 82.7051 810.408 82.7951C821.843 83.1551 837.53 82.8401 855.39 82.0976C861.659 81.8351 868.195 81.5201 874.905 81.1676C877.519 81.0326 880.149 80.8901 882.811 80.7326C899.475 79.7951 916.981 78.6326 934.046 77.4026C942.401 76.8026 950.639 76.1801 958.624 75.5651C971.027 74.6126 982.8 73.6526 993.392 72.7751C1002.68 72.0026 1011.06 71.2826 1018.13 70.6601C1032.84 69.3776 1041.92 68.5301 1041.92 68.5301C1041.92 68.5301 1057.6 70.3976 1078.72 72.1076C1093.33 73.2851 1110.55 74.3951 1126.97 74.7551C1133.24 74.8901 1141.04 74.9876 1149.73 75.0476C1160.13 75.1226 1171.82 75.1526 1183.71 75.1451C1185.6 75.1451 1187.49 75.1451 1189.39 75.1451C1209.1 75.1301 1228.89 75.0326 1243.93 74.9501C1247.6 74.9201 1251 74.8976 1254.03 74.8826C1263.81 74.8151 1269.89 74.7626 1269.89 74.7626C1269.89 74.7626 1271.1 74.7476 1273.34 74.7326C1277.79 74.7026 1286.26 74.6651 1297.24 74.7326C1302.64 74.7626 1308.65 74.8226 1315.09 74.9126C1319.37 74.9726 1323.84 75.0551 1328.45 75.1526C1336.74 75.3326 1345.46 75.5801 1354.29 75.9101C1357.42 76.0301 1360.56 76.1576 1363.71 76.3001C1376.84 76.8851 1389.97 77.6951 1402.04 78.7751C1406.45 79.1726 1410.73 79.6076 1414.8 80.0801C1421.45 80.8526 1427.6 81.7376 1433.01 82.7501C1433.37 82.8101 1433.72 82.8776 1434.08 82.9451C1437.42 83.5901 1440.83 84.1976 1444.27 84.7526C1452.36 86.0801 1460.64 87.1826 1468.79 88.0901C1473.21 88.5926 1477.59 89.0276 1481.88 89.4176C1492.69 90.4001 1502.98 91.0676 1512 91.5251V91.5176Z" fill="#945D36"/>
<path d="M1512 45.7226V60.1301C1505.5 59.7476 1503.17 51.8801 1502.75 50.2526C1503.09 51.7076 1504.31 58.1876 1499.53 58.9601C1494.15 59.8376 1491.92 48.9626 1491.92 48.9626C1491.92 48.9626 1491 56.4626 1484.18 57.6326C1477.35 58.8026 1477.09 49.9601 1477.09 49.9601C1477.09 49.9601 1473.28 58.9601 1468.16 57.4601C1463.04 55.9601 1463.31 47.4626 1463.31 47.4626C1463.31 47.4626 1460.42 56.2151 1456.09 54.5876C1452.53 53.2526 1453.84 47.7851 1454.43 45.8726C1453.49 48.5576 1449.67 58.4426 1444.67 56.7101C1439.58 54.9551 1439.9 46.5926 1440.04 44.6276C1439.79 46.7726 1438.35 56.6051 1432.86 56.7101C1426.69 56.8376 1425.24 42.4601 1425.24 42.4601C1425.24 42.4601 1423.15 55.0901 1416.97 55.2101C1410.81 55.3376 1410.67 40.9601 1410.67 40.9601C1410.67 40.9601 1403.98 54.0851 1400.43 51.4601C1396.89 48.8351 1398.99 40.5851 1398.99 40.5851C1398.99 40.5851 1393.22 49.2101 1390.2 48.5876C1387.33 47.9951 1387.31 41.0801 1387.32 40.3976C1387.31 41.1551 1387.09 49.8326 1382.32 49.5851C1378.92 49.4126 1377.72 44.2451 1377.3 40.9751C1377.46 45.1001 1376.93 52.6826 1371.04 53.5901C1363.59 54.7301 1361.2 39.6326 1360.85 37.0826C1360.92 38.1176 1360.68 41.0351 1356.08 42.4601C1350.43 44.2151 1349.52 34.0901 1349.52 34.0901C1349.52 34.0901 1345.84 48.3401 1341.25 46.8401C1336.65 45.3401 1336.39 33.9626 1336.39 33.9626C1336.39 33.9626 1334.16 44.4626 1330.09 45.4601C1326.02 46.4651 1324.97 33.7151 1324.97 33.7151C1324.97 33.7151 1321.17 42.4601 1318.53 40.5851C1316.03 38.7926 1317 33.3476 1317.09 32.8676C1316.87 33.5051 1313.17 43.9376 1309.48 43.3376C1305.67 42.7151 1306.2 34.4651 1306.2 34.4651C1306.2 34.4651 1305.28 38.4626 1302.53 37.3376C1300.01 36.3101 1300.78 32.3576 1300.93 31.6826C1300.67 32.6501 1298.52 40.4201 1293.6 39.6776C1290.56 39.2201 1289.85 35.8451 1289.8 33.1001C1289.23 35.7101 1287.63 38.8751 1283.23 39.5876C1277.21 40.5626 1275.88 33.2351 1275.58 29.9126C1275.62 32.7026 1275.1 38.2751 1270.5 38.8376C1264.33 39.5876 1264.2 29.2151 1264.2 29.2151C1262.1 36.7151 1258.03 36.2126 1258.03 36.2126C1252.38 36.5876 1250.68 28.4651 1250.68 28.4651C1242.42 30.9626 1238.87 30.2126 1243.86 24.2126C1248.84 18.2126 1258.68 19.3376 1258.68 19.3376L1377.2 31.4651L1511.57 45.5426L1512 45.7226Z" fill="#7CBC4A"/>
<path d="M590.815 33.2373C588.926 31.2777 583.856 33.2155 579.298 35.7749C580.917 26.5951 581.696 12.8781 576.065 11.3693C572.244 10.3477 567.709 15.6229 564.01 21.8252C562.292 13.0199 559.074 4 554.043 4C549.011 4 545.465 13.4416 543.617 22.4651C538.308 15.2303 531.406 8.15909 526.886 10.1587C521.702 12.4527 523.889 24.9772 526.802 34.317C521.072 30.7433 513.537 27.2204 511.021 29.9216C507.456 33.7499 518.049 46.009 522.324 49.6191C523.168 50.3317 524.05 50.9461 524.951 51.4478C531.875 48.7393 552.955 42.3044 579.821 51.317C580.291 50.9861 580.753 50.6189 581.203 50.2263C584.864 47.0233 593.976 36.5165 590.815 33.2373ZM552.71 42.2935C552.71 42.2935 552.687 42.3153 552.676 42.3262C552.691 41.7918 552.668 41.2428 552.619 40.6866C552.657 40.6466 552.695 40.6102 552.737 40.5702C552.726 41.1737 552.718 41.7518 552.71 42.2935Z" fill="#FFD700"/>
<path d="M554.703 42.3589C554.703 43.904 554.65 45.2347 554.55 46.3471C554.214 46.3726 553.871 46.3835 553.516 46.3835C553.085 46.3835 552.661 46.369 552.252 46.3326C552.187 45.151 552.157 43.7332 552.157 42.0972C552.157 41.3519 552.168 40.2866 552.184 38.996C552.191 38.527 552.199 38.029 552.21 37.5091C552.363 28.5147 552.852 12.1946 553.428 12.1946C553.959 12.1946 554.417 26.2315 554.608 35.5131C554.615 35.953 554.627 36.382 554.634 36.8001C554.676 39.1996 554.703 41.181 554.703 42.3589Z" fill="#19381F"/>
<path d="M565.273 44.5802C564.83 45.809 564.407 46.8706 564.01 47.7686C563.792 47.7322 563.571 47.685 563.349 47.6341C562.88 47.525 562.433 47.3978 562.009 47.2487C562.315 46.2671 562.7 45.1183 563.17 43.8167C564.941 38.8942 572.958 18.0842 573.561 18.2332C574.164 18.3823 567.045 39.6613 565.273 44.5838V44.5802Z" fill="#19381F"/>
<path d="M546.576 48.223C546.396 48.303 546.209 48.3866 546.019 48.4629C545.671 48.6011 545.324 48.7247 544.976 48.8301C544.194 47.6522 543.205 45.9544 542.033 43.7658C539.437 38.9305 528.867 18.175 529.44 17.9496C530.012 17.7242 541.629 38.3342 544.224 43.1732C544.385 43.4713 544.537 43.7621 544.682 44.0421C545.572 45.7581 546.19 47.1541 546.576 48.2266V48.223Z" fill="#19381F"/>
<path d="M748.976 24.1825C748.976 24.1825 751.629 24.31 756.787 26.935C764.174 30.7 750.393 28.9 750.393 28.9C750.393 28.9 750.094 32.365 747.44 32.65C744.786 32.935 742.022 30.4 742.022 30.4C742.022 30.4 743.006 37.81 740.053 38.56C737.1 39.31 735.722 32.7475 735.722 32.7475C735.722 32.7475 735.525 40.2475 732.871 40.6225C730.217 40.9975 727.847 34.6225 727.847 34.6225C727.847 34.6225 726.469 39.4375 721.846 39.28C717.216 39.1225 717.027 37.9975 717.027 37.9975C717.027 37.9975 718.507 44.185 714.176 44.56C709.845 44.935 709.057 40.81 709.057 40.81C709.057 40.81 706.206 44.3275 702.167 44.5825C698.135 44.8375 695.173 42.025 695.173 42.025C695.173 42.025 697.142 44.17 692.024 44.5975C686.905 45.025 685.629 43.3375 685.629 43.3375C685.629 43.3375 686.511 47.65 682.385 48.2125C678.258 48.775 675.596 42.5875 675.596 42.5875C675.596 42.5875 675.399 50.5525 669.69 50.4625C663.981 50.3725 663.39 48.2125 663.39 48.2125C663.39 48.2125 663.981 54.775 656.996 54.4975C650.01 54.22 652.074 45.685 652.074 45.685C652.074 45.685 649.806 55.36 646.167 54.505C642.529 53.65 637.899 44.7475 637.899 44.7475C637.899 44.7475 641.348 54.625 635.631 54.5575C629.921 54.4975 629.819 46.9975 629.819 46.9975C629.819 46.9975 628.835 55.5325 624.897 55.5325C620.96 55.5325 619.873 49.8175 619.873 49.8175C619.873 49.8175 621.448 54.9775 617.313 55.5325C613.179 56.0875 609.533 51.0325 609.533 51.0325C609.533 51.0325 607.533 61.2175 601.13 60.16C594.736 59.095 594.696 54.835 594.696 54.835C594.696 54.835 590.735 55.4425 587.286 55.1575C583.837 54.8725 581.837 52.0975 581.837 52.0975C581.837 52.0975 578.82 58.5325 572.914 58.345C567.008 58.1575 565.134 48.88 565.134 48.88C565.134 48.88 563.756 55.8175 557.952 55.8175C552.148 55.8175 550.376 50.4775 550.376 50.4775C550.376 50.4775 545.651 60.1975 541.225 60.1675C536.799 60.1375 536.5 51.415 536.5 51.415C536.5 51.415 536.894 53.575 529.318 53.38C521.742 53.185 518.781 49.8175 518.781 49.8175C518.781 49.8175 515.931 58.0675 511.395 57.6025C506.859 57.1375 505.583 52.6375 505.583 52.6375C505.583 52.6375 500.543 62.0125 495.582 61.5475C490.62 61.0825 490.124 54.61 490.124 54.61C490.124 54.61 487.462 62.7025 479.981 61.5625C472.5 60.4225 471.516 52.5475 471.516 52.5475C471.516 52.5475 471.421 60.7075 464.916 59.2975C458.412 57.8875 454.773 50.9575 454.773 50.9575C454.773 50.9575 454.285 58.9225 445.812 57.895C437.338 56.8675 438.63 51.3325 438.63 51.3325C438.63 51.3325 435.968 58.8325 426.423 57.6175C416.879 56.4025 417.068 50.2075 417.068 50.2075C417.068 50.2075 414.902 60.52 407.224 58.7425C399.546 56.965 398.861 48.5275 398.861 48.5275C398.861 48.5275 395.12 60.6175 390.498 59.4025C385.875 58.1875 380.457 48.9025 380.457 48.9025C380.457 48.9025 379.473 57.1525 371.794 56.0275C364.116 54.9025 362.833 46.465 362.833 46.465C362.833 46.465 361.163 55.2775 353.083 54.5275C345.004 53.7775 346.193 45.9925 346.193 45.9925C346.193 45.9925 342.255 51.1525 334.183 48.6175C326.112 46.0825 325.616 43.7425 325.616 43.7425C325.616 43.7425 322.371 53.68 317.544 52.18C312.716 50.68 308.393 42.6175 308.393 42.6175C308.393 42.6175 307.7 49.6525 298.455 48.055C298.455 48.055 292.942 47.305 292.643 40.27C292.643 40.27 293.131 51.985 282.208 48.985C271.286 45.985 276.397 38.485 276.397 38.485C276.397 38.485 271.372 49.645 261.434 47.02C251.496 44.395 254.347 38.485 254.347 38.485C254.347 38.485 250.606 48.0475 243.715 47.2C236.825 46.3525 240.266 38.2 240.266 38.2C240.266 38.2 235.344 47.575 230.328 46.825C225.312 46.075 221.76 34.915 221.76 34.915C221.76 34.915 223.036 45.6025 218.807 45.6025C214.578 45.6025 210.837 36.2275 210.837 36.2275C210.837 36.2275 207.782 47.3875 204.049 47.0125C200.316 46.6375 200.206 33.9775 200.206 33.9775C200.206 33.9775 198.04 43.7275 195.387 43.915C192.733 44.1025 194.796 34.825 194.796 34.825C194.796 34.825 189.874 39.415 183.574 38.2C177.274 36.985 188.228 27.235 202.639 26.86C202.639 26.86 230.43 28.735 249.133 31.075C267.837 33.415 321.883 37.54 335.168 39.235C348.453 40.93 406.137 45.325 434.094 46.075C462.05 46.825 524.065 46.075 544.438 45.5125C564.811 44.95 610.21 43.5325 633.914 41.4775C687.07 36.8875 739.714 23.53 748.952 24.1975L748.976 24.1825Z" fill="#7CBC4A"/>
<path d="M677.313 128.462C672.084 129.07 666.95 129.662 661.894 130.21C649.247 125.14 632.103 116.087 630.788 103.87C628.685 84.3398 607.69 115.277 601.91 122.305C599.012 125.837 593.129 130.247 587.987 133.765C573.213 132.79 558.904 130.562 544.044 127.802C551.226 119.387 560.448 106.787 548.344 109.84C539.54 112.06 531.059 118.307 524.727 124.06C522.183 123.55 519.608 123.04 517.002 122.522C527.042 113.23 540.564 98.3648 544.887 82.5173C551.376 82.6073 557.652 82.6748 563.637 82.7273C561.377 91.9223 561.039 105.212 578.537 103.87C593.098 102.752 605.469 91.8548 613.667 82.2473C615.675 82.1498 617.424 82.0373 618.881 81.9098C625.299 81.3473 633.04 80.5073 641.34 79.5173C644.876 93.7523 654.05 116.852 677.313 128.462Z" fill="#CCBC76"/>
<path d="M434.873 79.525C411.799 89.905 395.805 83.155 387.474 77.2075C374.629 76.4275 364.053 75.595 356.832 74.755C355.761 74.6275 354.666 74.5 353.548 74.3725C343.838 77.65 330.033 81.13 318.544 79.5175C307.818 78.01 305.739 73.225 306.141 69.085C297.58 68.155 288.973 67.225 280.704 66.34C271.939 70.45 260.56 75.0475 253.969 74.8375C246.157 74.59 252.984 68.245 258.505 63.97C254.559 63.5575 250.811 63.16 247.338 62.7925C241.857 71.4175 217.941 87.4075 201.923 97.5025C206.585 97.06 210.57 96.9325 213.79 97.3375C216.972 97.7425 220.122 98.7175 223.335 100.112C245.944 91.6825 277.389 81.1975 286.65 84.2125C297.415 87.7225 261.702 102.295 240.825 110.192C242.967 111.572 245.172 113.005 247.464 114.452C266.332 104.387 298.266 88.315 308.306 89.0875C319.764 89.9725 313.197 120.797 309.873 133.907C313.362 133.585 317.292 133.105 321.583 132.512C319.772 117.625 320.686 85.54 364.612 93.9625C391.545 99.13 403.822 108.782 409.287 117.49C421.635 115.48 433.038 113.845 442.276 113.027C445.725 102.46 450.489 90.925 454.781 91.3375C459.152 91.7575 464.743 103.615 468.846 114.085C471.279 114.43 473.665 114.79 476.028 115.15C470.342 103.645 465.223 88.975 462.451 80.5375L434.873 79.525Z" fill="#CCBC76"/>
<path d="M882.811 80.7325L875.172 119.838H863.1C863.1 119.838 847.878 87.34 835.537 90.5875C823.197 93.835 839.475 119.335 839.475 119.335L831.34 118.84C831.34 118.84 804.565 91.09 792.753 95.0875C780.94 99.085 792.753 120.34 792.753 120.34L786.972 123.835C786.972 123.835 778.837 88.585 751.385 86.59C723.925 84.5875 754.953 127.09 754.953 127.09L744.447 129.085C737.494 100.503 717.594 79.0825 708.34 70.3675C715.908 69.25 720.633 68.53 720.633 68.53C720.633 68.53 736.163 74.8075 766.379 79.0975C770.466 85.09 776.27 91.795 781.987 92.335C787.004 92.815 795.131 87.82 802.258 82.465C804.912 82.6 807.628 82.705 810.408 82.795C821.843 83.155 837.53 82.84 855.39 82.0975C860.17 88.6225 866.171 96.325 868.754 97.585C871.503 98.9275 873.637 89.2075 874.905 81.1675C877.519 81.0325 880.149 80.89 882.811 80.7325Z" fill="#CCBC76"/>
<path d="M934.046 77.4026C940.078 81.1151 946.291 84.9851 948.937 86.8376C954.844 90.9626 954.056 101.905 921.769 122.305H938.7C938.7 122.305 965.617 96.2126 986.611 92.8376C1007.61 89.4626 1023.36 125.088 1023.36 125.088H1034.07C1034.07 125.088 1035.56 110.32 1043.44 106.645C1051.31 102.963 1050.92 107.778 1057.22 103.87C1063.52 99.9626 1070.61 88.3376 1078.87 89.4626C1087.14 90.5876 1089.51 129.085 1089.51 129.085L1102.11 130.713C1102.11 130.713 1099.35 86.4626 1112.34 86.0876C1125.34 85.7126 1126.17 108.07 1130.68 106.645C1135.18 105.213 1130.85 95.0876 1137.54 89.8376C1144.24 84.5876 1173.44 140.838 1173.44 140.838L1184.22 138.963C1184.22 138.963 1177.49 97.6151 1189.39 75.1376C1187.49 75.1376 1185.6 75.1376 1183.71 75.1376C1179.91 85.2851 1174.38 97.4726 1170.32 95.4551C1165.85 93.2351 1155.97 82.2701 1149.73 75.0401C1141.04 74.9801 1133.24 74.8826 1126.97 74.7476C1110.55 74.3876 1093.33 73.2776 1078.72 72.1001C1072.44 76.0676 1064.88 81.2126 1060.76 85.3301C1052.89 93.2051 1045.41 92.4551 1037.92 91.3301C1033.23 90.6251 1024.2 79.1276 1018.13 70.6526C1011.06 71.2751 1002.68 71.9951 993.392 72.7676C998.826 76.7801 1003.03 81.1001 997.369 81.8951C991.155 82.7726 973.295 79.2701 958.624 75.5576L934.046 77.3951V77.4026Z" fill="#CCBC76"/>
<path d="M1374.58 117.587L1363.16 122.305C1363.16 122.305 1348.2 95.0873 1339.14 97.0223C1330.09 98.9648 1331.27 129.587 1331.27 129.587L1319.65 130.712C1319.65 130.712 1298.59 95.4623 1296.23 103.87C1293.86 112.277 1302.92 132.962 1302.92 132.962L1293.19 137.462C1293.19 137.462 1284.41 87.5873 1274.18 97.0223C1263.94 106.465 1270.63 134.087 1270.63 134.087L1259.61 133.712C1259.61 133.712 1252.52 112.712 1245.04 119.087C1237.56 125.462 1232.61 140.837 1232.61 140.837L1205.15 137.462C1229.88 132.917 1240.69 90.8948 1243.93 74.9423C1247.6 74.9123 1251 74.8898 1254.03 74.8748C1251.79 84.9398 1249.89 99.1973 1257.64 97.0223C1264.77 95.0273 1270.18 83.5223 1273.34 74.7248C1277.79 74.6948 1286.26 74.6573 1297.24 74.7248C1303.97 88.6673 1314.81 109.337 1319.65 108.587C1324.59 107.822 1319.13 87.7523 1315.09 74.9048C1319.37 74.9648 1323.84 75.0473 1328.45 75.1448C1331.77 82.2548 1336.38 89.6573 1341.11 89.4623C1346.99 89.2223 1351.7 81.3848 1354.29 75.9023C1357.42 76.0223 1360.56 76.1498 1363.71 76.2923C1358.62 95.4473 1374.58 117.587 1374.58 117.587Z" fill="#CCBC76"/>
<path d="M161.044 113.088H151.594C151.594 113.088 143.719 92.8376 133.481 89.8376C123.244 86.8376 74.4187 113.088 74.4187 113.088H62.2125C62.2125 113.088 111.037 89.8376 114.581 83.8376C118.125 77.8376 61.425 77.4626 49.2187 83.0876C37.0125 88.7126 27.9562 113.088 27.9562 113.088H20.475C20.475 113.088 38.9812 81.5726 22.8375 79.5176C6.69375 77.4626 4.725 113.088 4.725 113.088L0 113.89V64.7576C5.53612 65.4476 11.1904 66.1451 16.8997 66.8276C20.3962 72.0176 26.1056 76.2626 35.4375 75.9626C44.6985 75.6626 50.7622 73.5101 54.7155 71.0276C80.4904 73.6376 104.478 75.4526 120.543 75.3401C122.307 80.6876 127.858 85.1951 142.537 83.0576C157.067 80.9501 165.241 75.0851 169.824 69.4451C174.392 68.7176 178.849 67.9826 183.109 67.2626C173.297 77.8076 157.153 97.9901 161.044 113.088Z" fill="#CCBC76"/>
<path d="M1512 104.897V112.435C1485.7 116.177 1486.41 136.337 1486.41 136.337H1472.63C1472.63 136.337 1461.6 98.8373 1439.48 99.5873C1417.35 100.337 1430.86 126.962 1430.86 126.962L1418.68 123.962C1420.45 104.807 1408.24 86.6348 1402.04 78.7673C1406.45 79.1648 1410.73 79.5998 1414.8 80.0723C1419.59 86.2073 1425.89 93.0473 1429.95 92.8373C1433.86 92.6348 1433.86 87.4973 1433.01 82.7423C1433.37 82.8023 1433.72 82.8698 1434.08 82.9373C1437.42 83.5823 1440.83 84.1898 1444.27 84.7448C1454.69 101.177 1471.23 114.745 1474.69 114.212C1481.12 113.222 1474.22 98.1923 1468.79 88.0823C1473.21 88.5848 1477.59 89.0198 1481.88 89.4098C1485.27 105.1 1502.34 105.82 1512 104.897Z" fill="#CCBC76"/>
<path d="M1512 138.415V147.588H0V106.533C18.5063 103.338 36.6188 100.45 53.6603 98.05C84.7586 93.67 108.462 104.755 128.363 104.838C159.091 104.965 184.976 99.13 201.923 97.5025C206.585 97.06 210.57 96.9325 213.791 97.3375C216.972 97.7425 220.122 98.7175 223.335 100.113C228.871 102.513 234.565 106.15 240.825 110.193C242.967 111.573 245.172 113.005 247.464 114.453C260.363 122.575 275.861 131.125 296.888 134.148C299.77 134.56 304.235 134.433 309.873 133.908C313.362 133.585 317.292 133.105 321.583 132.513C345.35 129.205 379.984 122.268 409.287 117.49C421.635 115.48 433.038 113.845 442.276 113.028C449.277 112.413 455.033 112.263 459.026 112.765C462.365 113.185 465.633 113.628 468.846 114.085C471.279 114.43 473.665 114.79 476.028 115.15C490.778 117.423 504.26 120.01 517.002 122.523C519.608 123.04 522.183 123.55 524.727 124.06C531.318 125.365 537.729 126.633 544.044 127.803C558.904 130.563 573.213 132.79 587.987 133.765C595.775 134.275 603.69 134.44 611.888 134.148C627.953 133.57 644.451 132.108 661.894 130.21C666.95 129.663 672.084 129.07 677.313 128.463C734.848 121.72 803.455 111.895 899.546 113.838C1034.47 116.568 1079.46 110.725 1165.76 127.338C1252.06 143.958 1361.81 105.1 1410.23 112.338C1453.56 118.803 1452.88 127.78 1512 138.415Z" fill="#5F3610"/>
<path d="M1332.45 126.212C1332.45 126.212 1367.89 116.837 1382.06 117.587C1396.24 118.337 1419.07 114.962 1448.8 126.212C1478.54 137.462 1440.29 131.837 1430.86 129.587C1421.44 127.337 1391.98 122.455 1376.79 125.267C1361.6 128.087 1306.38 137.762 1332.46 126.212H1332.45Z" fill="#945D36"/>
<path d="M1124.32 129.085C1124.32 129.085 1084.39 124.278 1068.64 122.305C1052.89 120.333 996.581 119.65 973.35 119.463C950.119 119.275 957.009 129.52 996.188 129.085C1035.37 128.65 1060.57 128.463 1078.09 131.275C1095.61 134.088 1166.42 138.333 1124.32 129.085Z" fill="#945D36"/>
<path d="M947.756 121.525C947.756 121.525 942.047 120.205 932.991 119.462C923.934 118.72 896.687 118.15 887.276 119.462C877.866 120.775 878.259 127.232 903.459 127.097C928.659 126.962 958.387 126.962 947.756 121.525Z" fill="#945D36"/>
<path d="M793.8 120.212C792.745 120.16 737.691 122.837 725.091 125.65C712.491 128.462 706.781 132.962 731.391 131.087C756 129.212 773.128 128.365 785.137 127.097C797.147 125.83 811.912 121.15 793.8 120.212Z" fill="#945D36"/>
<path d="M490.219 124.15C490.219 124.15 464.034 115.712 446.316 116.275C428.597 116.837 403.562 124.217 392.947 125.867C382.331 127.525 391.978 131.522 415.603 125.867C439.228 120.212 453.403 120.962 462.853 123.4C472.303 125.837 487.069 132.317 491.597 128.792C496.125 125.275 492.778 124.93 490.219 124.15Z" fill="#945D36"/>
<path d="M234.872 111.587C234.872 111.587 219.894 98.4623 205.136 100.525C190.378 102.587 176.794 104.65 176.794 104.65C176.794 104.65 167.344 110.65 185.062 108.775C202.781 106.9 209.869 106.525 216.759 109.712C223.65 112.9 235.069 121.337 236.644 118.525C238.219 115.712 239.376 114.962 234.872 111.587Z" fill="#945D36"/>
<path d="M86.2313 102.775C86.2313 102.775 70.0875 97.4576 55.3219 100.308C40.5563 103.15 14.7656 107.838 14.7656 107.838C14.7656 107.838 2.3625 114.4 24.2156 111.213C46.0688 108.025 52.5656 103.9 64.7719 105.775C76.9781 107.65 86.0738 108.13 87.6094 108.213C93.0274 108.498 97.8469 107.373 86.2313 102.775Z" fill="#945D36"/>
</g>
<defs>
<clipPath id="clip0_15800_43342">
<rect width="1512" height="148" fill="white"/>
</clipPath>
</defs>
</svg>
