<svg width="464" height="32" viewBox="0 0 464 32" fill="none" xmlns="http://www.w3.org/2000/svg">
<g clip-path="url(#clip0_15800_41972)">
<path d="M23.0604 23.2115L23.2871 23.2655C24.6581 23.6001 26.1047 23.4598 27.3894 22.8552C29.0626 22.0672 30.2933 20.5558 30.7359 18.753L31.5348 15.5143L30.0666 16.378C28.3501 17.3927 26.3206 17.7274 24.3666 17.328L25.0036 16.3348C26.3206 14.2944 26.7848 11.8223 26.3098 9.43649L25.3382 4.56774L25.3274 4.60012C24.7229 7.66603 22.5746 10.203 19.6382 11.2825L19.5842 10.7535C19.2388 7.35296 18.0513 4.08194 16.1513 1.24274C14.2405 4.08194 13.0638 7.35296 12.7183 10.7535L12.6644 11.2825C9.73878 10.1922 7.57969 7.66603 6.97515 4.60012L6.96435 4.56774L5.99276 9.43649C5.51776 11.8223 5.99276 14.2944 7.29901 16.3348L7.93594 17.328C5.98197 17.7274 3.95242 17.3927 2.23594 16.378L0.767761 15.5143L1.56663 18.753C2.00924 20.5558 3.23992 22.0672 4.91322 22.8552C6.18708 23.4598 7.63367 23.6001 9.01549 23.2655L9.24219 23.2115C10.8075 22.8229 12.4592 23.2331 13.6575 24.3018L16.1513 26.5041L18.645 24.3018C19.8541 23.2331 21.5058 22.8229 23.0604 23.2115Z" fill="#FE8E46"/>
<path d="M25.0034 19.6596L24.3665 20.6527C26.3204 21.0522 28.35 20.7175 30.0665 19.7027L30.5415 19.4221C30.617 19.2061 30.6926 18.9794 30.7466 18.7527L31.5454 15.5141L30.0773 16.3777C28.8466 17.101 27.454 17.4789 26.0398 17.4897C25.7807 18.2453 25.4352 18.9794 25.0034 19.6596Z" fill="#E56823"/>
<path d="M6.00342 12.7613L6.97501 7.8925L6.98581 7.92489C7.59035 10.9908 9.73865 13.5277 12.675 14.6073L12.729 14.0783C13.0744 10.6777 14.2619 7.40671 16.1619 4.5675C18.0727 7.40671 19.2494 10.6777 19.5949 14.0783L19.6489 14.6073C22.5744 13.5169 24.7335 10.9908 25.3381 7.92489L25.3489 7.8925L26.3205 12.7613C26.3313 12.8152 26.3421 12.88 26.3529 12.934C26.558 11.7897 26.558 10.6022 26.3205 9.44705L25.3489 4.5783L25.3381 4.61068C24.7335 7.67659 22.5852 10.2135 19.6489 11.2931L19.5949 10.7641C19.2494 7.36352 18.0619 4.0925 16.1619 1.2533C14.2511 4.0925 13.0744 7.36352 12.729 10.7641L12.675 11.2931C9.74944 10.2027 7.59035 7.67659 6.98581 4.61068L6.97501 4.5783L6.00342 9.44705C5.77671 10.613 5.76592 11.7897 5.97103 12.934C5.99263 12.8692 5.99262 12.8152 6.00342 12.7613Z" fill="#E56823"/>
<path d="M1.78237 19.4221L2.25737 19.7027C3.97384 20.7175 6.00339 21.0522 7.95737 20.6527L7.32044 19.6596C6.88862 18.9794 6.54316 18.2562 6.29487 17.5005C4.88066 17.4897 3.48805 17.1118 2.25737 16.3885L0.789185 15.5249L1.58805 18.7635C1.63123 18.9794 1.696 19.1954 1.78237 19.4221Z" fill="#E56823"/>
<path d="M16 27.4216C15.8165 27.4216 15.6437 27.3569 15.5034 27.2273L13.0096 25.0251C11.9949 24.129 10.5915 23.7836 9.27442 24.1074L9.04771 24.1614C7.51476 24.5393 5.87385 24.3773 4.44885 23.6972C2.55964 22.8012 1.18862 21.1279 0.681235 19.0876L-0.117628 15.8489C-0.193197 15.5574 -0.074446 15.2444 0.163054 15.0609C0.41135 14.8773 0.735213 14.8665 0.994304 15.0177L2.46249 15.8813C3.69317 16.6046 5.08578 16.9501 6.49999 16.8853C5.08578 14.6722 4.58919 12.0273 5.09658 9.44722L6.06817 4.57847C6.14374 4.22222 6.44601 3.97393 6.81305 3.97393C7.1693 3.97393 7.48237 4.23302 7.55794 4.57847L7.56874 4.61086C8.05453 7.07222 9.66305 9.18813 11.8761 10.3324C12.2971 6.99665 13.5062 3.76881 15.3846 0.983585C15.525 0.778471 15.7625 0.648926 16.0108 0.648926C16.2591 0.648926 16.4966 0.778471 16.6369 0.983585C18.5153 3.77961 19.7136 6.99665 20.1454 10.3324C22.3477 9.18813 23.967 7.07222 24.4528 4.61086L24.4636 4.57847C24.5284 4.22222 24.8415 3.97393 25.2085 3.96313C25.5648 3.96313 25.8778 4.22222 25.9534 4.56768L26.925 9.43642C27.4432 12.0165 26.9358 14.6614 25.5216 16.8745C26.925 16.9393 28.3284 16.5938 29.5591 15.8705L31.0273 15.0069C31.2864 14.8557 31.621 14.8665 31.8585 15.0501C32.1068 15.2336 32.2148 15.5467 32.1392 15.8381L31.3403 19.0768C30.8437 21.1063 29.4727 22.7904 27.5727 23.6864C26.1369 24.3665 24.5068 24.5285 22.9739 24.1506L22.7471 24.0967C21.4301 23.7728 20.0267 24.1182 19.0119 25.0143L16.4966 27.2273C16.3562 27.3569 16.1835 27.4216 16 27.4216ZM10.2676 22.4773C11.6278 22.4773 12.9665 22.9739 14.0136 23.9023L16 25.662L17.9863 23.9023C19.379 22.6717 21.279 22.2074 23.0818 22.6501L23.3085 22.704C24.5068 22.9955 25.7807 22.866 26.9034 22.3478C28.3824 21.6461 29.4511 20.3398 29.8398 18.7529L30.2068 17.2631C28.3392 18.3427 26.1585 18.6881 24.0426 18.2563C23.7943 18.2023 23.6 18.0404 23.5028 17.8137C23.4057 17.587 23.4273 17.3171 23.5676 17.112L24.2045 16.1188C25.4136 14.2296 25.8454 11.9734 25.4028 9.77108L24.971 7.5904C23.8591 9.68472 22.0131 11.3472 19.746 12.1893C19.5301 12.2756 19.2818 12.2432 19.0875 12.1245C18.8932 12.0057 18.7636 11.7898 18.7312 11.5631L18.6773 11.0342C18.3858 8.15177 17.4574 5.35574 15.9892 2.86199C14.521 5.35574 13.6034 8.15177 13.3011 11.0342L13.2471 11.5631C13.2256 11.8006 13.096 12.0057 12.8909 12.1245C12.6966 12.2432 12.4483 12.2756 12.2324 12.1893C9.97612 11.3472 8.1193 9.68472 7.00737 7.5904L6.57555 9.77108C6.13294 11.9734 6.56476 14.2296 7.77385 16.1188L8.41078 17.112C8.54033 17.3171 8.57271 17.587 8.47555 17.8137C8.3784 18.0404 8.17328 18.2131 7.93578 18.2563C5.81987 18.6881 3.63919 18.3319 1.77158 17.2631L2.13862 18.7529C2.52726 20.3398 3.59601 21.6569 5.07499 22.3478C6.19771 22.8768 7.47158 23.0063 8.66987 22.704L8.89658 22.6501C9.36078 22.5313 9.81419 22.4773 10.2676 22.4773Z" fill="#463218"/>
<path d="M16 31.3296C15.579 31.3296 15.2443 30.995 15.2443 30.5739V12.2756C15.2443 11.8546 15.579 11.52 16 11.52C16.421 11.52 16.7557 11.8546 16.7557 12.2756V30.5739C16.7557 30.995 16.421 31.3296 16 31.3296Z" fill="#463218"/>
<path d="M16 20.3721C15.9137 20.3721 15.8165 20.3613 15.7302 20.3181C12.8478 19.2169 10.2137 15.3522 10.1057 15.1902C9.86822 14.8448 9.96538 14.3698 10.3108 14.1431C10.6563 13.9056 11.1313 14.0027 11.358 14.3482C11.3796 14.3806 13.8409 17.9863 16.2699 18.9147C16.6586 19.0658 16.8529 19.4976 16.7017 19.8863C16.5938 20.1885 16.3023 20.3721 16 20.3721Z" fill="#463218"/>
<path d="M16.0001 16.8425C15.633 16.8425 15.3091 16.5726 15.2551 16.1947C15.2011 15.7844 15.4819 15.3957 15.8922 15.3417C15.9138 15.3417 17.7817 15.0609 18.9478 14.1756C19.2825 13.9272 19.7576 13.992 20.006 14.3159C20.2543 14.6506 20.1895 15.1257 19.8656 15.3741C18.3863 16.497 16.2053 16.8209 16.1081 16.8317C16.0649 16.8317 16.0325 16.8425 16.0001 16.8425Z" fill="#463218"/>
<path d="M22.7149 15.7845L22.0131 14.9639C22.337 14.6831 22.6501 14.1325 22.9092 13.3766L23.935 13.7222C23.6003 14.6831 23.19 15.3742 22.7149 15.7845Z" fill="white"/>
<path d="M24.2911 12.3946L23.233 12.1678C23.3733 11.4984 23.4381 10.9909 23.4381 10.9801L24.5071 11.0989C24.5071 11.1205 24.4531 11.6603 24.2911 12.3946Z" fill="white"/>
<path d="M13.366 29.4409C13.1393 29.4409 12.9126 29.3437 12.7614 29.1494C12.5131 28.8147 12.567 28.3396 12.9018 28.0912L15.5363 26.0721C15.871 25.8238 16.3461 25.8778 16.5945 26.2125C16.8428 26.5472 16.7888 27.0223 16.4541 27.2706L13.8303 29.2789C13.69 29.3869 13.528 29.4409 13.366 29.4409Z" fill="#463218"/>
<path d="M18.6347 29.4409C18.4727 29.4409 18.3107 29.3869 18.1812 29.2898L15.5466 27.2707C15.2119 27.0115 15.1471 26.5472 15.4063 26.2125C15.6546 25.8778 16.1297 25.813 16.4644 26.0721L19.0989 28.0913C19.4337 28.3504 19.4985 28.8147 19.2393 29.1494C19.0882 29.3329 18.8614 29.4409 18.6347 29.4409Z" fill="#463218"/>
</g>
<g clip-path="url(#clip1_15800_41972)">
<path d="M71.0604 23.2115L71.2871 23.2655C72.6581 23.6001 74.1047 23.4598 75.3894 22.8552C77.0626 22.0672 78.2933 20.5558 78.7359 18.753L79.5348 15.5143L78.0666 16.378C76.3501 17.3927 74.3206 17.7274 72.3666 17.328L73.0036 16.3348C74.3206 14.2944 74.7848 11.8223 74.3098 9.43649L73.3382 4.56774L73.3274 4.60012C72.7229 7.66603 70.5746 10.203 67.6382 11.2825L67.5842 10.7535C67.2388 7.35296 66.0513 4.08194 64.1513 1.24274C62.2405 4.08194 61.0638 7.35296 60.7183 10.7535L60.6644 11.2825C57.7388 10.1922 55.5797 7.66603 54.9751 4.60012L54.9644 4.56774L53.9928 9.43649C53.5178 11.8223 53.9928 14.2944 55.299 16.3348L55.9359 17.328C53.982 17.7274 51.9524 17.3927 50.2359 16.378L48.7678 15.5143L49.5666 18.753C50.0092 20.5558 51.2399 22.0672 52.9132 22.8552C54.1871 23.4598 55.6337 23.6001 57.0155 23.2655L57.2422 23.2115C58.8075 22.8229 60.4592 23.2331 61.6575 24.3018L64.1513 26.5041L66.645 24.3018C67.8541 23.2331 69.5058 22.8229 71.0604 23.2115Z" fill="#FE8E46"/>
<path d="M73.0034 19.6596L72.3665 20.6527C74.3205 21.0522 76.35 20.7175 78.0665 19.7027L78.5415 19.4221C78.6171 19.2061 78.6927 18.9794 78.7466 18.7527L79.5455 15.5141L78.0773 16.3777C76.8466 17.101 75.454 17.4789 74.0398 17.4897C73.7807 18.2453 73.4353 18.9794 73.0034 19.6596Z" fill="#E56823"/>
<path d="M54.0034 12.7613L54.975 7.8925L54.9858 7.92489C55.5904 10.9908 57.7386 13.5277 60.675 14.6073L60.729 14.0783C61.0744 10.6777 62.2619 7.40671 64.1619 4.5675C66.0727 7.40671 67.2494 10.6777 67.5949 14.0783L67.6489 14.6073C70.5744 13.5169 72.7335 10.9908 73.3381 7.92489L73.3489 7.8925L74.3205 12.7613C74.3313 12.8152 74.3421 12.88 74.3529 12.934C74.558 11.7897 74.558 10.6022 74.3205 9.44705L73.3489 4.5783L73.3381 4.61068C72.7335 7.67659 70.5852 10.2135 67.6489 11.2931L67.5949 10.7641C67.2494 7.36352 66.0619 4.0925 64.1619 1.2533C62.2511 4.0925 61.0744 7.36352 60.729 10.7641L60.675 11.2931C57.7494 10.2027 55.5904 7.67659 54.9858 4.61068L54.975 4.5783L54.0034 9.44705C53.7767 10.613 53.7659 11.7897 53.971 12.934C53.9926 12.8692 53.9926 12.8152 54.0034 12.7613Z" fill="#E56823"/>
<path d="M49.7824 19.4221L50.2574 19.7027C51.9739 20.7175 54.0035 21.0522 55.9574 20.6527L55.3205 19.6596C54.8887 18.9794 54.5432 18.2562 54.2949 17.5005C52.8807 17.4897 51.4881 17.1118 50.2574 16.3885L48.7892 15.5249L49.5881 18.7635C49.6313 18.9794 49.6961 19.1954 49.7824 19.4221Z" fill="#E56823"/>
<path d="M64 27.4216C63.8165 27.4216 63.6437 27.3569 63.5034 27.2273L61.0096 25.0251C59.9949 24.129 58.5915 23.7836 57.2744 24.1074L57.0477 24.1614C55.5148 24.5393 53.8738 24.3773 52.4488 23.6972C50.5596 22.8012 49.1886 21.1279 48.6812 19.0876L47.8824 15.8489C47.8068 15.5574 47.9256 15.2444 48.1631 15.0609C48.4113 14.8773 48.7352 14.8665 48.9943 15.0177L50.4625 15.8813C51.6932 16.6046 53.0858 16.9501 54.5 16.8853C53.0858 14.6722 52.5892 12.0273 53.0966 9.44722L54.0682 4.57847C54.1437 4.22222 54.446 3.97393 54.8131 3.97393C55.1693 3.97393 55.4824 4.23302 55.5579 4.57847L55.5687 4.61086C56.0545 7.07222 57.6631 9.18813 59.8761 10.3324C60.2971 6.99665 61.5062 3.76881 63.3846 0.983585C63.525 0.778471 63.7625 0.648926 64.0108 0.648926C64.2591 0.648926 64.4966 0.778471 64.6369 0.983585C66.5153 3.77961 67.7136 6.99665 68.1454 10.3324C70.3477 9.18813 71.967 7.07222 72.4528 4.61086L72.4636 4.57847C72.5284 4.22222 72.8415 3.97393 73.2085 3.96313C73.5648 3.96313 73.8778 4.22222 73.9534 4.56768L74.925 9.43642C75.4432 12.0165 74.9358 14.6614 73.5216 16.8745C74.925 16.9393 76.3284 16.5938 77.5591 15.8705L79.0273 15.0069C79.2864 14.8557 79.621 14.8665 79.8585 15.0501C80.1068 15.2336 80.2148 15.5467 80.1392 15.8381L79.3403 19.0768C78.8437 21.1063 77.4727 22.7904 75.5727 23.6864C74.1369 24.3665 72.5068 24.5285 70.9739 24.1506L70.7471 24.0967C69.4301 23.7728 68.0267 24.1182 67.0119 25.0143L64.4966 27.2273C64.3562 27.3569 64.1835 27.4216 64 27.4216ZM58.2676 22.4773C59.6278 22.4773 60.9665 22.9739 62.0136 23.9023L64 25.662L65.9863 23.9023C67.379 22.6717 69.279 22.2074 71.0818 22.6501L71.3085 22.704C72.5068 22.9955 73.7807 22.866 74.9034 22.3478C76.3824 21.6461 77.4511 20.3398 77.8398 18.7529L78.2068 17.2631C76.3392 18.3427 74.1585 18.6881 72.0426 18.2563C71.7943 18.2023 71.6 18.0404 71.5028 17.8137C71.4057 17.587 71.4273 17.3171 71.5676 17.112L72.2045 16.1188C73.4136 14.2296 73.8454 11.9734 73.4028 9.77108L72.971 7.5904C71.8591 9.68472 70.0131 11.3472 67.746 12.1893C67.5301 12.2756 67.2818 12.2432 67.0875 12.1245C66.8932 12.0057 66.7636 11.7898 66.7312 11.5631L66.6773 11.0342C66.3858 8.15177 65.4574 5.35574 63.9892 2.86199C62.521 5.35574 61.6034 8.15177 61.3011 11.0342L61.2471 11.5631C61.2256 11.8006 61.096 12.0057 60.8909 12.1245C60.6966 12.2432 60.4483 12.2756 60.2324 12.1893C57.9761 11.3472 56.1193 9.68472 55.0074 7.5904L54.5756 9.77108C54.1329 11.9734 54.5648 14.2296 55.7738 16.1188L56.4108 17.112C56.5403 17.3171 56.5727 17.587 56.4756 17.8137C56.3784 18.0404 56.1733 18.2131 55.9358 18.2563C53.8199 18.6881 51.6392 18.3319 49.7716 17.2631L50.1386 18.7529C50.5273 20.3398 51.596 21.6569 53.075 22.3478C54.1977 22.8768 55.4716 23.0063 56.6699 22.704L56.8966 22.6501C57.3608 22.5313 57.8142 22.4773 58.2676 22.4773Z" fill="#463218"/>
<path d="M64 31.3296C63.579 31.3296 63.2443 30.995 63.2443 30.5739V12.2756C63.2443 11.8546 63.579 11.52 64 11.52C64.421 11.52 64.7557 11.8546 64.7557 12.2756V30.5739C64.7557 30.995 64.421 31.3296 64 31.3296Z" fill="#463218"/>
<path d="M64 20.3721C63.9136 20.3721 63.8165 20.3613 63.7301 20.3181C60.8477 19.2169 58.2136 15.3522 58.1057 15.1902C57.8682 14.8448 57.9653 14.3698 58.3108 14.1431C58.6562 13.9056 59.1312 14.0027 59.3579 14.3482C59.3795 14.3806 61.8409 17.9863 64.2699 18.9147C64.6585 19.0658 64.8528 19.4976 64.7017 19.8863C64.5937 20.1885 64.3023 20.3721 64 20.3721Z" fill="#463218"/>
<path d="M64.0001 16.8425C63.633 16.8425 63.3091 16.5726 63.2551 16.1947C63.2011 15.7844 63.4819 15.3957 63.8922 15.3417C63.9138 15.3417 65.7817 15.0609 66.9478 14.1756C67.2825 13.9272 67.7576 13.992 68.006 14.3159C68.2543 14.6506 68.1895 15.1257 67.8656 15.3741C66.3863 16.497 64.2053 16.8209 64.1081 16.8317C64.0649 16.8317 64.0325 16.8425 64.0001 16.8425Z" fill="#463218"/>
<path d="M70.7149 15.7845L70.0131 14.9639C70.337 14.6831 70.6501 14.1325 70.9092 13.3766L71.935 13.7222C71.6003 14.6831 71.19 15.3742 70.7149 15.7845Z" fill="white"/>
<path d="M72.2911 12.3946L71.233 12.1678C71.3733 11.4984 71.4381 10.9909 71.4381 10.9801L72.5071 11.0989C72.5071 11.1205 72.4531 11.6603 72.2911 12.3946Z" fill="white"/>
<path d="M61.366 29.4409C61.1393 29.4409 60.9126 29.3437 60.7614 29.1494C60.5131 28.8147 60.567 28.3396 60.9018 28.0912L63.5363 26.0721C63.871 25.8238 64.3461 25.8778 64.5945 26.2125C64.8428 26.5472 64.7888 27.0223 64.4541 27.2706L61.8303 29.2789C61.69 29.3869 61.528 29.4409 61.366 29.4409Z" fill="#463218"/>
<path d="M66.6347 29.4409C66.4727 29.4409 66.3107 29.3869 66.1812 29.2898L63.5466 27.2707C63.2119 27.0115 63.1471 26.5472 63.4063 26.2125C63.6546 25.8778 64.1297 25.813 64.4644 26.0721L67.0989 28.0913C67.4337 28.3504 67.4985 28.8147 67.2393 29.1494C67.0882 29.3329 66.8614 29.4409 66.6347 29.4409Z" fill="#463218"/>
</g>
<g clip-path="url(#clip2_15800_41972)">
<path d="M119.06 23.2115L119.287 23.2655C120.658 23.6001 122.105 23.4598 123.389 22.8552C125.063 22.0672 126.293 20.5558 126.736 18.753L127.535 15.5143L126.067 16.378C124.35 17.3927 122.321 17.7274 120.367 17.328L121.004 16.3348C122.321 14.2944 122.785 11.8223 122.31 9.43649L121.338 4.56774L121.327 4.60012C120.723 7.66603 118.575 10.203 115.638 11.2825L115.584 10.7535C115.239 7.35296 114.051 4.08194 112.151 1.24274C110.24 4.08194 109.064 7.35296 108.718 10.7535L108.664 11.2825C105.739 10.1922 103.58 7.66603 102.975 4.60012L102.964 4.56774L101.993 9.43649C101.518 11.8223 101.993 14.2944 103.299 16.3348L103.936 17.328C101.982 17.7274 99.9524 17.3927 98.2359 16.378L96.7678 15.5143L97.5666 18.753C98.0092 20.5558 99.2399 22.0672 100.913 22.8552C102.187 23.4598 103.634 23.6001 105.015 23.2655L105.242 23.2115C106.808 22.8229 108.459 23.2331 109.658 24.3018L112.151 26.5041L114.645 24.3018C115.854 23.2331 117.506 22.8229 119.06 23.2115Z" fill="#FE8E46"/>
<path d="M121.003 19.6596L120.367 20.6527C122.32 21.0522 124.35 20.7175 126.067 19.7027L126.542 19.4221C126.617 19.2061 126.693 18.9794 126.747 18.7527L127.545 15.5141L126.077 16.3777C124.847 17.101 123.454 17.4789 122.04 17.4897C121.781 18.2453 121.435 18.9794 121.003 19.6596Z" fill="#E56823"/>
<path d="M102.003 12.7613L102.975 7.8925L102.986 7.92489C103.59 10.9908 105.739 13.5277 108.675 14.6073L108.729 14.0783C109.074 10.6777 110.262 7.40671 112.162 4.5675C114.073 7.40671 115.249 10.6777 115.595 14.0783L115.649 14.6073C118.574 13.5169 120.734 10.9908 121.338 7.92489L121.349 7.8925L122.32 12.7613C122.331 12.8152 122.342 12.88 122.353 12.934C122.558 11.7897 122.558 10.6022 122.32 9.44705L121.349 4.5783L121.338 4.61068C120.734 7.67659 118.585 10.2135 115.649 11.2931L115.595 10.7641C115.249 7.36352 114.062 4.0925 112.162 1.2533C110.251 4.0925 109.074 7.36352 108.729 10.7641L108.675 11.2931C105.749 10.2027 103.59 7.67659 102.986 4.61068L102.975 4.5783L102.003 9.44705C101.777 10.613 101.766 11.7897 101.971 12.934C101.993 12.8692 101.993 12.8152 102.003 12.7613Z" fill="#E56823"/>
<path d="M97.7824 19.4221L98.2574 19.7027C99.9738 20.7175 102.003 21.0522 103.957 20.6527L103.32 19.6596C102.889 18.9794 102.543 18.2562 102.295 17.5005C100.881 17.4897 99.488 17.1118 98.2574 16.3885L96.7892 15.5249L97.588 18.7635C97.6312 18.9794 97.696 19.1954 97.7824 19.4221Z" fill="#E56823"/>
<path d="M112 27.4216C111.816 27.4216 111.644 27.3569 111.503 27.2273L109.01 25.0251C107.995 24.129 106.591 23.7836 105.274 24.1074L105.048 24.1614C103.515 24.5393 101.874 24.3773 100.449 23.6972C98.5596 22.8012 97.1886 21.1279 96.6812 19.0876L95.8824 15.8489C95.8068 15.5574 95.9256 15.2444 96.1631 15.0609C96.4113 14.8773 96.7352 14.8665 96.9943 15.0177L98.4625 15.8813C99.6932 16.6046 101.086 16.9501 102.5 16.8853C101.086 14.6722 100.589 12.0273 101.097 9.44722L102.068 4.57847C102.144 4.22222 102.446 3.97393 102.813 3.97393C103.169 3.97393 103.482 4.23302 103.558 4.57847L103.569 4.61086C104.055 7.07222 105.663 9.18813 107.876 10.3324C108.297 6.99665 109.506 3.76881 111.385 0.983585C111.525 0.778471 111.762 0.648926 112.011 0.648926C112.259 0.648926 112.497 0.778471 112.637 0.983585C114.515 3.77961 115.714 6.99665 116.145 10.3324C118.348 9.18813 119.967 7.07222 120.453 4.61086L120.464 4.57847C120.528 4.22222 120.841 3.97393 121.209 3.96313C121.565 3.96313 121.878 4.22222 121.953 4.56768L122.925 9.43642C123.443 12.0165 122.936 14.6614 121.522 16.8745C122.925 16.9393 124.328 16.5938 125.559 15.8705L127.027 15.0069C127.286 14.8557 127.621 14.8665 127.859 15.0501C128.107 15.2336 128.215 15.5467 128.139 15.8381L127.34 19.0768C126.844 21.1063 125.473 22.7904 123.573 23.6864C122.137 24.3665 120.507 24.5285 118.974 24.1506L118.747 24.0967C117.43 23.7728 116.027 24.1182 115.012 25.0143L112.497 27.2273C112.356 27.3569 112.184 27.4216 112 27.4216ZM106.268 22.4773C107.628 22.4773 108.966 22.9739 110.014 23.9023L112 25.662L113.986 23.9023C115.379 22.6717 117.279 22.2074 119.082 22.6501L119.309 22.704C120.507 22.9955 121.781 22.866 122.903 22.3478C124.382 21.6461 125.451 20.3398 125.84 18.7529L126.207 17.2631C124.339 18.3427 122.159 18.6881 120.043 18.2563C119.794 18.2023 119.6 18.0404 119.503 17.8137C119.406 17.587 119.427 17.3171 119.568 17.112L120.205 16.1188C121.414 14.2296 121.845 11.9734 121.403 9.77108L120.971 7.5904C119.859 9.68472 118.013 11.3472 115.746 12.1893C115.53 12.2756 115.282 12.2432 115.087 12.1245C114.893 12.0057 114.764 11.7898 114.731 11.5631L114.677 11.0342C114.386 8.15177 113.457 5.35574 111.989 2.86199C110.521 5.35574 109.603 8.15177 109.301 11.0342L109.247 11.5631C109.226 11.8006 109.096 12.0057 108.891 12.1245C108.697 12.2432 108.448 12.2756 108.232 12.1893C105.976 11.3472 104.119 9.68472 103.007 7.5904L102.576 9.77108C102.133 11.9734 102.565 14.2296 103.774 16.1188L104.411 17.112C104.54 17.3171 104.573 17.587 104.476 17.8137C104.378 18.0404 104.173 18.2131 103.936 18.2563C101.82 18.6881 99.6392 18.3319 97.7716 17.2631L98.1386 18.7529C98.5273 20.3398 99.596 21.6569 101.075 22.3478C102.198 22.8768 103.472 23.0063 104.67 22.704L104.897 22.6501C105.361 22.5313 105.814 22.4773 106.268 22.4773Z" fill="#463218"/>
<path d="M112 31.3296C111.579 31.3296 111.244 30.995 111.244 30.5739V12.2756C111.244 11.8546 111.579 11.52 112 11.52C112.421 11.52 112.756 11.8546 112.756 12.2756V30.5739C112.756 30.995 112.421 31.3296 112 31.3296Z" fill="#463218"/>
<path d="M112 20.3721C111.914 20.3721 111.816 20.3613 111.73 20.3181C108.848 19.2169 106.214 15.3522 106.106 15.1902C105.868 14.8448 105.965 14.3698 106.311 14.1431C106.656 13.9056 107.131 14.0027 107.358 14.3482C107.38 14.3806 109.841 17.9863 112.27 18.9147C112.659 19.0658 112.853 19.4976 112.702 19.8863C112.594 20.1885 112.302 20.3721 112 20.3721Z" fill="#463218"/>
<path d="M112 16.8425C111.633 16.8425 111.309 16.5726 111.255 16.1947C111.201 15.7844 111.482 15.3957 111.892 15.3417C111.914 15.3417 113.782 15.0609 114.948 14.1756C115.282 13.9272 115.758 13.992 116.006 14.3159C116.254 14.6506 116.189 15.1257 115.866 15.3741C114.386 16.497 112.205 16.8209 112.108 16.8317C112.065 16.8317 112.032 16.8425 112 16.8425Z" fill="#463218"/>
<path d="M118.715 15.7845L118.013 14.9639C118.337 14.6831 118.65 14.1325 118.909 13.3766L119.935 13.7222C119.6 14.6831 119.19 15.3742 118.715 15.7845Z" fill="white"/>
<path d="M120.291 12.3946L119.233 12.1678C119.373 11.4984 119.438 10.9909 119.438 10.9801L120.507 11.0989C120.507 11.1205 120.453 11.6603 120.291 12.3946Z" fill="white"/>
<path d="M109.366 29.4409C109.139 29.4409 108.913 29.3437 108.761 29.1494C108.513 28.8147 108.567 28.3396 108.902 28.0912L111.536 26.0721C111.871 25.8238 112.346 25.8778 112.594 26.2125C112.843 26.5472 112.789 27.0223 112.454 27.2706L109.83 29.2789C109.69 29.3869 109.528 29.4409 109.366 29.4409Z" fill="#463218"/>
<path d="M114.635 29.4409C114.473 29.4409 114.311 29.3869 114.181 29.2898L111.547 27.2707C111.212 27.0115 111.147 26.5472 111.406 26.2125C111.655 25.8778 112.13 25.813 112.464 26.0721L115.099 28.0913C115.434 28.3504 115.499 28.8147 115.239 29.1494C115.088 29.3329 114.861 29.4409 114.635 29.4409Z" fill="#463218"/>
</g>
<g clip-path="url(#clip3_15800_41972)">
<path d="M167.06 23.2115L167.287 23.2655C168.658 23.6001 170.105 23.4598 171.389 22.8552C173.063 22.0672 174.293 20.5558 174.736 18.753L175.535 15.5143L174.067 16.378C172.35 17.3927 170.321 17.7274 168.367 17.328L169.004 16.3348C170.321 14.2944 170.785 11.8223 170.31 9.43649L169.338 4.56774L169.327 4.60012C168.723 7.66603 166.575 10.203 163.638 11.2825L163.584 10.7535C163.239 7.35296 162.051 4.08194 160.151 1.24274C158.24 4.08194 157.064 7.35296 156.718 10.7535L156.664 11.2825C153.739 10.1922 151.58 7.66603 150.975 4.60012L150.964 4.56774L149.993 9.43649C149.518 11.8223 149.993 14.2944 151.299 16.3348L151.936 17.328C149.982 17.7274 147.952 17.3927 146.236 16.378L144.768 15.5143L145.567 18.753C146.009 20.5558 147.24 22.0672 148.913 22.8552C150.187 23.4598 151.634 23.6001 153.015 23.2655L153.242 23.2115C154.808 22.8229 156.459 23.2331 157.658 24.3018L160.151 26.5041L162.645 24.3018C163.854 23.2331 165.506 22.8229 167.06 23.2115Z" fill="#FE8E46"/>
<path d="M169.003 19.6596L168.367 20.6527C170.32 21.0522 172.35 20.7175 174.067 19.7027L174.542 19.4221C174.617 19.2061 174.693 18.9794 174.747 18.7527L175.545 15.5141L174.077 16.3777C172.847 17.101 171.454 17.4789 170.04 17.4897C169.781 18.2453 169.435 18.9794 169.003 19.6596Z" fill="#E56823"/>
<path d="M150.003 12.7613L150.975 7.8925L150.986 7.92489C151.59 10.9908 153.739 13.5277 156.675 14.6073L156.729 14.0783C157.075 10.6777 158.262 7.40671 160.162 4.5675C162.073 7.40671 163.25 10.6777 163.595 14.0783L163.649 14.6073C166.575 13.5169 168.734 10.9908 169.338 7.92489L169.349 7.8925L170.321 12.7613C170.331 12.8152 170.342 12.88 170.353 12.934C170.558 11.7897 170.558 10.6022 170.321 9.44705L169.349 4.5783L169.338 4.61068C168.734 7.67659 166.585 10.2135 163.649 11.2931L163.595 10.7641C163.25 7.36352 162.062 4.0925 160.162 1.2533C158.251 4.0925 157.075 7.36352 156.729 10.7641L156.675 11.2931C153.75 10.2027 151.59 7.67659 150.986 4.61068L150.975 4.5783L150.003 9.44705C149.777 10.613 149.766 11.7897 149.971 12.934C149.993 12.8692 149.993 12.8152 150.003 12.7613Z" fill="#E56823"/>
<path d="M145.782 19.4221L146.257 19.7027C147.974 20.7175 150.003 21.0522 151.957 20.6527L151.32 19.6596C150.889 18.9794 150.543 18.2562 150.295 17.5005C148.881 17.4897 147.488 17.1118 146.257 16.3885L144.789 15.5249L145.588 18.7635C145.631 18.9794 145.696 19.1954 145.782 19.4221Z" fill="#E56823"/>
<path d="M160 27.4216C159.817 27.4216 159.644 27.3569 159.503 27.2273L157.01 25.0251C155.995 24.129 154.592 23.7836 153.274 24.1074L153.048 24.1614C151.515 24.5393 149.874 24.3773 148.449 23.6972C146.56 22.8012 145.189 21.1279 144.681 19.0876L143.882 15.8489C143.807 15.5574 143.926 15.2444 144.163 15.0609C144.411 14.8773 144.735 14.8665 144.994 15.0177L146.463 15.8813C147.693 16.6046 149.086 16.9501 150.5 16.8853C149.086 14.6722 148.589 12.0273 149.097 9.44722L150.068 4.57847C150.144 4.22222 150.446 3.97393 150.813 3.97393C151.169 3.97393 151.482 4.23302 151.558 4.57847L151.569 4.61086C152.055 7.07222 153.663 9.18813 155.876 10.3324C156.297 6.99665 157.506 3.76881 159.385 0.983585C159.525 0.778471 159.763 0.648926 160.011 0.648926C160.259 0.648926 160.497 0.778471 160.637 0.983585C162.515 3.77961 163.714 6.99665 164.146 10.3324C166.348 9.18813 167.967 7.07222 168.453 4.61086L168.464 4.57847C168.528 4.22222 168.842 3.97393 169.209 3.96313C169.565 3.96313 169.878 4.22222 169.953 4.56768L170.925 9.43642C171.443 12.0165 170.936 14.6614 169.522 16.8745C170.925 16.9393 172.328 16.5938 173.559 15.8705L175.027 15.0069C175.286 14.8557 175.621 14.8665 175.859 15.0501C176.107 15.2336 176.215 15.5467 176.139 15.8381L175.34 19.0768C174.844 21.1063 173.473 22.7904 171.573 23.6864C170.137 24.3665 168.507 24.5285 166.974 24.1506L166.747 24.0967C165.43 23.7728 164.027 24.1182 163.012 25.0143L160.497 27.2273C160.356 27.3569 160.184 27.4216 160 27.4216ZM154.268 22.4773C155.628 22.4773 156.967 22.9739 158.014 23.9023L160 25.662L161.986 23.9023C163.379 22.6717 165.279 22.2074 167.082 22.6501L167.309 22.704C168.507 22.9955 169.781 22.866 170.903 22.3478C172.382 21.6461 173.451 20.3398 173.84 18.7529L174.207 17.2631C172.339 18.3427 170.159 18.6881 168.043 18.2563C167.794 18.2023 167.6 18.0404 167.503 17.8137C167.406 17.587 167.427 17.3171 167.568 17.112L168.205 16.1188C169.414 14.2296 169.846 11.9734 169.403 9.77108L168.971 7.5904C167.859 9.68472 166.013 11.3472 163.746 12.1893C163.53 12.2756 163.282 12.2432 163.088 12.1245C162.893 12.0057 162.764 11.7898 162.731 11.5631L162.677 11.0342C162.386 8.15177 161.457 5.35574 159.989 2.86199C158.521 5.35574 157.603 8.15177 157.301 11.0342L157.247 11.5631C157.226 11.8006 157.096 12.0057 156.891 12.1245C156.697 12.2432 156.448 12.2756 156.232 12.1893C153.976 11.3472 152.119 9.68472 151.007 7.5904L150.576 9.77108C150.133 11.9734 150.565 14.2296 151.774 16.1188L152.411 17.112C152.54 17.3171 152.573 17.587 152.476 17.8137C152.378 18.0404 152.173 18.2131 151.936 18.2563C149.82 18.6881 147.639 18.3319 145.772 17.2631L146.139 18.7529C146.527 20.3398 147.596 21.6569 149.075 22.3478C150.198 22.8768 151.472 23.0063 152.67 22.704L152.897 22.6501C153.361 22.5313 153.814 22.4773 154.268 22.4773Z" fill="#463218"/>
<path d="M160 31.3296C159.579 31.3296 159.244 30.995 159.244 30.5739V12.2756C159.244 11.8546 159.579 11.52 160 11.52C160.421 11.52 160.756 11.8546 160.756 12.2756V30.5739C160.756 30.995 160.421 31.3296 160 31.3296Z" fill="#463218"/>
<path d="M160 20.3721C159.914 20.3721 159.817 20.3613 159.73 20.3181C156.848 19.2169 154.214 15.3522 154.106 15.1902C153.868 14.8448 153.965 14.3698 154.311 14.1431C154.656 13.9056 155.131 14.0027 155.358 14.3482C155.38 14.3806 157.841 17.9863 160.27 18.9147C160.659 19.0658 160.853 19.4976 160.702 19.8863C160.594 20.1885 160.302 20.3721 160 20.3721Z" fill="#463218"/>
<path d="M160 16.8425C159.633 16.8425 159.309 16.5726 159.255 16.1947C159.201 15.7844 159.482 15.3957 159.892 15.3417C159.914 15.3417 161.782 15.0609 162.948 14.1756C163.283 13.9272 163.758 13.992 164.006 14.3159C164.254 14.6506 164.19 15.1257 163.866 15.3741C162.386 16.497 160.205 16.8209 160.108 16.8317C160.065 16.8317 160.033 16.8425 160 16.8425Z" fill="#463218"/>
<path d="M166.715 15.7845L166.013 14.9639C166.337 14.6831 166.65 14.1325 166.909 13.3766L167.935 13.7222C167.6 14.6831 167.19 15.3742 166.715 15.7845Z" fill="white"/>
<path d="M168.291 12.3946L167.233 12.1678C167.373 11.4984 167.438 10.9909 167.438 10.9801L168.507 11.0989C168.507 11.1205 168.453 11.6603 168.291 12.3946Z" fill="white"/>
<path d="M157.366 29.4409C157.139 29.4409 156.913 29.3437 156.761 29.1494C156.513 28.8147 156.567 28.3396 156.902 28.0912L159.536 26.0721C159.871 25.8238 160.346 25.8778 160.594 26.2125C160.843 26.5472 160.789 27.0223 160.454 27.2706L157.83 29.2789C157.69 29.3869 157.528 29.4409 157.366 29.4409Z" fill="#463218"/>
<path d="M162.635 29.4409C162.473 29.4409 162.311 29.3869 162.181 29.2898L159.547 27.2707C159.212 27.0115 159.147 26.5472 159.406 26.2125C159.655 25.8778 160.13 25.813 160.464 26.0721L163.099 28.0913C163.434 28.3504 163.499 28.8147 163.239 29.1494C163.088 29.3329 162.861 29.4409 162.635 29.4409Z" fill="#463218"/>
</g>
<g clip-path="url(#clip4_15800_41972)">
<path d="M215.06 23.2115L215.287 23.2655C216.658 23.6001 218.105 23.4598 219.389 22.8552C221.063 22.0672 222.293 20.5558 222.736 18.753L223.535 15.5143L222.067 16.378C220.35 17.3927 218.321 17.7274 216.367 17.328L217.004 16.3348C218.321 14.2944 218.785 11.8223 218.31 9.43649L217.338 4.56774L217.327 4.60012C216.723 7.66603 214.575 10.203 211.638 11.2825L211.584 10.7535C211.239 7.35296 210.051 4.08194 208.151 1.24274C206.24 4.08194 205.064 7.35296 204.718 10.7535L204.664 11.2825C201.739 10.1922 199.58 7.66603 198.975 4.60012L198.964 4.56774L197.993 9.43649C197.518 11.8223 197.993 14.2944 199.299 16.3348L199.936 17.328C197.982 17.7274 195.952 17.3927 194.236 16.378L192.768 15.5143L193.567 18.753C194.009 20.5558 195.24 22.0672 196.913 22.8552C198.187 23.4598 199.634 23.6001 201.015 23.2655L201.242 23.2115C202.808 22.8229 204.459 23.2331 205.658 24.3018L208.151 26.5041L210.645 24.3018C211.854 23.2331 213.506 22.8229 215.06 23.2115Z" fill="#FE8E46"/>
<path d="M217.003 19.6596L216.367 20.6527C218.32 21.0522 220.35 20.7175 222.067 19.7027L222.542 19.4221C222.617 19.2061 222.693 18.9794 222.747 18.7527L223.545 15.5141L222.077 16.3777C220.847 17.101 219.454 17.4789 218.04 17.4897C217.781 18.2453 217.435 18.9794 217.003 19.6596Z" fill="#E56823"/>
<path d="M198.003 12.7613L198.975 7.8925L198.986 7.92489C199.59 10.9908 201.739 13.5277 204.675 14.6073L204.729 14.0783C205.075 10.6777 206.262 7.40671 208.162 4.5675C210.073 7.40671 211.25 10.6777 211.595 14.0783L211.649 14.6073C214.575 13.5169 216.734 10.9908 217.338 7.92489L217.349 7.8925L218.321 12.7613C218.331 12.8152 218.342 12.88 218.353 12.934C218.558 11.7897 218.558 10.6022 218.321 9.44705L217.349 4.5783L217.338 4.61068C216.734 7.67659 214.585 10.2135 211.649 11.2931L211.595 10.7641C211.25 7.36352 210.062 4.0925 208.162 1.2533C206.251 4.0925 205.075 7.36352 204.729 10.7641L204.675 11.2931C201.75 10.2027 199.59 7.67659 198.986 4.61068L198.975 4.5783L198.003 9.44705C197.777 10.613 197.766 11.7897 197.971 12.934C197.993 12.8692 197.993 12.8152 198.003 12.7613Z" fill="#E56823"/>
<path d="M193.782 19.4221L194.257 19.7027C195.974 20.7175 198.003 21.0522 199.957 20.6527L199.32 19.6596C198.889 18.9794 198.543 18.2562 198.295 17.5005C196.881 17.4897 195.488 17.1118 194.257 16.3885L192.789 15.5249L193.588 18.7635C193.631 18.9794 193.696 19.1954 193.782 19.4221Z" fill="#E56823"/>
<path d="M208 27.4216C207.816 27.4216 207.644 27.3569 207.503 27.2273L205.01 25.0251C203.995 24.129 202.591 23.7836 201.274 24.1074L201.048 24.1614C199.515 24.5393 197.874 24.3773 196.449 23.6972C194.56 22.8012 193.189 21.1279 192.681 19.0876L191.882 15.8489C191.807 15.5574 191.926 15.2444 192.163 15.0609C192.411 14.8773 192.735 14.8665 192.994 15.0177L194.462 15.8813C195.693 16.6046 197.086 16.9501 198.5 16.8853C197.086 14.6722 196.589 12.0273 197.097 9.44722L198.068 4.57847C198.144 4.22222 198.446 3.97393 198.813 3.97393C199.169 3.97393 199.482 4.23302 199.558 4.57847L199.569 4.61086C200.055 7.07222 201.663 9.18813 203.876 10.3324C204.297 6.99665 205.506 3.76881 207.385 0.983585C207.525 0.778471 207.762 0.648926 208.011 0.648926C208.259 0.648926 208.497 0.778471 208.637 0.983585C210.515 3.77961 211.714 6.99665 212.145 10.3324C214.348 9.18813 215.967 7.07222 216.453 4.61086L216.464 4.57847C216.528 4.22222 216.841 3.97393 217.209 3.96313C217.565 3.96313 217.878 4.22222 217.953 4.56768L218.925 9.43642C219.443 12.0165 218.936 14.6614 217.522 16.8745C218.925 16.9393 220.328 16.5938 221.559 15.8705L223.027 15.0069C223.286 14.8557 223.621 14.8665 223.859 15.0501C224.107 15.2336 224.215 15.5467 224.139 15.8381L223.34 19.0768C222.844 21.1063 221.473 22.7904 219.573 23.6864C218.137 24.3665 216.507 24.5285 214.974 24.1506L214.747 24.0967C213.43 23.7728 212.027 24.1182 211.012 25.0143L208.497 27.2273C208.356 27.3569 208.184 27.4216 208 27.4216ZM202.268 22.4773C203.628 22.4773 204.966 22.9739 206.014 23.9023L208 25.662L209.986 23.9023C211.379 22.6717 213.279 22.2074 215.082 22.6501L215.309 22.704C216.507 22.9955 217.781 22.866 218.903 22.3478C220.382 21.6461 221.451 20.3398 221.84 18.7529L222.207 17.2631C220.339 18.3427 218.159 18.6881 216.043 18.2563C215.794 18.2023 215.6 18.0404 215.503 17.8137C215.406 17.587 215.427 17.3171 215.568 17.112L216.205 16.1188C217.414 14.2296 217.845 11.9734 217.403 9.77108L216.971 7.5904C215.859 9.68472 214.013 11.3472 211.746 12.1893C211.53 12.2756 211.282 12.2432 211.087 12.1245C210.893 12.0057 210.764 11.7898 210.731 11.5631L210.677 11.0342C210.386 8.15177 209.457 5.35574 207.989 2.86199C206.521 5.35574 205.603 8.15177 205.301 11.0342L205.247 11.5631C205.226 11.8006 205.096 12.0057 204.891 12.1245C204.697 12.2432 204.448 12.2756 204.232 12.1893C201.976 11.3472 200.119 9.68472 199.007 7.5904L198.576 9.77108C198.133 11.9734 198.565 14.2296 199.774 16.1188L200.411 17.112C200.54 17.3171 200.573 17.587 200.476 17.8137C200.378 18.0404 200.173 18.2131 199.936 18.2563C197.82 18.6881 195.639 18.3319 193.772 17.2631L194.139 18.7529C194.527 20.3398 195.596 21.6569 197.075 22.3478C198.198 22.8768 199.472 23.0063 200.67 22.704L200.897 22.6501C201.361 22.5313 201.814 22.4773 202.268 22.4773Z" fill="#463218"/>
<path d="M208 31.3296C207.579 31.3296 207.244 30.995 207.244 30.5739V12.2756C207.244 11.8546 207.579 11.52 208 11.52C208.421 11.52 208.756 11.8546 208.756 12.2756V30.5739C208.756 30.995 208.421 31.3296 208 31.3296Z" fill="#463218"/>
<path d="M208 20.3721C207.914 20.3721 207.816 20.3613 207.73 20.3181C204.848 19.2169 202.214 15.3522 202.106 15.1902C201.868 14.8448 201.965 14.3698 202.311 14.1431C202.656 13.9056 203.131 14.0027 203.358 14.3482C203.38 14.3806 205.841 17.9863 208.27 18.9147C208.659 19.0658 208.853 19.4976 208.702 19.8863C208.594 20.1885 208.302 20.3721 208 20.3721Z" fill="#463218"/>
<path d="M208 16.8425C207.633 16.8425 207.309 16.5726 207.255 16.1947C207.201 15.7844 207.482 15.3957 207.892 15.3417C207.914 15.3417 209.782 15.0609 210.948 14.1756C211.283 13.9272 211.758 13.992 212.006 14.3159C212.254 14.6506 212.19 15.1257 211.866 15.3741C210.386 16.497 208.205 16.8209 208.108 16.8317C208.065 16.8317 208.033 16.8425 208 16.8425Z" fill="#463218"/>
<path d="M214.715 15.7845L214.013 14.9639C214.337 14.6831 214.65 14.1325 214.909 13.3766L215.935 13.7222C215.6 14.6831 215.19 15.3742 214.715 15.7845Z" fill="white"/>
<path d="M216.291 12.3946L215.233 12.1678C215.373 11.4984 215.438 10.9909 215.438 10.9801L216.507 11.0989C216.507 11.1205 216.453 11.6603 216.291 12.3946Z" fill="white"/>
<path d="M205.366 29.4409C205.139 29.4409 204.913 29.3437 204.761 29.1494C204.513 28.8147 204.567 28.3396 204.902 28.0912L207.536 26.0721C207.871 25.8238 208.346 25.8778 208.594 26.2125C208.843 26.5472 208.789 27.0223 208.454 27.2706L205.83 29.2789C205.69 29.3869 205.528 29.4409 205.366 29.4409Z" fill="#463218"/>
<path d="M210.635 29.4409C210.473 29.4409 210.311 29.3869 210.181 29.2898L207.547 27.2707C207.212 27.0115 207.147 26.5472 207.406 26.2125C207.655 25.8778 208.13 25.813 208.465 26.0721L211.099 28.0913C211.434 28.3504 211.499 28.8147 211.239 29.1494C211.088 29.3329 210.862 29.4409 210.635 29.4409Z" fill="#463218"/>
</g>
<g clip-path="url(#clip5_15800_41972)">
<path d="M263.06 23.2115L263.287 23.2655C264.658 23.6001 266.105 23.4598 267.389 22.8552C269.063 22.0672 270.293 20.5558 270.736 18.753L271.535 15.5143L270.067 16.378C268.35 17.3927 266.32 17.7274 264.367 17.328L265.003 16.3348C266.32 14.2944 266.785 11.8223 266.31 9.43649L265.338 4.56774L265.327 4.60012C264.723 7.66603 262.574 10.203 259.638 11.2825L259.584 10.7535C259.239 7.35296 258.051 4.08194 256.151 1.24274C254.24 4.08194 253.064 7.35296 252.718 10.7535L252.664 11.2825C249.739 10.1922 247.58 7.66603 246.975 4.60012L246.964 4.56774L245.993 9.43649C245.518 11.8223 245.993 14.2944 247.299 16.3348L247.936 17.328C245.982 17.7274 243.952 17.3927 242.236 16.378L240.768 15.5143L241.567 18.753C242.009 20.5558 243.24 22.0672 244.913 22.8552C246.187 23.4598 247.634 23.6001 249.015 23.2655L249.242 23.2115C250.807 22.8229 252.459 23.2331 253.657 24.3018L256.151 26.5041L258.645 24.3018C259.854 23.2331 261.506 22.8229 263.06 23.2115Z" fill="#FE8E46"/>
<path d="M265.003 19.6596L264.367 20.6527C266.32 21.0522 268.35 20.7175 270.067 19.7027L270.542 19.4221C270.617 19.2061 270.693 18.9794 270.747 18.7527L271.545 15.5141L270.077 16.3777C268.847 17.101 267.454 17.4789 266.04 17.4897C265.781 18.2453 265.435 18.9794 265.003 19.6596Z" fill="#E56823"/>
<path d="M246.003 12.7613L246.975 7.8925L246.986 7.92489C247.59 10.9908 249.739 13.5277 252.675 14.6073L252.729 14.0783C253.075 10.6777 254.262 7.40671 256.162 4.5675C258.073 7.40671 259.25 10.6777 259.595 14.0783L259.649 14.6073C262.575 13.5169 264.734 10.9908 265.338 7.92489L265.349 7.8925L266.321 12.7613C266.331 12.8152 266.342 12.88 266.353 12.934C266.558 11.7897 266.558 10.6022 266.321 9.44705L265.349 4.5783L265.338 4.61068C264.734 7.67659 262.585 10.2135 259.649 11.2931L259.595 10.7641C259.25 7.36352 258.062 4.0925 256.162 1.2533C254.251 4.0925 253.075 7.36352 252.729 10.7641L252.675 11.2931C249.75 10.2027 247.59 7.67659 246.986 4.61068L246.975 4.5783L246.003 9.44705C245.777 10.613 245.766 11.7897 245.971 12.934C245.993 12.8692 245.993 12.8152 246.003 12.7613Z" fill="#E56823"/>
<path d="M241.782 19.4221L242.257 19.7027C243.974 20.7175 246.003 21.0522 247.957 20.6527L247.32 19.6596C246.889 18.9794 246.543 18.2562 246.295 17.5005C244.881 17.4897 243.488 17.1118 242.257 16.3885L240.789 15.5249L241.588 18.7635C241.631 18.9794 241.696 19.1954 241.782 19.4221Z" fill="#E56823"/>
<path d="M256 27.4216C255.816 27.4216 255.644 27.3569 255.503 27.2273L253.01 25.0251C251.995 24.129 250.591 23.7836 249.274 24.1074L249.048 24.1614C247.515 24.5393 245.874 24.3773 244.449 23.6972C242.56 22.8012 241.189 21.1279 240.681 19.0876L239.882 15.8489C239.807 15.5574 239.926 15.2444 240.163 15.0609C240.411 14.8773 240.735 14.8665 240.994 15.0177L242.462 15.8813C243.693 16.6046 245.086 16.9501 246.5 16.8853C245.086 14.6722 244.589 12.0273 245.097 9.44722L246.068 4.57847C246.144 4.22222 246.446 3.97393 246.813 3.97393C247.169 3.97393 247.482 4.23302 247.558 4.57847L247.569 4.61086C248.055 7.07222 249.663 9.18813 251.876 10.3324C252.297 6.99665 253.506 3.76881 255.385 0.983585C255.525 0.778471 255.762 0.648926 256.011 0.648926C256.259 0.648926 256.497 0.778471 256.637 0.983585C258.515 3.77961 259.714 6.99665 260.145 10.3324C262.348 9.18813 263.967 7.07222 264.453 4.61086L264.464 4.57847C264.528 4.22222 264.841 3.97393 265.209 3.96313C265.565 3.96313 265.878 4.22222 265.953 4.56768L266.925 9.43642C267.443 12.0165 266.936 14.6614 265.522 16.8745C266.925 16.9393 268.328 16.5938 269.559 15.8705L271.027 15.0069C271.286 14.8557 271.621 14.8665 271.859 15.0501C272.107 15.2336 272.215 15.5467 272.139 15.8381L271.34 19.0768C270.844 21.1063 269.473 22.7904 267.573 23.6864C266.137 24.3665 264.507 24.5285 262.974 24.1506L262.747 24.0967C261.43 23.7728 260.027 24.1182 259.012 25.0143L256.497 27.2273C256.356 27.3569 256.184 27.4216 256 27.4216ZM250.268 22.4773C251.628 22.4773 252.966 22.9739 254.014 23.9023L256 25.662L257.986 23.9023C259.379 22.6717 261.279 22.2074 263.082 22.6501L263.309 22.704C264.507 22.9955 265.781 22.866 266.903 22.3478C268.382 21.6461 269.451 20.3398 269.84 18.7529L270.207 17.2631C268.339 18.3427 266.159 18.6881 264.043 18.2563C263.794 18.2023 263.6 18.0404 263.503 17.8137C263.406 17.587 263.427 17.3171 263.568 17.112L264.205 16.1188C265.414 14.2296 265.845 11.9734 265.403 9.77108L264.971 7.5904C263.859 9.68472 262.013 11.3472 259.746 12.1893C259.53 12.2756 259.282 12.2432 259.087 12.1245C258.893 12.0057 258.764 11.7898 258.731 11.5631L258.677 11.0342C258.386 8.15177 257.457 5.35574 255.989 2.86199C254.521 5.35574 253.603 8.15177 253.301 11.0342L253.247 11.5631C253.226 11.8006 253.096 12.0057 252.891 12.1245C252.697 12.2432 252.448 12.2756 252.232 12.1893C249.976 11.3472 248.119 9.68472 247.007 7.5904L246.576 9.77108C246.133 11.9734 246.565 14.2296 247.774 16.1188L248.411 17.112C248.54 17.3171 248.573 17.587 248.476 17.8137C248.378 18.0404 248.173 18.2131 247.936 18.2563C245.82 18.6881 243.639 18.3319 241.772 17.2631L242.139 18.7529C242.527 20.3398 243.596 21.6569 245.075 22.3478C246.198 22.8768 247.472 23.0063 248.67 22.704L248.897 22.6501C249.361 22.5313 249.814 22.4773 250.268 22.4773Z" fill="#463218"/>
<path d="M256 31.3296C255.579 31.3296 255.244 30.995 255.244 30.5739V12.2756C255.244 11.8546 255.579 11.52 256 11.52C256.421 11.52 256.756 11.8546 256.756 12.2756V30.5739C256.756 30.995 256.421 31.3296 256 31.3296Z" fill="#463218"/>
<path d="M256 20.3721C255.914 20.3721 255.816 20.3613 255.73 20.3181C252.848 19.2169 250.214 15.3522 250.106 15.1902C249.868 14.8448 249.965 14.3698 250.311 14.1431C250.656 13.9056 251.131 14.0027 251.358 14.3482C251.379 14.3806 253.841 17.9863 256.27 18.9147C256.658 19.0658 256.853 19.4976 256.702 19.8863C256.594 20.1885 256.302 20.3721 256 20.3721Z" fill="#463218"/>
<path d="M256 16.8425C255.633 16.8425 255.309 16.5726 255.255 16.1947C255.201 15.7844 255.482 15.3957 255.892 15.3417C255.914 15.3417 257.782 15.0609 258.948 14.1756C259.282 13.9272 259.758 13.992 260.006 14.3159C260.254 14.6506 260.189 15.1257 259.866 15.3741C258.386 16.497 256.205 16.8209 256.108 16.8317C256.065 16.8317 256.032 16.8425 256 16.8425Z" fill="#463218"/>
<path d="M262.715 15.7845L262.013 14.9639C262.337 14.6831 262.65 14.1325 262.909 13.3766L263.935 13.7222C263.6 14.6831 263.19 15.3742 262.715 15.7845Z" fill="white"/>
<path d="M264.291 12.3946L263.233 12.1678C263.373 11.4984 263.438 10.9909 263.438 10.9801L264.507 11.0989C264.507 11.1205 264.453 11.6603 264.291 12.3946Z" fill="white"/>
<path d="M253.366 29.4409C253.139 29.4409 252.912 29.3437 252.761 29.1494C252.513 28.8147 252.567 28.3396 252.902 28.0912L255.536 26.0721C255.871 25.8238 256.346 25.8778 256.594 26.2125C256.843 26.5472 256.789 27.0223 256.454 27.2706L253.83 29.2789C253.69 29.3869 253.528 29.4409 253.366 29.4409Z" fill="#463218"/>
<path d="M258.635 29.4409C258.473 29.4409 258.311 29.3869 258.181 29.2898L255.547 27.2707C255.212 27.0115 255.147 26.5472 255.406 26.2125C255.655 25.8778 256.13 25.813 256.464 26.0721L259.099 28.0913C259.434 28.3504 259.498 28.8147 259.239 29.1494C259.088 29.3329 258.861 29.4409 258.635 29.4409Z" fill="#463218"/>
</g>
<g clip-path="url(#clip6_15800_41972)">
<path d="M311.06 23.2115L311.287 23.2655C312.658 23.6001 314.105 23.4598 315.389 22.8552C317.063 22.0672 318.293 20.5558 318.736 18.753L319.535 15.5143L318.067 16.378C316.35 17.3927 314.32 17.7274 312.367 17.328L313.003 16.3348C314.32 14.2944 314.785 11.8223 314.31 9.43649L313.338 4.56774L313.327 4.60012C312.723 7.66603 310.574 10.203 307.638 11.2825L307.584 10.7535C307.239 7.35296 306.051 4.08194 304.151 1.24274C302.24 4.08194 301.064 7.35296 300.718 10.7535L300.664 11.2825C297.739 10.1922 295.58 7.66603 294.975 4.60012L294.964 4.56774L293.993 9.43649C293.518 11.8223 293.993 14.2944 295.299 16.3348L295.936 17.328C293.982 17.7274 291.952 17.3927 290.236 16.378L288.768 15.5143L289.567 18.753C290.009 20.5558 291.24 22.0672 292.913 22.8552C294.187 23.4598 295.634 23.6001 297.015 23.2655L297.242 23.2115C298.807 22.8229 300.459 23.2331 301.657 24.3018L304.151 26.5041L306.645 24.3018C307.854 23.2331 309.506 22.8229 311.06 23.2115Z" fill="#FE8E46"/>
<path d="M313.003 19.6596L312.367 20.6527C314.32 21.0522 316.35 20.7175 318.067 19.7027L318.542 19.4221C318.617 19.2061 318.693 18.9794 318.747 18.7527L319.545 15.5141L318.077 16.3777C316.847 17.101 315.454 17.4789 314.04 17.4897C313.781 18.2453 313.435 18.9794 313.003 19.6596Z" fill="#E56823"/>
<path d="M294.003 12.7613L294.975 7.8925L294.986 7.92489C295.59 10.9908 297.739 13.5277 300.675 14.6073L300.729 14.0783C301.075 10.6777 302.262 7.40671 304.162 4.5675C306.073 7.40671 307.25 10.6777 307.595 14.0783L307.649 14.6073C310.575 13.5169 312.734 10.9908 313.338 7.92489L313.349 7.8925L314.321 12.7613C314.331 12.8152 314.342 12.88 314.353 12.934C314.558 11.7897 314.558 10.6022 314.321 9.44705L313.349 4.5783L313.338 4.61068C312.734 7.67659 310.585 10.2135 307.649 11.2931L307.595 10.7641C307.25 7.36352 306.062 4.0925 304.162 1.2533C302.251 4.0925 301.075 7.36352 300.729 10.7641L300.675 11.2931C297.75 10.2027 295.59 7.67659 294.986 4.61068L294.975 4.5783L294.003 9.44705C293.777 10.613 293.766 11.7897 293.971 12.934C293.993 12.8692 293.993 12.8152 294.003 12.7613Z" fill="#E56823"/>
<path d="M289.782 19.4221L290.257 19.7027C291.974 20.7175 294.003 21.0522 295.957 20.6527L295.32 19.6596C294.889 18.9794 294.543 18.2562 294.295 17.5005C292.881 17.4897 291.488 17.1118 290.257 16.3885L288.789 15.5249L289.588 18.7635C289.631 18.9794 289.696 19.1954 289.782 19.4221Z" fill="#E56823"/>
<path d="M304 27.4216C303.816 27.4216 303.644 27.3569 303.503 27.2273L301.01 25.0251C299.995 24.129 298.591 23.7836 297.274 24.1074L297.048 24.1614C295.515 24.5393 293.874 24.3773 292.449 23.6972C290.56 22.8012 289.189 21.1279 288.681 19.0876L287.882 15.8489C287.807 15.5574 287.926 15.2444 288.163 15.0609C288.411 14.8773 288.735 14.8665 288.994 15.0177L290.462 15.8813C291.693 16.6046 293.086 16.9501 294.5 16.8853C293.086 14.6722 292.589 12.0273 293.097 9.44722L294.068 4.57847C294.144 4.22222 294.446 3.97393 294.813 3.97393C295.169 3.97393 295.482 4.23302 295.558 4.57847L295.569 4.61086C296.055 7.07222 297.663 9.18813 299.876 10.3324C300.297 6.99665 301.506 3.76881 303.385 0.983585C303.525 0.778471 303.762 0.648926 304.011 0.648926C304.259 0.648926 304.497 0.778471 304.637 0.983585C306.515 3.77961 307.714 6.99665 308.145 10.3324C310.348 9.18813 311.967 7.07222 312.453 4.61086L312.464 4.57847C312.528 4.22222 312.841 3.97393 313.209 3.96313C313.565 3.96313 313.878 4.22222 313.953 4.56768L314.925 9.43642C315.443 12.0165 314.936 14.6614 313.522 16.8745C314.925 16.9393 316.328 16.5938 317.559 15.8705L319.027 15.0069C319.286 14.8557 319.621 14.8665 319.859 15.0501C320.107 15.2336 320.215 15.5467 320.139 15.8381L319.34 19.0768C318.844 21.1063 317.473 22.7904 315.573 23.6864C314.137 24.3665 312.507 24.5285 310.974 24.1506L310.747 24.0967C309.43 23.7728 308.027 24.1182 307.012 25.0143L304.497 27.2273C304.356 27.3569 304.184 27.4216 304 27.4216ZM298.268 22.4773C299.628 22.4773 300.966 22.9739 302.014 23.9023L304 25.662L305.986 23.9023C307.379 22.6717 309.279 22.2074 311.082 22.6501L311.309 22.704C312.507 22.9955 313.781 22.866 314.903 22.3478C316.382 21.6461 317.451 20.3398 317.84 18.7529L318.207 17.2631C316.339 18.3427 314.159 18.6881 312.043 18.2563C311.794 18.2023 311.6 18.0404 311.503 17.8137C311.406 17.587 311.427 17.3171 311.568 17.112L312.205 16.1188C313.414 14.2296 313.845 11.9734 313.403 9.77108L312.971 7.5904C311.859 9.68472 310.013 11.3472 307.746 12.1893C307.53 12.2756 307.282 12.2432 307.087 12.1245C306.893 12.0057 306.764 11.7898 306.731 11.5631L306.677 11.0342C306.386 8.15177 305.457 5.35574 303.989 2.86199C302.521 5.35574 301.603 8.15177 301.301 11.0342L301.247 11.5631C301.226 11.8006 301.096 12.0057 300.891 12.1245C300.697 12.2432 300.448 12.2756 300.232 12.1893C297.976 11.3472 296.119 9.68472 295.007 7.5904L294.576 9.77108C294.133 11.9734 294.565 14.2296 295.774 16.1188L296.411 17.112C296.54 17.3171 296.573 17.587 296.476 17.8137C296.378 18.0404 296.173 18.2131 295.936 18.2563C293.82 18.6881 291.639 18.3319 289.772 17.2631L290.139 18.7529C290.527 20.3398 291.596 21.6569 293.075 22.3478C294.198 22.8768 295.472 23.0063 296.67 22.704L296.897 22.6501C297.361 22.5313 297.814 22.4773 298.268 22.4773Z" fill="#463218"/>
<path d="M304 31.3296C303.579 31.3296 303.244 30.995 303.244 30.5739V12.2756C303.244 11.8546 303.579 11.52 304 11.52C304.421 11.52 304.756 11.8546 304.756 12.2756V30.5739C304.756 30.995 304.421 31.3296 304 31.3296Z" fill="#463218"/>
<path d="M304 20.3721C303.914 20.3721 303.816 20.3613 303.73 20.3181C300.848 19.2169 298.214 15.3522 298.106 15.1902C297.868 14.8448 297.965 14.3698 298.311 14.1431C298.656 13.9056 299.131 14.0027 299.358 14.3482C299.379 14.3806 301.841 17.9863 304.27 18.9147C304.658 19.0658 304.853 19.4976 304.702 19.8863C304.594 20.1885 304.302 20.3721 304 20.3721Z" fill="#463218"/>
<path d="M304 16.8425C303.633 16.8425 303.309 16.5726 303.255 16.1947C303.201 15.7844 303.482 15.3957 303.892 15.3417C303.914 15.3417 305.782 15.0609 306.948 14.1756C307.282 13.9272 307.758 13.992 308.006 14.3159C308.254 14.6506 308.189 15.1257 307.866 15.3741C306.386 16.497 304.205 16.8209 304.108 16.8317C304.065 16.8317 304.032 16.8425 304 16.8425Z" fill="#463218"/>
<path d="M310.715 15.7845L310.013 14.9639C310.337 14.6831 310.65 14.1325 310.909 13.3766L311.935 13.7222C311.6 14.6831 311.19 15.3742 310.715 15.7845Z" fill="white"/>
<path d="M312.291 12.3946L311.233 12.1678C311.373 11.4984 311.438 10.9909 311.438 10.9801L312.507 11.0989C312.507 11.1205 312.453 11.6603 312.291 12.3946Z" fill="white"/>
<path d="M301.366 29.4409C301.139 29.4409 300.912 29.3437 300.761 29.1494C300.513 28.8147 300.567 28.3396 300.902 28.0912L303.536 26.0721C303.871 25.8238 304.346 25.8778 304.594 26.2125C304.843 26.5472 304.789 27.0223 304.454 27.2706L301.83 29.2789C301.69 29.3869 301.528 29.4409 301.366 29.4409Z" fill="#463218"/>
<path d="M306.635 29.4409C306.473 29.4409 306.311 29.3869 306.181 29.2898L303.547 27.2707C303.212 27.0115 303.147 26.5472 303.406 26.2125C303.655 25.8778 304.13 25.813 304.464 26.0721L307.099 28.0913C307.434 28.3504 307.498 28.8147 307.239 29.1494C307.088 29.3329 306.861 29.4409 306.635 29.4409Z" fill="#463218"/>
</g>
<g clip-path="url(#clip7_15800_41972)">
<path d="M359.06 23.2115L359.287 23.2655C360.658 23.6001 362.105 23.4598 363.389 22.8552C365.063 22.0672 366.293 20.5558 366.736 18.753L367.535 15.5143L366.067 16.378C364.35 17.3927 362.32 17.7274 360.367 17.328L361.003 16.3348C362.32 14.2944 362.785 11.8223 362.31 9.43649L361.338 4.56774L361.327 4.60012C360.723 7.66603 358.574 10.203 355.638 11.2825L355.584 10.7535C355.239 7.35296 354.051 4.08194 352.151 1.24274C350.24 4.08194 349.064 7.35296 348.718 10.7535L348.664 11.2825C345.739 10.1922 343.58 7.66603 342.975 4.60012L342.964 4.56774L341.993 9.43649C341.518 11.8223 341.993 14.2944 343.299 16.3348L343.936 17.328C341.982 17.7274 339.952 17.3927 338.236 16.378L336.768 15.5143L337.567 18.753C338.009 20.5558 339.24 22.0672 340.913 22.8552C342.187 23.4598 343.634 23.6001 345.015 23.2655L345.242 23.2115C346.807 22.8229 348.459 23.2331 349.657 24.3018L352.151 26.5041L354.645 24.3018C355.854 23.2331 357.506 22.8229 359.06 23.2115Z" fill="#FE8E46"/>
<path d="M361.003 19.6596L360.367 20.6527C362.32 21.0522 364.35 20.7175 366.067 19.7027L366.542 19.4221C366.617 19.2061 366.693 18.9794 366.747 18.7527L367.545 15.5141L366.077 16.3777C364.847 17.101 363.454 17.4789 362.04 17.4897C361.781 18.2453 361.435 18.9794 361.003 19.6596Z" fill="#E56823"/>
<path d="M342.003 12.7613L342.975 7.8925L342.986 7.92489C343.59 10.9908 345.739 13.5277 348.675 14.6073L348.729 14.0783C349.075 10.6777 350.262 7.40671 352.162 4.5675C354.073 7.40671 355.25 10.6777 355.595 14.0783L355.649 14.6073C358.575 13.5169 360.734 10.9908 361.338 7.92489L361.349 7.8925L362.321 12.7613C362.331 12.8152 362.342 12.88 362.353 12.934C362.558 11.7897 362.558 10.6022 362.321 9.44705L361.349 4.5783L361.338 4.61068C360.734 7.67659 358.585 10.2135 355.649 11.2931L355.595 10.7641C355.25 7.36352 354.062 4.0925 352.162 1.2533C350.251 4.0925 349.075 7.36352 348.729 10.7641L348.675 11.2931C345.75 10.2027 343.59 7.67659 342.986 4.61068L342.975 4.5783L342.003 9.44705C341.777 10.613 341.766 11.7897 341.971 12.934C341.993 12.8692 341.993 12.8152 342.003 12.7613Z" fill="#E56823"/>
<path d="M337.782 19.4221L338.257 19.7027C339.974 20.7175 342.003 21.0522 343.957 20.6527L343.32 19.6596C342.889 18.9794 342.543 18.2562 342.295 17.5005C340.881 17.4897 339.488 17.1118 338.257 16.3885L336.789 15.5249L337.588 18.7635C337.631 18.9794 337.696 19.1954 337.782 19.4221Z" fill="#E56823"/>
<path d="M352 27.4216C351.816 27.4216 351.644 27.3569 351.503 27.2273L349.01 25.0251C347.995 24.129 346.591 23.7836 345.274 24.1074L345.048 24.1614C343.515 24.5393 341.874 24.3773 340.449 23.6972C338.56 22.8012 337.189 21.1279 336.681 19.0876L335.882 15.8489C335.807 15.5574 335.926 15.2444 336.163 15.0609C336.411 14.8773 336.735 14.8665 336.994 15.0177L338.462 15.8813C339.693 16.6046 341.086 16.9501 342.5 16.8853C341.086 14.6722 340.589 12.0273 341.097 9.44722L342.068 4.57847C342.144 4.22222 342.446 3.97393 342.813 3.97393C343.169 3.97393 343.482 4.23302 343.558 4.57847L343.569 4.61086C344.055 7.07222 345.663 9.18813 347.876 10.3324C348.297 6.99665 349.506 3.76881 351.385 0.983585C351.525 0.778471 351.762 0.648926 352.011 0.648926C352.259 0.648926 352.497 0.778471 352.637 0.983585C354.515 3.77961 355.714 6.99665 356.145 10.3324C358.348 9.18813 359.967 7.07222 360.453 4.61086L360.464 4.57847C360.528 4.22222 360.841 3.97393 361.209 3.96313C361.565 3.96313 361.878 4.22222 361.953 4.56768L362.925 9.43642C363.443 12.0165 362.936 14.6614 361.522 16.8745C362.925 16.9393 364.328 16.5938 365.559 15.8705L367.027 15.0069C367.286 14.8557 367.621 14.8665 367.859 15.0501C368.107 15.2336 368.215 15.5467 368.139 15.8381L367.34 19.0768C366.844 21.1063 365.473 22.7904 363.573 23.6864C362.137 24.3665 360.507 24.5285 358.974 24.1506L358.747 24.0967C357.43 23.7728 356.027 24.1182 355.012 25.0143L352.497 27.2273C352.356 27.3569 352.184 27.4216 352 27.4216ZM346.268 22.4773C347.628 22.4773 348.966 22.9739 350.014 23.9023L352 25.662L353.986 23.9023C355.379 22.6717 357.279 22.2074 359.082 22.6501L359.309 22.704C360.507 22.9955 361.781 22.866 362.903 22.3478C364.382 21.6461 365.451 20.3398 365.84 18.7529L366.207 17.2631C364.339 18.3427 362.159 18.6881 360.043 18.2563C359.794 18.2023 359.6 18.0404 359.503 17.8137C359.406 17.587 359.427 17.3171 359.568 17.112L360.205 16.1188C361.414 14.2296 361.845 11.9734 361.403 9.77108L360.971 7.5904C359.859 9.68472 358.013 11.3472 355.746 12.1893C355.53 12.2756 355.282 12.2432 355.087 12.1245C354.893 12.0057 354.764 11.7898 354.731 11.5631L354.677 11.0342C354.386 8.15177 353.457 5.35574 351.989 2.86199C350.521 5.35574 349.603 8.15177 349.301 11.0342L349.247 11.5631C349.226 11.8006 349.096 12.0057 348.891 12.1245C348.697 12.2432 348.448 12.2756 348.232 12.1893C345.976 11.3472 344.119 9.68472 343.007 7.5904L342.576 9.77108C342.133 11.9734 342.565 14.2296 343.774 16.1188L344.411 17.112C344.54 17.3171 344.573 17.587 344.476 17.8137C344.378 18.0404 344.173 18.2131 343.936 18.2563C341.82 18.6881 339.639 18.3319 337.772 17.2631L338.139 18.7529C338.527 20.3398 339.596 21.6569 341.075 22.3478C342.198 22.8768 343.472 23.0063 344.67 22.704L344.897 22.6501C345.361 22.5313 345.814 22.4773 346.268 22.4773Z" fill="#463218"/>
<path d="M352 31.3296C351.579 31.3296 351.244 30.995 351.244 30.5739V12.2756C351.244 11.8546 351.579 11.52 352 11.52C352.421 11.52 352.756 11.8546 352.756 12.2756V30.5739C352.756 30.995 352.421 31.3296 352 31.3296Z" fill="#463218"/>
<path d="M352 20.3721C351.914 20.3721 351.816 20.3613 351.73 20.3181C348.848 19.2169 346.214 15.3522 346.106 15.1902C345.868 14.8448 345.965 14.3698 346.311 14.1431C346.656 13.9056 347.131 14.0027 347.358 14.3482C347.379 14.3806 349.841 17.9863 352.27 18.9147C352.658 19.0658 352.853 19.4976 352.702 19.8863C352.594 20.1885 352.302 20.3721 352 20.3721Z" fill="#463218"/>
<path d="M352 16.8425C351.633 16.8425 351.309 16.5726 351.255 16.1947C351.201 15.7844 351.482 15.3957 351.892 15.3417C351.914 15.3417 353.782 15.0609 354.948 14.1756C355.282 13.9272 355.758 13.992 356.006 14.3159C356.254 14.6506 356.189 15.1257 355.866 15.3741C354.386 16.497 352.205 16.8209 352.108 16.8317C352.065 16.8317 352.032 16.8425 352 16.8425Z" fill="#463218"/>
<path d="M358.715 15.7845L358.013 14.9639C358.337 14.6831 358.65 14.1325 358.909 13.3766L359.935 13.7222C359.6 14.6831 359.19 15.3742 358.715 15.7845Z" fill="white"/>
<path d="M360.291 12.3946L359.233 12.1678C359.373 11.4984 359.438 10.9909 359.438 10.9801L360.507 11.0989C360.507 11.1205 360.453 11.6603 360.291 12.3946Z" fill="white"/>
<path d="M349.366 29.4409C349.139 29.4409 348.912 29.3437 348.761 29.1494C348.513 28.8147 348.567 28.3396 348.902 28.0912L351.536 26.0721C351.871 25.8238 352.346 25.8778 352.594 26.2125C352.843 26.5472 352.789 27.0223 352.454 27.2706L349.83 29.2789C349.69 29.3869 349.528 29.4409 349.366 29.4409Z" fill="#463218"/>
<path d="M354.635 29.4409C354.473 29.4409 354.311 29.3869 354.181 29.2898L351.547 27.2707C351.212 27.0115 351.147 26.5472 351.406 26.2125C351.655 25.8778 352.13 25.813 352.464 26.0721L355.099 28.0913C355.434 28.3504 355.498 28.8147 355.239 29.1494C355.088 29.3329 354.861 29.4409 354.635 29.4409Z" fill="#463218"/>
</g>
<g clip-path="url(#clip8_15800_41972)">
<path d="M407.06 23.2115L407.287 23.2655C408.658 23.6001 410.105 23.4598 411.389 22.8552C413.063 22.0672 414.293 20.5558 414.736 18.753L415.535 15.5143L414.067 16.378C412.35 17.3927 410.32 17.7274 408.367 17.328L409.003 16.3348C410.32 14.2944 410.785 11.8223 410.31 9.43649L409.338 4.56774L409.327 4.60012C408.723 7.66603 406.574 10.203 403.638 11.2825L403.584 10.7535C403.239 7.35296 402.051 4.08194 400.151 1.24274C398.24 4.08194 397.064 7.35296 396.718 10.7535L396.664 11.2825C393.739 10.1922 391.58 7.66603 390.975 4.60012L390.964 4.56774L389.993 9.43649C389.518 11.8223 389.993 14.2944 391.299 16.3348L391.936 17.328C389.982 17.7274 387.952 17.3927 386.236 16.378L384.768 15.5143L385.567 18.753C386.009 20.5558 387.24 22.0672 388.913 22.8552C390.187 23.4598 391.634 23.6001 393.015 23.2655L393.242 23.2115C394.807 22.8229 396.459 23.2331 397.657 24.3018L400.151 26.5041L402.645 24.3018C403.854 23.2331 405.506 22.8229 407.06 23.2115Z" fill="#FE8E46"/>
<path d="M409.003 19.6596L408.367 20.6527C410.32 21.0522 412.35 20.7175 414.067 19.7027L414.542 19.4221C414.617 19.2061 414.693 18.9794 414.747 18.7527L415.545 15.5141L414.077 16.3777C412.847 17.101 411.454 17.4789 410.04 17.4897C409.781 18.2453 409.435 18.9794 409.003 19.6596Z" fill="#E56823"/>
<path d="M390.003 12.7613L390.975 7.8925L390.986 7.92489C391.59 10.9908 393.739 13.5277 396.675 14.6073L396.729 14.0783C397.075 10.6777 398.262 7.40671 400.162 4.5675C402.073 7.40671 403.25 10.6777 403.595 14.0783L403.649 14.6073C406.575 13.5169 408.734 10.9908 409.338 7.92489L409.349 7.8925L410.321 12.7613C410.331 12.8152 410.342 12.88 410.353 12.934C410.558 11.7897 410.558 10.6022 410.321 9.44705L409.349 4.5783L409.338 4.61068C408.734 7.67659 406.585 10.2135 403.649 11.2931L403.595 10.7641C403.25 7.36352 402.062 4.0925 400.162 1.2533C398.251 4.0925 397.075 7.36352 396.729 10.7641L396.675 11.2931C393.75 10.2027 391.59 7.67659 390.986 4.61068L390.975 4.5783L390.003 9.44705C389.777 10.613 389.766 11.7897 389.971 12.934C389.993 12.8692 389.993 12.8152 390.003 12.7613Z" fill="#E56823"/>
<path d="M385.782 19.4221L386.257 19.7027C387.974 20.7175 390.003 21.0522 391.957 20.6527L391.32 19.6596C390.889 18.9794 390.543 18.2562 390.295 17.5005C388.881 17.4897 387.488 17.1118 386.257 16.3885L384.789 15.5249L385.588 18.7635C385.631 18.9794 385.696 19.1954 385.782 19.4221Z" fill="#E56823"/>
<path d="M400 27.4216C399.816 27.4216 399.644 27.3569 399.503 27.2273L397.01 25.0251C395.995 24.129 394.591 23.7836 393.274 24.1074L393.048 24.1614C391.515 24.5393 389.874 24.3773 388.449 23.6972C386.56 22.8012 385.189 21.1279 384.681 19.0876L383.882 15.8489C383.807 15.5574 383.926 15.2444 384.163 15.0609C384.411 14.8773 384.735 14.8665 384.994 15.0177L386.462 15.8813C387.693 16.6046 389.086 16.9501 390.5 16.8853C389.086 14.6722 388.589 12.0273 389.097 9.44722L390.068 4.57847C390.144 4.22222 390.446 3.97393 390.813 3.97393C391.169 3.97393 391.482 4.23302 391.558 4.57847L391.569 4.61086C392.055 7.07222 393.663 9.18813 395.876 10.3324C396.297 6.99665 397.506 3.76881 399.385 0.983585C399.525 0.778471 399.762 0.648926 400.011 0.648926C400.259 0.648926 400.497 0.778471 400.637 0.983585C402.515 3.77961 403.714 6.99665 404.145 10.3324C406.348 9.18813 407.967 7.07222 408.453 4.61086L408.464 4.57847C408.528 4.22222 408.841 3.97393 409.209 3.96313C409.565 3.96313 409.878 4.22222 409.953 4.56768L410.925 9.43642C411.443 12.0165 410.936 14.6614 409.522 16.8745C410.925 16.9393 412.328 16.5938 413.559 15.8705L415.027 15.0069C415.286 14.8557 415.621 14.8665 415.859 15.0501C416.107 15.2336 416.215 15.5467 416.139 15.8381L415.34 19.0768C414.844 21.1063 413.473 22.7904 411.573 23.6864C410.137 24.3665 408.507 24.5285 406.974 24.1506L406.747 24.0967C405.43 23.7728 404.027 24.1182 403.012 25.0143L400.497 27.2273C400.356 27.3569 400.184 27.4216 400 27.4216ZM394.268 22.4773C395.628 22.4773 396.966 22.9739 398.014 23.9023L400 25.662L401.986 23.9023C403.379 22.6717 405.279 22.2074 407.082 22.6501L407.309 22.704C408.507 22.9955 409.781 22.866 410.903 22.3478C412.382 21.6461 413.451 20.3398 413.84 18.7529L414.207 17.2631C412.339 18.3427 410.159 18.6881 408.043 18.2563C407.794 18.2023 407.6 18.0404 407.503 17.8137C407.406 17.587 407.427 17.3171 407.568 17.112L408.205 16.1188C409.414 14.2296 409.845 11.9734 409.403 9.77108L408.971 7.5904C407.859 9.68472 406.013 11.3472 403.746 12.1893C403.53 12.2756 403.282 12.2432 403.087 12.1245C402.893 12.0057 402.764 11.7898 402.731 11.5631L402.677 11.0342C402.386 8.15177 401.457 5.35574 399.989 2.86199C398.521 5.35574 397.603 8.15177 397.301 11.0342L397.247 11.5631C397.226 11.8006 397.096 12.0057 396.891 12.1245C396.697 12.2432 396.448 12.2756 396.232 12.1893C393.976 11.3472 392.119 9.68472 391.007 7.5904L390.576 9.77108C390.133 11.9734 390.565 14.2296 391.774 16.1188L392.411 17.112C392.54 17.3171 392.573 17.587 392.476 17.8137C392.378 18.0404 392.173 18.2131 391.936 18.2563C389.82 18.6881 387.639 18.3319 385.772 17.2631L386.139 18.7529C386.527 20.3398 387.596 21.6569 389.075 22.3478C390.198 22.8768 391.472 23.0063 392.67 22.704L392.897 22.6501C393.361 22.5313 393.814 22.4773 394.268 22.4773Z" fill="#463218"/>
<path d="M400 31.3296C399.579 31.3296 399.244 30.995 399.244 30.5739V12.2756C399.244 11.8546 399.579 11.52 400 11.52C400.421 11.52 400.756 11.8546 400.756 12.2756V30.5739C400.756 30.995 400.421 31.3296 400 31.3296Z" fill="#463218"/>
<path d="M400 20.3721C399.914 20.3721 399.816 20.3613 399.73 20.3181C396.848 19.2169 394.214 15.3522 394.106 15.1902C393.868 14.8448 393.965 14.3698 394.311 14.1431C394.656 13.9056 395.131 14.0027 395.358 14.3482C395.379 14.3806 397.841 17.9863 400.27 18.9147C400.658 19.0658 400.853 19.4976 400.702 19.8863C400.594 20.1885 400.302 20.3721 400 20.3721Z" fill="#463218"/>
<path d="M400 16.8425C399.633 16.8425 399.309 16.5726 399.255 16.1947C399.201 15.7844 399.482 15.3957 399.892 15.3417C399.914 15.3417 401.782 15.0609 402.948 14.1756C403.282 13.9272 403.758 13.992 404.006 14.3159C404.254 14.6506 404.189 15.1257 403.866 15.3741C402.386 16.497 400.205 16.8209 400.108 16.8317C400.065 16.8317 400.032 16.8425 400 16.8425Z" fill="#463218"/>
<path d="M406.715 15.7845L406.013 14.9639C406.337 14.6831 406.65 14.1325 406.909 13.3766L407.935 13.7222C407.6 14.6831 407.19 15.3742 406.715 15.7845Z" fill="white"/>
<path d="M408.291 12.3946L407.233 12.1678C407.373 11.4984 407.438 10.9909 407.438 10.9801L408.507 11.0989C408.507 11.1205 408.453 11.6603 408.291 12.3946Z" fill="white"/>
<path d="M397.366 29.4409C397.139 29.4409 396.912 29.3437 396.761 29.1494C396.513 28.8147 396.567 28.3396 396.902 28.0912L399.536 26.0721C399.871 25.8238 400.346 25.8778 400.594 26.2125C400.843 26.5472 400.789 27.0223 400.454 27.2706L397.83 29.2789C397.69 29.3869 397.528 29.4409 397.366 29.4409Z" fill="#463218"/>
<path d="M402.635 29.4409C402.473 29.4409 402.311 29.3869 402.181 29.2898L399.547 27.2707C399.212 27.0115 399.147 26.5472 399.406 26.2125C399.655 25.8778 400.13 25.813 400.464 26.0721L403.099 28.0913C403.434 28.3504 403.498 28.8147 403.239 29.1494C403.088 29.3329 402.861 29.4409 402.635 29.4409Z" fill="#463218"/>
</g>
<g clip-path="url(#clip9_15800_41972)">
<path d="M455.06 23.2115L455.287 23.2655C456.658 23.6001 458.105 23.4598 459.389 22.8552C461.063 22.0672 462.293 20.5558 462.736 18.753L463.535 15.5143L462.067 16.378C460.35 17.3927 458.32 17.7274 456.367 17.328L457.003 16.3348C458.32 14.2944 458.785 11.8223 458.31 9.43649L457.338 4.56774L457.327 4.60012C456.723 7.66603 454.574 10.203 451.638 11.2825L451.584 10.7535C451.239 7.35296 450.051 4.08194 448.151 1.24274C446.24 4.08194 445.064 7.35296 444.718 10.7535L444.664 11.2825C441.739 10.1922 439.58 7.66603 438.975 4.60012L438.964 4.56774L437.993 9.43649C437.518 11.8223 437.993 14.2944 439.299 16.3348L439.936 17.328C437.982 17.7274 435.952 17.3927 434.236 16.378L432.768 15.5143L433.567 18.753C434.009 20.5558 435.24 22.0672 436.913 22.8552C438.187 23.4598 439.634 23.6001 441.015 23.2655L441.242 23.2115C442.807 22.8229 444.459 23.2331 445.657 24.3018L448.151 26.5041L450.645 24.3018C451.854 23.2331 453.506 22.8229 455.06 23.2115Z" fill="#FE8E46"/>
<path d="M457.003 19.6596L456.367 20.6527C458.32 21.0522 460.35 20.7175 462.067 19.7027L462.542 19.4221C462.617 19.2061 462.693 18.9794 462.747 18.7527L463.545 15.5141L462.077 16.3777C460.847 17.101 459.454 17.4789 458.04 17.4897C457.781 18.2453 457.435 18.9794 457.003 19.6596Z" fill="#E56823"/>
<path d="M438.003 12.7613L438.975 7.8925L438.986 7.92489C439.59 10.9908 441.739 13.5277 444.675 14.6073L444.729 14.0783C445.075 10.6777 446.262 7.40671 448.162 4.5675C450.073 7.40671 451.25 10.6777 451.595 14.0783L451.649 14.6073C454.575 13.5169 456.734 10.9908 457.338 7.92489L457.349 7.8925L458.321 12.7613C458.331 12.8152 458.342 12.88 458.353 12.934C458.558 11.7897 458.558 10.6022 458.321 9.44705L457.349 4.5783L457.338 4.61068C456.734 7.67659 454.585 10.2135 451.649 11.2931L451.595 10.7641C451.25 7.36352 450.062 4.0925 448.162 1.2533C446.251 4.0925 445.075 7.36352 444.729 10.7641L444.675 11.2931C441.75 10.2027 439.59 7.67659 438.986 4.61068L438.975 4.5783L438.003 9.44705C437.777 10.613 437.766 11.7897 437.971 12.934C437.993 12.8692 437.993 12.8152 438.003 12.7613Z" fill="#E56823"/>
<path d="M433.782 19.4221L434.257 19.7027C435.974 20.7175 438.003 21.0522 439.957 20.6527L439.32 19.6596C438.889 18.9794 438.543 18.2562 438.295 17.5005C436.881 17.4897 435.488 17.1118 434.257 16.3885L432.789 15.5249L433.588 18.7635C433.631 18.9794 433.696 19.1954 433.782 19.4221Z" fill="#E56823"/>
<path d="M448 27.4216C447.816 27.4216 447.644 27.3569 447.503 27.2273L445.01 25.0251C443.995 24.129 442.591 23.7836 441.274 24.1074L441.048 24.1614C439.515 24.5393 437.874 24.3773 436.449 23.6972C434.56 22.8012 433.189 21.1279 432.681 19.0876L431.882 15.8489C431.807 15.5574 431.926 15.2444 432.163 15.0609C432.411 14.8773 432.735 14.8665 432.994 15.0177L434.462 15.8813C435.693 16.6046 437.086 16.9501 438.5 16.8853C437.086 14.6722 436.589 12.0273 437.097 9.44722L438.068 4.57847C438.144 4.22222 438.446 3.97393 438.813 3.97393C439.169 3.97393 439.482 4.23302 439.558 4.57847L439.569 4.61086C440.055 7.07222 441.663 9.18813 443.876 10.3324C444.297 6.99665 445.506 3.76881 447.385 0.983585C447.525 0.778471 447.762 0.648926 448.011 0.648926C448.259 0.648926 448.497 0.778471 448.637 0.983585C450.515 3.77961 451.714 6.99665 452.145 10.3324C454.348 9.18813 455.967 7.07222 456.453 4.61086L456.464 4.57847C456.528 4.22222 456.841 3.97393 457.209 3.96313C457.565 3.96313 457.878 4.22222 457.953 4.56768L458.925 9.43642C459.443 12.0165 458.936 14.6614 457.522 16.8745C458.925 16.9393 460.328 16.5938 461.559 15.8705L463.027 15.0069C463.286 14.8557 463.621 14.8665 463.859 15.0501C464.107 15.2336 464.215 15.5467 464.139 15.8381L463.34 19.0768C462.844 21.1063 461.473 22.7904 459.573 23.6864C458.137 24.3665 456.507 24.5285 454.974 24.1506L454.747 24.0967C453.43 23.7728 452.027 24.1182 451.012 25.0143L448.497 27.2273C448.356 27.3569 448.184 27.4216 448 27.4216ZM442.268 22.4773C443.628 22.4773 444.966 22.9739 446.014 23.9023L448 25.662L449.986 23.9023C451.379 22.6717 453.279 22.2074 455.082 22.6501L455.309 22.704C456.507 22.9955 457.781 22.866 458.903 22.3478C460.382 21.6461 461.451 20.3398 461.84 18.7529L462.207 17.2631C460.339 18.3427 458.159 18.6881 456.043 18.2563C455.794 18.2023 455.6 18.0404 455.503 17.8137C455.406 17.587 455.427 17.3171 455.568 17.112L456.205 16.1188C457.414 14.2296 457.845 11.9734 457.403 9.77108L456.971 7.5904C455.859 9.68472 454.013 11.3472 451.746 12.1893C451.53 12.2756 451.282 12.2432 451.087 12.1245C450.893 12.0057 450.764 11.7898 450.731 11.5631L450.677 11.0342C450.386 8.15177 449.457 5.35574 447.989 2.86199C446.521 5.35574 445.603 8.15177 445.301 11.0342L445.247 11.5631C445.226 11.8006 445.096 12.0057 444.891 12.1245C444.697 12.2432 444.448 12.2756 444.232 12.1893C441.976 11.3472 440.119 9.68472 439.007 7.5904L438.576 9.77108C438.133 11.9734 438.565 14.2296 439.774 16.1188L440.411 17.112C440.54 17.3171 440.573 17.587 440.476 17.8137C440.378 18.0404 440.173 18.2131 439.936 18.2563C437.82 18.6881 435.639 18.3319 433.772 17.2631L434.139 18.7529C434.527 20.3398 435.596 21.6569 437.075 22.3478C438.198 22.8768 439.472 23.0063 440.67 22.704L440.897 22.6501C441.361 22.5313 441.814 22.4773 442.268 22.4773Z" fill="#463218"/>
<path d="M448 31.3296C447.579 31.3296 447.244 30.995 447.244 30.5739V12.2756C447.244 11.8546 447.579 11.52 448 11.52C448.421 11.52 448.756 11.8546 448.756 12.2756V30.5739C448.756 30.995 448.421 31.3296 448 31.3296Z" fill="#463218"/>
<path d="M448 20.3721C447.914 20.3721 447.816 20.3613 447.73 20.3181C444.848 19.2169 442.214 15.3522 442.106 15.1902C441.868 14.8448 441.965 14.3698 442.311 14.1431C442.656 13.9056 443.131 14.0027 443.358 14.3482C443.379 14.3806 445.841 17.9863 448.27 18.9147C448.658 19.0658 448.853 19.4976 448.702 19.8863C448.594 20.1885 448.302 20.3721 448 20.3721Z" fill="#463218"/>
<path d="M448 16.8425C447.633 16.8425 447.309 16.5726 447.255 16.1947C447.201 15.7844 447.482 15.3957 447.892 15.3417C447.914 15.3417 449.782 15.0609 450.948 14.1756C451.282 13.9272 451.758 13.992 452.006 14.3159C452.254 14.6506 452.189 15.1257 451.866 15.3741C450.386 16.497 448.205 16.8209 448.108 16.8317C448.065 16.8317 448.032 16.8425 448 16.8425Z" fill="#463218"/>
<path d="M454.715 15.7845L454.013 14.9639C454.337 14.6831 454.65 14.1325 454.909 13.3766L455.935 13.7222C455.6 14.6831 455.19 15.3742 454.715 15.7845Z" fill="white"/>
<path d="M456.291 12.3946L455.233 12.1678C455.373 11.4984 455.438 10.9909 455.438 10.9801L456.507 11.0989C456.507 11.1205 456.453 11.6603 456.291 12.3946Z" fill="white"/>
<path d="M445.366 29.4409C445.139 29.4409 444.912 29.3437 444.761 29.1494C444.513 28.8147 444.567 28.3396 444.902 28.0912L447.536 26.0721C447.871 25.8238 448.346 25.8778 448.594 26.2125C448.843 26.5472 448.789 27.0223 448.454 27.2706L445.83 29.2789C445.69 29.3869 445.528 29.4409 445.366 29.4409Z" fill="#463218"/>
<path d="M450.635 29.4409C450.473 29.4409 450.311 29.3869 450.181 29.2898L447.547 27.2707C447.212 27.0115 447.147 26.5472 447.406 26.2125C447.655 25.8778 448.13 25.813 448.464 26.0721L451.099 28.0913C451.434 28.3504 451.498 28.8147 451.239 29.1494C451.088 29.3329 450.861 29.4409 450.635 29.4409Z" fill="#463218"/>
</g>
<defs>
<clipPath id="clip0_15800_41972">
<rect width="32" height="32" fill="white"/>
</clipPath>
<clipPath id="clip1_15800_41972">
<rect width="32" height="32" fill="white" transform="translate(48)"/>
</clipPath>
<clipPath id="clip2_15800_41972">
<rect width="32" height="32" fill="white" transform="translate(96)"/>
</clipPath>
<clipPath id="clip3_15800_41972">
<rect width="32" height="32" fill="white" transform="translate(144)"/>
</clipPath>
<clipPath id="clip4_15800_41972">
<rect width="32" height="32" fill="white" transform="translate(192)"/>
</clipPath>
<clipPath id="clip5_15800_41972">
<rect width="32" height="32" fill="white" transform="translate(240)"/>
</clipPath>
<clipPath id="clip6_15800_41972">
<rect width="32" height="32" fill="white" transform="translate(288)"/>
</clipPath>
<clipPath id="clip7_15800_41972">
<rect width="32" height="32" fill="white" transform="translate(336)"/>
</clipPath>
<clipPath id="clip8_15800_41972">
<rect width="32" height="32" fill="white" transform="translate(384)"/>
</clipPath>
<clipPath id="clip9_15800_41972">
<rect width="32" height="32" fill="white" transform="translate(432)"/>
</clipPath>
</defs>
</svg>
