<svg width="194" height="143" viewBox="0 0 194 143" fill="none" xmlns="http://www.w3.org/2000/svg">
<g style="mix-blend-mode:luminosity" clip-path="url(#clip0_14145_3261)">
<path d="M104.395 81.0491H87.0832L81.7324 41.7048H110.06L104.395 81.0491Z" fill="#F57F17" stroke="#424242" stroke-width="1.57377" stroke-miterlimit="10" stroke-linecap="round" stroke-linejoin="round"/>
<path d="M107.386 49.8886L95.8972 44.8525L84.4087 49.8886C81.2611 51.305 77.7988 48.9443 77.7988 45.482V35.4099C77.7988 30.2165 82.048 25.9673 87.2415 25.9673H104.553C109.746 25.9673 113.996 30.2165 113.996 35.4099V45.482C113.838 48.9443 110.376 51.1476 107.386 49.8886Z" fill="#F57F17" stroke="#424242" stroke-width="1.57377" stroke-miterlimit="10" stroke-linecap="round" stroke-linejoin="round"/>
<path d="M110.06 85.7704H81.7324C81.7324 83.095 83.7783 81.0491 86.4537 81.0491H110.06V85.7704Z" fill="#F57F17" stroke="#424242" stroke-width="1.57377" stroke-miterlimit="10" stroke-linecap="round" stroke-linejoin="round"/>
<path d="M113.209 95.2131H78.5865C75.9111 95.2131 73.8652 93.1672 73.8652 90.4918C73.8652 87.8164 75.9111 85.7705 78.5865 85.7705H113.209C115.885 85.7705 117.931 87.8164 117.931 90.4918C117.931 93.1672 115.728 95.2131 113.209 95.2131Z" fill="#455A64" stroke="#424242" stroke-width="1.57377" stroke-miterlimit="10" stroke-linecap="round" stroke-linejoin="round"/>
<path d="M110.69 81.0491H93.3782L88.0273 41.7048H116.355L110.69 81.0491Z" fill="#FFA726" stroke="#424242" stroke-width="1.57377" stroke-miterlimit="10" stroke-linecap="round" stroke-linejoin="round"/>
<path d="M96.2124 77.9017L91.6484 44.8525" stroke="#FFCC80" stroke-width="1.57377" stroke-miterlimit="10" stroke-linecap="round" stroke-linejoin="round"/>
<path d="M112.736 44.8525L108.172 77.9017" stroke="#F57F17" stroke-width="1.57377" stroke-miterlimit="10" stroke-linecap="round" stroke-linejoin="round"/>
<path d="M99.0452 25.9672C105.999 25.9672 111.635 20.3304 111.635 13.377C111.635 6.42367 105.999 0.786865 99.0452 0.786865C92.0919 0.786865 86.4551 6.42367 86.4551 13.377C86.4551 20.3304 92.0919 25.9672 99.0452 25.9672Z" fill="#FFA726" stroke="#424242" stroke-width="1.57377" stroke-miterlimit="10" stroke-linecap="round" stroke-linejoin="round"/>
<path d="M89.6016 13.3769C89.6016 8.18351 93.8507 3.93433 99.0442 3.93433" stroke="#FFCC80" stroke-width="1.57377" stroke-miterlimit="10" stroke-linecap="round" stroke-linejoin="round"/>
<path d="M113.681 49.8886L102.192 44.8525L90.7036 49.8886C87.556 51.305 84.0938 48.9443 84.0938 45.482V35.4099C84.0938 30.2165 88.3429 25.9673 93.5364 25.9673H110.848C116.041 25.9673 120.29 30.2165 120.29 35.4099V45.482C120.133 48.9443 116.671 51.1476 113.681 49.8886Z" fill="#FFA726" stroke="#424242" stroke-width="1.57377" stroke-miterlimit="10" stroke-linecap="round" stroke-linejoin="round"/>
<path d="M87.084 45.482V35.4098C87.084 31.9475 89.9168 29.1147 93.3791 29.1147" stroke="#FFCC80" stroke-width="1.57377" stroke-miterlimit="10" stroke-linecap="round" stroke-linejoin="round"/>
<path d="M110.689 29.1147C114.152 29.1147 116.985 31.9475 116.985 35.4098V45.482" stroke="#F57F17" stroke-width="1.57377" stroke-miterlimit="10" stroke-linecap="round" stroke-linejoin="round"/>
<path d="M116.355 85.7704H88.0273C88.0273 83.095 90.0732 81.0491 92.7487 81.0491H111.634C114.152 81.0491 116.355 83.095 116.355 85.7704Z" fill="#FFA726" stroke="#424242" stroke-width="1.57377" stroke-miterlimit="10" stroke-linecap="round" stroke-linejoin="round"/>
<path d="M119.504 95.2131H84.8815C82.2061 95.2131 80.1602 93.1672 80.1602 90.4918C80.1602 87.8164 82.2061 85.7705 84.8815 85.7705H119.504C122.18 85.7705 124.226 87.8164 124.226 90.4918C124.226 93.1672 122.022 95.2131 119.504 95.2131Z" fill="#546E7A" stroke="#424242" stroke-width="1.57377" stroke-miterlimit="10" stroke-linecap="round" stroke-linejoin="round"/>
<path d="M137.13 10.8589C135.398 10.3868 134.139 9.12776 133.667 7.39661L131.936 0.629395L130.205 7.39661C129.733 9.12776 128.474 10.3868 126.743 10.8589L120.133 12.5901L126.9 14.3212C128.631 14.7933 129.89 16.0523 130.362 17.7835L132.093 24.5507L133.825 17.7835C134.297 16.0523 135.556 14.7933 137.287 14.3212L143.739 12.5901L137.13 10.8589Z" fill="#CFD8DC" stroke="#424242" stroke-width="1.57377" stroke-miterlimit="10" stroke-linecap="round" stroke-linejoin="round"/>
<path d="M67.0972 67.5147C65.366 67.0425 64.107 65.7835 63.6349 64.0524L61.9037 57.2852L60.1726 64.0524C59.7004 65.7835 58.4414 67.0425 56.7103 67.5147L50.2578 69.2458L56.8676 70.977C58.5988 71.4491 59.8578 72.7081 60.3299 74.4393L62.0611 81.2065L63.7922 74.4393C64.2644 72.7081 65.5234 71.4491 67.2545 70.977L74.0217 69.2458L67.0972 67.5147Z" fill="#CFD8DC" stroke="#424242" stroke-width="1.57377" stroke-miterlimit="10" stroke-linecap="round" stroke-linejoin="round"/>
<path d="M102.191 44.8525V81.0493" stroke="#424242" stroke-width="1.57377" stroke-miterlimit="10" stroke-linecap="round" stroke-linejoin="round"/>
</g>
<path d="M9.61626 134L8.57226 130.868H3.78426L2.77626 134H0.508258L5.04426 121.526H7.42026L11.9383 134H9.61626ZM4.30626 129.266H8.06826L6.17826 123.506L4.30626 129.266ZM20.3635 134L18.5635 127.124L16.7635 134H14.6755L11.7055 124.838H13.9915L15.7735 131.822L17.6095 124.838H19.6255L21.4615 131.948L23.3515 124.838H25.4755L22.4515 134H20.3635ZM32.248 134L32.086 133.118C31.666 133.478 31.198 133.76 30.682 133.964C30.178 134.168 29.674 134.27 29.17 134.27C28.33 134.27 27.646 134.018 27.118 133.514C26.602 133.01 26.344 132.356 26.344 131.552C26.344 130.664 26.662 129.956 27.298 129.428C27.946 128.9 28.81 128.636 29.89 128.636C30.526 128.636 31.222 128.726 31.978 128.906V127.844C31.978 127.232 31.846 126.806 31.582 126.566C31.318 126.326 30.856 126.206 30.196 126.206C29.26 126.206 28.186 126.404 26.974 126.8V125.306C27.418 125.078 27.958 124.898 28.594 124.766C29.242 124.634 29.89 124.568 30.538 124.568C31.714 124.568 32.578 124.808 33.13 125.288C33.694 125.768 33.976 126.518 33.976 127.538V134H32.248ZM29.764 132.758C30.112 132.758 30.478 132.686 30.862 132.542C31.246 132.386 31.618 132.17 31.978 131.894V130.166C31.342 130.034 30.778 129.968 30.286 129.968C29.038 129.968 28.414 130.454 28.414 131.426C28.414 131.846 28.534 132.176 28.774 132.416C29.014 132.644 29.344 132.758 29.764 132.758ZM36.5177 134V124.838H38.2817L38.5697 126.206C39.0497 125.678 39.4997 125.306 39.9197 125.09C40.3397 124.874 40.7957 124.766 41.2877 124.766C41.5157 124.766 41.7617 124.784 42.0257 124.82V126.764C41.6897 126.704 41.3477 126.674 40.9997 126.674C40.1117 126.674 39.3257 126.902 38.6417 127.358V134H36.5177ZM49.833 134L49.617 133.118C48.801 133.838 47.859 134.198 46.791 134.198C45.639 134.198 44.715 133.772 44.019 132.92C43.335 132.056 42.993 130.898 42.993 129.446C42.993 128.486 43.149 127.64 43.461 126.908C43.773 126.176 44.223 125.606 44.811 125.198C45.399 124.778 46.095 124.568 46.899 124.568C47.859 124.568 48.735 124.88 49.527 125.504V120.68H51.651V134H49.833ZM47.457 132.524C48.165 132.524 48.855 132.296 49.527 131.84V126.89C48.915 126.458 48.237 126.242 47.493 126.242C46.689 126.242 46.095 126.5 45.711 127.016C45.339 127.52 45.153 128.3 45.153 129.356C45.153 131.468 45.921 132.524 47.457 132.524ZM58.3764 131.516C58.3764 131.252 58.2924 131.042 58.1244 130.886C57.9564 130.718 57.6444 130.55 57.1884 130.382L55.6944 129.806C54.3504 129.29 53.6784 128.45 53.6784 127.286C53.6784 126.446 53.9904 125.786 54.6144 125.306C55.2384 124.814 56.0724 124.568 57.1164 124.568C58.1124 124.568 59.0124 124.76 59.8164 125.144V126.638C58.8804 126.338 58.0224 126.188 57.2424 126.188C56.6904 126.188 56.2824 126.272 56.0184 126.44C55.7664 126.596 55.6404 126.848 55.6404 127.196C55.6404 127.46 55.7304 127.676 55.9104 127.844C56.1024 128 56.4384 128.174 56.9184 128.366L58.3044 128.906C59.0244 129.182 59.5404 129.512 59.8524 129.896C60.1764 130.28 60.3384 130.766 60.3384 131.354C60.3384 132.254 60.0144 132.968 59.3664 133.496C58.7184 134.012 57.8184 134.27 56.6664 134.27C56.1024 134.27 55.5504 134.21 55.0104 134.09C54.4704 133.97 53.9964 133.802 53.5884 133.586V132.092C54.7404 132.464 55.7604 132.65 56.6484 132.65C57.2484 132.65 57.6864 132.56 57.9624 132.38C58.2384 132.188 58.3764 131.9 58.3764 131.516ZM66.1388 130.832C66.1388 130.016 66.3668 129.302 66.8228 128.69C67.2788 128.066 67.9388 127.568 68.8028 127.196C68.2148 126.524 67.8128 125.978 67.5968 125.558C67.3808 125.126 67.2728 124.676 67.2728 124.208C67.2728 123.296 67.5908 122.576 68.2268 122.048C68.8748 121.508 69.7568 121.238 70.8728 121.238C71.9408 121.238 72.7928 121.484 73.4288 121.976C74.0768 122.456 74.4008 123.098 74.4008 123.902C74.4008 125.21 73.5248 126.332 71.7728 127.268L71.3768 127.484L74.2748 130.724C74.8148 129.884 75.0848 128.846 75.0848 127.61V127.052H76.8848V127.754C76.8848 129.422 76.4108 130.844 75.4628 132.02C75.6668 132.188 75.8888 132.314 76.1288 132.398C76.3808 132.47 76.6808 132.506 77.0288 132.506C77.4008 132.506 77.7668 132.476 78.1268 132.416V133.838C77.9468 133.922 77.6948 133.988 77.3708 134.036C77.0588 134.096 76.7528 134.126 76.4528 134.126C76.0328 134.126 75.6428 134.054 75.2828 133.91C74.9228 133.766 74.5628 133.532 74.2028 133.208C73.1348 133.94 71.8868 134.306 70.4588 134.306C69.1148 134.306 68.0588 134 67.2908 133.388C66.5228 132.764 66.1388 131.912 66.1388 130.832ZM70.5848 132.668C71.4848 132.668 72.2888 132.452 72.9968 132.02L69.7028 128.222C68.6468 128.822 68.1188 129.632 68.1188 130.652C68.1188 131.3 68.3288 131.798 68.7488 132.146C69.1688 132.494 69.7808 132.668 70.5848 132.668ZM69.1628 124.244C69.1628 124.556 69.2528 124.868 69.4328 125.18C69.6128 125.48 69.9668 125.918 70.4948 126.494L71.0168 126.224C71.4968 125.972 71.8748 125.654 72.1508 125.27C72.4268 124.886 72.5648 124.49 72.5648 124.082C72.5648 123.65 72.4088 123.314 72.0968 123.074C71.7848 122.822 71.3768 122.696 70.8728 122.696C70.3448 122.696 69.9248 122.834 69.6128 123.11C69.3128 123.386 69.1628 123.764 69.1628 124.244ZM93.7324 133.658C92.7844 134.03 91.7044 134.216 90.4924 134.216C88.5004 134.216 86.9944 133.688 85.9744 132.632C84.9664 131.576 84.4624 130.016 84.4624 127.952C84.4624 125.828 84.9844 124.196 86.0284 123.056C87.0844 121.904 88.5964 121.328 90.5644 121.328C91.6444 121.328 92.6404 121.49 93.5524 121.814V123.614C92.3644 123.362 91.4344 123.236 90.7624 123.236C89.4064 123.236 88.3984 123.59 87.7384 124.298C87.0784 125.006 86.7484 126.098 86.7484 127.574V128.006C86.7484 129.47 87.0724 130.556 87.7204 131.264C88.3804 131.96 89.3824 132.308 90.7264 132.308C91.4824 132.308 92.4844 132.158 93.7324 131.858V133.658ZM97.1093 129.932C97.1453 130.844 97.3973 131.516 97.8653 131.948C98.3453 132.368 99.0773 132.578 100.061 132.578C100.949 132.578 101.909 132.41 102.941 132.074V133.568C102.533 133.784 102.047 133.952 101.483 134.072C100.931 134.204 100.355 134.27 99.7553 134.27C98.2433 134.27 97.0973 133.862 96.3173 133.046C95.5373 132.23 95.1473 131.042 95.1473 129.482C95.1473 127.934 95.5253 126.728 96.2813 125.864C97.0493 125 98.1173 124.568 99.4853 124.568C100.661 124.568 101.561 124.892 102.185 125.54C102.821 126.176 103.139 127.082 103.139 128.258C103.139 128.882 103.085 129.44 102.977 129.932H97.1093ZM99.3953 126.116C98.7473 126.116 98.2193 126.332 97.8113 126.764C97.4033 127.196 97.1693 127.778 97.1093 128.51H101.267V128.366C101.267 127.634 101.105 127.076 100.781 126.692C100.469 126.308 100.007 126.116 99.3953 126.116ZM105.213 134V124.838H106.977L107.265 126.206C107.745 125.678 108.195 125.306 108.615 125.09C109.035 124.874 109.491 124.766 109.983 124.766C110.211 124.766 110.457 124.784 110.721 124.82V126.764C110.385 126.704 110.043 126.674 109.695 126.674C108.807 126.674 108.021 126.902 107.337 127.358V134H105.213ZM118.046 133.784C117.422 134.012 116.75 134.126 116.03 134.126C115.082 134.126 114.38 133.904 113.924 133.46C113.468 133.016 113.24 132.338 113.24 131.426V126.458H111.692V125.126L113.312 124.892L113.636 122.318H115.364V124.838H117.974V126.458H115.364V131.318C115.364 131.726 115.46 132.02 115.652 132.2C115.856 132.368 116.192 132.452 116.66 132.452C117.164 132.452 117.626 132.404 118.046 132.308V133.784ZM119.822 134V124.838H121.946V134H119.822ZM120.884 123.326C120.488 123.326 120.176 123.218 119.948 123.002C119.72 122.786 119.606 122.486 119.606 122.102C119.606 121.718 119.72 121.418 119.948 121.202C120.176 120.986 120.488 120.878 120.884 120.878C121.28 120.878 121.592 120.986 121.82 121.202C122.048 121.418 122.162 121.718 122.162 122.102C122.162 122.486 122.048 122.786 121.82 123.002C121.592 123.218 121.28 123.326 120.884 123.326ZM125.214 134V126.458H123.612V125.126L125.214 124.892V123.668C125.214 121.508 126.228 120.428 128.256 120.428C128.988 120.428 129.618 120.542 130.146 120.77V122.228C129.462 122.144 129.006 122.102 128.778 122.102C128.262 122.102 127.89 122.204 127.662 122.408C127.446 122.6 127.338 122.93 127.338 123.398V124.838H133.386V134H131.262V126.458H127.338V134H125.214ZM132.324 123.326C131.928 123.326 131.616 123.218 131.388 123.002C131.16 122.786 131.046 122.486 131.046 122.102C131.046 121.718 131.16 121.418 131.388 121.202C131.616 120.986 131.928 120.878 132.324 120.878C132.72 120.878 133.032 120.986 133.26 121.202C133.488 121.418 133.602 121.718 133.602 122.102C133.602 122.486 133.488 122.786 133.26 123.002C133.032 123.218 132.72 123.326 132.324 123.326ZM142.489 133.64C141.781 134.012 140.935 134.198 139.951 134.198C138.547 134.198 137.467 133.79 136.711 132.974C135.955 132.158 135.577 131 135.577 129.5C135.577 127.964 135.967 126.77 136.747 125.918C137.527 125.066 138.619 124.64 140.023 124.64C140.899 124.64 141.697 124.82 142.417 125.18V126.674C141.613 126.446 140.929 126.332 140.365 126.332C139.465 126.332 138.799 126.578 138.367 127.07C137.947 127.55 137.737 128.3 137.737 129.32V129.554C137.737 130.562 137.947 131.306 138.367 131.786C138.799 132.266 139.465 132.506 140.365 132.506C141.013 132.506 141.721 132.386 142.489 132.146V133.64ZM149.723 134L149.561 133.118C149.141 133.478 148.673 133.76 148.157 133.964C147.653 134.168 147.149 134.27 146.645 134.27C145.805 134.27 145.121 134.018 144.593 133.514C144.077 133.01 143.819 132.356 143.819 131.552C143.819 130.664 144.137 129.956 144.773 129.428C145.421 128.9 146.285 128.636 147.365 128.636C148.001 128.636 148.697 128.726 149.453 128.906V127.844C149.453 127.232 149.321 126.806 149.057 126.566C148.793 126.326 148.331 126.206 147.671 126.206C146.735 126.206 145.661 126.404 144.449 126.8V125.306C144.893 125.078 145.433 124.898 146.069 124.766C146.717 124.634 147.365 124.568 148.013 124.568C149.189 124.568 150.053 124.808 150.605 125.288C151.169 125.768 151.451 126.518 151.451 127.538V134H149.723ZM147.239 132.758C147.587 132.758 147.953 132.686 148.337 132.542C148.721 132.386 149.093 132.17 149.453 131.894V130.166C148.817 130.034 148.253 129.968 147.761 129.968C146.513 129.968 145.889 130.454 145.889 131.426C145.889 131.846 146.009 132.176 146.249 132.416C146.489 132.644 146.819 132.758 147.239 132.758ZM159.284 133.784C158.66 134.012 157.988 134.126 157.268 134.126C156.32 134.126 155.618 133.904 155.162 133.46C154.706 133.016 154.478 132.338 154.478 131.426V126.458H152.93V125.126L154.55 124.892L154.874 122.318H156.602V124.838H159.212V126.458H156.602V131.318C156.602 131.726 156.698 132.02 156.89 132.2C157.094 132.368 157.43 132.452 157.898 132.452C158.402 132.452 158.864 132.404 159.284 132.308V133.784ZM161.06 134V124.838H163.184V134H161.06ZM162.122 123.326C161.726 123.326 161.414 123.218 161.186 123.002C160.958 122.786 160.844 122.486 160.844 122.102C160.844 121.718 160.958 121.418 161.186 121.202C161.414 120.986 161.726 120.878 162.122 120.878C162.518 120.878 162.83 120.986 163.058 121.202C163.286 121.418 163.4 121.718 163.4 122.102C163.4 122.486 163.286 122.786 163.058 123.002C162.83 123.218 162.518 123.326 162.122 123.326ZM169.8 134.27C168.408 134.27 167.322 133.844 166.542 132.992C165.762 132.128 165.372 130.934 165.372 129.41C165.372 127.886 165.762 126.698 166.542 125.846C167.322 124.994 168.408 124.568 169.8 124.568C171.192 124.568 172.278 124.994 173.058 125.846C173.838 126.698 174.228 127.886 174.228 129.41C174.228 130.934 173.838 132.128 173.058 132.992C172.278 133.844 171.192 134.27 169.8 134.27ZM169.8 132.596C171.312 132.596 172.068 131.534 172.068 129.41C172.068 127.298 171.312 126.242 169.8 126.242C168.288 126.242 167.532 127.298 167.532 129.41C167.532 131.534 168.288 132.596 169.8 132.596ZM182.418 134V127.934C182.418 127.346 182.298 126.92 182.058 126.656C181.818 126.38 181.434 126.242 180.906 126.242C180.114 126.242 179.304 126.506 178.476 127.034V134H176.352V124.838H178.116L178.332 125.846C179.46 124.994 180.636 124.568 181.86 124.568C182.736 124.568 183.402 124.802 183.858 125.27C184.314 125.726 184.542 126.392 184.542 127.268V134H182.418ZM191.214 131.516C191.214 131.252 191.13 131.042 190.962 130.886C190.794 130.718 190.482 130.55 190.026 130.382L188.532 129.806C187.188 129.29 186.516 128.45 186.516 127.286C186.516 126.446 186.828 125.786 187.452 125.306C188.076 124.814 188.91 124.568 189.954 124.568C190.95 124.568 191.85 124.76 192.654 125.144V126.638C191.718 126.338 190.86 126.188 190.08 126.188C189.528 126.188 189.12 126.272 188.856 126.44C188.604 126.596 188.478 126.848 188.478 127.196C188.478 127.46 188.568 127.676 188.748 127.844C188.94 128 189.276 128.174 189.756 128.366L191.142 128.906C191.862 129.182 192.378 129.512 192.69 129.896C193.014 130.28 193.176 130.766 193.176 131.354C193.176 132.254 192.852 132.968 192.204 133.496C191.556 134.012 190.656 134.27 189.504 134.27C188.94 134.27 188.388 134.21 187.848 134.09C187.308 133.97 186.834 133.802 186.426 133.586V132.092C187.578 132.464 188.598 132.65 189.486 132.65C190.086 132.65 190.524 132.56 190.8 132.38C191.076 132.188 191.214 131.9 191.214 131.516Z" fill="#6D6D6D"/>
<defs>
<clipPath id="clip0_14145_3261">
<rect width="96" height="96" fill="white" transform="translate(49)"/>
</clipPath>
</defs>
</svg>
