<svg width="72" height="72" viewBox="0 0 72 72" fill="none" xmlns="http://www.w3.org/2000/svg">
<g id="reshot-icon-gather-GPSWZB9FHA 1">
<g id="Assemble point">
<path id="Vector" d="M63 33.0001H52.242L53.121 32.1211C53.6675 31.5553 53.9698 30.7975 53.963 30.0109C53.9562 29.2243 53.6407 28.4719 53.0844 27.9157C52.5282 27.3594 51.7758 27.0439 50.9892 27.0371C50.2026 27.0303 49.4448 27.3326 48.879 27.8791L42.879 33.8791C42.5996 34.1578 42.3779 34.4889 42.2267 34.8533C42.0755 35.2178 41.9976 35.6085 41.9976 36.0031C41.9976 36.3977 42.0755 36.7885 42.2267 37.1529C42.3779 37.5174 42.5996 37.8484 42.879 38.1271L48.879 44.1271C49.4448 44.6736 50.2026 44.976 50.9892 44.9691C51.7758 44.9623 52.5282 44.6468 53.0844 44.0906C53.6407 43.5344 53.9562 42.7819 53.963 41.9953C53.9698 41.2087 53.6675 40.4509 53.121 39.8851L52.242 39.0001H63C63.7956 39.0001 64.5587 38.6841 65.1213 38.1214C65.6839 37.5588 66 36.7958 66 36.0001C66 35.2045 65.6839 34.4414 65.1213 33.8788C64.5587 33.3162 63.7956 33.0001 63 33.0001Z" fill="#FF8E31"/>
<path id="Vector_2" d="M29.118 33.8758L23.118 27.8758C22.5522 27.3294 21.7944 27.027 21.0078 27.0338C20.2212 27.0406 19.4688 27.3561 18.9125 27.9124C18.3563 28.4686 18.0408 29.221 18.034 30.0076C18.0271 30.7942 18.3295 31.552 18.876 32.1178L19.758 32.9998H9C8.20435 32.9998 7.44129 33.3159 6.87868 33.8785C6.31607 34.4411 6 35.2042 6 35.9998C6 36.7955 6.31607 37.5585 6.87868 38.1211C7.44129 38.6838 8.20435 38.9998 9 38.9998H19.758L18.879 39.8788C18.3325 40.4446 18.0301 41.2024 18.037 41.989C18.0438 42.7756 18.3593 43.5281 18.9155 44.0843C19.4718 44.6405 20.2242 44.956 21.0108 44.9628C21.7974 44.9697 22.5552 44.6673 23.121 44.1208L29.121 38.1208C29.3997 37.842 29.6208 37.511 29.7715 37.1467C29.9222 36.7824 29.9996 36.392 29.9994 35.9977C29.9991 35.6035 29.9211 35.2131 29.7699 34.849C29.6186 34.485 29.3971 34.1542 29.118 33.8758Z" fill="#FF8E31"/>
<path id="Vector_3" d="M38.124 42.8821C37.8453 42.6027 37.5143 42.3811 37.1498 42.2298C36.7853 42.0786 36.3946 42.0007 36 42.0007C35.6054 42.0007 35.2147 42.0786 34.8502 42.2298C34.4857 42.3811 34.1547 42.6027 33.876 42.8821L27.876 48.8821C27.3295 49.4479 27.0272 50.2057 27.034 50.9923C27.0408 51.7789 27.3563 52.5313 27.9126 53.0875C28.4688 53.6438 29.2212 53.9593 30.0078 53.9661C30.7944 53.973 31.5522 53.6706 32.118 53.1241L33 52.2421V63.0001C33 63.7957 33.3161 64.5588 33.8787 65.1214C34.4413 65.684 35.2044 66.0001 36 66.0001C36.7957 66.0001 37.5587 65.684 38.1213 65.1214C38.6839 64.5588 39 63.7957 39 63.0001V52.2421L39.879 53.1211C40.4448 53.6676 41.2026 53.97 41.9892 53.9631C42.7758 53.9563 43.5282 53.6408 44.0845 53.0846C44.6407 52.5283 44.9562 51.7759 44.963 50.9893C44.9699 50.2027 44.6675 49.4449 44.121 48.8791L38.124 42.8821Z" fill="#FF8E31"/>
<path id="Vector_4" d="M33.8759 29.118C34.1546 29.3974 34.4857 29.619 34.8501 29.7703C35.2146 29.9215 35.6053 29.9994 35.9999 29.9994C36.3945 29.9994 36.7853 29.9215 37.1497 29.7703C37.5142 29.619 37.8453 29.3974 38.1239 29.118L44.1239 23.118C44.4105 22.8413 44.639 22.5102 44.7962 22.1442C44.9535 21.7782 45.0362 21.3845 45.0397 20.9862C45.0432 20.5879 44.9672 20.1928 44.8164 19.8241C44.6656 19.4555 44.4428 19.1205 44.1611 18.8388C43.8794 18.5571 43.5445 18.3344 43.1758 18.1835C42.8071 18.0327 42.4121 17.9568 42.0137 17.9602C41.6154 17.9637 41.2217 18.0465 40.8557 18.2037C40.4897 18.3609 40.1587 18.5895 39.8819 18.876L38.9999 19.758V9C38.9999 8.20435 38.6839 7.44129 38.1213 6.87868C37.5587 6.31607 36.7956 6 35.9999 6C35.2043 6 34.4412 6.31607 33.8786 6.87868C33.316 7.44129 32.9999 8.20435 32.9999 9V19.758L32.1209 18.879C31.5551 18.3325 30.7973 18.0301 30.0107 18.037C29.2241 18.0438 28.4717 18.3593 27.9155 18.9155C27.3593 19.4718 27.0438 20.2242 27.0369 21.0108C27.0301 21.7974 27.3325 22.5552 27.8789 23.121L33.8759 29.118Z" fill="#FF8E31"/>
<path id="Vector_5" d="M36 39C37.6569 39 39 37.6569 39 36C39 34.3431 37.6569 33 36 33C34.3431 33 33 34.3431 33 36C33 37.6569 34.3431 39 36 39Z" fill="#ECE4B7"/>
</g>
</g>
</svg>
