<svg width="25" height="25" viewBox="0 0 25 25" fill="none" xmlns="http://www.w3.org/2000/svg">
<rect width="24" height="24" transform="translate(0.5 0.5)" fill="white"/>
<path fill-rule="evenodd" clip-rule="evenodd" d="M23.54 12.7613C23.54 11.9459 23.4668 11.1618 23.3309 10.4091H12.5V14.8575H18.6891C18.4225 16.295 17.6123 17.5129 16.3943 18.3284V21.2138H20.1109C22.2855 19.2118 23.54 16.2636 23.54 12.7613Z" fill="#4285F4"/>
<path fill-rule="evenodd" clip-rule="evenodd" d="M12.5 23.9998C15.605 23.9998 18.2081 22.97 20.1109 21.2137L16.3943 18.3282C15.3645 19.0182 14.0472 19.4259 12.5 19.4259C9.50474 19.4259 6.96951 17.403 6.06519 14.6848H2.22314V17.6644C4.11542 21.4228 8.00451 23.9998 12.5 23.9998Z" fill="#34A853"/>
<path fill-rule="evenodd" clip-rule="evenodd" d="M6.06523 14.6851C5.83523 13.9951 5.70455 13.2581 5.70455 12.5001C5.70455 11.7422 5.83523 11.0051 6.06523 10.3151V7.33557H2.22318C1.44432 8.88807 1 10.6444 1 12.5001C1 14.3558 1.44432 16.1122 2.22318 17.6647L6.06523 14.6851Z" fill="#FBBC05"/>
<path fill-rule="evenodd" clip-rule="evenodd" d="M12.5 5.57386C14.1884 5.57386 15.7043 6.15409 16.8961 7.29364L20.1945 3.99523C18.2029 2.13955 15.5997 1 12.5 1C8.00451 1 4.11542 3.57705 2.22314 7.33545L6.06519 10.315C6.96951 7.59682 9.50474 5.57386 12.5 5.57386Z" fill="#EA4335"/>
</svg>
