<svg width="800" height="235" viewBox="0 0 800 235" fill="none" xmlns="http://www.w3.org/2000/svg">
<path d="M753 83.9871H756.001C763.114 83.9871 767.92 85.403 770.421 88.2059C772.922 91.0087 774.172 96.7882 774.172 105.573V126.118C774.172 135.596 775.339 142.358 777.7 146.403C780.062 150.478 784.23 153.396 790.203 155.217C784.23 156.951 780.062 159.84 777.7 163.915C775.339 167.96 774.172 174.722 774.172 184.229V204.659C774.172 213.414 772.949 219.194 770.504 221.997C768.059 224.771 763.447 226.187 756.668 226.187C756.279 226.187 755.695 226.158 754.862 226.1C754.056 226.042 753.445 226.013 753 226.013V235H756.834C767.503 235 774.755 232.948 778.506 228.874C782.285 224.799 784.174 216.42 784.174 203.821V183.131C784.174 174.433 785.73 168.307 788.814 164.753C791.184 162.021 794.867 160.331 799.836 159.695V150.479C794.867 149.842 791.184 148.152 788.814 145.421C785.73 141.838 784.174 135.683 784.174 126.985V106.411C784.174 93.8405 782.285 85.4316 778.478 81.2705C774.672 77.0806 767.476 75 756.834 75H753L753 83.9871Z" fill="#FFAD33"/>
<path d="M46.5454 8.9871H43.5633C36.4947 8.9871 31.7178 10.403 29.2329 13.2059C26.7476 16.0087 25.5052 21.7882 25.5052 30.5727V51.118C25.5052 60.5961 24.3455 67.3578 21.9985 71.4035C19.6515 75.4778 15.5097 78.3963 9.57318 80.2167C15.5097 81.9506 19.6515 84.8402 21.9985 88.9147C24.3455 92.9601 25.5052 99.722 25.5052 109.229V129.659C25.5052 138.414 26.7201 144.194 29.1499 146.997C31.5798 149.771 36.1633 151.187 42.9007 151.187C43.2872 151.187 43.867 151.158 44.6954 151.1C45.4961 151.042 46.1037 151.013 46.5455 151.013V160H42.7351C32.132 160 24.9253 157.948 21.1978 153.874C17.4425 149.799 15.5649 141.42 15.5649 128.821V108.131C15.5649 99.4328 14.0186 93.3067 10.9537 89.7526C8.59872 87.0214 4.93889 85.3313 0 84.6949V75.4785C4.93889 74.8419 8.59874 73.152 10.9537 70.4208C14.0186 66.8376 15.5649 60.6828 15.5649 51.9848V31.4106C15.5649 18.8405 17.4425 10.4316 21.2253 6.27055C25.0081 2.08057 32.1595 0 42.735 0H46.5454L46.5454 8.9871Z" fill="#FFAD33"/>
<path d="M272.727 219.728C266.306 219.728 261.415 218.029 258.055 214.632C254.732 211.235 253.071 206.269 253.071 199.736C253.071 193.315 254.807 188.331 258.279 184.784C261.788 181.237 266.66 179.464 272.895 179.464C275.882 179.464 278.682 179.856 281.295 180.64C281.892 180.827 282.284 181.088 282.471 181.424C282.695 181.723 282.807 182.227 282.807 182.936V187.64C282.807 188.648 282.415 189.152 281.631 189.152C281.444 189.152 280.978 189.059 280.231 188.872C278.402 188.461 276.572 188.256 274.743 188.256C271.308 188.256 268.714 189.171 266.959 191C265.204 192.792 264.327 195.461 264.327 199.008V200.24C264.327 203.712 265.167 206.363 266.847 208.192C268.564 210.021 271.084 210.936 274.407 210.936C276.722 210.936 278.887 210.693 280.903 210.208C281.5 210.059 281.93 209.984 282.191 209.984C282.975 209.984 283.367 210.488 283.367 211.496V216.2C283.367 216.909 283.255 217.432 283.031 217.768C282.844 218.067 282.452 218.309 281.855 218.496C279.316 219.317 276.274 219.728 272.727 219.728ZM297.37 219.84C294.383 219.84 292.162 219.037 290.706 217.432C289.25 215.827 288.522 213.4 288.522 210.152V179.24C288.522 178.605 288.652 178.176 288.914 177.952C289.175 177.691 289.604 177.56 290.202 177.56H297.37C298.004 177.56 298.434 177.691 298.658 177.952C298.919 178.176 299.05 178.605 299.05 179.24V209.312C299.05 211.179 299.628 212.112 300.786 212.112C301.084 212.112 301.327 212.093 301.514 212.056C301.738 212.019 301.962 212 302.186 212C302.596 212 302.914 212.131 303.138 212.392C303.399 212.653 303.53 213.008 303.53 213.456V216.928C303.53 217.675 303.418 218.216 303.194 218.552C303.007 218.851 302.615 219.075 302.018 219.224C300.674 219.635 299.124 219.84 297.37 219.84ZM321.764 219.84C311.684 219.84 306.644 214.763 306.644 204.608C306.644 199.829 307.932 196.096 310.508 193.408C313.084 190.683 316.668 189.32 321.26 189.32C325.142 189.32 328.148 190.365 330.276 192.456C332.404 194.509 333.468 197.459 333.468 201.304C333.468 202.648 333.356 204.067 333.132 205.56C333.02 206.195 332.833 206.643 332.572 206.904C332.348 207.128 331.937 207.24 331.34 207.24H316.22C316.406 209.107 317.116 210.469 318.348 211.328C319.617 212.149 321.502 212.56 324.004 212.56C326.02 212.56 328.054 212.261 330.108 211.664C330.705 211.477 331.172 211.384 331.508 211.384C332.329 211.384 332.74 211.888 332.74 212.896V215.92C332.74 216.592 332.646 217.077 332.46 217.376C332.273 217.675 331.862 217.955 331.228 218.216C329.996 218.701 328.484 219.093 326.692 219.392C324.937 219.691 323.294 219.84 321.764 219.84ZM324.62 201.192V200.52C324.62 197.72 323.406 196.32 320.98 196.32C319.636 196.32 318.553 196.749 317.732 197.608C316.91 198.429 316.406 199.624 316.22 201.192H324.62ZM346.555 220.008C343.755 220.008 341.515 219.205 339.835 217.6C338.155 215.957 337.315 213.811 337.315 211.16C337.315 209.256 337.819 207.595 338.827 206.176C339.835 204.72 341.217 203.619 342.971 202.872C344.726 202.088 346.723 201.696 348.963 201.696C350.793 201.696 352.473 201.864 354.003 202.2V200.744C354.003 199.213 353.649 198.149 352.939 197.552C352.23 196.917 350.979 196.6 349.187 196.6C348.217 196.6 347.078 196.712 345.771 196.936C344.502 197.123 343.363 197.365 342.355 197.664C341.534 197.925 340.955 198.056 340.619 198.056C339.947 198.056 339.611 197.571 339.611 196.6V193.464C339.611 192.792 339.705 192.307 339.891 192.008C340.078 191.709 340.489 191.429 341.123 191.168C344.185 189.936 347.75 189.32 351.819 189.32C355.926 189.32 358.931 190.16 360.835 191.84C362.777 193.483 363.747 196.096 363.747 199.68V217.32C363.747 217.917 363.617 218.347 363.355 218.608C363.131 218.869 362.702 219 362.067 219H356.915C356.393 219 355.982 218.907 355.683 218.72C355.422 218.496 355.198 218.104 355.011 217.544L354.731 216.76C353.611 217.805 352.342 218.608 350.923 219.168C349.505 219.728 348.049 220.008 346.555 220.008ZM349.971 213.344C350.681 213.344 351.409 213.195 352.155 212.896C352.902 212.56 353.518 212.149 354.003 211.664V207.52C352.734 207.371 351.707 207.296 350.923 207.296C348.422 207.296 347.171 208.341 347.171 210.432C347.171 211.328 347.414 212.037 347.899 212.56C348.422 213.083 349.113 213.344 349.971 213.344ZM372.506 219C371.909 219 371.48 218.869 371.218 218.608C370.957 218.347 370.826 217.917 370.826 217.32V191.84C370.826 191.205 370.957 190.776 371.218 190.552C371.48 190.291 371.909 190.16 372.506 190.16H377.938C378.461 190.16 378.853 190.272 379.114 190.496C379.413 190.683 379.656 191.056 379.842 191.616L380.29 193.072C382.045 191.765 383.762 190.813 385.442 190.216C387.122 189.619 388.896 189.32 390.762 189.32C393.45 189.32 395.504 190.048 396.922 191.504C398.341 192.96 399.05 195.032 399.05 197.72V217.32C399.05 217.917 398.92 218.347 398.658 218.608C398.434 218.869 398.005 219 397.37 219H390.202C389.605 219 389.176 218.869 388.914 218.608C388.653 218.347 388.522 217.917 388.522 217.32V200.072C388.522 198.952 388.298 198.131 387.85 197.608C387.44 197.085 386.73 196.824 385.722 196.824C384.341 196.824 382.885 197.291 381.354 198.224V217.32C381.354 217.917 381.224 218.347 380.962 218.608C380.738 218.869 380.309 219 379.674 219H372.506ZM419.764 219.84C409.684 219.84 404.644 214.763 404.644 204.608C404.644 199.829 405.932 196.096 408.508 193.408C411.084 190.683 414.668 189.32 419.26 189.32C423.142 189.32 426.148 190.365 428.276 192.456C430.404 194.509 431.468 197.459 431.468 201.304C431.468 202.648 431.356 204.067 431.132 205.56C431.02 206.195 430.833 206.643 430.572 206.904C430.348 207.128 429.937 207.24 429.34 207.24H414.22C414.406 209.107 415.116 210.469 416.348 211.328C417.617 212.149 419.502 212.56 422.004 212.56C424.02 212.56 426.054 212.261 428.108 211.664C428.705 211.477 429.172 211.384 429.508 211.384C430.329 211.384 430.74 211.888 430.74 212.896V215.92C430.74 216.592 430.646 217.077 430.46 217.376C430.273 217.675 429.862 217.955 429.228 218.216C427.996 218.701 426.484 219.093 424.692 219.392C422.937 219.691 421.294 219.84 419.764 219.84ZM422.62 201.192V200.52C422.62 197.72 421.406 196.32 418.98 196.32C417.636 196.32 416.553 196.749 415.732 197.608C414.91 198.429 414.406 199.624 414.22 201.192H422.62ZM438.787 219C438.19 219 437.761 218.869 437.499 218.608C437.238 218.347 437.107 217.917 437.107 217.32V191.84C437.107 191.205 437.238 190.776 437.499 190.552C437.761 190.291 438.19 190.16 438.787 190.16H444.219C444.779 190.16 445.19 190.272 445.451 190.496C445.75 190.72 445.974 191.093 446.123 191.616L446.963 194.528C449.614 191.392 452.451 189.824 455.475 189.824C456.073 189.824 456.539 189.88 456.875 189.992C457.435 190.179 457.715 190.683 457.715 191.504V197.496C457.715 198.093 457.585 198.523 457.323 198.784C457.099 199.045 456.67 199.176 456.035 199.176C455.774 199.176 455.457 199.157 455.083 199.12C454.747 199.083 454.299 199.064 453.739 199.064C451.574 199.064 449.539 199.381 447.635 200.016V217.32C447.635 217.917 447.505 218.347 447.243 218.608C447.019 218.869 446.59 219 445.955 219H438.787Z" fill="#049796"/>
<path d="M477.465 219C476.867 219 476.438 218.869 476.177 218.608C475.915 218.347 475.785 217.917 475.785 217.32V181.872C475.785 181.237 475.915 180.808 476.177 180.584C476.438 180.323 476.867 180.192 477.465 180.192H491.689C496.131 180.192 499.641 181.368 502.217 183.72C504.83 186.035 506.137 189.227 506.137 193.296C506.137 197.365 504.83 200.576 502.217 202.928C499.641 205.243 496.131 206.4 491.689 206.4H486.201V217.32C486.201 217.917 486.07 218.347 485.809 218.608C485.585 218.869 485.155 219 484.521 219H477.465ZM490.121 198.56C491.838 198.56 493.163 198.093 494.097 197.16C495.03 196.227 495.497 194.939 495.497 193.296C495.497 191.653 495.03 190.365 494.097 189.432C493.163 188.499 491.838 188.032 490.121 188.032H486.201V198.56H490.121ZM519.674 219.84C516.688 219.84 514.466 219.037 513.01 217.432C511.554 215.827 510.826 213.4 510.826 210.152V179.24C510.826 178.605 510.957 178.176 511.218 177.952C511.48 177.691 511.909 177.56 512.506 177.56H519.674C520.309 177.56 520.738 177.691 520.962 177.952C521.224 178.176 521.354 178.605 521.354 179.24V209.312C521.354 211.179 521.933 212.112 523.09 212.112C523.389 212.112 523.632 212.093 523.818 212.056C524.042 212.019 524.266 212 524.49 212C524.901 212 525.218 212.131 525.442 212.392C525.704 212.653 525.834 213.008 525.834 213.456V216.928C525.834 217.675 525.722 218.216 525.498 218.552C525.312 218.851 524.92 219.075 524.322 219.224C522.978 219.635 521.429 219.84 519.674 219.84ZM537.852 220.008C535.052 220.008 532.812 219.205 531.132 217.6C529.452 215.957 528.612 213.811 528.612 211.16C528.612 209.256 529.116 207.595 530.124 206.176C531.132 204.72 532.514 203.619 534.268 202.872C536.023 202.088 538.02 201.696 540.26 201.696C542.09 201.696 543.77 201.864 545.3 202.2V200.744C545.3 199.213 544.946 198.149 544.236 197.552C543.527 196.917 542.276 196.6 540.484 196.6C539.514 196.6 538.375 196.712 537.068 196.936C535.799 197.123 534.66 197.365 533.652 197.664C532.831 197.925 532.252 198.056 531.916 198.056C531.244 198.056 530.908 197.571 530.908 196.6V193.464C530.908 192.792 531.002 192.307 531.188 192.008C531.375 191.709 531.786 191.429 532.42 191.168C535.482 189.936 539.047 189.32 543.116 189.32C547.223 189.32 550.228 190.16 552.132 191.84C554.074 193.483 555.044 196.096 555.044 199.68V217.32C555.044 217.917 554.914 218.347 554.652 218.608C554.428 218.869 553.999 219 553.364 219H548.212C547.69 219 547.279 218.907 546.98 218.72C546.719 218.496 546.495 218.104 546.308 217.544L546.028 216.76C544.908 217.805 543.639 218.608 542.22 219.168C540.802 219.728 539.346 220.008 537.852 220.008ZM541.268 213.344C541.978 213.344 542.706 213.195 543.452 212.896C544.199 212.56 544.815 212.149 545.3 211.664V207.52C544.031 207.371 543.004 207.296 542.22 207.296C539.719 207.296 538.468 208.341 538.468 210.432C538.468 211.328 538.711 212.037 539.196 212.56C539.719 213.083 540.41 213.344 541.268 213.344ZM563.803 219C563.206 219 562.776 218.869 562.515 218.608C562.254 218.347 562.123 217.917 562.123 217.32V191.84C562.123 191.205 562.254 190.776 562.515 190.552C562.776 190.291 563.206 190.16 563.803 190.16H569.235C569.758 190.16 570.15 190.272 570.411 190.496C570.71 190.683 570.952 191.056 571.139 191.616L571.587 193.072C573.342 191.765 575.059 190.813 576.739 190.216C578.419 189.619 580.192 189.32 582.059 189.32C584.747 189.32 586.8 190.048 588.219 191.504C589.638 192.96 590.347 195.032 590.347 197.72V217.32C590.347 217.917 590.216 218.347 589.955 218.608C589.731 218.869 589.302 219 588.667 219H581.499C580.902 219 580.472 218.869 580.211 218.608C579.95 218.347 579.819 217.917 579.819 217.32V200.072C579.819 198.952 579.595 198.131 579.147 197.608C578.736 197.085 578.027 196.824 577.019 196.824C575.638 196.824 574.182 197.291 572.651 198.224V217.32C572.651 217.917 572.52 218.347 572.259 218.608C572.035 218.869 571.606 219 570.971 219H563.803ZM611.061 219.84C600.981 219.84 595.941 214.763 595.941 204.608C595.941 199.829 597.229 196.096 599.805 193.408C602.381 190.683 605.965 189.32 610.557 189.32C614.439 189.32 617.445 190.365 619.573 192.456C621.701 194.509 622.765 197.459 622.765 201.304C622.765 202.648 622.653 204.067 622.429 205.56C622.317 206.195 622.13 206.643 621.869 206.904C621.645 207.128 621.234 207.24 620.637 207.24H605.517C605.703 209.107 606.413 210.469 607.645 211.328C608.914 212.149 610.799 212.56 613.301 212.56C615.317 212.56 617.351 212.261 619.405 211.664C620.002 211.477 620.469 211.384 620.805 211.384C621.626 211.384 622.037 211.888 622.037 212.896V215.92C622.037 216.592 621.943 217.077 621.757 217.376C621.57 217.675 621.159 217.955 620.525 218.216C619.293 218.701 617.781 219.093 615.989 219.392C614.234 219.691 612.591 219.84 611.061 219.84ZM613.917 201.192V200.52C613.917 197.72 612.703 196.32 610.276 196.32C608.933 196.32 607.85 196.749 607.029 197.608C606.207 198.429 605.703 199.624 605.517 201.192H613.917ZM639.38 219.504C635.834 219.504 633.22 218.683 631.54 217.04C629.86 215.397 629.02 212.821 629.02 209.312V197.328H626.724C626.127 197.328 625.698 197.197 625.436 196.936C625.175 196.675 625.044 196.245 625.044 195.648V192.96C625.044 192.4 625.156 191.971 625.38 191.672C625.604 191.373 625.978 191.168 626.5 191.056L629.3 190.384L630.588 184.336C630.7 183.701 630.906 183.272 631.204 183.048C631.503 182.787 631.951 182.656 632.548 182.656H637.868C638.503 182.656 638.932 182.787 639.156 183.048C639.418 183.272 639.548 183.701 639.548 184.336V190.16H645.148C645.783 190.16 646.212 190.291 646.436 190.552C646.698 190.776 646.828 191.205 646.828 191.84V195.648C646.828 196.245 646.698 196.675 646.436 196.936C646.212 197.197 645.783 197.328 645.148 197.328H639.548V208.64C639.548 209.76 639.828 210.544 640.388 210.992C640.948 211.44 641.9 211.664 643.244 211.664C643.842 211.664 644.346 211.627 644.756 211.552C645.204 211.477 645.578 211.44 645.876 211.44C646.25 211.44 646.511 211.552 646.66 211.776C646.847 212 646.94 212.373 646.94 212.896V216.48C646.94 217.189 646.828 217.712 646.604 218.048C646.418 218.347 646.026 218.589 645.428 218.776C643.636 219.261 641.62 219.504 639.38 219.504Z" fill="#2E2E2E"/>
<path d="M272.288 138.728C268.219 138.728 264.728 137.944 261.816 136.376C258.941 134.771 256.757 132.493 255.264 129.544C253.771 126.595 253.024 123.085 253.024 119.016C253.024 112.445 254.835 107.387 258.456 103.84C262.115 100.256 267.267 98.464 273.912 98.464C277.459 98.464 280.875 99.08 284.16 100.312C284.795 100.536 285.205 100.797 285.392 101.096C285.616 101.395 285.728 101.899 285.728 102.608V107.032C285.728 108.04 285.336 108.544 284.552 108.544C284.365 108.544 283.899 108.432 283.152 108.208C282.032 107.835 280.688 107.536 279.12 107.312C277.589 107.088 276.189 106.976 274.92 106.976C271.187 106.976 268.424 107.928 266.632 109.832C264.84 111.699 263.944 114.555 263.944 118.4V119.24C263.944 126.707 267.341 130.44 274.136 130.44C275.368 130.44 276.525 130.365 277.608 130.216V123.048H272.848C272.251 123.048 271.821 122.917 271.56 122.656C271.299 122.395 271.168 121.965 271.168 121.368V117.224C271.168 116.589 271.299 116.16 271.56 115.936C271.821 115.675 272.251 115.544 272.848 115.544H285.56C286.195 115.544 286.624 115.675 286.848 115.936C287.109 116.16 287.24 116.589 287.24 117.224V134.136C287.24 134.733 287.147 135.181 286.96 135.48C286.811 135.741 286.512 135.965 286.064 136.152C284.011 136.973 281.789 137.608 279.4 138.056C277.011 138.504 274.64 138.728 272.288 138.728ZM295.952 138C295.354 138 294.925 137.869 294.664 137.608C294.402 137.347 294.272 136.917 294.272 136.32V110.84C294.272 110.205 294.402 109.776 294.664 109.552C294.925 109.291 295.354 109.16 295.952 109.16H301.384C301.944 109.16 302.354 109.272 302.616 109.496C302.914 109.72 303.138 110.093 303.288 110.616L304.128 113.528C306.778 110.392 309.616 108.824 312.64 108.824C313.237 108.824 313.704 108.88 314.04 108.992C314.6 109.179 314.88 109.683 314.88 110.504V116.496C314.88 117.093 314.749 117.523 314.488 117.784C314.264 118.045 313.834 118.176 313.2 118.176C312.938 118.176 312.621 118.157 312.248 118.12C311.912 118.083 311.464 118.064 310.904 118.064C308.738 118.064 306.704 118.381 304.8 119.016V136.32C304.8 136.917 304.669 137.347 304.408 137.608C304.184 137.869 303.754 138 303.12 138H295.952ZM332.162 138.84C322.082 138.84 317.042 133.763 317.042 123.608C317.042 118.829 318.33 115.096 320.906 112.408C323.482 109.683 327.066 108.32 331.658 108.32C335.541 108.32 338.546 109.365 340.674 111.456C342.802 113.509 343.866 116.459 343.866 120.304C343.866 121.648 343.754 123.067 343.53 124.56C343.418 125.195 343.231 125.643 342.97 125.904C342.746 126.128 342.335 126.24 341.738 126.24H326.618C326.805 128.107 327.514 129.469 328.746 130.328C330.015 131.149 331.901 131.56 334.402 131.56C336.418 131.56 338.453 131.261 340.506 130.664C341.103 130.477 341.57 130.384 341.906 130.384C342.727 130.384 343.138 130.888 343.138 131.896V134.92C343.138 135.592 343.045 136.077 342.858 136.376C342.671 136.675 342.261 136.955 341.626 137.216C340.394 137.701 338.882 138.093 337.09 138.392C335.335 138.691 333.693 138.84 332.162 138.84ZM335.018 120.192V119.52C335.018 116.72 333.805 115.32 331.378 115.32C330.034 115.32 328.951 115.749 328.13 116.608C327.309 117.429 326.805 118.624 326.618 120.192H335.018ZM363.17 138.84C353.09 138.84 348.05 133.763 348.05 123.608C348.05 118.829 349.338 115.096 351.914 112.408C354.49 109.683 358.074 108.32 362.666 108.32C366.549 108.32 369.554 109.365 371.682 111.456C373.81 113.509 374.874 116.459 374.874 120.304C374.874 121.648 374.762 123.067 374.538 124.56C374.426 125.195 374.239 125.643 373.978 125.904C373.754 126.128 373.343 126.24 372.746 126.24H357.626C357.813 128.107 358.522 129.469 359.754 130.328C361.023 131.149 362.909 131.56 365.41 131.56C367.426 131.56 369.461 131.261 371.514 130.664C372.111 130.477 372.578 130.384 372.914 130.384C373.735 130.384 374.146 130.888 374.146 131.896V134.92C374.146 135.592 374.053 136.077 373.866 136.376C373.679 136.675 373.269 136.955 372.634 137.216C371.402 137.701 369.89 138.093 368.098 138.392C366.343 138.691 364.701 138.84 363.17 138.84ZM366.026 120.192V119.52C366.026 116.72 364.813 115.32 362.386 115.32C361.042 115.32 359.959 115.749 359.138 116.608C358.317 117.429 357.813 118.624 357.626 120.192H366.026ZM382.194 138C381.596 138 381.167 137.869 380.906 137.608C380.644 137.347 380.514 136.917 380.514 136.32V110.84C380.514 110.205 380.644 109.776 380.906 109.552C381.167 109.291 381.596 109.16 382.194 109.16H387.626C388.148 109.16 388.54 109.272 388.802 109.496C389.1 109.683 389.343 110.056 389.53 110.616L389.978 112.072C391.732 110.765 393.45 109.813 395.13 109.216C396.81 108.619 398.583 108.32 400.45 108.32C403.138 108.32 405.191 109.048 406.61 110.504C408.028 111.96 408.738 114.032 408.738 116.72V136.32C408.738 136.917 408.607 137.347 408.346 137.608C408.122 137.869 407.692 138 407.058 138H399.89C399.292 138 398.863 137.869 398.602 137.608C398.34 137.347 398.21 136.917 398.21 136.32V119.072C398.21 117.952 397.986 117.131 397.538 116.608C397.127 116.085 396.418 115.824 395.41 115.824C394.028 115.824 392.572 116.291 391.042 117.224V136.32C391.042 136.917 390.911 137.347 390.65 137.608C390.426 137.869 389.996 138 389.362 138H382.194ZM429.451 138.84C419.371 138.84 414.331 133.763 414.331 123.608C414.331 118.829 415.619 115.096 418.195 112.408C420.771 109.683 424.355 108.32 428.947 108.32C432.83 108.32 435.835 109.365 437.963 111.456C440.091 113.509 441.155 116.459 441.155 120.304C441.155 121.648 441.043 123.067 440.819 124.56C440.707 125.195 440.52 125.643 440.259 125.904C440.035 126.128 439.624 126.24 439.027 126.24H423.907C424.094 128.107 424.803 129.469 426.035 130.328C427.304 131.149 429.19 131.56 431.691 131.56C433.707 131.56 435.742 131.261 437.795 130.664C438.392 130.477 438.859 130.384 439.195 130.384C440.016 130.384 440.427 130.888 440.427 131.896V134.92C440.427 135.592 440.334 136.077 440.147 136.376C439.96 136.675 439.55 136.955 438.915 137.216C437.683 137.701 436.171 138.093 434.379 138.392C432.624 138.691 430.982 138.84 429.451 138.84ZM432.307 120.192V119.52C432.307 116.72 431.094 115.32 428.667 115.32C427.323 115.32 426.24 115.749 425.419 116.608C424.598 117.429 424.094 118.624 423.907 120.192H432.307ZM448.475 138C447.878 138 447.448 137.869 447.187 137.608C446.926 137.347 446.795 136.917 446.795 136.32V110.84C446.795 110.205 446.926 109.776 447.187 109.552C447.448 109.291 447.878 109.16 448.475 109.16H453.907C454.467 109.16 454.878 109.272 455.139 109.496C455.438 109.72 455.662 110.093 455.811 110.616L456.651 113.528C459.302 110.392 462.139 108.824 465.163 108.824C465.76 108.824 466.227 108.88 466.563 108.992C467.123 109.179 467.403 109.683 467.403 110.504V116.496C467.403 117.093 467.272 117.523 467.011 117.784C466.787 118.045 466.358 118.176 465.723 118.176C465.462 118.176 465.144 118.157 464.771 118.12C464.435 118.083 463.987 118.064 463.427 118.064C461.262 118.064 459.227 118.381 457.323 119.016V136.32C457.323 136.917 457.192 137.347 456.931 137.608C456.707 137.869 456.278 138 455.643 138H448.475Z" fill="#48A145"/>
<path d="M492.36 139.008C489.56 139.008 487.32 138.205 485.64 136.6C483.96 134.957 483.12 132.811 483.12 130.16C483.12 128.256 483.624 126.595 484.632 125.176C485.64 123.72 487.021 122.619 488.776 121.872C490.531 121.088 492.528 120.696 494.768 120.696C496.597 120.696 498.277 120.864 499.808 121.2V119.744C499.808 118.213 499.453 117.149 498.744 116.552C498.035 115.917 496.784 115.6 494.992 115.6C494.021 115.6 492.883 115.712 491.576 115.936C490.307 116.123 489.168 116.365 488.16 116.664C487.339 116.925 486.76 117.056 486.424 117.056C485.752 117.056 485.416 116.571 485.416 115.6V112.464C485.416 111.792 485.509 111.307 485.696 111.008C485.883 110.709 486.293 110.429 486.928 110.168C489.989 108.936 493.555 108.32 497.624 108.32C501.731 108.32 504.736 109.16 506.64 110.84C508.581 112.483 509.552 115.096 509.552 118.68V136.32C509.552 136.917 509.421 137.347 509.16 137.608C508.936 137.869 508.507 138 507.872 138H502.72C502.197 138 501.787 137.907 501.488 137.72C501.227 137.496 501.003 137.104 500.816 136.544L500.536 135.76C499.416 136.805 498.147 137.608 496.728 138.168C495.309 138.728 493.853 139.008 492.36 139.008ZM495.776 132.344C496.485 132.344 497.213 132.195 497.96 131.896C498.707 131.56 499.323 131.149 499.808 130.664V126.52C498.539 126.371 497.512 126.296 496.728 126.296C494.227 126.296 492.976 127.341 492.976 129.432C492.976 130.328 493.219 131.037 493.704 131.56C494.227 132.083 494.917 132.344 495.776 132.344ZM518.311 138C517.714 138 517.284 137.869 517.023 137.608C516.762 137.347 516.631 136.917 516.631 136.32V110.84C516.631 110.205 516.762 109.776 517.023 109.552C517.284 109.291 517.714 109.16 518.311 109.16H523.743C524.266 109.16 524.658 109.272 524.919 109.496C525.218 109.683 525.46 110.056 525.647 110.616L526.095 112.072C527.85 110.765 529.567 109.813 531.247 109.216C532.927 108.619 534.7 108.32 536.567 108.32C539.255 108.32 541.308 109.048 542.727 110.504C544.146 111.96 544.855 114.032 544.855 116.72V136.32C544.855 136.917 544.724 137.347 544.463 137.608C544.239 137.869 543.81 138 543.175 138H536.007C535.41 138 534.98 137.869 534.719 137.608C534.458 137.347 534.327 136.917 534.327 136.32V119.072C534.327 117.952 534.103 117.131 533.655 116.608C533.244 116.085 532.535 115.824 531.527 115.824C530.146 115.824 528.69 116.291 527.159 117.224V136.32C527.159 136.917 527.028 137.347 526.767 137.608C526.543 137.869 526.114 138 525.479 138H518.311ZM562.152 138.616C558.494 138.616 555.619 137.291 553.528 134.64C551.475 131.989 550.448 128.349 550.448 123.72C550.448 120.547 550.952 117.803 551.96 115.488C553.006 113.173 554.443 111.4 556.272 110.168C558.102 108.936 560.192 108.32 562.544 108.32C565.12 108.32 567.379 109.029 569.32 110.448V98.24C569.32 97.6053 569.451 97.176 569.712 96.952C569.974 96.6907 570.403 96.56 571 96.56H578.168C578.803 96.56 579.232 96.6907 579.456 96.952C579.718 97.176 579.848 97.6053 579.848 98.24V136.32C579.848 136.917 579.718 137.347 579.456 137.608C579.232 137.869 578.803 138 578.168 138H572.456C571.934 138 571.523 137.907 571.224 137.72C570.963 137.496 570.739 137.104 570.552 136.544L570.16 135.424C569.152 136.432 567.939 137.216 566.52 137.776C565.139 138.336 563.683 138.616 562.152 138.616ZM565.792 131.224C566.8 131.224 567.976 130.944 569.32 130.384V116.384C568.163 115.861 566.856 115.6 565.4 115.6C563.907 115.6 562.806 116.235 562.096 117.504C561.424 118.773 561.088 120.771 561.088 123.496C561.088 126.184 561.443 128.144 562.152 129.376C562.899 130.608 564.112 131.224 565.792 131.224Z" fill="#2E2E2E"/>
<path d="M173.735 57.728C167.313 57.728 162.423 56.0293 159.063 52.632C155.74 49.2347 154.079 44.2693 154.079 37.736C154.079 31.3147 155.815 26.3307 159.287 22.784C162.796 19.2373 167.668 17.464 173.903 17.464C176.889 17.464 179.689 17.856 182.303 18.64C182.9 18.8267 183.292 19.088 183.479 19.424C183.703 19.7227 183.815 20.2267 183.815 20.936V25.64C183.815 26.648 183.423 27.152 182.639 27.152C182.452 27.152 181.985 27.0587 181.239 26.872C179.409 26.4613 177.58 26.256 175.751 26.256C172.316 26.256 169.721 27.1707 167.967 29C166.212 30.792 165.335 33.4613 165.335 37.008V38.24C165.335 41.712 166.175 44.3627 167.855 46.192C169.572 48.0213 172.092 48.936 175.415 48.936C177.729 48.936 179.895 48.6933 181.911 48.208C182.508 48.0587 182.937 47.984 183.199 47.984C183.983 47.984 184.375 48.488 184.375 49.496V54.2C184.375 54.9093 184.263 55.432 184.039 55.768C183.852 56.0667 183.46 56.3093 182.863 56.496C180.324 57.3173 177.281 57.728 173.735 57.728Z" fill="#2E2E2E"/>
<g clip-path="url(#clip0_15800_43275)">
<path d="M241.223 36.5C241.223 49.3362 230.821 59.7421 217.991 59.7421C205.16 59.7421 194.758 49.3362 194.758 36.5C194.758 23.6637 205.159 13.2579 217.991 13.2579C230.822 13.2579 241.223 23.6637 241.223 36.5Z" fill="#AFF2D8"/>
<path d="M241.242 36.5C241.242 49.3362 230.841 59.7421 218.01 59.7421C216.37 59.7421 214.771 59.5712 213.227 59.2481C225.879 59.0405 236.072 48.7173 236.072 36.0109C236.072 24.8148 228.158 15.4687 217.621 13.2628C217.751 13.2607 217.88 13.2579 218.01 13.2579C230.841 13.2579 241.242 23.6637 241.242 36.5Z" fill="#A1E2CD"/>
<path d="M241.223 36.5C241.223 42.7294 238.773 48.3861 234.785 52.5591L217.603 36.0862C217.205 35.705 216.98 35.1779 216.98 34.627V30.6369C216.98 30.5037 216.967 30.371 216.941 30.2406L216.182 26.4448C216.05 25.7822 216.257 25.0972 216.735 24.6194L218.409 22.9446C218.788 22.5656 219.302 22.3527 219.837 22.3527H222.803C223.568 22.3527 224.267 21.9203 224.61 21.2355L225.513 19.4278C225.855 18.7431 226.555 18.3106 227.32 18.3106H232.452C237.797 22.5687 241.223 29.1337 241.223 36.5ZM205.419 42.5632H207.889C209.005 42.5632 209.91 41.6584 209.91 40.5421V39.7702C209.91 39.0046 209.477 38.3048 208.793 37.9625L206.986 37.0586C206.301 36.7163 205.869 36.0165 205.869 35.251V33.6685C205.869 33.5354 205.882 33.4027 205.908 33.2723L206.715 29.2367C206.82 28.7111 206.712 28.1652 206.415 27.7193L205.459 26.2842C205.084 25.722 204.453 25.3842 203.778 25.3842H202.306C201.992 25.3842 201.683 25.4573 201.402 25.5975L200.235 26.1813C199.955 26.3216 199.645 26.3946 199.332 26.3946H197.063C195.586 29.4504 194.758 32.8783 194.758 36.5C194.758 40.2861 195.663 43.8605 197.269 47.019C197.455 46.9716 197.639 46.8967 197.817 46.7897L204.379 42.8511C204.693 42.6626 205.052 42.5632 205.419 42.5632ZM215.45 54.3068L214.116 53.9731C213.392 53.792 212.827 53.2267 212.646 52.5025L212.372 51.4052C212.12 50.4005 211.151 49.7483 210.126 49.8947L205.001 50.6272C204.906 50.6407 204.811 50.6475 204.715 50.6475H199.558C203.356 55.5917 209.095 58.9654 215.636 59.6241C216.419 59.3457 216.981 58.6001 216.981 57.7211V56.2676C216.98 55.3401 216.35 54.5318 215.45 54.3068Z" fill="#8EC155"/>
<path d="M241.223 36.5C241.223 42.7294 238.773 48.3861 234.785 52.5592L231.692 49.5937C234.447 45.773 236.071 41.082 236.071 36.0109C236.071 28.921 232.897 22.5736 227.894 18.3105H232.452C237.797 22.5688 241.223 29.1337 241.223 36.5Z" fill="#84AB4F"/>
<path d="M238.333 51.7407L236.663 51.8006L237.979 52.8305C239.551 54.062 239.508 56.4569 237.892 57.6313L235.78 59.1665C234.165 60.3408 231.874 59.6417 231.19 57.765L230.617 56.1954L230.044 57.765C229.359 59.6418 227.069 60.3409 225.454 59.1665L223.341 57.6313C221.726 56.457 221.683 54.0621 223.255 52.8305L224.57 51.8006L222.901 51.7407C220.906 51.6691 219.533 49.7063 220.15 47.8062L220.957 45.322C221.574 43.4219 223.838 42.6409 225.494 43.7566L226.88 44.6896L226.421 43.0831C225.872 41.162 227.314 39.2498 229.311 39.2498H231.922C233.919 39.2498 235.361 41.162 234.812 43.0831L234.354 44.6896L235.739 43.7566C237.396 42.6409 239.659 43.4219 240.276 45.322L241.083 47.8062C241.701 49.7063 240.328 51.6691 238.333 51.7407Z" fill="#FF98B1"/>
<path d="M238.332 51.7407L236.663 51.8006L237.978 52.8305C239.551 54.062 239.508 56.4568 237.892 57.6312L235.78 59.1665C234.165 60.3408 231.874 59.6416 231.19 57.7649L230.617 56.1954L230.044 57.7649C229.359 59.6417 227.07 60.3409 225.454 59.1665L223.341 57.6312C223.105 57.4595 222.903 57.261 222.734 57.0444C228.017 54.5469 232.207 50.1163 234.391 44.6644L235.739 43.7566C237.396 42.641 239.66 43.4219 240.277 45.3221L241.083 47.8062C241.701 49.7063 240.328 51.669 238.332 51.7407Z" fill="#FF728D"/>
<path d="M236.67 49.8351C236.67 53.1797 233.96 55.8911 230.617 55.8911C227.274 55.8911 224.564 53.1797 224.564 49.8351C224.564 46.4905 227.274 43.7791 230.617 43.7791C233.96 43.7791 236.67 46.4906 236.67 49.8351Z" fill="#FFC4BC"/>
<path d="M233.64 49.8351C233.64 51.5054 232.287 52.8595 230.617 52.8595C228.947 52.8595 227.594 51.5054 227.594 49.8351C227.594 48.1648 228.947 46.8107 230.617 46.8107C232.287 46.8108 233.64 48.1649 233.64 49.8351Z" fill="#FFF2D8"/>
<path d="M230.626 53.6162C232.71 53.6162 234.407 51.9195 234.407 49.834C234.407 47.7484 232.71 46.0518 230.626 46.0518C228.541 46.0518 226.845 47.7485 226.845 49.834C226.845 51.9194 228.541 53.6162 230.626 53.6162ZM230.626 47.5675C231.875 47.5675 232.891 48.5842 232.891 49.8339C232.891 51.0837 231.875 52.1004 230.626 52.1004C229.377 52.1004 228.36 51.0837 228.36 49.8339C228.36 48.5843 229.377 47.5675 230.626 47.5675ZM220.88 48.0392C220.594 48.9204 220.871 49.874 221.585 50.4684C221.907 50.736 221.95 51.2141 221.682 51.5357C221.533 51.7158 221.317 51.8087 221.1 51.8087C220.929 51.8087 220.757 51.7513 220.615 51.6334C219.422 50.6399 218.96 49.0453 219.439 47.571L220.245 45.0868C220.614 43.9527 221.471 43.0794 222.598 42.6908C223.725 42.3024 224.938 42.4613 225.927 43.127L227.312 44.0598C227.66 44.2935 227.752 44.7645 227.518 45.1118C227.284 45.459 226.813 45.5511 226.466 45.3172L225.08 44.3842C224.49 43.9867 223.765 43.8919 223.092 44.1237C222.419 44.3558 221.907 44.8775 221.687 45.5549L220.88 48.0392ZM240.218 29.6772C240.623 29.5678 241.038 29.8066 241.148 30.2106C241.7 32.2507 241.98 34.3664 241.98 36.4992C241.98 38.2796 241.784 40.0554 241.398 41.7775C241.319 42.1301 241.006 42.3696 240.659 42.3696C240.604 42.3696 240.548 42.3635 240.493 42.351C240.084 42.2593 239.827 41.854 239.919 41.4456C240.281 39.8322 240.465 38.1679 240.465 36.4991C240.465 34.4999 240.202 32.5175 239.685 30.6065C239.575 30.2027 239.814 29.7865 240.218 29.6772ZM205.851 16.6645C205.644 16.3008 205.771 15.8381 206.134 15.6308C209.729 13.5827 213.829 12.5 217.99 12.5C227.645 12.5 236.318 18.2461 240.087 27.139C240.25 27.5244 240.07 27.9692 239.685 28.1325C239.3 28.2961 238.854 28.1159 238.691 27.7305C237.229 24.2798 234.978 21.3345 232.2 19.0683H227.319C226.838 19.0683 226.406 19.3358 226.19 19.7665L225.287 21.574C224.813 22.5216 223.861 23.1103 222.802 23.1103H219.837C219.5 23.1103 219.183 23.2416 218.945 23.4801L217.271 25.1547C216.971 25.4542 216.842 25.8808 216.925 26.2961L217.684 30.0915C217.72 30.2708 217.738 30.4541 217.738 30.6365V34.6265C217.738 34.9692 217.88 35.3014 218.127 35.5385L222.555 39.7835C222.857 40.0732 222.867 40.5529 222.578 40.8551C222.429 41.0103 222.23 41.0885 222.03 41.0885C221.842 41.0885 221.653 41.0186 221.506 40.8777L217.078 36.6327C216.534 36.1112 216.222 35.38 216.222 34.6265V30.6365C216.222 30.5534 216.214 30.47 216.198 30.3884L215.439 26.5933C215.256 25.68 215.541 24.7418 216.199 24.0834L217.873 22.4086C218.397 21.8836 219.095 21.5947 219.837 21.5947H222.802C223.283 21.5947 223.716 21.3272 223.931 20.8965L224.835 19.089C225.308 18.1414 226.26 17.5528 227.319 17.5528H230.107C226.566 15.2878 222.387 14.0159 217.99 14.0159C214.092 14.0159 210.251 15.0298 206.885 16.948C206.521 17.155 206.058 17.0279 205.851 16.6645ZM239.781 54.2611C240.165 55.768 239.602 57.3308 238.347 58.2429L236.234 59.7781C235.58 60.254 234.813 60.5001 234.032 60.5001C233.662 60.5001 233.29 60.4452 232.924 60.3336C231.784 59.9857 230.895 59.1436 230.486 58.0234L229.914 56.4538C229.77 56.0606 229.973 55.6256 230.366 55.482C230.759 55.3385 231.194 55.5411 231.338 55.9343L231.91 57.5038C232.154 58.173 232.685 58.676 233.366 58.8838C234.047 59.0917 234.767 58.9707 235.343 58.5522L237.455 57.0169C238.205 56.4718 238.542 55.537 238.312 54.6352C238.209 54.2295 238.454 53.817 238.859 53.7137C239.265 53.6109 239.678 53.8554 239.781 54.2611ZM241.317 50.8931C240.634 51.8697 239.559 52.4542 238.368 52.4969L236.699 52.5568C236.69 52.5571 236.681 52.5573 236.672 52.5573C236.266 52.5573 235.929 52.2358 235.915 51.8266C235.9 51.4084 236.227 51.0571 236.645 51.0421L238.314 50.9822C239.025 50.9566 239.667 50.6075 240.075 50.0244C240.483 49.4406 240.591 48.7171 240.371 48.0394L239.564 45.5552C239.287 44.7025 238.53 44.0959 237.635 44.0099C237.218 43.9699 236.913 43.5998 236.953 43.1832C236.993 42.7665 237.363 42.4614 237.78 42.5011C239.276 42.6448 240.542 43.6598 241.006 45.087L241.813 47.5712C242.181 48.7052 242 49.9161 241.317 50.8931ZM234.363 45.4467C234.294 45.4467 234.224 45.4372 234.154 45.4173C233.752 45.3023 233.519 44.8828 233.634 44.4805L234.093 42.874C234.288 42.1888 234.155 41.4698 233.726 40.901C233.297 40.3328 232.643 40.0069 231.931 40.0069H229.32C228.362 40.0069 227.506 40.6178 227.192 41.5271C227.056 41.9226 226.624 42.1329 226.228 41.9958C225.833 41.8591 225.623 41.4277 225.76 41.032C226.285 39.5121 227.716 38.4911 229.32 38.4911H231.931C233.123 38.4911 234.218 39.0367 234.936 39.9881C235.654 40.94 235.878 42.1434 235.55 43.2901L235.091 44.8966C234.996 45.2296 234.693 45.4467 234.363 45.4467ZM221.682 58.681C220.289 58.9113 218.851 59.0106 217.436 58.9762C217.63 58.5946 217.738 58.1659 217.738 57.7198V56.2664C217.738 54.9889 216.873 53.8803 215.634 53.5706L214.299 53.2367C213.846 53.1235 213.494 52.7713 213.381 52.3179L213.107 51.2205C212.76 49.8344 211.433 48.9412 210.018 49.1435L204.894 49.876C204.835 49.8845 204.775 49.8887 204.715 49.8887H199.946C199.35 49.088 198.808 48.2476 198.322 47.3705L204.769 43.5005C204.965 43.3827 205.19 43.3205 205.419 43.3205H207.889C209.421 43.3205 210.667 42.0739 210.667 40.5417V39.7697C210.667 38.7105 210.079 37.758 209.132 37.2843L207.325 36.3805C206.894 36.1651 206.627 35.7322 206.627 35.2507V33.6683C206.627 33.5852 206.635 33.502 206.651 33.4205L207.458 29.3851C207.604 28.6573 207.457 27.9164 207.046 27.2988L206.089 25.864C205.573 25.089 204.709 24.6263 203.778 24.6263H202.306C201.876 24.6263 201.447 24.7277 201.063 24.9197L199.896 25.5034C199.721 25.5906 199.526 25.6367 199.331 25.6367H198.29C199.794 22.9139 201.876 20.4979 204.458 18.5466C204.792 18.2942 204.858 17.819 204.606 17.4851C204.354 17.1512 203.878 17.0847 203.544 17.3373C200.645 19.5283 198.243 22.394 196.598 25.6248C194.874 29.0127 194 32.6713 194 36.4993C194 42.9097 196.495 48.9364 201.026 53.4692C205.558 58.0021 211.582 60.4985 217.99 60.4985C219.311 60.4985 220.636 60.3902 221.93 60.1764C222.342 60.108 222.622 59.718 222.554 59.305C222.485 58.8921 222.095 58.6131 221.682 58.681ZM195.516 36.4993C195.516 33.2057 196.214 30.0344 197.528 27.1523H199.331C199.761 27.1523 200.19 27.0508 200.574 26.8589L201.741 26.2752C201.915 26.188 202.111 26.1418 202.306 26.1418H203.778C204.201 26.1418 204.593 26.352 204.828 26.7042L205.784 28.1391C205.971 28.4199 206.038 28.7567 205.972 29.0876L205.165 33.1227C205.129 33.3016 205.111 33.4851 205.111 33.6678V35.2502C205.111 36.3096 205.7 37.262 206.647 37.7357L208.454 38.6396C208.884 38.8549 209.151 39.2878 209.151 39.7693V40.5412C209.151 41.2377 208.585 41.8044 207.889 41.8044H205.418C204.915 41.8044 204.421 41.9412 203.989 42.2004L197.63 46.0171C196.274 43.1254 195.516 39.899 195.516 36.4993ZM216.222 57.7197C216.222 58.2004 215.947 58.6365 215.523 58.8482C209.838 58.2245 204.784 55.4703 201.177 51.4041H204.715C204.846 51.4041 204.978 51.3947 205.108 51.3762L210.233 50.6437C210.876 50.552 211.479 50.9577 211.636 51.5877L211.91 52.6849C212.16 53.6828 212.934 54.4574 213.932 54.7069L215.266 55.0407C215.829 55.1816 216.222 55.6855 216.222 56.2663V57.7197H216.222ZM229.215 59.1153C229.396 59.4928 229.237 59.9455 228.86 60.1262C228.34 60.3749 227.783 60.4974 227.229 60.4974C226.448 60.4974 225.672 60.2541 225.017 59.7781L222.905 58.2429C221.941 57.5423 221.376 56.4568 221.354 55.2647C221.333 54.0727 221.859 52.9675 222.797 52.2327L224.112 51.2028C224.442 50.9445 224.918 51.0027 225.176 51.3322C225.434 51.6617 225.376 52.138 225.047 52.3961L223.732 53.4259C223.171 53.8651 222.857 54.5254 222.87 55.2376C222.883 55.9498 223.22 56.5982 223.796 57.0168L225.908 58.5521C226.577 59.0381 227.457 59.1175 228.205 58.7593C228.582 58.5785 229.035 58.7378 229.215 59.1153Z" fill="black"/>
</g>
<path d="M263.973 57.616C260.314 57.616 257.439 56.2907 255.349 53.64C253.295 50.9893 252.269 47.3493 252.269 42.72C252.269 39.5467 252.773 36.8027 253.781 34.488C254.826 32.1733 256.263 30.4 258.093 29.168C259.922 27.936 262.013 27.32 264.365 27.32C266.941 27.32 269.199 28.0293 271.141 29.448V17.24C271.141 16.6053 271.271 16.176 271.533 15.952C271.794 15.6907 272.223 15.56 272.821 15.56H279.989C280.623 15.56 281.053 15.6907 281.277 15.952C281.538 16.176 281.669 16.6053 281.669 17.24V55.32C281.669 55.9173 281.538 56.3467 281.277 56.608C281.053 56.8693 280.623 57 279.989 57H274.277C273.754 57 273.343 56.9067 273.045 56.72C272.783 56.496 272.559 56.104 272.373 55.544L271.981 54.424C270.973 55.432 269.759 56.216 268.341 56.776C266.959 57.336 265.503 57.616 263.973 57.616ZM267.613 50.224C268.621 50.224 269.797 49.944 271.141 49.384V35.384C269.983 34.8613 268.677 34.6 267.221 34.6C265.727 34.6 264.626 35.2347 263.917 36.504C263.245 37.7733 262.909 39.7707 262.909 42.496C262.909 45.184 263.263 47.144 263.973 48.376C264.719 49.608 265.933 50.224 267.613 50.224ZM302.498 57.84C292.418 57.84 287.378 52.7627 287.378 42.608C287.378 37.8293 288.666 34.096 291.242 31.408C293.818 28.6827 297.402 27.32 301.994 27.32C305.877 27.32 308.882 28.3653 311.01 30.456C313.138 32.5093 314.202 35.4587 314.202 39.304C314.202 40.648 314.09 42.0667 313.866 43.56C313.754 44.1947 313.567 44.6427 313.306 44.904C313.082 45.128 312.671 45.24 312.074 45.24H296.954C297.141 47.1067 297.85 48.4693 299.082 49.328C300.351 50.1493 302.237 50.56 304.738 50.56C306.754 50.56 308.789 50.2613 310.842 49.664C311.439 49.4773 311.906 49.384 312.242 49.384C313.063 49.384 313.474 49.888 313.474 50.896V53.92C313.474 54.592 313.381 55.0773 313.194 55.376C313.007 55.6747 312.597 55.9547 311.962 56.216C310.73 56.7013 309.218 57.0933 307.426 57.392C305.671 57.6907 304.029 57.84 302.498 57.84ZM305.354 39.192V38.52C305.354 35.72 304.141 34.32 301.714 34.32C300.37 34.32 299.287 34.7493 298.466 35.608C297.645 36.4293 297.141 37.624 296.954 39.192H305.354ZM336.476 57C335.879 57 335.45 56.8693 335.188 56.608C334.927 56.3467 334.796 55.9173 334.796 55.32V35.328H332.276C331.679 35.328 331.25 35.1973 330.988 34.936C330.727 34.6747 330.596 34.2453 330.596 33.648V30.96C330.596 30.4 330.708 29.9707 330.932 29.672C331.156 29.3733 331.53 29.168 332.052 29.056L334.796 28.44V26.984C334.796 18.8453 338.716 14.776 346.556 14.776C348.274 14.776 349.991 14.9813 351.708 15.392C352.306 15.5787 352.698 15.84 352.884 16.176C353.108 16.4747 353.22 16.9787 353.22 17.688V21.16C353.22 22.168 352.828 22.672 352.044 22.672C351.671 22.672 351.316 22.6533 350.98 22.616C350.682 22.5413 350.215 22.504 349.58 22.504C348.012 22.504 346.911 22.784 346.276 23.344C345.642 23.8667 345.324 24.8373 345.324 26.256V28.16H351.204C351.839 28.16 352.268 28.2907 352.492 28.552C352.754 28.776 352.884 29.2053 352.884 29.84V33.648C352.884 34.2453 352.754 34.6747 352.492 34.936C352.268 35.1973 351.839 35.328 351.204 35.328H345.324V55.32C345.324 55.9173 345.194 56.3467 344.932 56.608C344.708 56.8693 344.279 57 343.644 57H336.476ZM369.924 57.84C365.257 57.84 361.598 56.496 358.948 53.808C356.297 51.12 354.972 47.368 354.972 42.552C354.972 37.7733 356.297 34.04 358.948 31.352C361.598 28.664 365.257 27.32 369.924 27.32C374.59 27.32 378.249 28.664 380.9 31.352C383.55 34.04 384.876 37.7733 384.876 42.552C384.876 47.368 383.55 51.12 380.9 53.808C378.249 56.496 374.59 57.84 369.924 57.84ZM369.924 50.448C372.798 50.448 374.236 47.816 374.236 42.552C374.236 37.3253 372.798 34.712 369.924 34.712C367.049 34.712 365.612 37.3253 365.612 42.552C365.612 47.816 367.049 50.448 369.924 50.448ZM392.287 57C391.69 57 391.261 56.8693 390.999 56.608C390.738 56.3467 390.607 55.9173 390.607 55.32V29.84C390.607 29.2053 390.738 28.776 390.999 28.552C391.261 28.2907 391.69 28.16 392.287 28.16H397.719C398.279 28.16 398.69 28.272 398.951 28.496C399.25 28.72 399.474 29.0933 399.623 29.616L400.463 32.528C403.114 29.392 405.951 27.824 408.975 27.824C409.573 27.824 410.039 27.88 410.375 27.992C410.935 28.1787 411.215 28.6827 411.215 29.504V35.496C411.215 36.0933 411.085 36.5227 410.823 36.784C410.599 37.0453 410.17 37.176 409.535 37.176C409.274 37.176 408.957 37.1573 408.583 37.12C408.247 37.0827 407.799 37.064 407.239 37.064C405.074 37.064 403.039 37.3813 401.135 38.016V55.32C401.135 55.9173 401.005 56.3467 400.743 56.608C400.519 56.8693 400.09 57 399.455 57H392.287ZM436.173 58.008C433.373 58.008 431.133 57.2053 429.453 55.6C427.773 53.9573 426.933 51.8107 426.933 49.16C426.933 47.256 427.437 45.5947 428.445 44.176C429.453 42.72 430.834 41.6187 432.589 40.872C434.343 40.088 436.341 39.696 438.581 39.696C440.41 39.696 442.09 39.864 443.621 40.2V38.744C443.621 37.2133 443.266 36.1493 442.557 35.552C441.847 34.9173 440.597 34.6 438.805 34.6C437.834 34.6 436.695 34.712 435.389 34.936C434.119 35.1227 432.981 35.3653 431.973 35.664C431.151 35.9253 430.573 36.056 430.237 36.056C429.565 36.056 429.229 35.5707 429.229 34.6V31.464C429.229 30.792 429.322 30.3067 429.509 30.008C429.695 29.7093 430.106 29.4293 430.741 29.168C433.802 27.936 437.367 27.32 441.437 27.32C445.543 27.32 448.549 28.16 450.453 29.84C452.394 31.4827 453.365 34.096 453.365 37.68V55.32C453.365 55.9173 453.234 56.3467 452.973 56.608C452.749 56.8693 452.319 57 451.685 57H446.533C446.01 57 445.599 56.9067 445.301 56.72C445.039 56.496 444.815 56.104 444.629 55.544L444.349 54.76C443.229 55.8053 441.959 56.608 440.541 57.168C439.122 57.728 437.666 58.008 436.173 58.008ZM439.589 51.344C440.298 51.344 441.026 51.1947 441.773 50.896C442.519 50.56 443.135 50.1493 443.621 49.664V45.52C442.351 45.3707 441.325 45.296 440.541 45.296C438.039 45.296 436.789 46.3413 436.789 48.432C436.789 49.328 437.031 50.0373 437.517 50.56C438.039 51.0827 438.73 51.344 439.589 51.344Z" fill="#2E2E2E"/>
<defs>
<clipPath id="clip0_15800_43275">
<rect width="48" height="48" fill="white" transform="translate(194 12.5)"/>
</clipPath>
</defs>
</svg>
