<svg width="32" height="32" viewBox="0 0 32 32" fill="none" xmlns="http://www.w3.org/2000/svg">
<path d="M13.7369 27.1413H16.4219V29.0113H13.7369V27.1413Z" fill="#59AEE4"/>
<path d="M8.39304 16.4175C8.39323 15.1862 8.73231 13.9786 9.37313 12.9271C10.014 11.8757 10.9318 11.0209 12.0261 10.4564C13.1204 9.89184 14.349 9.63938 15.5773 9.72665C16.8055 9.81392 17.9861 10.2375 18.9896 10.9511C19.9931 11.6647 20.7808 12.6407 21.2665 13.7722C21.7523 14.9037 21.9172 16.147 21.7433 17.3661C21.5694 18.5851 21.0633 19.7327 20.2806 20.6832C19.4978 21.6337 18.4686 22.3505 17.3055 22.755V23.5331H13.0524V22.8069C11.6994 22.3723 10.5192 21.5195 9.68186 20.3712C8.84452 19.223 8.39325 17.8386 8.39304 16.4175Z" fill="white"/>
<path d="M13.0523 23.5331H17.1504V25.4031H13.0523V23.5331Z" fill="#C6D0DC"/>
<path d="M12.9663 24.4682H17.0645V25.4032H12.9663V24.4682Z" fill="white"/>
<path d="M13.7656 27.1413H16.4219V28.0763H13.7656V27.1413Z" fill="#548FBF"/>
<path d="M8.39258 16.4175C8.39258 12.7125 10.9676 9.70941 14.1426 9.70941C17.3176 9.70941 19.8926 12.7125 19.8926 16.4175C19.8926 19.35 18.2795 21.6557 16.0313 22.5675V23.5332H12.887V22.8069C10.5701 21.9407 8.39258 19.4075 8.39258 16.4175Z" fill="#F7C648"/>
<path d="M9.33984 6.07818H10.1286V5.28943H10.8786V6.07818H11.668V6.82818H10.8786V7.61693H10.1286V6.82818H9.33984V6.07818Z" fill="#EF835E"/>
<path d="M3.77344 18.57H4.56281V17.7812H5.31281V18.57H6.10156V19.32H5.31281V20.1087H4.56281V19.32H3.77344V18.57Z" fill="#5CACDF"/>
<path d="M23.9785 18.57H24.7679V17.7812H25.5179V18.57H26.3066V19.32H25.5179V20.1087H24.7679V19.32H23.9785V18.57Z" fill="#EF835E"/>
<path d="M18.457 6.07818H19.2464V5.28943H19.9964V6.07818H20.7852V6.82818H19.9964V7.61693H19.2464V6.82818H18.457V6.07818Z" fill="black"/>
<path d="M15.1002 9.25568C16.7712 9.25638 18.3893 9.84146 19.6744 10.9096C20.9594 11.9777 21.8304 13.4616 22.1366 15.1043C22.4427 16.747 22.1648 18.445 21.3508 19.9044C20.5368 21.3637 19.2381 22.4924 17.6796 23.0951V25.7782H12.5215V23.0963C10.9628 22.4937 9.66402 21.3649 8.84995 19.9055C8.03588 18.4462 7.7578 16.748 8.06389 15.1052C8.36997 13.4624 9.24094 11.9784 10.526 10.9101C11.811 9.84181 13.4291 9.25656 15.1002 9.25568ZM13.2715 25.0282H16.9296V23.9082H13.2715V25.0282ZM13.0183 22.4794L13.2715 22.5663V23.1582H16.9296V22.5626L17.1827 22.4757C18.6168 21.9829 19.8296 20.9975 20.6056 19.6947C21.3815 18.3919 21.6703 16.8561 21.4205 15.3604C21.1707 13.8647 20.3985 12.5061 19.2413 11.5262C18.0841 10.5462 16.6169 10.0084 15.1005 10.0084C13.5841 10.0084 12.1169 10.5462 10.9597 11.5262C9.8025 12.5061 9.03035 13.8647 8.78056 15.3604C8.53076 16.8561 8.81951 18.3919 9.59546 19.6947C10.3714 20.9975 11.5842 21.9829 13.0183 22.4757V22.4794Z" fill="black"/>
<path d="M16.7961 26.7325H17.918V27.4825H16.7961V29.42H13.3898V27.4825H12.2648V26.7325H16.7961ZM14.1398 28.67H16.0461V27.4825H14.1398V28.67Z" fill="black"/>
<path d="M15.0156 11.46V12.21C13.919 12.2113 12.8677 12.6476 12.0923 13.423C11.3169 14.1984 10.8807 15.2497 10.8794 16.3463H10.1294C10.1309 15.0508 10.6461 13.8088 11.5622 12.8928C12.4782 11.9768 13.7202 11.4615 15.0156 11.46Z" fill="black"/>
<path d="M12.6445 19.7369L12.2139 20.3513C11.3578 19.7498 10.7155 18.8912 10.3802 17.9001L11.0914 17.6619C11.3757 18.5009 11.9196 19.2277 12.6445 19.7369Z" fill="black"/>
<path d="M14.6387 4.85187H15.3887V8.12687H14.6387V4.85187Z" fill="black"/>
<path d="M24.0224 8.20789L24.5527 8.73822L22.237 11.054L21.7066 10.5237L24.0224 8.20789Z" fill="black"/>
<path d="M3.30117 15.0863H6.57617V15.8363H3.30117V15.0863Z" fill="black"/>
<path d="M6.59243 8.28505L8.9082 10.6008L8.37787 11.1312L6.0621 8.81538L6.59243 8.28505Z" fill="black"/>
<path d="M23.5043 15.0863H26.7793V15.8363H23.5043V15.0863Z" fill="black"/>
</svg>
