<svg width="24" height="25" viewBox="0 0 24 25" fill="none" xmlns="http://www.w3.org/2000/svg">
<g id="reshot-icon-student-CAFZT24976 1" clip-path="url(#clip0_13269_39862)">
<path id="Vector" d="M17.4918 17.2901C17.4918 15.6022 16.3287 14.0303 14.7643 13.6214L9.94836 13.6213C8.38395 14.0302 7.2207 15.6021 7.2207 17.2901L12.3562 18.6683L17.4918 17.2901Z" fill="#4BCDB2"/>
<path id="Vector_2" d="M14.2832 13.9769C14.2832 15.041 13.4206 15.9037 12.3564 15.9037C11.2923 15.9037 10.4297 15.0411 10.4297 13.9769V12.7339H14.2755L14.2832 13.9769Z" fill="#FF6243"/>
<path id="Vector_3" d="M12.358 14.3096C9.8365 14.3096 7.77344 12.2466 7.77344 9.72507V7.21135C7.77344 4.68989 9.83645 2.62683 12.358 2.62683C14.8794 2.62683 16.9425 4.68985 16.9425 7.21135V9.72507C16.9425 12.2466 14.8795 14.3096 12.358 14.3096Z" fill="#FF7956"/>
<g id="Group">
<path id="Vector_4" d="M12.3562 2.62695C12.1088 2.62695 11.866 2.64711 11.6289 2.68531C13.8079 3.03645 15.4861 4.93742 15.4861 7.21147V9.72519C15.4861 11.9993 13.808 13.9002 11.6289 14.2513C11.866 14.2895 12.1089 14.3097 12.3562 14.3097C14.8777 14.3097 16.9407 12.2467 16.9407 9.72519V7.21147C16.9407 4.68992 14.8777 2.62695 12.3562 2.62695Z" fill="#FF6243"/>
<path id="Vector_5" d="M16.9331 6.91443C17.7964 6.91443 18.4962 7.61423 18.4962 8.47748C18.4962 9.34073 17.7964 10.0405 16.9331 10.0405H15.9609V6.91448L16.9331 6.91443Z" fill="#FF6243"/>
</g>
<path id="Vector_6" d="M7.565 6.91443C6.70175 6.91443 6.00195 7.61423 6.00195 8.47748C6.00195 9.34073 6.70175 10.0405 7.565 10.0405H8.58397V6.91448L7.565 6.91443Z" fill="#FF7956"/>
<path id="Vector_7" d="M18.9987 22.4589V23.7017C18.9987 23.9117 18.8285 24.0819 18.6185 24.0819H6.14583C5.93587 24.0819 5.76562 23.9117 5.76562 23.7017V22.4589V19.4081V17.3628C5.76562 17.1141 6.00052 16.9323 6.24136 16.9949L12.2621 18.5576C12.3245 18.5738 12.39 18.5738 12.4525 18.5578L18.5237 16.9938C18.7643 16.9318 18.9987 17.1135 18.9987 17.3619V19.4082V22.4589Z" fill="#328777"/>
<g id="Group_2" opacity="0.36">
<path id="Vector_8" d="M12.3822 24.0816H6.14583C5.93587 24.0816 5.76562 23.9113 5.76562 23.7014V22.4585V19.4077V17.3624C5.76562 17.1137 6.00052 16.9319 6.24136 16.9945L12.2621 18.5572C12.3245 18.5734 12.39 18.5734 12.4525 18.5574L12.3822 24.0816Z" fill="#266659"/>
</g>
<path id="Vector_9" d="M18.9987 18.0075V17.3619C18.9987 17.1135 18.7643 16.9318 18.5237 16.9938L12.4525 18.5578C12.3901 18.5739 12.3246 18.5738 12.2622 18.5576L6.24136 16.9948C6.00061 16.9323 5.76562 17.1141 5.76562 17.3628V18.0074L12.3573 19.7182L18.9987 18.0075Z" fill="#266659"/>
<path id="Vector_10" d="M17.2226 22.1138L14.939 22.7478C14.6967 22.8151 14.457 22.6329 14.457 22.3815V21.2226C14.457 21.0518 14.5709 20.9019 14.7355 20.8562L17.0192 20.2222C17.2614 20.1549 17.501 20.3371 17.501 20.5885V21.7474C17.5011 21.9182 17.3872 22.0681 17.2226 22.1138Z" fill="#D3FDF9"/>
<g id="Group_3">
<path id="Vector_11" d="M5.76383 22.4593C6.60636 22.4593 7.28938 21.7763 7.28938 20.9338C7.28938 20.0912 6.60636 19.4082 5.76383 19.4082C4.92129 19.4082 4.23828 20.0912 4.23828 20.9338C4.23828 21.7763 4.92129 22.4593 5.76383 22.4593Z" fill="#FF7956"/>
<path id="Vector_12" d="M18.9963 22.4593C19.8388 22.4593 20.5218 21.7763 20.5218 20.9338C20.5218 20.0912 19.8388 19.4082 18.9963 19.4082C18.1537 19.4082 17.4707 20.0912 17.4707 20.9338C17.4707 21.7763 18.1537 22.4593 18.9963 22.4593Z" fill="#FF7956"/>
</g>
<path id="Vector_13" d="M12.8587 19.3446H11.8555V24.0818H12.8587V19.3446Z" fill="#266659"/>
<g id="Group_4">
<path id="Vector_14" d="M21.1639 14.9398H18.7168V12.4927C18.7168 11.1468 19.818 10.0457 21.1639 10.0457C22.5097 10.0457 23.6109 11.1468 23.6109 12.4927C23.6109 13.8386 22.5097 14.9398 21.1639 14.9398Z" fill="#C8EDD7"/>
<path id="Vector_15" d="M2.77128 14.1601H5.21834V11.7131C5.21834 10.3672 4.11716 9.26599 2.77128 9.26599C1.42541 9.26599 0.324219 10.3672 0.324219 11.7131C0.324219 13.0589 1.42541 14.1601 2.77128 14.1601Z" fill="#C8EDD7"/>
</g>
<g id="Group_5" opacity="0.31">
<path id="Vector_16" d="M7.40052 16.1448C7.28431 16.5116 7.2207 16.8975 7.2207 17.29L12.3562 18.6682L17.4918 17.29C17.4918 16.8975 17.4282 16.5116 17.312 16.1448H7.40052Z" fill="#3EAC92"/>
</g>
<g id="Group_6">
<path id="Vector_17" d="M10.5846 9.70878C10.464 9.82943 10.464 10.025 10.5846 10.1456C11.0817 10.6427 11.7347 10.8912 12.3877 10.8912C13.0406 10.8912 13.6936 10.6427 14.1907 10.1456C14.3113 10.025 14.3113 9.82939 14.1907 9.70878C14.0701 9.58817 13.8745 9.58817 13.7539 9.70878C13.0006 10.4621 11.7748 10.4622 11.0215 9.70878C10.9008 9.58812 10.7053 9.58812 10.5846 9.70878Z" fill="#50000F"/>
<path id="Vector_18" d="M10.6257 8.64774C10.8742 8.64774 11.0756 8.44631 11.0756 8.19783C11.0756 7.94935 10.8742 7.74792 10.6257 7.74792C10.3772 7.74792 10.1758 7.94935 10.1758 8.19783C10.1758 8.44631 10.3772 8.64774 10.6257 8.64774Z" fill="#50000F"/>
<path id="Vector_19" d="M14.1491 8.64774C14.3976 8.64774 14.599 8.44631 14.599 8.19783C14.599 7.94935 14.3976 7.74792 14.1491 7.74792C13.9006 7.74792 13.6992 7.94935 13.6992 8.19783C13.6992 8.44631 13.9006 8.64774 14.1491 8.64774Z" fill="#50000F"/>
<path id="Vector_20" d="M19.3855 18.9692V16.7545C19.3855 16.6443 19.3346 16.5404 19.2475 16.4728C19.1603 16.4053 19.0468 16.3818 18.9402 16.4095L17.8648 16.6865C17.741 15.2496 16.8488 13.9971 15.553 13.3992C16.482 12.6222 17.1222 11.5112 17.2867 10.2524C18.1914 10.098 18.8824 9.30883 18.8824 8.36083C18.8824 7.47213 18.2752 6.72273 17.454 6.50523V5.74455C17.454 2.95816 15.1741 0.678345 12.3877 0.678345C10.0241 0.678345 8.02533 2.31888 7.47305 4.51741C7.35436 4.94584 7.29061 5.39645 7.29061 5.86131V6.46605C6.37739 6.61319 5.67755 7.40664 5.67755 8.36073C5.67755 9.38397 6.48239 10.2226 7.49222 10.2773C7.66191 11.5257 8.29959 12.6274 9.22242 13.3992C7.9298 13.9956 7.03898 15.2434 6.91172 16.6759L5.88553 16.4096C5.77894 16.3818 5.66517 16.4051 5.57789 16.4726C5.49066 16.5401 5.43956 16.6443 5.43956 16.7545V18.9692C4.57177 19.1363 3.91406 19.901 3.91406 20.8168C3.91406 21.7326 4.57177 22.4973 5.43956 22.6644V23.9653C5.43956 24.1621 5.59912 24.3217 5.796 24.3217H11.886H12.8894H19.029C19.2259 24.3217 19.3855 24.1621 19.3855 23.9653V22.6644C20.2533 22.4972 20.911 21.7326 20.911 20.8168C20.911 19.901 20.2533 19.1363 19.3855 18.9692ZM18.6727 17.6144L12.7441 19.1417V18.7417L18.6727 17.2145V17.6144ZM18.1695 8.36073C18.1695 8.89863 17.8157 9.35528 17.3287 9.51053V7.21094C17.3584 7.22041 17.3875 7.23109 17.4161 7.24272C17.4191 7.25064 17.4216 7.25875 17.4231 7.26714V7.24548C17.8608 7.4268 18.1695 7.85833 18.1695 8.36073ZM6.39042 8.36073C6.39042 7.76364 6.82645 7.26672 7.39678 7.17105C7.41234 7.19261 7.42908 7.21009 7.4468 7.22392V9.55759C6.85219 9.48344 6.39042 8.97517 6.39042 8.36073ZM8.15962 9.60841V7.09469C8.15962 6.7607 8.19872 6.43567 8.27231 6.12381C8.60531 5.40775 9.03089 4.67186 9.54576 4.05461C11.0216 5.84983 14.2342 7.03525 16.6125 6.93578C16.6145 6.98852 16.6158 7.04144 16.6158 7.09464V9.60836C16.6158 11.1095 15.8293 12.4303 14.6468 13.1807C14.6205 13.1928 14.596 13.2083 14.5734 13.2264C13.9352 13.6134 13.187 13.8364 12.3877 13.8364C11.5887 13.8364 10.8408 13.6135 10.2028 13.2269C10.1798 13.2085 10.1549 13.1927 10.1281 13.1804C8.94595 12.43 8.15962 11.1094 8.15962 9.60841ZM14.2091 14.2014C14.028 15.0407 13.2803 15.6717 12.3877 15.6717C11.4951 15.6717 10.7474 15.0407 10.5663 14.2014C11.1301 14.4258 11.7448 14.5493 12.3877 14.5493C13.0306 14.5493 13.6452 14.4258 14.2091 14.2014ZM9.81436 13.9275C9.87698 15.2929 11.0071 16.3845 12.3877 16.3845C13.7682 16.3845 14.8984 15.2929 14.961 13.9275C16.2211 14.3679 17.096 15.5305 17.1623 16.8674L12.388 18.0973L7.61367 16.8581C7.68352 15.5252 8.55717 14.3669 9.81436 13.9275ZM12.0313 18.7412V19.1408L6.15248 17.615V17.2154L12.0313 18.7412ZM4.62698 20.8168C4.62698 20.1722 5.15142 19.6478 5.79605 19.6478C6.44067 19.6478 6.96506 20.1722 6.96506 20.8168C6.96506 21.4614 6.44067 21.9858 5.79605 21.9858C5.15142 21.9858 4.62698 21.4614 4.62698 20.8168ZM6.15248 22.6644C7.02023 22.4972 7.67794 21.7325 7.67794 20.8168C7.67794 19.901 7.02023 19.1363 6.15248 18.9692V18.3514L11.5296 19.747V23.6088H6.15248V22.6644ZM12.2424 23.6088V19.9321L12.2982 19.9465C12.3 19.947 12.3018 19.9471 12.3037 19.9475C12.3141 19.9501 12.3247 19.952 12.3354 19.9537C12.339 19.9542 12.3424 19.9548 12.346 19.9553C12.3597 19.9569 12.3736 19.9579 12.3877 19.9579C12.4018 19.9579 12.4156 19.9569 12.4292 19.9553C12.4328 19.9549 12.4363 19.9542 12.4398 19.9537C12.4504 19.9522 12.4608 19.9502 12.4711 19.9477C12.473 19.9473 12.4748 19.9472 12.4766 19.9467L12.533 19.9322V23.6088H12.2424ZM13.2459 23.6088V19.7485L18.6727 18.3505V18.9692C18.2361 19.0533 17.8526 19.2884 17.5794 19.6182C17.5332 19.612 17.4849 19.6149 17.4371 19.6282L14.3931 20.4733C14.2388 20.5161 14.132 20.6566 14.132 20.8167V22.7648C14.132 22.8761 14.1841 22.9811 14.2727 23.0485C14.3355 23.0962 14.4114 23.1212 14.4885 23.1212C14.5203 23.1212 14.5524 23.1169 14.5838 23.1082L17.6278 22.2631C17.6752 22.2499 17.7176 22.2279 17.7539 22.1991C18.0063 22.4321 18.3224 22.5969 18.6727 22.6644V23.6088H13.2459ZM17.3223 21.6081L14.8449 22.296V21.0878L17.1856 20.438C17.1605 20.5604 17.1473 20.6871 17.1473 20.8168C17.1472 21.0994 17.2102 21.3674 17.3223 21.6081ZM19.0291 21.9858C18.3845 21.9858 17.8601 21.4614 17.8601 20.8168C17.8601 20.1722 18.3845 19.6478 19.0291 19.6478C19.6737 19.6478 20.1982 20.1722 20.1982 20.8168C20.1982 21.4614 19.6737 21.9858 19.0291 21.9858Z" fill="#50000F"/>
<path id="Vector_21" d="M21.1961 9.57251C19.6502 9.57251 18.3926 10.8302 18.3926 12.376V14.823C18.3926 15.0199 18.5521 15.1795 18.749 15.1795H21.1961C22.7419 15.1795 23.9995 13.9218 23.9995 12.376C23.9995 10.8302 22.7419 9.57251 21.1961 9.57251ZM21.1961 14.4666H19.1055V12.376C19.1055 11.2233 20.0433 10.2854 21.1961 10.2854C22.3488 10.2854 23.2867 11.2232 23.2867 12.376C23.2867 13.5288 22.3488 14.4666 21.1961 14.4666Z" fill="#50000F"/>
<path id="Vector_22" d="M5.607 14.0434V11.5963C5.607 10.0505 4.34934 8.79285 2.80355 8.79285C1.25766 8.79285 0 10.0505 0 11.5963C0 13.1422 1.25766 14.3998 2.8035 14.3998H5.25052C5.44744 14.3998 5.607 14.2402 5.607 14.0434ZM4.89412 13.687H2.8035C1.6507 13.687 0.712828 12.7491 0.712828 11.5963C0.712828 10.4435 1.65066 9.50567 2.8035 9.50567C3.95625 9.50567 4.89408 10.4435 4.89408 11.5963L4.89412 13.687Z" fill="#50000F"/>
<path id="Vector_23" d="M3.56862 11.1987H3.16077V10.7909C3.16077 10.5941 3.0012 10.4344 2.80433 10.4344C2.60745 10.4344 2.44789 10.5941 2.44789 10.7909V11.1987H2.04003C1.84316 11.1987 1.68359 11.3584 1.68359 11.5552C1.68359 11.752 1.84316 11.9116 2.04003 11.9116H2.44789V12.3195C2.44789 12.5163 2.60745 12.6759 2.80433 12.6759C3.0012 12.6759 3.16077 12.5163 3.16077 12.3195V11.9116H3.56862C3.7655 11.9116 3.92506 11.752 3.92506 11.5552C3.92506 11.3584 3.76555 11.1987 3.56862 11.1987Z" fill="#50000F"/>
<path id="Vector_24" d="M21.9612 11.9783H20.4326C20.2357 11.9783 20.0762 12.1379 20.0762 12.3347C20.0762 12.5315 20.2357 12.6911 20.4326 12.6911H21.9612C22.1581 12.6911 22.3176 12.5315 22.3176 12.3347C22.3176 12.1378 22.1581 11.9783 21.9612 11.9783Z" fill="#50000F"/>
</g>
</g>
<defs>
<clipPath id="clip0_13269_39862">
<rect width="24" height="24" fill="white" transform="translate(0 0.5)"/>
</clipPath>
</defs>
</svg>
