<svg width="72" height="72" viewBox="0 0 72 72" fill="none" xmlns="http://www.w3.org/2000/svg">
<g id="reshot-icon-eco-learning-FEBJ26YWV8 1" clip-path="url(#clip0_15800_42386)">
<g id="ICON_1_">
<g id="Group">
<g id="Group_2">
<g id="Group_3">
<g id="Vector">
<path d="M43.3687 16.7765C43.3687 14.1609 42.6093 11.6015 41.189 9.40776L40.7109 8.67651H31.289L30.8109 9.40776C29.3906 11.6015 28.6312 14.1609 28.6312 16.7765" fill="white"/>
<path d="M43.3687 16.7765C43.3687 14.1609 42.6093 11.6015 41.189 9.40776L40.7109 8.67651H31.289L30.8109 9.40776C29.3906 11.6015 28.6312 14.1609 28.6312 16.7765" stroke="black" stroke-width="2.8125" stroke-miterlimit="10" stroke-linecap="round" stroke-linejoin="round"/>
</g>
<g id="Group_4">
<path id="Vector_2" d="M36 17.9719C35.0156 16.6641 33.4547 15.8203 31.6968 15.8203C30.5578 15.8203 29.5031 16.1719 28.6312 16.7766V48.7266H36" fill="#E4B75C"/>
<path id="Vector_3" d="M28.6312 48.7407H36" stroke="black" stroke-width="2.8125" stroke-miterlimit="10" stroke-linecap="round" stroke-linejoin="round"/>
<path id="Vector_4" d="M36 17.9719C35.0156 16.6641 33.4547 15.8203 31.6968 15.8203C30.5578 15.8203 29.5031 16.1719 28.6312 16.7766V42.9047" stroke="black" stroke-width="2.8125" stroke-miterlimit="10" stroke-linecap="round" stroke-linejoin="round"/>
<g id="Vector_5">
<path d="M36 27.9984V48.7266H43.3687V16.7766C42.4969 16.1719 41.4422 15.8203 40.3031 15.8203C38.5453 15.8203 36.9844 16.6641 36 17.9719" fill="#F2DF98"/>
<path d="M36 27.9984V48.7266H43.3687V16.7766C42.4969 16.1719 41.4422 15.8203 40.3031 15.8203C38.5453 15.8203 36.9844 16.6641 36 17.9719" stroke="black" stroke-width="2.8125" stroke-miterlimit="10" stroke-linecap="round" stroke-linejoin="round"/>
</g>
</g>
<path id="Vector_6" d="M31.2891 8.67666H40.7109L36 1.42041L31.2891 8.67666Z" fill="#7585F0" stroke="black" stroke-width="2.8125" stroke-miterlimit="10" stroke-linecap="round" stroke-linejoin="round"/>
</g>
<path id="Vector_7" d="M43.3828 48.7407H28.6312V55.561H43.3828V48.7407Z" fill="white" stroke="black" stroke-width="2.8125" stroke-miterlimit="10" stroke-linecap="round" stroke-linejoin="round"/>
</g>
<g id="Group_5">
<g id="Group_6">
<g id="Group_7">
<g id="Vector_8">
<path d="M67.3594 69.3423C67.5 68.7095 67.5703 68.0485 67.5703 67.3735C67.5703 62.4376 63.5766 58.4438 58.6406 58.4438C54.3937 58.4438 50.8219 61.411 49.9219 65.3907C48.3047 63.7313 46.0406 62.7048 43.5375 62.7048C40.3594 62.7048 37.575 64.3642 35.9859 66.8532C34.3969 64.3642 31.6125 62.7048 28.4344 62.7048C25.9312 62.7048 23.6672 63.7313 22.05 65.3907C21.15 61.411 17.5922 58.4438 13.3312 58.4438C8.3953 58.4438 4.40155 62.4376 4.40155 67.3735C4.40155 68.0485 4.47186 68.7095 4.61249 69.3423" fill="#AACF9A"/>
<path d="M67.3594 69.3423C67.5 68.7095 67.5703 68.0485 67.5703 67.3735C67.5703 62.4376 63.5766 58.4438 58.6406 58.4438C54.3937 58.4438 50.8219 61.411 49.9219 65.3907C48.3047 63.7313 46.0406 62.7048 43.5375 62.7048C40.3594 62.7048 37.575 64.3642 35.9859 66.8532C34.3969 64.3642 31.6125 62.7048 28.4344 62.7048C25.9312 62.7048 23.6672 63.7313 22.05 65.3907C21.15 61.411 17.5922 58.4438 13.3312 58.4438C8.3953 58.4438 4.40155 62.4376 4.40155 67.3735C4.40155 68.0485 4.47186 68.7095 4.61249 69.3423" stroke="black" stroke-width="2.8125" stroke-miterlimit="10" stroke-linecap="round" stroke-linejoin="round"/>
</g>
</g>
</g>
<path id="Vector_9" d="M35.5359 66.2062H36.45C38.039 64.1391 40.514 62.775 43.3125 62.7047C43.3547 62.4797 43.3687 62.2547 43.3687 62.0156V55.5469H28.6312V62.0156C28.6312 62.2547 28.6453 62.4797 28.6875 62.7047C31.4718 62.7891 33.9468 64.1391 35.5359 66.2062Z" fill="#DE5A5A" stroke="black" stroke-width="2.8125" stroke-miterlimit="10" stroke-linecap="round" stroke-linejoin="round"/>
<path id="Vector_10" d="M41.85 70.5796H70.5937" stroke="black" stroke-width="2.8125" stroke-miterlimit="10" stroke-linecap="round" stroke-linejoin="round"/>
<path id="Vector_11" d="M1.40625 70.5796H24.9891" stroke="black" stroke-width="2.8125" stroke-miterlimit="10" stroke-linecap="round" stroke-linejoin="round"/>
</g>
<g id="Group_8">
<path id="Vector_12" d="M55.4203 45.872C51.2719 50.0204 43.4953 48.9657 43.4953 48.9657C43.4953 48.9657 42.4406 41.1892 46.589 37.0407C50.7375 32.8923 58.514 33.947 58.514 33.947C58.514 33.947 59.5687 41.7235 55.4203 45.872Z" fill="#87BF8C" stroke="black" stroke-width="2.8125" stroke-miterlimit="10" stroke-linecap="round" stroke-linejoin="round"/>
<path id="Vector_13" d="M43.8047 48.7405L48.9656 43.5796" stroke="black" stroke-width="2.8125" stroke-miterlimit="10" stroke-linecap="round" stroke-linejoin="round"/>
</g>
<g id="Group_9">
<path id="Vector_14" d="M16.5797 35.4657C20.7281 39.6142 28.5047 38.5595 28.5047 38.5595C28.5047 38.5595 29.5594 30.7829 25.4109 26.6345C21.2625 22.486 13.4859 23.5407 13.4859 23.5407C13.4859 23.5407 12.4312 31.3173 16.5797 35.4657Z" fill="#87BF8C" stroke="black" stroke-width="2.8125" stroke-miterlimit="10" stroke-linecap="round" stroke-linejoin="round"/>
<path id="Vector_15" d="M28.1953 38.3343L23.0344 33.1733" stroke="black" stroke-width="2.8125" stroke-miterlimit="10" stroke-linecap="round" stroke-linejoin="round"/>
</g>
</g>
</g>
</g>
<defs>
<clipPath id="clip0_15800_42386">
<rect width="72" height="72" fill="white"/>
</clipPath>
</defs>
</svg>
