<svg width="32" height="33" viewBox="0 0 32 33" fill="none" xmlns="http://www.w3.org/2000/svg">
<g clip-path="url(#clip0_14145_2879)">
<path d="M19.2148 28.5686C18.2259 28.5686 17.2548 28.2042 16.4063 27.5149C16.3618 27.4787 16.2198 27.4105 15.9996 27.4105C15.7795 27.4105 15.6376 27.4787 15.593 27.5148C14.7444 28.2041 13.7733 28.5686 12.7842 28.5686C10.9165 28.5686 9.37055 27.2943 8.84567 25.3223C8.79423 25.1292 8.44329 24.8443 8.19629 24.8443L8.18792 24.8445C8.09267 24.8496 7.99654 24.8522 7.90235 24.8522C6.42428 24.8523 5.13853 24.2142 4.37515 23.1015C3.60259 21.9755 3.47227 20.5189 4.01759 19.1047C4.0969 18.8993 3.9514 18.4511 3.7664 18.3314C2.45639 17.4838 1.70508 16.1909 1.70508 14.7842C1.70508 13.3775 2.45639 12.0846 3.7664 11.2369C3.9514 11.1173 4.0969 10.6691 4.01759 10.4636C3.47227 9.04972 3.60259 7.59297 4.37515 6.46702C5.13853 5.35433 6.4241 4.71614 7.9021 4.71614C7.99642 4.71614 8.09248 4.7187 8.18792 4.72395L8.19648 4.72414C8.40729 4.72414 8.78542 4.47239 8.84573 4.2462C9.37061 2.2742 10.9166 0.999878 12.7844 0.999878C13.7734 0.999878 14.7446 1.36432 15.5931 2.05376C15.6375 2.08976 15.7795 2.15801 15.9998 2.15801C16.2198 2.15801 16.3618 2.08976 16.4064 2.05369C17.255 1.36432 18.2261 0.999878 19.2151 0.999878C21.0829 0.999878 22.6287 2.2742 23.1538 4.2462C23.2052 4.43927 23.5559 4.72414 23.803 4.72414L23.8114 4.72395C23.9069 4.7187 24.0029 4.71614 24.0972 4.71614C25.5752 4.71614 26.8608 5.35433 27.6242 6.46702C28.3967 7.59303 28.5271 9.04966 27.9816 10.4637C27.9023 10.6692 28.0479 11.1174 28.2329 11.237C29.5428 12.0847 30.2943 13.3777 30.2943 14.7843C30.2943 16.191 29.5429 17.4839 28.2329 18.3316C28.0481 18.4512 27.9024 18.8994 27.9816 19.1049C28.5269 20.5188 28.3966 21.9755 27.6242 23.1013C26.8608 24.2142 25.5752 24.8523 24.0972 24.8523C24.003 24.8523 23.9069 24.8497 23.8114 24.8445L23.803 24.8443C23.592 24.8443 23.214 25.0961 23.1537 25.3223C22.6288 27.2941 21.0829 28.5684 19.2153 28.5687C19.2151 28.5686 19.2149 28.5686 19.2148 28.5686Z" fill="#D25459"/>
<path d="M13.9873 4.03075C15.0945 4.93 16.9058 4.93 18.0128 4.03075C19.1198 3.13137 20.3258 3.52331 20.6927 4.9015C21.0595 6.27963 22.5251 7.34445 23.9492 7.26751C25.3732 7.19051 26.1187 8.21639 25.6054 9.54714C25.0922 10.8778 25.6521 12.6005 26.8494 13.3755C28.0467 14.1503 28.0467 15.4184 26.8494 16.1932C25.6521 16.968 25.0922 18.6909 25.6054 20.0216C26.1187 21.3523 25.3732 22.3781 23.9492 22.3011C22.5251 22.2243 21.0595 23.289 20.6927 24.6671C20.3258 26.0454 19.1198 26.4372 18.0128 25.538C16.9058 24.6386 15.0945 24.6386 13.9873 25.538C12.8804 26.4372 11.6745 26.0454 11.3076 24.6671C10.9408 23.289 9.47518 22.2243 8.05105 22.3011C6.6268 22.3781 5.88148 21.3523 6.39473 20.0216C6.90792 18.6909 6.34823 16.9681 5.15092 16.1932C3.9536 15.4184 3.9536 14.1503 5.15092 13.3755C6.34823 12.6006 6.90792 10.8778 6.39473 9.54714C5.88148 8.21645 6.6268 7.19051 8.05105 7.26751C9.47518 7.34438 10.9408 6.27963 11.3076 4.9015C11.6745 3.52325 12.8804 3.13137 13.9873 4.03075Z" fill="white"/>
<path d="M14.4789 6.65748C15.3156 7.33704 16.6845 7.33704 17.5211 6.65748C18.3579 5.97772 19.2691 6.27391 19.5464 7.31548C19.8238 8.35705 20.9312 9.16168 22.0074 9.10355C23.0838 9.04542 23.647 9.82074 23.2593 10.8264C22.8713 11.8321 23.2944 13.134 24.1992 13.7196C25.1042 14.3051 25.1042 15.2634 24.1992 15.849C23.2944 16.4345 22.8713 17.7365 23.2593 18.7422C23.6469 19.7478 23.0838 20.523 22.0074 20.465C20.9312 20.4068 19.8238 21.2115 19.5464 22.253C19.2691 23.2946 18.3579 23.5908 17.5211 22.9111C16.6845 22.2315 15.3156 22.2315 14.4789 22.9111C13.6423 23.5908 12.7309 23.2947 12.4536 22.253C12.1763 21.2115 11.0688 20.4068 9.99258 20.465C8.91626 20.5231 8.35301 19.7478 8.74089 18.7422C9.12889 17.7365 8.7057 16.4345 7.80082 15.849C6.89582 15.2633 6.89582 14.3051 7.80082 13.7196C8.7057 13.1339 9.12889 11.832 8.74089 10.8264C8.35308 9.82068 8.91626 9.04542 9.99258 9.10355C11.0688 9.16168 12.1763 8.35705 12.4536 7.31548C12.7309 6.27391 13.6423 5.97772 14.4789 6.65748Z" fill="#0071CE"/>
<path d="M20.0234 17.3644H11.9775V32.0001L16.0005 30.3758L20.0234 32.0001V17.3644Z" fill="#0071CE"/>
<path opacity="0.1" d="M16 23.0057C19.8644 23.0057 22.9971 19.873 22.9971 16.0086C22.9971 12.1442 19.8644 9.01154 16 9.01154C12.1356 9.01154 9.00293 12.1442 9.00293 16.0086C9.00293 19.873 12.1356 23.0057 16 23.0057Z" fill="#2E2E2E"/>
<path d="M20.0234 17.3644H11.9775V32.0001L16.0005 30.3758L20.0234 32.0001V17.3644Z" fill="#0071CE"/>
<path d="M14.6396 17.3644V30.9252L16.0002 30.3758L17.3607 30.9252V17.3644H14.6396Z" fill="white"/>
<path d="M15.9996 21.3873C19.6465 21.3873 22.6028 18.4309 22.6028 14.7841C22.6028 11.1373 19.6465 8.18097 15.9996 8.18097C12.3528 8.18097 9.39648 11.1373 9.39648 14.7841C9.39648 18.4309 12.3528 21.3873 15.9996 21.3873Z" fill="#F9BE00"/>
<path opacity="0.15" d="M16 19.3007C18.4944 19.3007 20.5166 17.2785 20.5166 14.7841C20.5166 12.2897 18.4944 10.2675 16 10.2675C13.5055 10.2675 11.4834 12.2897 11.4834 14.7841C11.4834 17.2785 13.5055 19.3007 16 19.3007Z" fill="#2E2E2E"/>
<path opacity="0.1" d="M16 10.2677C13.5056 10.2677 11.4834 12.2898 11.4834 14.7843C11.4834 17.2788 13.5056 19.3009 16 19.3009C18.4944 19.3009 20.5166 17.2788 20.5166 14.7843C20.5166 12.2899 18.4944 10.2677 16 10.2677ZM16 18.3939C14.0065 18.3939 12.3905 16.7778 12.3905 14.7843C12.3905 12.7909 14.0065 11.1748 16 11.1748C17.9934 11.1748 19.6095 12.7909 19.6095 14.7843C19.6095 16.7778 17.9935 18.3939 16 18.3939Z" fill="#2E2E2E"/>
<path d="M16.242 17.4424C16.5446 17.4424 16.7897 17.1975 16.7897 16.8948V12.8304C16.7897 12.5277 16.5446 12.2827 16.242 12.2827H16.2276C16.0763 12.2827 15.9178 12.3187 15.7087 12.3763L14.9953 12.5853C14.7719 12.6502 14.6277 12.8375 14.6277 13.0609C14.6277 13.3204 14.8512 13.5366 15.1105 13.5366C15.1682 13.5366 15.2475 13.5222 15.3051 13.5077L15.6942 13.4068V16.8947C15.6943 17.1974 15.9392 17.4424 16.242 17.4424ZM30.7948 14.7843C30.7948 13.2145 29.9704 11.7766 28.5317 10.8345C28.4987 10.7852 28.4623 10.6735 28.46 10.6141C29.0524 9.05322 28.8988 7.44028 28.0371 6.18427C27.1791 4.93358 25.7433 4.21626 24.0979 4.21626C24.0038 4.21626 23.9091 4.21858 23.816 4.22314C23.7625 4.20508 23.6667 4.13433 23.6288 4.08533C23.0353 1.90607 21.3064 0.5 19.2157 0.5C18.122 0.5 17.0526 0.894814 16.1211 1.642C16.1024 1.64807 16.062 1.65813 16.0004 1.65813C15.9387 1.65813 15.8984 1.64807 15.8796 1.642C14.9477 0.894751 13.8785 0.5 12.785 0.5C10.6926 0.5 8.96258 1.90844 8.37071 4.09026C8.33489 4.13551 8.23746 4.20314 8.17977 4.22295C8.08833 4.21858 7.99533 4.21626 7.90289 4.21626C6.25751 4.21626 4.82169 4.93358 3.96369 6.18427C3.10194 7.44028 2.94831 9.05316 3.54063 10.6141C3.53844 10.6734 3.50213 10.7852 3.46913 10.8345C2.03043 11.7764 1.20605 13.2144 1.20605 14.7842C1.20605 16.3542 2.03043 17.7921 3.46913 18.7339C3.50219 18.7833 3.53844 18.8951 3.54069 18.9544C2.94831 20.5155 3.10194 22.1284 3.96375 23.3844C4.82176 24.635 6.25732 25.3523 7.90271 25.3522H7.90327C7.99627 25.3522 8.09077 25.3499 8.18477 25.3453C8.23833 25.3634 8.33427 25.4343 8.37221 25.4833C8.83202 27.1722 9.97628 28.411 11.4777 28.8729V32.0001C11.4777 32.1663 11.5603 32.3216 11.698 32.4146C11.8358 32.5076 12.0108 32.5259 12.1648 32.4637L16.0006 30.9149L19.8364 32.4637C19.8967 32.4881 19.9603 32.5 20.0236 32.5C20.1218 32.5 20.2194 32.471 20.3032 32.4145C20.4409 32.3216 20.5235 32.1662 20.5235 32.0001V28.8726C22.0264 28.4101 23.1713 27.1695 23.6301 25.4783C23.666 25.433 23.7634 25.3654 23.8211 25.3457C23.9131 25.35 24.0061 25.3523 24.098 25.3523C25.7433 25.3523 27.1792 24.635 28.0372 23.3843C28.8988 22.1283 29.0524 20.5155 28.4602 18.9548C28.4624 18.8954 28.4988 18.7836 28.5318 18.7342C29.9704 17.7921 30.7948 16.3541 30.7948 14.7843ZM19.5235 31.2592L16.1877 29.9123C16.0675 29.8638 15.9334 29.8638 15.8133 29.9123L12.4775 31.2592V20.9503C13.5164 21.5463 14.7194 21.8873 16.0005 21.8873C17.2817 21.8873 18.4847 21.5463 19.5236 20.9503V31.2592H19.5235ZM16.0005 20.8875C12.6353 20.8875 9.89734 18.1496 9.89734 14.7843C9.89734 11.419 12.6352 8.68116 16.0005 8.68116C19.3657 8.68116 22.1036 11.419 22.1036 14.7843C22.1036 18.1496 19.3657 20.8875 16.0005 20.8875ZM27.962 17.9118C27.5753 18.162 27.3501 18.8548 27.5158 19.2848C28.0009 20.5425 27.8904 21.8305 27.2126 22.8185C26.5439 23.7933 25.4086 24.3524 24.0979 24.3524C24.012 24.3524 23.9249 24.3501 23.8392 24.3454C23.8348 24.3452 23.8302 24.345 23.8257 24.3448L23.8173 24.3447C23.8128 24.3445 23.8083 24.3445 23.8037 24.3445C23.3933 24.3445 22.7967 24.7232 22.6713 25.1938C22.3394 26.4407 21.5567 27.3811 20.5235 27.8112V20.2571C22.0984 18.9532 23.1036 16.984 23.1036 14.7843C23.1036 10.8677 19.9172 7.68128 16.0005 7.68128C12.084 7.68128 8.89752 10.8677 8.89752 14.7843C8.89752 16.9839 9.90265 18.9531 11.4776 20.2571V27.8114C10.4442 27.3814 9.66146 26.4409 9.32946 25.1937C9.21521 24.7651 8.65427 24.3445 8.19702 24.3445C8.19246 24.3445 8.18796 24.3446 8.18339 24.3447L8.17502 24.3449C8.17058 24.345 8.16608 24.3452 8.16164 24.3455C8.07539 24.3502 7.98833 24.3525 7.90302 24.3525C6.5922 24.3525 5.45682 23.7936 4.78807 22.8189C4.11025 21.8309 3.99963 20.5428 4.48463 19.285C4.65063 18.8552 4.42557 18.1622 4.03869 17.9119C2.87387 17.1581 2.20575 16.0182 2.20575 14.7844C2.20575 13.5506 2.87387 12.4106 4.03863 11.6569C4.42557 11.4066 4.65069 10.7137 4.48469 10.2839C3.99957 9.02616 4.11013 7.73809 4.78807 6.74996C5.45676 5.77521 6.59201 5.21614 7.90277 5.21614C7.98933 5.21614 8.07627 5.21852 8.16114 5.22314C8.16646 5.22339 8.17183 5.22358 8.17708 5.22377L8.18564 5.22396C8.18946 5.22408 8.19333 5.22408 8.19708 5.22408C8.60733 5.22408 9.20396 4.84533 9.3294 4.37477C9.7944 2.62845 11.1508 1.49994 12.7851 1.49994C13.6579 1.49994 14.5202 1.82563 15.2789 2.44207C15.4455 2.57732 15.7154 2.65807 16.0005 2.65807C16.2854 2.65807 16.555 2.57745 16.7223 2.44182C17.4807 1.82563 18.3429 1.49994 19.2157 1.49994C20.8499 1.49994 22.2063 2.62845 22.6713 4.37477C22.7853 4.80352 23.3461 5.22427 23.8036 5.22427C23.8075 5.22427 23.8113 5.22421 23.8152 5.22414L23.8236 5.22396C23.8288 5.22383 23.8341 5.22364 23.8393 5.22333C23.9243 5.21864 24.0114 5.21633 24.0979 5.21633C25.4086 5.21633 26.5439 5.7754 27.2126 6.75015C27.8905 7.73815 28.001 9.02616 27.5159 10.2839C27.3499 10.7137 27.5751 11.4067 27.9619 11.657C29.1268 12.4109 29.7949 13.5508 29.7949 14.7846C29.7949 16.0181 29.1268 17.158 27.962 17.9118ZM20.0246 11.7884L19.2231 12.386C19.7426 13.0829 20.0173 13.9122 20.0173 14.7842C20.0173 16.9991 18.2154 18.8009 16.0005 18.8009C13.7857 18.8009 11.9839 16.999 11.9839 14.7842C11.9839 12.5694 13.7858 10.7675 16.0005 10.7675C16.9095 10.7675 17.7668 11.0635 18.4797 11.6235L19.0974 10.8373C18.2066 10.1375 17.1357 9.76754 16.0006 9.76754C13.2345 9.76754 10.9841 12.018 10.9841 14.7841C10.9841 17.5503 13.2345 19.8006 16.0006 19.8006C18.7667 19.8006 21.0171 17.5502 21.0171 14.7841C21.017 13.6952 20.6738 12.6593 20.0246 11.7884Z" fill="#1E252B"/>
<path d="M19.2573 12.6846C19.8254 12.6846 20.286 12.2241 20.286 11.6559C20.286 11.0877 19.8254 10.6271 19.2573 10.6271C18.6891 10.6271 18.2285 11.0877 18.2285 11.6559C18.2285 12.2241 18.6891 12.6846 19.2573 12.6846Z" fill="white"/>
</g>
<defs>
<clipPath id="clip0_14145_2879">
<rect width="32" height="32" fill="white" transform="translate(0 0.5)"/>
</clipPath>
</defs>
</svg>
