<svg width="48" height="48" viewBox="0 0 48 48" fill="none" xmlns="http://www.w3.org/2000/svg">
<path d="M25.8296 25.0122V26.6452C25.8296 27.0772 25.0102 27.429 24.0003 27.429C22.9899 27.429 22.171 27.0777 22.171 26.6452V24.5553C22.171 24.2548 22.5713 23.997 23.1502 23.865C21.7678 23.2722 20.4387 22.7025 19.4278 22.269V23.903C19.4278 24.3345 18.6094 24.6868 17.599 24.6868C16.5886 24.6868 15.7697 24.335 15.7697 23.903V22.271L12.0488 23.865C12.6277 23.997 13.028 24.2553 13.028 24.5553V26.6452C13.028 27.0772 12.2091 27.429 11.2001 27.429C10.1902 27.429 9.37134 27.0777 9.37134 26.6452V25.0122L4.80078 26.9716L17.5985 32.457L30.3987 26.9716C30.3997 26.9716 28.3145 26.0783 25.8296 25.0122Z" fill="#FADF7E" stroke="#335C5F" stroke-width="1.5" stroke-miterlimit="10" stroke-linecap="round" stroke-linejoin="round"/>
<path d="M43.2001 21.4863L30.4004 26.9718V19.6561L43.2001 14.1711V21.4863Z" fill="#75C6A4" stroke="#335C5F" stroke-width="1.5" stroke-miterlimit="10" stroke-linecap="round" stroke-linejoin="round"/>
<path d="M17.5996 14.1711V21.0289C18.6095 21.0289 19.4284 21.3798 19.4284 21.8127V22.2687L23.1508 23.8647C23.4066 23.8067 23.6932 23.7721 24.0009 23.7721C25.0108 23.7721 25.8302 24.1225 25.8302 24.5555V25.0124L30.4002 26.9718V19.6561L17.5996 14.1711Z" fill="#75C6A4" stroke="#335C5F" stroke-width="1.5" stroke-miterlimit="10" stroke-linecap="round" stroke-linejoin="round"/>
<path d="M38.6299 12.2112V13.8452C38.6299 14.2762 37.8115 14.628 36.8006 14.628C35.7916 14.628 34.9732 14.2767 34.9732 13.8452V11.7552C34.9732 11.4538 35.3716 11.196 35.952 11.065C34.5662 10.4712 33.2409 9.90291 32.2281 9.46899V11.102C32.2281 11.5344 31.4097 11.8858 30.4008 11.8858C29.3904 11.8858 28.5715 11.5349 28.5715 11.102V9.46995L24.8496 11.065C25.4299 11.196 25.8302 11.4543 25.8302 11.7552V13.8452C25.8302 14.2762 25.0108 14.628 24.0009 14.628C22.9905 14.628 22.1716 14.2767 22.1716 13.8452V12.2112L17.6016 14.1711L30.4012 19.656L43.2009 14.1711C43.2009 14.1711 41.1148 13.2773 38.6299 12.2112Z" fill="#75C6A4" stroke="#335C5F" stroke-width="1.5" stroke-miterlimit="10" stroke-linecap="round" stroke-linejoin="round"/>
<path d="M4.80078 34.2864L17.6009 39.7718V32.4571L4.80078 26.9717V34.2864Z" fill="#FADF7E" stroke="#335C5F" stroke-width="1.5" stroke-miterlimit="10" stroke-linecap="round" stroke-linejoin="round"/>
<path d="M19.4276 21.8126C19.4276 22.2437 18.6092 22.5965 17.5988 22.5965C16.5884 22.5965 15.7695 22.2442 15.7695 21.8126C15.7695 21.3802 16.5879 21.0288 17.5988 21.0288C18.6092 21.0293 19.4276 21.3802 19.4276 21.8126Z" fill="#FADF7E" stroke="#335C5F" stroke-width="1.5" stroke-miterlimit="10" stroke-linecap="round" stroke-linejoin="round"/>
<path d="M15.7715 23.9032C15.7715 24.3347 16.5899 24.687 17.6008 24.687C18.6107 24.687 19.4296 24.3352 19.4296 23.9032V21.8132C19.4296 22.2443 18.6112 22.5971 17.6008 22.5971C16.5904 22.5971 15.7715 22.2448 15.7715 21.8132V23.9032Z" fill="#FADF7E" stroke="#335C5F" stroke-width="1.5" stroke-miterlimit="10" stroke-linecap="round" stroke-linejoin="round"/>
<path d="M19.4276 27.2975C19.4276 27.73 18.6092 28.0818 17.5988 28.0818C16.5884 28.0818 15.7695 27.7305 15.7695 27.2975C15.7695 26.8665 16.5879 26.5137 17.5988 26.5137C18.6092 26.5137 19.4276 26.8665 19.4276 27.2975Z" fill="#FADF7E" stroke="#335C5F" stroke-width="1.5" stroke-miterlimit="10" stroke-linecap="round" stroke-linejoin="round"/>
<path d="M15.7715 29.3885C15.7715 29.8205 16.5899 30.1723 17.6008 30.1723C18.6107 30.1723 19.4296 29.821 19.4296 29.3885V27.2976C19.4296 27.7301 18.6112 28.0819 17.6008 28.0819C16.5904 28.0819 15.7715 27.7306 15.7715 27.2976V29.3885Z" fill="#FADF7E" stroke="#335C5F" stroke-width="1.5" stroke-miterlimit="10" stroke-linecap="round" stroke-linejoin="round"/>
<path d="M24.0012 25.3392C25.0114 25.3392 25.8304 24.9882 25.8304 24.5553C25.8304 24.1224 25.0114 23.7715 24.0012 23.7715C22.9909 23.7715 22.1719 24.1224 22.1719 24.5553C22.1719 24.9882 22.9909 25.3392 24.0012 25.3392Z" fill="#FADF7E" stroke="#335C5F" stroke-width="1.5" stroke-miterlimit="10" stroke-linecap="round" stroke-linejoin="round"/>
<path d="M22.1719 26.6458C22.1719 27.0778 22.9903 27.4297 24.0012 27.4297C25.0111 27.4297 25.8304 27.0783 25.8304 26.6458V24.5559C25.8304 24.9879 25.0111 25.3397 24.0012 25.3397C22.9908 25.3397 22.1719 24.9884 22.1719 24.5559V26.6458Z" fill="#FADF7E" stroke="#335C5F" stroke-width="1.5" stroke-miterlimit="10" stroke-linecap="round" stroke-linejoin="round"/>
<path d="M11.2014 25.3392C12.2111 25.3392 13.0297 24.9882 13.0297 24.5553C13.0297 24.1224 12.2111 23.7715 11.2014 23.7715C10.1916 23.7715 9.37305 24.1224 9.37305 24.5553C9.37305 24.9882 10.1916 25.3392 11.2014 25.3392Z" fill="#FADF7E" stroke="#335C5F" stroke-width="1.5" stroke-miterlimit="10" stroke-linecap="round" stroke-linejoin="round"/>
<path d="M9.37305 26.6458C9.37305 27.0778 10.1914 27.4297 11.2004 27.4297C12.2103 27.4297 13.0297 27.0783 13.0297 26.6458V24.5559C13.0297 24.9879 12.2108 25.3397 11.2004 25.3397C10.1914 25.3397 9.37305 24.9884 9.37305 24.5559V26.6458Z" fill="#FADF7E" stroke="#335C5F" stroke-width="1.5" stroke-miterlimit="10" stroke-linecap="round" stroke-linejoin="round"/>
<path d="M17.5996 32.4572V39.7719L43.1994 28.801V21.4863L17.5996 32.4572Z" fill="#FADF7E" stroke="#335C5F" stroke-width="1.5" stroke-miterlimit="10" stroke-linecap="round" stroke-linejoin="round"/>
<path d="M30.3986 9.79546C31.4084 9.79546 32.227 9.44453 32.227 9.01162C32.227 8.57872 31.4084 8.22778 30.3986 8.22778C29.3889 8.22778 28.5703 8.57872 28.5703 9.01162C28.5703 9.44453 29.3889 9.79546 30.3986 9.79546Z" fill="#75C6A4" stroke="#335C5F" stroke-width="1.5" stroke-miterlimit="10" stroke-linecap="round" stroke-linejoin="round"/>
<path d="M28.5703 11.1019C28.5703 11.5344 29.3887 11.8857 30.3996 11.8857C31.4086 11.8857 32.227 11.5348 32.227 11.1019V9.01196C32.227 9.44396 31.4086 9.7958 30.3996 9.7958C29.3892 9.7958 28.5703 9.44444 28.5703 9.01196V11.1019Z" fill="#75C6A4" stroke="#335C5F" stroke-width="1.5" stroke-miterlimit="10" stroke-linecap="round" stroke-linejoin="round"/>
<path d="M30.3986 15.2808C31.4084 15.2808 32.227 14.9299 32.227 14.497C32.227 14.0641 31.4084 13.7131 30.3986 13.7131C29.3889 13.7131 28.5703 14.0641 28.5703 14.497C28.5703 14.9299 29.3889 15.2808 30.3986 15.2808Z" fill="#75C6A4" stroke="#335C5F" stroke-width="1.5" stroke-miterlimit="10" stroke-linecap="round" stroke-linejoin="round"/>
<path d="M28.5703 16.5875C28.5703 17.0195 29.3887 17.3713 30.3996 17.3713C31.4086 17.3713 32.227 17.02 32.227 16.5875V14.4976C32.227 14.9305 31.4086 15.2814 30.3996 15.2814C29.3892 15.2814 28.5703 14.931 28.5703 14.4976V16.5875Z" fill="#75C6A4" stroke="#335C5F" stroke-width="1.5" stroke-miterlimit="10" stroke-linecap="round" stroke-linejoin="round"/>
<path d="M36.801 12.5382C37.8107 12.5382 38.6293 12.1877 38.6293 11.7553C38.6293 11.3229 37.8107 10.9724 36.801 10.9724C35.7912 10.9724 34.9727 11.3229 34.9727 11.7553C34.9727 12.1877 35.7912 12.5382 36.801 12.5382Z" fill="#75C6A4" stroke="#335C5F" stroke-width="1.5" stroke-miterlimit="10" stroke-linecap="round" stroke-linejoin="round"/>
<path d="M34.9727 13.8455C34.9727 14.2766 35.7911 14.6284 36.8 14.6284C37.8104 14.6284 38.6293 14.277 38.6293 13.8455V11.7551C38.6293 12.1862 37.8109 12.538 36.8 12.538C35.7911 12.538 34.9727 12.1866 34.9727 11.7551V13.8455Z" fill="#75C6A4" stroke="#335C5F" stroke-width="1.5" stroke-miterlimit="10" stroke-linecap="round" stroke-linejoin="round"/>
<path d="M24.0012 12.5382C25.0114 12.5382 25.8304 12.1877 25.8304 11.7553C25.8304 11.3229 25.0114 10.9724 24.0012 10.9724C22.9909 10.9724 22.1719 11.3229 22.1719 11.7553C22.1719 12.1877 22.9909 12.5382 24.0012 12.5382Z" fill="#75C6A4" stroke="#335C5F" stroke-width="1.5" stroke-miterlimit="10" stroke-linecap="round" stroke-linejoin="round"/>
<path d="M22.1719 13.8455C22.1719 14.2766 22.9903 14.6284 24.0012 14.6284C25.0111 14.6284 25.8304 14.277 25.8304 13.8455V11.7551C25.8304 12.1862 25.0111 12.538 24.0012 12.538C22.9908 12.538 22.1719 12.1866 22.1719 11.7551V13.8455Z" fill="#75C6A4" stroke="#335C5F" stroke-width="1.5" stroke-miterlimit="10" stroke-linecap="round" stroke-linejoin="round"/>
<path d="M41.3984 22.2577V29.5724L43.1994 28.801V21.4863L41.3984 22.2577Z" fill="#D8C26F"/>
<path d="M41.3984 14.9425V22.2582L43.1994 21.4863V14.1711L41.3984 14.9425Z" fill="#65AD90"/>
<path d="M37.4297 12.4871V14.5775C38.1281 14.4676 38.6287 14.182 38.6287 13.8455V11.7551C38.6287 12.0911 38.1281 12.3772 37.4297 12.4871Z" fill="#65AD90"/>
<path d="M31.0293 15.2808V17.3707C31.7277 17.2608 32.2283 16.9752 32.2283 16.6387V14.5488C32.2283 14.8853 31.7277 15.1704 31.0293 15.2808Z" fill="#65AD90"/>
<path d="M31.0293 9.74396V11.8339C31.7277 11.724 32.2283 11.4384 32.2283 11.1019V9.01196C32.2283 9.34844 31.7277 9.63356 31.0293 9.74396Z" fill="#65AD90"/>
<path d="M24.6309 12.5382V14.6281C25.3302 14.5182 25.8309 14.2326 25.8309 13.8961V11.8062C25.8309 12.1426 25.3302 12.4282 24.6309 12.5382Z" fill="#65AD90"/>
<path d="M24.6309 25.3392V27.4291C25.3302 27.3192 25.8309 27.0336 25.8309 26.6971V24.6072C25.8309 24.9437 25.3302 25.2293 24.6309 25.3392Z" fill="#D8C26F"/>
<path d="M11.8301 25.2879V27.3778C12.529 27.2679 13.0296 26.9823 13.0296 26.6458V24.5559C13.0296 24.8914 12.529 25.1775 11.8301 25.2879Z" fill="#D8C26F"/>
<path d="M18.2285 22.5452V24.6352C18.9269 24.5252 19.4276 24.2396 19.4276 23.9032V21.8132C19.4276 22.1497 18.9269 22.4348 18.2285 22.5452Z" fill="#D8C26F"/>
<path d="M18.2285 28.0301V30.1205C18.9269 30.0106 19.4276 29.725 19.4276 29.3885V27.2976C19.4276 27.6341 18.9269 27.9202 18.2285 28.0301Z" fill="#D8C26F"/>
<path d="M43.2001 21.4863L30.4004 26.9718V19.6561L43.2001 14.1711V21.4863Z" stroke="#335C5F" stroke-width="1.5" stroke-miterlimit="10" stroke-linecap="round" stroke-linejoin="round"/>
<path d="M15.7715 23.9032C15.7715 24.3347 16.5899 24.687 17.6008 24.687C18.6107 24.687 19.4296 24.3352 19.4296 23.9032V21.8132C19.4296 22.2443 18.6112 22.5971 17.6008 22.5971C16.5904 22.5971 15.7715 22.2448 15.7715 21.8132V23.9032Z" stroke="#335C5F" stroke-width="1.5" stroke-miterlimit="10" stroke-linecap="round" stroke-linejoin="round"/>
<path d="M15.7715 29.3885C15.7715 29.8205 16.5899 30.1723 17.6008 30.1723C18.6107 30.1723 19.4296 29.821 19.4296 29.3885V27.2976C19.4296 27.7301 18.6112 28.0819 17.6008 28.0819C16.5904 28.0819 15.7715 27.7306 15.7715 27.2976V29.3885Z" stroke="#335C5F" stroke-width="1.5" stroke-miterlimit="10" stroke-linecap="round" stroke-linejoin="round"/>
<path d="M22.1719 26.6458C22.1719 27.0778 22.9903 27.4297 24.0012 27.4297C25.0111 27.4297 25.8304 27.0783 25.8304 26.6458V24.5559C25.8304 24.9879 25.0111 25.3397 24.0012 25.3397C22.9908 25.3397 22.1719 24.9884 22.1719 24.5559V26.6458Z" stroke="#335C5F" stroke-width="1.5" stroke-miterlimit="10" stroke-linecap="round" stroke-linejoin="round"/>
<path d="M9.37305 26.6458C9.37305 27.0778 10.1914 27.4297 11.2004 27.4297C12.2103 27.4297 13.0297 27.0783 13.0297 26.6458V24.5559C13.0297 24.9879 12.2108 25.3397 11.2004 25.3397C10.1914 25.3397 9.37305 24.9884 9.37305 24.5559V26.6458Z" stroke="#335C5F" stroke-width="1.5" stroke-miterlimit="10" stroke-linecap="round" stroke-linejoin="round"/>
<path d="M17.5996 32.4572V39.7719L43.1994 28.801V21.4863L17.5996 32.4572Z" stroke="#335C5F" stroke-width="1.5" stroke-miterlimit="10" stroke-linecap="round" stroke-linejoin="round"/>
<path d="M28.5703 11.1019C28.5703 11.5344 29.3887 11.8857 30.3996 11.8857C31.4086 11.8857 32.227 11.5348 32.227 11.1019V9.01196C32.227 9.44396 31.4086 9.7958 30.3996 9.7958C29.3892 9.7958 28.5703 9.44444 28.5703 9.01196V11.1019Z" stroke="#335C5F" stroke-width="1.5" stroke-miterlimit="10" stroke-linecap="round" stroke-linejoin="round"/>
<path d="M28.5703 16.5875C28.5703 17.0195 29.3887 17.3713 30.3996 17.3713C31.4086 17.3713 32.227 17.02 32.227 16.5875V14.4976C32.227 14.9305 31.4086 15.2814 30.3996 15.2814C29.3892 15.2814 28.5703 14.931 28.5703 14.4976V16.5875Z" stroke="#335C5F" stroke-width="1.5" stroke-miterlimit="10" stroke-linecap="round" stroke-linejoin="round"/>
<path d="M34.9727 13.8455C34.9727 14.2766 35.7911 14.6284 36.8 14.6284C37.8104 14.6284 38.6293 14.277 38.6293 13.8455V11.7551C38.6293 12.1862 37.8109 12.538 36.8 12.538C35.7911 12.538 34.9727 12.1866 34.9727 11.7551V13.8455Z" stroke="#335C5F" stroke-width="1.5" stroke-miterlimit="10" stroke-linecap="round" stroke-linejoin="round"/>
<path d="M22.1719 13.8455C22.1719 14.2766 22.9903 14.6284 24.0012 14.6284C25.0111 14.6284 25.8304 14.277 25.8304 13.8455V11.7551C25.8304 12.1862 25.0111 12.538 24.0012 12.538C22.9908 12.538 22.1719 12.1866 22.1719 11.7551V13.8455Z" stroke="#335C5F" stroke-width="1.5" stroke-miterlimit="10" stroke-linecap="round" stroke-linejoin="round"/>
</svg>
