<svg width="72" height="72" viewBox="0 0 72 72" fill="none" xmlns="http://www.w3.org/2000/svg">
<g id="reshot-icon-oscar-award-QNV93Z5TFR 1" clip-path="url(#clip0_15800_43208)">
<g id="Oscar_Award">
<path id="Vector" d="M41.5473 60.7869H28.5637L24.5505 31.2787H45.7964L41.5473 60.7869Z" fill="#F57F17" stroke="#424242" stroke-width="1.18033" stroke-miterlimit="10" stroke-linecap="round" stroke-linejoin="round"/>
<path id="Vector_2" d="M43.7899 37.4163L35.1735 33.6393L26.5571 37.4163C24.1964 38.4786 21.5997 36.7081 21.5997 34.1114V26.5573C21.5997 22.6622 24.7866 19.4753 28.6817 19.4753H41.6653C45.5604 19.4753 48.7472 22.6622 48.7472 26.5573V34.1114C48.6292 36.7081 46.0325 38.3606 43.7899 37.4163Z" fill="#F57F17" stroke="#424242" stroke-width="1.18033" stroke-miterlimit="10" stroke-linecap="round" stroke-linejoin="round"/>
<path id="Vector_3" d="M45.7964 64.3278H24.5505C24.5505 62.3213 26.085 60.7869 28.0915 60.7869H45.7964V64.3278Z" fill="#F57F17" stroke="#424242" stroke-width="1.18033" stroke-miterlimit="10" stroke-linecap="round" stroke-linejoin="round"/>
<path id="Vector_4" d="M48.1571 71.4098H22.1898C20.1833 71.4098 18.6489 69.8754 18.6489 67.8689C18.6489 65.8623 20.1833 64.3279 22.1898 64.3279H48.1571C50.1636 64.3279 51.698 65.8623 51.698 67.8689C51.698 69.8754 50.0456 71.4098 48.1571 71.4098Z" fill="#455A64" stroke="#424242" stroke-width="1.18033" stroke-miterlimit="10" stroke-linecap="round" stroke-linejoin="round"/>
<path id="Vector_5" d="M46.2686 60.7869H33.285L29.2719 31.2787H50.5178L46.2686 60.7869Z" fill="#FFA726" stroke="#424242" stroke-width="1.18033" stroke-miterlimit="10" stroke-linecap="round" stroke-linejoin="round"/>
<path id="Vector_6" d="M35.4093 58.4262L31.9864 33.6393" stroke="#FFCC80" stroke-width="1.18033" stroke-miterlimit="10" stroke-linecap="round" stroke-linejoin="round"/>
<path id="Vector_7" d="M47.8027 33.6393L44.3798 58.4262" stroke="#F57F17" stroke-width="1.18033" stroke-miterlimit="10" stroke-linecap="round" stroke-linejoin="round"/>
<path id="Vector_8" d="M37.5341 19.4753C42.7491 19.4753 46.9767 15.2477 46.9767 10.0327C46.9767 4.81769 42.7491 0.590088 37.5341 0.590088C32.3191 0.590088 28.0915 4.81769 28.0915 10.0327C28.0915 15.2477 32.3191 19.4753 37.5341 19.4753Z" fill="#FFA726" stroke="#424242" stroke-width="1.18033" stroke-miterlimit="10" stroke-linecap="round" stroke-linejoin="round"/>
<path id="Vector_9" d="M30.4521 10.0328C30.4521 6.13769 33.639 2.95081 37.5341 2.95081" stroke="#FFCC80" stroke-width="1.18033" stroke-miterlimit="10" stroke-linecap="round" stroke-linejoin="round"/>
<path id="Vector_10" d="M48.5112 37.4163L39.8948 33.6393L31.2784 37.4163C28.9177 38.4786 26.321 36.7081 26.321 34.1114V26.5573C26.321 22.6622 29.5079 19.4753 33.403 19.4753H46.3866C50.2817 19.4753 53.4686 22.6622 53.4686 26.5573V34.1114C53.3505 36.7081 50.7538 38.3606 48.5112 37.4163Z" fill="#FFA726" stroke="#424242" stroke-width="1.18033" stroke-miterlimit="10" stroke-linecap="round" stroke-linejoin="round"/>
<path id="Vector_11" d="M28.5635 34.1115V26.5574C28.5635 23.9606 30.6881 21.8361 33.2848 21.8361" stroke="#FFCC80" stroke-width="1.18033" stroke-miterlimit="10" stroke-linecap="round" stroke-linejoin="round"/>
<path id="Vector_12" d="M46.2684 21.8361C48.8652 21.8361 50.9897 23.9606 50.9897 26.5574V34.1115" stroke="#F57F17" stroke-width="1.18033" stroke-miterlimit="10" stroke-linecap="round" stroke-linejoin="round"/>
<path id="Vector_13" d="M50.5178 64.3278H29.2719C29.2719 62.3213 30.8063 60.7869 32.8128 60.7869H46.9768C48.8653 60.7869 50.5178 62.3213 50.5178 64.3278Z" fill="#FFA726" stroke="#424242" stroke-width="1.18033" stroke-miterlimit="10" stroke-linecap="round" stroke-linejoin="round"/>
<path id="Vector_14" d="M52.8784 71.4098H26.9112C24.9046 71.4098 23.3702 69.8754 23.3702 67.8689C23.3702 65.8623 24.9046 64.3279 26.9112 64.3279H52.8784C54.8849 64.3279 56.4194 65.8623 56.4194 67.8689C56.4194 69.8754 54.7669 71.4098 52.8784 71.4098Z" fill="#546E7A" stroke="#424242" stroke-width="1.18033" stroke-miterlimit="10" stroke-linecap="round" stroke-linejoin="round"/>
<path id="Vector_15" d="M66.0979 8.14418C64.7996 7.79008 63.8553 6.84582 63.5012 5.54746L62.2029 0.472046L60.9045 5.54746C60.5504 6.84582 59.6061 7.79008 58.3078 8.14418L53.3504 9.44254L58.4258 10.7409C59.7242 11.095 60.6684 12.0393 61.0225 13.3376L62.3209 18.413L63.6193 13.3376C63.9734 12.0393 64.9176 11.095 66.216 10.7409L71.0553 9.44254L66.0979 8.14418Z" fill="#CFD8DC" stroke="#424242" stroke-width="1.18033" stroke-miterlimit="10" stroke-linecap="round" stroke-linejoin="round"/>
<path id="Vector_16" d="M13.5735 50.6359C12.2751 50.2818 11.3309 49.3375 10.9768 48.0392L9.6784 42.9637L8.38003 48.0392C8.02594 49.3375 7.08167 50.2818 5.78331 50.6359L0.94397 51.9342L5.90135 53.2326C7.19971 53.5867 8.14397 54.531 8.49807 55.8293L9.79643 60.9047L11.0948 55.8293C11.4489 54.531 12.3932 53.5867 13.6915 53.2326L18.7669 51.9342L13.5735 50.6359Z" fill="#CFD8DC" stroke="#424242" stroke-width="1.18033" stroke-miterlimit="10" stroke-linecap="round" stroke-linejoin="round"/>
<path id="Vector_17" d="M39.8948 33.6393V60.7868" stroke="#424242" stroke-width="1.18033" stroke-miterlimit="10" stroke-linecap="round" stroke-linejoin="round"/>
</g>
</g>
<defs>
<clipPath id="clip0_15800_43208">
<rect width="72" height="72" fill="white"/>
</clipPath>
</defs>
</svg>
