<svg width="44" height="33" viewBox="0 0 44 33" fill="none" xmlns="http://www.w3.org/2000/svg">
<g clip-path="url(#clip0_14145_2987)">
<path fill-rule="evenodd" clip-rule="evenodd" d="M21.2133 4.61415C19.9546 4.39526 18.6413 4.28581 17.109 4.39526C14.537 4.5047 12.0744 5.43501 12.0744 5.43501L5.45281 1.11182C5.23391 1.00238 4.96029 1.16655 5.01502 1.38544L6.16422 11.181C6.49256 10.7432 0.363491 18.1857 4.24888 24.4242C8.13428 30.6627 16.3976 33.4536 26.6857 31.4288C36.9737 29.4041 39.3816 23.4939 38.7249 20.3746C38.0682 17.2554 34.1828 16.1062 34.1828 16.1062C34.1828 16.1062 34.1281 13.6436 32.3769 10.6338C31.3372 8.82789 27.8349 6.25587 27.8349 6.25587L26.412 0.400414C26.3573 0.181519 26.0837 0.126795 25.9195 0.236242L21.2133 4.61415Z" fill="#FFAB19" stroke="#001026" stroke-width="0.656686"/>
<path fill-rule="evenodd" clip-rule="evenodd" d="M34.0183 16.3251C34.0183 16.3251 37.7942 17.3101 38.4509 20.4294C39.1076 23.5486 36.4809 29.1852 26.3022 31.1552C13.0591 33.8914 6.76581 26.0112 10.4323 20.2105C14.0988 14.355 20.392 19.3349 24.9888 19.0065C28.929 18.7329 29.3668 15.2853 34.0183 16.3251Z" fill="white"/>
<path fill-rule="evenodd" clip-rule="evenodd" d="M16.7806 22.1805C16.7806 21.9616 16.9995 21.7974 17.2184 21.8522C18.2582 22.2352 21.2133 23.1108 24.4967 23.3297C27.4518 23.4939 29.2029 23.3297 30.0238 23.1655C30.2974 23.1108 30.5163 23.3844 30.4069 23.658C29.9143 25.1356 27.8348 29.2399 22.0888 28.9115C17.109 28.3643 16.6165 24.862 16.7806 22.1805Z" fill="white" stroke="#001026" stroke-width="0.656686" stroke-linecap="round" stroke-linejoin="round"/>
<path d="M37.5752 19.0612C37.5752 19.0612 41.5153 19.0065 44.0873 16.927M37.7941 22.2899C37.7941 22.2899 39.9283 23.3297 43.3759 23.0561" stroke="#001026" stroke-width="0.656686" stroke-linecap="round" stroke-linejoin="round"/>
<path fill-rule="evenodd" clip-rule="evenodd" d="M24.7707 17.5837C25.9199 17.5837 27.1239 17.6932 27.1786 18.0763C27.2333 18.8424 26.4124 20.3747 25.5369 20.4294C24.5518 20.5388 22.2534 19.1707 22.2534 18.2951C22.1987 17.6385 23.6762 17.5837 24.7707 17.5837Z" fill="#001026" stroke="#001026" stroke-width="0.656686" stroke-linecap="round" stroke-linejoin="round"/>
<path d="M0.144531 16.7628C0.144531 16.7628 4.85078 18.2951 6.76612 19.9915M0.527598 22.2352C0.527598 22.2352 4.57716 22.8372 6.93029 21.9069" stroke="#001026" stroke-width="0.656686" stroke-linecap="round" stroke-linejoin="round"/>
<path fill-rule="evenodd" clip-rule="evenodd" d="M31.228 11.181C32.815 13.6436 32.8697 16.4345 31.3374 17.4195C29.8052 18.4045 27.2879 17.2553 25.6462 14.7928C24.0592 12.3302 24.0044 9.53927 25.5367 8.55424C27.069 7.51449 29.641 8.71841 31.228 11.181Z" fill="white" stroke="#001026" stroke-width="0.656686" stroke-linecap="round" stroke-linejoin="round"/>
<path fill-rule="evenodd" clip-rule="evenodd" d="M31.0091 14.3003C31.0091 14.9023 30.5713 15.3948 30.0241 15.3948C29.4769 15.3948 29.0391 14.9023 29.0391 14.3003C29.0391 13.6983 29.4769 13.2058 30.0241 13.2058C30.5713 13.2058 31.0091 13.6983 31.0091 14.3003Z" fill="#001026"/>
<path fill-rule="evenodd" clip-rule="evenodd" d="M17.6564 12.7132C19.2982 15.1211 19.1887 18.0762 17.7112 19.1159C15.9053 20.1557 13.4974 19.3896 11.8557 16.9817C10.1593 14.5739 10.0498 11.4546 11.7463 10.2507C13.4427 8.99202 16.0147 10.3054 17.6564 12.7132Z" fill="white" stroke="#001026" stroke-width="0.656686" stroke-linecap="round" stroke-linejoin="round"/>
<path fill-rule="evenodd" clip-rule="evenodd" d="M17.3275 15.8873C17.3275 16.4893 16.8897 16.9818 16.3425 16.9818C15.7952 16.9818 15.3574 16.4893 15.3574 15.8873C15.3574 15.2854 15.7952 14.7928 16.3425 14.7928C16.8897 14.8476 17.3275 15.2854 17.3275 15.8873Z" fill="#001026"/>
</g>
<defs>
<clipPath id="clip0_14145_2987">
<rect width="44" height="32.2414" fill="white" transform="translate(0 0.125488)"/>
</clipPath>
</defs>
</svg>
