<svg width="24" height="25" viewBox="0 0 24 25" fill="none" xmlns="http://www.w3.org/2000/svg">
<path d="M15 2.00488H9V4.00488H15V2.00488ZM11 15.0049H13V9.00488H11V15.0049ZM19.03 8.38488L20.45 6.96488C20.02 6.45488 19.55 5.97488 19.04 5.55488L17.62 6.97488C16.07 5.73488 14.12 4.99488 12 4.99488C7.03 4.99488 3 9.02488 3 13.9949C3 18.9649 7.02 22.9949 12 22.9949C16.98 22.9949 21 18.9649 21 13.9949C21 11.8849 20.26 9.93488 19.03 8.38488ZM12 21.0049C8.13 21.0049 5 17.8749 5 14.0049C5 10.1349 8.13 7.00488 12 7.00488C15.87 7.00488 19 10.1349 19 14.0049C19 17.8749 15.87 21.0049 12 21.0049Z" fill="#2E2E2E"/>
</svg>
