<svg width="32" height="32" viewBox="0 0 32 32" fill="none" xmlns="http://www.w3.org/2000/svg">
<g clip-path="url(#clip0_13789_7372)">
<path d="M16.0749 27.5403C22.4081 27.5403 27.5423 22.4062 27.5423 16.0729C27.5423 9.73961 22.4081 4.60547 16.0749 4.60547C9.74157 4.60547 4.60742 9.73961 4.60742 16.0729C4.60742 22.4062 9.74157 27.5403 16.0749 27.5403Z" fill="#97EFFF"/>
<path d="M16.118 21.441C19.0978 21.441 21.5134 19.0254 21.5134 16.0456C21.5134 13.0658 19.0978 10.6502 16.118 10.6502C13.1382 10.6502 10.7227 13.0658 10.7227 16.0456C10.7227 19.0254 13.1382 21.441 16.118 21.441Z" fill="#F5FCFF"/>
<path d="M12.2719 26.8948C7.80773 25.3261 4.60742 21.0732 4.60742 16.073C4.60742 9.73959 9.74155 4.60547 16.0749 4.60547C4.36786 7.20016 3.23455 21.8348 12.2719 26.8948Z" fill="#B0F6FF"/>
<path d="M18.2969 27.3254C23.5668 26.2907 27.5423 21.6461 27.5423 16.073C27.5423 11.323 24.6544 7.24759 20.5385 5.50671C30.237 12.6697 26.6152 25.2102 18.2969 27.3254Z" fill="#6EE5F4"/>
<path d="M16.0004 28.0209C9.37152 28.0209 3.97852 22.6279 3.97852 15.999C3.97852 9.37017 9.37152 3.97717 16.0004 3.97717C22.6293 3.97717 28.0223 9.37017 28.0223 15.999C28.0223 22.6279 22.6293 28.0209 16.0004 28.0209ZM16.0004 5.08586C9.98283 5.08586 5.0872 9.98149 5.0872 15.999C5.0872 22.0166 9.98283 26.9122 16.0004 26.9122C22.018 26.9122 26.9136 22.0166 26.9136 15.999C26.9136 9.98149 22.0179 5.08586 16.0004 5.08586Z" fill="black"/>
<path d="M15.8769 31.9989C15.8755 31.9989 15.8742 31.9989 15.8728 31.9989C13.2609 31.9803 10.66 31.306 8.35136 30.0491C4.86667 28.152 2.22386 25.0476 0.90942 21.3077C-0.395268 17.5953 -0.293205 13.5554 1.19667 9.93226C1.31317 9.6492 1.63704 9.51401 1.92017 9.63038C2.20329 9.74676 2.33842 10.0708 2.22204 10.3539C0.835732 13.7251 0.741045 17.4848 1.95542 20.9401C3.17861 24.4206 5.63829 27.3098 8.88142 29.0753C11.0304 30.2453 13.4507 30.8728 15.8807 30.8901C16.1869 30.8923 16.4333 31.1422 16.4311 31.4483C16.4289 31.7533 16.1812 31.9989 15.8769 31.9989Z" fill="black"/>
<path d="M4.70654 6.01553C4.5711 6.01553 4.43548 5.96628 4.32873 5.86672C4.10479 5.65797 4.09242 5.30722 4.30117 5.08328L4.3271 5.05547C4.53629 4.83191 4.88704 4.82028 5.11067 5.02947C5.33417 5.23866 5.34585 5.58941 5.13667 5.81303L5.1121 5.83922C5.00304 5.95622 4.85492 6.01553 4.70654 6.01553Z" fill="black"/>
<path d="M21.4326 31.0095C21.2027 31.0095 20.9943 30.8654 20.9137 30.6503C20.862 30.5114 20.8664 30.3606 20.9278 30.2261C20.9892 30.0908 21.0993 29.9881 21.2382 29.9363L21.2456 29.9334C21.3084 29.9098 21.3742 29.8979 21.4407 29.8979C21.6699 29.8979 21.879 30.042 21.9596 30.2571C21.9832 30.3207 21.9951 30.3872 21.9951 30.4545C21.9944 30.6828 21.8502 30.8905 21.6359 30.9711L21.6278 30.974C21.5649 30.9977 21.4991 31.0095 21.4326 31.0095ZM26.5917 27.7973C26.4372 27.7973 26.2945 27.736 26.1881 27.6237C25.9789 27.4012 25.9893 27.0493 26.2117 26.8395L26.2139 26.8373C26.2309 26.821 26.2479 26.8055 26.2649 26.7892C26.3684 26.6909 26.5044 26.6362 26.647 26.6362C26.8008 26.6362 26.9434 26.6976 27.0491 26.8084C27.1474 26.9119 27.2021 27.0479 27.2014 27.1913C27.2014 27.3443 27.1407 27.4869 27.0299 27.5919L26.9722 27.6466C26.8689 27.7441 26.7335 27.7973 26.5917 27.7973ZM30.1343 22.7772C30.0567 22.7772 29.982 22.761 29.9104 22.7299C29.7751 22.67 29.6709 22.5614 29.6177 22.4232C29.5637 22.285 29.5674 22.1342 29.6273 21.9989C29.6354 21.9812 29.6428 21.9627 29.6509 21.945L29.6569 21.9317C29.7448 21.7292 29.9444 21.5983 30.1654 21.5983C30.2415 21.5983 30.3161 21.6138 30.3864 21.6449C30.5889 21.7328 30.719 21.9324 30.7197 22.1527C30.7197 22.2288 30.7042 22.3035 30.6732 22.3744C30.6628 22.3988 30.6525 22.4225 30.6414 22.4468C30.5526 22.6472 30.3538 22.7772 30.1343 22.7772ZM31.4447 16.7755C31.4425 16.7755 31.4395 16.7755 31.4374 16.7755C31.1314 16.7711 30.886 16.519 30.8904 16.2138C30.8904 16.1887 30.8912 16.1643 30.8912 16.1398C30.8934 15.8368 31.1425 15.5907 31.4455 15.5907H31.4499C31.7522 15.5928 31.9984 15.8405 31.9998 16.142C31.9998 16.1442 31.9998 16.1472 31.9998 16.1494L31.999 16.2285C31.9946 16.5302 31.7463 16.7755 31.4447 16.7755ZM30.3065 10.7377C30.0795 10.7377 29.8785 10.6017 29.7928 10.3917C29.7862 10.3747 29.7787 10.3577 29.7721 10.3407L29.7647 10.3237C29.7374 10.2565 29.7234 10.1862 29.7234 10.1145C29.7226 9.8876 29.8579 9.68585 30.067 9.6001C30.1343 9.57203 30.2052 9.55797 30.2777 9.55797C30.5031 9.55797 30.7042 9.69322 30.7906 9.90166C30.7987 9.9216 30.8069 9.9416 30.815 9.96153L30.8202 9.97485C30.9355 10.2579 30.798 10.5817 30.5149 10.697C30.4484 10.7243 30.3782 10.7377 30.3065 10.7377ZM26.9102 5.61854C26.7624 5.61854 26.6235 5.56091 26.5192 5.45666L26.4667 5.40491C26.3595 5.29847 26.3004 5.15728 26.3019 5.00728C26.3027 4.86166 26.3589 4.72422 26.4615 4.62072C26.5665 4.51429 26.7062 4.45591 26.8562 4.45591C27.0026 4.45591 27.1408 4.51285 27.245 4.61553C27.2612 4.63103 27.2775 4.64735 27.2938 4.6636L27.3019 4.67172C27.5185 4.88754 27.5185 5.2386 27.3027 5.45516C27.1985 5.56091 27.0588 5.61854 26.9102 5.61854ZM9.67391 2.46547C9.45585 2.46547 9.25704 2.33685 9.1676 2.13728C9.04266 1.85866 9.1676 1.52972 9.44698 1.40485C9.45735 1.40041 9.46766 1.39522 9.47804 1.39079C9.49135 1.38485 9.50541 1.37897 9.51941 1.37229C9.59035 1.34122 9.66579 1.32497 9.74335 1.32497C9.9621 1.32497 10.1617 1.45504 10.2504 1.65535C10.3739 1.93472 10.2467 2.26291 9.96735 2.38635L9.9666 2.3871C9.94441 2.39672 9.92298 2.40629 9.90079 2.41591C9.90079 2.41666 9.90079 2.41666 9.90004 2.41666C9.82841 2.44847 9.75229 2.46547 9.67391 2.46547ZM21.7829 2.2326C21.7112 2.2326 21.6417 2.21929 21.5745 2.19197L21.5065 2.1646C21.2936 2.0796 21.1569 1.87635 21.1576 1.64722C21.1584 1.57772 21.1717 1.50904 21.1975 1.44397C21.2825 1.2326 21.4843 1.0951 21.7127 1.0951C21.7829 1.0951 21.8524 1.10841 21.9182 1.13504L21.9256 1.13797C21.947 1.14685 21.9692 1.15572 21.9914 1.1646C22.1289 1.22004 22.236 1.32572 22.2937 1.46247C22.3514 1.59847 22.3521 1.74922 22.2967 1.88672C22.2116 2.0966 22.0099 2.2326 21.7829 2.2326ZM15.6675 1.11135C15.5219 1.11135 15.3844 1.05516 15.2802 0.95391C15.1752 0.85191 15.1161 0.71516 15.1131 0.569598C15.1131 0.56441 15.1131 0.559973 15.1131 0.555535C15.1131 0.40991 15.1693 0.27316 15.2713 0.168973C15.3725 0.0654727 15.5093 0.00634774 15.6549 0.00266024C15.6682 0.00266024 15.6815 0.00191024 15.6955 0.00191024L15.734 0.00116024C15.884 -0.00102726 16.0252 0.0550977 16.1316 0.160098C16.2365 0.262098 16.295 0.399598 16.2979 0.54591C16.3001 0.693723 16.2454 0.83416 16.142 0.940598C16.0392 1.04704 15.901 1.10691 15.7532 1.10985C15.7289 1.10985 15.7052 1.1106 15.6808 1.11135H15.6793C15.6756 1.11135 15.6712 1.11135 15.6675 1.11135Z" fill="black"/>
<path d="M21.4003 31.0222C21.1753 31.0222 20.9637 30.8842 20.8806 30.6609C20.7739 30.3739 20.92 30.0548 21.207 29.9481L21.2397 29.9359C21.5262 29.8281 21.8459 29.973 21.9537 30.2596C22.0614 30.5461 21.9166 30.8658 21.63 30.9736L21.5934 30.9873C21.5298 31.011 21.4645 31.0222 21.4003 31.0222Z" fill="black"/>
<path d="M21.3527 21.905C21.2113 21.905 21.0698 21.8511 20.9616 21.7435L15.587 16.393C15.4821 16.2886 15.4233 16.1465 15.4238 15.9985L15.447 8.50526C15.4479 8.1997 15.696 7.95264 16.0013 7.95264C16.0018 7.95264 16.0025 7.95264 16.003 7.95264C16.3091 7.95357 16.5566 8.20251 16.5556 8.5087L16.5332 15.7706L21.7438 20.9578C21.9608 21.1738 21.9616 21.5248 21.7456 21.7418C21.6373 21.8505 21.495 21.905 21.3527 21.905Z" fill="black"/>
<path d="M21.2461 18.1188C21.1937 18.1188 21.1404 18.1114 21.0876 18.0956C20.7942 18.0082 20.6273 17.6995 20.7146 17.4061C20.85 16.9516 20.9186 16.4783 20.9186 15.9992C20.9186 14.3186 20.0737 12.7711 18.6586 11.8599C18.4012 11.6943 18.3269 11.3511 18.4926 11.0938C18.6585 10.8363 19.0014 10.7621 19.2588 10.9278C20.9924 12.044 22.0273 13.9398 22.0273 15.9991C22.0273 16.5855 21.9431 17.1653 21.7771 17.7226C21.7054 17.9631 21.4849 18.1188 21.2461 18.1188Z" fill="black"/>
<path d="M16.0004 22.0268C12.6767 22.0268 9.97266 19.3228 9.97266 15.9991C9.97266 13.885 11.05 11.9625 12.8545 10.8565C13.1155 10.6965 13.4568 10.7784 13.6168 11.0394C13.7768 11.3004 13.6948 11.6417 13.4338 11.8017C11.9607 12.7045 11.0813 14.2737 11.0813 15.9991C11.0813 18.7115 13.2879 20.9181 16.0003 20.9181C16.3501 20.9181 16.6992 20.8813 17.0376 20.8087C17.3372 20.7444 17.6317 20.9351 17.6958 21.2345C17.7601 21.5338 17.5695 21.8285 17.2701 21.8927C16.8555 21.9817 16.4283 22.0268 16.0004 22.0268Z" fill="black"/>
</g>
<defs>
<clipPath id="clip0_13789_7372">
<rect width="32" height="32" fill="white"/>
</clipPath>
</defs>
</svg>
