<svg width="96" height="96" viewBox="0 0 96 96" fill="none" xmlns="http://www.w3.org/2000/svg">
<path d="M75.4287 39.7444H73.4675C72.4324 39.7444 71.5925 40.5844 71.5925 41.6194V55.2919C71.5925 55.5319 71.5474 55.7681 71.4575 55.9931L64.8987 72.3431C63.62 73.5881 62.2587 74.7056 60.8037 75.7669H60.7999C43.5424 87.7106 22.0662 83.1056 10.745 68.4206C9.13995 66.3431 7.7787 64.1119 6.6762 61.7719C1.57245 50.9981 1.83495 37.9594 8.46495 27.2194C9.30495 25.8431 10.22 24.5344 11.2062 23.3081C17.0562 16.0219 25.34 11.4544 34.1937 10.1306C49.4825 7.83565 64.2462 15.4631 71.465 28.5469V28.5506C72.9575 31.2581 74.0937 34.1381 74.8587 37.1194C75.0799 37.9856 75.2712 38.8631 75.4287 39.7444Z" fill="#72C2E9"/>
<path d="M30.612 62.04L10.7438 68.4207C9.14178 66.3435 7.78016 64.1119 6.67578 61.7704L15.759 48.324C17.0067 46.4768 17.364 44.1687 16.7329 42.0308L11.205 23.3063C17.055 16.0204 25.3392 11.4525 34.1933 10.1288L43.3455 21.885C45.9345 25.2109 45.2592 30.0192 41.8542 32.5032L34.9898 37.5102C32.0678 39.6417 31.0935 43.5612 32.6783 46.8128L35.0412 51.6612C37.032 55.7475 34.9403 60.6499 30.612 62.04Z" fill="#13BF6D"/>
<path d="M75.4282 39.7444H73.467C72.432 39.7444 71.592 40.5844 71.592 41.6194V55.2919C71.592 55.5319 71.547 55.7682 71.457 55.9932L64.8982 72.3432C63.6195 73.5882 62.2582 74.7057 60.8032 75.7669H60.7995C60.7995 75.7632 60.7995 75.7632 60.7995 75.7632C58.3432 72.4819 58.8345 68.8069 60.9532 66.4107L64.1182 62.8219C66.882 59.6944 66.4132 54.8832 63.1095 52.3407L59.2207 49.3557C55.467 46.4719 55.4707 40.8057 59.232 37.9257L71.4645 28.5507C72.957 31.2582 74.0932 34.1382 74.8582 37.1194C75.0795 37.9857 75.2707 38.8632 75.4282 39.7444Z" fill="#13BF6D"/>
<path d="M75.4286 39.7444H73.4674C72.4324 39.7444 71.5924 40.5844 71.5924 41.6194V55.2919C71.5924 55.5319 71.5474 55.7681 71.4574 55.9931L64.8986 72.3431C63.6199 73.5881 62.2586 74.7056 60.8036 75.7669H60.7999C60.7999 75.7631 60.7999 75.7631 60.7999 75.7631C60.7774 75.7331 68.9674 55.1494 68.9674 55.1494V41.6194C68.9674 39.1369 70.9848 37.1194 73.4674 37.1194H74.8586C75.0799 37.9856 75.2711 38.8631 75.4286 39.7444Z" fill="#0E9B6D"/>
<path d="M88.6249 86.2706H65.6187C62.5999 86.2706 60.5337 83.2219 61.6587 80.4169L64.8987 72.3431L71.4578 55.9916C71.5467 55.7696 71.5924 55.5326 71.5924 55.2938V41.6194C71.5924 40.584 72.432 39.7444 73.4674 39.7444H80.7762C81.8115 39.7444 82.6512 40.584 82.6512 41.6194V55.2938C82.6512 55.533 82.6969 55.77 82.7858 55.992L92.5845 80.4173C93.7099 83.2219 91.6474 86.2706 88.6249 86.2706Z" fill="#EEEEEE"/>
<path d="M81.2005 72.1695C81.2005 74.649 79.1905 76.6594 76.7106 76.6594C74.2311 76.6594 72.2207 74.6494 72.2207 72.1695C72.2207 69.6901 76.7106 63.8884 76.7106 63.8884C76.7106 63.8884 81.2005 69.6901 81.2005 72.1695Z" fill="#13BF6D"/>
<path d="M86.5755 28.5492C85.0901 28.0583 83.5563 27.6293 82.695 23.9198C81.9018 27.3368 80.631 27.9492 78.8145 28.5492C81.777 29.5279 82.224 31.149 82.695 33.1785C83.5068 29.6802 84.8493 29.1195 86.5755 28.5492Z" fill="#F0C020"/>
<path d="M81.7236 33.4042C81.2934 31.5498 81.0092 30.3247 78.5019 29.4963C77.5907 29.1952 77.5929 27.9026 78.5019 27.6022C80.0113 27.1035 81.0084 26.7738 81.7236 23.694C81.9609 22.6702 83.4283 22.6676 83.6664 23.694C84.3977 26.8436 85.4901 27.1413 86.8881 27.6018C87.7993 27.903 87.7971 29.1956 86.8881 29.496C85.4327 29.9767 84.3808 30.3243 83.6664 33.4038C83.4279 34.4325 81.9624 34.4328 81.7236 33.4042ZM81.1536 28.572C81.8713 29.0647 82.3618 29.6276 82.7151 30.2231C83.1429 29.4667 83.6383 28.9462 84.1903 28.5585C83.6612 28.1797 83.1486 27.6435 82.6989 26.8331C82.2542 27.633 81.7344 28.1737 81.1536 28.572Z" fill="black"/>
<path d="M10.3758 57.2295C9.98842 57.2295 9.62579 56.9876 9.49079 56.6013C7.29479 50.3201 7.09717 43.6646 8.92004 37.3541C9.06367 36.8565 9.58229 36.5696 10.081 36.7136C10.5783 36.8572 10.8652 37.377 10.7215 37.8746C9.00742 43.809 9.19379 50.0707 11.2608 55.9826C11.4318 56.4712 11.1742 57.006 10.6852 57.177C10.5828 57.2126 10.4785 57.2295 10.3758 57.2295Z" fill="#C5E5FE"/>
<path d="M15.6885 67.2288C15.3465 66.84 15.3848 66.2475 15.7737 65.9058C16.1629 65.5638 16.755 65.6017 17.0967 65.991C24.8018 74.7555 36.8382 78.105 47.8527 74.9613C48.3488 74.8196 48.8689 75.1072 49.0114 75.6056C49.1535 76.1036 48.8652 76.6222 48.3672 76.7643C36.6368 80.1131 23.8545 76.5176 15.6885 67.2288ZM50.7814 74.9827C50.58 74.5057 50.8035 73.956 51.2805 73.7546C51.615 73.6136 51.9473 73.4658 52.2777 73.3121C52.7464 73.0942 53.3048 73.2967 53.5234 73.7662C53.742 74.2353 53.5388 74.7933 53.0693 75.012C52.7183 75.1755 52.365 75.3322 52.0099 75.4818C51.5322 75.6832 50.9828 75.4593 50.7814 74.9827Z" fill="#C5E5FE"/>
<path d="M15.6907 67.2303C12.9509 64.1272 10.8652 60.5505 9.49082 56.5998C9.32057 56.1108 9.57932 55.5765 10.0683 55.4062C10.5562 55.2363 11.0917 55.4947 11.2619 55.9837C12.5561 59.7029 14.5188 63.0697 17.0966 65.9895C17.4393 66.3776 17.4022 66.9701 17.0141 67.3125C16.6263 67.6552 16.0334 67.6188 15.6907 67.2303Z" fill="#76FFBB"/>
<path d="M88.6248 83.4581H65.6182C65.1003 83.4581 64.6807 83.0385 64.6807 82.5206C64.6807 82.0028 65.1003 81.5831 65.6182 81.5831H88.0015L78.4345 57.7358C78.1218 56.9554 77.9632 56.1338 77.9632 55.2938V48.3694C77.9632 47.8515 78.3828 47.4319 78.9007 47.4319C79.4185 47.4319 79.8382 47.8515 79.8382 48.3694V55.2938C79.8382 55.8938 79.9514 56.4806 80.1749 57.0379L89.974 81.4643C90.3648 82.4336 89.6437 83.4581 88.6248 83.4581ZM78.901 45.5565C78.3832 45.5565 77.9635 45.1369 77.9635 44.619V43.494C77.9635 42.9761 78.3832 42.5565 78.901 42.5565C79.4189 42.5565 79.8385 42.9761 79.8385 43.494V44.619C79.8385 45.1369 79.4189 45.5565 78.901 45.5565Z" fill="white"/>
<path d="M38.7644 33.5939C38.3422 33.9071 38.2548 34.4958 38.5619 34.9027C38.8567 35.3193 39.4574 35.4161 39.8707 35.1089C40.2869 34.8052 40.3807 34.2164 40.0769 33.8002C39.781 33.3989 39.1698 33.3014 38.7644 33.5939Z" fill="black"/>
<path d="M82.138 72.1695C82.138 69.4482 77.9316 63.9345 77.452 63.3147C77.077 62.8302 76.3446 62.8302 75.9692 63.3147C75.4896 63.9345 71.2832 69.4482 71.2832 72.1695C71.2832 74.8418 73.2265 77.064 75.7731 77.5099V79.4265C75.7731 79.9444 76.1927 80.364 76.7106 80.364C77.2285 80.364 77.6481 79.9444 77.6481 79.4265V77.5099C80.1947 77.064 82.138 74.8422 82.138 72.1695ZM77.6481 75.5922V71.3959C77.6481 70.878 77.2285 70.4584 76.7106 70.4584C76.1927 70.4584 75.7731 70.878 75.7731 71.3959V75.5922C74.2686 75.1793 73.1582 73.8034 73.1582 72.1695C73.1582 70.8177 75.109 67.6737 76.711 65.4555C78.3126 67.6729 80.263 70.8158 80.263 72.1695C80.263 73.8034 79.1526 75.1793 77.6481 75.5922Z" fill="black"/>
<path d="M83.9117 61.314C84.1067 61.8067 84.6579 62.0246 85.1304 61.8352C85.6104 61.644 85.8429 61.0965 85.6517 60.6165C85.4642 60.1477 84.9054 59.9077 84.4329 60.0952C83.9526 60.2865 83.7204 60.834 83.9117 61.314Z" fill="black"/>
<path d="M80.7764 38.8065H76.1984C72.6314 21.0544 57.1972 9.1204 40.2562 8.79903C18.4657 8.38578 1.43917 26.5598 2.18992 47.4308C2.88517 66.7613 18.3164 82.8015 38.3797 83.4867C46.771 83.7732 55.3473 81.2595 62.5833 75.5955L60.7889 80.0678C59.4269 83.4394 61.8877 87.1977 65.6189 87.2078H88.6252C92.3283 87.1977 94.8213 83.4732 93.4552 80.0678L87.0464 64.0965C86.8589 63.6278 86.3002 63.3878 85.8277 63.5753C85.3514 63.7703 85.1189 64.314 85.3064 64.7903C85.3064 64.794 85.3064 64.794 85.3064 64.794L91.7152 80.7653C92.6032 82.9737 90.9562 85.3279 88.6252 85.3328H65.6189C63.2827 85.3279 61.6409 82.9763 62.5289 80.7653C63.4559 78.4549 71.3714 58.725 72.3277 56.3415C72.4627 56.004 72.5302 55.6553 72.5302 55.2915V41.619C72.5302 41.1053 72.9502 40.6815 73.4677 40.6815H75.4027C75.4038 40.6815 75.4049 40.6815 75.406 40.6815H80.7764C81.2902 40.6815 81.7139 41.1053 81.7139 41.619V55.2915C81.7139 55.6553 81.7814 56.0078 81.9164 56.3415L82.5164 57.834C82.711 58.3264 83.2615 58.5447 83.7352 58.3553C84.2125 58.1625 84.451 57.6195 84.2564 57.1365L83.6564 55.6403C83.6114 55.5315 83.5889 55.4153 83.5889 55.2915V41.619C83.5889 40.0703 82.3252 38.8065 80.7764 38.8065ZM10.8322 25.3545L15.8339 42.2963C16.3878 44.1724 16.0773 46.1783 14.9823 47.799L6.84667 59.8425C2.21204 48.7778 3.22192 35.9134 10.8322 25.3545ZM73.4673 38.8065C71.9148 38.8065 70.6548 40.0703 70.6548 41.619V55.2915C70.6548 55.4153 70.6323 55.5315 70.5873 55.644L64.105 71.802C63.1795 72.6923 62.1655 73.5552 61.0349 74.4188C59.5222 71.8309 59.905 69.0102 61.6548 67.0332C64.7984 63.465 66.8598 61.7903 66.8598 58.0594C66.8598 55.7344 65.866 53.5144 64.1335 51.9732C63.7623 51.6432 63.1398 51.6769 62.8098 52.0519C62.4685 52.4382 62.5023 53.0307 62.8885 53.3757C64.2198 54.5569 64.9848 56.2669 64.9848 58.0594C64.9848 60.9634 63.4627 62.1477 60.2485 65.7919C58.054 68.2688 57.3888 72.0255 59.4982 75.5018C43.9008 85.7667 24.0085 82.9549 12.3344 68.8943L30.8973 62.9344C35.7385 61.3692 38.134 55.8975 35.8848 51.2494L33.5185 46.4007C32.1074 43.4937 33.0423 40.0939 35.5398 38.2669L36.841 37.3219C37.2573 37.0144 37.351 36.4257 37.0473 36.0094C36.751 35.6082 36.1398 35.5107 35.7348 35.8032L34.4373 36.7519C31.2355 39.0878 30.0078 43.4603 31.8348 47.2257L34.1973 52.0707C35.9512 55.6838 34.087 59.9434 30.3235 61.1457L11.0928 67.3234C9.81554 65.6044 8.69617 63.7673 7.75529 61.8465L16.5355 48.8487C17.9448 46.7622 18.3445 44.1803 17.6313 41.7653L12.2474 23.5268C17.6988 16.9227 25.3147 12.5498 33.7987 11.1503L42.6052 22.4603C44.7757 25.2548 44.3062 29.1833 41.7202 31.4115C41.3182 31.7652 41.2919 32.352 41.6227 32.7353C41.9508 33.1189 42.5362 33.1804 42.9464 32.8328C46.3233 29.9213 46.8363 24.8434 44.0864 21.309L35.9482 10.8574C49.726 9.4399 63.2534 16.2927 70.2434 28.3069L58.6623 37.1828C55.0173 39.9604 54.5272 45.0057 57.016 48.4253C57.3093 48.831 57.8958 48.9462 58.3285 48.6315C58.7448 48.3278 58.8348 47.7465 58.5348 47.3265C58.5348 47.3265 58.5348 47.3265 58.5348 47.3228C56.5987 44.6697 57.0292 40.7914 59.8023 38.6715L71.1562 29.9689C72.5283 32.6509 73.6158 35.6385 74.287 38.8065H73.4673Z" fill="black"/>
<path d="M61.1192 49.6291C60.7217 49.3253 60.1105 49.4078 59.8067 49.8053C59.4917 50.2141 59.5667 50.8028 59.9792 51.1178C60.3865 51.4324 60.9696 51.3616 61.2917 50.9453C61.6052 50.5403 61.5359 49.9516 61.1192 49.6291Z" fill="black"/>
</svg>
